M48
; DRILL file {KiCad 5.1.5-52549c5~84~ubuntu18.04.1} date Sun 09 Feb 2020 02:40:05 PM EST
; FORMAT={-:-/ absolute / metric / decimal}
; #@! TF.CreationDate,2020-02-09T14:40:05-05:00
; #@! TF.GenerationSoftware,Kicad,Pcbnew,5.1.5-52549c5~84~ubuntu18.04.1
; #@! TF.FileFunction,Plated,1,2,PTH
FMAT,2
METRIC
T1C0.400
T2C0.600
T3C0.760
T4C0.800
T5C0.900
T6C1.000
T7C1.520
%
G90
G05
T1
X195.631Y-110.719
X195.909Y-127.941
X196.063Y-122.301
T2
X206.407Y-125.349
X208.407Y-125.349
T3
X198.374Y-136.525
X199.644Y-133.985
X200.914Y-136.525
X202.184Y-133.985
X203.454Y-136.525
X204.724Y-133.985
X205.994Y-136.525
X207.264Y-133.985
X177.165Y-136.525
X178.435Y-133.985
X179.705Y-136.525
X180.975Y-133.985
X182.245Y-136.525
X183.515Y-133.985
X184.785Y-136.525
X186.055Y-133.985
T4
X213.157Y-90.526
X215.657Y-90.526
T5
X65.557Y-41.504
X73.584Y-39.04
X85.522Y-36.22
X218.542Y-62.128
X218.796Y-58.674
X218.872Y-65.71
T6
X189.23Y-77.851
X189.23Y-80.391
X189.23Y-82.931
X189.23Y-85.471
X189.23Y-88.011
X189.23Y-90.551
X189.23Y-93.091
X189.23Y-95.631
X189.23Y-98.171
X189.23Y-100.711
X189.23Y-103.251
X189.23Y-105.791
X189.23Y-108.331
X189.23Y-110.871
X189.23Y-113.411
X189.23Y-115.951
X209.55Y-88.011
X209.55Y-90.551
X209.55Y-93.091
X209.55Y-95.631
X209.55Y-98.171
X209.55Y-100.711
X209.55Y-103.251
X209.55Y-105.791
X209.55Y-108.331
X209.55Y-110.871
X209.55Y-113.411
X209.55Y-115.951
X214.986Y-130.607
T7
X97.513Y-58.285
X102.593Y-58.285
X145.513Y-124.285
X150.593Y-124.285
X121.513Y-91.285
X126.593Y-91.285
X85.513Y-124.285
X90.593Y-124.285
X157.513Y-58.285
X162.593Y-58.285
X109.513Y-135.285
X114.593Y-135.285
X121.513Y-102.285
X126.593Y-102.285
X109.513Y-69.285
X114.593Y-69.285
X157.513Y-80.285
X162.593Y-80.285
X133.513Y-135.285
X138.593Y-135.285
X133.513Y-124.285
X138.593Y-124.285
X73.513Y-124.285
X78.593Y-124.285
X145.513Y-135.285
X150.593Y-135.285
X109.513Y-91.285
X114.593Y-91.285
X109.513Y-80.285
X114.593Y-80.285
X145.513Y-113.285
X150.593Y-113.285
X73.513Y-69.285
X78.593Y-69.285
X73.513Y-113.285
X78.593Y-113.285
X109.513Y-58.285
X114.593Y-58.285
X157.513Y-124.285
X162.593Y-124.285
X157.513Y-102.285
X162.593Y-102.285
X213.411Y-47.828
X218.491Y-47.828
X157.513Y-91.285
X162.593Y-91.285
X85.513Y-58.285
X90.593Y-58.285
X97.513Y-124.285
X102.593Y-124.285
X145.513Y-80.285
X150.593Y-80.285
X133.513Y-102.285
X138.593Y-102.285
X85.513Y-102.285
X90.593Y-102.285
X97.513Y-69.285
X102.593Y-69.285
X109.513Y-113.285
X114.593Y-113.285
X121.513Y-80.285
X126.593Y-80.285
X157.513Y-113.285
X162.593Y-113.285
X73.513Y-135.285
X78.593Y-135.285
X73.513Y-102.285
X78.593Y-102.285
X73.513Y-91.285
X78.593Y-91.285
X61.513Y-58.285
X66.593Y-58.285
X109.513Y-124.285
X114.593Y-124.285
X61.513Y-135.285
X66.593Y-135.285
X85.513Y-113.285
X90.593Y-113.285
X61.513Y-102.285
X66.593Y-102.285
X121.513Y-58.285
X126.593Y-58.285
X145.513Y-58.285
X150.593Y-58.285
X157.513Y-69.285
X162.593Y-69.285
X121.513Y-113.285
X126.593Y-113.285
X85.513Y-135.285
X90.593Y-135.285
X145.513Y-69.285
X150.593Y-69.285
X121.513Y-69.285
X126.593Y-69.285
X61.513Y-113.285
X66.593Y-113.285
X133.513Y-80.285
X138.593Y-80.285
X61.513Y-124.285
X66.593Y-124.285
X61.513Y-91.285
X66.593Y-91.285
X109.513Y-102.285
X114.593Y-102.285
X85.513Y-91.285
X90.593Y-91.285
X145.513Y-91.285
X150.593Y-91.285
X85.513Y-80.285
X90.593Y-80.285
X133.513Y-58.285
X138.593Y-58.285
X121.513Y-124.285
X126.593Y-124.285
X97.513Y-102.285
X102.593Y-102.285
X145.513Y-102.285
X150.593Y-102.285
X61.513Y-80.285
X66.593Y-80.285
X133.513Y-69.285
X138.593Y-69.285
X133.513Y-113.285
X138.593Y-113.285
X157.513Y-135.285
X162.593Y-135.285
X133.513Y-91.285
X138.593Y-91.285
X97.513Y-80.285
X102.593Y-80.285
X97.513Y-91.285
X102.593Y-91.285
X121.513Y-135.285
X126.593Y-135.285
X73.513Y-58.285
X78.593Y-58.285
X97.513Y-135.285
X102.593Y-135.285
X97.513Y-113.285
X102.593Y-113.285
X73.513Y-80.285
X78.593Y-80.285
X85.513Y-69.285
X90.593Y-69.285
X61.513Y-69.285
X66.593Y-69.285
T0
M30
