G04 #@! TF.GenerationSoftware,KiCad,Pcbnew,5.1.5-52549c5~84~ubuntu18.04.1*
G04 #@! TF.CreationDate,2020-02-09T14:38:17-05:00*
G04 #@! TF.ProjectId,solenoid_board,736f6c65-6e6f-4696-945f-626f6172642e,rev?*
G04 #@! TF.SameCoordinates,Original*
G04 #@! TF.FileFunction,Copper,L2,Bot*
G04 #@! TF.FilePolarity,Positive*
%FSLAX46Y46*%
G04 Gerber Fmt 4.6, Leading zero omitted, Abs format (unit mm)*
G04 Created by KiCad (PCBNEW 5.1.5-52549c5~84~ubuntu18.04.1) date 2020-02-09 14:38:17*
%MOMM*%
%LPD*%
G04 APERTURE LIST*
G04 #@! TA.AperFunction,Profile*
%ADD10C,0.120000*%
G04 #@! TD*
G04 #@! TA.AperFunction,ComponentPad*
%ADD11C,3.000000*%
G04 #@! TD*
G04 #@! TA.AperFunction,ComponentPad*
%ADD12R,3.000000X3.000000*%
G04 #@! TD*
G04 #@! TA.AperFunction,ComponentPad*
%ADD13C,1.500000*%
G04 #@! TD*
G04 #@! TA.AperFunction,ComponentPad*
%ADD14R,1.500000X1.500000*%
G04 #@! TD*
G04 #@! TA.AperFunction,ComponentPad*
%ADD15C,1.600000*%
G04 #@! TD*
G04 #@! TA.AperFunction,ComponentPad*
%ADD16R,1.600000X1.600000*%
G04 #@! TD*
G04 #@! TA.AperFunction,ComponentPad*
%ADD17C,1.200000*%
G04 #@! TD*
G04 #@! TA.AperFunction,ComponentPad*
%ADD18R,1.200000X1.200000*%
G04 #@! TD*
G04 #@! TA.AperFunction,ComponentPad*
%ADD19R,1.700000X1.700000*%
G04 #@! TD*
G04 #@! TA.AperFunction,ComponentPad*
%ADD20O,1.700000X1.700000*%
G04 #@! TD*
G04 #@! TA.AperFunction,ViaPad*
%ADD21C,0.800000*%
G04 #@! TD*
G04 #@! TA.AperFunction,ViaPad*
%ADD22C,1.800000*%
G04 #@! TD*
G04 #@! TA.AperFunction,Conductor*
%ADD23C,0.250000*%
G04 #@! TD*
G04 #@! TA.AperFunction,Conductor*
%ADD24C,0.750000*%
G04 #@! TD*
G04 #@! TA.AperFunction,Conductor*
%ADD25C,0.254000*%
G04 #@! TD*
G04 APERTURE END LIST*
D10*
X50000000Y-30000000D02*
X50000000Y-150000000D01*
X230000000Y-30000000D02*
X50000000Y-30000000D01*
X230000000Y-150000000D02*
X230000000Y-30000000D01*
X50000000Y-150000000D02*
X230000000Y-150000000D01*
D11*
G04 #@! TO.P,LED7_8,2*
G04 #@! TO.N,/MOSI*
X162592600Y-135285000D03*
D12*
G04 #@! TO.P,LED7_8,1*
G04 #@! TO.N,/COL8*
X157512600Y-135285000D03*
G04 #@! TD*
D11*
G04 #@! TO.P,LED7_7,2*
G04 #@! TO.N,/MOSI*
X150592600Y-135285000D03*
D12*
G04 #@! TO.P,LED7_7,1*
G04 #@! TO.N,/COL7*
X145512600Y-135285000D03*
G04 #@! TD*
D11*
G04 #@! TO.P,LED7_6,2*
G04 #@! TO.N,/MOSI*
X138592600Y-135285000D03*
D12*
G04 #@! TO.P,LED7_6,1*
G04 #@! TO.N,/COL6*
X133512600Y-135285000D03*
G04 #@! TD*
D11*
G04 #@! TO.P,LED7_5,2*
G04 #@! TO.N,/MOSI*
X126592600Y-135285000D03*
D12*
G04 #@! TO.P,LED7_5,1*
G04 #@! TO.N,/COL5*
X121512600Y-135285000D03*
G04 #@! TD*
D11*
G04 #@! TO.P,LED7_4,2*
G04 #@! TO.N,/MOSI*
X114592600Y-135285000D03*
D12*
G04 #@! TO.P,LED7_4,1*
G04 #@! TO.N,/COL4*
X109512600Y-135285000D03*
G04 #@! TD*
D11*
G04 #@! TO.P,LED7_3,2*
G04 #@! TO.N,/MOSI*
X102592600Y-135285000D03*
D12*
G04 #@! TO.P,LED7_3,1*
G04 #@! TO.N,/COL3*
X97512600Y-135285000D03*
G04 #@! TD*
D11*
G04 #@! TO.P,LED7_2,2*
G04 #@! TO.N,/MOSI*
X90592600Y-135285000D03*
D12*
G04 #@! TO.P,LED7_2,1*
G04 #@! TO.N,/COL2*
X85512600Y-135285000D03*
G04 #@! TD*
D11*
G04 #@! TO.P,LED7_1,2*
G04 #@! TO.N,/MOSI*
X78592600Y-135285000D03*
D12*
G04 #@! TO.P,LED7_1,1*
G04 #@! TO.N,/COL1*
X73512600Y-135285000D03*
G04 #@! TD*
D11*
G04 #@! TO.P,LED7_0,2*
G04 #@! TO.N,/MOSI*
X66592600Y-135285000D03*
D12*
G04 #@! TO.P,LED7_0,1*
G04 #@! TO.N,/COL0*
X61512600Y-135285000D03*
G04 #@! TD*
D11*
G04 #@! TO.P,LED6_8,2*
G04 #@! TO.N,/ROW6*
X162592600Y-124285000D03*
D12*
G04 #@! TO.P,LED6_8,1*
G04 #@! TO.N,/COL8*
X157512600Y-124285000D03*
G04 #@! TD*
D11*
G04 #@! TO.P,LED6_7,2*
G04 #@! TO.N,/ROW6*
X150592600Y-124285000D03*
D12*
G04 #@! TO.P,LED6_7,1*
G04 #@! TO.N,/COL7*
X145512600Y-124285000D03*
G04 #@! TD*
D11*
G04 #@! TO.P,LED6_6,2*
G04 #@! TO.N,/ROW6*
X138592600Y-124285000D03*
D12*
G04 #@! TO.P,LED6_6,1*
G04 #@! TO.N,/COL6*
X133512600Y-124285000D03*
G04 #@! TD*
D11*
G04 #@! TO.P,LED6_5,2*
G04 #@! TO.N,/ROW6*
X126592600Y-124285000D03*
D12*
G04 #@! TO.P,LED6_5,1*
G04 #@! TO.N,/COL5*
X121512600Y-124285000D03*
G04 #@! TD*
D11*
G04 #@! TO.P,LED6_4,2*
G04 #@! TO.N,/ROW6*
X114592600Y-124285000D03*
D12*
G04 #@! TO.P,LED6_4,1*
G04 #@! TO.N,/COL4*
X109512600Y-124285000D03*
G04 #@! TD*
D11*
G04 #@! TO.P,LED6_3,2*
G04 #@! TO.N,/ROW6*
X102592600Y-124285000D03*
D12*
G04 #@! TO.P,LED6_3,1*
G04 #@! TO.N,/COL3*
X97512600Y-124285000D03*
G04 #@! TD*
D11*
G04 #@! TO.P,LED6_2,2*
G04 #@! TO.N,/ROW6*
X90592600Y-124285000D03*
D12*
G04 #@! TO.P,LED6_2,1*
G04 #@! TO.N,/COL2*
X85512600Y-124285000D03*
G04 #@! TD*
D11*
G04 #@! TO.P,LED6_1,2*
G04 #@! TO.N,/ROW6*
X78592600Y-124285000D03*
D12*
G04 #@! TO.P,LED6_1,1*
G04 #@! TO.N,/COL1*
X73512600Y-124285000D03*
G04 #@! TD*
D11*
G04 #@! TO.P,LED6_0,2*
G04 #@! TO.N,/ROW6*
X66592600Y-124285000D03*
D12*
G04 #@! TO.P,LED6_0,1*
G04 #@! TO.N,/COL0*
X61512600Y-124285000D03*
G04 #@! TD*
D11*
G04 #@! TO.P,LED5_8,2*
G04 #@! TO.N,/A5*
X162592600Y-113285000D03*
D12*
G04 #@! TO.P,LED5_8,1*
G04 #@! TO.N,/COL8*
X157512600Y-113285000D03*
G04 #@! TD*
D11*
G04 #@! TO.P,LED5_7,2*
G04 #@! TO.N,/A5*
X150592600Y-113285000D03*
D12*
G04 #@! TO.P,LED5_7,1*
G04 #@! TO.N,/COL7*
X145512600Y-113285000D03*
G04 #@! TD*
D11*
G04 #@! TO.P,LED5_6,2*
G04 #@! TO.N,/A5*
X138592600Y-113285000D03*
D12*
G04 #@! TO.P,LED5_6,1*
G04 #@! TO.N,/COL6*
X133512600Y-113285000D03*
G04 #@! TD*
D11*
G04 #@! TO.P,LED5_5,2*
G04 #@! TO.N,/A5*
X126592600Y-113285000D03*
D12*
G04 #@! TO.P,LED5_5,1*
G04 #@! TO.N,/COL5*
X121512600Y-113285000D03*
G04 #@! TD*
D11*
G04 #@! TO.P,LED5_4,2*
G04 #@! TO.N,/A5*
X114592600Y-113285000D03*
D12*
G04 #@! TO.P,LED5_4,1*
G04 #@! TO.N,/COL4*
X109512600Y-113285000D03*
G04 #@! TD*
D11*
G04 #@! TO.P,LED5_3,2*
G04 #@! TO.N,/A5*
X102592600Y-113285000D03*
D12*
G04 #@! TO.P,LED5_3,1*
G04 #@! TO.N,/COL3*
X97512600Y-113285000D03*
G04 #@! TD*
D11*
G04 #@! TO.P,LED5_2,2*
G04 #@! TO.N,/A5*
X90592600Y-113285000D03*
D12*
G04 #@! TO.P,LED5_2,1*
G04 #@! TO.N,/COL2*
X85512600Y-113285000D03*
G04 #@! TD*
D11*
G04 #@! TO.P,LED5_1,2*
G04 #@! TO.N,/A5*
X78592600Y-113285000D03*
D12*
G04 #@! TO.P,LED5_1,1*
G04 #@! TO.N,/COL1*
X73512600Y-113285000D03*
G04 #@! TD*
D11*
G04 #@! TO.P,LED5_0,2*
G04 #@! TO.N,/A5*
X66592600Y-113285000D03*
D12*
G04 #@! TO.P,LED5_0,1*
G04 #@! TO.N,/COL0*
X61512600Y-113285000D03*
G04 #@! TD*
D11*
G04 #@! TO.P,LED4_8,2*
G04 #@! TO.N,/A4*
X162592600Y-102285000D03*
D12*
G04 #@! TO.P,LED4_8,1*
G04 #@! TO.N,/COL8*
X157512600Y-102285000D03*
G04 #@! TD*
D11*
G04 #@! TO.P,LED4_7,2*
G04 #@! TO.N,/A4*
X150592600Y-102285000D03*
D12*
G04 #@! TO.P,LED4_7,1*
G04 #@! TO.N,/COL7*
X145512600Y-102285000D03*
G04 #@! TD*
D11*
G04 #@! TO.P,LED4_6,2*
G04 #@! TO.N,/A4*
X138592600Y-102285000D03*
D12*
G04 #@! TO.P,LED4_6,1*
G04 #@! TO.N,/COL6*
X133512600Y-102285000D03*
G04 #@! TD*
D11*
G04 #@! TO.P,LED4_5,2*
G04 #@! TO.N,/A4*
X126592600Y-102285000D03*
D12*
G04 #@! TO.P,LED4_5,1*
G04 #@! TO.N,/COL5*
X121512600Y-102285000D03*
G04 #@! TD*
D11*
G04 #@! TO.P,LED4_4,2*
G04 #@! TO.N,/A4*
X114592600Y-102285000D03*
D12*
G04 #@! TO.P,LED4_4,1*
G04 #@! TO.N,/COL4*
X109512600Y-102285000D03*
G04 #@! TD*
D11*
G04 #@! TO.P,LED4_3,2*
G04 #@! TO.N,/A4*
X102592600Y-102285000D03*
D12*
G04 #@! TO.P,LED4_3,1*
G04 #@! TO.N,/COL3*
X97512600Y-102285000D03*
G04 #@! TD*
D11*
G04 #@! TO.P,LED4_2,2*
G04 #@! TO.N,/A4*
X90592600Y-102285000D03*
D12*
G04 #@! TO.P,LED4_2,1*
G04 #@! TO.N,/COL2*
X85512600Y-102285000D03*
G04 #@! TD*
D11*
G04 #@! TO.P,LED4_1,2*
G04 #@! TO.N,/A4*
X78592600Y-102285000D03*
D12*
G04 #@! TO.P,LED4_1,1*
G04 #@! TO.N,/COL1*
X73512600Y-102285000D03*
G04 #@! TD*
D11*
G04 #@! TO.P,LED4_0,2*
G04 #@! TO.N,/A4*
X66592600Y-102285000D03*
D12*
G04 #@! TO.P,LED4_0,1*
G04 #@! TO.N,/COL0*
X61512600Y-102285000D03*
G04 #@! TD*
D11*
G04 #@! TO.P,LED3_8,2*
G04 #@! TO.N,/A3*
X162592600Y-91285000D03*
D12*
G04 #@! TO.P,LED3_8,1*
G04 #@! TO.N,/COL8*
X157512600Y-91285000D03*
G04 #@! TD*
D11*
G04 #@! TO.P,LED3_7,2*
G04 #@! TO.N,/A3*
X150592600Y-91285000D03*
D12*
G04 #@! TO.P,LED3_7,1*
G04 #@! TO.N,/COL7*
X145512600Y-91285000D03*
G04 #@! TD*
D11*
G04 #@! TO.P,LED3_6,2*
G04 #@! TO.N,/A3*
X138592600Y-91285000D03*
D12*
G04 #@! TO.P,LED3_6,1*
G04 #@! TO.N,/COL6*
X133512600Y-91285000D03*
G04 #@! TD*
D11*
G04 #@! TO.P,LED3_5,2*
G04 #@! TO.N,/A3*
X126592600Y-91285000D03*
D12*
G04 #@! TO.P,LED3_5,1*
G04 #@! TO.N,/COL5*
X121512600Y-91285000D03*
G04 #@! TD*
D11*
G04 #@! TO.P,LED3_4,2*
G04 #@! TO.N,/A3*
X114592600Y-91285000D03*
D12*
G04 #@! TO.P,LED3_4,1*
G04 #@! TO.N,/COL4*
X109512600Y-91285000D03*
G04 #@! TD*
D11*
G04 #@! TO.P,LED3_3,2*
G04 #@! TO.N,/A3*
X102592600Y-91285000D03*
D12*
G04 #@! TO.P,LED3_3,1*
G04 #@! TO.N,/COL3*
X97512600Y-91285000D03*
G04 #@! TD*
D11*
G04 #@! TO.P,LED3_2,2*
G04 #@! TO.N,/A3*
X90592600Y-91285000D03*
D12*
G04 #@! TO.P,LED3_2,1*
G04 #@! TO.N,/COL2*
X85512600Y-91285000D03*
G04 #@! TD*
D11*
G04 #@! TO.P,LED3_1,2*
G04 #@! TO.N,/A3*
X78592600Y-91285000D03*
D12*
G04 #@! TO.P,LED3_1,1*
G04 #@! TO.N,/COL1*
X73512600Y-91285000D03*
G04 #@! TD*
D11*
G04 #@! TO.P,LED3_0,2*
G04 #@! TO.N,/A3*
X66592600Y-91285000D03*
D12*
G04 #@! TO.P,LED3_0,1*
G04 #@! TO.N,/COL0*
X61512600Y-91285000D03*
G04 #@! TD*
D11*
G04 #@! TO.P,LED2_8,2*
G04 #@! TO.N,/A2*
X162592600Y-80285000D03*
D12*
G04 #@! TO.P,LED2_8,1*
G04 #@! TO.N,/COL8*
X157512600Y-80285000D03*
G04 #@! TD*
D11*
G04 #@! TO.P,LED2_7,2*
G04 #@! TO.N,/A2*
X150592600Y-80285000D03*
D12*
G04 #@! TO.P,LED2_7,1*
G04 #@! TO.N,/COL7*
X145512600Y-80285000D03*
G04 #@! TD*
D11*
G04 #@! TO.P,LED2_6,2*
G04 #@! TO.N,/A2*
X138592600Y-80285000D03*
D12*
G04 #@! TO.P,LED2_6,1*
G04 #@! TO.N,/COL6*
X133512600Y-80285000D03*
G04 #@! TD*
D11*
G04 #@! TO.P,LED2_5,2*
G04 #@! TO.N,/A2*
X126592600Y-80285000D03*
D12*
G04 #@! TO.P,LED2_5,1*
G04 #@! TO.N,/COL5*
X121512600Y-80285000D03*
G04 #@! TD*
D11*
G04 #@! TO.P,LED2_4,2*
G04 #@! TO.N,/A2*
X114592600Y-80285000D03*
D12*
G04 #@! TO.P,LED2_4,1*
G04 #@! TO.N,/COL4*
X109512600Y-80285000D03*
G04 #@! TD*
D11*
G04 #@! TO.P,LED2_3,2*
G04 #@! TO.N,/A2*
X102592600Y-80285000D03*
D12*
G04 #@! TO.P,LED2_3,1*
G04 #@! TO.N,/COL3*
X97512600Y-80285000D03*
G04 #@! TD*
D11*
G04 #@! TO.P,LED2_2,2*
G04 #@! TO.N,/A2*
X90592600Y-80285000D03*
D12*
G04 #@! TO.P,LED2_2,1*
G04 #@! TO.N,/COL2*
X85512600Y-80285000D03*
G04 #@! TD*
D11*
G04 #@! TO.P,LED2_1,2*
G04 #@! TO.N,/A2*
X78592600Y-80285000D03*
D12*
G04 #@! TO.P,LED2_1,1*
G04 #@! TO.N,/COL1*
X73512600Y-80285000D03*
G04 #@! TD*
D11*
G04 #@! TO.P,LED2_0,2*
G04 #@! TO.N,/A2*
X66592600Y-80285000D03*
D12*
G04 #@! TO.P,LED2_0,1*
G04 #@! TO.N,/COL0*
X61512600Y-80285000D03*
G04 #@! TD*
D11*
G04 #@! TO.P,LED1_8,2*
G04 #@! TO.N,/A1*
X162592600Y-69285000D03*
D12*
G04 #@! TO.P,LED1_8,1*
G04 #@! TO.N,/COL8*
X157512600Y-69285000D03*
G04 #@! TD*
D11*
G04 #@! TO.P,LED1_7,2*
G04 #@! TO.N,/A1*
X150592600Y-69285000D03*
D12*
G04 #@! TO.P,LED1_7,1*
G04 #@! TO.N,/COL7*
X145512600Y-69285000D03*
G04 #@! TD*
D11*
G04 #@! TO.P,LED1_6,2*
G04 #@! TO.N,/A1*
X138592600Y-69285000D03*
D12*
G04 #@! TO.P,LED1_6,1*
G04 #@! TO.N,/COL6*
X133512600Y-69285000D03*
G04 #@! TD*
D11*
G04 #@! TO.P,LED1_5,2*
G04 #@! TO.N,/A1*
X126592600Y-69285000D03*
D12*
G04 #@! TO.P,LED1_5,1*
G04 #@! TO.N,/COL5*
X121512600Y-69285000D03*
G04 #@! TD*
D11*
G04 #@! TO.P,LED1_4,2*
G04 #@! TO.N,/A1*
X114592600Y-69285000D03*
D12*
G04 #@! TO.P,LED1_4,1*
G04 #@! TO.N,/COL4*
X109512600Y-69285000D03*
G04 #@! TD*
D11*
G04 #@! TO.P,LED1_3,2*
G04 #@! TO.N,/A1*
X102592600Y-69285000D03*
D12*
G04 #@! TO.P,LED1_3,1*
G04 #@! TO.N,/COL3*
X97512600Y-69285000D03*
G04 #@! TD*
D11*
G04 #@! TO.P,LED1_2,2*
G04 #@! TO.N,/A1*
X90592600Y-69285000D03*
D12*
G04 #@! TO.P,LED1_2,1*
G04 #@! TO.N,/COL2*
X85512600Y-69285000D03*
G04 #@! TD*
D11*
G04 #@! TO.P,LED1_1,2*
G04 #@! TO.N,/A1*
X78592600Y-69285000D03*
D12*
G04 #@! TO.P,LED1_1,1*
G04 #@! TO.N,/COL1*
X73512600Y-69285000D03*
G04 #@! TD*
D11*
G04 #@! TO.P,LED1_0,2*
G04 #@! TO.N,/A1*
X66592600Y-69285000D03*
D12*
G04 #@! TO.P,LED1_0,1*
G04 #@! TO.N,/COL0*
X61512600Y-69285000D03*
G04 #@! TD*
D11*
G04 #@! TO.P,LED0_8,2*
G04 #@! TO.N,/A0*
X162592600Y-58285000D03*
D12*
G04 #@! TO.P,LED0_8,1*
G04 #@! TO.N,/COL8*
X157512600Y-58285000D03*
G04 #@! TD*
D11*
G04 #@! TO.P,LED0_7,2*
G04 #@! TO.N,/A0*
X150592600Y-58285000D03*
D12*
G04 #@! TO.P,LED0_7,1*
G04 #@! TO.N,/COL7*
X145512600Y-58285000D03*
G04 #@! TD*
D11*
G04 #@! TO.P,LED0_6,2*
G04 #@! TO.N,/A0*
X138592600Y-58285000D03*
D12*
G04 #@! TO.P,LED0_6,1*
G04 #@! TO.N,/COL6*
X133512600Y-58285000D03*
G04 #@! TD*
D11*
G04 #@! TO.P,LED0_5,2*
G04 #@! TO.N,/A0*
X126592600Y-58285000D03*
D12*
G04 #@! TO.P,LED0_5,1*
G04 #@! TO.N,/COL5*
X121512600Y-58285000D03*
G04 #@! TD*
D11*
G04 #@! TO.P,LED0_4,2*
G04 #@! TO.N,/A0*
X114592600Y-58285000D03*
D12*
G04 #@! TO.P,LED0_4,1*
G04 #@! TO.N,/COL4*
X109512600Y-58285000D03*
G04 #@! TD*
D11*
G04 #@! TO.P,LED0_3,2*
G04 #@! TO.N,/A0*
X102592600Y-58285000D03*
D12*
G04 #@! TO.P,LED0_3,1*
G04 #@! TO.N,/COL3*
X97512600Y-58285000D03*
G04 #@! TD*
D11*
G04 #@! TO.P,LED0_2,2*
G04 #@! TO.N,/A0*
X90592600Y-58285000D03*
D12*
G04 #@! TO.P,LED0_2,1*
G04 #@! TO.N,/COL2*
X85512600Y-58285000D03*
G04 #@! TD*
D11*
G04 #@! TO.P,LED0_1,2*
G04 #@! TO.N,/A0*
X78592600Y-58285000D03*
D12*
G04 #@! TO.P,LED0_1,1*
G04 #@! TO.N,/COL1*
X73512600Y-58285000D03*
G04 #@! TD*
D11*
G04 #@! TO.P,LED0_0,2*
G04 #@! TO.N,/A0*
X66592600Y-58285000D03*
D12*
G04 #@! TO.P,LED0_0,1*
G04 #@! TO.N,/COL0*
X61512600Y-58285000D03*
G04 #@! TD*
D13*
G04 #@! TO.P,RJ1,8*
G04 #@! TO.N,N/C*
X207264000Y-133985000D03*
G04 #@! TO.P,RJ1,7*
X205994000Y-136525000D03*
G04 #@! TO.P,RJ1,6*
X204724000Y-133985000D03*
G04 #@! TO.P,RJ1,5*
G04 #@! TO.N,/RJ45_5*
X203454000Y-136525000D03*
G04 #@! TO.P,RJ1,4*
G04 #@! TO.N,/RJ45_4*
X202184000Y-133985000D03*
G04 #@! TO.P,RJ1,3*
G04 #@! TO.N,N/C*
X200914000Y-136525000D03*
G04 #@! TO.P,RJ1,2*
X199644000Y-133985000D03*
D14*
G04 #@! TO.P,RJ1,1*
X198374000Y-136525000D03*
G04 #@! TD*
D13*
G04 #@! TO.P,RJ0,8*
G04 #@! TO.N,N/C*
X186055000Y-133985000D03*
G04 #@! TO.P,RJ0,7*
X184785000Y-136525000D03*
G04 #@! TO.P,RJ0,6*
X183515000Y-133985000D03*
G04 #@! TO.P,RJ0,5*
G04 #@! TO.N,/RJ45_5*
X182245000Y-136525000D03*
G04 #@! TO.P,RJ0,4*
G04 #@! TO.N,/RJ45_4*
X180975000Y-133985000D03*
G04 #@! TO.P,RJ0,3*
G04 #@! TO.N,N/C*
X179705000Y-136525000D03*
G04 #@! TO.P,RJ0,2*
X178435000Y-133985000D03*
D14*
G04 #@! TO.P,RJ0,1*
X177165000Y-136525000D03*
G04 #@! TD*
D15*
G04 #@! TO.P,CP0,2*
G04 #@! TO.N,GND*
X215656800Y-90525600D03*
D16*
G04 #@! TO.P,CP0,1*
G04 #@! TO.N,+5V*
X213156800Y-90525600D03*
G04 #@! TD*
D17*
G04 #@! TO.P,C0.1nF0,2*
G04 #@! TO.N,+3V3*
X206407000Y-125349000D03*
D18*
G04 #@! TO.P,C0.1nF0,1*
G04 #@! TO.N,GND*
X208407000Y-125349000D03*
G04 #@! TD*
D11*
G04 #@! TO.P,+5V_IN1,2*
G04 #@! TO.N,+5V*
X213410800Y-47828200D03*
D12*
G04 #@! TO.P,+5V_IN1,1*
G04 #@! TO.N,GND*
X218490800Y-47828200D03*
G04 #@! TD*
D19*
G04 #@! TO.P,GND1,1*
G04 #@! TO.N,GND*
X214985600Y-130606800D03*
G04 #@! TD*
D20*
G04 #@! TO.P,J3,12*
G04 #@! TO.N,/SDA*
X209550000Y-115951000D03*
G04 #@! TO.P,J3,11*
G04 #@! TO.N,/SCL*
X209550000Y-113411000D03*
G04 #@! TO.P,J3,10*
G04 #@! TO.N,/D5*
X209550000Y-110871000D03*
G04 #@! TO.P,J3,9*
G04 #@! TO.N,/D6*
X209550000Y-108331000D03*
G04 #@! TO.P,J3,8*
G04 #@! TO.N,/D9*
X209550000Y-105791000D03*
G04 #@! TO.P,J3,7*
G04 #@! TO.N,/D10*
X209550000Y-103251000D03*
G04 #@! TO.P,J3,6*
G04 #@! TO.N,/D11*
X209550000Y-100711000D03*
G04 #@! TO.P,J3,5*
G04 #@! TO.N,/D12*
X209550000Y-98171000D03*
G04 #@! TO.P,J3,4*
G04 #@! TO.N,/D13*
X209550000Y-95631000D03*
G04 #@! TO.P,J3,3*
G04 #@! TO.N,+5V*
X209550000Y-93091000D03*
G04 #@! TO.P,J3,2*
G04 #@! TO.N,N/C*
X209550000Y-90551000D03*
D19*
G04 #@! TO.P,J3,1*
X209550000Y-88011000D03*
G04 #@! TD*
D20*
G04 #@! TO.P,J2,16*
G04 #@! TO.N,GND*
X189230000Y-115951000D03*
G04 #@! TO.P,J2,15*
G04 #@! TO.N,/TX1*
X189230000Y-113411000D03*
G04 #@! TO.P,J2,14*
G04 #@! TO.N,/RX0*
X189230000Y-110871000D03*
G04 #@! TO.P,J2,13*
G04 #@! TO.N,/MISO*
X189230000Y-108331000D03*
G04 #@! TO.P,J2,12*
G04 #@! TO.N,/MOSI*
X189230000Y-105791000D03*
G04 #@! TO.P,J2,11*
G04 #@! TO.N,/ROW6*
X189230000Y-103251000D03*
G04 #@! TO.P,J2,10*
G04 #@! TO.N,/A5*
X189230000Y-100711000D03*
G04 #@! TO.P,J2,9*
G04 #@! TO.N,/A4*
X189230000Y-98171000D03*
G04 #@! TO.P,J2,8*
G04 #@! TO.N,/A3*
X189230000Y-95631000D03*
G04 #@! TO.P,J2,7*
G04 #@! TO.N,/A2*
X189230000Y-93091000D03*
G04 #@! TO.P,J2,6*
G04 #@! TO.N,/A1*
X189230000Y-90551000D03*
G04 #@! TO.P,J2,5*
G04 #@! TO.N,/A0*
X189230000Y-88011000D03*
G04 #@! TO.P,J2,4*
G04 #@! TO.N,GND*
X189230000Y-85471000D03*
G04 #@! TO.P,J2,3*
G04 #@! TO.N,N/C*
X189230000Y-82931000D03*
G04 #@! TO.P,J2,2*
G04 #@! TO.N,+3V3*
X189230000Y-80391000D03*
D19*
G04 #@! TO.P,J2,1*
G04 #@! TO.N,N/C*
X189230000Y-77851000D03*
G04 #@! TD*
D21*
G04 #@! TO.N,GND*
X196062600Y-122301000D03*
G04 #@! TO.N,/RX0*
X195630800Y-110718600D03*
D22*
G04 #@! TO.N,/D11*
X218795600Y-58674000D03*
X85521800Y-36220400D03*
G04 #@! TO.N,/D12*
X218541600Y-62128400D03*
X73583800Y-39039800D03*
D21*
G04 #@! TO.N,/RJ45_4*
X195909500Y-127940500D03*
D22*
G04 #@! TO.N,/D13*
X218871800Y-65709800D03*
X65557400Y-41503600D03*
G04 #@! TD*
D23*
G04 #@! TO.N,/RX0*
X189230000Y-110871000D02*
X191541400Y-110871000D01*
X191541400Y-110871000D02*
X193014600Y-109397800D01*
X193014600Y-109397800D02*
X194310000Y-109397800D01*
X194310000Y-109397800D02*
X195630800Y-110718600D01*
X195630800Y-110718600D02*
X195630800Y-110718600D01*
D24*
G04 #@! TO.N,/A4*
X162592600Y-102285000D02*
X162592600Y-105428200D01*
X162592600Y-105428200D02*
X161086800Y-106934000D01*
X161086800Y-106934000D02*
X152527000Y-106934000D01*
X150592600Y-104999600D02*
X150592600Y-102285000D01*
X152527000Y-106934000D02*
X150592600Y-104999600D01*
X150592600Y-104999600D02*
X150592600Y-105033000D01*
X150592600Y-105033000D02*
X148945600Y-106680000D01*
X148945600Y-106680000D02*
X140284200Y-106680000D01*
X138592600Y-104988400D02*
X138592600Y-102285000D01*
X140284200Y-106680000D02*
X138592600Y-104988400D01*
X138592600Y-104988400D02*
X138521400Y-104988400D01*
X138521400Y-104988400D02*
X136626600Y-106883200D01*
X136626600Y-106883200D02*
X128320800Y-106883200D01*
X126592600Y-105155000D02*
X126592600Y-102285000D01*
X128320800Y-106883200D02*
X126592600Y-105155000D01*
X126592600Y-105155000D02*
X126543800Y-105155000D01*
X126543800Y-105155000D02*
X125069600Y-106629200D01*
X125069600Y-106629200D02*
X115747800Y-106629200D01*
X114592600Y-105474000D02*
X114592600Y-102285000D01*
X115747800Y-106629200D02*
X114592600Y-105474000D01*
X114592600Y-105474000D02*
X114592600Y-105498400D01*
X114592600Y-105498400D02*
X113207800Y-106883200D01*
X113207800Y-106883200D02*
X103809800Y-106883200D01*
X102592600Y-105666000D02*
X102592600Y-102285000D01*
X103809800Y-106883200D02*
X102592600Y-105666000D01*
X102592600Y-105666000D02*
X102563200Y-105666000D01*
X102563200Y-105666000D02*
X101574600Y-106654600D01*
X101574600Y-106654600D02*
X91973400Y-106654600D01*
X90592600Y-105273800D02*
X90592600Y-102285000D01*
X91973400Y-106654600D02*
X90592600Y-105273800D01*
X90592600Y-105273800D02*
X90592600Y-105292200D01*
X90592600Y-105292200D02*
X89433400Y-106451400D01*
X89433400Y-106451400D02*
X79806800Y-106451400D01*
X78592600Y-105237200D02*
X78592600Y-102285000D01*
X79806800Y-106451400D02*
X78592600Y-105237200D01*
X78592600Y-105237200D02*
X78592600Y-105354200D01*
X78592600Y-105354200D02*
X77622400Y-106324400D01*
X77622400Y-106324400D02*
X68046600Y-106324400D01*
X66592600Y-104870400D02*
X66592600Y-102285000D01*
X68046600Y-106324400D02*
X66592600Y-104870400D01*
G04 #@! TO.N,/A0*
X150592600Y-61718000D02*
X150592600Y-58285000D01*
X152476200Y-63601600D02*
X150592600Y-61718000D01*
X161163000Y-63601600D02*
X152476200Y-63601600D01*
X162592600Y-58285000D02*
X162592600Y-62172000D01*
X162592600Y-62172000D02*
X161163000Y-63601600D01*
X150592600Y-61718000D02*
X150592600Y-61878400D01*
X150592600Y-61878400D02*
X149047200Y-63423800D01*
X149047200Y-63423800D02*
X140614400Y-63423800D01*
X138592600Y-61402000D02*
X138592600Y-58285000D01*
X140614400Y-63423800D02*
X138592600Y-61402000D01*
X126592600Y-61568600D02*
X126592600Y-58285000D01*
X128397000Y-63373000D02*
X126592600Y-61568600D01*
X138592600Y-61402000D02*
X138592600Y-61457800D01*
X136677400Y-63373000D02*
X128397000Y-63373000D01*
X138592600Y-61457800D02*
X136677400Y-63373000D01*
X126592600Y-61568600D02*
X126592600Y-61621400D01*
X126592600Y-61621400D02*
X124841000Y-63373000D01*
X124841000Y-63373000D02*
X116357400Y-63373000D01*
X114592600Y-61608200D02*
X114592600Y-58285000D01*
X116357400Y-63373000D02*
X114592600Y-61608200D01*
X114592600Y-61608200D02*
X114592600Y-61861200D01*
X114592600Y-61861200D02*
X113207800Y-63246000D01*
X113207800Y-63246000D02*
X104013000Y-63246000D01*
X102592600Y-61825600D02*
X102592600Y-58285000D01*
X104013000Y-63246000D02*
X102592600Y-61825600D01*
X102592600Y-61825600D02*
X102537800Y-61825600D01*
X102537800Y-61825600D02*
X100939600Y-63423800D01*
X100939600Y-63423800D02*
X92506800Y-63423800D01*
X90592600Y-61509600D02*
X90592600Y-58285000D01*
X92506800Y-63423800D02*
X90592600Y-61509600D01*
X90592600Y-61509600D02*
X90592600Y-61655000D01*
X90592600Y-61655000D02*
X88849200Y-63398400D01*
X88849200Y-63398400D02*
X80187800Y-63398400D01*
X78592600Y-61803200D02*
X78592600Y-58285000D01*
X80187800Y-63398400D02*
X78592600Y-61803200D01*
X78592600Y-61803200D02*
X78592600Y-61894800D01*
X78592600Y-61894800D02*
X77241400Y-63246000D01*
X77241400Y-63246000D02*
X68351400Y-63246000D01*
X66592600Y-61487200D02*
X66592600Y-58285000D01*
X68351400Y-63246000D02*
X66592600Y-61487200D01*
G04 #@! TO.N,/D11*
X217522808Y-58674000D02*
X217395808Y-58801000D01*
X218795600Y-58674000D02*
X217522808Y-58674000D01*
X217395808Y-58801000D02*
X183896000Y-58801000D01*
X183896000Y-58801000D02*
X161315400Y-36220400D01*
X161315400Y-36220400D02*
X85521800Y-36220400D01*
X85521800Y-36220400D02*
X85521800Y-36220400D01*
G04 #@! TO.N,/D12*
X218541600Y-62128400D02*
X183337200Y-62128400D01*
X183337200Y-62128400D02*
X160248600Y-39039800D01*
X160248600Y-39039800D02*
X73583800Y-39039800D01*
X73583800Y-39039800D02*
X73583800Y-39039800D01*
D23*
G04 #@! TO.N,/RJ45_4*
X201954000Y-133985000D02*
X202184000Y-133985000D01*
X182549800Y-132410200D02*
X180975000Y-133985000D01*
X193522600Y-132410200D02*
X182549800Y-132410200D01*
X194716400Y-131216400D02*
X193522600Y-132410200D01*
X195909500Y-127940500D02*
X194716400Y-129133600D01*
X194716400Y-129133600D02*
X194716400Y-131216400D01*
X199415400Y-131216400D02*
X202184000Y-133985000D01*
X194716400Y-131216400D02*
X199415400Y-131216400D01*
D24*
G04 #@! TO.N,/MOSI*
X162592600Y-137406320D02*
X160655000Y-139343920D01*
X162592600Y-135285000D02*
X162592600Y-137406320D01*
X160655000Y-139343920D02*
X152018520Y-139343920D01*
X150592600Y-137918000D02*
X150592600Y-135285000D01*
X152018520Y-139343920D02*
X150592600Y-137918000D01*
X150592600Y-137918000D02*
X150592600Y-138053000D01*
X150592600Y-138053000D02*
X149199600Y-139446000D01*
X149199600Y-139446000D02*
X140030200Y-139446000D01*
X138592600Y-138008400D02*
X138592600Y-135285000D01*
X140030200Y-139446000D02*
X138592600Y-138008400D01*
X138592600Y-138008400D02*
X138592600Y-138115000D01*
X138592600Y-138115000D02*
X137033000Y-139674600D01*
X137033000Y-139674600D02*
X128422400Y-139674600D01*
X126592600Y-137844800D02*
X126592600Y-135285000D01*
X128422400Y-139674600D02*
X126592600Y-137844800D01*
X126592600Y-137844800D02*
X126592600Y-137923000D01*
X126592600Y-137923000D02*
X124942600Y-139573000D01*
X124942600Y-139573000D02*
X116382800Y-139573000D01*
X114592600Y-137782800D02*
X114592600Y-135285000D01*
X116382800Y-139573000D02*
X114592600Y-137782800D01*
X114592600Y-137782800D02*
X114592600Y-138035800D01*
X114592600Y-138035800D02*
X113055400Y-139573000D01*
X113055400Y-139573000D02*
X104267000Y-139573000D01*
X102592600Y-137898600D02*
X102592600Y-135285000D01*
X104267000Y-139573000D02*
X102592600Y-137898600D01*
X102592600Y-137898600D02*
X102592600Y-137945400D01*
X102592600Y-137945400D02*
X100990400Y-139547600D01*
X100990400Y-139547600D02*
X92405200Y-139547600D01*
X90592600Y-137735000D02*
X90592600Y-135285000D01*
X92405200Y-139547600D02*
X90592600Y-137735000D01*
X90592600Y-137735000D02*
X90592600Y-137880400D01*
X90592600Y-137880400D02*
X88976200Y-139496800D01*
X88976200Y-139496800D02*
X80035400Y-139496800D01*
X78592600Y-138054000D02*
X78592600Y-135285000D01*
X80035400Y-139496800D02*
X78592600Y-138054000D01*
X78592600Y-138054000D02*
X78592600Y-138171000D01*
X78592600Y-138171000D02*
X77114400Y-139649200D01*
X77114400Y-139649200D02*
X68224400Y-139649200D01*
X66592600Y-138017400D02*
X66592600Y-135285000D01*
X68224400Y-139649200D02*
X66592600Y-138017400D01*
G04 #@! TO.N,/A5*
X162592600Y-115406320D02*
X160655000Y-117343920D01*
X162592600Y-113285000D02*
X162592600Y-115406320D01*
X160655000Y-117343920D02*
X151557720Y-117343920D01*
X150592600Y-116378800D02*
X150592600Y-113285000D01*
X151557720Y-117343920D02*
X150592600Y-116378800D01*
X150592600Y-116378800D02*
X150592600Y-116412200D01*
X150592600Y-116412200D02*
X149758400Y-117246400D01*
X149758400Y-117246400D02*
X139674600Y-117246400D01*
X138592600Y-116164400D02*
X138592600Y-113285000D01*
X139674600Y-117246400D02*
X138592600Y-116164400D01*
X138592600Y-116164400D02*
X138592600Y-116194800D01*
X138592600Y-116194800D02*
X137337800Y-117449600D01*
X137337800Y-117449600D02*
X127889000Y-117449600D01*
X126592600Y-116153200D02*
X126592600Y-113285000D01*
X127889000Y-117449600D02*
X126592600Y-116153200D01*
X126592600Y-116153200D02*
X126467600Y-116153200D01*
X126467600Y-116153200D02*
X125272800Y-117348000D01*
X125272800Y-117348000D02*
X116255800Y-117348000D01*
X114592600Y-115684800D02*
X114592600Y-113285000D01*
X116255800Y-117348000D02*
X114592600Y-115684800D01*
X114592600Y-115684800D02*
X114592600Y-115734600D01*
X114592600Y-115734600D02*
X113411000Y-116916200D01*
X113411000Y-116916200D02*
X103835200Y-116916200D01*
X102592600Y-115673600D02*
X102592600Y-113285000D01*
X103835200Y-116916200D02*
X102592600Y-115673600D01*
X102592600Y-115673600D02*
X102512400Y-115673600D01*
X102512400Y-115673600D02*
X101320600Y-116865400D01*
X101320600Y-116865400D02*
X91287600Y-116865400D01*
X90592600Y-116170400D02*
X90592600Y-113285000D01*
X91287600Y-116865400D02*
X90592600Y-116170400D01*
X90592600Y-116170400D02*
X90255400Y-116170400D01*
X90255400Y-116170400D02*
X89179400Y-117246400D01*
X89179400Y-117246400D02*
X79832200Y-117246400D01*
X78592600Y-116006800D02*
X78592600Y-113285000D01*
X79832200Y-117246400D02*
X78592600Y-116006800D01*
X78592600Y-116006800D02*
X78592600Y-116098400D01*
X78592600Y-116098400D02*
X77495400Y-117195600D01*
X77495400Y-117195600D02*
X67310000Y-117195600D01*
X66592600Y-116478200D02*
X66592600Y-113285000D01*
X67310000Y-117195600D02*
X66592600Y-116478200D01*
G04 #@! TO.N,/A3*
X162592600Y-91285000D02*
X162592600Y-93947400D01*
X162592600Y-93947400D02*
X160629600Y-95910400D01*
X160629600Y-95910400D02*
X152806400Y-95910400D01*
X150592600Y-93696600D02*
X150592600Y-91285000D01*
X152806400Y-95910400D02*
X150592600Y-93696600D01*
X150592600Y-93696600D02*
X150592600Y-93730000D01*
X150592600Y-93730000D02*
X148412200Y-95910400D01*
X148412200Y-95910400D02*
X140131800Y-95910400D01*
X138592600Y-94371200D02*
X138592600Y-91285000D01*
X140131800Y-95910400D02*
X138592600Y-94371200D01*
X138592600Y-94371200D02*
X138592600Y-94376200D01*
X138592600Y-94376200D02*
X137439400Y-95529400D01*
X137439400Y-95529400D02*
X128117600Y-95529400D01*
X126592600Y-94004400D02*
X126592600Y-91285000D01*
X128117600Y-95529400D02*
X126592600Y-94004400D01*
X126592600Y-94004400D02*
X126543800Y-94004400D01*
X126543800Y-94004400D02*
X124993400Y-95554800D01*
X124993400Y-95554800D02*
X116128800Y-95554800D01*
X114592600Y-94018600D02*
X114592600Y-91285000D01*
X116128800Y-95554800D02*
X114592600Y-94018600D01*
X114592600Y-94018600D02*
X114515400Y-94018600D01*
X114515400Y-94018600D02*
X113030000Y-95504000D01*
X113030000Y-95504000D02*
X103860600Y-95504000D01*
X102592600Y-94236000D02*
X102592600Y-91285000D01*
X103860600Y-95504000D02*
X102592600Y-94236000D01*
X102592600Y-94236000D02*
X102592600Y-94257400D01*
X102592600Y-94257400D02*
X101219000Y-95631000D01*
X101219000Y-95631000D02*
X91795600Y-95631000D01*
X90592600Y-94428000D02*
X90592600Y-91285000D01*
X91795600Y-95631000D02*
X90592600Y-94428000D01*
X90592600Y-94428000D02*
X90560200Y-94428000D01*
X90560200Y-94428000D02*
X89306400Y-95681800D01*
X89306400Y-95681800D02*
X80238600Y-95681800D01*
X78592600Y-94035800D02*
X78592600Y-91285000D01*
X80238600Y-95681800D02*
X78592600Y-94035800D01*
X78592600Y-94035800D02*
X78592600Y-94102000D01*
X78592600Y-94102000D02*
X77292200Y-95402400D01*
X77292200Y-95402400D02*
X68326000Y-95402400D01*
X66592600Y-93669000D02*
X66592600Y-91285000D01*
X68326000Y-95402400D02*
X66592600Y-93669000D01*
G04 #@! TO.N,/A2*
X162592600Y-82406320D02*
X160035920Y-84963000D01*
X162592600Y-80285000D02*
X162592600Y-82406320D01*
X160035920Y-84963000D02*
X152527000Y-84963000D01*
X150592600Y-83028600D02*
X150592600Y-80285000D01*
X152527000Y-84963000D02*
X150592600Y-83028600D01*
X150592600Y-83028600D02*
X150592600Y-83112800D01*
X150592600Y-83112800D02*
X148742400Y-84963000D01*
X148742400Y-84963000D02*
X140690600Y-84963000D01*
X138592600Y-82865000D02*
X138592600Y-80285000D01*
X140690600Y-84963000D02*
X138592600Y-82865000D01*
X138592600Y-82865000D02*
X138592600Y-82895400D01*
X138592600Y-82895400D02*
X136677400Y-84810600D01*
X136677400Y-84810600D02*
X128016000Y-84810600D01*
X126592600Y-83387200D02*
X126592600Y-80285000D01*
X128016000Y-84810600D02*
X126592600Y-83387200D01*
X126592600Y-83387200D02*
X126592600Y-83389200D01*
X126592600Y-83389200D02*
X125323600Y-84658200D01*
X125323600Y-84658200D02*
X116205000Y-84658200D01*
X114592600Y-83045800D02*
X114592600Y-80285000D01*
X116205000Y-84658200D02*
X114592600Y-83045800D01*
X114592600Y-83045800D02*
X114592600Y-83146400D01*
X114592600Y-83146400D02*
X113080800Y-84658200D01*
X113080800Y-84658200D02*
X104292400Y-84658200D01*
X102592600Y-82958400D02*
X102592600Y-80285000D01*
X104292400Y-84658200D02*
X102592600Y-82958400D01*
X102592600Y-82958400D02*
X102592600Y-83183000D01*
X102592600Y-83183000D02*
X101371400Y-84404200D01*
X101371400Y-84404200D02*
X91846400Y-84404200D01*
X90592600Y-83150400D02*
X90592600Y-80285000D01*
X91846400Y-84404200D02*
X90592600Y-83150400D01*
X90592600Y-83150400D02*
X90560200Y-83150400D01*
X90560200Y-83150400D02*
X89357200Y-84353400D01*
X89357200Y-84353400D02*
X79832200Y-84353400D01*
X78592600Y-83113800D02*
X78592600Y-80285000D01*
X79832200Y-84353400D02*
X78592600Y-83113800D01*
X78592600Y-83113800D02*
X78592600Y-83154600D01*
X78592600Y-83154600D02*
X77444600Y-84302600D01*
X77444600Y-84302600D02*
X68148200Y-84302600D01*
X66592600Y-82747000D02*
X66592600Y-80285000D01*
X68148200Y-84302600D02*
X66592600Y-82747000D01*
G04 #@! TO.N,/A1*
X162592600Y-71406320D02*
X159932520Y-74066400D01*
X162592600Y-69285000D02*
X162592600Y-71406320D01*
X159932520Y-74066400D02*
X152476200Y-74066400D01*
X150592600Y-72182800D02*
X150592600Y-69285000D01*
X152476200Y-74066400D02*
X150592600Y-72182800D01*
X138592600Y-72298600D02*
X138592600Y-69285000D01*
X140360400Y-74066400D02*
X138592600Y-72298600D01*
X148844000Y-74066400D02*
X140360400Y-74066400D01*
X150592600Y-72182800D02*
X150592600Y-72317800D01*
X150592600Y-72317800D02*
X148844000Y-74066400D01*
X138592600Y-72298600D02*
X138592600Y-72557600D01*
X138592600Y-72557600D02*
X137083800Y-74066400D01*
X137083800Y-74066400D02*
X128574800Y-74066400D01*
X126592600Y-72084200D02*
X126592600Y-69285000D01*
X128574800Y-74066400D02*
X126592600Y-72084200D01*
X126592600Y-72084200D02*
X126592600Y-72441800D01*
X126592600Y-72441800D02*
X125145800Y-73888600D01*
X125145800Y-73888600D02*
X116078000Y-73888600D01*
X114592600Y-72403200D02*
X114592600Y-69285000D01*
X116078000Y-73888600D02*
X114592600Y-72403200D01*
X114592600Y-72403200D02*
X114592600Y-72808600D01*
X114592600Y-72808600D02*
X113639600Y-73761600D01*
X113639600Y-73761600D02*
X104241600Y-73761600D01*
X102592600Y-72112600D02*
X102592600Y-69285000D01*
X104241600Y-73761600D02*
X102592600Y-72112600D01*
X102592600Y-72112600D02*
X102592600Y-72388000D01*
X102592600Y-72388000D02*
X101269800Y-73710800D01*
X101269800Y-73710800D02*
X92202000Y-73710800D01*
X90592600Y-72101400D02*
X90592600Y-69285000D01*
X92202000Y-73710800D02*
X90592600Y-72101400D01*
X90592600Y-72101400D02*
X90534800Y-72101400D01*
X90534800Y-72101400D02*
X88900000Y-73736200D01*
X88900000Y-73736200D02*
X80111600Y-73736200D01*
X78592600Y-72217200D02*
X78592600Y-69285000D01*
X80111600Y-73736200D02*
X78592600Y-72217200D01*
X78592600Y-72217200D02*
X78592600Y-72232600D01*
X78592600Y-72232600D02*
X77495400Y-73329800D01*
X77495400Y-73329800D02*
X67919600Y-73329800D01*
X66592600Y-72002800D02*
X66592600Y-69285000D01*
X67919600Y-73329800D02*
X66592600Y-72002800D01*
G04 #@! TO.N,/D13*
X217599008Y-65709800D02*
X216938608Y-65049400D01*
X218871800Y-65709800D02*
X217599008Y-65709800D01*
X216938608Y-65049400D02*
X182956200Y-65049400D01*
X182956200Y-65049400D02*
X159410400Y-41503600D01*
X159410400Y-41503600D02*
X65557400Y-41503600D01*
X65557400Y-41503600D02*
X65557400Y-41503600D01*
G04 #@! TO.N,/ROW6*
X162592600Y-126406320D02*
X159941520Y-129057400D01*
X162592600Y-124285000D02*
X162592600Y-126406320D01*
X159941520Y-129057400D02*
X152476200Y-129057400D01*
X150592600Y-127173800D02*
X150592600Y-124285000D01*
X152476200Y-129057400D02*
X150592600Y-127173800D01*
X150592600Y-127173800D02*
X150592600Y-127207200D01*
X150592600Y-127207200D02*
X149123400Y-128676400D01*
X149123400Y-128676400D02*
X140233400Y-128676400D01*
X138592600Y-127035600D02*
X138592600Y-124285000D01*
X140233400Y-128676400D02*
X138592600Y-127035600D01*
X138592600Y-127035600D02*
X138592600Y-127091400D01*
X138592600Y-127091400D02*
X136931400Y-128752600D01*
X136931400Y-128752600D02*
X128447800Y-128752600D01*
X126592600Y-126897400D02*
X126592600Y-124285000D01*
X128447800Y-128752600D02*
X126592600Y-126897400D01*
X126592600Y-126897400D02*
X126592600Y-126924800D01*
X126592600Y-126924800D02*
X124993400Y-128524000D01*
X124993400Y-128524000D02*
X115900200Y-128524000D01*
X114592600Y-127216400D02*
X114592600Y-124285000D01*
X115900200Y-128524000D02*
X114592600Y-127216400D01*
X114592600Y-127216400D02*
X114439200Y-127216400D01*
X114439200Y-127216400D02*
X113334800Y-128320800D01*
X113334800Y-128320800D02*
X103886000Y-128320800D01*
X102592600Y-127027400D02*
X102592600Y-124285000D01*
X103886000Y-128320800D02*
X102592600Y-127027400D01*
X102592600Y-127027400D02*
X102592600Y-127074200D01*
X102592600Y-127074200D02*
X101244400Y-128422400D01*
X101244400Y-128422400D02*
X92024200Y-128422400D01*
X90592600Y-126990800D02*
X90592600Y-124285000D01*
X92024200Y-128422400D02*
X90592600Y-126990800D01*
X90592600Y-126990800D02*
X90592600Y-127034600D01*
X90592600Y-127034600D02*
X89560400Y-128066800D01*
X89560400Y-128066800D02*
X79502000Y-128066800D01*
X78592600Y-127157400D02*
X78592600Y-124285000D01*
X79502000Y-128066800D02*
X78592600Y-127157400D01*
X78592600Y-127157400D02*
X78582600Y-127157400D01*
X78582600Y-127157400D02*
X77495400Y-128244600D01*
X77495400Y-128244600D02*
X67894200Y-128244600D01*
X66592600Y-126943000D02*
X66592600Y-124285000D01*
X67894200Y-128244600D02*
X66592600Y-126943000D01*
G04 #@! TD*
D25*
G04 #@! TO.N,GND*
G36*
X212788044Y-45775247D02*
G01*
X212399498Y-45936188D01*
X212049817Y-46169837D01*
X211752437Y-46467217D01*
X211518788Y-46816898D01*
X211357847Y-47205444D01*
X211275800Y-47617921D01*
X211275800Y-48038479D01*
X211357847Y-48450956D01*
X211518788Y-48839502D01*
X211752437Y-49189183D01*
X212049817Y-49486563D01*
X212399498Y-49720212D01*
X212788044Y-49881153D01*
X213200521Y-49963200D01*
X213621079Y-49963200D01*
X214033556Y-49881153D01*
X214422102Y-49720212D01*
X214771783Y-49486563D01*
X214930146Y-49328200D01*
X216352728Y-49328200D01*
X216364988Y-49452682D01*
X216401298Y-49572380D01*
X216460263Y-49682694D01*
X216539615Y-49779385D01*
X216636306Y-49858737D01*
X216746620Y-49917702D01*
X216866318Y-49954012D01*
X216990800Y-49966272D01*
X218205050Y-49963200D01*
X218363800Y-49804450D01*
X218363800Y-47955200D01*
X218617800Y-47955200D01*
X218617800Y-49804450D01*
X218776550Y-49963200D01*
X219990800Y-49966272D01*
X220115282Y-49954012D01*
X220234980Y-49917702D01*
X220345294Y-49858737D01*
X220441985Y-49779385D01*
X220521337Y-49682694D01*
X220580302Y-49572380D01*
X220616612Y-49452682D01*
X220628872Y-49328200D01*
X220625800Y-48113950D01*
X220467050Y-47955200D01*
X218617800Y-47955200D01*
X218363800Y-47955200D01*
X216514550Y-47955200D01*
X216355800Y-48113950D01*
X216352728Y-49328200D01*
X214930146Y-49328200D01*
X215069163Y-49189183D01*
X215302812Y-48839502D01*
X215463753Y-48450956D01*
X215545800Y-48038479D01*
X215545800Y-47617921D01*
X215463753Y-47205444D01*
X215302812Y-46816898D01*
X215069163Y-46467217D01*
X214771783Y-46169837D01*
X214422102Y-45936188D01*
X214033556Y-45775247D01*
X213628117Y-45694600D01*
X216945394Y-45694600D01*
X216866318Y-45702388D01*
X216746620Y-45738698D01*
X216636306Y-45797663D01*
X216539615Y-45877015D01*
X216460263Y-45973706D01*
X216401298Y-46084020D01*
X216364988Y-46203718D01*
X216352728Y-46328200D01*
X216355800Y-47542450D01*
X216514550Y-47701200D01*
X218363800Y-47701200D01*
X218363800Y-47681200D01*
X218617800Y-47681200D01*
X218617800Y-47701200D01*
X220467050Y-47701200D01*
X220625800Y-47542450D01*
X220628872Y-46328200D01*
X220616612Y-46203718D01*
X220580302Y-46084020D01*
X220521337Y-45973706D01*
X220441985Y-45877015D01*
X220345294Y-45797663D01*
X220234980Y-45738698D01*
X220115282Y-45702388D01*
X220036206Y-45694600D01*
X222605530Y-45694600D01*
X222554842Y-137109068D01*
X207257743Y-137093233D01*
X207325775Y-136928989D01*
X207379000Y-136661411D01*
X207379000Y-136388589D01*
X207325775Y-136121011D01*
X207221371Y-135868957D01*
X207069799Y-135642114D01*
X206876886Y-135449201D01*
X206650043Y-135297629D01*
X206397989Y-135193225D01*
X206130411Y-135140000D01*
X205857589Y-135140000D01*
X205590011Y-135193225D01*
X205337957Y-135297629D01*
X205111114Y-135449201D01*
X204918201Y-135642114D01*
X204766629Y-135868957D01*
X204724000Y-135971873D01*
X204681371Y-135868957D01*
X204529799Y-135642114D01*
X204336886Y-135449201D01*
X204110043Y-135297629D01*
X203857989Y-135193225D01*
X203590411Y-135140000D01*
X203317589Y-135140000D01*
X203050011Y-135193225D01*
X202797957Y-135297629D01*
X202571114Y-135449201D01*
X202378201Y-135642114D01*
X202226629Y-135868957D01*
X202184000Y-135971873D01*
X202141371Y-135868957D01*
X201989799Y-135642114D01*
X201796886Y-135449201D01*
X201570043Y-135297629D01*
X201317989Y-135193225D01*
X201050411Y-135140000D01*
X200777589Y-135140000D01*
X200510011Y-135193225D01*
X200257957Y-135297629D01*
X200031114Y-135449201D01*
X199838201Y-135642114D01*
X199760445Y-135758483D01*
X199749812Y-135650518D01*
X199713502Y-135530820D01*
X199654537Y-135420506D01*
X199613088Y-135370000D01*
X199780411Y-135370000D01*
X200047989Y-135316775D01*
X200300043Y-135212371D01*
X200526886Y-135060799D01*
X200719799Y-134867886D01*
X200871371Y-134641043D01*
X200914000Y-134538127D01*
X200956629Y-134641043D01*
X201108201Y-134867886D01*
X201301114Y-135060799D01*
X201527957Y-135212371D01*
X201780011Y-135316775D01*
X202047589Y-135370000D01*
X202320411Y-135370000D01*
X202587989Y-135316775D01*
X202840043Y-135212371D01*
X203066886Y-135060799D01*
X203259799Y-134867886D01*
X203411371Y-134641043D01*
X203454000Y-134538127D01*
X203496629Y-134641043D01*
X203648201Y-134867886D01*
X203841114Y-135060799D01*
X204067957Y-135212371D01*
X204320011Y-135316775D01*
X204587589Y-135370000D01*
X204860411Y-135370000D01*
X205127989Y-135316775D01*
X205380043Y-135212371D01*
X205606886Y-135060799D01*
X205799799Y-134867886D01*
X205951371Y-134641043D01*
X205994000Y-134538127D01*
X206036629Y-134641043D01*
X206188201Y-134867886D01*
X206381114Y-135060799D01*
X206607957Y-135212371D01*
X206860011Y-135316775D01*
X207127589Y-135370000D01*
X207400411Y-135370000D01*
X207667989Y-135316775D01*
X207920043Y-135212371D01*
X208146886Y-135060799D01*
X208339799Y-134867886D01*
X208491371Y-134641043D01*
X208595775Y-134388989D01*
X208649000Y-134121411D01*
X208649000Y-133848589D01*
X208595775Y-133581011D01*
X208491371Y-133328957D01*
X208339799Y-133102114D01*
X208146886Y-132909201D01*
X207920043Y-132757629D01*
X207667989Y-132653225D01*
X207400411Y-132600000D01*
X207127589Y-132600000D01*
X206860011Y-132653225D01*
X206607957Y-132757629D01*
X206381114Y-132909201D01*
X206188201Y-133102114D01*
X206036629Y-133328957D01*
X205994000Y-133431873D01*
X205951371Y-133328957D01*
X205799799Y-133102114D01*
X205606886Y-132909201D01*
X205380043Y-132757629D01*
X205127989Y-132653225D01*
X204860411Y-132600000D01*
X204587589Y-132600000D01*
X204320011Y-132653225D01*
X204067957Y-132757629D01*
X203841114Y-132909201D01*
X203648201Y-133102114D01*
X203496629Y-133328957D01*
X203454000Y-133431873D01*
X203411371Y-133328957D01*
X203259799Y-133102114D01*
X203066886Y-132909201D01*
X202840043Y-132757629D01*
X202587989Y-132653225D01*
X202320411Y-132600000D01*
X202047589Y-132600000D01*
X201902635Y-132628833D01*
X200730602Y-131456800D01*
X213497528Y-131456800D01*
X213509788Y-131581282D01*
X213546098Y-131700980D01*
X213605063Y-131811294D01*
X213684415Y-131907985D01*
X213781106Y-131987337D01*
X213891420Y-132046302D01*
X214011118Y-132082612D01*
X214135600Y-132094872D01*
X214699850Y-132091800D01*
X214858600Y-131933050D01*
X214858600Y-130733800D01*
X215112600Y-130733800D01*
X215112600Y-131933050D01*
X215271350Y-132091800D01*
X215835600Y-132094872D01*
X215960082Y-132082612D01*
X216079780Y-132046302D01*
X216190094Y-131987337D01*
X216286785Y-131907985D01*
X216366137Y-131811294D01*
X216425102Y-131700980D01*
X216461412Y-131581282D01*
X216473672Y-131456800D01*
X216470600Y-130892550D01*
X216311850Y-130733800D01*
X215112600Y-130733800D01*
X214858600Y-130733800D01*
X213659350Y-130733800D01*
X213500600Y-130892550D01*
X213497528Y-131456800D01*
X200730602Y-131456800D01*
X199979204Y-130705403D01*
X199955401Y-130676399D01*
X199839676Y-130581426D01*
X199707647Y-130510854D01*
X199564386Y-130467397D01*
X199452733Y-130456400D01*
X199452722Y-130456400D01*
X199415400Y-130452724D01*
X199378078Y-130456400D01*
X195476400Y-130456400D01*
X195476400Y-129756800D01*
X213497528Y-129756800D01*
X213500600Y-130321050D01*
X213659350Y-130479800D01*
X214858600Y-130479800D01*
X214858600Y-129280550D01*
X215112600Y-129280550D01*
X215112600Y-130479800D01*
X216311850Y-130479800D01*
X216470600Y-130321050D01*
X216473672Y-129756800D01*
X216461412Y-129632318D01*
X216425102Y-129512620D01*
X216366137Y-129402306D01*
X216286785Y-129305615D01*
X216190094Y-129226263D01*
X216079780Y-129167298D01*
X215960082Y-129130988D01*
X215835600Y-129118728D01*
X215271350Y-129121800D01*
X215112600Y-129280550D01*
X214858600Y-129280550D01*
X214699850Y-129121800D01*
X214135600Y-129118728D01*
X214011118Y-129130988D01*
X213891420Y-129167298D01*
X213781106Y-129226263D01*
X213684415Y-129305615D01*
X213605063Y-129402306D01*
X213546098Y-129512620D01*
X213509788Y-129632318D01*
X213497528Y-129756800D01*
X195476400Y-129756800D01*
X195476400Y-129448401D01*
X195949302Y-128975500D01*
X196011439Y-128975500D01*
X196211398Y-128935726D01*
X196399756Y-128857705D01*
X196569274Y-128744437D01*
X196713437Y-128600274D01*
X196826705Y-128430756D01*
X196904726Y-128242398D01*
X196944500Y-128042439D01*
X196944500Y-127838561D01*
X196904726Y-127638602D01*
X196826705Y-127450244D01*
X196713437Y-127280726D01*
X196569274Y-127136563D01*
X196399756Y-127023295D01*
X196211398Y-126945274D01*
X196011439Y-126905500D01*
X195807561Y-126905500D01*
X195607602Y-126945274D01*
X195419244Y-127023295D01*
X195249726Y-127136563D01*
X195105563Y-127280726D01*
X194992295Y-127450244D01*
X194914274Y-127638602D01*
X194874500Y-127838561D01*
X194874500Y-127900698D01*
X194205403Y-128569796D01*
X194176399Y-128593599D01*
X194121271Y-128660774D01*
X194081426Y-128709324D01*
X194062658Y-128744437D01*
X194010854Y-128841354D01*
X193967397Y-128984615D01*
X193956400Y-129096268D01*
X193956400Y-129096278D01*
X193952724Y-129133600D01*
X193956400Y-129170923D01*
X193956401Y-130901597D01*
X193207799Y-131650200D01*
X182587133Y-131650200D01*
X182549800Y-131646523D01*
X182512467Y-131650200D01*
X182400814Y-131661197D01*
X182257553Y-131704654D01*
X182125524Y-131775226D01*
X182009799Y-131870199D01*
X181986001Y-131899197D01*
X181256365Y-132628833D01*
X181111411Y-132600000D01*
X180838589Y-132600000D01*
X180571011Y-132653225D01*
X180318957Y-132757629D01*
X180092114Y-132909201D01*
X179899201Y-133102114D01*
X179747629Y-133328957D01*
X179705000Y-133431873D01*
X179662371Y-133328957D01*
X179510799Y-133102114D01*
X179317886Y-132909201D01*
X179091043Y-132757629D01*
X178838989Y-132653225D01*
X178571411Y-132600000D01*
X178298589Y-132600000D01*
X178031011Y-132653225D01*
X177778957Y-132757629D01*
X177552114Y-132909201D01*
X177359201Y-133102114D01*
X177207629Y-133328957D01*
X177103225Y-133581011D01*
X177050000Y-133848589D01*
X177050000Y-134121411D01*
X177103225Y-134388989D01*
X177207629Y-134641043D01*
X177359201Y-134867886D01*
X177552114Y-135060799D01*
X177666049Y-135136928D01*
X176415000Y-135136928D01*
X176290518Y-135149188D01*
X176170820Y-135185498D01*
X176060506Y-135244463D01*
X175963815Y-135323815D01*
X175884463Y-135420506D01*
X175825498Y-135530820D01*
X175789188Y-135650518D01*
X175776928Y-135775000D01*
X175776928Y-137060644D01*
X173736070Y-137058531D01*
X173742629Y-125227363D01*
X205172000Y-125227363D01*
X205172000Y-125470637D01*
X205219460Y-125709236D01*
X205312557Y-125933992D01*
X205447713Y-126136267D01*
X205619733Y-126308287D01*
X205822008Y-126443443D01*
X206046764Y-126536540D01*
X206285363Y-126584000D01*
X206528637Y-126584000D01*
X206767236Y-126536540D01*
X206991992Y-126443443D01*
X207194267Y-126308287D01*
X207249501Y-126253053D01*
X207276463Y-126303494D01*
X207355815Y-126400185D01*
X207452506Y-126479537D01*
X207562820Y-126538502D01*
X207682518Y-126574812D01*
X207807000Y-126587072D01*
X208121250Y-126584000D01*
X208280000Y-126425250D01*
X208280000Y-125476000D01*
X208534000Y-125476000D01*
X208534000Y-126425250D01*
X208692750Y-126584000D01*
X209007000Y-126587072D01*
X209131482Y-126574812D01*
X209251180Y-126538502D01*
X209361494Y-126479537D01*
X209458185Y-126400185D01*
X209537537Y-126303494D01*
X209596502Y-126193180D01*
X209632812Y-126073482D01*
X209645072Y-125949000D01*
X209642000Y-125634750D01*
X209483250Y-125476000D01*
X208534000Y-125476000D01*
X208280000Y-125476000D01*
X208260000Y-125476000D01*
X208260000Y-125222000D01*
X208280000Y-125222000D01*
X208280000Y-124272750D01*
X208534000Y-124272750D01*
X208534000Y-125222000D01*
X209483250Y-125222000D01*
X209642000Y-125063250D01*
X209645072Y-124749000D01*
X209632812Y-124624518D01*
X209596502Y-124504820D01*
X209537537Y-124394506D01*
X209458185Y-124297815D01*
X209361494Y-124218463D01*
X209251180Y-124159498D01*
X209131482Y-124123188D01*
X209007000Y-124110928D01*
X208692750Y-124114000D01*
X208534000Y-124272750D01*
X208280000Y-124272750D01*
X208121250Y-124114000D01*
X207807000Y-124110928D01*
X207682518Y-124123188D01*
X207562820Y-124159498D01*
X207452506Y-124218463D01*
X207355815Y-124297815D01*
X207276463Y-124394506D01*
X207249501Y-124444947D01*
X207194267Y-124389713D01*
X206991992Y-124254557D01*
X206767236Y-124161460D01*
X206528637Y-124114000D01*
X206285363Y-124114000D01*
X206046764Y-124161460D01*
X205822008Y-124254557D01*
X205619733Y-124389713D01*
X205447713Y-124561733D01*
X205312557Y-124764008D01*
X205219460Y-124988764D01*
X205172000Y-125227363D01*
X173742629Y-125227363D01*
X173747575Y-116307890D01*
X187788524Y-116307890D01*
X187833175Y-116455099D01*
X187958359Y-116717920D01*
X188132412Y-116951269D01*
X188348645Y-117146178D01*
X188598748Y-117295157D01*
X188873109Y-117392481D01*
X189103000Y-117271814D01*
X189103000Y-116078000D01*
X189357000Y-116078000D01*
X189357000Y-117271814D01*
X189586891Y-117392481D01*
X189861252Y-117295157D01*
X190111355Y-117146178D01*
X190327588Y-116951269D01*
X190501641Y-116717920D01*
X190626825Y-116455099D01*
X190671476Y-116307890D01*
X190550155Y-116078000D01*
X189357000Y-116078000D01*
X189103000Y-116078000D01*
X187909845Y-116078000D01*
X187788524Y-116307890D01*
X173747575Y-116307890D01*
X173763347Y-87864740D01*
X187745000Y-87864740D01*
X187745000Y-88157260D01*
X187802068Y-88444158D01*
X187914010Y-88714411D01*
X188076525Y-88957632D01*
X188283368Y-89164475D01*
X188457760Y-89281000D01*
X188283368Y-89397525D01*
X188076525Y-89604368D01*
X187914010Y-89847589D01*
X187802068Y-90117842D01*
X187745000Y-90404740D01*
X187745000Y-90697260D01*
X187802068Y-90984158D01*
X187914010Y-91254411D01*
X188076525Y-91497632D01*
X188283368Y-91704475D01*
X188457760Y-91821000D01*
X188283368Y-91937525D01*
X188076525Y-92144368D01*
X187914010Y-92387589D01*
X187802068Y-92657842D01*
X187745000Y-92944740D01*
X187745000Y-93237260D01*
X187802068Y-93524158D01*
X187914010Y-93794411D01*
X188076525Y-94037632D01*
X188283368Y-94244475D01*
X188457760Y-94361000D01*
X188283368Y-94477525D01*
X188076525Y-94684368D01*
X187914010Y-94927589D01*
X187802068Y-95197842D01*
X187745000Y-95484740D01*
X187745000Y-95777260D01*
X187802068Y-96064158D01*
X187914010Y-96334411D01*
X188076525Y-96577632D01*
X188283368Y-96784475D01*
X188457760Y-96901000D01*
X188283368Y-97017525D01*
X188076525Y-97224368D01*
X187914010Y-97467589D01*
X187802068Y-97737842D01*
X187745000Y-98024740D01*
X187745000Y-98317260D01*
X187802068Y-98604158D01*
X187914010Y-98874411D01*
X188076525Y-99117632D01*
X188283368Y-99324475D01*
X188457760Y-99441000D01*
X188283368Y-99557525D01*
X188076525Y-99764368D01*
X187914010Y-100007589D01*
X187802068Y-100277842D01*
X187745000Y-100564740D01*
X187745000Y-100857260D01*
X187802068Y-101144158D01*
X187914010Y-101414411D01*
X188076525Y-101657632D01*
X188283368Y-101864475D01*
X188457760Y-101981000D01*
X188283368Y-102097525D01*
X188076525Y-102304368D01*
X187914010Y-102547589D01*
X187802068Y-102817842D01*
X187745000Y-103104740D01*
X187745000Y-103397260D01*
X187802068Y-103684158D01*
X187914010Y-103954411D01*
X188076525Y-104197632D01*
X188283368Y-104404475D01*
X188457760Y-104521000D01*
X188283368Y-104637525D01*
X188076525Y-104844368D01*
X187914010Y-105087589D01*
X187802068Y-105357842D01*
X187745000Y-105644740D01*
X187745000Y-105937260D01*
X187802068Y-106224158D01*
X187914010Y-106494411D01*
X188076525Y-106737632D01*
X188283368Y-106944475D01*
X188457760Y-107061000D01*
X188283368Y-107177525D01*
X188076525Y-107384368D01*
X187914010Y-107627589D01*
X187802068Y-107897842D01*
X187745000Y-108184740D01*
X187745000Y-108477260D01*
X187802068Y-108764158D01*
X187914010Y-109034411D01*
X188076525Y-109277632D01*
X188283368Y-109484475D01*
X188457760Y-109601000D01*
X188283368Y-109717525D01*
X188076525Y-109924368D01*
X187914010Y-110167589D01*
X187802068Y-110437842D01*
X187745000Y-110724740D01*
X187745000Y-111017260D01*
X187802068Y-111304158D01*
X187914010Y-111574411D01*
X188076525Y-111817632D01*
X188283368Y-112024475D01*
X188457760Y-112141000D01*
X188283368Y-112257525D01*
X188076525Y-112464368D01*
X187914010Y-112707589D01*
X187802068Y-112977842D01*
X187745000Y-113264740D01*
X187745000Y-113557260D01*
X187802068Y-113844158D01*
X187914010Y-114114411D01*
X188076525Y-114357632D01*
X188283368Y-114564475D01*
X188465534Y-114686195D01*
X188348645Y-114755822D01*
X188132412Y-114950731D01*
X187958359Y-115184080D01*
X187833175Y-115446901D01*
X187788524Y-115594110D01*
X187909845Y-115824000D01*
X189103000Y-115824000D01*
X189103000Y-115804000D01*
X189357000Y-115804000D01*
X189357000Y-115824000D01*
X190550155Y-115824000D01*
X190671476Y-115594110D01*
X190626825Y-115446901D01*
X190501641Y-115184080D01*
X190327588Y-114950731D01*
X190111355Y-114755822D01*
X189994466Y-114686195D01*
X190176632Y-114564475D01*
X190383475Y-114357632D01*
X190545990Y-114114411D01*
X190657932Y-113844158D01*
X190715000Y-113557260D01*
X190715000Y-113264740D01*
X190657932Y-112977842D01*
X190545990Y-112707589D01*
X190383475Y-112464368D01*
X190176632Y-112257525D01*
X190002240Y-112141000D01*
X190176632Y-112024475D01*
X190383475Y-111817632D01*
X190508178Y-111631000D01*
X191504078Y-111631000D01*
X191541400Y-111634676D01*
X191578722Y-111631000D01*
X191578733Y-111631000D01*
X191690386Y-111620003D01*
X191833647Y-111576546D01*
X191965676Y-111505974D01*
X192081401Y-111411001D01*
X192105203Y-111381998D01*
X193329403Y-110157800D01*
X193995199Y-110157800D01*
X194595800Y-110758402D01*
X194595800Y-110820539D01*
X194635574Y-111020498D01*
X194713595Y-111208856D01*
X194826863Y-111378374D01*
X194971026Y-111522537D01*
X195140544Y-111635805D01*
X195328902Y-111713826D01*
X195528861Y-111753600D01*
X195732739Y-111753600D01*
X195932698Y-111713826D01*
X196121056Y-111635805D01*
X196290574Y-111522537D01*
X196434737Y-111378374D01*
X196548005Y-111208856D01*
X196626026Y-111020498D01*
X196665800Y-110820539D01*
X196665800Y-110616661D01*
X196626026Y-110416702D01*
X196548005Y-110228344D01*
X196434737Y-110058826D01*
X196290574Y-109914663D01*
X196121056Y-109801395D01*
X195932698Y-109723374D01*
X195732739Y-109683600D01*
X195670602Y-109683600D01*
X194873804Y-108886803D01*
X194850001Y-108857799D01*
X194734276Y-108762826D01*
X194602247Y-108692254D01*
X194458986Y-108648797D01*
X194347333Y-108637800D01*
X194347322Y-108637800D01*
X194310000Y-108634124D01*
X194272678Y-108637800D01*
X193051922Y-108637800D01*
X193014599Y-108634124D01*
X192977276Y-108637800D01*
X192977267Y-108637800D01*
X192865614Y-108648797D01*
X192722353Y-108692254D01*
X192590324Y-108762826D01*
X192590322Y-108762827D01*
X192590323Y-108762827D01*
X192503596Y-108834001D01*
X192503592Y-108834005D01*
X192474599Y-108857799D01*
X192450805Y-108886792D01*
X191226599Y-110111000D01*
X190508178Y-110111000D01*
X190383475Y-109924368D01*
X190176632Y-109717525D01*
X190002240Y-109601000D01*
X190176632Y-109484475D01*
X190383475Y-109277632D01*
X190545990Y-109034411D01*
X190657932Y-108764158D01*
X190715000Y-108477260D01*
X190715000Y-108184740D01*
X190657932Y-107897842D01*
X190545990Y-107627589D01*
X190383475Y-107384368D01*
X190176632Y-107177525D01*
X190002240Y-107061000D01*
X190176632Y-106944475D01*
X190383475Y-106737632D01*
X190545990Y-106494411D01*
X190657932Y-106224158D01*
X190715000Y-105937260D01*
X190715000Y-105644740D01*
X190657932Y-105357842D01*
X190545990Y-105087589D01*
X190383475Y-104844368D01*
X190176632Y-104637525D01*
X190002240Y-104521000D01*
X190176632Y-104404475D01*
X190383475Y-104197632D01*
X190545990Y-103954411D01*
X190657932Y-103684158D01*
X190715000Y-103397260D01*
X190715000Y-103104740D01*
X190657932Y-102817842D01*
X190545990Y-102547589D01*
X190383475Y-102304368D01*
X190176632Y-102097525D01*
X190002240Y-101981000D01*
X190176632Y-101864475D01*
X190383475Y-101657632D01*
X190545990Y-101414411D01*
X190657932Y-101144158D01*
X190715000Y-100857260D01*
X190715000Y-100564740D01*
X190657932Y-100277842D01*
X190545990Y-100007589D01*
X190383475Y-99764368D01*
X190176632Y-99557525D01*
X190002240Y-99441000D01*
X190176632Y-99324475D01*
X190383475Y-99117632D01*
X190545990Y-98874411D01*
X190657932Y-98604158D01*
X190715000Y-98317260D01*
X190715000Y-98024740D01*
X190657932Y-97737842D01*
X190545990Y-97467589D01*
X190383475Y-97224368D01*
X190176632Y-97017525D01*
X190002240Y-96901000D01*
X190176632Y-96784475D01*
X190383475Y-96577632D01*
X190545990Y-96334411D01*
X190657932Y-96064158D01*
X190715000Y-95777260D01*
X190715000Y-95484740D01*
X190657932Y-95197842D01*
X190545990Y-94927589D01*
X190383475Y-94684368D01*
X190176632Y-94477525D01*
X190002240Y-94361000D01*
X190176632Y-94244475D01*
X190383475Y-94037632D01*
X190545990Y-93794411D01*
X190657932Y-93524158D01*
X190715000Y-93237260D01*
X190715000Y-92944740D01*
X190657932Y-92657842D01*
X190545990Y-92387589D01*
X190383475Y-92144368D01*
X190176632Y-91937525D01*
X190002240Y-91821000D01*
X190176632Y-91704475D01*
X190383475Y-91497632D01*
X190545990Y-91254411D01*
X190657932Y-90984158D01*
X190715000Y-90697260D01*
X190715000Y-90404740D01*
X190657932Y-90117842D01*
X190545990Y-89847589D01*
X190383475Y-89604368D01*
X190176632Y-89397525D01*
X190002240Y-89281000D01*
X190176632Y-89164475D01*
X190383475Y-88957632D01*
X190545990Y-88714411D01*
X190657932Y-88444158D01*
X190715000Y-88157260D01*
X190715000Y-87864740D01*
X190657932Y-87577842D01*
X190545990Y-87307589D01*
X190448043Y-87161000D01*
X208061928Y-87161000D01*
X208061928Y-88861000D01*
X208074188Y-88985482D01*
X208110498Y-89105180D01*
X208169463Y-89215494D01*
X208248815Y-89312185D01*
X208345506Y-89391537D01*
X208455820Y-89450502D01*
X208528380Y-89472513D01*
X208396525Y-89604368D01*
X208234010Y-89847589D01*
X208122068Y-90117842D01*
X208065000Y-90404740D01*
X208065000Y-90697260D01*
X208122068Y-90984158D01*
X208234010Y-91254411D01*
X208396525Y-91497632D01*
X208603368Y-91704475D01*
X208777760Y-91821000D01*
X208603368Y-91937525D01*
X208396525Y-92144368D01*
X208234010Y-92387589D01*
X208122068Y-92657842D01*
X208065000Y-92944740D01*
X208065000Y-93237260D01*
X208122068Y-93524158D01*
X208234010Y-93794411D01*
X208396525Y-94037632D01*
X208603368Y-94244475D01*
X208777760Y-94361000D01*
X208603368Y-94477525D01*
X208396525Y-94684368D01*
X208234010Y-94927589D01*
X208122068Y-95197842D01*
X208065000Y-95484740D01*
X208065000Y-95777260D01*
X208122068Y-96064158D01*
X208234010Y-96334411D01*
X208396525Y-96577632D01*
X208603368Y-96784475D01*
X208777760Y-96901000D01*
X208603368Y-97017525D01*
X208396525Y-97224368D01*
X208234010Y-97467589D01*
X208122068Y-97737842D01*
X208065000Y-98024740D01*
X208065000Y-98317260D01*
X208122068Y-98604158D01*
X208234010Y-98874411D01*
X208396525Y-99117632D01*
X208603368Y-99324475D01*
X208777760Y-99441000D01*
X208603368Y-99557525D01*
X208396525Y-99764368D01*
X208234010Y-100007589D01*
X208122068Y-100277842D01*
X208065000Y-100564740D01*
X208065000Y-100857260D01*
X208122068Y-101144158D01*
X208234010Y-101414411D01*
X208396525Y-101657632D01*
X208603368Y-101864475D01*
X208777760Y-101981000D01*
X208603368Y-102097525D01*
X208396525Y-102304368D01*
X208234010Y-102547589D01*
X208122068Y-102817842D01*
X208065000Y-103104740D01*
X208065000Y-103397260D01*
X208122068Y-103684158D01*
X208234010Y-103954411D01*
X208396525Y-104197632D01*
X208603368Y-104404475D01*
X208777760Y-104521000D01*
X208603368Y-104637525D01*
X208396525Y-104844368D01*
X208234010Y-105087589D01*
X208122068Y-105357842D01*
X208065000Y-105644740D01*
X208065000Y-105937260D01*
X208122068Y-106224158D01*
X208234010Y-106494411D01*
X208396525Y-106737632D01*
X208603368Y-106944475D01*
X208777760Y-107061000D01*
X208603368Y-107177525D01*
X208396525Y-107384368D01*
X208234010Y-107627589D01*
X208122068Y-107897842D01*
X208065000Y-108184740D01*
X208065000Y-108477260D01*
X208122068Y-108764158D01*
X208234010Y-109034411D01*
X208396525Y-109277632D01*
X208603368Y-109484475D01*
X208777760Y-109601000D01*
X208603368Y-109717525D01*
X208396525Y-109924368D01*
X208234010Y-110167589D01*
X208122068Y-110437842D01*
X208065000Y-110724740D01*
X208065000Y-111017260D01*
X208122068Y-111304158D01*
X208234010Y-111574411D01*
X208396525Y-111817632D01*
X208603368Y-112024475D01*
X208777760Y-112141000D01*
X208603368Y-112257525D01*
X208396525Y-112464368D01*
X208234010Y-112707589D01*
X208122068Y-112977842D01*
X208065000Y-113264740D01*
X208065000Y-113557260D01*
X208122068Y-113844158D01*
X208234010Y-114114411D01*
X208396525Y-114357632D01*
X208603368Y-114564475D01*
X208777760Y-114681000D01*
X208603368Y-114797525D01*
X208396525Y-115004368D01*
X208234010Y-115247589D01*
X208122068Y-115517842D01*
X208065000Y-115804740D01*
X208065000Y-116097260D01*
X208122068Y-116384158D01*
X208234010Y-116654411D01*
X208396525Y-116897632D01*
X208603368Y-117104475D01*
X208846589Y-117266990D01*
X209116842Y-117378932D01*
X209403740Y-117436000D01*
X209696260Y-117436000D01*
X209983158Y-117378932D01*
X210253411Y-117266990D01*
X210496632Y-117104475D01*
X210703475Y-116897632D01*
X210865990Y-116654411D01*
X210977932Y-116384158D01*
X211035000Y-116097260D01*
X211035000Y-115804740D01*
X210977932Y-115517842D01*
X210865990Y-115247589D01*
X210703475Y-115004368D01*
X210496632Y-114797525D01*
X210322240Y-114681000D01*
X210496632Y-114564475D01*
X210703475Y-114357632D01*
X210865990Y-114114411D01*
X210977932Y-113844158D01*
X211035000Y-113557260D01*
X211035000Y-113264740D01*
X210977932Y-112977842D01*
X210865990Y-112707589D01*
X210703475Y-112464368D01*
X210496632Y-112257525D01*
X210322240Y-112141000D01*
X210496632Y-112024475D01*
X210703475Y-111817632D01*
X210865990Y-111574411D01*
X210977932Y-111304158D01*
X211035000Y-111017260D01*
X211035000Y-110724740D01*
X210977932Y-110437842D01*
X210865990Y-110167589D01*
X210703475Y-109924368D01*
X210496632Y-109717525D01*
X210322240Y-109601000D01*
X210496632Y-109484475D01*
X210703475Y-109277632D01*
X210865990Y-109034411D01*
X210977932Y-108764158D01*
X211035000Y-108477260D01*
X211035000Y-108184740D01*
X210977932Y-107897842D01*
X210865990Y-107627589D01*
X210703475Y-107384368D01*
X210496632Y-107177525D01*
X210322240Y-107061000D01*
X210496632Y-106944475D01*
X210703475Y-106737632D01*
X210865990Y-106494411D01*
X210977932Y-106224158D01*
X211035000Y-105937260D01*
X211035000Y-105644740D01*
X210977932Y-105357842D01*
X210865990Y-105087589D01*
X210703475Y-104844368D01*
X210496632Y-104637525D01*
X210322240Y-104521000D01*
X210496632Y-104404475D01*
X210703475Y-104197632D01*
X210865990Y-103954411D01*
X210977932Y-103684158D01*
X211035000Y-103397260D01*
X211035000Y-103104740D01*
X210977932Y-102817842D01*
X210865990Y-102547589D01*
X210703475Y-102304368D01*
X210496632Y-102097525D01*
X210322240Y-101981000D01*
X210496632Y-101864475D01*
X210703475Y-101657632D01*
X210865990Y-101414411D01*
X210977932Y-101144158D01*
X211035000Y-100857260D01*
X211035000Y-100564740D01*
X210977932Y-100277842D01*
X210865990Y-100007589D01*
X210703475Y-99764368D01*
X210496632Y-99557525D01*
X210322240Y-99441000D01*
X210496632Y-99324475D01*
X210703475Y-99117632D01*
X210865990Y-98874411D01*
X210977932Y-98604158D01*
X211035000Y-98317260D01*
X211035000Y-98024740D01*
X210977932Y-97737842D01*
X210865990Y-97467589D01*
X210703475Y-97224368D01*
X210496632Y-97017525D01*
X210322240Y-96901000D01*
X210496632Y-96784475D01*
X210703475Y-96577632D01*
X210865990Y-96334411D01*
X210977932Y-96064158D01*
X211035000Y-95777260D01*
X211035000Y-95484740D01*
X210977932Y-95197842D01*
X210865990Y-94927589D01*
X210703475Y-94684368D01*
X210496632Y-94477525D01*
X210322240Y-94361000D01*
X210496632Y-94244475D01*
X210703475Y-94037632D01*
X210865990Y-93794411D01*
X210977932Y-93524158D01*
X211035000Y-93237260D01*
X211035000Y-92944740D01*
X210977932Y-92657842D01*
X210865990Y-92387589D01*
X210703475Y-92144368D01*
X210496632Y-91937525D01*
X210322240Y-91821000D01*
X210496632Y-91704475D01*
X210703475Y-91497632D01*
X210865990Y-91254411D01*
X210977932Y-90984158D01*
X211035000Y-90697260D01*
X211035000Y-90404740D01*
X210977932Y-90117842D01*
X210865990Y-89847589D01*
X210784480Y-89725600D01*
X211718728Y-89725600D01*
X211718728Y-91325600D01*
X211730988Y-91450082D01*
X211767298Y-91569780D01*
X211826263Y-91680094D01*
X211905615Y-91776785D01*
X212002306Y-91856137D01*
X212112620Y-91915102D01*
X212232318Y-91951412D01*
X212356800Y-91963672D01*
X213956800Y-91963672D01*
X214081282Y-91951412D01*
X214200980Y-91915102D01*
X214311294Y-91856137D01*
X214407985Y-91776785D01*
X214487337Y-91680094D01*
X214546302Y-91569780D01*
X214561917Y-91518302D01*
X214843703Y-91518302D01*
X214915286Y-91762271D01*
X215170796Y-91883171D01*
X215444984Y-91951900D01*
X215727312Y-91965817D01*
X216006930Y-91924387D01*
X216273092Y-91829203D01*
X216398314Y-91762271D01*
X216469897Y-91518302D01*
X215656800Y-90705205D01*
X214843703Y-91518302D01*
X214561917Y-91518302D01*
X214582612Y-91450082D01*
X214594872Y-91325600D01*
X214594872Y-91318385D01*
X214664098Y-91338697D01*
X215477195Y-90525600D01*
X215836405Y-90525600D01*
X216649502Y-91338697D01*
X216893471Y-91267114D01*
X217014371Y-91011604D01*
X217083100Y-90737416D01*
X217097017Y-90455088D01*
X217055587Y-90175470D01*
X216960403Y-89909308D01*
X216893471Y-89784086D01*
X216649502Y-89712503D01*
X215836405Y-90525600D01*
X215477195Y-90525600D01*
X214664098Y-89712503D01*
X214594872Y-89732815D01*
X214594872Y-89725600D01*
X214582612Y-89601118D01*
X214561918Y-89532898D01*
X214843703Y-89532898D01*
X215656800Y-90345995D01*
X216469897Y-89532898D01*
X216398314Y-89288929D01*
X216142804Y-89168029D01*
X215868616Y-89099300D01*
X215586288Y-89085383D01*
X215306670Y-89126813D01*
X215040508Y-89221997D01*
X214915286Y-89288929D01*
X214843703Y-89532898D01*
X214561918Y-89532898D01*
X214546302Y-89481420D01*
X214487337Y-89371106D01*
X214407985Y-89274415D01*
X214311294Y-89195063D01*
X214200980Y-89136098D01*
X214081282Y-89099788D01*
X213956800Y-89087528D01*
X212356800Y-89087528D01*
X212232318Y-89099788D01*
X212112620Y-89136098D01*
X212002306Y-89195063D01*
X211905615Y-89274415D01*
X211826263Y-89371106D01*
X211767298Y-89481420D01*
X211730988Y-89601118D01*
X211718728Y-89725600D01*
X210784480Y-89725600D01*
X210703475Y-89604368D01*
X210571620Y-89472513D01*
X210644180Y-89450502D01*
X210754494Y-89391537D01*
X210851185Y-89312185D01*
X210930537Y-89215494D01*
X210989502Y-89105180D01*
X211025812Y-88985482D01*
X211038072Y-88861000D01*
X211038072Y-87161000D01*
X211025812Y-87036518D01*
X210989502Y-86916820D01*
X210930537Y-86806506D01*
X210851185Y-86709815D01*
X210754494Y-86630463D01*
X210644180Y-86571498D01*
X210524482Y-86535188D01*
X210400000Y-86522928D01*
X208700000Y-86522928D01*
X208575518Y-86535188D01*
X208455820Y-86571498D01*
X208345506Y-86630463D01*
X208248815Y-86709815D01*
X208169463Y-86806506D01*
X208110498Y-86916820D01*
X208074188Y-87036518D01*
X208061928Y-87161000D01*
X190448043Y-87161000D01*
X190383475Y-87064368D01*
X190176632Y-86857525D01*
X189994466Y-86735805D01*
X190111355Y-86666178D01*
X190327588Y-86471269D01*
X190501641Y-86237920D01*
X190626825Y-85975099D01*
X190671476Y-85827890D01*
X190550155Y-85598000D01*
X189357000Y-85598000D01*
X189357000Y-85618000D01*
X189103000Y-85618000D01*
X189103000Y-85598000D01*
X187909845Y-85598000D01*
X187788524Y-85827890D01*
X187833175Y-85975099D01*
X187958359Y-86237920D01*
X188132412Y-86471269D01*
X188348645Y-86666178D01*
X188465534Y-86735805D01*
X188283368Y-86857525D01*
X188076525Y-87064368D01*
X187914010Y-87307589D01*
X187802068Y-87577842D01*
X187745000Y-87864740D01*
X173763347Y-87864740D01*
X173769371Y-77001000D01*
X187741928Y-77001000D01*
X187741928Y-78701000D01*
X187754188Y-78825482D01*
X187790498Y-78945180D01*
X187849463Y-79055494D01*
X187928815Y-79152185D01*
X188025506Y-79231537D01*
X188135820Y-79290502D01*
X188208380Y-79312513D01*
X188076525Y-79444368D01*
X187914010Y-79687589D01*
X187802068Y-79957842D01*
X187745000Y-80244740D01*
X187745000Y-80537260D01*
X187802068Y-80824158D01*
X187914010Y-81094411D01*
X188076525Y-81337632D01*
X188283368Y-81544475D01*
X188457760Y-81661000D01*
X188283368Y-81777525D01*
X188076525Y-81984368D01*
X187914010Y-82227589D01*
X187802068Y-82497842D01*
X187745000Y-82784740D01*
X187745000Y-83077260D01*
X187802068Y-83364158D01*
X187914010Y-83634411D01*
X188076525Y-83877632D01*
X188283368Y-84084475D01*
X188465534Y-84206195D01*
X188348645Y-84275822D01*
X188132412Y-84470731D01*
X187958359Y-84704080D01*
X187833175Y-84966901D01*
X187788524Y-85114110D01*
X187909845Y-85344000D01*
X189103000Y-85344000D01*
X189103000Y-85324000D01*
X189357000Y-85324000D01*
X189357000Y-85344000D01*
X190550155Y-85344000D01*
X190671476Y-85114110D01*
X190626825Y-84966901D01*
X190501641Y-84704080D01*
X190327588Y-84470731D01*
X190111355Y-84275822D01*
X189994466Y-84206195D01*
X190176632Y-84084475D01*
X190383475Y-83877632D01*
X190545990Y-83634411D01*
X190657932Y-83364158D01*
X190715000Y-83077260D01*
X190715000Y-82784740D01*
X190657932Y-82497842D01*
X190545990Y-82227589D01*
X190383475Y-81984368D01*
X190176632Y-81777525D01*
X190002240Y-81661000D01*
X190176632Y-81544475D01*
X190383475Y-81337632D01*
X190545990Y-81094411D01*
X190657932Y-80824158D01*
X190715000Y-80537260D01*
X190715000Y-80244740D01*
X190657932Y-79957842D01*
X190545990Y-79687589D01*
X190383475Y-79444368D01*
X190251620Y-79312513D01*
X190324180Y-79290502D01*
X190434494Y-79231537D01*
X190531185Y-79152185D01*
X190610537Y-79055494D01*
X190669502Y-78945180D01*
X190705812Y-78825482D01*
X190718072Y-78701000D01*
X190718072Y-77001000D01*
X190705812Y-76876518D01*
X190669502Y-76756820D01*
X190610537Y-76646506D01*
X190531185Y-76549815D01*
X190434494Y-76470463D01*
X190324180Y-76411498D01*
X190204482Y-76375188D01*
X190080000Y-76362928D01*
X188380000Y-76362928D01*
X188255518Y-76375188D01*
X188135820Y-76411498D01*
X188025506Y-76470463D01*
X187928815Y-76549815D01*
X187849463Y-76646506D01*
X187790498Y-76756820D01*
X187754188Y-76876518D01*
X187741928Y-77001000D01*
X173769371Y-77001000D01*
X173780294Y-57301850D01*
X182206943Y-65728499D01*
X182238567Y-65767033D01*
X182392360Y-65893247D01*
X182567820Y-65987032D01*
X182758205Y-66044785D01*
X182956200Y-66064286D01*
X183005808Y-66059400D01*
X216520253Y-66059400D01*
X216849747Y-66388894D01*
X216881375Y-66427433D01*
X217035168Y-66553647D01*
X217210628Y-66647432D01*
X217401013Y-66705185D01*
X217599008Y-66724686D01*
X217648616Y-66719800D01*
X217710983Y-66719800D01*
X217893295Y-66902112D01*
X218144705Y-67070099D01*
X218424057Y-67185811D01*
X218720616Y-67244800D01*
X219022984Y-67244800D01*
X219319543Y-67185811D01*
X219598895Y-67070099D01*
X219850305Y-66902112D01*
X220064112Y-66688305D01*
X220232099Y-66436895D01*
X220347811Y-66157543D01*
X220406800Y-65860984D01*
X220406800Y-65558616D01*
X220347811Y-65262057D01*
X220232099Y-64982705D01*
X220064112Y-64731295D01*
X219850305Y-64517488D01*
X219598895Y-64349501D01*
X219319543Y-64233789D01*
X219022984Y-64174800D01*
X218720616Y-64174800D01*
X218424057Y-64233789D01*
X218144705Y-64349501D01*
X217893295Y-64517488D01*
X217864173Y-64546610D01*
X217687869Y-64370306D01*
X217656241Y-64331767D01*
X217502448Y-64205553D01*
X217326988Y-64111768D01*
X217136602Y-64054015D01*
X216988216Y-64039400D01*
X216938608Y-64034514D01*
X216889000Y-64039400D01*
X183374556Y-64039400D01*
X173781877Y-54446721D01*
X173782124Y-54001679D01*
X182587939Y-62807494D01*
X182619567Y-62846033D01*
X182773360Y-62972247D01*
X182948820Y-63066032D01*
X183139206Y-63123785D01*
X183287592Y-63138400D01*
X183287594Y-63138400D01*
X183337199Y-63143286D01*
X183386804Y-63138400D01*
X217380783Y-63138400D01*
X217563095Y-63320712D01*
X217814505Y-63488699D01*
X218093857Y-63604411D01*
X218390416Y-63663400D01*
X218692784Y-63663400D01*
X218989343Y-63604411D01*
X219268695Y-63488699D01*
X219520105Y-63320712D01*
X219733912Y-63106905D01*
X219901899Y-62855495D01*
X220017611Y-62576143D01*
X220076600Y-62279584D01*
X220076600Y-61977216D01*
X220017611Y-61680657D01*
X219901899Y-61401305D01*
X219733912Y-61149895D01*
X219520105Y-60936088D01*
X219268695Y-60768101D01*
X218989343Y-60652389D01*
X218692784Y-60593400D01*
X218390416Y-60593400D01*
X218093857Y-60652389D01*
X217814505Y-60768101D01*
X217563095Y-60936088D01*
X217380783Y-61118400D01*
X183755555Y-61118400D01*
X173783707Y-51146552D01*
X173784277Y-50117633D01*
X183146744Y-59480100D01*
X183178367Y-59518633D01*
X183332160Y-59644847D01*
X183507620Y-59738632D01*
X183698005Y-59796385D01*
X183896000Y-59815886D01*
X183945608Y-59811000D01*
X217346200Y-59811000D01*
X217395808Y-59815886D01*
X217593802Y-59796385D01*
X217711473Y-59760690D01*
X217817095Y-59866312D01*
X218068505Y-60034299D01*
X218347857Y-60150011D01*
X218644416Y-60209000D01*
X218946784Y-60209000D01*
X219243343Y-60150011D01*
X219522695Y-60034299D01*
X219774105Y-59866312D01*
X219987912Y-59652505D01*
X220155899Y-59401095D01*
X220271611Y-59121743D01*
X220330600Y-58825184D01*
X220330600Y-58522816D01*
X220271611Y-58226257D01*
X220155899Y-57946905D01*
X219987912Y-57695495D01*
X219774105Y-57481688D01*
X219522695Y-57313701D01*
X219243343Y-57197989D01*
X218946784Y-57139000D01*
X218644416Y-57139000D01*
X218347857Y-57197989D01*
X218068505Y-57313701D01*
X217817095Y-57481688D01*
X217634783Y-57664000D01*
X217572412Y-57664000D01*
X217522807Y-57659114D01*
X217473202Y-57664000D01*
X217473200Y-57664000D01*
X217324814Y-57678615D01*
X217134428Y-57736368D01*
X217032218Y-57791000D01*
X184314356Y-57791000D01*
X173785861Y-47262505D01*
X173786730Y-45694600D01*
X213193483Y-45694600D01*
X212788044Y-45775247D01*
G37*
X212788044Y-45775247D02*
X212399498Y-45936188D01*
X212049817Y-46169837D01*
X211752437Y-46467217D01*
X211518788Y-46816898D01*
X211357847Y-47205444D01*
X211275800Y-47617921D01*
X211275800Y-48038479D01*
X211357847Y-48450956D01*
X211518788Y-48839502D01*
X211752437Y-49189183D01*
X212049817Y-49486563D01*
X212399498Y-49720212D01*
X212788044Y-49881153D01*
X213200521Y-49963200D01*
X213621079Y-49963200D01*
X214033556Y-49881153D01*
X214422102Y-49720212D01*
X214771783Y-49486563D01*
X214930146Y-49328200D01*
X216352728Y-49328200D01*
X216364988Y-49452682D01*
X216401298Y-49572380D01*
X216460263Y-49682694D01*
X216539615Y-49779385D01*
X216636306Y-49858737D01*
X216746620Y-49917702D01*
X216866318Y-49954012D01*
X216990800Y-49966272D01*
X218205050Y-49963200D01*
X218363800Y-49804450D01*
X218363800Y-47955200D01*
X218617800Y-47955200D01*
X218617800Y-49804450D01*
X218776550Y-49963200D01*
X219990800Y-49966272D01*
X220115282Y-49954012D01*
X220234980Y-49917702D01*
X220345294Y-49858737D01*
X220441985Y-49779385D01*
X220521337Y-49682694D01*
X220580302Y-49572380D01*
X220616612Y-49452682D01*
X220628872Y-49328200D01*
X220625800Y-48113950D01*
X220467050Y-47955200D01*
X218617800Y-47955200D01*
X218363800Y-47955200D01*
X216514550Y-47955200D01*
X216355800Y-48113950D01*
X216352728Y-49328200D01*
X214930146Y-49328200D01*
X215069163Y-49189183D01*
X215302812Y-48839502D01*
X215463753Y-48450956D01*
X215545800Y-48038479D01*
X215545800Y-47617921D01*
X215463753Y-47205444D01*
X215302812Y-46816898D01*
X215069163Y-46467217D01*
X214771783Y-46169837D01*
X214422102Y-45936188D01*
X214033556Y-45775247D01*
X213628117Y-45694600D01*
X216945394Y-45694600D01*
X216866318Y-45702388D01*
X216746620Y-45738698D01*
X216636306Y-45797663D01*
X216539615Y-45877015D01*
X216460263Y-45973706D01*
X216401298Y-46084020D01*
X216364988Y-46203718D01*
X216352728Y-46328200D01*
X216355800Y-47542450D01*
X216514550Y-47701200D01*
X218363800Y-47701200D01*
X218363800Y-47681200D01*
X218617800Y-47681200D01*
X218617800Y-47701200D01*
X220467050Y-47701200D01*
X220625800Y-47542450D01*
X220628872Y-46328200D01*
X220616612Y-46203718D01*
X220580302Y-46084020D01*
X220521337Y-45973706D01*
X220441985Y-45877015D01*
X220345294Y-45797663D01*
X220234980Y-45738698D01*
X220115282Y-45702388D01*
X220036206Y-45694600D01*
X222605530Y-45694600D01*
X222554842Y-137109068D01*
X207257743Y-137093233D01*
X207325775Y-136928989D01*
X207379000Y-136661411D01*
X207379000Y-136388589D01*
X207325775Y-136121011D01*
X207221371Y-135868957D01*
X207069799Y-135642114D01*
X206876886Y-135449201D01*
X206650043Y-135297629D01*
X206397989Y-135193225D01*
X206130411Y-135140000D01*
X205857589Y-135140000D01*
X205590011Y-135193225D01*
X205337957Y-135297629D01*
X205111114Y-135449201D01*
X204918201Y-135642114D01*
X204766629Y-135868957D01*
X204724000Y-135971873D01*
X204681371Y-135868957D01*
X204529799Y-135642114D01*
X204336886Y-135449201D01*
X204110043Y-135297629D01*
X203857989Y-135193225D01*
X203590411Y-135140000D01*
X203317589Y-135140000D01*
X203050011Y-135193225D01*
X202797957Y-135297629D01*
X202571114Y-135449201D01*
X202378201Y-135642114D01*
X202226629Y-135868957D01*
X202184000Y-135971873D01*
X202141371Y-135868957D01*
X201989799Y-135642114D01*
X201796886Y-135449201D01*
X201570043Y-135297629D01*
X201317989Y-135193225D01*
X201050411Y-135140000D01*
X200777589Y-135140000D01*
X200510011Y-135193225D01*
X200257957Y-135297629D01*
X200031114Y-135449201D01*
X199838201Y-135642114D01*
X199760445Y-135758483D01*
X199749812Y-135650518D01*
X199713502Y-135530820D01*
X199654537Y-135420506D01*
X199613088Y-135370000D01*
X199780411Y-135370000D01*
X200047989Y-135316775D01*
X200300043Y-135212371D01*
X200526886Y-135060799D01*
X200719799Y-134867886D01*
X200871371Y-134641043D01*
X200914000Y-134538127D01*
X200956629Y-134641043D01*
X201108201Y-134867886D01*
X201301114Y-135060799D01*
X201527957Y-135212371D01*
X201780011Y-135316775D01*
X202047589Y-135370000D01*
X202320411Y-135370000D01*
X202587989Y-135316775D01*
X202840043Y-135212371D01*
X203066886Y-135060799D01*
X203259799Y-134867886D01*
X203411371Y-134641043D01*
X203454000Y-134538127D01*
X203496629Y-134641043D01*
X203648201Y-134867886D01*
X203841114Y-135060799D01*
X204067957Y-135212371D01*
X204320011Y-135316775D01*
X204587589Y-135370000D01*
X204860411Y-135370000D01*
X205127989Y-135316775D01*
X205380043Y-135212371D01*
X205606886Y-135060799D01*
X205799799Y-134867886D01*
X205951371Y-134641043D01*
X205994000Y-134538127D01*
X206036629Y-134641043D01*
X206188201Y-134867886D01*
X206381114Y-135060799D01*
X206607957Y-135212371D01*
X206860011Y-135316775D01*
X207127589Y-135370000D01*
X207400411Y-135370000D01*
X207667989Y-135316775D01*
X207920043Y-135212371D01*
X208146886Y-135060799D01*
X208339799Y-134867886D01*
X208491371Y-134641043D01*
X208595775Y-134388989D01*
X208649000Y-134121411D01*
X208649000Y-133848589D01*
X208595775Y-133581011D01*
X208491371Y-133328957D01*
X208339799Y-133102114D01*
X208146886Y-132909201D01*
X207920043Y-132757629D01*
X207667989Y-132653225D01*
X207400411Y-132600000D01*
X207127589Y-132600000D01*
X206860011Y-132653225D01*
X206607957Y-132757629D01*
X206381114Y-132909201D01*
X206188201Y-133102114D01*
X206036629Y-133328957D01*
X205994000Y-133431873D01*
X205951371Y-133328957D01*
X205799799Y-133102114D01*
X205606886Y-132909201D01*
X205380043Y-132757629D01*
X205127989Y-132653225D01*
X204860411Y-132600000D01*
X204587589Y-132600000D01*
X204320011Y-132653225D01*
X204067957Y-132757629D01*
X203841114Y-132909201D01*
X203648201Y-133102114D01*
X203496629Y-133328957D01*
X203454000Y-133431873D01*
X203411371Y-133328957D01*
X203259799Y-133102114D01*
X203066886Y-132909201D01*
X202840043Y-132757629D01*
X202587989Y-132653225D01*
X202320411Y-132600000D01*
X202047589Y-132600000D01*
X201902635Y-132628833D01*
X200730602Y-131456800D01*
X213497528Y-131456800D01*
X213509788Y-131581282D01*
X213546098Y-131700980D01*
X213605063Y-131811294D01*
X213684415Y-131907985D01*
X213781106Y-131987337D01*
X213891420Y-132046302D01*
X214011118Y-132082612D01*
X214135600Y-132094872D01*
X214699850Y-132091800D01*
X214858600Y-131933050D01*
X214858600Y-130733800D01*
X215112600Y-130733800D01*
X215112600Y-131933050D01*
X215271350Y-132091800D01*
X215835600Y-132094872D01*
X215960082Y-132082612D01*
X216079780Y-132046302D01*
X216190094Y-131987337D01*
X216286785Y-131907985D01*
X216366137Y-131811294D01*
X216425102Y-131700980D01*
X216461412Y-131581282D01*
X216473672Y-131456800D01*
X216470600Y-130892550D01*
X216311850Y-130733800D01*
X215112600Y-130733800D01*
X214858600Y-130733800D01*
X213659350Y-130733800D01*
X213500600Y-130892550D01*
X213497528Y-131456800D01*
X200730602Y-131456800D01*
X199979204Y-130705403D01*
X199955401Y-130676399D01*
X199839676Y-130581426D01*
X199707647Y-130510854D01*
X199564386Y-130467397D01*
X199452733Y-130456400D01*
X199452722Y-130456400D01*
X199415400Y-130452724D01*
X199378078Y-130456400D01*
X195476400Y-130456400D01*
X195476400Y-129756800D01*
X213497528Y-129756800D01*
X213500600Y-130321050D01*
X213659350Y-130479800D01*
X214858600Y-130479800D01*
X214858600Y-129280550D01*
X215112600Y-129280550D01*
X215112600Y-130479800D01*
X216311850Y-130479800D01*
X216470600Y-130321050D01*
X216473672Y-129756800D01*
X216461412Y-129632318D01*
X216425102Y-129512620D01*
X216366137Y-129402306D01*
X216286785Y-129305615D01*
X216190094Y-129226263D01*
X216079780Y-129167298D01*
X215960082Y-129130988D01*
X215835600Y-129118728D01*
X215271350Y-129121800D01*
X215112600Y-129280550D01*
X214858600Y-129280550D01*
X214699850Y-129121800D01*
X214135600Y-129118728D01*
X214011118Y-129130988D01*
X213891420Y-129167298D01*
X213781106Y-129226263D01*
X213684415Y-129305615D01*
X213605063Y-129402306D01*
X213546098Y-129512620D01*
X213509788Y-129632318D01*
X213497528Y-129756800D01*
X195476400Y-129756800D01*
X195476400Y-129448401D01*
X195949302Y-128975500D01*
X196011439Y-128975500D01*
X196211398Y-128935726D01*
X196399756Y-128857705D01*
X196569274Y-128744437D01*
X196713437Y-128600274D01*
X196826705Y-128430756D01*
X196904726Y-128242398D01*
X196944500Y-128042439D01*
X196944500Y-127838561D01*
X196904726Y-127638602D01*
X196826705Y-127450244D01*
X196713437Y-127280726D01*
X196569274Y-127136563D01*
X196399756Y-127023295D01*
X196211398Y-126945274D01*
X196011439Y-126905500D01*
X195807561Y-126905500D01*
X195607602Y-126945274D01*
X195419244Y-127023295D01*
X195249726Y-127136563D01*
X195105563Y-127280726D01*
X194992295Y-127450244D01*
X194914274Y-127638602D01*
X194874500Y-127838561D01*
X194874500Y-127900698D01*
X194205403Y-128569796D01*
X194176399Y-128593599D01*
X194121271Y-128660774D01*
X194081426Y-128709324D01*
X194062658Y-128744437D01*
X194010854Y-128841354D01*
X193967397Y-128984615D01*
X193956400Y-129096268D01*
X193956400Y-129096278D01*
X193952724Y-129133600D01*
X193956400Y-129170923D01*
X193956401Y-130901597D01*
X193207799Y-131650200D01*
X182587133Y-131650200D01*
X182549800Y-131646523D01*
X182512467Y-131650200D01*
X182400814Y-131661197D01*
X182257553Y-131704654D01*
X182125524Y-131775226D01*
X182009799Y-131870199D01*
X181986001Y-131899197D01*
X181256365Y-132628833D01*
X181111411Y-132600000D01*
X180838589Y-132600000D01*
X180571011Y-132653225D01*
X180318957Y-132757629D01*
X180092114Y-132909201D01*
X179899201Y-133102114D01*
X179747629Y-133328957D01*
X179705000Y-133431873D01*
X179662371Y-133328957D01*
X179510799Y-133102114D01*
X179317886Y-132909201D01*
X179091043Y-132757629D01*
X178838989Y-132653225D01*
X178571411Y-132600000D01*
X178298589Y-132600000D01*
X178031011Y-132653225D01*
X177778957Y-132757629D01*
X177552114Y-132909201D01*
X177359201Y-133102114D01*
X177207629Y-133328957D01*
X177103225Y-133581011D01*
X177050000Y-133848589D01*
X177050000Y-134121411D01*
X177103225Y-134388989D01*
X177207629Y-134641043D01*
X177359201Y-134867886D01*
X177552114Y-135060799D01*
X177666049Y-135136928D01*
X176415000Y-135136928D01*
X176290518Y-135149188D01*
X176170820Y-135185498D01*
X176060506Y-135244463D01*
X175963815Y-135323815D01*
X175884463Y-135420506D01*
X175825498Y-135530820D01*
X175789188Y-135650518D01*
X175776928Y-135775000D01*
X175776928Y-137060644D01*
X173736070Y-137058531D01*
X173742629Y-125227363D01*
X205172000Y-125227363D01*
X205172000Y-125470637D01*
X205219460Y-125709236D01*
X205312557Y-125933992D01*
X205447713Y-126136267D01*
X205619733Y-126308287D01*
X205822008Y-126443443D01*
X206046764Y-126536540D01*
X206285363Y-126584000D01*
X206528637Y-126584000D01*
X206767236Y-126536540D01*
X206991992Y-126443443D01*
X207194267Y-126308287D01*
X207249501Y-126253053D01*
X207276463Y-126303494D01*
X207355815Y-126400185D01*
X207452506Y-126479537D01*
X207562820Y-126538502D01*
X207682518Y-126574812D01*
X207807000Y-126587072D01*
X208121250Y-126584000D01*
X208280000Y-126425250D01*
X208280000Y-125476000D01*
X208534000Y-125476000D01*
X208534000Y-126425250D01*
X208692750Y-126584000D01*
X209007000Y-126587072D01*
X209131482Y-126574812D01*
X209251180Y-126538502D01*
X209361494Y-126479537D01*
X209458185Y-126400185D01*
X209537537Y-126303494D01*
X209596502Y-126193180D01*
X209632812Y-126073482D01*
X209645072Y-125949000D01*
X209642000Y-125634750D01*
X209483250Y-125476000D01*
X208534000Y-125476000D01*
X208280000Y-125476000D01*
X208260000Y-125476000D01*
X208260000Y-125222000D01*
X208280000Y-125222000D01*
X208280000Y-124272750D01*
X208534000Y-124272750D01*
X208534000Y-125222000D01*
X209483250Y-125222000D01*
X209642000Y-125063250D01*
X209645072Y-124749000D01*
X209632812Y-124624518D01*
X209596502Y-124504820D01*
X209537537Y-124394506D01*
X209458185Y-124297815D01*
X209361494Y-124218463D01*
X209251180Y-124159498D01*
X209131482Y-124123188D01*
X209007000Y-124110928D01*
X208692750Y-124114000D01*
X208534000Y-124272750D01*
X208280000Y-124272750D01*
X208121250Y-124114000D01*
X207807000Y-124110928D01*
X207682518Y-124123188D01*
X207562820Y-124159498D01*
X207452506Y-124218463D01*
X207355815Y-124297815D01*
X207276463Y-124394506D01*
X207249501Y-124444947D01*
X207194267Y-124389713D01*
X206991992Y-124254557D01*
X206767236Y-124161460D01*
X206528637Y-124114000D01*
X206285363Y-124114000D01*
X206046764Y-124161460D01*
X205822008Y-124254557D01*
X205619733Y-124389713D01*
X205447713Y-124561733D01*
X205312557Y-124764008D01*
X205219460Y-124988764D01*
X205172000Y-125227363D01*
X173742629Y-125227363D01*
X173747575Y-116307890D01*
X187788524Y-116307890D01*
X187833175Y-116455099D01*
X187958359Y-116717920D01*
X188132412Y-116951269D01*
X188348645Y-117146178D01*
X188598748Y-117295157D01*
X188873109Y-117392481D01*
X189103000Y-117271814D01*
X189103000Y-116078000D01*
X189357000Y-116078000D01*
X189357000Y-117271814D01*
X189586891Y-117392481D01*
X189861252Y-117295157D01*
X190111355Y-117146178D01*
X190327588Y-116951269D01*
X190501641Y-116717920D01*
X190626825Y-116455099D01*
X190671476Y-116307890D01*
X190550155Y-116078000D01*
X189357000Y-116078000D01*
X189103000Y-116078000D01*
X187909845Y-116078000D01*
X187788524Y-116307890D01*
X173747575Y-116307890D01*
X173763347Y-87864740D01*
X187745000Y-87864740D01*
X187745000Y-88157260D01*
X187802068Y-88444158D01*
X187914010Y-88714411D01*
X188076525Y-88957632D01*
X188283368Y-89164475D01*
X188457760Y-89281000D01*
X188283368Y-89397525D01*
X188076525Y-89604368D01*
X187914010Y-89847589D01*
X187802068Y-90117842D01*
X187745000Y-90404740D01*
X187745000Y-90697260D01*
X187802068Y-90984158D01*
X187914010Y-91254411D01*
X188076525Y-91497632D01*
X188283368Y-91704475D01*
X188457760Y-91821000D01*
X188283368Y-91937525D01*
X188076525Y-92144368D01*
X187914010Y-92387589D01*
X187802068Y-92657842D01*
X187745000Y-92944740D01*
X187745000Y-93237260D01*
X187802068Y-93524158D01*
X187914010Y-93794411D01*
X188076525Y-94037632D01*
X188283368Y-94244475D01*
X188457760Y-94361000D01*
X188283368Y-94477525D01*
X188076525Y-94684368D01*
X187914010Y-94927589D01*
X187802068Y-95197842D01*
X187745000Y-95484740D01*
X187745000Y-95777260D01*
X187802068Y-96064158D01*
X187914010Y-96334411D01*
X188076525Y-96577632D01*
X188283368Y-96784475D01*
X188457760Y-96901000D01*
X188283368Y-97017525D01*
X188076525Y-97224368D01*
X187914010Y-97467589D01*
X187802068Y-97737842D01*
X187745000Y-98024740D01*
X187745000Y-98317260D01*
X187802068Y-98604158D01*
X187914010Y-98874411D01*
X188076525Y-99117632D01*
X188283368Y-99324475D01*
X188457760Y-99441000D01*
X188283368Y-99557525D01*
X188076525Y-99764368D01*
X187914010Y-100007589D01*
X187802068Y-100277842D01*
X187745000Y-100564740D01*
X187745000Y-100857260D01*
X187802068Y-101144158D01*
X187914010Y-101414411D01*
X188076525Y-101657632D01*
X188283368Y-101864475D01*
X188457760Y-101981000D01*
X188283368Y-102097525D01*
X188076525Y-102304368D01*
X187914010Y-102547589D01*
X187802068Y-102817842D01*
X187745000Y-103104740D01*
X187745000Y-103397260D01*
X187802068Y-103684158D01*
X187914010Y-103954411D01*
X188076525Y-104197632D01*
X188283368Y-104404475D01*
X188457760Y-104521000D01*
X188283368Y-104637525D01*
X188076525Y-104844368D01*
X187914010Y-105087589D01*
X187802068Y-105357842D01*
X187745000Y-105644740D01*
X187745000Y-105937260D01*
X187802068Y-106224158D01*
X187914010Y-106494411D01*
X188076525Y-106737632D01*
X188283368Y-106944475D01*
X188457760Y-107061000D01*
X188283368Y-107177525D01*
X188076525Y-107384368D01*
X187914010Y-107627589D01*
X187802068Y-107897842D01*
X187745000Y-108184740D01*
X187745000Y-108477260D01*
X187802068Y-108764158D01*
X187914010Y-109034411D01*
X188076525Y-109277632D01*
X188283368Y-109484475D01*
X188457760Y-109601000D01*
X188283368Y-109717525D01*
X188076525Y-109924368D01*
X187914010Y-110167589D01*
X187802068Y-110437842D01*
X187745000Y-110724740D01*
X187745000Y-111017260D01*
X187802068Y-111304158D01*
X187914010Y-111574411D01*
X188076525Y-111817632D01*
X188283368Y-112024475D01*
X188457760Y-112141000D01*
X188283368Y-112257525D01*
X188076525Y-112464368D01*
X187914010Y-112707589D01*
X187802068Y-112977842D01*
X187745000Y-113264740D01*
X187745000Y-113557260D01*
X187802068Y-113844158D01*
X187914010Y-114114411D01*
X188076525Y-114357632D01*
X188283368Y-114564475D01*
X188465534Y-114686195D01*
X188348645Y-114755822D01*
X188132412Y-114950731D01*
X187958359Y-115184080D01*
X187833175Y-115446901D01*
X187788524Y-115594110D01*
X187909845Y-115824000D01*
X189103000Y-115824000D01*
X189103000Y-115804000D01*
X189357000Y-115804000D01*
X189357000Y-115824000D01*
X190550155Y-115824000D01*
X190671476Y-115594110D01*
X190626825Y-115446901D01*
X190501641Y-115184080D01*
X190327588Y-114950731D01*
X190111355Y-114755822D01*
X189994466Y-114686195D01*
X190176632Y-114564475D01*
X190383475Y-114357632D01*
X190545990Y-114114411D01*
X190657932Y-113844158D01*
X190715000Y-113557260D01*
X190715000Y-113264740D01*
X190657932Y-112977842D01*
X190545990Y-112707589D01*
X190383475Y-112464368D01*
X190176632Y-112257525D01*
X190002240Y-112141000D01*
X190176632Y-112024475D01*
X190383475Y-111817632D01*
X190508178Y-111631000D01*
X191504078Y-111631000D01*
X191541400Y-111634676D01*
X191578722Y-111631000D01*
X191578733Y-111631000D01*
X191690386Y-111620003D01*
X191833647Y-111576546D01*
X191965676Y-111505974D01*
X192081401Y-111411001D01*
X192105203Y-111381998D01*
X193329403Y-110157800D01*
X193995199Y-110157800D01*
X194595800Y-110758402D01*
X194595800Y-110820539D01*
X194635574Y-111020498D01*
X194713595Y-111208856D01*
X194826863Y-111378374D01*
X194971026Y-111522537D01*
X195140544Y-111635805D01*
X195328902Y-111713826D01*
X195528861Y-111753600D01*
X195732739Y-111753600D01*
X195932698Y-111713826D01*
X196121056Y-111635805D01*
X196290574Y-111522537D01*
X196434737Y-111378374D01*
X196548005Y-111208856D01*
X196626026Y-111020498D01*
X196665800Y-110820539D01*
X196665800Y-110616661D01*
X196626026Y-110416702D01*
X196548005Y-110228344D01*
X196434737Y-110058826D01*
X196290574Y-109914663D01*
X196121056Y-109801395D01*
X195932698Y-109723374D01*
X195732739Y-109683600D01*
X195670602Y-109683600D01*
X194873804Y-108886803D01*
X194850001Y-108857799D01*
X194734276Y-108762826D01*
X194602247Y-108692254D01*
X194458986Y-108648797D01*
X194347333Y-108637800D01*
X194347322Y-108637800D01*
X194310000Y-108634124D01*
X194272678Y-108637800D01*
X193051922Y-108637800D01*
X193014599Y-108634124D01*
X192977276Y-108637800D01*
X192977267Y-108637800D01*
X192865614Y-108648797D01*
X192722353Y-108692254D01*
X192590324Y-108762826D01*
X192590322Y-108762827D01*
X192590323Y-108762827D01*
X192503596Y-108834001D01*
X192503592Y-108834005D01*
X192474599Y-108857799D01*
X192450805Y-108886792D01*
X191226599Y-110111000D01*
X190508178Y-110111000D01*
X190383475Y-109924368D01*
X190176632Y-109717525D01*
X190002240Y-109601000D01*
X190176632Y-109484475D01*
X190383475Y-109277632D01*
X190545990Y-109034411D01*
X190657932Y-108764158D01*
X190715000Y-108477260D01*
X190715000Y-108184740D01*
X190657932Y-107897842D01*
X190545990Y-107627589D01*
X190383475Y-107384368D01*
X190176632Y-107177525D01*
X190002240Y-107061000D01*
X190176632Y-106944475D01*
X190383475Y-106737632D01*
X190545990Y-106494411D01*
X190657932Y-106224158D01*
X190715000Y-105937260D01*
X190715000Y-105644740D01*
X190657932Y-105357842D01*
X190545990Y-105087589D01*
X190383475Y-104844368D01*
X190176632Y-104637525D01*
X190002240Y-104521000D01*
X190176632Y-104404475D01*
X190383475Y-104197632D01*
X190545990Y-103954411D01*
X190657932Y-103684158D01*
X190715000Y-103397260D01*
X190715000Y-103104740D01*
X190657932Y-102817842D01*
X190545990Y-102547589D01*
X190383475Y-102304368D01*
X190176632Y-102097525D01*
X190002240Y-101981000D01*
X190176632Y-101864475D01*
X190383475Y-101657632D01*
X190545990Y-101414411D01*
X190657932Y-101144158D01*
X190715000Y-100857260D01*
X190715000Y-100564740D01*
X190657932Y-100277842D01*
X190545990Y-100007589D01*
X190383475Y-99764368D01*
X190176632Y-99557525D01*
X190002240Y-99441000D01*
X190176632Y-99324475D01*
X190383475Y-99117632D01*
X190545990Y-98874411D01*
X190657932Y-98604158D01*
X190715000Y-98317260D01*
X190715000Y-98024740D01*
X190657932Y-97737842D01*
X190545990Y-97467589D01*
X190383475Y-97224368D01*
X190176632Y-97017525D01*
X190002240Y-96901000D01*
X190176632Y-96784475D01*
X190383475Y-96577632D01*
X190545990Y-96334411D01*
X190657932Y-96064158D01*
X190715000Y-95777260D01*
X190715000Y-95484740D01*
X190657932Y-95197842D01*
X190545990Y-94927589D01*
X190383475Y-94684368D01*
X190176632Y-94477525D01*
X190002240Y-94361000D01*
X190176632Y-94244475D01*
X190383475Y-94037632D01*
X190545990Y-93794411D01*
X190657932Y-93524158D01*
X190715000Y-93237260D01*
X190715000Y-92944740D01*
X190657932Y-92657842D01*
X190545990Y-92387589D01*
X190383475Y-92144368D01*
X190176632Y-91937525D01*
X190002240Y-91821000D01*
X190176632Y-91704475D01*
X190383475Y-91497632D01*
X190545990Y-91254411D01*
X190657932Y-90984158D01*
X190715000Y-90697260D01*
X190715000Y-90404740D01*
X190657932Y-90117842D01*
X190545990Y-89847589D01*
X190383475Y-89604368D01*
X190176632Y-89397525D01*
X190002240Y-89281000D01*
X190176632Y-89164475D01*
X190383475Y-88957632D01*
X190545990Y-88714411D01*
X190657932Y-88444158D01*
X190715000Y-88157260D01*
X190715000Y-87864740D01*
X190657932Y-87577842D01*
X190545990Y-87307589D01*
X190448043Y-87161000D01*
X208061928Y-87161000D01*
X208061928Y-88861000D01*
X208074188Y-88985482D01*
X208110498Y-89105180D01*
X208169463Y-89215494D01*
X208248815Y-89312185D01*
X208345506Y-89391537D01*
X208455820Y-89450502D01*
X208528380Y-89472513D01*
X208396525Y-89604368D01*
X208234010Y-89847589D01*
X208122068Y-90117842D01*
X208065000Y-90404740D01*
X208065000Y-90697260D01*
X208122068Y-90984158D01*
X208234010Y-91254411D01*
X208396525Y-91497632D01*
X208603368Y-91704475D01*
X208777760Y-91821000D01*
X208603368Y-91937525D01*
X208396525Y-92144368D01*
X208234010Y-92387589D01*
X208122068Y-92657842D01*
X208065000Y-92944740D01*
X208065000Y-93237260D01*
X208122068Y-93524158D01*
X208234010Y-93794411D01*
X208396525Y-94037632D01*
X208603368Y-94244475D01*
X208777760Y-94361000D01*
X208603368Y-94477525D01*
X208396525Y-94684368D01*
X208234010Y-94927589D01*
X208122068Y-95197842D01*
X208065000Y-95484740D01*
X208065000Y-95777260D01*
X208122068Y-96064158D01*
X208234010Y-96334411D01*
X208396525Y-96577632D01*
X208603368Y-96784475D01*
X208777760Y-96901000D01*
X208603368Y-97017525D01*
X208396525Y-97224368D01*
X208234010Y-97467589D01*
X208122068Y-97737842D01*
X208065000Y-98024740D01*
X208065000Y-98317260D01*
X208122068Y-98604158D01*
X208234010Y-98874411D01*
X208396525Y-99117632D01*
X208603368Y-99324475D01*
X208777760Y-99441000D01*
X208603368Y-99557525D01*
X208396525Y-99764368D01*
X208234010Y-100007589D01*
X208122068Y-100277842D01*
X208065000Y-100564740D01*
X208065000Y-100857260D01*
X208122068Y-101144158D01*
X208234010Y-101414411D01*
X208396525Y-101657632D01*
X208603368Y-101864475D01*
X208777760Y-101981000D01*
X208603368Y-102097525D01*
X208396525Y-102304368D01*
X208234010Y-102547589D01*
X208122068Y-102817842D01*
X208065000Y-103104740D01*
X208065000Y-103397260D01*
X208122068Y-103684158D01*
X208234010Y-103954411D01*
X208396525Y-104197632D01*
X208603368Y-104404475D01*
X208777760Y-104521000D01*
X208603368Y-104637525D01*
X208396525Y-104844368D01*
X208234010Y-105087589D01*
X208122068Y-105357842D01*
X208065000Y-105644740D01*
X208065000Y-105937260D01*
X208122068Y-106224158D01*
X208234010Y-106494411D01*
X208396525Y-106737632D01*
X208603368Y-106944475D01*
X208777760Y-107061000D01*
X208603368Y-107177525D01*
X208396525Y-107384368D01*
X208234010Y-107627589D01*
X208122068Y-107897842D01*
X208065000Y-108184740D01*
X208065000Y-108477260D01*
X208122068Y-108764158D01*
X208234010Y-109034411D01*
X208396525Y-109277632D01*
X208603368Y-109484475D01*
X208777760Y-109601000D01*
X208603368Y-109717525D01*
X208396525Y-109924368D01*
X208234010Y-110167589D01*
X208122068Y-110437842D01*
X208065000Y-110724740D01*
X208065000Y-111017260D01*
X208122068Y-111304158D01*
X208234010Y-111574411D01*
X208396525Y-111817632D01*
X208603368Y-112024475D01*
X208777760Y-112141000D01*
X208603368Y-112257525D01*
X208396525Y-112464368D01*
X208234010Y-112707589D01*
X208122068Y-112977842D01*
X208065000Y-113264740D01*
X208065000Y-113557260D01*
X208122068Y-113844158D01*
X208234010Y-114114411D01*
X208396525Y-114357632D01*
X208603368Y-114564475D01*
X208777760Y-114681000D01*
X208603368Y-114797525D01*
X208396525Y-115004368D01*
X208234010Y-115247589D01*
X208122068Y-115517842D01*
X208065000Y-115804740D01*
X208065000Y-116097260D01*
X208122068Y-116384158D01*
X208234010Y-116654411D01*
X208396525Y-116897632D01*
X208603368Y-117104475D01*
X208846589Y-117266990D01*
X209116842Y-117378932D01*
X209403740Y-117436000D01*
X209696260Y-117436000D01*
X209983158Y-117378932D01*
X210253411Y-117266990D01*
X210496632Y-117104475D01*
X210703475Y-116897632D01*
X210865990Y-116654411D01*
X210977932Y-116384158D01*
X211035000Y-116097260D01*
X211035000Y-115804740D01*
X210977932Y-115517842D01*
X210865990Y-115247589D01*
X210703475Y-115004368D01*
X210496632Y-114797525D01*
X210322240Y-114681000D01*
X210496632Y-114564475D01*
X210703475Y-114357632D01*
X210865990Y-114114411D01*
X210977932Y-113844158D01*
X211035000Y-113557260D01*
X211035000Y-113264740D01*
X210977932Y-112977842D01*
X210865990Y-112707589D01*
X210703475Y-112464368D01*
X210496632Y-112257525D01*
X210322240Y-112141000D01*
X210496632Y-112024475D01*
X210703475Y-111817632D01*
X210865990Y-111574411D01*
X210977932Y-111304158D01*
X211035000Y-111017260D01*
X211035000Y-110724740D01*
X210977932Y-110437842D01*
X210865990Y-110167589D01*
X210703475Y-109924368D01*
X210496632Y-109717525D01*
X210322240Y-109601000D01*
X210496632Y-109484475D01*
X210703475Y-109277632D01*
X210865990Y-109034411D01*
X210977932Y-108764158D01*
X211035000Y-108477260D01*
X211035000Y-108184740D01*
X210977932Y-107897842D01*
X210865990Y-107627589D01*
X210703475Y-107384368D01*
X210496632Y-107177525D01*
X210322240Y-107061000D01*
X210496632Y-106944475D01*
X210703475Y-106737632D01*
X210865990Y-106494411D01*
X210977932Y-106224158D01*
X211035000Y-105937260D01*
X211035000Y-105644740D01*
X210977932Y-105357842D01*
X210865990Y-105087589D01*
X210703475Y-104844368D01*
X210496632Y-104637525D01*
X210322240Y-104521000D01*
X210496632Y-104404475D01*
X210703475Y-104197632D01*
X210865990Y-103954411D01*
X210977932Y-103684158D01*
X211035000Y-103397260D01*
X211035000Y-103104740D01*
X210977932Y-102817842D01*
X210865990Y-102547589D01*
X210703475Y-102304368D01*
X210496632Y-102097525D01*
X210322240Y-101981000D01*
X210496632Y-101864475D01*
X210703475Y-101657632D01*
X210865990Y-101414411D01*
X210977932Y-101144158D01*
X211035000Y-100857260D01*
X211035000Y-100564740D01*
X210977932Y-100277842D01*
X210865990Y-100007589D01*
X210703475Y-99764368D01*
X210496632Y-99557525D01*
X210322240Y-99441000D01*
X210496632Y-99324475D01*
X210703475Y-99117632D01*
X210865990Y-98874411D01*
X210977932Y-98604158D01*
X211035000Y-98317260D01*
X211035000Y-98024740D01*
X210977932Y-97737842D01*
X210865990Y-97467589D01*
X210703475Y-97224368D01*
X210496632Y-97017525D01*
X210322240Y-96901000D01*
X210496632Y-96784475D01*
X210703475Y-96577632D01*
X210865990Y-96334411D01*
X210977932Y-96064158D01*
X211035000Y-95777260D01*
X211035000Y-95484740D01*
X210977932Y-95197842D01*
X210865990Y-94927589D01*
X210703475Y-94684368D01*
X210496632Y-94477525D01*
X210322240Y-94361000D01*
X210496632Y-94244475D01*
X210703475Y-94037632D01*
X210865990Y-93794411D01*
X210977932Y-93524158D01*
X211035000Y-93237260D01*
X211035000Y-92944740D01*
X210977932Y-92657842D01*
X210865990Y-92387589D01*
X210703475Y-92144368D01*
X210496632Y-91937525D01*
X210322240Y-91821000D01*
X210496632Y-91704475D01*
X210703475Y-91497632D01*
X210865990Y-91254411D01*
X210977932Y-90984158D01*
X211035000Y-90697260D01*
X211035000Y-90404740D01*
X210977932Y-90117842D01*
X210865990Y-89847589D01*
X210784480Y-89725600D01*
X211718728Y-89725600D01*
X211718728Y-91325600D01*
X211730988Y-91450082D01*
X211767298Y-91569780D01*
X211826263Y-91680094D01*
X211905615Y-91776785D01*
X212002306Y-91856137D01*
X212112620Y-91915102D01*
X212232318Y-91951412D01*
X212356800Y-91963672D01*
X213956800Y-91963672D01*
X214081282Y-91951412D01*
X214200980Y-91915102D01*
X214311294Y-91856137D01*
X214407985Y-91776785D01*
X214487337Y-91680094D01*
X214546302Y-91569780D01*
X214561917Y-91518302D01*
X214843703Y-91518302D01*
X214915286Y-91762271D01*
X215170796Y-91883171D01*
X215444984Y-91951900D01*
X215727312Y-91965817D01*
X216006930Y-91924387D01*
X216273092Y-91829203D01*
X216398314Y-91762271D01*
X216469897Y-91518302D01*
X215656800Y-90705205D01*
X214843703Y-91518302D01*
X214561917Y-91518302D01*
X214582612Y-91450082D01*
X214594872Y-91325600D01*
X214594872Y-91318385D01*
X214664098Y-91338697D01*
X215477195Y-90525600D01*
X215836405Y-90525600D01*
X216649502Y-91338697D01*
X216893471Y-91267114D01*
X217014371Y-91011604D01*
X217083100Y-90737416D01*
X217097017Y-90455088D01*
X217055587Y-90175470D01*
X216960403Y-89909308D01*
X216893471Y-89784086D01*
X216649502Y-89712503D01*
X215836405Y-90525600D01*
X215477195Y-90525600D01*
X214664098Y-89712503D01*
X214594872Y-89732815D01*
X214594872Y-89725600D01*
X214582612Y-89601118D01*
X214561918Y-89532898D01*
X214843703Y-89532898D01*
X215656800Y-90345995D01*
X216469897Y-89532898D01*
X216398314Y-89288929D01*
X216142804Y-89168029D01*
X215868616Y-89099300D01*
X215586288Y-89085383D01*
X215306670Y-89126813D01*
X215040508Y-89221997D01*
X214915286Y-89288929D01*
X214843703Y-89532898D01*
X214561918Y-89532898D01*
X214546302Y-89481420D01*
X214487337Y-89371106D01*
X214407985Y-89274415D01*
X214311294Y-89195063D01*
X214200980Y-89136098D01*
X214081282Y-89099788D01*
X213956800Y-89087528D01*
X212356800Y-89087528D01*
X212232318Y-89099788D01*
X212112620Y-89136098D01*
X212002306Y-89195063D01*
X211905615Y-89274415D01*
X211826263Y-89371106D01*
X211767298Y-89481420D01*
X211730988Y-89601118D01*
X211718728Y-89725600D01*
X210784480Y-89725600D01*
X210703475Y-89604368D01*
X210571620Y-89472513D01*
X210644180Y-89450502D01*
X210754494Y-89391537D01*
X210851185Y-89312185D01*
X210930537Y-89215494D01*
X210989502Y-89105180D01*
X211025812Y-88985482D01*
X211038072Y-88861000D01*
X211038072Y-87161000D01*
X211025812Y-87036518D01*
X210989502Y-86916820D01*
X210930537Y-86806506D01*
X210851185Y-86709815D01*
X210754494Y-86630463D01*
X210644180Y-86571498D01*
X210524482Y-86535188D01*
X210400000Y-86522928D01*
X208700000Y-86522928D01*
X208575518Y-86535188D01*
X208455820Y-86571498D01*
X208345506Y-86630463D01*
X208248815Y-86709815D01*
X208169463Y-86806506D01*
X208110498Y-86916820D01*
X208074188Y-87036518D01*
X208061928Y-87161000D01*
X190448043Y-87161000D01*
X190383475Y-87064368D01*
X190176632Y-86857525D01*
X189994466Y-86735805D01*
X190111355Y-86666178D01*
X190327588Y-86471269D01*
X190501641Y-86237920D01*
X190626825Y-85975099D01*
X190671476Y-85827890D01*
X190550155Y-85598000D01*
X189357000Y-85598000D01*
X189357000Y-85618000D01*
X189103000Y-85618000D01*
X189103000Y-85598000D01*
X187909845Y-85598000D01*
X187788524Y-85827890D01*
X187833175Y-85975099D01*
X187958359Y-86237920D01*
X188132412Y-86471269D01*
X188348645Y-86666178D01*
X188465534Y-86735805D01*
X188283368Y-86857525D01*
X188076525Y-87064368D01*
X187914010Y-87307589D01*
X187802068Y-87577842D01*
X187745000Y-87864740D01*
X173763347Y-87864740D01*
X173769371Y-77001000D01*
X187741928Y-77001000D01*
X187741928Y-78701000D01*
X187754188Y-78825482D01*
X187790498Y-78945180D01*
X187849463Y-79055494D01*
X187928815Y-79152185D01*
X188025506Y-79231537D01*
X188135820Y-79290502D01*
X188208380Y-79312513D01*
X188076525Y-79444368D01*
X187914010Y-79687589D01*
X187802068Y-79957842D01*
X187745000Y-80244740D01*
X187745000Y-80537260D01*
X187802068Y-80824158D01*
X187914010Y-81094411D01*
X188076525Y-81337632D01*
X188283368Y-81544475D01*
X188457760Y-81661000D01*
X188283368Y-81777525D01*
X188076525Y-81984368D01*
X187914010Y-82227589D01*
X187802068Y-82497842D01*
X187745000Y-82784740D01*
X187745000Y-83077260D01*
X187802068Y-83364158D01*
X187914010Y-83634411D01*
X188076525Y-83877632D01*
X188283368Y-84084475D01*
X188465534Y-84206195D01*
X188348645Y-84275822D01*
X188132412Y-84470731D01*
X187958359Y-84704080D01*
X187833175Y-84966901D01*
X187788524Y-85114110D01*
X187909845Y-85344000D01*
X189103000Y-85344000D01*
X189103000Y-85324000D01*
X189357000Y-85324000D01*
X189357000Y-85344000D01*
X190550155Y-85344000D01*
X190671476Y-85114110D01*
X190626825Y-84966901D01*
X190501641Y-84704080D01*
X190327588Y-84470731D01*
X190111355Y-84275822D01*
X189994466Y-84206195D01*
X190176632Y-84084475D01*
X190383475Y-83877632D01*
X190545990Y-83634411D01*
X190657932Y-83364158D01*
X190715000Y-83077260D01*
X190715000Y-82784740D01*
X190657932Y-82497842D01*
X190545990Y-82227589D01*
X190383475Y-81984368D01*
X190176632Y-81777525D01*
X190002240Y-81661000D01*
X190176632Y-81544475D01*
X190383475Y-81337632D01*
X190545990Y-81094411D01*
X190657932Y-80824158D01*
X190715000Y-80537260D01*
X190715000Y-80244740D01*
X190657932Y-79957842D01*
X190545990Y-79687589D01*
X190383475Y-79444368D01*
X190251620Y-79312513D01*
X190324180Y-79290502D01*
X190434494Y-79231537D01*
X190531185Y-79152185D01*
X190610537Y-79055494D01*
X190669502Y-78945180D01*
X190705812Y-78825482D01*
X190718072Y-78701000D01*
X190718072Y-77001000D01*
X190705812Y-76876518D01*
X190669502Y-76756820D01*
X190610537Y-76646506D01*
X190531185Y-76549815D01*
X190434494Y-76470463D01*
X190324180Y-76411498D01*
X190204482Y-76375188D01*
X190080000Y-76362928D01*
X188380000Y-76362928D01*
X188255518Y-76375188D01*
X188135820Y-76411498D01*
X188025506Y-76470463D01*
X187928815Y-76549815D01*
X187849463Y-76646506D01*
X187790498Y-76756820D01*
X187754188Y-76876518D01*
X187741928Y-77001000D01*
X173769371Y-77001000D01*
X173780294Y-57301850D01*
X182206943Y-65728499D01*
X182238567Y-65767033D01*
X182392360Y-65893247D01*
X182567820Y-65987032D01*
X182758205Y-66044785D01*
X182956200Y-66064286D01*
X183005808Y-66059400D01*
X216520253Y-66059400D01*
X216849747Y-66388894D01*
X216881375Y-66427433D01*
X217035168Y-66553647D01*
X217210628Y-66647432D01*
X217401013Y-66705185D01*
X217599008Y-66724686D01*
X217648616Y-66719800D01*
X217710983Y-66719800D01*
X217893295Y-66902112D01*
X218144705Y-67070099D01*
X218424057Y-67185811D01*
X218720616Y-67244800D01*
X219022984Y-67244800D01*
X219319543Y-67185811D01*
X219598895Y-67070099D01*
X219850305Y-66902112D01*
X220064112Y-66688305D01*
X220232099Y-66436895D01*
X220347811Y-66157543D01*
X220406800Y-65860984D01*
X220406800Y-65558616D01*
X220347811Y-65262057D01*
X220232099Y-64982705D01*
X220064112Y-64731295D01*
X219850305Y-64517488D01*
X219598895Y-64349501D01*
X219319543Y-64233789D01*
X219022984Y-64174800D01*
X218720616Y-64174800D01*
X218424057Y-64233789D01*
X218144705Y-64349501D01*
X217893295Y-64517488D01*
X217864173Y-64546610D01*
X217687869Y-64370306D01*
X217656241Y-64331767D01*
X217502448Y-64205553D01*
X217326988Y-64111768D01*
X217136602Y-64054015D01*
X216988216Y-64039400D01*
X216938608Y-64034514D01*
X216889000Y-64039400D01*
X183374556Y-64039400D01*
X173781877Y-54446721D01*
X173782124Y-54001679D01*
X182587939Y-62807494D01*
X182619567Y-62846033D01*
X182773360Y-62972247D01*
X182948820Y-63066032D01*
X183139206Y-63123785D01*
X183287592Y-63138400D01*
X183287594Y-63138400D01*
X183337199Y-63143286D01*
X183386804Y-63138400D01*
X217380783Y-63138400D01*
X217563095Y-63320712D01*
X217814505Y-63488699D01*
X218093857Y-63604411D01*
X218390416Y-63663400D01*
X218692784Y-63663400D01*
X218989343Y-63604411D01*
X219268695Y-63488699D01*
X219520105Y-63320712D01*
X219733912Y-63106905D01*
X219901899Y-62855495D01*
X220017611Y-62576143D01*
X220076600Y-62279584D01*
X220076600Y-61977216D01*
X220017611Y-61680657D01*
X219901899Y-61401305D01*
X219733912Y-61149895D01*
X219520105Y-60936088D01*
X219268695Y-60768101D01*
X218989343Y-60652389D01*
X218692784Y-60593400D01*
X218390416Y-60593400D01*
X218093857Y-60652389D01*
X217814505Y-60768101D01*
X217563095Y-60936088D01*
X217380783Y-61118400D01*
X183755555Y-61118400D01*
X173783707Y-51146552D01*
X173784277Y-50117633D01*
X183146744Y-59480100D01*
X183178367Y-59518633D01*
X183332160Y-59644847D01*
X183507620Y-59738632D01*
X183698005Y-59796385D01*
X183896000Y-59815886D01*
X183945608Y-59811000D01*
X217346200Y-59811000D01*
X217395808Y-59815886D01*
X217593802Y-59796385D01*
X217711473Y-59760690D01*
X217817095Y-59866312D01*
X218068505Y-60034299D01*
X218347857Y-60150011D01*
X218644416Y-60209000D01*
X218946784Y-60209000D01*
X219243343Y-60150011D01*
X219522695Y-60034299D01*
X219774105Y-59866312D01*
X219987912Y-59652505D01*
X220155899Y-59401095D01*
X220271611Y-59121743D01*
X220330600Y-58825184D01*
X220330600Y-58522816D01*
X220271611Y-58226257D01*
X220155899Y-57946905D01*
X219987912Y-57695495D01*
X219774105Y-57481688D01*
X219522695Y-57313701D01*
X219243343Y-57197989D01*
X218946784Y-57139000D01*
X218644416Y-57139000D01*
X218347857Y-57197989D01*
X218068505Y-57313701D01*
X217817095Y-57481688D01*
X217634783Y-57664000D01*
X217572412Y-57664000D01*
X217522807Y-57659114D01*
X217473202Y-57664000D01*
X217473200Y-57664000D01*
X217324814Y-57678615D01*
X217134428Y-57736368D01*
X217032218Y-57791000D01*
X184314356Y-57791000D01*
X173785861Y-47262505D01*
X173786730Y-45694600D01*
X213193483Y-45694600D01*
X212788044Y-45775247D01*
G04 #@! TD*
M02*
