G04 #@! TF.GenerationSoftware,KiCad,Pcbnew,5.1.5-52549c5~84~ubuntu18.04.1*
G04 #@! TF.CreationDate,2020-03-09T15:59:06-04:00*
G04 #@! TF.ProjectId,solenoid_board,736f6c65-6e6f-4696-945f-626f6172642e,rev?*
G04 #@! TF.SameCoordinates,Original*
G04 #@! TF.FileFunction,Legend,Bot*
G04 #@! TF.FilePolarity,Positive*
%FSLAX46Y46*%
G04 Gerber Fmt 4.6, Leading zero omitted, Abs format (unit mm)*
G04 Created by KiCad (PCBNEW 5.1.5-52549c5~84~ubuntu18.04.1) date 2020-03-09 15:59:06*
%MOMM*%
%LPD*%
G04 APERTURE LIST*
G04 #@! TA.AperFunction,Profile*
%ADD10C,0.050000*%
G04 #@! TD*
%ADD11C,0.120000*%
%ADD12C,0.150000*%
G04 APERTURE END LIST*
D10*
X115000000Y-140000000D02*
X115000000Y-50000000D01*
X220000000Y-140000000D02*
X115000000Y-140000000D01*
X220000000Y-50000000D02*
X220000000Y-140000000D01*
X115000000Y-50000000D02*
X220000000Y-50000000D01*
D11*
G04 #@! TO.C,R3k7*
X121750000Y-60920000D02*
X121750000Y-64080000D01*
X122670000Y-60000000D02*
G75*
G03X122670000Y-60000000I-920000J0D01*
G01*
G04 #@! TO.C,R3k8*
X128250000Y-61170000D02*
X128250000Y-64330000D01*
X129170000Y-60250000D02*
G75*
G03X129170000Y-60250000I-920000J0D01*
G01*
G04 #@! TO.C,R3k9*
X135250000Y-61170000D02*
X135250000Y-64330000D01*
X136170000Y-60250000D02*
G75*
G03X136170000Y-60250000I-920000J0D01*
G01*
G04 #@! TO.C,R3k10*
X142250000Y-60920000D02*
X142250000Y-64080000D01*
X143170000Y-60000000D02*
G75*
G03X143170000Y-60000000I-920000J0D01*
G01*
G04 #@! TO.C,R3k11*
X148750000Y-60920000D02*
X148750000Y-64080000D01*
X149670000Y-60000000D02*
G75*
G03X149670000Y-60000000I-920000J0D01*
G01*
G04 #@! TO.C,R3k12*
X155750000Y-60920000D02*
X155750000Y-64080000D01*
X156670000Y-60000000D02*
G75*
G03X156670000Y-60000000I-920000J0D01*
G01*
G04 #@! TO.C,R3k13*
X163000000Y-61170000D02*
X163000000Y-64330000D01*
X163920000Y-60250000D02*
G75*
G03X163920000Y-60250000I-920000J0D01*
G01*
G04 #@! TD*
G04 #@! TO.C,R3k7*
D12*
X120282380Y-61492380D02*
X119806190Y-61159047D01*
X120282380Y-60920952D02*
X119282380Y-60920952D01*
X119282380Y-61301904D01*
X119330000Y-61397142D01*
X119377619Y-61444761D01*
X119472857Y-61492380D01*
X119615714Y-61492380D01*
X119710952Y-61444761D01*
X119758571Y-61397142D01*
X119806190Y-61301904D01*
X119806190Y-60920952D01*
X119282380Y-61825714D02*
X119282380Y-62444761D01*
X119663333Y-62111428D01*
X119663333Y-62254285D01*
X119710952Y-62349523D01*
X119758571Y-62397142D01*
X119853809Y-62444761D01*
X120091904Y-62444761D01*
X120187142Y-62397142D01*
X120234761Y-62349523D01*
X120282380Y-62254285D01*
X120282380Y-61968571D01*
X120234761Y-61873333D01*
X120187142Y-61825714D01*
X120282380Y-62873333D02*
X119282380Y-62873333D01*
X119901428Y-62968571D02*
X120282380Y-63254285D01*
X119615714Y-63254285D02*
X119996666Y-62873333D01*
X119282380Y-63587619D02*
X119282380Y-64254285D01*
X120282380Y-63825714D01*
G04 #@! TO.C,R3k8*
X126782380Y-61742380D02*
X126306190Y-61409047D01*
X126782380Y-61170952D02*
X125782380Y-61170952D01*
X125782380Y-61551904D01*
X125830000Y-61647142D01*
X125877619Y-61694761D01*
X125972857Y-61742380D01*
X126115714Y-61742380D01*
X126210952Y-61694761D01*
X126258571Y-61647142D01*
X126306190Y-61551904D01*
X126306190Y-61170952D01*
X125782380Y-62075714D02*
X125782380Y-62694761D01*
X126163333Y-62361428D01*
X126163333Y-62504285D01*
X126210952Y-62599523D01*
X126258571Y-62647142D01*
X126353809Y-62694761D01*
X126591904Y-62694761D01*
X126687142Y-62647142D01*
X126734761Y-62599523D01*
X126782380Y-62504285D01*
X126782380Y-62218571D01*
X126734761Y-62123333D01*
X126687142Y-62075714D01*
X126782380Y-63123333D02*
X125782380Y-63123333D01*
X126401428Y-63218571D02*
X126782380Y-63504285D01*
X126115714Y-63504285D02*
X126496666Y-63123333D01*
X126210952Y-64075714D02*
X126163333Y-63980476D01*
X126115714Y-63932857D01*
X126020476Y-63885238D01*
X125972857Y-63885238D01*
X125877619Y-63932857D01*
X125830000Y-63980476D01*
X125782380Y-64075714D01*
X125782380Y-64266190D01*
X125830000Y-64361428D01*
X125877619Y-64409047D01*
X125972857Y-64456666D01*
X126020476Y-64456666D01*
X126115714Y-64409047D01*
X126163333Y-64361428D01*
X126210952Y-64266190D01*
X126210952Y-64075714D01*
X126258571Y-63980476D01*
X126306190Y-63932857D01*
X126401428Y-63885238D01*
X126591904Y-63885238D01*
X126687142Y-63932857D01*
X126734761Y-63980476D01*
X126782380Y-64075714D01*
X126782380Y-64266190D01*
X126734761Y-64361428D01*
X126687142Y-64409047D01*
X126591904Y-64456666D01*
X126401428Y-64456666D01*
X126306190Y-64409047D01*
X126258571Y-64361428D01*
X126210952Y-64266190D01*
G04 #@! TO.C,R3k9*
X133782380Y-61742380D02*
X133306190Y-61409047D01*
X133782380Y-61170952D02*
X132782380Y-61170952D01*
X132782380Y-61551904D01*
X132830000Y-61647142D01*
X132877619Y-61694761D01*
X132972857Y-61742380D01*
X133115714Y-61742380D01*
X133210952Y-61694761D01*
X133258571Y-61647142D01*
X133306190Y-61551904D01*
X133306190Y-61170952D01*
X132782380Y-62075714D02*
X132782380Y-62694761D01*
X133163333Y-62361428D01*
X133163333Y-62504285D01*
X133210952Y-62599523D01*
X133258571Y-62647142D01*
X133353809Y-62694761D01*
X133591904Y-62694761D01*
X133687142Y-62647142D01*
X133734761Y-62599523D01*
X133782380Y-62504285D01*
X133782380Y-62218571D01*
X133734761Y-62123333D01*
X133687142Y-62075714D01*
X133782380Y-63123333D02*
X132782380Y-63123333D01*
X133401428Y-63218571D02*
X133782380Y-63504285D01*
X133115714Y-63504285D02*
X133496666Y-63123333D01*
X133782380Y-63980476D02*
X133782380Y-64170952D01*
X133734761Y-64266190D01*
X133687142Y-64313809D01*
X133544285Y-64409047D01*
X133353809Y-64456666D01*
X132972857Y-64456666D01*
X132877619Y-64409047D01*
X132830000Y-64361428D01*
X132782380Y-64266190D01*
X132782380Y-64075714D01*
X132830000Y-63980476D01*
X132877619Y-63932857D01*
X132972857Y-63885238D01*
X133210952Y-63885238D01*
X133306190Y-63932857D01*
X133353809Y-63980476D01*
X133401428Y-64075714D01*
X133401428Y-64266190D01*
X133353809Y-64361428D01*
X133306190Y-64409047D01*
X133210952Y-64456666D01*
G04 #@! TO.C,R3k10*
X140702380Y-61476190D02*
X140226190Y-61142857D01*
X140702380Y-60904761D02*
X139702380Y-60904761D01*
X139702380Y-61285714D01*
X139750000Y-61380952D01*
X139797619Y-61428571D01*
X139892857Y-61476190D01*
X140035714Y-61476190D01*
X140130952Y-61428571D01*
X140178571Y-61380952D01*
X140226190Y-61285714D01*
X140226190Y-60904761D01*
X139702380Y-61809523D02*
X139702380Y-62428571D01*
X140083333Y-62095238D01*
X140083333Y-62238095D01*
X140130952Y-62333333D01*
X140178571Y-62380952D01*
X140273809Y-62428571D01*
X140511904Y-62428571D01*
X140607142Y-62380952D01*
X140654761Y-62333333D01*
X140702380Y-62238095D01*
X140702380Y-61952380D01*
X140654761Y-61857142D01*
X140607142Y-61809523D01*
X140702380Y-62857142D02*
X139702380Y-62857142D01*
X140321428Y-62952380D02*
X140702380Y-63238095D01*
X140035714Y-63238095D02*
X140416666Y-62857142D01*
X140702380Y-64190476D02*
X140702380Y-63619047D01*
X140702380Y-63904761D02*
X139702380Y-63904761D01*
X139845238Y-63809523D01*
X139940476Y-63714285D01*
X139988095Y-63619047D01*
X139702380Y-64809523D02*
X139702380Y-64904761D01*
X139750000Y-65000000D01*
X139797619Y-65047619D01*
X139892857Y-65095238D01*
X140083333Y-65142857D01*
X140321428Y-65142857D01*
X140511904Y-65095238D01*
X140607142Y-65047619D01*
X140654761Y-65000000D01*
X140702380Y-64904761D01*
X140702380Y-64809523D01*
X140654761Y-64714285D01*
X140607142Y-64666666D01*
X140511904Y-64619047D01*
X140321428Y-64571428D01*
X140083333Y-64571428D01*
X139892857Y-64619047D01*
X139797619Y-64666666D01*
X139750000Y-64714285D01*
X139702380Y-64809523D01*
G04 #@! TO.C,R3k11*
X147202380Y-61476190D02*
X146726190Y-61142857D01*
X147202380Y-60904761D02*
X146202380Y-60904761D01*
X146202380Y-61285714D01*
X146250000Y-61380952D01*
X146297619Y-61428571D01*
X146392857Y-61476190D01*
X146535714Y-61476190D01*
X146630952Y-61428571D01*
X146678571Y-61380952D01*
X146726190Y-61285714D01*
X146726190Y-60904761D01*
X146202380Y-61809523D02*
X146202380Y-62428571D01*
X146583333Y-62095238D01*
X146583333Y-62238095D01*
X146630952Y-62333333D01*
X146678571Y-62380952D01*
X146773809Y-62428571D01*
X147011904Y-62428571D01*
X147107142Y-62380952D01*
X147154761Y-62333333D01*
X147202380Y-62238095D01*
X147202380Y-61952380D01*
X147154761Y-61857142D01*
X147107142Y-61809523D01*
X147202380Y-62857142D02*
X146202380Y-62857142D01*
X146821428Y-62952380D02*
X147202380Y-63238095D01*
X146535714Y-63238095D02*
X146916666Y-62857142D01*
X147202380Y-64190476D02*
X147202380Y-63619047D01*
X147202380Y-63904761D02*
X146202380Y-63904761D01*
X146345238Y-63809523D01*
X146440476Y-63714285D01*
X146488095Y-63619047D01*
X147202380Y-65142857D02*
X147202380Y-64571428D01*
X147202380Y-64857142D02*
X146202380Y-64857142D01*
X146345238Y-64761904D01*
X146440476Y-64666666D01*
X146488095Y-64571428D01*
G04 #@! TO.C,R3k12*
X154202380Y-61476190D02*
X153726190Y-61142857D01*
X154202380Y-60904761D02*
X153202380Y-60904761D01*
X153202380Y-61285714D01*
X153250000Y-61380952D01*
X153297619Y-61428571D01*
X153392857Y-61476190D01*
X153535714Y-61476190D01*
X153630952Y-61428571D01*
X153678571Y-61380952D01*
X153726190Y-61285714D01*
X153726190Y-60904761D01*
X153202380Y-61809523D02*
X153202380Y-62428571D01*
X153583333Y-62095238D01*
X153583333Y-62238095D01*
X153630952Y-62333333D01*
X153678571Y-62380952D01*
X153773809Y-62428571D01*
X154011904Y-62428571D01*
X154107142Y-62380952D01*
X154154761Y-62333333D01*
X154202380Y-62238095D01*
X154202380Y-61952380D01*
X154154761Y-61857142D01*
X154107142Y-61809523D01*
X154202380Y-62857142D02*
X153202380Y-62857142D01*
X153821428Y-62952380D02*
X154202380Y-63238095D01*
X153535714Y-63238095D02*
X153916666Y-62857142D01*
X154202380Y-64190476D02*
X154202380Y-63619047D01*
X154202380Y-63904761D02*
X153202380Y-63904761D01*
X153345238Y-63809523D01*
X153440476Y-63714285D01*
X153488095Y-63619047D01*
X153297619Y-64571428D02*
X153250000Y-64619047D01*
X153202380Y-64714285D01*
X153202380Y-64952380D01*
X153250000Y-65047619D01*
X153297619Y-65095238D01*
X153392857Y-65142857D01*
X153488095Y-65142857D01*
X153630952Y-65095238D01*
X154202380Y-64523809D01*
X154202380Y-65142857D01*
G04 #@! TO.C,R3k13*
X161452380Y-61476190D02*
X160976190Y-61142857D01*
X161452380Y-60904761D02*
X160452380Y-60904761D01*
X160452380Y-61285714D01*
X160500000Y-61380952D01*
X160547619Y-61428571D01*
X160642857Y-61476190D01*
X160785714Y-61476190D01*
X160880952Y-61428571D01*
X160928571Y-61380952D01*
X160976190Y-61285714D01*
X160976190Y-60904761D01*
X160452380Y-61809523D02*
X160452380Y-62428571D01*
X160833333Y-62095238D01*
X160833333Y-62238095D01*
X160880952Y-62333333D01*
X160928571Y-62380952D01*
X161023809Y-62428571D01*
X161261904Y-62428571D01*
X161357142Y-62380952D01*
X161404761Y-62333333D01*
X161452380Y-62238095D01*
X161452380Y-61952380D01*
X161404761Y-61857142D01*
X161357142Y-61809523D01*
X161452380Y-62857142D02*
X160452380Y-62857142D01*
X161071428Y-62952380D02*
X161452380Y-63238095D01*
X160785714Y-63238095D02*
X161166666Y-62857142D01*
X161452380Y-64190476D02*
X161452380Y-63619047D01*
X161452380Y-63904761D02*
X160452380Y-63904761D01*
X160595238Y-63809523D01*
X160690476Y-63714285D01*
X160738095Y-63619047D01*
X160452380Y-64523809D02*
X160452380Y-65142857D01*
X160833333Y-64809523D01*
X160833333Y-64952380D01*
X160880952Y-65047619D01*
X160928571Y-65095238D01*
X161023809Y-65142857D01*
X161261904Y-65142857D01*
X161357142Y-65095238D01*
X161404761Y-65047619D01*
X161452380Y-64952380D01*
X161452380Y-64666666D01*
X161404761Y-64571428D01*
X161357142Y-64523809D01*
G04 #@! TD*
M02*
