M48
; DRILL file {KiCad 5.1.5-52549c5~84~ubuntu18.04.1} date Sun 23 Feb 2020 07:10:52 PM EST
; FORMAT={-:-/ absolute / metric / decimal}
; #@! TF.CreationDate,2020-02-23T19:10:52-05:00
; #@! TF.GenerationSoftware,Kicad,Pcbnew,5.1.5-52549c5~84~ubuntu18.04.1
; #@! TF.FileFunction,Plated,1,2,PTH
FMAT,2
METRIC
T1C0.550
T2C0.600
T3C0.700
T4C0.800
T5C0.900
T6C1.000
%
G90
G05
T1
X174.587Y-102.222
X174.587Y-103.492
X174.587Y-104.762
X174.561Y-80.302
X174.561Y-81.572
X174.561Y-82.842
X136.284Y-68.91
X137.554Y-68.91
X138.824Y-68.91
X174.574Y-87.541
X174.574Y-88.811
X174.574Y-90.081
X129.4Y-68.961
X130.67Y-68.961
X131.94Y-68.961
X163.652Y-69.113
X164.922Y-69.113
X166.192Y-69.113
X122.593Y-68.961
X123.863Y-68.961
X125.133Y-68.961
X156.616Y-69.113
X157.886Y-69.113
X159.156Y-69.113
X174.498Y-72.987
X174.498Y-74.257
X174.498Y-75.527
X174.473Y-116.942
X174.473Y-118.212
X174.473Y-119.482
X149.847Y-69.025
X151.117Y-69.025
X152.387Y-69.025
X174.638Y-94.844
X174.638Y-96.114
X174.638Y-97.384
X174.574Y-109.55
X174.574Y-110.82
X174.574Y-112.09
X143.18Y-68.923
X144.45Y-68.923
X145.72Y-68.923
T2
X203.689Y-124.181
X205.689Y-124.181
T3
X179.514Y-96.101
X179.514Y-101.181
X179.54Y-110.795
X179.54Y-115.875
X130.848Y-60.274
X130.848Y-65.354
X169.875Y-119.482
X169.875Y-124.562
X179.527Y-103.556
X179.527Y-108.636
X121.755Y-60.185
X121.755Y-65.265
X158.064Y-60.109
X158.064Y-65.189
X179.362Y-74.358
X179.362Y-79.438
X137.833Y-60.122
X137.833Y-65.202
X179.553Y-118.135
X179.553Y-123.215
X179.502Y-88.862
X179.502Y-93.942
X169.761Y-90.081
X169.761Y-95.161
X165.354Y-60.236
X165.354Y-65.316
X179.375Y-81.61
X179.375Y-86.69
X184.213Y-121.272
X184.213Y-128.892
X124.244Y-60.173
X124.244Y-65.253
X162.903Y-60.223
X162.903Y-65.303
X155.562Y-59.995
X155.562Y-65.075
X188.519Y-120.968
X188.519Y-128.588
X148.857Y-59.931
X148.857Y-65.011
X128.549Y-60.185
X128.549Y-65.265
X169.786Y-97.384
X169.786Y-102.464
X135.395Y-60.033
X135.395Y-65.113
X169.812Y-82.74
X169.812Y-87.82
X142.24Y-60.046
X142.24Y-65.126
X151.13Y-59.982
X151.13Y-65.062
X144.64Y-60.122
X144.64Y-65.202
X169.774Y-112.09
X169.774Y-117.17
X169.837Y-104.686
X169.837Y-109.766
X169.736Y-75.552
X169.736Y-80.632
T4
X209.829Y-93.116
X212.329Y-93.116
T5
X187.757Y-106.515
X195.275Y-125.832
T6
X128.924Y-107.715
X128.924Y-110.255
X135.924Y-99.715
X135.924Y-102.255
X135.924Y-75.715
X135.924Y-78.255
X142.924Y-83.715
X142.924Y-86.255
X135.924Y-123.715
X135.924Y-126.255
X128.924Y-123.715
X128.924Y-126.255
X121.924Y-107.715
X121.924Y-110.255
X149.924Y-115.715
X149.924Y-118.255
X142.924Y-99.715
X142.924Y-102.255
X121.924Y-123.715
X121.924Y-126.255
X135.924Y-91.715
X135.924Y-94.255
X163.924Y-123.715
X163.924Y-126.255
X199.123Y-128.651
X199.123Y-131.191
X149.924Y-83.715
X149.924Y-86.255
X142.924Y-107.715
X142.924Y-110.255
X142.924Y-115.715
X142.924Y-118.255
X142.924Y-75.715
X142.924Y-78.255
X156.924Y-91.715
X156.924Y-94.255
X135.924Y-107.715
X135.924Y-110.255
X163.924Y-107.715
X163.924Y-110.255
X195.097Y-128.638
X195.097Y-131.178
X121.924Y-83.715
X121.924Y-86.255
X205.511Y-130.048
X149.924Y-91.715
X149.924Y-94.255
X156.924Y-83.715
X156.924Y-86.255
X184.493Y-77.851
X184.493Y-80.391
X184.493Y-82.931
X184.493Y-85.471
X184.493Y-88.011
X184.493Y-90.551
X184.493Y-93.091
X184.493Y-95.631
X184.493Y-98.171
X184.493Y-100.711
X184.493Y-103.251
X184.493Y-105.791
X184.493Y-108.331
X184.493Y-110.871
X184.493Y-113.411
X184.493Y-115.951
X156.924Y-107.715
X156.924Y-110.255
X149.924Y-75.715
X149.924Y-78.255
X149.924Y-99.715
X149.924Y-102.255
X163.924Y-99.715
X163.924Y-102.255
X163.924Y-91.715
X163.924Y-94.255
X156.924Y-115.715
X156.924Y-118.255
X121.924Y-75.715
X121.924Y-78.255
X204.813Y-88.011
X204.813Y-90.551
X204.813Y-93.091
X204.813Y-95.631
X204.813Y-98.171
X204.813Y-100.711
X204.813Y-103.251
X204.813Y-105.791
X204.813Y-108.331
X204.813Y-110.871
X204.813Y-113.411
X204.813Y-115.951
X163.924Y-83.715
X163.924Y-86.255
X121.924Y-99.715
X121.924Y-102.255
X128.924Y-83.715
X128.924Y-86.255
X149.924Y-123.715
X149.924Y-126.255
X156.924Y-75.715
X156.924Y-78.255
X163.924Y-115.715
X163.924Y-118.255
X121.924Y-91.715
X121.924Y-94.255
X142.924Y-123.715
X142.924Y-126.255
X128.924Y-115.715
X128.924Y-118.255
X135.924Y-115.715
X135.924Y-118.255
X121.924Y-115.715
X121.924Y-118.255
X149.924Y-107.715
X149.924Y-110.255
X135.924Y-83.715
X135.924Y-86.255
X142.924Y-91.715
X142.924Y-94.255
X128.924Y-75.715
X128.924Y-78.255
X156.924Y-99.715
X156.924Y-102.255
X128.924Y-99.715
X128.924Y-102.255
X163.924Y-75.715
X163.924Y-78.255
X128.924Y-91.715
X128.924Y-94.255
X209.575Y-75.362
X212.115Y-75.362
X156.924Y-123.715
X156.924Y-126.255
T0
M30
