G04 #@! TF.GenerationSoftware,KiCad,Pcbnew,5.1.5-52549c5~84~ubuntu18.04.1*
G04 #@! TF.CreationDate,2020-02-09T14:38:17-05:00*
G04 #@! TF.ProjectId,solenoid_board,736f6c65-6e6f-4696-945f-626f6172642e,rev?*
G04 #@! TF.SameCoordinates,Original*
G04 #@! TF.FileFunction,Copper,L1,Top*
G04 #@! TF.FilePolarity,Positive*
%FSLAX46Y46*%
G04 Gerber Fmt 4.6, Leading zero omitted, Abs format (unit mm)*
G04 Created by KiCad (PCBNEW 5.1.5-52549c5~84~ubuntu18.04.1) date 2020-02-09 14:38:17*
%MOMM*%
%LPD*%
G04 APERTURE LIST*
G04 #@! TA.AperFunction,Profile*
%ADD10C,0.120000*%
G04 #@! TD*
G04 #@! TA.AperFunction,SMDPad,CuDef*
%ADD11C,0.150000*%
G04 #@! TD*
G04 #@! TA.AperFunction,ComponentPad*
%ADD12C,3.000000*%
G04 #@! TD*
G04 #@! TA.AperFunction,ComponentPad*
%ADD13R,3.000000X3.000000*%
G04 #@! TD*
G04 #@! TA.AperFunction,ComponentPad*
%ADD14C,1.500000*%
G04 #@! TD*
G04 #@! TA.AperFunction,ComponentPad*
%ADD15R,1.500000X1.500000*%
G04 #@! TD*
G04 #@! TA.AperFunction,ComponentPad*
%ADD16C,1.600000*%
G04 #@! TD*
G04 #@! TA.AperFunction,ComponentPad*
%ADD17R,1.600000X1.600000*%
G04 #@! TD*
G04 #@! TA.AperFunction,ComponentPad*
%ADD18C,1.200000*%
G04 #@! TD*
G04 #@! TA.AperFunction,ComponentPad*
%ADD19R,1.200000X1.200000*%
G04 #@! TD*
G04 #@! TA.AperFunction,ComponentPad*
%ADD20R,1.700000X1.700000*%
G04 #@! TD*
G04 #@! TA.AperFunction,SMDPad,CuDef*
%ADD21R,0.568000X1.454899*%
G04 #@! TD*
G04 #@! TA.AperFunction,SMDPad,CuDef*
%ADD22R,1.295400X0.558800*%
G04 #@! TD*
G04 #@! TA.AperFunction,ComponentPad*
%ADD23O,1.700000X1.700000*%
G04 #@! TD*
G04 #@! TA.AperFunction,ViaPad*
%ADD24C,0.800000*%
G04 #@! TD*
G04 #@! TA.AperFunction,ViaPad*
%ADD25C,1.800000*%
G04 #@! TD*
G04 #@! TA.AperFunction,Conductor*
%ADD26C,0.250000*%
G04 #@! TD*
G04 #@! TA.AperFunction,Conductor*
%ADD27C,0.750000*%
G04 #@! TD*
G04 #@! TA.AperFunction,Conductor*
%ADD28C,0.450000*%
G04 #@! TD*
G04 APERTURE END LIST*
D10*
X50000000Y-30000000D02*
X50000000Y-150000000D01*
X230000000Y-30000000D02*
X50000000Y-30000000D01*
X230000000Y-150000000D02*
X230000000Y-30000000D01*
X50000000Y-150000000D02*
X230000000Y-150000000D01*
G04 #@! TA.AperFunction,SMDPad,CuDef*
D11*
G04 #@! TO.P,R338,2*
G04 #@! TO.N,/SDA*
G36*
X158612105Y-44186204D02*
G01*
X158636373Y-44189804D01*
X158660172Y-44195765D01*
X158683271Y-44204030D01*
X158705450Y-44214520D01*
X158726493Y-44227132D01*
X158746199Y-44241747D01*
X158764377Y-44258223D01*
X158780853Y-44276401D01*
X158795468Y-44296107D01*
X158808080Y-44317150D01*
X158818570Y-44339329D01*
X158826835Y-44362428D01*
X158832796Y-44386227D01*
X158836396Y-44410495D01*
X158837600Y-44434999D01*
X158837600Y-45460001D01*
X158836396Y-45484505D01*
X158832796Y-45508773D01*
X158826835Y-45532572D01*
X158818570Y-45555671D01*
X158808080Y-45577850D01*
X158795468Y-45598893D01*
X158780853Y-45618599D01*
X158764377Y-45636777D01*
X158746199Y-45653253D01*
X158726493Y-45667868D01*
X158705450Y-45680480D01*
X158683271Y-45690970D01*
X158660172Y-45699235D01*
X158636373Y-45705196D01*
X158612105Y-45708796D01*
X158587601Y-45710000D01*
X156437599Y-45710000D01*
X156413095Y-45708796D01*
X156388827Y-45705196D01*
X156365028Y-45699235D01*
X156341929Y-45690970D01*
X156319750Y-45680480D01*
X156298707Y-45667868D01*
X156279001Y-45653253D01*
X156260823Y-45636777D01*
X156244347Y-45618599D01*
X156229732Y-45598893D01*
X156217120Y-45577850D01*
X156206630Y-45555671D01*
X156198365Y-45532572D01*
X156192404Y-45508773D01*
X156188804Y-45484505D01*
X156187600Y-45460001D01*
X156187600Y-44434999D01*
X156188804Y-44410495D01*
X156192404Y-44386227D01*
X156198365Y-44362428D01*
X156206630Y-44339329D01*
X156217120Y-44317150D01*
X156229732Y-44296107D01*
X156244347Y-44276401D01*
X156260823Y-44258223D01*
X156279001Y-44241747D01*
X156298707Y-44227132D01*
X156319750Y-44214520D01*
X156341929Y-44204030D01*
X156365028Y-44195765D01*
X156388827Y-44189804D01*
X156413095Y-44186204D01*
X156437599Y-44185000D01*
X158587601Y-44185000D01*
X158612105Y-44186204D01*
G37*
G04 #@! TD.AperFunction*
G04 #@! TA.AperFunction,SMDPad,CuDef*
G04 #@! TO.P,R338,1*
G04 #@! TO.N,/COL8*
G36*
X158612105Y-48861204D02*
G01*
X158636373Y-48864804D01*
X158660172Y-48870765D01*
X158683271Y-48879030D01*
X158705450Y-48889520D01*
X158726493Y-48902132D01*
X158746199Y-48916747D01*
X158764377Y-48933223D01*
X158780853Y-48951401D01*
X158795468Y-48971107D01*
X158808080Y-48992150D01*
X158818570Y-49014329D01*
X158826835Y-49037428D01*
X158832796Y-49061227D01*
X158836396Y-49085495D01*
X158837600Y-49109999D01*
X158837600Y-50135001D01*
X158836396Y-50159505D01*
X158832796Y-50183773D01*
X158826835Y-50207572D01*
X158818570Y-50230671D01*
X158808080Y-50252850D01*
X158795468Y-50273893D01*
X158780853Y-50293599D01*
X158764377Y-50311777D01*
X158746199Y-50328253D01*
X158726493Y-50342868D01*
X158705450Y-50355480D01*
X158683271Y-50365970D01*
X158660172Y-50374235D01*
X158636373Y-50380196D01*
X158612105Y-50383796D01*
X158587601Y-50385000D01*
X156437599Y-50385000D01*
X156413095Y-50383796D01*
X156388827Y-50380196D01*
X156365028Y-50374235D01*
X156341929Y-50365970D01*
X156319750Y-50355480D01*
X156298707Y-50342868D01*
X156279001Y-50328253D01*
X156260823Y-50311777D01*
X156244347Y-50293599D01*
X156229732Y-50273893D01*
X156217120Y-50252850D01*
X156206630Y-50230671D01*
X156198365Y-50207572D01*
X156192404Y-50183773D01*
X156188804Y-50159505D01*
X156187600Y-50135001D01*
X156187600Y-49109999D01*
X156188804Y-49085495D01*
X156192404Y-49061227D01*
X156198365Y-49037428D01*
X156206630Y-49014329D01*
X156217120Y-48992150D01*
X156229732Y-48971107D01*
X156244347Y-48951401D01*
X156260823Y-48933223D01*
X156279001Y-48916747D01*
X156298707Y-48902132D01*
X156319750Y-48889520D01*
X156341929Y-48879030D01*
X156365028Y-48870765D01*
X156388827Y-48864804D01*
X156413095Y-48861204D01*
X156437599Y-48860000D01*
X158587601Y-48860000D01*
X158612105Y-48861204D01*
G37*
G04 #@! TD.AperFunction*
G04 #@! TD*
G04 #@! TA.AperFunction,SMDPad,CuDef*
G04 #@! TO.P,R337,2*
G04 #@! TO.N,/SCL*
G36*
X146612105Y-44186204D02*
G01*
X146636373Y-44189804D01*
X146660172Y-44195765D01*
X146683271Y-44204030D01*
X146705450Y-44214520D01*
X146726493Y-44227132D01*
X146746199Y-44241747D01*
X146764377Y-44258223D01*
X146780853Y-44276401D01*
X146795468Y-44296107D01*
X146808080Y-44317150D01*
X146818570Y-44339329D01*
X146826835Y-44362428D01*
X146832796Y-44386227D01*
X146836396Y-44410495D01*
X146837600Y-44434999D01*
X146837600Y-45460001D01*
X146836396Y-45484505D01*
X146832796Y-45508773D01*
X146826835Y-45532572D01*
X146818570Y-45555671D01*
X146808080Y-45577850D01*
X146795468Y-45598893D01*
X146780853Y-45618599D01*
X146764377Y-45636777D01*
X146746199Y-45653253D01*
X146726493Y-45667868D01*
X146705450Y-45680480D01*
X146683271Y-45690970D01*
X146660172Y-45699235D01*
X146636373Y-45705196D01*
X146612105Y-45708796D01*
X146587601Y-45710000D01*
X144437599Y-45710000D01*
X144413095Y-45708796D01*
X144388827Y-45705196D01*
X144365028Y-45699235D01*
X144341929Y-45690970D01*
X144319750Y-45680480D01*
X144298707Y-45667868D01*
X144279001Y-45653253D01*
X144260823Y-45636777D01*
X144244347Y-45618599D01*
X144229732Y-45598893D01*
X144217120Y-45577850D01*
X144206630Y-45555671D01*
X144198365Y-45532572D01*
X144192404Y-45508773D01*
X144188804Y-45484505D01*
X144187600Y-45460001D01*
X144187600Y-44434999D01*
X144188804Y-44410495D01*
X144192404Y-44386227D01*
X144198365Y-44362428D01*
X144206630Y-44339329D01*
X144217120Y-44317150D01*
X144229732Y-44296107D01*
X144244347Y-44276401D01*
X144260823Y-44258223D01*
X144279001Y-44241747D01*
X144298707Y-44227132D01*
X144319750Y-44214520D01*
X144341929Y-44204030D01*
X144365028Y-44195765D01*
X144388827Y-44189804D01*
X144413095Y-44186204D01*
X144437599Y-44185000D01*
X146587601Y-44185000D01*
X146612105Y-44186204D01*
G37*
G04 #@! TD.AperFunction*
G04 #@! TA.AperFunction,SMDPad,CuDef*
G04 #@! TO.P,R337,1*
G04 #@! TO.N,/COL7*
G36*
X146612105Y-48861204D02*
G01*
X146636373Y-48864804D01*
X146660172Y-48870765D01*
X146683271Y-48879030D01*
X146705450Y-48889520D01*
X146726493Y-48902132D01*
X146746199Y-48916747D01*
X146764377Y-48933223D01*
X146780853Y-48951401D01*
X146795468Y-48971107D01*
X146808080Y-48992150D01*
X146818570Y-49014329D01*
X146826835Y-49037428D01*
X146832796Y-49061227D01*
X146836396Y-49085495D01*
X146837600Y-49109999D01*
X146837600Y-50135001D01*
X146836396Y-50159505D01*
X146832796Y-50183773D01*
X146826835Y-50207572D01*
X146818570Y-50230671D01*
X146808080Y-50252850D01*
X146795468Y-50273893D01*
X146780853Y-50293599D01*
X146764377Y-50311777D01*
X146746199Y-50328253D01*
X146726493Y-50342868D01*
X146705450Y-50355480D01*
X146683271Y-50365970D01*
X146660172Y-50374235D01*
X146636373Y-50380196D01*
X146612105Y-50383796D01*
X146587601Y-50385000D01*
X144437599Y-50385000D01*
X144413095Y-50383796D01*
X144388827Y-50380196D01*
X144365028Y-50374235D01*
X144341929Y-50365970D01*
X144319750Y-50355480D01*
X144298707Y-50342868D01*
X144279001Y-50328253D01*
X144260823Y-50311777D01*
X144244347Y-50293599D01*
X144229732Y-50273893D01*
X144217120Y-50252850D01*
X144206630Y-50230671D01*
X144198365Y-50207572D01*
X144192404Y-50183773D01*
X144188804Y-50159505D01*
X144187600Y-50135001D01*
X144187600Y-49109999D01*
X144188804Y-49085495D01*
X144192404Y-49061227D01*
X144198365Y-49037428D01*
X144206630Y-49014329D01*
X144217120Y-48992150D01*
X144229732Y-48971107D01*
X144244347Y-48951401D01*
X144260823Y-48933223D01*
X144279001Y-48916747D01*
X144298707Y-48902132D01*
X144319750Y-48889520D01*
X144341929Y-48879030D01*
X144365028Y-48870765D01*
X144388827Y-48864804D01*
X144413095Y-48861204D01*
X144437599Y-48860000D01*
X146587601Y-48860000D01*
X146612105Y-48861204D01*
G37*
G04 #@! TD.AperFunction*
G04 #@! TD*
G04 #@! TA.AperFunction,SMDPad,CuDef*
G04 #@! TO.P,R336,2*
G04 #@! TO.N,/D5*
G36*
X134612105Y-44186204D02*
G01*
X134636373Y-44189804D01*
X134660172Y-44195765D01*
X134683271Y-44204030D01*
X134705450Y-44214520D01*
X134726493Y-44227132D01*
X134746199Y-44241747D01*
X134764377Y-44258223D01*
X134780853Y-44276401D01*
X134795468Y-44296107D01*
X134808080Y-44317150D01*
X134818570Y-44339329D01*
X134826835Y-44362428D01*
X134832796Y-44386227D01*
X134836396Y-44410495D01*
X134837600Y-44434999D01*
X134837600Y-45460001D01*
X134836396Y-45484505D01*
X134832796Y-45508773D01*
X134826835Y-45532572D01*
X134818570Y-45555671D01*
X134808080Y-45577850D01*
X134795468Y-45598893D01*
X134780853Y-45618599D01*
X134764377Y-45636777D01*
X134746199Y-45653253D01*
X134726493Y-45667868D01*
X134705450Y-45680480D01*
X134683271Y-45690970D01*
X134660172Y-45699235D01*
X134636373Y-45705196D01*
X134612105Y-45708796D01*
X134587601Y-45710000D01*
X132437599Y-45710000D01*
X132413095Y-45708796D01*
X132388827Y-45705196D01*
X132365028Y-45699235D01*
X132341929Y-45690970D01*
X132319750Y-45680480D01*
X132298707Y-45667868D01*
X132279001Y-45653253D01*
X132260823Y-45636777D01*
X132244347Y-45618599D01*
X132229732Y-45598893D01*
X132217120Y-45577850D01*
X132206630Y-45555671D01*
X132198365Y-45532572D01*
X132192404Y-45508773D01*
X132188804Y-45484505D01*
X132187600Y-45460001D01*
X132187600Y-44434999D01*
X132188804Y-44410495D01*
X132192404Y-44386227D01*
X132198365Y-44362428D01*
X132206630Y-44339329D01*
X132217120Y-44317150D01*
X132229732Y-44296107D01*
X132244347Y-44276401D01*
X132260823Y-44258223D01*
X132279001Y-44241747D01*
X132298707Y-44227132D01*
X132319750Y-44214520D01*
X132341929Y-44204030D01*
X132365028Y-44195765D01*
X132388827Y-44189804D01*
X132413095Y-44186204D01*
X132437599Y-44185000D01*
X134587601Y-44185000D01*
X134612105Y-44186204D01*
G37*
G04 #@! TD.AperFunction*
G04 #@! TA.AperFunction,SMDPad,CuDef*
G04 #@! TO.P,R336,1*
G04 #@! TO.N,/COL6*
G36*
X134612105Y-48861204D02*
G01*
X134636373Y-48864804D01*
X134660172Y-48870765D01*
X134683271Y-48879030D01*
X134705450Y-48889520D01*
X134726493Y-48902132D01*
X134746199Y-48916747D01*
X134764377Y-48933223D01*
X134780853Y-48951401D01*
X134795468Y-48971107D01*
X134808080Y-48992150D01*
X134818570Y-49014329D01*
X134826835Y-49037428D01*
X134832796Y-49061227D01*
X134836396Y-49085495D01*
X134837600Y-49109999D01*
X134837600Y-50135001D01*
X134836396Y-50159505D01*
X134832796Y-50183773D01*
X134826835Y-50207572D01*
X134818570Y-50230671D01*
X134808080Y-50252850D01*
X134795468Y-50273893D01*
X134780853Y-50293599D01*
X134764377Y-50311777D01*
X134746199Y-50328253D01*
X134726493Y-50342868D01*
X134705450Y-50355480D01*
X134683271Y-50365970D01*
X134660172Y-50374235D01*
X134636373Y-50380196D01*
X134612105Y-50383796D01*
X134587601Y-50385000D01*
X132437599Y-50385000D01*
X132413095Y-50383796D01*
X132388827Y-50380196D01*
X132365028Y-50374235D01*
X132341929Y-50365970D01*
X132319750Y-50355480D01*
X132298707Y-50342868D01*
X132279001Y-50328253D01*
X132260823Y-50311777D01*
X132244347Y-50293599D01*
X132229732Y-50273893D01*
X132217120Y-50252850D01*
X132206630Y-50230671D01*
X132198365Y-50207572D01*
X132192404Y-50183773D01*
X132188804Y-50159505D01*
X132187600Y-50135001D01*
X132187600Y-49109999D01*
X132188804Y-49085495D01*
X132192404Y-49061227D01*
X132198365Y-49037428D01*
X132206630Y-49014329D01*
X132217120Y-48992150D01*
X132229732Y-48971107D01*
X132244347Y-48951401D01*
X132260823Y-48933223D01*
X132279001Y-48916747D01*
X132298707Y-48902132D01*
X132319750Y-48889520D01*
X132341929Y-48879030D01*
X132365028Y-48870765D01*
X132388827Y-48864804D01*
X132413095Y-48861204D01*
X132437599Y-48860000D01*
X134587601Y-48860000D01*
X134612105Y-48861204D01*
G37*
G04 #@! TD.AperFunction*
G04 #@! TD*
G04 #@! TA.AperFunction,SMDPad,CuDef*
G04 #@! TO.P,R335,2*
G04 #@! TO.N,/D6*
G36*
X122612105Y-44186204D02*
G01*
X122636373Y-44189804D01*
X122660172Y-44195765D01*
X122683271Y-44204030D01*
X122705450Y-44214520D01*
X122726493Y-44227132D01*
X122746199Y-44241747D01*
X122764377Y-44258223D01*
X122780853Y-44276401D01*
X122795468Y-44296107D01*
X122808080Y-44317150D01*
X122818570Y-44339329D01*
X122826835Y-44362428D01*
X122832796Y-44386227D01*
X122836396Y-44410495D01*
X122837600Y-44434999D01*
X122837600Y-45460001D01*
X122836396Y-45484505D01*
X122832796Y-45508773D01*
X122826835Y-45532572D01*
X122818570Y-45555671D01*
X122808080Y-45577850D01*
X122795468Y-45598893D01*
X122780853Y-45618599D01*
X122764377Y-45636777D01*
X122746199Y-45653253D01*
X122726493Y-45667868D01*
X122705450Y-45680480D01*
X122683271Y-45690970D01*
X122660172Y-45699235D01*
X122636373Y-45705196D01*
X122612105Y-45708796D01*
X122587601Y-45710000D01*
X120437599Y-45710000D01*
X120413095Y-45708796D01*
X120388827Y-45705196D01*
X120365028Y-45699235D01*
X120341929Y-45690970D01*
X120319750Y-45680480D01*
X120298707Y-45667868D01*
X120279001Y-45653253D01*
X120260823Y-45636777D01*
X120244347Y-45618599D01*
X120229732Y-45598893D01*
X120217120Y-45577850D01*
X120206630Y-45555671D01*
X120198365Y-45532572D01*
X120192404Y-45508773D01*
X120188804Y-45484505D01*
X120187600Y-45460001D01*
X120187600Y-44434999D01*
X120188804Y-44410495D01*
X120192404Y-44386227D01*
X120198365Y-44362428D01*
X120206630Y-44339329D01*
X120217120Y-44317150D01*
X120229732Y-44296107D01*
X120244347Y-44276401D01*
X120260823Y-44258223D01*
X120279001Y-44241747D01*
X120298707Y-44227132D01*
X120319750Y-44214520D01*
X120341929Y-44204030D01*
X120365028Y-44195765D01*
X120388827Y-44189804D01*
X120413095Y-44186204D01*
X120437599Y-44185000D01*
X122587601Y-44185000D01*
X122612105Y-44186204D01*
G37*
G04 #@! TD.AperFunction*
G04 #@! TA.AperFunction,SMDPad,CuDef*
G04 #@! TO.P,R335,1*
G04 #@! TO.N,/COL5*
G36*
X122612105Y-48861204D02*
G01*
X122636373Y-48864804D01*
X122660172Y-48870765D01*
X122683271Y-48879030D01*
X122705450Y-48889520D01*
X122726493Y-48902132D01*
X122746199Y-48916747D01*
X122764377Y-48933223D01*
X122780853Y-48951401D01*
X122795468Y-48971107D01*
X122808080Y-48992150D01*
X122818570Y-49014329D01*
X122826835Y-49037428D01*
X122832796Y-49061227D01*
X122836396Y-49085495D01*
X122837600Y-49109999D01*
X122837600Y-50135001D01*
X122836396Y-50159505D01*
X122832796Y-50183773D01*
X122826835Y-50207572D01*
X122818570Y-50230671D01*
X122808080Y-50252850D01*
X122795468Y-50273893D01*
X122780853Y-50293599D01*
X122764377Y-50311777D01*
X122746199Y-50328253D01*
X122726493Y-50342868D01*
X122705450Y-50355480D01*
X122683271Y-50365970D01*
X122660172Y-50374235D01*
X122636373Y-50380196D01*
X122612105Y-50383796D01*
X122587601Y-50385000D01*
X120437599Y-50385000D01*
X120413095Y-50383796D01*
X120388827Y-50380196D01*
X120365028Y-50374235D01*
X120341929Y-50365970D01*
X120319750Y-50355480D01*
X120298707Y-50342868D01*
X120279001Y-50328253D01*
X120260823Y-50311777D01*
X120244347Y-50293599D01*
X120229732Y-50273893D01*
X120217120Y-50252850D01*
X120206630Y-50230671D01*
X120198365Y-50207572D01*
X120192404Y-50183773D01*
X120188804Y-50159505D01*
X120187600Y-50135001D01*
X120187600Y-49109999D01*
X120188804Y-49085495D01*
X120192404Y-49061227D01*
X120198365Y-49037428D01*
X120206630Y-49014329D01*
X120217120Y-48992150D01*
X120229732Y-48971107D01*
X120244347Y-48951401D01*
X120260823Y-48933223D01*
X120279001Y-48916747D01*
X120298707Y-48902132D01*
X120319750Y-48889520D01*
X120341929Y-48879030D01*
X120365028Y-48870765D01*
X120388827Y-48864804D01*
X120413095Y-48861204D01*
X120437599Y-48860000D01*
X122587601Y-48860000D01*
X122612105Y-48861204D01*
G37*
G04 #@! TD.AperFunction*
G04 #@! TD*
G04 #@! TA.AperFunction,SMDPad,CuDef*
G04 #@! TO.P,R334,2*
G04 #@! TO.N,/D9*
G36*
X110612105Y-44186204D02*
G01*
X110636373Y-44189804D01*
X110660172Y-44195765D01*
X110683271Y-44204030D01*
X110705450Y-44214520D01*
X110726493Y-44227132D01*
X110746199Y-44241747D01*
X110764377Y-44258223D01*
X110780853Y-44276401D01*
X110795468Y-44296107D01*
X110808080Y-44317150D01*
X110818570Y-44339329D01*
X110826835Y-44362428D01*
X110832796Y-44386227D01*
X110836396Y-44410495D01*
X110837600Y-44434999D01*
X110837600Y-45460001D01*
X110836396Y-45484505D01*
X110832796Y-45508773D01*
X110826835Y-45532572D01*
X110818570Y-45555671D01*
X110808080Y-45577850D01*
X110795468Y-45598893D01*
X110780853Y-45618599D01*
X110764377Y-45636777D01*
X110746199Y-45653253D01*
X110726493Y-45667868D01*
X110705450Y-45680480D01*
X110683271Y-45690970D01*
X110660172Y-45699235D01*
X110636373Y-45705196D01*
X110612105Y-45708796D01*
X110587601Y-45710000D01*
X108437599Y-45710000D01*
X108413095Y-45708796D01*
X108388827Y-45705196D01*
X108365028Y-45699235D01*
X108341929Y-45690970D01*
X108319750Y-45680480D01*
X108298707Y-45667868D01*
X108279001Y-45653253D01*
X108260823Y-45636777D01*
X108244347Y-45618599D01*
X108229732Y-45598893D01*
X108217120Y-45577850D01*
X108206630Y-45555671D01*
X108198365Y-45532572D01*
X108192404Y-45508773D01*
X108188804Y-45484505D01*
X108187600Y-45460001D01*
X108187600Y-44434999D01*
X108188804Y-44410495D01*
X108192404Y-44386227D01*
X108198365Y-44362428D01*
X108206630Y-44339329D01*
X108217120Y-44317150D01*
X108229732Y-44296107D01*
X108244347Y-44276401D01*
X108260823Y-44258223D01*
X108279001Y-44241747D01*
X108298707Y-44227132D01*
X108319750Y-44214520D01*
X108341929Y-44204030D01*
X108365028Y-44195765D01*
X108388827Y-44189804D01*
X108413095Y-44186204D01*
X108437599Y-44185000D01*
X110587601Y-44185000D01*
X110612105Y-44186204D01*
G37*
G04 #@! TD.AperFunction*
G04 #@! TA.AperFunction,SMDPad,CuDef*
G04 #@! TO.P,R334,1*
G04 #@! TO.N,/COL4*
G36*
X110612105Y-48861204D02*
G01*
X110636373Y-48864804D01*
X110660172Y-48870765D01*
X110683271Y-48879030D01*
X110705450Y-48889520D01*
X110726493Y-48902132D01*
X110746199Y-48916747D01*
X110764377Y-48933223D01*
X110780853Y-48951401D01*
X110795468Y-48971107D01*
X110808080Y-48992150D01*
X110818570Y-49014329D01*
X110826835Y-49037428D01*
X110832796Y-49061227D01*
X110836396Y-49085495D01*
X110837600Y-49109999D01*
X110837600Y-50135001D01*
X110836396Y-50159505D01*
X110832796Y-50183773D01*
X110826835Y-50207572D01*
X110818570Y-50230671D01*
X110808080Y-50252850D01*
X110795468Y-50273893D01*
X110780853Y-50293599D01*
X110764377Y-50311777D01*
X110746199Y-50328253D01*
X110726493Y-50342868D01*
X110705450Y-50355480D01*
X110683271Y-50365970D01*
X110660172Y-50374235D01*
X110636373Y-50380196D01*
X110612105Y-50383796D01*
X110587601Y-50385000D01*
X108437599Y-50385000D01*
X108413095Y-50383796D01*
X108388827Y-50380196D01*
X108365028Y-50374235D01*
X108341929Y-50365970D01*
X108319750Y-50355480D01*
X108298707Y-50342868D01*
X108279001Y-50328253D01*
X108260823Y-50311777D01*
X108244347Y-50293599D01*
X108229732Y-50273893D01*
X108217120Y-50252850D01*
X108206630Y-50230671D01*
X108198365Y-50207572D01*
X108192404Y-50183773D01*
X108188804Y-50159505D01*
X108187600Y-50135001D01*
X108187600Y-49109999D01*
X108188804Y-49085495D01*
X108192404Y-49061227D01*
X108198365Y-49037428D01*
X108206630Y-49014329D01*
X108217120Y-48992150D01*
X108229732Y-48971107D01*
X108244347Y-48951401D01*
X108260823Y-48933223D01*
X108279001Y-48916747D01*
X108298707Y-48902132D01*
X108319750Y-48889520D01*
X108341929Y-48879030D01*
X108365028Y-48870765D01*
X108388827Y-48864804D01*
X108413095Y-48861204D01*
X108437599Y-48860000D01*
X110587601Y-48860000D01*
X110612105Y-48861204D01*
G37*
G04 #@! TD.AperFunction*
G04 #@! TD*
G04 #@! TA.AperFunction,SMDPad,CuDef*
G04 #@! TO.P,R333,2*
G04 #@! TO.N,/D10*
G36*
X98612105Y-44186204D02*
G01*
X98636373Y-44189804D01*
X98660172Y-44195765D01*
X98683271Y-44204030D01*
X98705450Y-44214520D01*
X98726493Y-44227132D01*
X98746199Y-44241747D01*
X98764377Y-44258223D01*
X98780853Y-44276401D01*
X98795468Y-44296107D01*
X98808080Y-44317150D01*
X98818570Y-44339329D01*
X98826835Y-44362428D01*
X98832796Y-44386227D01*
X98836396Y-44410495D01*
X98837600Y-44434999D01*
X98837600Y-45460001D01*
X98836396Y-45484505D01*
X98832796Y-45508773D01*
X98826835Y-45532572D01*
X98818570Y-45555671D01*
X98808080Y-45577850D01*
X98795468Y-45598893D01*
X98780853Y-45618599D01*
X98764377Y-45636777D01*
X98746199Y-45653253D01*
X98726493Y-45667868D01*
X98705450Y-45680480D01*
X98683271Y-45690970D01*
X98660172Y-45699235D01*
X98636373Y-45705196D01*
X98612105Y-45708796D01*
X98587601Y-45710000D01*
X96437599Y-45710000D01*
X96413095Y-45708796D01*
X96388827Y-45705196D01*
X96365028Y-45699235D01*
X96341929Y-45690970D01*
X96319750Y-45680480D01*
X96298707Y-45667868D01*
X96279001Y-45653253D01*
X96260823Y-45636777D01*
X96244347Y-45618599D01*
X96229732Y-45598893D01*
X96217120Y-45577850D01*
X96206630Y-45555671D01*
X96198365Y-45532572D01*
X96192404Y-45508773D01*
X96188804Y-45484505D01*
X96187600Y-45460001D01*
X96187600Y-44434999D01*
X96188804Y-44410495D01*
X96192404Y-44386227D01*
X96198365Y-44362428D01*
X96206630Y-44339329D01*
X96217120Y-44317150D01*
X96229732Y-44296107D01*
X96244347Y-44276401D01*
X96260823Y-44258223D01*
X96279001Y-44241747D01*
X96298707Y-44227132D01*
X96319750Y-44214520D01*
X96341929Y-44204030D01*
X96365028Y-44195765D01*
X96388827Y-44189804D01*
X96413095Y-44186204D01*
X96437599Y-44185000D01*
X98587601Y-44185000D01*
X98612105Y-44186204D01*
G37*
G04 #@! TD.AperFunction*
G04 #@! TA.AperFunction,SMDPad,CuDef*
G04 #@! TO.P,R333,1*
G04 #@! TO.N,/COL3*
G36*
X98612105Y-48861204D02*
G01*
X98636373Y-48864804D01*
X98660172Y-48870765D01*
X98683271Y-48879030D01*
X98705450Y-48889520D01*
X98726493Y-48902132D01*
X98746199Y-48916747D01*
X98764377Y-48933223D01*
X98780853Y-48951401D01*
X98795468Y-48971107D01*
X98808080Y-48992150D01*
X98818570Y-49014329D01*
X98826835Y-49037428D01*
X98832796Y-49061227D01*
X98836396Y-49085495D01*
X98837600Y-49109999D01*
X98837600Y-50135001D01*
X98836396Y-50159505D01*
X98832796Y-50183773D01*
X98826835Y-50207572D01*
X98818570Y-50230671D01*
X98808080Y-50252850D01*
X98795468Y-50273893D01*
X98780853Y-50293599D01*
X98764377Y-50311777D01*
X98746199Y-50328253D01*
X98726493Y-50342868D01*
X98705450Y-50355480D01*
X98683271Y-50365970D01*
X98660172Y-50374235D01*
X98636373Y-50380196D01*
X98612105Y-50383796D01*
X98587601Y-50385000D01*
X96437599Y-50385000D01*
X96413095Y-50383796D01*
X96388827Y-50380196D01*
X96365028Y-50374235D01*
X96341929Y-50365970D01*
X96319750Y-50355480D01*
X96298707Y-50342868D01*
X96279001Y-50328253D01*
X96260823Y-50311777D01*
X96244347Y-50293599D01*
X96229732Y-50273893D01*
X96217120Y-50252850D01*
X96206630Y-50230671D01*
X96198365Y-50207572D01*
X96192404Y-50183773D01*
X96188804Y-50159505D01*
X96187600Y-50135001D01*
X96187600Y-49109999D01*
X96188804Y-49085495D01*
X96192404Y-49061227D01*
X96198365Y-49037428D01*
X96206630Y-49014329D01*
X96217120Y-48992150D01*
X96229732Y-48971107D01*
X96244347Y-48951401D01*
X96260823Y-48933223D01*
X96279001Y-48916747D01*
X96298707Y-48902132D01*
X96319750Y-48889520D01*
X96341929Y-48879030D01*
X96365028Y-48870765D01*
X96388827Y-48864804D01*
X96413095Y-48861204D01*
X96437599Y-48860000D01*
X98587601Y-48860000D01*
X98612105Y-48861204D01*
G37*
G04 #@! TD.AperFunction*
G04 #@! TD*
G04 #@! TA.AperFunction,SMDPad,CuDef*
G04 #@! TO.P,R332,2*
G04 #@! TO.N,/D11*
G36*
X86612105Y-44186204D02*
G01*
X86636373Y-44189804D01*
X86660172Y-44195765D01*
X86683271Y-44204030D01*
X86705450Y-44214520D01*
X86726493Y-44227132D01*
X86746199Y-44241747D01*
X86764377Y-44258223D01*
X86780853Y-44276401D01*
X86795468Y-44296107D01*
X86808080Y-44317150D01*
X86818570Y-44339329D01*
X86826835Y-44362428D01*
X86832796Y-44386227D01*
X86836396Y-44410495D01*
X86837600Y-44434999D01*
X86837600Y-45460001D01*
X86836396Y-45484505D01*
X86832796Y-45508773D01*
X86826835Y-45532572D01*
X86818570Y-45555671D01*
X86808080Y-45577850D01*
X86795468Y-45598893D01*
X86780853Y-45618599D01*
X86764377Y-45636777D01*
X86746199Y-45653253D01*
X86726493Y-45667868D01*
X86705450Y-45680480D01*
X86683271Y-45690970D01*
X86660172Y-45699235D01*
X86636373Y-45705196D01*
X86612105Y-45708796D01*
X86587601Y-45710000D01*
X84437599Y-45710000D01*
X84413095Y-45708796D01*
X84388827Y-45705196D01*
X84365028Y-45699235D01*
X84341929Y-45690970D01*
X84319750Y-45680480D01*
X84298707Y-45667868D01*
X84279001Y-45653253D01*
X84260823Y-45636777D01*
X84244347Y-45618599D01*
X84229732Y-45598893D01*
X84217120Y-45577850D01*
X84206630Y-45555671D01*
X84198365Y-45532572D01*
X84192404Y-45508773D01*
X84188804Y-45484505D01*
X84187600Y-45460001D01*
X84187600Y-44434999D01*
X84188804Y-44410495D01*
X84192404Y-44386227D01*
X84198365Y-44362428D01*
X84206630Y-44339329D01*
X84217120Y-44317150D01*
X84229732Y-44296107D01*
X84244347Y-44276401D01*
X84260823Y-44258223D01*
X84279001Y-44241747D01*
X84298707Y-44227132D01*
X84319750Y-44214520D01*
X84341929Y-44204030D01*
X84365028Y-44195765D01*
X84388827Y-44189804D01*
X84413095Y-44186204D01*
X84437599Y-44185000D01*
X86587601Y-44185000D01*
X86612105Y-44186204D01*
G37*
G04 #@! TD.AperFunction*
G04 #@! TA.AperFunction,SMDPad,CuDef*
G04 #@! TO.P,R332,1*
G04 #@! TO.N,/COL2*
G36*
X86612105Y-48861204D02*
G01*
X86636373Y-48864804D01*
X86660172Y-48870765D01*
X86683271Y-48879030D01*
X86705450Y-48889520D01*
X86726493Y-48902132D01*
X86746199Y-48916747D01*
X86764377Y-48933223D01*
X86780853Y-48951401D01*
X86795468Y-48971107D01*
X86808080Y-48992150D01*
X86818570Y-49014329D01*
X86826835Y-49037428D01*
X86832796Y-49061227D01*
X86836396Y-49085495D01*
X86837600Y-49109999D01*
X86837600Y-50135001D01*
X86836396Y-50159505D01*
X86832796Y-50183773D01*
X86826835Y-50207572D01*
X86818570Y-50230671D01*
X86808080Y-50252850D01*
X86795468Y-50273893D01*
X86780853Y-50293599D01*
X86764377Y-50311777D01*
X86746199Y-50328253D01*
X86726493Y-50342868D01*
X86705450Y-50355480D01*
X86683271Y-50365970D01*
X86660172Y-50374235D01*
X86636373Y-50380196D01*
X86612105Y-50383796D01*
X86587601Y-50385000D01*
X84437599Y-50385000D01*
X84413095Y-50383796D01*
X84388827Y-50380196D01*
X84365028Y-50374235D01*
X84341929Y-50365970D01*
X84319750Y-50355480D01*
X84298707Y-50342868D01*
X84279001Y-50328253D01*
X84260823Y-50311777D01*
X84244347Y-50293599D01*
X84229732Y-50273893D01*
X84217120Y-50252850D01*
X84206630Y-50230671D01*
X84198365Y-50207572D01*
X84192404Y-50183773D01*
X84188804Y-50159505D01*
X84187600Y-50135001D01*
X84187600Y-49109999D01*
X84188804Y-49085495D01*
X84192404Y-49061227D01*
X84198365Y-49037428D01*
X84206630Y-49014329D01*
X84217120Y-48992150D01*
X84229732Y-48971107D01*
X84244347Y-48951401D01*
X84260823Y-48933223D01*
X84279001Y-48916747D01*
X84298707Y-48902132D01*
X84319750Y-48889520D01*
X84341929Y-48879030D01*
X84365028Y-48870765D01*
X84388827Y-48864804D01*
X84413095Y-48861204D01*
X84437599Y-48860000D01*
X86587601Y-48860000D01*
X86612105Y-48861204D01*
G37*
G04 #@! TD.AperFunction*
G04 #@! TD*
G04 #@! TA.AperFunction,SMDPad,CuDef*
G04 #@! TO.P,R331,2*
G04 #@! TO.N,/D12*
G36*
X74612105Y-44186204D02*
G01*
X74636373Y-44189804D01*
X74660172Y-44195765D01*
X74683271Y-44204030D01*
X74705450Y-44214520D01*
X74726493Y-44227132D01*
X74746199Y-44241747D01*
X74764377Y-44258223D01*
X74780853Y-44276401D01*
X74795468Y-44296107D01*
X74808080Y-44317150D01*
X74818570Y-44339329D01*
X74826835Y-44362428D01*
X74832796Y-44386227D01*
X74836396Y-44410495D01*
X74837600Y-44434999D01*
X74837600Y-45460001D01*
X74836396Y-45484505D01*
X74832796Y-45508773D01*
X74826835Y-45532572D01*
X74818570Y-45555671D01*
X74808080Y-45577850D01*
X74795468Y-45598893D01*
X74780853Y-45618599D01*
X74764377Y-45636777D01*
X74746199Y-45653253D01*
X74726493Y-45667868D01*
X74705450Y-45680480D01*
X74683271Y-45690970D01*
X74660172Y-45699235D01*
X74636373Y-45705196D01*
X74612105Y-45708796D01*
X74587601Y-45710000D01*
X72437599Y-45710000D01*
X72413095Y-45708796D01*
X72388827Y-45705196D01*
X72365028Y-45699235D01*
X72341929Y-45690970D01*
X72319750Y-45680480D01*
X72298707Y-45667868D01*
X72279001Y-45653253D01*
X72260823Y-45636777D01*
X72244347Y-45618599D01*
X72229732Y-45598893D01*
X72217120Y-45577850D01*
X72206630Y-45555671D01*
X72198365Y-45532572D01*
X72192404Y-45508773D01*
X72188804Y-45484505D01*
X72187600Y-45460001D01*
X72187600Y-44434999D01*
X72188804Y-44410495D01*
X72192404Y-44386227D01*
X72198365Y-44362428D01*
X72206630Y-44339329D01*
X72217120Y-44317150D01*
X72229732Y-44296107D01*
X72244347Y-44276401D01*
X72260823Y-44258223D01*
X72279001Y-44241747D01*
X72298707Y-44227132D01*
X72319750Y-44214520D01*
X72341929Y-44204030D01*
X72365028Y-44195765D01*
X72388827Y-44189804D01*
X72413095Y-44186204D01*
X72437599Y-44185000D01*
X74587601Y-44185000D01*
X74612105Y-44186204D01*
G37*
G04 #@! TD.AperFunction*
G04 #@! TA.AperFunction,SMDPad,CuDef*
G04 #@! TO.P,R331,1*
G04 #@! TO.N,/COL1*
G36*
X74612105Y-48861204D02*
G01*
X74636373Y-48864804D01*
X74660172Y-48870765D01*
X74683271Y-48879030D01*
X74705450Y-48889520D01*
X74726493Y-48902132D01*
X74746199Y-48916747D01*
X74764377Y-48933223D01*
X74780853Y-48951401D01*
X74795468Y-48971107D01*
X74808080Y-48992150D01*
X74818570Y-49014329D01*
X74826835Y-49037428D01*
X74832796Y-49061227D01*
X74836396Y-49085495D01*
X74837600Y-49109999D01*
X74837600Y-50135001D01*
X74836396Y-50159505D01*
X74832796Y-50183773D01*
X74826835Y-50207572D01*
X74818570Y-50230671D01*
X74808080Y-50252850D01*
X74795468Y-50273893D01*
X74780853Y-50293599D01*
X74764377Y-50311777D01*
X74746199Y-50328253D01*
X74726493Y-50342868D01*
X74705450Y-50355480D01*
X74683271Y-50365970D01*
X74660172Y-50374235D01*
X74636373Y-50380196D01*
X74612105Y-50383796D01*
X74587601Y-50385000D01*
X72437599Y-50385000D01*
X72413095Y-50383796D01*
X72388827Y-50380196D01*
X72365028Y-50374235D01*
X72341929Y-50365970D01*
X72319750Y-50355480D01*
X72298707Y-50342868D01*
X72279001Y-50328253D01*
X72260823Y-50311777D01*
X72244347Y-50293599D01*
X72229732Y-50273893D01*
X72217120Y-50252850D01*
X72206630Y-50230671D01*
X72198365Y-50207572D01*
X72192404Y-50183773D01*
X72188804Y-50159505D01*
X72187600Y-50135001D01*
X72187600Y-49109999D01*
X72188804Y-49085495D01*
X72192404Y-49061227D01*
X72198365Y-49037428D01*
X72206630Y-49014329D01*
X72217120Y-48992150D01*
X72229732Y-48971107D01*
X72244347Y-48951401D01*
X72260823Y-48933223D01*
X72279001Y-48916747D01*
X72298707Y-48902132D01*
X72319750Y-48889520D01*
X72341929Y-48879030D01*
X72365028Y-48870765D01*
X72388827Y-48864804D01*
X72413095Y-48861204D01*
X72437599Y-48860000D01*
X74587601Y-48860000D01*
X74612105Y-48861204D01*
G37*
G04 #@! TD.AperFunction*
G04 #@! TD*
G04 #@! TA.AperFunction,SMDPad,CuDef*
G04 #@! TO.P,R330,2*
G04 #@! TO.N,/D13*
G36*
X62612105Y-44186204D02*
G01*
X62636373Y-44189804D01*
X62660172Y-44195765D01*
X62683271Y-44204030D01*
X62705450Y-44214520D01*
X62726493Y-44227132D01*
X62746199Y-44241747D01*
X62764377Y-44258223D01*
X62780853Y-44276401D01*
X62795468Y-44296107D01*
X62808080Y-44317150D01*
X62818570Y-44339329D01*
X62826835Y-44362428D01*
X62832796Y-44386227D01*
X62836396Y-44410495D01*
X62837600Y-44434999D01*
X62837600Y-45460001D01*
X62836396Y-45484505D01*
X62832796Y-45508773D01*
X62826835Y-45532572D01*
X62818570Y-45555671D01*
X62808080Y-45577850D01*
X62795468Y-45598893D01*
X62780853Y-45618599D01*
X62764377Y-45636777D01*
X62746199Y-45653253D01*
X62726493Y-45667868D01*
X62705450Y-45680480D01*
X62683271Y-45690970D01*
X62660172Y-45699235D01*
X62636373Y-45705196D01*
X62612105Y-45708796D01*
X62587601Y-45710000D01*
X60437599Y-45710000D01*
X60413095Y-45708796D01*
X60388827Y-45705196D01*
X60365028Y-45699235D01*
X60341929Y-45690970D01*
X60319750Y-45680480D01*
X60298707Y-45667868D01*
X60279001Y-45653253D01*
X60260823Y-45636777D01*
X60244347Y-45618599D01*
X60229732Y-45598893D01*
X60217120Y-45577850D01*
X60206630Y-45555671D01*
X60198365Y-45532572D01*
X60192404Y-45508773D01*
X60188804Y-45484505D01*
X60187600Y-45460001D01*
X60187600Y-44434999D01*
X60188804Y-44410495D01*
X60192404Y-44386227D01*
X60198365Y-44362428D01*
X60206630Y-44339329D01*
X60217120Y-44317150D01*
X60229732Y-44296107D01*
X60244347Y-44276401D01*
X60260823Y-44258223D01*
X60279001Y-44241747D01*
X60298707Y-44227132D01*
X60319750Y-44214520D01*
X60341929Y-44204030D01*
X60365028Y-44195765D01*
X60388827Y-44189804D01*
X60413095Y-44186204D01*
X60437599Y-44185000D01*
X62587601Y-44185000D01*
X62612105Y-44186204D01*
G37*
G04 #@! TD.AperFunction*
G04 #@! TA.AperFunction,SMDPad,CuDef*
G04 #@! TO.P,R330,1*
G04 #@! TO.N,/COL0*
G36*
X62612105Y-48861204D02*
G01*
X62636373Y-48864804D01*
X62660172Y-48870765D01*
X62683271Y-48879030D01*
X62705450Y-48889520D01*
X62726493Y-48902132D01*
X62746199Y-48916747D01*
X62764377Y-48933223D01*
X62780853Y-48951401D01*
X62795468Y-48971107D01*
X62808080Y-48992150D01*
X62818570Y-49014329D01*
X62826835Y-49037428D01*
X62832796Y-49061227D01*
X62836396Y-49085495D01*
X62837600Y-49109999D01*
X62837600Y-50135001D01*
X62836396Y-50159505D01*
X62832796Y-50183773D01*
X62826835Y-50207572D01*
X62818570Y-50230671D01*
X62808080Y-50252850D01*
X62795468Y-50273893D01*
X62780853Y-50293599D01*
X62764377Y-50311777D01*
X62746199Y-50328253D01*
X62726493Y-50342868D01*
X62705450Y-50355480D01*
X62683271Y-50365970D01*
X62660172Y-50374235D01*
X62636373Y-50380196D01*
X62612105Y-50383796D01*
X62587601Y-50385000D01*
X60437599Y-50385000D01*
X60413095Y-50383796D01*
X60388827Y-50380196D01*
X60365028Y-50374235D01*
X60341929Y-50365970D01*
X60319750Y-50355480D01*
X60298707Y-50342868D01*
X60279001Y-50328253D01*
X60260823Y-50311777D01*
X60244347Y-50293599D01*
X60229732Y-50273893D01*
X60217120Y-50252850D01*
X60206630Y-50230671D01*
X60198365Y-50207572D01*
X60192404Y-50183773D01*
X60188804Y-50159505D01*
X60187600Y-50135001D01*
X60187600Y-49109999D01*
X60188804Y-49085495D01*
X60192404Y-49061227D01*
X60198365Y-49037428D01*
X60206630Y-49014329D01*
X60217120Y-48992150D01*
X60229732Y-48971107D01*
X60244347Y-48951401D01*
X60260823Y-48933223D01*
X60279001Y-48916747D01*
X60298707Y-48902132D01*
X60319750Y-48889520D01*
X60341929Y-48879030D01*
X60365028Y-48870765D01*
X60388827Y-48864804D01*
X60413095Y-48861204D01*
X60437599Y-48860000D01*
X62587601Y-48860000D01*
X62612105Y-48861204D01*
G37*
G04 #@! TD.AperFunction*
G04 #@! TD*
D12*
G04 #@! TO.P,LED7_8,2*
G04 #@! TO.N,/MOSI*
X162592600Y-135285000D03*
D13*
G04 #@! TO.P,LED7_8,1*
G04 #@! TO.N,/COL8*
X157512600Y-135285000D03*
G04 #@! TD*
D12*
G04 #@! TO.P,LED7_7,2*
G04 #@! TO.N,/MOSI*
X150592600Y-135285000D03*
D13*
G04 #@! TO.P,LED7_7,1*
G04 #@! TO.N,/COL7*
X145512600Y-135285000D03*
G04 #@! TD*
D12*
G04 #@! TO.P,LED7_6,2*
G04 #@! TO.N,/MOSI*
X138592600Y-135285000D03*
D13*
G04 #@! TO.P,LED7_6,1*
G04 #@! TO.N,/COL6*
X133512600Y-135285000D03*
G04 #@! TD*
D12*
G04 #@! TO.P,LED7_5,2*
G04 #@! TO.N,/MOSI*
X126592600Y-135285000D03*
D13*
G04 #@! TO.P,LED7_5,1*
G04 #@! TO.N,/COL5*
X121512600Y-135285000D03*
G04 #@! TD*
D12*
G04 #@! TO.P,LED7_4,2*
G04 #@! TO.N,/MOSI*
X114592600Y-135285000D03*
D13*
G04 #@! TO.P,LED7_4,1*
G04 #@! TO.N,/COL4*
X109512600Y-135285000D03*
G04 #@! TD*
D12*
G04 #@! TO.P,LED7_3,2*
G04 #@! TO.N,/MOSI*
X102592600Y-135285000D03*
D13*
G04 #@! TO.P,LED7_3,1*
G04 #@! TO.N,/COL3*
X97512600Y-135285000D03*
G04 #@! TD*
D12*
G04 #@! TO.P,LED7_2,2*
G04 #@! TO.N,/MOSI*
X90592600Y-135285000D03*
D13*
G04 #@! TO.P,LED7_2,1*
G04 #@! TO.N,/COL2*
X85512600Y-135285000D03*
G04 #@! TD*
D12*
G04 #@! TO.P,LED7_1,2*
G04 #@! TO.N,/MOSI*
X78592600Y-135285000D03*
D13*
G04 #@! TO.P,LED7_1,1*
G04 #@! TO.N,/COL1*
X73512600Y-135285000D03*
G04 #@! TD*
D12*
G04 #@! TO.P,LED7_0,2*
G04 #@! TO.N,/MOSI*
X66592600Y-135285000D03*
D13*
G04 #@! TO.P,LED7_0,1*
G04 #@! TO.N,/COL0*
X61512600Y-135285000D03*
G04 #@! TD*
D12*
G04 #@! TO.P,LED6_8,2*
G04 #@! TO.N,/ROW6*
X162592600Y-124285000D03*
D13*
G04 #@! TO.P,LED6_8,1*
G04 #@! TO.N,/COL8*
X157512600Y-124285000D03*
G04 #@! TD*
D12*
G04 #@! TO.P,LED6_7,2*
G04 #@! TO.N,/ROW6*
X150592600Y-124285000D03*
D13*
G04 #@! TO.P,LED6_7,1*
G04 #@! TO.N,/COL7*
X145512600Y-124285000D03*
G04 #@! TD*
D12*
G04 #@! TO.P,LED6_6,2*
G04 #@! TO.N,/ROW6*
X138592600Y-124285000D03*
D13*
G04 #@! TO.P,LED6_6,1*
G04 #@! TO.N,/COL6*
X133512600Y-124285000D03*
G04 #@! TD*
D12*
G04 #@! TO.P,LED6_5,2*
G04 #@! TO.N,/ROW6*
X126592600Y-124285000D03*
D13*
G04 #@! TO.P,LED6_5,1*
G04 #@! TO.N,/COL5*
X121512600Y-124285000D03*
G04 #@! TD*
D12*
G04 #@! TO.P,LED6_4,2*
G04 #@! TO.N,/ROW6*
X114592600Y-124285000D03*
D13*
G04 #@! TO.P,LED6_4,1*
G04 #@! TO.N,/COL4*
X109512600Y-124285000D03*
G04 #@! TD*
D12*
G04 #@! TO.P,LED6_3,2*
G04 #@! TO.N,/ROW6*
X102592600Y-124285000D03*
D13*
G04 #@! TO.P,LED6_3,1*
G04 #@! TO.N,/COL3*
X97512600Y-124285000D03*
G04 #@! TD*
D12*
G04 #@! TO.P,LED6_2,2*
G04 #@! TO.N,/ROW6*
X90592600Y-124285000D03*
D13*
G04 #@! TO.P,LED6_2,1*
G04 #@! TO.N,/COL2*
X85512600Y-124285000D03*
G04 #@! TD*
D12*
G04 #@! TO.P,LED6_1,2*
G04 #@! TO.N,/ROW6*
X78592600Y-124285000D03*
D13*
G04 #@! TO.P,LED6_1,1*
G04 #@! TO.N,/COL1*
X73512600Y-124285000D03*
G04 #@! TD*
D12*
G04 #@! TO.P,LED6_0,2*
G04 #@! TO.N,/ROW6*
X66592600Y-124285000D03*
D13*
G04 #@! TO.P,LED6_0,1*
G04 #@! TO.N,/COL0*
X61512600Y-124285000D03*
G04 #@! TD*
D12*
G04 #@! TO.P,LED5_8,2*
G04 #@! TO.N,/A5*
X162592600Y-113285000D03*
D13*
G04 #@! TO.P,LED5_8,1*
G04 #@! TO.N,/COL8*
X157512600Y-113285000D03*
G04 #@! TD*
D12*
G04 #@! TO.P,LED5_7,2*
G04 #@! TO.N,/A5*
X150592600Y-113285000D03*
D13*
G04 #@! TO.P,LED5_7,1*
G04 #@! TO.N,/COL7*
X145512600Y-113285000D03*
G04 #@! TD*
D12*
G04 #@! TO.P,LED5_6,2*
G04 #@! TO.N,/A5*
X138592600Y-113285000D03*
D13*
G04 #@! TO.P,LED5_6,1*
G04 #@! TO.N,/COL6*
X133512600Y-113285000D03*
G04 #@! TD*
D12*
G04 #@! TO.P,LED5_5,2*
G04 #@! TO.N,/A5*
X126592600Y-113285000D03*
D13*
G04 #@! TO.P,LED5_5,1*
G04 #@! TO.N,/COL5*
X121512600Y-113285000D03*
G04 #@! TD*
D12*
G04 #@! TO.P,LED5_4,2*
G04 #@! TO.N,/A5*
X114592600Y-113285000D03*
D13*
G04 #@! TO.P,LED5_4,1*
G04 #@! TO.N,/COL4*
X109512600Y-113285000D03*
G04 #@! TD*
D12*
G04 #@! TO.P,LED5_3,2*
G04 #@! TO.N,/A5*
X102592600Y-113285000D03*
D13*
G04 #@! TO.P,LED5_3,1*
G04 #@! TO.N,/COL3*
X97512600Y-113285000D03*
G04 #@! TD*
D12*
G04 #@! TO.P,LED5_2,2*
G04 #@! TO.N,/A5*
X90592600Y-113285000D03*
D13*
G04 #@! TO.P,LED5_2,1*
G04 #@! TO.N,/COL2*
X85512600Y-113285000D03*
G04 #@! TD*
D12*
G04 #@! TO.P,LED5_1,2*
G04 #@! TO.N,/A5*
X78592600Y-113285000D03*
D13*
G04 #@! TO.P,LED5_1,1*
G04 #@! TO.N,/COL1*
X73512600Y-113285000D03*
G04 #@! TD*
D12*
G04 #@! TO.P,LED5_0,2*
G04 #@! TO.N,/A5*
X66592600Y-113285000D03*
D13*
G04 #@! TO.P,LED5_0,1*
G04 #@! TO.N,/COL0*
X61512600Y-113285000D03*
G04 #@! TD*
D12*
G04 #@! TO.P,LED4_8,2*
G04 #@! TO.N,/A4*
X162592600Y-102285000D03*
D13*
G04 #@! TO.P,LED4_8,1*
G04 #@! TO.N,/COL8*
X157512600Y-102285000D03*
G04 #@! TD*
D12*
G04 #@! TO.P,LED4_7,2*
G04 #@! TO.N,/A4*
X150592600Y-102285000D03*
D13*
G04 #@! TO.P,LED4_7,1*
G04 #@! TO.N,/COL7*
X145512600Y-102285000D03*
G04 #@! TD*
D12*
G04 #@! TO.P,LED4_6,2*
G04 #@! TO.N,/A4*
X138592600Y-102285000D03*
D13*
G04 #@! TO.P,LED4_6,1*
G04 #@! TO.N,/COL6*
X133512600Y-102285000D03*
G04 #@! TD*
D12*
G04 #@! TO.P,LED4_5,2*
G04 #@! TO.N,/A4*
X126592600Y-102285000D03*
D13*
G04 #@! TO.P,LED4_5,1*
G04 #@! TO.N,/COL5*
X121512600Y-102285000D03*
G04 #@! TD*
D12*
G04 #@! TO.P,LED4_4,2*
G04 #@! TO.N,/A4*
X114592600Y-102285000D03*
D13*
G04 #@! TO.P,LED4_4,1*
G04 #@! TO.N,/COL4*
X109512600Y-102285000D03*
G04 #@! TD*
D12*
G04 #@! TO.P,LED4_3,2*
G04 #@! TO.N,/A4*
X102592600Y-102285000D03*
D13*
G04 #@! TO.P,LED4_3,1*
G04 #@! TO.N,/COL3*
X97512600Y-102285000D03*
G04 #@! TD*
D12*
G04 #@! TO.P,LED4_2,2*
G04 #@! TO.N,/A4*
X90592600Y-102285000D03*
D13*
G04 #@! TO.P,LED4_2,1*
G04 #@! TO.N,/COL2*
X85512600Y-102285000D03*
G04 #@! TD*
D12*
G04 #@! TO.P,LED4_1,2*
G04 #@! TO.N,/A4*
X78592600Y-102285000D03*
D13*
G04 #@! TO.P,LED4_1,1*
G04 #@! TO.N,/COL1*
X73512600Y-102285000D03*
G04 #@! TD*
D12*
G04 #@! TO.P,LED4_0,2*
G04 #@! TO.N,/A4*
X66592600Y-102285000D03*
D13*
G04 #@! TO.P,LED4_0,1*
G04 #@! TO.N,/COL0*
X61512600Y-102285000D03*
G04 #@! TD*
D12*
G04 #@! TO.P,LED3_8,2*
G04 #@! TO.N,/A3*
X162592600Y-91285000D03*
D13*
G04 #@! TO.P,LED3_8,1*
G04 #@! TO.N,/COL8*
X157512600Y-91285000D03*
G04 #@! TD*
D12*
G04 #@! TO.P,LED3_7,2*
G04 #@! TO.N,/A3*
X150592600Y-91285000D03*
D13*
G04 #@! TO.P,LED3_7,1*
G04 #@! TO.N,/COL7*
X145512600Y-91285000D03*
G04 #@! TD*
D12*
G04 #@! TO.P,LED3_6,2*
G04 #@! TO.N,/A3*
X138592600Y-91285000D03*
D13*
G04 #@! TO.P,LED3_6,1*
G04 #@! TO.N,/COL6*
X133512600Y-91285000D03*
G04 #@! TD*
D12*
G04 #@! TO.P,LED3_5,2*
G04 #@! TO.N,/A3*
X126592600Y-91285000D03*
D13*
G04 #@! TO.P,LED3_5,1*
G04 #@! TO.N,/COL5*
X121512600Y-91285000D03*
G04 #@! TD*
D12*
G04 #@! TO.P,LED3_4,2*
G04 #@! TO.N,/A3*
X114592600Y-91285000D03*
D13*
G04 #@! TO.P,LED3_4,1*
G04 #@! TO.N,/COL4*
X109512600Y-91285000D03*
G04 #@! TD*
D12*
G04 #@! TO.P,LED3_3,2*
G04 #@! TO.N,/A3*
X102592600Y-91285000D03*
D13*
G04 #@! TO.P,LED3_3,1*
G04 #@! TO.N,/COL3*
X97512600Y-91285000D03*
G04 #@! TD*
D12*
G04 #@! TO.P,LED3_2,2*
G04 #@! TO.N,/A3*
X90592600Y-91285000D03*
D13*
G04 #@! TO.P,LED3_2,1*
G04 #@! TO.N,/COL2*
X85512600Y-91285000D03*
G04 #@! TD*
D12*
G04 #@! TO.P,LED3_1,2*
G04 #@! TO.N,/A3*
X78592600Y-91285000D03*
D13*
G04 #@! TO.P,LED3_1,1*
G04 #@! TO.N,/COL1*
X73512600Y-91285000D03*
G04 #@! TD*
D12*
G04 #@! TO.P,LED3_0,2*
G04 #@! TO.N,/A3*
X66592600Y-91285000D03*
D13*
G04 #@! TO.P,LED3_0,1*
G04 #@! TO.N,/COL0*
X61512600Y-91285000D03*
G04 #@! TD*
D12*
G04 #@! TO.P,LED2_8,2*
G04 #@! TO.N,/A2*
X162592600Y-80285000D03*
D13*
G04 #@! TO.P,LED2_8,1*
G04 #@! TO.N,/COL8*
X157512600Y-80285000D03*
G04 #@! TD*
D12*
G04 #@! TO.P,LED2_7,2*
G04 #@! TO.N,/A2*
X150592600Y-80285000D03*
D13*
G04 #@! TO.P,LED2_7,1*
G04 #@! TO.N,/COL7*
X145512600Y-80285000D03*
G04 #@! TD*
D12*
G04 #@! TO.P,LED2_6,2*
G04 #@! TO.N,/A2*
X138592600Y-80285000D03*
D13*
G04 #@! TO.P,LED2_6,1*
G04 #@! TO.N,/COL6*
X133512600Y-80285000D03*
G04 #@! TD*
D12*
G04 #@! TO.P,LED2_5,2*
G04 #@! TO.N,/A2*
X126592600Y-80285000D03*
D13*
G04 #@! TO.P,LED2_5,1*
G04 #@! TO.N,/COL5*
X121512600Y-80285000D03*
G04 #@! TD*
D12*
G04 #@! TO.P,LED2_4,2*
G04 #@! TO.N,/A2*
X114592600Y-80285000D03*
D13*
G04 #@! TO.P,LED2_4,1*
G04 #@! TO.N,/COL4*
X109512600Y-80285000D03*
G04 #@! TD*
D12*
G04 #@! TO.P,LED2_3,2*
G04 #@! TO.N,/A2*
X102592600Y-80285000D03*
D13*
G04 #@! TO.P,LED2_3,1*
G04 #@! TO.N,/COL3*
X97512600Y-80285000D03*
G04 #@! TD*
D12*
G04 #@! TO.P,LED2_2,2*
G04 #@! TO.N,/A2*
X90592600Y-80285000D03*
D13*
G04 #@! TO.P,LED2_2,1*
G04 #@! TO.N,/COL2*
X85512600Y-80285000D03*
G04 #@! TD*
D12*
G04 #@! TO.P,LED2_1,2*
G04 #@! TO.N,/A2*
X78592600Y-80285000D03*
D13*
G04 #@! TO.P,LED2_1,1*
G04 #@! TO.N,/COL1*
X73512600Y-80285000D03*
G04 #@! TD*
D12*
G04 #@! TO.P,LED2_0,2*
G04 #@! TO.N,/A2*
X66592600Y-80285000D03*
D13*
G04 #@! TO.P,LED2_0,1*
G04 #@! TO.N,/COL0*
X61512600Y-80285000D03*
G04 #@! TD*
D12*
G04 #@! TO.P,LED1_8,2*
G04 #@! TO.N,/A1*
X162592600Y-69285000D03*
D13*
G04 #@! TO.P,LED1_8,1*
G04 #@! TO.N,/COL8*
X157512600Y-69285000D03*
G04 #@! TD*
D12*
G04 #@! TO.P,LED1_7,2*
G04 #@! TO.N,/A1*
X150592600Y-69285000D03*
D13*
G04 #@! TO.P,LED1_7,1*
G04 #@! TO.N,/COL7*
X145512600Y-69285000D03*
G04 #@! TD*
D12*
G04 #@! TO.P,LED1_6,2*
G04 #@! TO.N,/A1*
X138592600Y-69285000D03*
D13*
G04 #@! TO.P,LED1_6,1*
G04 #@! TO.N,/COL6*
X133512600Y-69285000D03*
G04 #@! TD*
D12*
G04 #@! TO.P,LED1_5,2*
G04 #@! TO.N,/A1*
X126592600Y-69285000D03*
D13*
G04 #@! TO.P,LED1_5,1*
G04 #@! TO.N,/COL5*
X121512600Y-69285000D03*
G04 #@! TD*
D12*
G04 #@! TO.P,LED1_4,2*
G04 #@! TO.N,/A1*
X114592600Y-69285000D03*
D13*
G04 #@! TO.P,LED1_4,1*
G04 #@! TO.N,/COL4*
X109512600Y-69285000D03*
G04 #@! TD*
D12*
G04 #@! TO.P,LED1_3,2*
G04 #@! TO.N,/A1*
X102592600Y-69285000D03*
D13*
G04 #@! TO.P,LED1_3,1*
G04 #@! TO.N,/COL3*
X97512600Y-69285000D03*
G04 #@! TD*
D12*
G04 #@! TO.P,LED1_2,2*
G04 #@! TO.N,/A1*
X90592600Y-69285000D03*
D13*
G04 #@! TO.P,LED1_2,1*
G04 #@! TO.N,/COL2*
X85512600Y-69285000D03*
G04 #@! TD*
D12*
G04 #@! TO.P,LED1_1,2*
G04 #@! TO.N,/A1*
X78592600Y-69285000D03*
D13*
G04 #@! TO.P,LED1_1,1*
G04 #@! TO.N,/COL1*
X73512600Y-69285000D03*
G04 #@! TD*
D12*
G04 #@! TO.P,LED1_0,2*
G04 #@! TO.N,/A1*
X66592600Y-69285000D03*
D13*
G04 #@! TO.P,LED1_0,1*
G04 #@! TO.N,/COL0*
X61512600Y-69285000D03*
G04 #@! TD*
D12*
G04 #@! TO.P,LED0_8,2*
G04 #@! TO.N,/A0*
X162592600Y-58285000D03*
D13*
G04 #@! TO.P,LED0_8,1*
G04 #@! TO.N,/COL8*
X157512600Y-58285000D03*
G04 #@! TD*
D12*
G04 #@! TO.P,LED0_7,2*
G04 #@! TO.N,/A0*
X150592600Y-58285000D03*
D13*
G04 #@! TO.P,LED0_7,1*
G04 #@! TO.N,/COL7*
X145512600Y-58285000D03*
G04 #@! TD*
D12*
G04 #@! TO.P,LED0_6,2*
G04 #@! TO.N,/A0*
X138592600Y-58285000D03*
D13*
G04 #@! TO.P,LED0_6,1*
G04 #@! TO.N,/COL6*
X133512600Y-58285000D03*
G04 #@! TD*
D12*
G04 #@! TO.P,LED0_5,2*
G04 #@! TO.N,/A0*
X126592600Y-58285000D03*
D13*
G04 #@! TO.P,LED0_5,1*
G04 #@! TO.N,/COL5*
X121512600Y-58285000D03*
G04 #@! TD*
D12*
G04 #@! TO.P,LED0_4,2*
G04 #@! TO.N,/A0*
X114592600Y-58285000D03*
D13*
G04 #@! TO.P,LED0_4,1*
G04 #@! TO.N,/COL4*
X109512600Y-58285000D03*
G04 #@! TD*
D12*
G04 #@! TO.P,LED0_3,2*
G04 #@! TO.N,/A0*
X102592600Y-58285000D03*
D13*
G04 #@! TO.P,LED0_3,1*
G04 #@! TO.N,/COL3*
X97512600Y-58285000D03*
G04 #@! TD*
D12*
G04 #@! TO.P,LED0_2,2*
G04 #@! TO.N,/A0*
X90592600Y-58285000D03*
D13*
G04 #@! TO.P,LED0_2,1*
G04 #@! TO.N,/COL2*
X85512600Y-58285000D03*
G04 #@! TD*
D12*
G04 #@! TO.P,LED0_1,2*
G04 #@! TO.N,/A0*
X78592600Y-58285000D03*
D13*
G04 #@! TO.P,LED0_1,1*
G04 #@! TO.N,/COL1*
X73512600Y-58285000D03*
G04 #@! TD*
D12*
G04 #@! TO.P,LED0_0,2*
G04 #@! TO.N,/A0*
X66592600Y-58285000D03*
D13*
G04 #@! TO.P,LED0_0,1*
G04 #@! TO.N,/COL0*
X61512600Y-58285000D03*
G04 #@! TD*
D14*
G04 #@! TO.P,RJ1,8*
G04 #@! TO.N,N/C*
X207264000Y-133985000D03*
G04 #@! TO.P,RJ1,7*
X205994000Y-136525000D03*
G04 #@! TO.P,RJ1,6*
X204724000Y-133985000D03*
G04 #@! TO.P,RJ1,5*
G04 #@! TO.N,/RJ45_5*
X203454000Y-136525000D03*
G04 #@! TO.P,RJ1,4*
G04 #@! TO.N,/RJ45_4*
X202184000Y-133985000D03*
G04 #@! TO.P,RJ1,3*
G04 #@! TO.N,N/C*
X200914000Y-136525000D03*
G04 #@! TO.P,RJ1,2*
X199644000Y-133985000D03*
D15*
G04 #@! TO.P,RJ1,1*
X198374000Y-136525000D03*
G04 #@! TD*
D14*
G04 #@! TO.P,RJ0,8*
G04 #@! TO.N,N/C*
X186055000Y-133985000D03*
G04 #@! TO.P,RJ0,7*
X184785000Y-136525000D03*
G04 #@! TO.P,RJ0,6*
X183515000Y-133985000D03*
G04 #@! TO.P,RJ0,5*
G04 #@! TO.N,/RJ45_5*
X182245000Y-136525000D03*
G04 #@! TO.P,RJ0,4*
G04 #@! TO.N,/RJ45_4*
X180975000Y-133985000D03*
G04 #@! TO.P,RJ0,3*
G04 #@! TO.N,N/C*
X179705000Y-136525000D03*
G04 #@! TO.P,RJ0,2*
X178435000Y-133985000D03*
D15*
G04 #@! TO.P,RJ0,1*
X177165000Y-136525000D03*
G04 #@! TD*
D16*
G04 #@! TO.P,CP0,2*
G04 #@! TO.N,GND*
X215656800Y-90525600D03*
D17*
G04 #@! TO.P,CP0,1*
G04 #@! TO.N,+5V*
X213156800Y-90525600D03*
G04 #@! TD*
D18*
G04 #@! TO.P,C0.1nF0,2*
G04 #@! TO.N,+3V3*
X206407000Y-125349000D03*
D19*
G04 #@! TO.P,C0.1nF0,1*
G04 #@! TO.N,GND*
X208407000Y-125349000D03*
G04 #@! TD*
D12*
G04 #@! TO.P,+5V_IN1,2*
G04 #@! TO.N,+5V*
X213410800Y-47828200D03*
D13*
G04 #@! TO.P,+5V_IN1,1*
G04 #@! TO.N,GND*
X218490800Y-47828200D03*
G04 #@! TD*
D20*
G04 #@! TO.P,GND1,1*
G04 #@! TO.N,GND*
X214985600Y-130606800D03*
G04 #@! TD*
D21*
G04 #@! TO.P,RS-485,1*
G04 #@! TO.N,/RX0*
X203454000Y-119833652D03*
G04 #@! TO.P,RS-485,2*
G04 #@! TO.N,/MISO*
X202184000Y-119833652D03*
G04 #@! TO.P,RS-485,3*
X200914000Y-119833652D03*
G04 #@! TO.P,RS-485,4*
G04 #@! TO.N,/TX1*
X199644000Y-119833652D03*
G04 #@! TO.P,RS-485,5*
G04 #@! TO.N,GND*
X199644000Y-125276348D03*
G04 #@! TO.P,RS-485,6*
G04 #@! TO.N,/RJ45_4*
X200914000Y-125276348D03*
G04 #@! TO.P,RS-485,7*
G04 #@! TO.N,/RJ45_5*
X202184000Y-125276348D03*
G04 #@! TO.P,RS-485,8*
G04 #@! TO.N,+3V3*
X203454000Y-125276348D03*
G04 #@! TD*
D22*
G04 #@! TO.P,Prt_IC1,3*
G04 #@! TO.N,GND*
X194322700Y-122301000D03*
G04 #@! TO.P,Prt_IC1,2*
G04 #@! TO.N,Net-(Prt_IC1-Pad2)*
X192417700Y-123251001D03*
G04 #@! TO.P,Prt_IC1,1*
G04 #@! TO.N,Net-(Prt_IC1-Pad1)*
X192417700Y-121350999D03*
G04 #@! TD*
G04 #@! TA.AperFunction,SMDPad,CuDef*
D11*
G04 #@! TO.P,R11,2*
G04 #@! TO.N,Net-(Prt_IC1-Pad1)*
G36*
X184106505Y-120472204D02*
G01*
X184130773Y-120475804D01*
X184154572Y-120481765D01*
X184177671Y-120490030D01*
X184199850Y-120500520D01*
X184220893Y-120513132D01*
X184240599Y-120527747D01*
X184258777Y-120544223D01*
X184275253Y-120562401D01*
X184289868Y-120582107D01*
X184302480Y-120603150D01*
X184312970Y-120625329D01*
X184321235Y-120648428D01*
X184327196Y-120672227D01*
X184330796Y-120696495D01*
X184332000Y-120720999D01*
X184332000Y-121746001D01*
X184330796Y-121770505D01*
X184327196Y-121794773D01*
X184321235Y-121818572D01*
X184312970Y-121841671D01*
X184302480Y-121863850D01*
X184289868Y-121884893D01*
X184275253Y-121904599D01*
X184258777Y-121922777D01*
X184240599Y-121939253D01*
X184220893Y-121953868D01*
X184199850Y-121966480D01*
X184177671Y-121976970D01*
X184154572Y-121985235D01*
X184130773Y-121991196D01*
X184106505Y-121994796D01*
X184082001Y-121996000D01*
X181931999Y-121996000D01*
X181907495Y-121994796D01*
X181883227Y-121991196D01*
X181859428Y-121985235D01*
X181836329Y-121976970D01*
X181814150Y-121966480D01*
X181793107Y-121953868D01*
X181773401Y-121939253D01*
X181755223Y-121922777D01*
X181738747Y-121904599D01*
X181724132Y-121884893D01*
X181711520Y-121863850D01*
X181701030Y-121841671D01*
X181692765Y-121818572D01*
X181686804Y-121794773D01*
X181683204Y-121770505D01*
X181682000Y-121746001D01*
X181682000Y-120720999D01*
X181683204Y-120696495D01*
X181686804Y-120672227D01*
X181692765Y-120648428D01*
X181701030Y-120625329D01*
X181711520Y-120603150D01*
X181724132Y-120582107D01*
X181738747Y-120562401D01*
X181755223Y-120544223D01*
X181773401Y-120527747D01*
X181793107Y-120513132D01*
X181814150Y-120500520D01*
X181836329Y-120490030D01*
X181859428Y-120481765D01*
X181883227Y-120475804D01*
X181907495Y-120472204D01*
X181931999Y-120471000D01*
X184082001Y-120471000D01*
X184106505Y-120472204D01*
G37*
G04 #@! TD.AperFunction*
G04 #@! TA.AperFunction,SMDPad,CuDef*
G04 #@! TO.P,R11,1*
G04 #@! TO.N,/RJ45_5*
G36*
X184106505Y-125147204D02*
G01*
X184130773Y-125150804D01*
X184154572Y-125156765D01*
X184177671Y-125165030D01*
X184199850Y-125175520D01*
X184220893Y-125188132D01*
X184240599Y-125202747D01*
X184258777Y-125219223D01*
X184275253Y-125237401D01*
X184289868Y-125257107D01*
X184302480Y-125278150D01*
X184312970Y-125300329D01*
X184321235Y-125323428D01*
X184327196Y-125347227D01*
X184330796Y-125371495D01*
X184332000Y-125395999D01*
X184332000Y-126421001D01*
X184330796Y-126445505D01*
X184327196Y-126469773D01*
X184321235Y-126493572D01*
X184312970Y-126516671D01*
X184302480Y-126538850D01*
X184289868Y-126559893D01*
X184275253Y-126579599D01*
X184258777Y-126597777D01*
X184240599Y-126614253D01*
X184220893Y-126628868D01*
X184199850Y-126641480D01*
X184177671Y-126651970D01*
X184154572Y-126660235D01*
X184130773Y-126666196D01*
X184106505Y-126669796D01*
X184082001Y-126671000D01*
X181931999Y-126671000D01*
X181907495Y-126669796D01*
X181883227Y-126666196D01*
X181859428Y-126660235D01*
X181836329Y-126651970D01*
X181814150Y-126641480D01*
X181793107Y-126628868D01*
X181773401Y-126614253D01*
X181755223Y-126597777D01*
X181738747Y-126579599D01*
X181724132Y-126559893D01*
X181711520Y-126538850D01*
X181701030Y-126516671D01*
X181692765Y-126493572D01*
X181686804Y-126469773D01*
X181683204Y-126445505D01*
X181682000Y-126421001D01*
X181682000Y-125395999D01*
X181683204Y-125371495D01*
X181686804Y-125347227D01*
X181692765Y-125323428D01*
X181701030Y-125300329D01*
X181711520Y-125278150D01*
X181724132Y-125257107D01*
X181738747Y-125237401D01*
X181755223Y-125219223D01*
X181773401Y-125202747D01*
X181793107Y-125188132D01*
X181814150Y-125175520D01*
X181836329Y-125165030D01*
X181859428Y-125156765D01*
X181883227Y-125150804D01*
X181907495Y-125147204D01*
X181931999Y-125146000D01*
X184082001Y-125146000D01*
X184106505Y-125147204D01*
G37*
G04 #@! TD.AperFunction*
G04 #@! TD*
G04 #@! TA.AperFunction,SMDPad,CuDef*
G04 #@! TO.P,R10,2*
G04 #@! TO.N,Net-(Prt_IC1-Pad2)*
G36*
X190075505Y-122504204D02*
G01*
X190099773Y-122507804D01*
X190123572Y-122513765D01*
X190146671Y-122522030D01*
X190168850Y-122532520D01*
X190189893Y-122545132D01*
X190209599Y-122559747D01*
X190227777Y-122576223D01*
X190244253Y-122594401D01*
X190258868Y-122614107D01*
X190271480Y-122635150D01*
X190281970Y-122657329D01*
X190290235Y-122680428D01*
X190296196Y-122704227D01*
X190299796Y-122728495D01*
X190301000Y-122752999D01*
X190301000Y-123778001D01*
X190299796Y-123802505D01*
X190296196Y-123826773D01*
X190290235Y-123850572D01*
X190281970Y-123873671D01*
X190271480Y-123895850D01*
X190258868Y-123916893D01*
X190244253Y-123936599D01*
X190227777Y-123954777D01*
X190209599Y-123971253D01*
X190189893Y-123985868D01*
X190168850Y-123998480D01*
X190146671Y-124008970D01*
X190123572Y-124017235D01*
X190099773Y-124023196D01*
X190075505Y-124026796D01*
X190051001Y-124028000D01*
X187900999Y-124028000D01*
X187876495Y-124026796D01*
X187852227Y-124023196D01*
X187828428Y-124017235D01*
X187805329Y-124008970D01*
X187783150Y-123998480D01*
X187762107Y-123985868D01*
X187742401Y-123971253D01*
X187724223Y-123954777D01*
X187707747Y-123936599D01*
X187693132Y-123916893D01*
X187680520Y-123895850D01*
X187670030Y-123873671D01*
X187661765Y-123850572D01*
X187655804Y-123826773D01*
X187652204Y-123802505D01*
X187651000Y-123778001D01*
X187651000Y-122752999D01*
X187652204Y-122728495D01*
X187655804Y-122704227D01*
X187661765Y-122680428D01*
X187670030Y-122657329D01*
X187680520Y-122635150D01*
X187693132Y-122614107D01*
X187707747Y-122594401D01*
X187724223Y-122576223D01*
X187742401Y-122559747D01*
X187762107Y-122545132D01*
X187783150Y-122532520D01*
X187805329Y-122522030D01*
X187828428Y-122513765D01*
X187852227Y-122507804D01*
X187876495Y-122504204D01*
X187900999Y-122503000D01*
X190051001Y-122503000D01*
X190075505Y-122504204D01*
G37*
G04 #@! TD.AperFunction*
G04 #@! TA.AperFunction,SMDPad,CuDef*
G04 #@! TO.P,R10,1*
G04 #@! TO.N,/RJ45_4*
G36*
X190075505Y-127179204D02*
G01*
X190099773Y-127182804D01*
X190123572Y-127188765D01*
X190146671Y-127197030D01*
X190168850Y-127207520D01*
X190189893Y-127220132D01*
X190209599Y-127234747D01*
X190227777Y-127251223D01*
X190244253Y-127269401D01*
X190258868Y-127289107D01*
X190271480Y-127310150D01*
X190281970Y-127332329D01*
X190290235Y-127355428D01*
X190296196Y-127379227D01*
X190299796Y-127403495D01*
X190301000Y-127427999D01*
X190301000Y-128453001D01*
X190299796Y-128477505D01*
X190296196Y-128501773D01*
X190290235Y-128525572D01*
X190281970Y-128548671D01*
X190271480Y-128570850D01*
X190258868Y-128591893D01*
X190244253Y-128611599D01*
X190227777Y-128629777D01*
X190209599Y-128646253D01*
X190189893Y-128660868D01*
X190168850Y-128673480D01*
X190146671Y-128683970D01*
X190123572Y-128692235D01*
X190099773Y-128698196D01*
X190075505Y-128701796D01*
X190051001Y-128703000D01*
X187900999Y-128703000D01*
X187876495Y-128701796D01*
X187852227Y-128698196D01*
X187828428Y-128692235D01*
X187805329Y-128683970D01*
X187783150Y-128673480D01*
X187762107Y-128660868D01*
X187742401Y-128646253D01*
X187724223Y-128629777D01*
X187707747Y-128611599D01*
X187693132Y-128591893D01*
X187680520Y-128570850D01*
X187670030Y-128548671D01*
X187661765Y-128525572D01*
X187655804Y-128501773D01*
X187652204Y-128477505D01*
X187651000Y-128453001D01*
X187651000Y-127427999D01*
X187652204Y-127403495D01*
X187655804Y-127379227D01*
X187661765Y-127355428D01*
X187670030Y-127332329D01*
X187680520Y-127310150D01*
X187693132Y-127289107D01*
X187707747Y-127269401D01*
X187724223Y-127251223D01*
X187742401Y-127234747D01*
X187762107Y-127220132D01*
X187783150Y-127207520D01*
X187805329Y-127197030D01*
X187828428Y-127188765D01*
X187852227Y-127182804D01*
X187876495Y-127179204D01*
X187900999Y-127178000D01*
X190051001Y-127178000D01*
X190075505Y-127179204D01*
G37*
G04 #@! TD.AperFunction*
G04 #@! TD*
D23*
G04 #@! TO.P,J3,12*
G04 #@! TO.N,/SDA*
X209550000Y-115951000D03*
G04 #@! TO.P,J3,11*
G04 #@! TO.N,/SCL*
X209550000Y-113411000D03*
G04 #@! TO.P,J3,10*
G04 #@! TO.N,/D5*
X209550000Y-110871000D03*
G04 #@! TO.P,J3,9*
G04 #@! TO.N,/D6*
X209550000Y-108331000D03*
G04 #@! TO.P,J3,8*
G04 #@! TO.N,/D9*
X209550000Y-105791000D03*
G04 #@! TO.P,J3,7*
G04 #@! TO.N,/D10*
X209550000Y-103251000D03*
G04 #@! TO.P,J3,6*
G04 #@! TO.N,/D11*
X209550000Y-100711000D03*
G04 #@! TO.P,J3,5*
G04 #@! TO.N,/D12*
X209550000Y-98171000D03*
G04 #@! TO.P,J3,4*
G04 #@! TO.N,/D13*
X209550000Y-95631000D03*
G04 #@! TO.P,J3,3*
G04 #@! TO.N,+5V*
X209550000Y-93091000D03*
G04 #@! TO.P,J3,2*
G04 #@! TO.N,N/C*
X209550000Y-90551000D03*
D20*
G04 #@! TO.P,J3,1*
X209550000Y-88011000D03*
G04 #@! TD*
D23*
G04 #@! TO.P,J2,16*
G04 #@! TO.N,GND*
X189230000Y-115951000D03*
G04 #@! TO.P,J2,15*
G04 #@! TO.N,/TX1*
X189230000Y-113411000D03*
G04 #@! TO.P,J2,14*
G04 #@! TO.N,/RX0*
X189230000Y-110871000D03*
G04 #@! TO.P,J2,13*
G04 #@! TO.N,/MISO*
X189230000Y-108331000D03*
G04 #@! TO.P,J2,12*
G04 #@! TO.N,/MOSI*
X189230000Y-105791000D03*
G04 #@! TO.P,J2,11*
G04 #@! TO.N,/ROW6*
X189230000Y-103251000D03*
G04 #@! TO.P,J2,10*
G04 #@! TO.N,/A5*
X189230000Y-100711000D03*
G04 #@! TO.P,J2,9*
G04 #@! TO.N,/A4*
X189230000Y-98171000D03*
G04 #@! TO.P,J2,8*
G04 #@! TO.N,/A3*
X189230000Y-95631000D03*
G04 #@! TO.P,J2,7*
G04 #@! TO.N,/A2*
X189230000Y-93091000D03*
G04 #@! TO.P,J2,6*
G04 #@! TO.N,/A1*
X189230000Y-90551000D03*
G04 #@! TO.P,J2,5*
G04 #@! TO.N,/A0*
X189230000Y-88011000D03*
G04 #@! TO.P,J2,4*
G04 #@! TO.N,GND*
X189230000Y-85471000D03*
G04 #@! TO.P,J2,3*
G04 #@! TO.N,N/C*
X189230000Y-82931000D03*
G04 #@! TO.P,J2,2*
G04 #@! TO.N,+3V3*
X189230000Y-80391000D03*
D20*
G04 #@! TO.P,J2,1*
G04 #@! TO.N,N/C*
X189230000Y-77851000D03*
G04 #@! TD*
D24*
G04 #@! TO.N,GND*
X196062600Y-122301000D03*
G04 #@! TO.N,/RX0*
X195630800Y-110718600D03*
D25*
G04 #@! TO.N,/D11*
X218795600Y-58674000D03*
X85521800Y-36220400D03*
G04 #@! TO.N,/D12*
X218541600Y-62128400D03*
X73583800Y-39039800D03*
D24*
G04 #@! TO.N,/RJ45_4*
X195909500Y-127940500D03*
D25*
G04 #@! TO.N,/D13*
X218871800Y-65709800D03*
X65557400Y-41503600D03*
G04 #@! TD*
D26*
G04 #@! TO.N,GND*
X194322700Y-122301000D02*
X196062600Y-122301000D01*
X196062600Y-122301000D02*
X196062600Y-122301000D01*
X197646101Y-122301000D02*
X196628285Y-122301000D01*
X196628285Y-122301000D02*
X196062600Y-122301000D01*
X199644000Y-124298899D02*
X197646101Y-122301000D01*
X199644000Y-125276348D02*
X199644000Y-124298899D01*
G04 #@! TO.N,/TX1*
X199644000Y-118856203D02*
X199644000Y-119833652D01*
X194198797Y-113411000D02*
X199644000Y-118856203D01*
X189230000Y-113411000D02*
X194198797Y-113411000D01*
G04 #@! TO.N,/RX0*
X203454000Y-118541800D02*
X203454000Y-119833652D01*
X195630800Y-110718600D02*
X203454000Y-118541800D01*
G04 #@! TO.N,/MISO*
X200914000Y-118856203D02*
X200914000Y-119833652D01*
X190432081Y-108331000D02*
X200914000Y-118812919D01*
X200914000Y-118812919D02*
X200914000Y-118856203D01*
X189230000Y-108331000D02*
X190432081Y-108331000D01*
X200914000Y-119833652D02*
X202184000Y-119833652D01*
D27*
G04 #@! TO.N,/A4*
X185116000Y-102285000D02*
X189230000Y-98171000D01*
X162592600Y-102285000D02*
X185116000Y-102285000D01*
G04 #@! TO.N,/A0*
X162592600Y-61373600D02*
X189230000Y-88011000D01*
X162592600Y-58285000D02*
X162592600Y-61373600D01*
G04 #@! TO.N,/D5*
X209550000Y-110871000D02*
X199567800Y-100888800D01*
X199567800Y-100888800D02*
X199567800Y-74244200D01*
X199567800Y-74244200D02*
X165557200Y-40233600D01*
X138226500Y-40233600D02*
X133512600Y-44947500D01*
X165557200Y-40233600D02*
X165404800Y-40233600D01*
X165404800Y-40233600D02*
X163931600Y-38760400D01*
X139699700Y-38760400D02*
X138226500Y-40233600D01*
X163931600Y-38760400D02*
X139699700Y-38760400D01*
G04 #@! TO.N,/D6*
X202082400Y-73177400D02*
X165455600Y-36550600D01*
X129909500Y-36550600D02*
X121512600Y-44947500D01*
X209550000Y-108331000D02*
X202082400Y-100863400D01*
X165455600Y-36550600D02*
X129909500Y-36550600D01*
X202082400Y-100863400D02*
X202082400Y-73177400D01*
G04 #@! TO.N,/D9*
X209550000Y-105791000D02*
X204546200Y-100787200D01*
X204546200Y-100787200D02*
X204546200Y-72034400D01*
X204546200Y-72034400D02*
X166928800Y-34417000D01*
X120043100Y-34417000D02*
X109512600Y-44947500D01*
X166928800Y-34417000D02*
X120043100Y-34417000D01*
G04 #@! TO.N,/D10*
X209550000Y-103251000D02*
X206629000Y-100330000D01*
X206629000Y-100330000D02*
X206629000Y-70510400D01*
X206629000Y-70510400D02*
X167995600Y-31877000D01*
X110583100Y-31877000D02*
X97512600Y-44947500D01*
X167995600Y-31877000D02*
X110583100Y-31877000D01*
G04 #@! TO.N,/D11*
X209550000Y-100711000D02*
X218770200Y-100711000D01*
X218770200Y-100711000D02*
X225958400Y-93522800D01*
X225958400Y-93522800D02*
X225958400Y-65836800D01*
X225958400Y-65836800D02*
X218795600Y-58674000D01*
X218795600Y-58674000D02*
X218795600Y-58674000D01*
X85521800Y-44938300D02*
X85512600Y-44947500D01*
X85521800Y-36220400D02*
X85521800Y-44938300D01*
G04 #@! TO.N,/D12*
X209550000Y-98171000D02*
X217805000Y-98171000D01*
X217805000Y-98171000D02*
X223647000Y-92329000D01*
X223647000Y-92329000D02*
X223647000Y-67233800D01*
X223647000Y-67233800D02*
X218541600Y-62128400D01*
X218541600Y-62128400D02*
X218541600Y-62128400D01*
X218541600Y-62128400D02*
X218541600Y-62128400D01*
X73583800Y-44876300D02*
X73512600Y-44947500D01*
X73583800Y-39039800D02*
X73583800Y-44876300D01*
D26*
G04 #@! TO.N,/RJ45_4*
X188976000Y-127940500D02*
X195909500Y-127940500D01*
X200914000Y-126568200D02*
X200914000Y-125276348D01*
X199541700Y-127940500D02*
X200914000Y-126568200D01*
X195909500Y-127940500D02*
X199541700Y-127940500D01*
G04 #@! TO.N,/RJ45_5*
X202184000Y-126253797D02*
X198262797Y-130175000D01*
X202184000Y-125276348D02*
X202184000Y-126253797D01*
X198262797Y-130175000D02*
X184912000Y-130175000D01*
X183007000Y-128270000D02*
X183007000Y-125908500D01*
X184912000Y-130175000D02*
X183007000Y-128270000D01*
X184912000Y-130175000D02*
X178689000Y-130175000D01*
X178689000Y-130175000D02*
X174955200Y-133908800D01*
X174955200Y-133908800D02*
X174955200Y-137541000D01*
X174955200Y-137541000D02*
X176733200Y-139319000D01*
X179451000Y-139319000D02*
X182245000Y-136525000D01*
X176733200Y-139319000D02*
X179451000Y-139319000D01*
X182245000Y-137585660D02*
X183775140Y-139115800D01*
X182245000Y-136525000D02*
X182245000Y-137585660D01*
X183775140Y-139115800D02*
X201853800Y-139115800D01*
X201853800Y-139115800D02*
X203377800Y-137591800D01*
X203454000Y-137585660D02*
X203454000Y-136525000D01*
X203447860Y-137591800D02*
X203454000Y-137585660D01*
X203377800Y-137591800D02*
X203447860Y-137591800D01*
D27*
G04 #@! TO.N,+5V*
X213410800Y-90271600D02*
X213156800Y-90525600D01*
X213410800Y-47828200D02*
X213410800Y-90271600D01*
X212115400Y-90525600D02*
X209550000Y-93091000D01*
X213156800Y-90525600D02*
X212115400Y-90525600D01*
D28*
G04 #@! TO.N,+3V3*
X206334348Y-125276348D02*
X206407000Y-125349000D01*
X203454000Y-125276348D02*
X206334348Y-125276348D01*
X206407000Y-125349000D02*
X206407000Y-118548400D01*
X206407000Y-118548400D02*
X192582800Y-104724200D01*
X192582800Y-83743800D02*
X189230000Y-80391000D01*
X192582800Y-104724200D02*
X192582800Y-83743800D01*
D26*
G04 #@! TO.N,Net-(Prt_IC1-Pad2)*
X188990499Y-123251001D02*
X188976000Y-123265500D01*
X192417700Y-123251001D02*
X188990499Y-123251001D01*
G04 #@! TO.N,Net-(Prt_IC1-Pad1)*
X183124499Y-121350999D02*
X183007000Y-121233500D01*
X192417700Y-121350999D02*
X183124499Y-121350999D01*
D27*
G04 #@! TO.N,/MOSI*
X188380001Y-106640999D02*
X189230000Y-105791000D01*
X164667601Y-130353399D02*
X188380001Y-106640999D01*
X164667601Y-133209999D02*
X164667601Y-130353399D01*
X162592600Y-135285000D02*
X164667601Y-133209999D01*
G04 #@! TO.N,/A5*
X176656000Y-113285000D02*
X189230000Y-100711000D01*
X162592600Y-113285000D02*
X176656000Y-113285000D01*
G04 #@! TO.N,/A3*
X166938600Y-95631000D02*
X189230000Y-95631000D01*
X162592600Y-91285000D02*
X166938600Y-95631000D01*
G04 #@! TO.N,/A2*
X175398600Y-93091000D02*
X189230000Y-93091000D01*
X162592600Y-80285000D02*
X175398600Y-93091000D01*
G04 #@! TO.N,/A1*
X162592600Y-69285000D02*
X183858600Y-90551000D01*
X183858600Y-90551000D02*
X189230000Y-90551000D01*
G04 #@! TO.N,/SDA*
X208347919Y-115951000D02*
X194589400Y-102192481D01*
X209550000Y-115951000D02*
X208347919Y-115951000D01*
X194589400Y-102192481D02*
X194589400Y-76809600D01*
X162727300Y-44947500D02*
X157512600Y-44947500D01*
X194589400Y-76809600D02*
X162727300Y-44947500D01*
G04 #@! TO.N,/SCL*
X148753300Y-41706800D02*
X145512600Y-44947500D01*
X163118800Y-41706800D02*
X148753300Y-41706800D01*
X196926200Y-75514200D02*
X163118800Y-41706800D01*
X209550000Y-113411000D02*
X196926200Y-100787200D01*
X196926200Y-100787200D02*
X196926200Y-75514200D01*
G04 #@! TO.N,/D13*
X209550000Y-95631000D02*
X217119200Y-95631000D01*
X217119200Y-95631000D02*
X220726000Y-92024200D01*
X220726000Y-92024200D02*
X220726000Y-67792600D01*
X220726000Y-67792600D02*
X220726000Y-67564000D01*
X220726000Y-67564000D02*
X218871800Y-65709800D01*
X218871800Y-65709800D02*
X218871800Y-65709800D01*
X61569600Y-44890500D02*
X61512600Y-44947500D01*
X218871800Y-65709800D02*
X218871800Y-65709800D01*
X64956500Y-41503600D02*
X61512600Y-44947500D01*
X65557400Y-41503600D02*
X64956500Y-41503600D01*
G04 #@! TO.N,/ROW6*
X168196000Y-124285000D02*
X189230000Y-103251000D01*
X162592600Y-124285000D02*
X168196000Y-124285000D01*
G04 #@! TO.N,/COL0*
X61512600Y-49622500D02*
X61512600Y-135285000D01*
G04 #@! TO.N,/COL1*
X73512600Y-78276002D02*
X73512600Y-135285000D01*
X73512600Y-49622500D02*
X73512600Y-78276002D01*
G04 #@! TO.N,/COL2*
X85512600Y-50385000D02*
X85512600Y-135285000D01*
X85512600Y-49622500D02*
X85512600Y-50385000D01*
G04 #@! TO.N,/COL3*
X97512600Y-50385000D02*
X97512600Y-135285000D01*
X97512600Y-49622500D02*
X97512600Y-50385000D01*
G04 #@! TO.N,/COL4*
X109512600Y-49622500D02*
X109512600Y-135285000D01*
G04 #@! TO.N,/COL5*
X121512600Y-49622500D02*
X121512600Y-135285000D01*
G04 #@! TO.N,/COL6*
X133512600Y-49622500D02*
X133512600Y-135285000D01*
G04 #@! TO.N,/COL7*
X145512600Y-50385000D02*
X145512600Y-135285000D01*
X145512600Y-49622500D02*
X145512600Y-50385000D01*
G04 #@! TO.N,/COL8*
X157512600Y-49622500D02*
X157512600Y-58285000D01*
X157512600Y-60535000D02*
X157512600Y-69285000D01*
X157512600Y-58285000D02*
X157512600Y-60535000D01*
X157512600Y-69285000D02*
X157512600Y-80285000D01*
X157512600Y-82535000D02*
X157512600Y-91285000D01*
X157512600Y-80285000D02*
X157512600Y-82535000D01*
X157512600Y-91285000D02*
X157512600Y-135285000D01*
G04 #@! TD*
M02*
