M48
; DRILL file {KiCad 5.1.5-52549c5~84~ubuntu18.04.1} date Tue 11 Feb 2020 03:06:08 PM EST
; FORMAT={-:-/ absolute / metric / decimal}
; #@! TF.CreationDate,2020-02-11T15:06:08-05:00
; #@! TF.GenerationSoftware,Kicad,Pcbnew,5.1.5-52549c5~84~ubuntu18.04.1
; #@! TF.FileFunction,Plated,1,2,PTH
FMAT,2
METRIC
T1C0.400
T2C0.600
T3C0.760
T4C0.800
T5C1.000
T6C1.520
%
G90
G05
T1
X195.631Y-110.719
X196.063Y-122.301
X203.022Y-127.533
T2
X206.407Y-125.349
X208.407Y-125.349
T3
X190.957Y-137.033
X192.227Y-134.493
X193.497Y-137.033
X194.767Y-134.493
X196.037Y-137.033
X197.307Y-134.493
X198.577Y-137.033
X199.847Y-134.493
X212.166Y-137.033
X213.436Y-134.493
X214.706Y-137.033
X215.976Y-134.493
X217.246Y-137.033
X218.516Y-134.493
X219.786Y-137.033
X221.056Y-134.493
T4
X73.513Y-38.0
X93.833Y-38.0
X109.513Y-50.0
X129.833Y-50.0
X85.513Y-42.0
X105.833Y-42.0
X145.513Y-46.0
X165.833Y-46.0
X173.685Y-121.361
X173.685Y-141.681
X121.513Y-38.0
X141.833Y-38.0
X97.513Y-46.0
X117.833Y-46.0
X179.349Y-123.342
X179.349Y-143.662
X61.513Y-34.0
X81.833Y-34.0
X157.513Y-50.0
X177.833Y-50.0
X133.513Y-42.0
X153.833Y-42.0
X213.157Y-90.526
X215.657Y-90.526
T5
X215.621Y-128.549
X189.23Y-77.851
X189.23Y-80.391
X189.23Y-82.931
X189.23Y-85.471
X189.23Y-88.011
X189.23Y-90.551
X189.23Y-93.091
X189.23Y-95.631
X189.23Y-98.171
X189.23Y-100.711
X189.23Y-103.251
X189.23Y-105.791
X189.23Y-108.331
X189.23Y-110.871
X189.23Y-113.411
X189.23Y-115.951
X209.55Y-88.011
X209.55Y-90.551
X209.55Y-93.091
X209.55Y-95.631
X209.55Y-98.171
X209.55Y-100.711
X209.55Y-103.251
X209.55Y-105.791
X209.55Y-108.331
X209.55Y-110.871
X209.55Y-113.411
X209.55Y-115.951
T6
X121.513Y-69.285
X126.593Y-69.285
X121.513Y-102.285
X126.593Y-102.285
X61.513Y-113.285
X66.593Y-113.285
X61.513Y-58.285
X66.593Y-58.285
X61.513Y-135.285
X66.593Y-135.285
X85.513Y-135.285
X90.593Y-135.285
X109.513Y-80.285
X114.593Y-80.285
X133.513Y-58.285
X138.593Y-58.285
X121.513Y-113.285
X126.593Y-113.285
X97.513Y-102.285
X102.593Y-102.285
X85.513Y-91.285
X90.593Y-91.285
X73.513Y-80.285
X78.593Y-80.285
X85.513Y-58.285
X90.593Y-58.285
X145.513Y-69.285
X150.593Y-69.285
X109.513Y-102.285
X114.593Y-102.285
X109.513Y-135.285
X114.593Y-135.285
X145.513Y-124.285
X150.593Y-124.285
X73.513Y-58.285
X78.593Y-58.285
X213.411Y-47.828
X218.491Y-47.828
X61.513Y-91.285
X66.593Y-91.285
X73.513Y-124.285
X78.593Y-124.285
X61.513Y-80.285
X66.593Y-80.285
X109.513Y-124.285
X114.593Y-124.285
X121.513Y-135.285
X126.593Y-135.285
X109.513Y-113.285
X114.593Y-113.285
X133.513Y-80.285
X138.593Y-80.285
X157.513Y-124.285
X162.593Y-124.285
X61.513Y-124.285
X66.593Y-124.285
X157.513Y-58.285
X162.593Y-58.285
X97.513Y-69.285
X102.593Y-69.285
X145.513Y-135.285
X150.593Y-135.285
X133.513Y-124.285
X138.593Y-124.285
X145.513Y-58.285
X150.593Y-58.285
X157.513Y-91.285
X162.593Y-91.285
X97.513Y-91.285
X102.593Y-91.285
X61.513Y-102.285
X66.593Y-102.285
X85.513Y-80.285
X90.593Y-80.285
X145.513Y-91.285
X150.593Y-91.285
X73.513Y-113.285
X78.593Y-113.285
X157.513Y-80.285
X162.593Y-80.285
X157.513Y-135.285
X162.593Y-135.285
X73.513Y-91.285
X78.593Y-91.285
X133.513Y-102.285
X138.593Y-102.285
X109.513Y-91.285
X114.593Y-91.285
X121.513Y-91.285
X126.593Y-91.285
X157.513Y-69.285
X162.593Y-69.285
X157.513Y-113.285
X162.593Y-113.285
X133.513Y-135.285
X138.593Y-135.285
X157.513Y-102.285
X162.593Y-102.285
X85.513Y-69.285
X90.593Y-69.285
X121.513Y-58.285
X126.593Y-58.285
X145.513Y-102.285
X150.593Y-102.285
X73.513Y-102.285
X78.593Y-102.285
X97.513Y-135.285
X102.593Y-135.285
X85.513Y-124.285
X90.593Y-124.285
X109.513Y-69.285
X114.593Y-69.285
X121.513Y-124.285
X126.593Y-124.285
X85.513Y-113.285
X90.593Y-113.285
X97.513Y-80.285
X102.593Y-80.285
X133.513Y-113.285
X138.593Y-113.285
X145.513Y-80.285
X150.593Y-80.285
X73.513Y-69.285
X78.593Y-69.285
X109.513Y-58.285
X114.593Y-58.285
X121.513Y-80.285
X126.593Y-80.285
X73.513Y-135.285
X78.593Y-135.285
X133.513Y-69.285
X138.593Y-69.285
X97.513Y-113.285
X102.593Y-113.285
X85.513Y-102.285
X90.593Y-102.285
X61.513Y-69.285
X66.593Y-69.285
X97.513Y-124.285
X102.593Y-124.285
X133.513Y-91.285
X138.593Y-91.285
X145.513Y-113.285
X150.593Y-113.285
X97.513Y-58.285
X102.593Y-58.285
T0
M30
