G04 #@! TF.GenerationSoftware,KiCad,Pcbnew,5.1.5-52549c5~84~ubuntu18.04.1*
G04 #@! TF.CreationDate,2020-02-25T12:19:13-05:00*
G04 #@! TF.ProjectId,solenoid_board,736f6c65-6e6f-4696-945f-626f6172642e,rev?*
G04 #@! TF.SameCoordinates,Original*
G04 #@! TF.FileFunction,Copper,L1,Top*
G04 #@! TF.FilePolarity,Positive*
%FSLAX46Y46*%
G04 Gerber Fmt 4.6, Leading zero omitted, Abs format (unit mm)*
G04 Created by KiCad (PCBNEW 5.1.5-52549c5~84~ubuntu18.04.1) date 2020-02-25 12:19:13*
%MOMM*%
%LPD*%
G04 APERTURE LIST*
G04 #@! TA.AperFunction,Profile*
%ADD10C,0.050000*%
G04 #@! TD*
G04 #@! TA.AperFunction,ComponentPad*
%ADD11C,1.600000*%
G04 #@! TD*
G04 #@! TA.AperFunction,ComponentPad*
%ADD12R,1.600000X1.600000*%
G04 #@! TD*
G04 #@! TA.AperFunction,SMDPad,CuDef*
%ADD13R,0.568000X1.454899*%
G04 #@! TD*
G04 #@! TA.AperFunction,ComponentPad*
%ADD14O,1.400000X1.400000*%
G04 #@! TD*
G04 #@! TA.AperFunction,ComponentPad*
%ADD15C,1.400000*%
G04 #@! TD*
G04 #@! TA.AperFunction,ComponentPad*
%ADD16O,1.700000X1.700000*%
G04 #@! TD*
G04 #@! TA.AperFunction,ComponentPad*
%ADD17R,1.700000X1.700000*%
G04 #@! TD*
G04 #@! TA.AperFunction,ComponentPad*
%ADD18R,1.000000X1.500000*%
G04 #@! TD*
G04 #@! TA.AperFunction,ComponentPad*
%ADD19O,1.000000X1.500000*%
G04 #@! TD*
G04 #@! TA.AperFunction,ComponentPad*
%ADD20R,1.500000X1.000000*%
G04 #@! TD*
G04 #@! TA.AperFunction,ComponentPad*
%ADD21O,1.500000X1.000000*%
G04 #@! TD*
G04 #@! TA.AperFunction,ComponentPad*
%ADD22C,1.200000*%
G04 #@! TD*
G04 #@! TA.AperFunction,ComponentPad*
%ADD23R,1.200000X1.200000*%
G04 #@! TD*
G04 #@! TA.AperFunction,SMDPad,CuDef*
%ADD24R,1.295400X0.558800*%
G04 #@! TD*
G04 #@! TA.AperFunction,ViaPad*
%ADD25C,1.800000*%
G04 #@! TD*
G04 #@! TA.AperFunction,Conductor*
%ADD26C,0.850000*%
G04 #@! TD*
G04 APERTURE END LIST*
D10*
X115000000Y-140000000D02*
X115000000Y-50000000D01*
X220000000Y-140000000D02*
X115000000Y-140000000D01*
X220000000Y-50000000D02*
X220000000Y-140000000D01*
X115000000Y-50000000D02*
X220000000Y-50000000D01*
D11*
G04 #@! TO.P,CP0,2*
G04 #@! TO.N,GND*
X212329400Y-93116400D03*
D12*
G04 #@! TO.P,CP0,1*
G04 #@! TO.N,+5V*
X209829400Y-93116400D03*
G04 #@! TD*
D13*
G04 #@! TO.P,RS-485,1*
G04 #@! TO.N,/RX0*
X200736200Y-118665252D03*
G04 #@! TO.P,RS-485,2*
G04 #@! TO.N,/MISO*
X199466200Y-118665252D03*
G04 #@! TO.P,RS-485,3*
X198196200Y-118665252D03*
G04 #@! TO.P,RS-485,4*
G04 #@! TO.N,/TX1*
X196926200Y-118665252D03*
G04 #@! TO.P,RS-485,5*
G04 #@! TO.N,GND*
X196926200Y-124107948D03*
G04 #@! TO.P,RS-485,6*
G04 #@! TO.N,/A*
X198196200Y-124107948D03*
G04 #@! TO.P,RS-485,7*
G04 #@! TO.N,/B*
X199466200Y-124107948D03*
G04 #@! TO.P,RS-485,8*
G04 #@! TO.N,+3V3*
X200736200Y-124107948D03*
G04 #@! TD*
D14*
G04 #@! TO.P,R10k13,2*
G04 #@! TO.N,Net-(FET13-Pad2)*
X165354000Y-65316100D03*
D15*
G04 #@! TO.P,R10k13,1*
G04 #@! TO.N,/D5*
X165354000Y-60236100D03*
G04 #@! TD*
D14*
G04 #@! TO.P,R10k12,2*
G04 #@! TO.N,Net-(FET12-Pad2)*
X158064200Y-65189100D03*
D15*
G04 #@! TO.P,R10k12,1*
G04 #@! TO.N,/D6*
X158064200Y-60109100D03*
G04 #@! TD*
D14*
G04 #@! TO.P,R10k11,2*
G04 #@! TO.N,Net-(FET11-Pad2)*
X151130000Y-65062100D03*
D15*
G04 #@! TO.P,R10k11,1*
G04 #@! TO.N,/D9*
X151130000Y-59982100D03*
G04 #@! TD*
D14*
G04 #@! TO.P,R10k10,2*
G04 #@! TO.N,Net-(FET10-Pad2)*
X144640300Y-65201800D03*
D15*
G04 #@! TO.P,R10k10,1*
G04 #@! TO.N,/D10*
X144640300Y-60121800D03*
G04 #@! TD*
D14*
G04 #@! TO.P,R10k9,2*
G04 #@! TO.N,Net-(FET9-Pad2)*
X137833100Y-65201800D03*
D15*
G04 #@! TO.P,R10k9,1*
G04 #@! TO.N,/D11*
X137833100Y-60121800D03*
G04 #@! TD*
D14*
G04 #@! TO.P,R10k8,2*
G04 #@! TO.N,Net-(FET8-Pad2)*
X130848100Y-65354200D03*
D15*
G04 #@! TO.P,R10k8,1*
G04 #@! TO.N,/D12*
X130848100Y-60274200D03*
G04 #@! TD*
D14*
G04 #@! TO.P,R10k7,2*
G04 #@! TO.N,Net-(FET7-Pad2)*
X124244100Y-65252600D03*
D15*
G04 #@! TO.P,R10k7,1*
G04 #@! TO.N,/D13*
X124244100Y-60172600D03*
G04 #@! TD*
D14*
G04 #@! TO.P,R10k6,2*
G04 #@! TO.N,Net-(FET6-Pad2)*
X179552600Y-118135400D03*
D15*
G04 #@! TO.P,R10k6,1*
G04 #@! TO.N,N/C*
X179552600Y-123215400D03*
G04 #@! TD*
D14*
G04 #@! TO.P,R10k5,2*
G04 #@! TO.N,Net-(FET5-Pad2)*
X179539900Y-110794800D03*
D15*
G04 #@! TO.P,R10k5,1*
G04 #@! TO.N,/A5*
X179539900Y-115874800D03*
G04 #@! TD*
D14*
G04 #@! TO.P,R10k4,2*
G04 #@! TO.N,Net-(FET4-Pad2)*
X179527200Y-103555800D03*
D15*
G04 #@! TO.P,R10k4,1*
G04 #@! TO.N,/A4*
X179527200Y-108635800D03*
G04 #@! TD*
D14*
G04 #@! TO.P,R10k3,2*
G04 #@! TO.N,Net-(FET3-Pad2)*
X179514500Y-96100900D03*
D15*
G04 #@! TO.P,R10k3,1*
G04 #@! TO.N,/A3*
X179514500Y-101180900D03*
G04 #@! TD*
D14*
G04 #@! TO.P,R10k2,2*
G04 #@! TO.N,Net-(FET2-Pad2)*
X179501800Y-88861900D03*
D15*
G04 #@! TO.P,R10k2,1*
G04 #@! TO.N,/A2*
X179501800Y-93941900D03*
G04 #@! TD*
D14*
G04 #@! TO.P,R10k1,2*
G04 #@! TO.N,Net-(FET1-Pad2)*
X179374800Y-81610200D03*
D15*
G04 #@! TO.P,R10k1,1*
G04 #@! TO.N,/A1*
X179374800Y-86690200D03*
G04 #@! TD*
D14*
G04 #@! TO.P,R10k0,2*
G04 #@! TO.N,Net-(FET0-Pad2)*
X179362100Y-74358500D03*
D15*
G04 #@! TO.P,R10k0,1*
G04 #@! TO.N,/A0*
X179362100Y-79438500D03*
G04 #@! TD*
D14*
G04 #@! TO.P,R313,2*
G04 #@! TO.N,GND*
X162902900Y-60223400D03*
D15*
G04 #@! TO.P,R313,1*
G04 #@! TO.N,Net-(FET13-Pad1)*
X162902900Y-65303400D03*
G04 #@! TD*
D14*
G04 #@! TO.P,R312,2*
G04 #@! TO.N,GND*
X155562300Y-59994800D03*
D15*
G04 #@! TO.P,R312,1*
G04 #@! TO.N,Net-(FET12-Pad1)*
X155562300Y-65074800D03*
G04 #@! TD*
D14*
G04 #@! TO.P,R311,2*
G04 #@! TO.N,GND*
X148856700Y-59931300D03*
D15*
G04 #@! TO.P,R311,1*
G04 #@! TO.N,Net-(FET11-Pad1)*
X148856700Y-65011300D03*
G04 #@! TD*
D14*
G04 #@! TO.P,R310,2*
G04 #@! TO.N,GND*
X142240000Y-60045600D03*
D15*
G04 #@! TO.P,R310,1*
G04 #@! TO.N,Net-(FET10-Pad1)*
X142240000Y-65125600D03*
G04 #@! TD*
D14*
G04 #@! TO.P,R309,2*
G04 #@! TO.N,GND*
X135394700Y-60032900D03*
D15*
G04 #@! TO.P,R309,1*
G04 #@! TO.N,Net-(FET9-Pad1)*
X135394700Y-65112900D03*
G04 #@! TD*
D14*
G04 #@! TO.P,R308,2*
G04 #@! TO.N,GND*
X128549400Y-60185300D03*
D15*
G04 #@! TO.P,R308,1*
G04 #@! TO.N,Net-(FET8-Pad1)*
X128549400Y-65265300D03*
G04 #@! TD*
D14*
G04 #@! TO.P,R307,2*
G04 #@! TO.N,GND*
X121754900Y-60185300D03*
D15*
G04 #@! TO.P,R307,1*
G04 #@! TO.N,Net-(FET7-Pad1)*
X121754900Y-65265300D03*
G04 #@! TD*
D14*
G04 #@! TO.P,R306,2*
G04 #@! TO.N,/ROW6*
X169875200Y-124561600D03*
D15*
G04 #@! TO.P,R306,1*
G04 #@! TO.N,Net-(FET6-Pad1)*
X169875200Y-119481600D03*
G04 #@! TD*
D14*
G04 #@! TO.P,R305,2*
G04 #@! TO.N,/ROW5*
X169773600Y-117170200D03*
D15*
G04 #@! TO.P,R305,1*
G04 #@! TO.N,Net-(FET5-Pad1)*
X169773600Y-112090200D03*
G04 #@! TD*
D14*
G04 #@! TO.P,R304,2*
G04 #@! TO.N,/ROW4*
X169837100Y-109766100D03*
D15*
G04 #@! TO.P,R304,1*
G04 #@! TO.N,Net-(FET4-Pad1)*
X169837100Y-104686100D03*
G04 #@! TD*
D14*
G04 #@! TO.P,R303,2*
G04 #@! TO.N,/ROW3*
X169786300Y-102463600D03*
D15*
G04 #@! TO.P,R303,1*
G04 #@! TO.N,Net-(FET3-Pad1)*
X169786300Y-97383600D03*
G04 #@! TD*
D14*
G04 #@! TO.P,R302,2*
G04 #@! TO.N,/ROW2*
X169760900Y-95161100D03*
D15*
G04 #@! TO.P,R302,1*
G04 #@! TO.N,Net-(FET2-Pad1)*
X169760900Y-90081100D03*
G04 #@! TD*
D14*
G04 #@! TO.P,R301,2*
G04 #@! TO.N,/ROW1*
X169811700Y-87820500D03*
D15*
G04 #@! TO.P,R301,1*
G04 #@! TO.N,Net-(FET1-Pad1)*
X169811700Y-82740500D03*
G04 #@! TD*
D14*
G04 #@! TO.P,R300,2*
G04 #@! TO.N,/ROW0*
X169735500Y-80632300D03*
D15*
G04 #@! TO.P,R300,1*
G04 #@! TO.N,Net-(FET0-Pad1)*
X169735500Y-75552300D03*
G04 #@! TD*
D14*
G04 #@! TO.P,R11,2*
G04 #@! TO.N,Net-(Prt_IC1-Pad1)*
X184213500Y-121272300D03*
D15*
G04 #@! TO.P,R11,1*
G04 #@! TO.N,/B*
X184213500Y-128892300D03*
G04 #@! TD*
D14*
G04 #@! TO.P,R10,2*
G04 #@! TO.N,Net-(Prt_IC1-Pad2)*
X188518800Y-120967500D03*
D15*
G04 #@! TO.P,R10,1*
G04 #@! TO.N,/A*
X188518800Y-128587500D03*
G04 #@! TD*
D16*
G04 #@! TO.P,LED6_6,2*
G04 #@! TO.N,/ROW6*
X163924000Y-126255000D03*
D17*
G04 #@! TO.P,LED6_6,1*
G04 #@! TO.N,/COL6*
X163924000Y-123715000D03*
G04 #@! TD*
D16*
G04 #@! TO.P,LED6_5,2*
G04 #@! TO.N,/ROW6*
X156924000Y-126255000D03*
D17*
G04 #@! TO.P,LED6_5,1*
G04 #@! TO.N,/COL5*
X156924000Y-123715000D03*
G04 #@! TD*
D16*
G04 #@! TO.P,LED6_4,2*
G04 #@! TO.N,/ROW6*
X149924000Y-126255000D03*
D17*
G04 #@! TO.P,LED6_4,1*
G04 #@! TO.N,/COL4*
X149924000Y-123715000D03*
G04 #@! TD*
D16*
G04 #@! TO.P,LED6_3,2*
G04 #@! TO.N,/ROW6*
X142924000Y-126255000D03*
D17*
G04 #@! TO.P,LED6_3,1*
G04 #@! TO.N,/COL3*
X142924000Y-123715000D03*
G04 #@! TD*
D16*
G04 #@! TO.P,LED6_2,2*
G04 #@! TO.N,/ROW6*
X135924000Y-126255000D03*
D17*
G04 #@! TO.P,LED6_2,1*
G04 #@! TO.N,/COL2*
X135924000Y-123715000D03*
G04 #@! TD*
D16*
G04 #@! TO.P,LED6_1,2*
G04 #@! TO.N,/ROW6*
X128924000Y-126255000D03*
D17*
G04 #@! TO.P,LED6_1,1*
G04 #@! TO.N,/COL1*
X128924000Y-123715000D03*
G04 #@! TD*
D16*
G04 #@! TO.P,LED6_0,2*
G04 #@! TO.N,/ROW6*
X121924000Y-126255000D03*
D17*
G04 #@! TO.P,LED6_0,1*
G04 #@! TO.N,/COL0*
X121924000Y-123715000D03*
G04 #@! TD*
D16*
G04 #@! TO.P,LED5_6,2*
G04 #@! TO.N,/ROW5*
X163924000Y-118255000D03*
D17*
G04 #@! TO.P,LED5_6,1*
G04 #@! TO.N,/COL6*
X163924000Y-115715000D03*
G04 #@! TD*
D16*
G04 #@! TO.P,LED5_5,2*
G04 #@! TO.N,/ROW5*
X156924000Y-118255000D03*
D17*
G04 #@! TO.P,LED5_5,1*
G04 #@! TO.N,/COL5*
X156924000Y-115715000D03*
G04 #@! TD*
D16*
G04 #@! TO.P,LED5_4,2*
G04 #@! TO.N,/ROW5*
X149924000Y-118255000D03*
D17*
G04 #@! TO.P,LED5_4,1*
G04 #@! TO.N,/COL4*
X149924000Y-115715000D03*
G04 #@! TD*
D16*
G04 #@! TO.P,LED5_3,2*
G04 #@! TO.N,/ROW5*
X142924000Y-118255000D03*
D17*
G04 #@! TO.P,LED5_3,1*
G04 #@! TO.N,/COL3*
X142924000Y-115715000D03*
G04 #@! TD*
D16*
G04 #@! TO.P,LED5_2,2*
G04 #@! TO.N,/ROW5*
X135924000Y-118255000D03*
D17*
G04 #@! TO.P,LED5_2,1*
G04 #@! TO.N,/COL2*
X135924000Y-115715000D03*
G04 #@! TD*
D16*
G04 #@! TO.P,LED5_1,2*
G04 #@! TO.N,/ROW5*
X128924000Y-118255000D03*
D17*
G04 #@! TO.P,LED5_1,1*
G04 #@! TO.N,/COL1*
X128924000Y-115715000D03*
G04 #@! TD*
D16*
G04 #@! TO.P,LED5_0,2*
G04 #@! TO.N,/ROW5*
X121924000Y-118255000D03*
D17*
G04 #@! TO.P,LED5_0,1*
G04 #@! TO.N,/COL0*
X121924000Y-115715000D03*
G04 #@! TD*
D16*
G04 #@! TO.P,LED4_6,2*
G04 #@! TO.N,/ROW4*
X163924000Y-110255000D03*
D17*
G04 #@! TO.P,LED4_6,1*
G04 #@! TO.N,/COL6*
X163924000Y-107715000D03*
G04 #@! TD*
D16*
G04 #@! TO.P,LED4_5,2*
G04 #@! TO.N,/ROW4*
X156924000Y-110255000D03*
D17*
G04 #@! TO.P,LED4_5,1*
G04 #@! TO.N,/COL5*
X156924000Y-107715000D03*
G04 #@! TD*
D16*
G04 #@! TO.P,LED4_4,2*
G04 #@! TO.N,/ROW4*
X149924000Y-110255000D03*
D17*
G04 #@! TO.P,LED4_4,1*
G04 #@! TO.N,/COL4*
X149924000Y-107715000D03*
G04 #@! TD*
D16*
G04 #@! TO.P,LED4_3,2*
G04 #@! TO.N,/ROW4*
X142924000Y-110255000D03*
D17*
G04 #@! TO.P,LED4_3,1*
G04 #@! TO.N,/COL3*
X142924000Y-107715000D03*
G04 #@! TD*
D16*
G04 #@! TO.P,LED4_2,2*
G04 #@! TO.N,/ROW4*
X135924000Y-110255000D03*
D17*
G04 #@! TO.P,LED4_2,1*
G04 #@! TO.N,/COL2*
X135924000Y-107715000D03*
G04 #@! TD*
D16*
G04 #@! TO.P,LED4_1,2*
G04 #@! TO.N,/ROW4*
X128924000Y-110255000D03*
D17*
G04 #@! TO.P,LED4_1,1*
G04 #@! TO.N,/COL1*
X128924000Y-107715000D03*
G04 #@! TD*
D16*
G04 #@! TO.P,LED4_0,2*
G04 #@! TO.N,/ROW4*
X121924000Y-110255000D03*
D17*
G04 #@! TO.P,LED4_0,1*
G04 #@! TO.N,/COL0*
X121924000Y-107715000D03*
G04 #@! TD*
D16*
G04 #@! TO.P,LED3_6,2*
G04 #@! TO.N,/ROW3*
X163924000Y-102255000D03*
D17*
G04 #@! TO.P,LED3_6,1*
G04 #@! TO.N,/COL6*
X163924000Y-99715000D03*
G04 #@! TD*
D16*
G04 #@! TO.P,LED3_5,2*
G04 #@! TO.N,/ROW3*
X156924000Y-102255000D03*
D17*
G04 #@! TO.P,LED3_5,1*
G04 #@! TO.N,/COL5*
X156924000Y-99715000D03*
G04 #@! TD*
D16*
G04 #@! TO.P,LED3_4,2*
G04 #@! TO.N,/ROW3*
X149924000Y-102255000D03*
D17*
G04 #@! TO.P,LED3_4,1*
G04 #@! TO.N,/COL4*
X149924000Y-99715000D03*
G04 #@! TD*
D16*
G04 #@! TO.P,LED3_3,2*
G04 #@! TO.N,/ROW3*
X142924000Y-102255000D03*
D17*
G04 #@! TO.P,LED3_3,1*
G04 #@! TO.N,/COL3*
X142924000Y-99715000D03*
G04 #@! TD*
D16*
G04 #@! TO.P,LED3_2,2*
G04 #@! TO.N,/ROW3*
X135924000Y-102255000D03*
D17*
G04 #@! TO.P,LED3_2,1*
G04 #@! TO.N,/COL2*
X135924000Y-99715000D03*
G04 #@! TD*
D16*
G04 #@! TO.P,LED3_1,2*
G04 #@! TO.N,/ROW3*
X128924000Y-102255000D03*
D17*
G04 #@! TO.P,LED3_1,1*
G04 #@! TO.N,/COL1*
X128924000Y-99715000D03*
G04 #@! TD*
D16*
G04 #@! TO.P,LED3_0,2*
G04 #@! TO.N,/ROW3*
X121924000Y-102255000D03*
D17*
G04 #@! TO.P,LED3_0,1*
G04 #@! TO.N,/COL0*
X121924000Y-99715000D03*
G04 #@! TD*
D16*
G04 #@! TO.P,LED2_6,2*
G04 #@! TO.N,/ROW2*
X163924000Y-94255000D03*
D17*
G04 #@! TO.P,LED2_6,1*
G04 #@! TO.N,/COL6*
X163924000Y-91715000D03*
G04 #@! TD*
D16*
G04 #@! TO.P,LED2_5,2*
G04 #@! TO.N,/ROW2*
X156924000Y-94255000D03*
D17*
G04 #@! TO.P,LED2_5,1*
G04 #@! TO.N,/COL5*
X156924000Y-91715000D03*
G04 #@! TD*
D16*
G04 #@! TO.P,LED2_4,2*
G04 #@! TO.N,/ROW2*
X149924000Y-94255000D03*
D17*
G04 #@! TO.P,LED2_4,1*
G04 #@! TO.N,/COL4*
X149924000Y-91715000D03*
G04 #@! TD*
D16*
G04 #@! TO.P,LED2_3,2*
G04 #@! TO.N,/ROW2*
X142924000Y-94255000D03*
D17*
G04 #@! TO.P,LED2_3,1*
G04 #@! TO.N,/COL3*
X142924000Y-91715000D03*
G04 #@! TD*
D16*
G04 #@! TO.P,LED2_2,2*
G04 #@! TO.N,/ROW2*
X135924000Y-94255000D03*
D17*
G04 #@! TO.P,LED2_2,1*
G04 #@! TO.N,/COL2*
X135924000Y-91715000D03*
G04 #@! TD*
D16*
G04 #@! TO.P,LED2_1,2*
G04 #@! TO.N,/ROW2*
X128924000Y-94255000D03*
D17*
G04 #@! TO.P,LED2_1,1*
G04 #@! TO.N,/COL1*
X128924000Y-91715000D03*
G04 #@! TD*
D16*
G04 #@! TO.P,LED2_0,2*
G04 #@! TO.N,/ROW2*
X121924000Y-94255000D03*
D17*
G04 #@! TO.P,LED2_0,1*
G04 #@! TO.N,/COL0*
X121924000Y-91715000D03*
G04 #@! TD*
D16*
G04 #@! TO.P,LED1_6,2*
G04 #@! TO.N,/ROW1*
X163924000Y-86255000D03*
D17*
G04 #@! TO.P,LED1_6,1*
G04 #@! TO.N,/COL6*
X163924000Y-83715000D03*
G04 #@! TD*
D16*
G04 #@! TO.P,LED1_5,2*
G04 #@! TO.N,/ROW1*
X156924000Y-86255000D03*
D17*
G04 #@! TO.P,LED1_5,1*
G04 #@! TO.N,/COL5*
X156924000Y-83715000D03*
G04 #@! TD*
D16*
G04 #@! TO.P,LED1_4,2*
G04 #@! TO.N,/ROW1*
X149924000Y-86255000D03*
D17*
G04 #@! TO.P,LED1_4,1*
G04 #@! TO.N,/COL4*
X149924000Y-83715000D03*
G04 #@! TD*
D16*
G04 #@! TO.P,LED1_3,2*
G04 #@! TO.N,/ROW1*
X142924000Y-86255000D03*
D17*
G04 #@! TO.P,LED1_3,1*
G04 #@! TO.N,/COL3*
X142924000Y-83715000D03*
G04 #@! TD*
D16*
G04 #@! TO.P,LED1_2,2*
G04 #@! TO.N,/ROW1*
X135924000Y-86255000D03*
D17*
G04 #@! TO.P,LED1_2,1*
G04 #@! TO.N,/COL2*
X135924000Y-83715000D03*
G04 #@! TD*
D16*
G04 #@! TO.P,LED1_1,2*
G04 #@! TO.N,/ROW1*
X128924000Y-86255000D03*
D17*
G04 #@! TO.P,LED1_1,1*
G04 #@! TO.N,/COL1*
X128924000Y-83715000D03*
G04 #@! TD*
D16*
G04 #@! TO.P,LED1_0,2*
G04 #@! TO.N,/ROW1*
X121924000Y-86255000D03*
D17*
G04 #@! TO.P,LED1_0,1*
G04 #@! TO.N,/COL0*
X121924000Y-83715000D03*
G04 #@! TD*
D16*
G04 #@! TO.P,LED0_6,2*
G04 #@! TO.N,/ROW0*
X163924000Y-78255000D03*
D17*
G04 #@! TO.P,LED0_6,1*
G04 #@! TO.N,/COL6*
X163924000Y-75715000D03*
G04 #@! TD*
D16*
G04 #@! TO.P,LED0_5,2*
G04 #@! TO.N,/ROW0*
X156924000Y-78255000D03*
D17*
G04 #@! TO.P,LED0_5,1*
G04 #@! TO.N,/COL5*
X156924000Y-75715000D03*
G04 #@! TD*
D16*
G04 #@! TO.P,LED0_4,2*
G04 #@! TO.N,/ROW0*
X149924000Y-78255000D03*
D17*
G04 #@! TO.P,LED0_4,1*
G04 #@! TO.N,/COL4*
X149924000Y-75715000D03*
G04 #@! TD*
D16*
G04 #@! TO.P,LED0_3,2*
G04 #@! TO.N,/ROW0*
X142924000Y-78255000D03*
D17*
G04 #@! TO.P,LED0_3,1*
G04 #@! TO.N,/COL3*
X142924000Y-75715000D03*
G04 #@! TD*
D16*
G04 #@! TO.P,LED0_2,2*
G04 #@! TO.N,/ROW0*
X135924000Y-78255000D03*
D17*
G04 #@! TO.P,LED0_2,1*
G04 #@! TO.N,/COL2*
X135924000Y-75715000D03*
G04 #@! TD*
D16*
G04 #@! TO.P,LED0_1,2*
G04 #@! TO.N,/ROW0*
X128924000Y-78255000D03*
D17*
G04 #@! TO.P,LED0_1,1*
G04 #@! TO.N,/COL1*
X128924000Y-75715000D03*
G04 #@! TD*
D16*
G04 #@! TO.P,LED0_0,2*
G04 #@! TO.N,/ROW0*
X121924000Y-78255000D03*
D17*
G04 #@! TO.P,LED0_0,1*
G04 #@! TO.N,/COL0*
X121924000Y-75715000D03*
G04 #@! TD*
G04 #@! TO.P,GND1,1*
G04 #@! TO.N,GND*
X205511400Y-130048000D03*
G04 #@! TD*
D18*
G04 #@! TO.P,FET13,1*
G04 #@! TO.N,Net-(FET13-Pad1)*
X163652200Y-69113400D03*
D19*
G04 #@! TO.P,FET13,3*
G04 #@! TO.N,/COL6*
X166192200Y-69113400D03*
G04 #@! TO.P,FET13,2*
G04 #@! TO.N,Net-(FET13-Pad2)*
X164922200Y-69113400D03*
G04 #@! TD*
D18*
G04 #@! TO.P,FET12,1*
G04 #@! TO.N,Net-(FET12-Pad1)*
X156616400Y-69113400D03*
D19*
G04 #@! TO.P,FET12,3*
G04 #@! TO.N,/COL5*
X159156400Y-69113400D03*
G04 #@! TO.P,FET12,2*
G04 #@! TO.N,Net-(FET12-Pad2)*
X157886400Y-69113400D03*
G04 #@! TD*
D18*
G04 #@! TO.P,FET11,1*
G04 #@! TO.N,Net-(FET11-Pad1)*
X149847300Y-69024500D03*
D19*
G04 #@! TO.P,FET11,3*
G04 #@! TO.N,/COL4*
X152387300Y-69024500D03*
G04 #@! TO.P,FET11,2*
G04 #@! TO.N,Net-(FET11-Pad2)*
X151117300Y-69024500D03*
G04 #@! TD*
D18*
G04 #@! TO.P,FET10,1*
G04 #@! TO.N,Net-(FET10-Pad1)*
X143179800Y-68922900D03*
D19*
G04 #@! TO.P,FET10,3*
G04 #@! TO.N,/COL3*
X145719800Y-68922900D03*
G04 #@! TO.P,FET10,2*
G04 #@! TO.N,Net-(FET10-Pad2)*
X144449800Y-68922900D03*
G04 #@! TD*
D18*
G04 #@! TO.P,FET9,1*
G04 #@! TO.N,Net-(FET9-Pad1)*
X136283700Y-68910200D03*
D19*
G04 #@! TO.P,FET9,3*
G04 #@! TO.N,/COL2*
X138823700Y-68910200D03*
G04 #@! TO.P,FET9,2*
G04 #@! TO.N,Net-(FET9-Pad2)*
X137553700Y-68910200D03*
G04 #@! TD*
D18*
G04 #@! TO.P,FET8,1*
G04 #@! TO.N,Net-(FET8-Pad1)*
X129400300Y-68961000D03*
D19*
G04 #@! TO.P,FET8,3*
G04 #@! TO.N,/COL1*
X131940300Y-68961000D03*
G04 #@! TO.P,FET8,2*
G04 #@! TO.N,Net-(FET8-Pad2)*
X130670300Y-68961000D03*
G04 #@! TD*
D18*
G04 #@! TO.P,FET7,1*
G04 #@! TO.N,Net-(FET7-Pad1)*
X122593100Y-68961000D03*
D19*
G04 #@! TO.P,FET7,3*
G04 #@! TO.N,/COL0*
X125133100Y-68961000D03*
G04 #@! TO.P,FET7,2*
G04 #@! TO.N,Net-(FET7-Pad2)*
X123863100Y-68961000D03*
G04 #@! TD*
D20*
G04 #@! TO.P,FET6,1*
G04 #@! TO.N,Net-(FET6-Pad1)*
X174472600Y-119481600D03*
D21*
G04 #@! TO.P,FET6,3*
G04 #@! TO.N,+5V*
X174472600Y-116941600D03*
G04 #@! TO.P,FET6,2*
G04 #@! TO.N,Net-(FET6-Pad2)*
X174472600Y-118211600D03*
G04 #@! TD*
D20*
G04 #@! TO.P,FET5,1*
G04 #@! TO.N,Net-(FET5-Pad1)*
X174574200Y-112090200D03*
D21*
G04 #@! TO.P,FET5,3*
G04 #@! TO.N,+5V*
X174574200Y-109550200D03*
G04 #@! TO.P,FET5,2*
G04 #@! TO.N,Net-(FET5-Pad2)*
X174574200Y-110820200D03*
G04 #@! TD*
D20*
G04 #@! TO.P,FET4,1*
G04 #@! TO.N,Net-(FET4-Pad1)*
X174586900Y-104762300D03*
D21*
G04 #@! TO.P,FET4,3*
G04 #@! TO.N,+5V*
X174586900Y-102222300D03*
G04 #@! TO.P,FET4,2*
G04 #@! TO.N,Net-(FET4-Pad2)*
X174586900Y-103492300D03*
G04 #@! TD*
D20*
G04 #@! TO.P,FET3,1*
G04 #@! TO.N,Net-(FET3-Pad1)*
X174637700Y-97383600D03*
D21*
G04 #@! TO.P,FET3,3*
G04 #@! TO.N,+5V*
X174637700Y-94843600D03*
G04 #@! TO.P,FET3,2*
G04 #@! TO.N,Net-(FET3-Pad2)*
X174637700Y-96113600D03*
G04 #@! TD*
D20*
G04 #@! TO.P,FET2,1*
G04 #@! TO.N,Net-(FET2-Pad1)*
X174574200Y-90081100D03*
D21*
G04 #@! TO.P,FET2,3*
G04 #@! TO.N,+5V*
X174574200Y-87541100D03*
G04 #@! TO.P,FET2,2*
G04 #@! TO.N,Net-(FET2-Pad2)*
X174574200Y-88811100D03*
G04 #@! TD*
D20*
G04 #@! TO.P,FET1,1*
G04 #@! TO.N,Net-(FET1-Pad1)*
X174561500Y-82842100D03*
D21*
G04 #@! TO.P,FET1,3*
G04 #@! TO.N,+5V*
X174561500Y-80302100D03*
G04 #@! TO.P,FET1,2*
G04 #@! TO.N,Net-(FET1-Pad2)*
X174561500Y-81572100D03*
G04 #@! TD*
D20*
G04 #@! TO.P,FET0,1*
G04 #@! TO.N,Net-(FET0-Pad1)*
X174498000Y-75526900D03*
D21*
G04 #@! TO.P,FET0,3*
G04 #@! TO.N,+5V*
X174498000Y-72986900D03*
G04 #@! TO.P,FET0,2*
G04 #@! TO.N,Net-(FET0-Pad2)*
X174498000Y-74256900D03*
G04 #@! TD*
D17*
G04 #@! TO.P,COMMS1,1*
G04 #@! TO.N,/A*
X195097400Y-128638300D03*
D16*
G04 #@! TO.P,COMMS1,2*
G04 #@! TO.N,/B*
X195097400Y-131178300D03*
G04 #@! TD*
G04 #@! TO.P,COMMS0,2*
G04 #@! TO.N,/B*
X199123300Y-131191000D03*
D17*
G04 #@! TO.P,COMMS0,1*
G04 #@! TO.N,/A*
X199123300Y-128651000D03*
G04 #@! TD*
D16*
G04 #@! TO.P,+5VIN1,2*
G04 #@! TO.N,+5V*
X209575400Y-75361800D03*
D17*
G04 #@! TO.P,+5VIN1,1*
G04 #@! TO.N,GND*
X212115400Y-75361800D03*
G04 #@! TD*
D22*
G04 #@! TO.P,C0.1nF0,2*
G04 #@! TO.N,+3V3*
X203689200Y-124180600D03*
D23*
G04 #@! TO.P,C0.1nF0,1*
G04 #@! TO.N,GND*
X205689200Y-124180600D03*
G04 #@! TD*
D24*
G04 #@! TO.P,Prt_IC1,3*
G04 #@! TO.N,GND*
X193979800Y-121323100D03*
G04 #@! TO.P,Prt_IC1,2*
G04 #@! TO.N,Net-(Prt_IC1-Pad2)*
X192074800Y-122273101D03*
G04 #@! TO.P,Prt_IC1,1*
G04 #@! TO.N,Net-(Prt_IC1-Pad1)*
X192074800Y-120373099D03*
G04 #@! TD*
D16*
G04 #@! TO.P,J3,12*
G04 #@! TO.N,N/C*
X204812900Y-115951000D03*
G04 #@! TO.P,J3,11*
X204812900Y-113411000D03*
G04 #@! TO.P,J3,10*
G04 #@! TO.N,/D5*
X204812900Y-110871000D03*
G04 #@! TO.P,J3,9*
G04 #@! TO.N,/D6*
X204812900Y-108331000D03*
G04 #@! TO.P,J3,8*
G04 #@! TO.N,/D9*
X204812900Y-105791000D03*
G04 #@! TO.P,J3,7*
G04 #@! TO.N,/D10*
X204812900Y-103251000D03*
G04 #@! TO.P,J3,6*
G04 #@! TO.N,/D11*
X204812900Y-100711000D03*
G04 #@! TO.P,J3,5*
G04 #@! TO.N,/D12*
X204812900Y-98171000D03*
G04 #@! TO.P,J3,4*
G04 #@! TO.N,/D13*
X204812900Y-95631000D03*
G04 #@! TO.P,J3,3*
G04 #@! TO.N,+5V*
X204812900Y-93091000D03*
G04 #@! TO.P,J3,2*
G04 #@! TO.N,N/C*
X204812900Y-90551000D03*
D17*
G04 #@! TO.P,J3,1*
X204812900Y-88011000D03*
G04 #@! TD*
D16*
G04 #@! TO.P,J2,16*
G04 #@! TO.N,GND*
X184492900Y-115951000D03*
G04 #@! TO.P,J2,15*
G04 #@! TO.N,/TX1*
X184492900Y-113411000D03*
G04 #@! TO.P,J2,14*
G04 #@! TO.N,/RX0*
X184492900Y-110871000D03*
G04 #@! TO.P,J2,13*
G04 #@! TO.N,/MISO*
X184492900Y-108331000D03*
G04 #@! TO.P,J2,12*
G04 #@! TO.N,N/C*
X184492900Y-105791000D03*
G04 #@! TO.P,J2,11*
X184492900Y-103251000D03*
G04 #@! TO.P,J2,10*
G04 #@! TO.N,/A5*
X184492900Y-100711000D03*
G04 #@! TO.P,J2,9*
G04 #@! TO.N,/A4*
X184492900Y-98171000D03*
G04 #@! TO.P,J2,8*
G04 #@! TO.N,/A3*
X184492900Y-95631000D03*
G04 #@! TO.P,J2,7*
G04 #@! TO.N,/A2*
X184492900Y-93091000D03*
G04 #@! TO.P,J2,6*
G04 #@! TO.N,/A1*
X184492900Y-90551000D03*
G04 #@! TO.P,J2,5*
G04 #@! TO.N,/A0*
X184492900Y-88011000D03*
G04 #@! TO.P,J2,4*
G04 #@! TO.N,GND*
X184492900Y-85471000D03*
G04 #@! TO.P,J2,3*
G04 #@! TO.N,N/C*
X184492900Y-82931000D03*
G04 #@! TO.P,J2,2*
G04 #@! TO.N,+3V3*
X184492900Y-80391000D03*
D17*
G04 #@! TO.P,J2,1*
G04 #@! TO.N,N/C*
X184492900Y-77851000D03*
G04 #@! TD*
D25*
G04 #@! TO.N,GND*
X195275200Y-125831600D03*
G04 #@! TO.N,/RX0*
X187756800Y-106514900D03*
G04 #@! TD*
D26*
G04 #@! TO.N,GND*
X194141352Y-121323100D02*
X196926200Y-124107948D01*
X193979800Y-121323100D02*
X194141352Y-121323100D01*
X196545200Y-124612400D02*
X195326000Y-125831600D01*
X195707000Y-125425200D02*
X195707000Y-125425200D01*
X196926200Y-124231400D02*
X196545200Y-124612400D01*
X196926200Y-124107948D02*
X196926200Y-124231400D01*
G04 #@! TO.N,/TX1*
X185694981Y-113411000D02*
X184492900Y-113411000D01*
X190537948Y-113411000D02*
X185694981Y-113411000D01*
X195792200Y-118665252D02*
X190537948Y-113411000D01*
X196926200Y-118665252D02*
X195792200Y-118665252D01*
G04 #@! TO.N,/RX0*
X190163297Y-106514900D02*
X189029592Y-106514900D01*
X189029592Y-106514900D02*
X187756800Y-106514900D01*
X200736200Y-117087803D02*
X190163297Y-106514900D01*
X200736200Y-118665252D02*
X200736200Y-117087803D01*
G04 #@! TO.N,/MISO*
X199466200Y-118665252D02*
X198196200Y-118665252D01*
X189439397Y-108331000D02*
X185694981Y-108331000D01*
X185694981Y-108331000D02*
X184492900Y-108331000D01*
X198196200Y-117087803D02*
X189439397Y-108331000D01*
X198196200Y-118665252D02*
X198196200Y-117087803D01*
G04 #@! TO.N,/D11*
X204812900Y-100711000D02*
X192417700Y-100711000D01*
X192417700Y-100711000D02*
X189077600Y-97370900D01*
X189077600Y-97370900D02*
X189077600Y-74523600D01*
X189077600Y-74523600D02*
X182905400Y-68351400D01*
X182905400Y-68351400D02*
X172402500Y-68351400D01*
X172402500Y-68351400D02*
X169138600Y-65087500D01*
X169138600Y-65087500D02*
X169138600Y-59436000D01*
X169138600Y-59436000D02*
X167525700Y-57823100D01*
X140131800Y-57823100D02*
X137833100Y-60121800D01*
X167525700Y-57823100D02*
X140131800Y-57823100D01*
G04 #@! TO.N,/D12*
X204812900Y-98171000D02*
X194348100Y-98171000D01*
X194348100Y-98171000D02*
X191465200Y-95288100D01*
X191465200Y-95288100D02*
X191465200Y-73837800D01*
X191465200Y-73837800D02*
X183870600Y-66243200D01*
X183870600Y-66243200D02*
X173520100Y-66243200D01*
X173520100Y-66243200D02*
X170815000Y-63538100D01*
X170815000Y-63538100D02*
X170815000Y-58534300D01*
X170815000Y-58534300D02*
X168846500Y-56565800D01*
X134556500Y-56565800D02*
X130848100Y-60274200D01*
X168846500Y-56565800D02*
X134556500Y-56565800D01*
G04 #@! TO.N,+5V*
X172135800Y-116204800D02*
X172135800Y-110388600D01*
X172974200Y-109550200D02*
X174574200Y-109550200D01*
X172135800Y-110388600D02*
X172974200Y-109550200D01*
X174472600Y-116941600D02*
X172872600Y-116941600D01*
X172986900Y-102222300D02*
X174586900Y-102222300D01*
X172135800Y-103073400D02*
X172986900Y-102222300D01*
X172135800Y-108775500D02*
X172135800Y-103073400D01*
X172910500Y-109550200D02*
X172135800Y-108775500D01*
X172974200Y-109550200D02*
X172910500Y-109550200D01*
X172986900Y-102222300D02*
X172948600Y-102222300D01*
X172948600Y-102222300D02*
X172262800Y-101536500D01*
X172262800Y-101536500D02*
X172262800Y-95554800D01*
X172974000Y-94843600D02*
X174637700Y-94843600D01*
X172262800Y-95554800D02*
X172974000Y-94843600D01*
X172974000Y-94843600D02*
X172974000Y-94818200D01*
X172974000Y-94818200D02*
X172364400Y-94208600D01*
X172364400Y-88150900D02*
X172974200Y-87541100D01*
X172974200Y-87541100D02*
X174574200Y-87541100D01*
X172364400Y-94208600D02*
X172364400Y-88150900D01*
X172542200Y-86969600D02*
X172542200Y-80721400D01*
X172961500Y-80302100D02*
X174561500Y-80302100D01*
X172974200Y-87401600D02*
X172542200Y-86969600D01*
X172542200Y-80721400D02*
X172961500Y-80302100D01*
X172974200Y-87541100D02*
X172974200Y-87401600D01*
X172898000Y-72986900D02*
X174498000Y-72986900D01*
X172453300Y-73431600D02*
X172898000Y-72986900D01*
X172453300Y-79629000D02*
X172453300Y-73431600D01*
X172961500Y-80137200D02*
X172453300Y-79629000D01*
X172961500Y-80302100D02*
X172961500Y-80137200D01*
X204838300Y-93116400D02*
X204812900Y-93091000D01*
X209829400Y-93116400D02*
X204838300Y-93116400D01*
X209575400Y-92862400D02*
X209829400Y-93116400D01*
X209575400Y-75361800D02*
X209575400Y-92862400D01*
X209829400Y-94766400D02*
X209867500Y-94804500D01*
X209829400Y-93116400D02*
X209829400Y-94766400D01*
X209867500Y-94804500D02*
X209867500Y-132880100D01*
X209867500Y-132880100D02*
X208699100Y-134048500D01*
X208699100Y-134048500D02*
X182740300Y-134048500D01*
X182740300Y-134048500D02*
X172427900Y-123736100D01*
X172427900Y-123736100D02*
X172427900Y-116827300D01*
X172872600Y-116941600D02*
X172427900Y-116827300D01*
X172427900Y-116827300D02*
X172135800Y-116204800D01*
G04 #@! TO.N,+3V3*
X200808852Y-124180600D02*
X200736200Y-124107948D01*
X203689200Y-124180600D02*
X200808852Y-124180600D01*
X186220100Y-80391000D02*
X184492900Y-80391000D01*
X187032900Y-81203800D02*
X186220100Y-80391000D01*
X203089201Y-123580601D02*
X203089201Y-117262601D01*
X188264800Y-104546400D02*
X187032900Y-103314500D01*
X203689200Y-124180600D02*
X203089201Y-123580601D01*
X203089201Y-117262601D02*
X190373000Y-104546400D01*
X190373000Y-104546400D02*
X188264800Y-104546400D01*
X187032900Y-103314500D02*
X187032900Y-81203800D01*
G04 #@! TO.N,Net-(Prt_IC1-Pad2)*
X189824401Y-122273101D02*
X188518800Y-120967500D01*
X192074800Y-122273101D02*
X189824401Y-122273101D01*
G04 #@! TO.N,Net-(Prt_IC1-Pad1)*
X190577100Y-120373099D02*
X189152201Y-118948200D01*
X192074800Y-120373099D02*
X190577100Y-120373099D01*
X186537600Y-118948200D02*
X184213500Y-121272300D01*
X189152201Y-118948200D02*
X186537600Y-118948200D01*
G04 #@! TO.N,/A5*
X183290819Y-100711000D02*
X181610000Y-102391819D01*
X184492900Y-100711000D02*
X183290819Y-100711000D01*
X181610000Y-113804700D02*
X179539900Y-115874800D01*
X181610000Y-102391819D02*
X181610000Y-113804700D01*
G04 #@! TO.N,/A3*
X179514500Y-100609400D02*
X179514500Y-101180900D01*
X184492900Y-95631000D02*
X179514500Y-100609400D01*
G04 #@! TO.N,/A2*
X180352700Y-93091000D02*
X179501800Y-93941900D01*
X184492900Y-93091000D02*
X180352700Y-93091000D01*
G04 #@! TO.N,/A1*
X183290819Y-90551000D02*
X181660800Y-88920981D01*
X184492900Y-90551000D02*
X183290819Y-90551000D01*
X181660800Y-88920981D02*
X181660800Y-88188800D01*
X181660800Y-88188800D02*
X181698900Y-88150700D01*
X181698900Y-88150700D02*
X181698900Y-87553800D01*
X180835300Y-86690200D02*
X179374800Y-86690200D01*
X181698900Y-87553800D02*
X180835300Y-86690200D01*
G04 #@! TO.N,/D13*
X203962901Y-96480999D02*
X196036299Y-96480999D01*
X204812900Y-95631000D02*
X203962901Y-96480999D01*
X196036299Y-96480999D02*
X193802000Y-94246700D01*
X193802000Y-94246700D02*
X193802000Y-73304400D01*
X193802000Y-73304400D02*
X184429400Y-63931800D01*
X184429400Y-63931800D02*
X173685200Y-63931800D01*
X173685200Y-63931800D02*
X172796200Y-63042800D01*
X172796200Y-63042800D02*
X172796200Y-57683400D01*
X172796200Y-57683400D02*
X169989500Y-54876700D01*
X129540000Y-54876700D02*
X124244100Y-60172600D01*
X169989500Y-54876700D02*
X129540000Y-54876700D01*
G04 #@! TO.N,/ROW6*
X169175201Y-125261599D02*
X168768801Y-125261599D01*
X169875200Y-124561600D02*
X169175201Y-125261599D01*
X167775400Y-126255000D02*
X163924000Y-126255000D01*
X168768801Y-125261599D02*
X167775400Y-126255000D01*
X163924000Y-126255000D02*
X121924000Y-126255000D01*
G04 #@! TO.N,/B*
X199466200Y-124974400D02*
X201815700Y-127323900D01*
X199466200Y-124107948D02*
X199466200Y-124974400D01*
X201815700Y-129700681D02*
X200325381Y-131191000D01*
X200325381Y-131191000D02*
X199123300Y-131191000D01*
X201815700Y-127323900D02*
X201815700Y-129700681D01*
G04 #@! TO.N,/A*
X198196200Y-127723900D02*
X198196200Y-124107948D01*
X199123300Y-128651000D02*
X198196200Y-127723900D01*
G04 #@! TO.N,Net-(FET7-Pad2)*
X123863100Y-65633600D02*
X123863100Y-68961000D01*
X124244100Y-65252600D02*
X123863100Y-65633600D01*
G04 #@! TO.N,Net-(FET8-Pad2)*
X130670300Y-65532000D02*
X130848100Y-65354200D01*
X130670300Y-68961000D02*
X130670300Y-65532000D01*
G04 #@! TO.N,Net-(FET9-Pad2)*
X137553700Y-65481200D02*
X137833100Y-65201800D01*
X137553700Y-68910200D02*
X137553700Y-65481200D01*
G04 #@! TO.N,Net-(FET10-Pad2)*
X144449800Y-65392300D02*
X144640300Y-65201800D01*
X144449800Y-68922900D02*
X144449800Y-65392300D01*
G04 #@! TO.N,Net-(FET11-Pad2)*
X151117300Y-65074800D02*
X151130000Y-65062100D01*
X151117300Y-69024500D02*
X151117300Y-65074800D01*
G04 #@! TO.N,Net-(FET12-Pad2)*
X157886400Y-65366900D02*
X158064200Y-65189100D01*
X157886400Y-69113400D02*
X157886400Y-65366900D01*
G04 #@! TO.N,Net-(FET13-Pad2)*
X164922200Y-65747900D02*
X164922200Y-69113400D01*
X165354000Y-65316100D02*
X164922200Y-65747900D01*
G04 #@! TO.N,/ROW0*
X150209002Y-78255000D02*
X163924000Y-78255000D01*
X121924000Y-78255000D02*
X150209002Y-78255000D01*
X169735500Y-80632300D02*
X167894000Y-80632300D01*
X165516700Y-78255000D02*
X163924000Y-78255000D01*
X167894000Y-80632300D02*
X165516700Y-78255000D01*
G04 #@! TO.N,/ROW1*
X121924000Y-86255000D02*
X163924000Y-86255000D01*
X169811700Y-87820500D02*
X167246300Y-87820500D01*
X165680800Y-86255000D02*
X163924000Y-86255000D01*
X167246300Y-87820500D02*
X165680800Y-86255000D01*
G04 #@! TO.N,/ROW2*
X121924000Y-94255000D02*
X163924000Y-94255000D01*
X164830100Y-95161100D02*
X163924000Y-94255000D01*
X169760900Y-95161100D02*
X164830100Y-95161100D01*
G04 #@! TO.N,/ROW3*
X121924000Y-102255000D02*
X163924000Y-102255000D01*
X164132600Y-102463600D02*
X163924000Y-102255000D01*
X169786300Y-102463600D02*
X164132600Y-102463600D01*
G04 #@! TO.N,/ROW4*
X168847151Y-109766100D02*
X168809051Y-109804200D01*
X169837100Y-109766100D02*
X168847151Y-109766100D01*
X168809051Y-109804200D02*
X166966900Y-109804200D01*
X166516100Y-110255000D02*
X163924000Y-110255000D01*
X166966900Y-109804200D02*
X166516100Y-110255000D01*
X163924000Y-110255000D02*
X121924000Y-110255000D01*
G04 #@! TO.N,/ROW5*
X169773600Y-117170200D02*
X168122600Y-117170200D01*
X167037800Y-118255000D02*
X163924000Y-118255000D01*
X168122600Y-117170200D02*
X167037800Y-118255000D01*
X163924000Y-118255000D02*
X121924000Y-118255000D01*
G04 #@! TD*
M02*
