G04 #@! TF.GenerationSoftware,KiCad,Pcbnew,5.1.5-52549c5~84~ubuntu18.04.1*
G04 #@! TF.CreationDate,2020-02-25T12:19:13-05:00*
G04 #@! TF.ProjectId,solenoid_board,736f6c65-6e6f-4696-945f-626f6172642e,rev?*
G04 #@! TF.SameCoordinates,Original*
G04 #@! TF.FileFunction,Legend,Top*
G04 #@! TF.FilePolarity,Positive*
%FSLAX46Y46*%
G04 Gerber Fmt 4.6, Leading zero omitted, Abs format (unit mm)*
G04 Created by KiCad (PCBNEW 5.1.5-52549c5~84~ubuntu18.04.1) date 2020-02-25 12:19:13*
%MOMM*%
%LPD*%
G04 APERTURE LIST*
G04 #@! TA.AperFunction,Profile*
%ADD10C,0.050000*%
G04 #@! TD*
%ADD11C,0.150000*%
%ADD12C,0.120000*%
%ADD13C,0.152400*%
%ADD14C,0.100000*%
G04 APERTURE END LIST*
D10*
X115000000Y-140000000D02*
X115000000Y-50000000D01*
X220000000Y-140000000D02*
X115000000Y-140000000D01*
X220000000Y-50000000D02*
X220000000Y-140000000D01*
X115000000Y-50000000D02*
X220000000Y-50000000D01*
D11*
X204892852Y-69010280D02*
X204892852Y-69724566D01*
X204845233Y-69867423D01*
X204749995Y-69962661D01*
X204607138Y-70010280D01*
X204511900Y-70010280D01*
X205845233Y-70010280D02*
X205369042Y-70010280D01*
X205369042Y-69010280D01*
X206749995Y-69915042D02*
X206702376Y-69962661D01*
X206559519Y-70010280D01*
X206464280Y-70010280D01*
X206321423Y-69962661D01*
X206226185Y-69867423D01*
X206178566Y-69772185D01*
X206130947Y-69581709D01*
X206130947Y-69438852D01*
X206178566Y-69248376D01*
X206226185Y-69153138D01*
X206321423Y-69057900D01*
X206464280Y-69010280D01*
X206559519Y-69010280D01*
X206702376Y-69057900D01*
X206749995Y-69105519D01*
X207464280Y-69010280D02*
X207464280Y-69724566D01*
X207416661Y-69867423D01*
X207321423Y-69962661D01*
X207178566Y-70010280D01*
X207083328Y-70010280D01*
X208416661Y-70010280D02*
X207940471Y-70010280D01*
X207940471Y-69010280D01*
X209321423Y-69915042D02*
X209273804Y-69962661D01*
X209130947Y-70010280D01*
X209035709Y-70010280D01*
X208892852Y-69962661D01*
X208797614Y-69867423D01*
X208749995Y-69772185D01*
X208702376Y-69581709D01*
X208702376Y-69438852D01*
X208749995Y-69248376D01*
X208797614Y-69153138D01*
X208892852Y-69057900D01*
X209035709Y-69010280D01*
X209130947Y-69010280D01*
X209273804Y-69057900D01*
X209321423Y-69105519D01*
X210035709Y-69010280D02*
X210035709Y-69724566D01*
X209988090Y-69867423D01*
X209892852Y-69962661D01*
X209749995Y-70010280D01*
X209654757Y-70010280D01*
X210988090Y-70010280D02*
X210511900Y-70010280D01*
X210511900Y-69010280D01*
X211892852Y-69915042D02*
X211845233Y-69962661D01*
X211702376Y-70010280D01*
X211607138Y-70010280D01*
X211464280Y-69962661D01*
X211369042Y-69867423D01*
X211321423Y-69772185D01*
X211273804Y-69581709D01*
X211273804Y-69438852D01*
X211321423Y-69248376D01*
X211369042Y-69153138D01*
X211464280Y-69057900D01*
X211607138Y-69010280D01*
X211702376Y-69010280D01*
X211845233Y-69057900D01*
X211892852Y-69105519D01*
X212607138Y-69010280D02*
X212607138Y-69724566D01*
X212559519Y-69867423D01*
X212464280Y-69962661D01*
X212321423Y-70010280D01*
X212226185Y-70010280D01*
X213559519Y-70010280D02*
X213083328Y-70010280D01*
X213083328Y-69010280D01*
X214464280Y-69915042D02*
X214416661Y-69962661D01*
X214273804Y-70010280D01*
X214178566Y-70010280D01*
X214035709Y-69962661D01*
X213940471Y-69867423D01*
X213892852Y-69772185D01*
X213845233Y-69581709D01*
X213845233Y-69438852D01*
X213892852Y-69248376D01*
X213940471Y-69153138D01*
X214035709Y-69057900D01*
X214178566Y-69010280D01*
X214273804Y-69010280D01*
X214416661Y-69057900D01*
X214464280Y-69105519D01*
X192392990Y-68921380D02*
X192392990Y-69635666D01*
X192345371Y-69778523D01*
X192250133Y-69873761D01*
X192107276Y-69921380D01*
X192012038Y-69921380D01*
X193345371Y-69921380D02*
X192869180Y-69921380D01*
X192869180Y-68921380D01*
X194250133Y-69826142D02*
X194202514Y-69873761D01*
X194059657Y-69921380D01*
X193964419Y-69921380D01*
X193821561Y-69873761D01*
X193726323Y-69778523D01*
X193678704Y-69683285D01*
X193631085Y-69492809D01*
X193631085Y-69349952D01*
X193678704Y-69159476D01*
X193726323Y-69064238D01*
X193821561Y-68969000D01*
X193964419Y-68921380D01*
X194059657Y-68921380D01*
X194202514Y-68969000D01*
X194250133Y-69016619D01*
X194678704Y-69921380D02*
X194678704Y-68921380D01*
X195059657Y-68921380D01*
X195154895Y-68969000D01*
X195202514Y-69016619D01*
X195250133Y-69111857D01*
X195250133Y-69254714D01*
X195202514Y-69349952D01*
X195154895Y-69397571D01*
X195059657Y-69445190D01*
X194678704Y-69445190D01*
X196250133Y-69826142D02*
X196202514Y-69873761D01*
X196059657Y-69921380D01*
X195964419Y-69921380D01*
X195821561Y-69873761D01*
X195726323Y-69778523D01*
X195678704Y-69683285D01*
X195631085Y-69492809D01*
X195631085Y-69349952D01*
X195678704Y-69159476D01*
X195726323Y-69064238D01*
X195821561Y-68969000D01*
X195964419Y-68921380D01*
X196059657Y-68921380D01*
X196202514Y-68969000D01*
X196250133Y-69016619D01*
X197012038Y-69397571D02*
X197154895Y-69445190D01*
X197202514Y-69492809D01*
X197250133Y-69588047D01*
X197250133Y-69730904D01*
X197202514Y-69826142D01*
X197154895Y-69873761D01*
X197059657Y-69921380D01*
X196678704Y-69921380D01*
X196678704Y-68921380D01*
X197012038Y-68921380D01*
X197107276Y-68969000D01*
X197154895Y-69016619D01*
X197202514Y-69111857D01*
X197202514Y-69207095D01*
X197154895Y-69302333D01*
X197107276Y-69349952D01*
X197012038Y-69397571D01*
X196678704Y-69397571D01*
X198440609Y-69921380D02*
X198440609Y-68921380D01*
X198773942Y-69635666D01*
X199107276Y-68921380D01*
X199107276Y-69921380D01*
X199583466Y-69254714D02*
X199583466Y-69921380D01*
X199583466Y-69349952D02*
X199631085Y-69302333D01*
X199726323Y-69254714D01*
X199869180Y-69254714D01*
X199964419Y-69302333D01*
X200012038Y-69397571D01*
X200012038Y-69921380D01*
X200345371Y-69254714D02*
X200726323Y-69254714D01*
X200488228Y-69921380D02*
X200488228Y-69064238D01*
X200535847Y-68969000D01*
X200631085Y-68921380D01*
X200726323Y-68921380D01*
X201488228Y-69254714D02*
X201488228Y-70064238D01*
X201440609Y-70159476D01*
X201392990Y-70207095D01*
X201297752Y-70254714D01*
X201154895Y-70254714D01*
X201059657Y-70207095D01*
X201488228Y-69873761D02*
X201392990Y-69921380D01*
X201202514Y-69921380D01*
X201107276Y-69873761D01*
X201059657Y-69826142D01*
X201012038Y-69730904D01*
X201012038Y-69445190D01*
X201059657Y-69349952D01*
X201107276Y-69302333D01*
X201202514Y-69254714D01*
X201392990Y-69254714D01*
X201488228Y-69302333D01*
X202678704Y-69254714D02*
X203392990Y-69254714D01*
X202964419Y-68826142D02*
X202678704Y-70111857D01*
X203297752Y-69683285D02*
X202583466Y-69683285D01*
X203012038Y-70111857D02*
X203297752Y-68826142D01*
X203726323Y-69826142D02*
X203773942Y-69873761D01*
X203726323Y-69921380D01*
X203678704Y-69873761D01*
X203726323Y-69826142D01*
X203726323Y-69921380D01*
X203726323Y-69302333D02*
X203773942Y-69349952D01*
X203726323Y-69397571D01*
X203678704Y-69349952D01*
X203726323Y-69302333D01*
X203726323Y-69397571D01*
X192497628Y-63130180D02*
X192592866Y-63130180D01*
X192688104Y-63177800D01*
X192735723Y-63225419D01*
X192783342Y-63320657D01*
X192830961Y-63511133D01*
X192830961Y-63749228D01*
X192783342Y-63939704D01*
X192735723Y-64034942D01*
X192688104Y-64082561D01*
X192592866Y-64130180D01*
X192497628Y-64130180D01*
X192402390Y-64082561D01*
X192354771Y-64034942D01*
X192307152Y-63939704D01*
X192259533Y-63749228D01*
X192259533Y-63511133D01*
X192307152Y-63320657D01*
X192354771Y-63225419D01*
X192402390Y-63177800D01*
X192497628Y-63130180D01*
X193211914Y-63225419D02*
X193259533Y-63177800D01*
X193354771Y-63130180D01*
X193592866Y-63130180D01*
X193688104Y-63177800D01*
X193735723Y-63225419D01*
X193783342Y-63320657D01*
X193783342Y-63415895D01*
X193735723Y-63558752D01*
X193164295Y-64130180D01*
X193783342Y-64130180D01*
X194926200Y-63082561D02*
X194069057Y-64368276D01*
X195211914Y-63225419D02*
X195259533Y-63177800D01*
X195354771Y-63130180D01*
X195592866Y-63130180D01*
X195688104Y-63177800D01*
X195735723Y-63225419D01*
X195783342Y-63320657D01*
X195783342Y-63415895D01*
X195735723Y-63558752D01*
X195164295Y-64130180D01*
X195783342Y-64130180D01*
X196116676Y-63130180D02*
X196735723Y-63130180D01*
X196402390Y-63511133D01*
X196545247Y-63511133D01*
X196640485Y-63558752D01*
X196688104Y-63606371D01*
X196735723Y-63701609D01*
X196735723Y-63939704D01*
X196688104Y-64034942D01*
X196640485Y-64082561D01*
X196545247Y-64130180D01*
X196259533Y-64130180D01*
X196164295Y-64082561D01*
X196116676Y-64034942D01*
X197878580Y-63082561D02*
X197021438Y-64368276D01*
X198164295Y-63225419D02*
X198211914Y-63177800D01*
X198307152Y-63130180D01*
X198545247Y-63130180D01*
X198640485Y-63177800D01*
X198688104Y-63225419D01*
X198735723Y-63320657D01*
X198735723Y-63415895D01*
X198688104Y-63558752D01*
X198116676Y-64130180D01*
X198735723Y-64130180D01*
X199354771Y-63130180D02*
X199450009Y-63130180D01*
X199545247Y-63177800D01*
X199592866Y-63225419D01*
X199640485Y-63320657D01*
X199688104Y-63511133D01*
X199688104Y-63749228D01*
X199640485Y-63939704D01*
X199592866Y-64034942D01*
X199545247Y-64082561D01*
X199450009Y-64130180D01*
X199354771Y-64130180D01*
X199259533Y-64082561D01*
X199211914Y-64034942D01*
X199164295Y-63939704D01*
X199116676Y-63749228D01*
X199116676Y-63511133D01*
X199164295Y-63320657D01*
X199211914Y-63225419D01*
X199259533Y-63177800D01*
X199354771Y-63130180D01*
X200069057Y-63225419D02*
X200116676Y-63177800D01*
X200211914Y-63130180D01*
X200450009Y-63130180D01*
X200545247Y-63177800D01*
X200592866Y-63225419D01*
X200640485Y-63320657D01*
X200640485Y-63415895D01*
X200592866Y-63558752D01*
X200021438Y-64130180D01*
X200640485Y-64130180D01*
X201259533Y-63130180D02*
X201354771Y-63130180D01*
X201450009Y-63177800D01*
X201497628Y-63225419D01*
X201545247Y-63320657D01*
X201592866Y-63511133D01*
X201592866Y-63749228D01*
X201545247Y-63939704D01*
X201497628Y-64034942D01*
X201450009Y-64082561D01*
X201354771Y-64130180D01*
X201259533Y-64130180D01*
X201164295Y-64082561D01*
X201116676Y-64034942D01*
X201069057Y-63939704D01*
X201021438Y-63749228D01*
X201021438Y-63511133D01*
X201069057Y-63320657D01*
X201116676Y-63225419D01*
X201164295Y-63177800D01*
X201259533Y-63130180D01*
X192345847Y-67641766D02*
X192822038Y-67641766D01*
X192250609Y-67927480D02*
X192583942Y-66927480D01*
X192917276Y-67927480D01*
X193679180Y-67260814D02*
X193679180Y-67927480D01*
X193250609Y-67260814D02*
X193250609Y-67784623D01*
X193298228Y-67879861D01*
X193393466Y-67927480D01*
X193536323Y-67927480D01*
X193631561Y-67879861D01*
X193679180Y-67832242D01*
X194012514Y-67260814D02*
X194393466Y-67260814D01*
X194155371Y-66927480D02*
X194155371Y-67784623D01*
X194202990Y-67879861D01*
X194298228Y-67927480D01*
X194393466Y-67927480D01*
X194726800Y-67927480D02*
X194726800Y-66927480D01*
X195155371Y-67927480D02*
X195155371Y-67403671D01*
X195107752Y-67308433D01*
X195012514Y-67260814D01*
X194869657Y-67260814D01*
X194774419Y-67308433D01*
X194726800Y-67356052D01*
X195774419Y-67927480D02*
X195679180Y-67879861D01*
X195631561Y-67832242D01*
X195583942Y-67737004D01*
X195583942Y-67451290D01*
X195631561Y-67356052D01*
X195679180Y-67308433D01*
X195774419Y-67260814D01*
X195917276Y-67260814D01*
X196012514Y-67308433D01*
X196060133Y-67356052D01*
X196107752Y-67451290D01*
X196107752Y-67737004D01*
X196060133Y-67832242D01*
X196012514Y-67879861D01*
X195917276Y-67927480D01*
X195774419Y-67927480D01*
X196536323Y-67927480D02*
X196536323Y-67260814D01*
X196536323Y-67451290D02*
X196583942Y-67356052D01*
X196631561Y-67308433D01*
X196726800Y-67260814D01*
X196822038Y-67260814D01*
X197155371Y-67832242D02*
X197202990Y-67879861D01*
X197155371Y-67927480D01*
X197107752Y-67879861D01*
X197155371Y-67832242D01*
X197155371Y-67927480D01*
X197155371Y-67308433D02*
X197202990Y-67356052D01*
X197155371Y-67403671D01*
X197107752Y-67356052D01*
X197155371Y-67308433D01*
X197155371Y-67403671D01*
X198393466Y-67927480D02*
X198393466Y-66927480D01*
X198774419Y-66927480D01*
X198869657Y-66975100D01*
X198917276Y-67022719D01*
X198964895Y-67117957D01*
X198964895Y-67260814D01*
X198917276Y-67356052D01*
X198869657Y-67403671D01*
X198774419Y-67451290D01*
X198393466Y-67451290D01*
X199822038Y-67927480D02*
X199822038Y-67403671D01*
X199774419Y-67308433D01*
X199679180Y-67260814D01*
X199488704Y-67260814D01*
X199393466Y-67308433D01*
X199822038Y-67879861D02*
X199726800Y-67927480D01*
X199488704Y-67927480D01*
X199393466Y-67879861D01*
X199345847Y-67784623D01*
X199345847Y-67689385D01*
X199393466Y-67594147D01*
X199488704Y-67546528D01*
X199726800Y-67546528D01*
X199822038Y-67498909D01*
X200155371Y-67260814D02*
X200536323Y-67260814D01*
X200298228Y-66927480D02*
X200298228Y-67784623D01*
X200345847Y-67879861D01*
X200441085Y-67927480D01*
X200536323Y-67927480D01*
X200869657Y-67927480D02*
X200869657Y-67260814D01*
X200869657Y-67451290D02*
X200917276Y-67356052D01*
X200964895Y-67308433D01*
X201060133Y-67260814D01*
X201155371Y-67260814D01*
X201488704Y-67927480D02*
X201488704Y-67260814D01*
X201488704Y-66927480D02*
X201441085Y-66975100D01*
X201488704Y-67022719D01*
X201536323Y-66975100D01*
X201488704Y-66927480D01*
X201488704Y-67022719D01*
X202393466Y-67879861D02*
X202298228Y-67927480D01*
X202107752Y-67927480D01*
X202012514Y-67879861D01*
X201964895Y-67832242D01*
X201917276Y-67737004D01*
X201917276Y-67451290D01*
X201964895Y-67356052D01*
X202012514Y-67308433D01*
X202107752Y-67260814D01*
X202298228Y-67260814D01*
X202393466Y-67308433D01*
X202822038Y-67927480D02*
X202822038Y-66927480D01*
X202917276Y-67546528D02*
X203202990Y-67927480D01*
X203202990Y-67260814D02*
X202822038Y-67641766D01*
X204250609Y-66927480D02*
X204822038Y-66927480D01*
X204536323Y-67927480D02*
X204536323Y-66927480D01*
X205583942Y-67927480D02*
X205583942Y-67403671D01*
X205536323Y-67308433D01*
X205441085Y-67260814D01*
X205250609Y-67260814D01*
X205155371Y-67308433D01*
X205583942Y-67879861D02*
X205488704Y-67927480D01*
X205250609Y-67927480D01*
X205155371Y-67879861D01*
X205107752Y-67784623D01*
X205107752Y-67689385D01*
X205155371Y-67594147D01*
X205250609Y-67546528D01*
X205488704Y-67546528D01*
X205583942Y-67498909D01*
X206202990Y-67927480D02*
X206107752Y-67879861D01*
X206060133Y-67784623D01*
X206060133Y-66927480D01*
X206583942Y-67927480D02*
X206583942Y-67260814D01*
X206583942Y-66927480D02*
X206536323Y-66975100D01*
X206583942Y-67022719D01*
X206631561Y-66975100D01*
X206583942Y-66927480D01*
X206583942Y-67022719D01*
X207488704Y-67927480D02*
X207488704Y-67403671D01*
X207441085Y-67308433D01*
X207345847Y-67260814D01*
X207155371Y-67260814D01*
X207060133Y-67308433D01*
X207488704Y-67879861D02*
X207393466Y-67927480D01*
X207155371Y-67927480D01*
X207060133Y-67879861D01*
X207012514Y-67784623D01*
X207012514Y-67689385D01*
X207060133Y-67594147D01*
X207155371Y-67546528D01*
X207393466Y-67546528D01*
X207488704Y-67498909D01*
X207822038Y-67260814D02*
X208202990Y-67260814D01*
X207964895Y-67927480D02*
X207964895Y-67070338D01*
X208012514Y-66975100D01*
X208107752Y-66927480D01*
X208202990Y-66927480D01*
X208917276Y-67879861D02*
X208822038Y-67927480D01*
X208631561Y-67927480D01*
X208536323Y-67879861D01*
X208488704Y-67784623D01*
X208488704Y-67403671D01*
X208536323Y-67308433D01*
X208631561Y-67260814D01*
X208822038Y-67260814D01*
X208917276Y-67308433D01*
X208964895Y-67403671D01*
X208964895Y-67498909D01*
X208488704Y-67594147D01*
X209393466Y-67927480D02*
X209393466Y-67260814D01*
X209393466Y-67451290D02*
X209441085Y-67356052D01*
X209488704Y-67308433D01*
X209583942Y-67260814D01*
X209679180Y-67260814D01*
X210012514Y-67927480D02*
X210012514Y-67260814D01*
X210012514Y-67451290D02*
X210060133Y-67356052D01*
X210107752Y-67308433D01*
X210202990Y-67260814D01*
X210298228Y-67260814D01*
X210774419Y-67927480D02*
X210679180Y-67879861D01*
X210631561Y-67832242D01*
X210583942Y-67737004D01*
X210583942Y-67451290D01*
X210631561Y-67356052D01*
X210679180Y-67308433D01*
X210774419Y-67260814D01*
X210917276Y-67260814D01*
X211012514Y-67308433D01*
X211060133Y-67356052D01*
X211107752Y-67451290D01*
X211107752Y-67737004D01*
X211060133Y-67832242D01*
X211012514Y-67879861D01*
X210917276Y-67927480D01*
X210774419Y-67927480D01*
X192712366Y-66035180D02*
X192236176Y-66035180D01*
X192236176Y-65035180D01*
X193045700Y-65511371D02*
X193379033Y-65511371D01*
X193521890Y-66035180D02*
X193045700Y-66035180D01*
X193045700Y-65035180D01*
X193521890Y-65035180D01*
X193950461Y-66035180D02*
X193950461Y-65035180D01*
X194188557Y-65035180D01*
X194331414Y-65082800D01*
X194426652Y-65178038D01*
X194474271Y-65273276D01*
X194521890Y-65463752D01*
X194521890Y-65606609D01*
X194474271Y-65797085D01*
X194426652Y-65892323D01*
X194331414Y-65987561D01*
X194188557Y-66035180D01*
X193950461Y-66035180D01*
X195712366Y-66035180D02*
X195712366Y-65035180D01*
X196045700Y-65749466D01*
X196379033Y-65035180D01*
X196379033Y-66035180D01*
X197283795Y-66035180D02*
X197283795Y-65511371D01*
X197236176Y-65416133D01*
X197140938Y-65368514D01*
X196950461Y-65368514D01*
X196855223Y-65416133D01*
X197283795Y-65987561D02*
X197188557Y-66035180D01*
X196950461Y-66035180D01*
X196855223Y-65987561D01*
X196807604Y-65892323D01*
X196807604Y-65797085D01*
X196855223Y-65701847D01*
X196950461Y-65654228D01*
X197188557Y-65654228D01*
X197283795Y-65606609D01*
X197617128Y-65368514D02*
X197998080Y-65368514D01*
X197759985Y-65035180D02*
X197759985Y-65892323D01*
X197807604Y-65987561D01*
X197902842Y-66035180D01*
X197998080Y-66035180D01*
X198331414Y-66035180D02*
X198331414Y-65368514D01*
X198331414Y-65558990D02*
X198379033Y-65463752D01*
X198426652Y-65416133D01*
X198521890Y-65368514D01*
X198617128Y-65368514D01*
X198950461Y-66035180D02*
X198950461Y-65368514D01*
X198950461Y-65035180D02*
X198902842Y-65082800D01*
X198950461Y-65130419D01*
X198998080Y-65082800D01*
X198950461Y-65035180D01*
X198950461Y-65130419D01*
X199331414Y-66035180D02*
X199855223Y-65368514D01*
X199331414Y-65368514D02*
X199855223Y-66035180D01*
X201331414Y-65511371D02*
X201474271Y-65558990D01*
X201521890Y-65606609D01*
X201569509Y-65701847D01*
X201569509Y-65844704D01*
X201521890Y-65939942D01*
X201474271Y-65987561D01*
X201379033Y-66035180D01*
X200998080Y-66035180D01*
X200998080Y-65035180D01*
X201331414Y-65035180D01*
X201426652Y-65082800D01*
X201474271Y-65130419D01*
X201521890Y-65225657D01*
X201521890Y-65320895D01*
X201474271Y-65416133D01*
X201426652Y-65463752D01*
X201331414Y-65511371D01*
X200998080Y-65511371D01*
X202140938Y-66035180D02*
X202045700Y-65987561D01*
X201998080Y-65939942D01*
X201950461Y-65844704D01*
X201950461Y-65558990D01*
X201998080Y-65463752D01*
X202045700Y-65416133D01*
X202140938Y-65368514D01*
X202283795Y-65368514D01*
X202379033Y-65416133D01*
X202426652Y-65463752D01*
X202474271Y-65558990D01*
X202474271Y-65844704D01*
X202426652Y-65939942D01*
X202379033Y-65987561D01*
X202283795Y-66035180D01*
X202140938Y-66035180D01*
X203331414Y-66035180D02*
X203331414Y-65511371D01*
X203283795Y-65416133D01*
X203188557Y-65368514D01*
X202998080Y-65368514D01*
X202902842Y-65416133D01*
X203331414Y-65987561D02*
X203236176Y-66035180D01*
X202998080Y-66035180D01*
X202902842Y-65987561D01*
X202855223Y-65892323D01*
X202855223Y-65797085D01*
X202902842Y-65701847D01*
X202998080Y-65654228D01*
X203236176Y-65654228D01*
X203331414Y-65606609D01*
X203807604Y-66035180D02*
X203807604Y-65368514D01*
X203807604Y-65558990D02*
X203855223Y-65463752D01*
X203902842Y-65416133D01*
X203998080Y-65368514D01*
X204093319Y-65368514D01*
X204855223Y-66035180D02*
X204855223Y-65035180D01*
X204855223Y-65987561D02*
X204759985Y-66035180D01*
X204569509Y-66035180D01*
X204474271Y-65987561D01*
X204426652Y-65939942D01*
X204379033Y-65844704D01*
X204379033Y-65558990D01*
X204426652Y-65463752D01*
X204474271Y-65416133D01*
X204569509Y-65368514D01*
X204759985Y-65368514D01*
X204855223Y-65416133D01*
X205950461Y-65035180D02*
X206283795Y-66035180D01*
X206617128Y-65035180D01*
X206902842Y-65130419D02*
X206950461Y-65082800D01*
X207045700Y-65035180D01*
X207283795Y-65035180D01*
X207379033Y-65082800D01*
X207426652Y-65130419D01*
X207474271Y-65225657D01*
X207474271Y-65320895D01*
X207426652Y-65463752D01*
X206855223Y-66035180D01*
X207474271Y-66035180D01*
X207902842Y-65939942D02*
X207950461Y-65987561D01*
X207902842Y-66035180D01*
X207855223Y-65987561D01*
X207902842Y-65939942D01*
X207902842Y-66035180D01*
X208569509Y-65035180D02*
X208664747Y-65035180D01*
X208759985Y-65082800D01*
X208807604Y-65130419D01*
X208855223Y-65225657D01*
X208902842Y-65416133D01*
X208902842Y-65654228D01*
X208855223Y-65844704D01*
X208807604Y-65939942D01*
X208759985Y-65987561D01*
X208664747Y-66035180D01*
X208569509Y-66035180D01*
X208474271Y-65987561D01*
X208426652Y-65939942D01*
X208379033Y-65844704D01*
X208331414Y-65654228D01*
X208331414Y-65416133D01*
X208379033Y-65225657D01*
X208426652Y-65130419D01*
X208474271Y-65082800D01*
X208569509Y-65035180D01*
D12*
G04 #@! TO.C,CP0*
X208524625Y-91391400D02*
X208524625Y-91891400D01*
X208274625Y-91641400D02*
X208774625Y-91641400D01*
X213680400Y-92832400D02*
X213680400Y-93400400D01*
X213640400Y-92598400D02*
X213640400Y-93634400D01*
X213600400Y-92439400D02*
X213600400Y-93793400D01*
X213560400Y-92311400D02*
X213560400Y-93921400D01*
X213520400Y-92201400D02*
X213520400Y-94031400D01*
X213480400Y-92105400D02*
X213480400Y-94127400D01*
X213440400Y-92018400D02*
X213440400Y-94214400D01*
X213400400Y-91938400D02*
X213400400Y-94294400D01*
X213360400Y-94156400D02*
X213360400Y-94367400D01*
X213360400Y-91865400D02*
X213360400Y-92076400D01*
X213320400Y-94156400D02*
X213320400Y-94435400D01*
X213320400Y-91797400D02*
X213320400Y-92076400D01*
X213280400Y-94156400D02*
X213280400Y-94499400D01*
X213280400Y-91733400D02*
X213280400Y-92076400D01*
X213240400Y-94156400D02*
X213240400Y-94559400D01*
X213240400Y-91673400D02*
X213240400Y-92076400D01*
X213200400Y-94156400D02*
X213200400Y-94616400D01*
X213200400Y-91616400D02*
X213200400Y-92076400D01*
X213160400Y-94156400D02*
X213160400Y-94670400D01*
X213160400Y-91562400D02*
X213160400Y-92076400D01*
X213120400Y-94156400D02*
X213120400Y-94721400D01*
X213120400Y-91511400D02*
X213120400Y-92076400D01*
X213080400Y-94156400D02*
X213080400Y-94769400D01*
X213080400Y-91463400D02*
X213080400Y-92076400D01*
X213040400Y-94156400D02*
X213040400Y-94815400D01*
X213040400Y-91417400D02*
X213040400Y-92076400D01*
X213000400Y-94156400D02*
X213000400Y-94859400D01*
X213000400Y-91373400D02*
X213000400Y-92076400D01*
X212960400Y-94156400D02*
X212960400Y-94901400D01*
X212960400Y-91331400D02*
X212960400Y-92076400D01*
X212920400Y-94156400D02*
X212920400Y-94942400D01*
X212920400Y-91290400D02*
X212920400Y-92076400D01*
X212880400Y-94156400D02*
X212880400Y-94980400D01*
X212880400Y-91252400D02*
X212880400Y-92076400D01*
X212840400Y-94156400D02*
X212840400Y-95017400D01*
X212840400Y-91215400D02*
X212840400Y-92076400D01*
X212800400Y-94156400D02*
X212800400Y-95053400D01*
X212800400Y-91179400D02*
X212800400Y-92076400D01*
X212760400Y-94156400D02*
X212760400Y-95087400D01*
X212760400Y-91145400D02*
X212760400Y-92076400D01*
X212720400Y-94156400D02*
X212720400Y-95120400D01*
X212720400Y-91112400D02*
X212720400Y-92076400D01*
X212680400Y-94156400D02*
X212680400Y-95151400D01*
X212680400Y-91081400D02*
X212680400Y-92076400D01*
X212640400Y-94156400D02*
X212640400Y-95181400D01*
X212640400Y-91051400D02*
X212640400Y-92076400D01*
X212600400Y-94156400D02*
X212600400Y-95211400D01*
X212600400Y-91021400D02*
X212600400Y-92076400D01*
X212560400Y-94156400D02*
X212560400Y-95238400D01*
X212560400Y-90994400D02*
X212560400Y-92076400D01*
X212520400Y-94156400D02*
X212520400Y-95265400D01*
X212520400Y-90967400D02*
X212520400Y-92076400D01*
X212480400Y-94156400D02*
X212480400Y-95291400D01*
X212480400Y-90941400D02*
X212480400Y-92076400D01*
X212440400Y-94156400D02*
X212440400Y-95316400D01*
X212440400Y-90916400D02*
X212440400Y-92076400D01*
X212400400Y-94156400D02*
X212400400Y-95340400D01*
X212400400Y-90892400D02*
X212400400Y-92076400D01*
X212360400Y-94156400D02*
X212360400Y-95363400D01*
X212360400Y-90869400D02*
X212360400Y-92076400D01*
X212320400Y-94156400D02*
X212320400Y-95384400D01*
X212320400Y-90848400D02*
X212320400Y-92076400D01*
X212280400Y-94156400D02*
X212280400Y-95406400D01*
X212280400Y-90826400D02*
X212280400Y-92076400D01*
X212240400Y-94156400D02*
X212240400Y-95426400D01*
X212240400Y-90806400D02*
X212240400Y-92076400D01*
X212200400Y-94156400D02*
X212200400Y-95445400D01*
X212200400Y-90787400D02*
X212200400Y-92076400D01*
X212160400Y-94156400D02*
X212160400Y-95464400D01*
X212160400Y-90768400D02*
X212160400Y-92076400D01*
X212120400Y-94156400D02*
X212120400Y-95481400D01*
X212120400Y-90751400D02*
X212120400Y-92076400D01*
X212080400Y-94156400D02*
X212080400Y-95498400D01*
X212080400Y-90734400D02*
X212080400Y-92076400D01*
X212040400Y-94156400D02*
X212040400Y-95514400D01*
X212040400Y-90718400D02*
X212040400Y-92076400D01*
X212000400Y-94156400D02*
X212000400Y-95530400D01*
X212000400Y-90702400D02*
X212000400Y-92076400D01*
X211960400Y-94156400D02*
X211960400Y-95544400D01*
X211960400Y-90688400D02*
X211960400Y-92076400D01*
X211920400Y-94156400D02*
X211920400Y-95558400D01*
X211920400Y-90674400D02*
X211920400Y-92076400D01*
X211880400Y-94156400D02*
X211880400Y-95571400D01*
X211880400Y-90661400D02*
X211880400Y-92076400D01*
X211840400Y-94156400D02*
X211840400Y-95584400D01*
X211840400Y-90648400D02*
X211840400Y-92076400D01*
X211800400Y-94156400D02*
X211800400Y-95596400D01*
X211800400Y-90636400D02*
X211800400Y-92076400D01*
X211759400Y-94156400D02*
X211759400Y-95607400D01*
X211759400Y-90625400D02*
X211759400Y-92076400D01*
X211719400Y-94156400D02*
X211719400Y-95617400D01*
X211719400Y-90615400D02*
X211719400Y-92076400D01*
X211679400Y-94156400D02*
X211679400Y-95627400D01*
X211679400Y-90605400D02*
X211679400Y-92076400D01*
X211639400Y-94156400D02*
X211639400Y-95636400D01*
X211639400Y-90596400D02*
X211639400Y-92076400D01*
X211599400Y-94156400D02*
X211599400Y-95644400D01*
X211599400Y-90588400D02*
X211599400Y-92076400D01*
X211559400Y-94156400D02*
X211559400Y-95652400D01*
X211559400Y-90580400D02*
X211559400Y-92076400D01*
X211519400Y-94156400D02*
X211519400Y-95659400D01*
X211519400Y-90573400D02*
X211519400Y-92076400D01*
X211479400Y-94156400D02*
X211479400Y-95666400D01*
X211479400Y-90566400D02*
X211479400Y-92076400D01*
X211439400Y-94156400D02*
X211439400Y-95672400D01*
X211439400Y-90560400D02*
X211439400Y-92076400D01*
X211399400Y-94156400D02*
X211399400Y-95677400D01*
X211399400Y-90555400D02*
X211399400Y-92076400D01*
X211359400Y-94156400D02*
X211359400Y-95681400D01*
X211359400Y-90551400D02*
X211359400Y-92076400D01*
X211319400Y-94156400D02*
X211319400Y-95685400D01*
X211319400Y-90547400D02*
X211319400Y-92076400D01*
X211279400Y-90543400D02*
X211279400Y-95689400D01*
X211239400Y-90540400D02*
X211239400Y-95692400D01*
X211199400Y-90538400D02*
X211199400Y-95694400D01*
X211159400Y-90537400D02*
X211159400Y-95695400D01*
X211119400Y-90536400D02*
X211119400Y-95696400D01*
X211079400Y-90536400D02*
X211079400Y-95696400D01*
X213699400Y-93116400D02*
G75*
G03X213699400Y-93116400I-2620000J0D01*
G01*
D13*
G04 #@! TO.C,RS-485*
X196202300Y-119265700D02*
X196202300Y-123507500D01*
X201460100Y-123507500D02*
X201460100Y-119265700D01*
D12*
G04 #@! TO.C,R10k13*
X165354000Y-61156100D02*
X165354000Y-64316100D01*
X166274000Y-60236100D02*
G75*
G03X166274000Y-60236100I-920000J0D01*
G01*
G04 #@! TO.C,R10k12*
X158064200Y-61029100D02*
X158064200Y-64189100D01*
X158984200Y-60109100D02*
G75*
G03X158984200Y-60109100I-920000J0D01*
G01*
G04 #@! TO.C,R10k11*
X151130000Y-60902100D02*
X151130000Y-64062100D01*
X152050000Y-59982100D02*
G75*
G03X152050000Y-59982100I-920000J0D01*
G01*
G04 #@! TO.C,R10k10*
X144640300Y-61041800D02*
X144640300Y-64201800D01*
X145560300Y-60121800D02*
G75*
G03X145560300Y-60121800I-920000J0D01*
G01*
G04 #@! TO.C,R10k9*
X137833100Y-61041800D02*
X137833100Y-64201800D01*
X138753100Y-60121800D02*
G75*
G03X138753100Y-60121800I-920000J0D01*
G01*
G04 #@! TO.C,R10k8*
X130848100Y-61194200D02*
X130848100Y-64354200D01*
X131768100Y-60274200D02*
G75*
G03X131768100Y-60274200I-920000J0D01*
G01*
G04 #@! TO.C,R10k7*
X124244100Y-61092600D02*
X124244100Y-64252600D01*
X125164100Y-60172600D02*
G75*
G03X125164100Y-60172600I-920000J0D01*
G01*
G04 #@! TO.C,R10k6*
X179552600Y-122295400D02*
X179552600Y-119135400D01*
X180472600Y-123215400D02*
G75*
G03X180472600Y-123215400I-920000J0D01*
G01*
G04 #@! TO.C,R10k5*
X179539900Y-114954800D02*
X179539900Y-111794800D01*
X180459900Y-115874800D02*
G75*
G03X180459900Y-115874800I-920000J0D01*
G01*
G04 #@! TO.C,R10k4*
X179527200Y-107715800D02*
X179527200Y-104555800D01*
X180447200Y-108635800D02*
G75*
G03X180447200Y-108635800I-920000J0D01*
G01*
G04 #@! TO.C,R10k3*
X179514500Y-100260900D02*
X179514500Y-97100900D01*
X180434500Y-101180900D02*
G75*
G03X180434500Y-101180900I-920000J0D01*
G01*
G04 #@! TO.C,R10k2*
X179501800Y-93021900D02*
X179501800Y-89861900D01*
X180421800Y-93941900D02*
G75*
G03X180421800Y-93941900I-920000J0D01*
G01*
G04 #@! TO.C,R10k1*
X179374800Y-85770200D02*
X179374800Y-82610200D01*
X180294800Y-86690200D02*
G75*
G03X180294800Y-86690200I-920000J0D01*
G01*
G04 #@! TO.C,R10k0*
X179362100Y-78518500D02*
X179362100Y-75358500D01*
X180282100Y-79438500D02*
G75*
G03X180282100Y-79438500I-920000J0D01*
G01*
G04 #@! TO.C,R313*
X162902900Y-64383400D02*
X162902900Y-61223400D01*
X163822900Y-65303400D02*
G75*
G03X163822900Y-65303400I-920000J0D01*
G01*
G04 #@! TO.C,R312*
X155562300Y-64154800D02*
X155562300Y-60994800D01*
X156482300Y-65074800D02*
G75*
G03X156482300Y-65074800I-920000J0D01*
G01*
G04 #@! TO.C,R311*
X148856700Y-64091300D02*
X148856700Y-60931300D01*
X149776700Y-65011300D02*
G75*
G03X149776700Y-65011300I-920000J0D01*
G01*
G04 #@! TO.C,R310*
X142240000Y-64205600D02*
X142240000Y-61045600D01*
X143160000Y-65125600D02*
G75*
G03X143160000Y-65125600I-920000J0D01*
G01*
G04 #@! TO.C,R309*
X135394700Y-64192900D02*
X135394700Y-61032900D01*
X136314700Y-65112900D02*
G75*
G03X136314700Y-65112900I-920000J0D01*
G01*
G04 #@! TO.C,R308*
X128549400Y-64345300D02*
X128549400Y-61185300D01*
X129469400Y-65265300D02*
G75*
G03X129469400Y-65265300I-920000J0D01*
G01*
G04 #@! TO.C,R307*
X121754900Y-64345300D02*
X121754900Y-61185300D01*
X122674900Y-65265300D02*
G75*
G03X122674900Y-65265300I-920000J0D01*
G01*
G04 #@! TO.C,R306*
X169875200Y-120401600D02*
X169875200Y-123561600D01*
X170795200Y-119481600D02*
G75*
G03X170795200Y-119481600I-920000J0D01*
G01*
G04 #@! TO.C,R305*
X169773600Y-113010200D02*
X169773600Y-116170200D01*
X170693600Y-112090200D02*
G75*
G03X170693600Y-112090200I-920000J0D01*
G01*
G04 #@! TO.C,R304*
X169837100Y-105606100D02*
X169837100Y-108766100D01*
X170757100Y-104686100D02*
G75*
G03X170757100Y-104686100I-920000J0D01*
G01*
G04 #@! TO.C,R303*
X169786300Y-98303600D02*
X169786300Y-101463600D01*
X170706300Y-97383600D02*
G75*
G03X170706300Y-97383600I-920000J0D01*
G01*
G04 #@! TO.C,R302*
X169760900Y-91001100D02*
X169760900Y-94161100D01*
X170680900Y-90081100D02*
G75*
G03X170680900Y-90081100I-920000J0D01*
G01*
G04 #@! TO.C,R301*
X169811700Y-83660500D02*
X169811700Y-86820500D01*
X170731700Y-82740500D02*
G75*
G03X170731700Y-82740500I-920000J0D01*
G01*
G04 #@! TO.C,R300*
X169735500Y-76472300D02*
X169735500Y-79632300D01*
X170655500Y-75552300D02*
G75*
G03X170655500Y-75552300I-920000J0D01*
G01*
G04 #@! TO.C,R11*
X184213500Y-122212300D02*
X184213500Y-123162300D01*
X184213500Y-127952300D02*
X184213500Y-127002300D01*
X183293500Y-123162300D02*
X183293500Y-127002300D01*
X185133500Y-123162300D02*
X183293500Y-123162300D01*
X185133500Y-127002300D02*
X185133500Y-123162300D01*
X183293500Y-127002300D02*
X185133500Y-127002300D01*
G04 #@! TO.C,R10*
X188518800Y-121907500D02*
X188518800Y-122857500D01*
X188518800Y-127647500D02*
X188518800Y-126697500D01*
X187598800Y-122857500D02*
X187598800Y-126697500D01*
X189438800Y-122857500D02*
X187598800Y-122857500D01*
X189438800Y-126697500D02*
X189438800Y-122857500D01*
X187598800Y-126697500D02*
X189438800Y-126697500D01*
G04 #@! TO.C,LED6_6*
X162594000Y-122385000D02*
X163924000Y-122385000D01*
X162594000Y-123715000D02*
X162594000Y-122385000D01*
X162594000Y-124985000D02*
X165254000Y-124985000D01*
X165254000Y-124985000D02*
X165254000Y-127585000D01*
X162594000Y-124985000D02*
X162594000Y-127585000D01*
X162594000Y-127585000D02*
X165254000Y-127585000D01*
G04 #@! TO.C,LED6_5*
X155594000Y-122385000D02*
X156924000Y-122385000D01*
X155594000Y-123715000D02*
X155594000Y-122385000D01*
X155594000Y-124985000D02*
X158254000Y-124985000D01*
X158254000Y-124985000D02*
X158254000Y-127585000D01*
X155594000Y-124985000D02*
X155594000Y-127585000D01*
X155594000Y-127585000D02*
X158254000Y-127585000D01*
G04 #@! TO.C,LED6_4*
X148594000Y-122385000D02*
X149924000Y-122385000D01*
X148594000Y-123715000D02*
X148594000Y-122385000D01*
X148594000Y-124985000D02*
X151254000Y-124985000D01*
X151254000Y-124985000D02*
X151254000Y-127585000D01*
X148594000Y-124985000D02*
X148594000Y-127585000D01*
X148594000Y-127585000D02*
X151254000Y-127585000D01*
G04 #@! TO.C,LED6_3*
X141594000Y-122385000D02*
X142924000Y-122385000D01*
X141594000Y-123715000D02*
X141594000Y-122385000D01*
X141594000Y-124985000D02*
X144254000Y-124985000D01*
X144254000Y-124985000D02*
X144254000Y-127585000D01*
X141594000Y-124985000D02*
X141594000Y-127585000D01*
X141594000Y-127585000D02*
X144254000Y-127585000D01*
G04 #@! TO.C,LED6_2*
X134594000Y-122385000D02*
X135924000Y-122385000D01*
X134594000Y-123715000D02*
X134594000Y-122385000D01*
X134594000Y-124985000D02*
X137254000Y-124985000D01*
X137254000Y-124985000D02*
X137254000Y-127585000D01*
X134594000Y-124985000D02*
X134594000Y-127585000D01*
X134594000Y-127585000D02*
X137254000Y-127585000D01*
G04 #@! TO.C,LED6_1*
X127594000Y-122385000D02*
X128924000Y-122385000D01*
X127594000Y-123715000D02*
X127594000Y-122385000D01*
X127594000Y-124985000D02*
X130254000Y-124985000D01*
X130254000Y-124985000D02*
X130254000Y-127585000D01*
X127594000Y-124985000D02*
X127594000Y-127585000D01*
X127594000Y-127585000D02*
X130254000Y-127585000D01*
G04 #@! TO.C,LED6_0*
X120594000Y-122385000D02*
X121924000Y-122385000D01*
X120594000Y-123715000D02*
X120594000Y-122385000D01*
X120594000Y-124985000D02*
X123254000Y-124985000D01*
X123254000Y-124985000D02*
X123254000Y-127585000D01*
X120594000Y-124985000D02*
X120594000Y-127585000D01*
X120594000Y-127585000D02*
X123254000Y-127585000D01*
G04 #@! TO.C,LED5_6*
X162594000Y-114385000D02*
X163924000Y-114385000D01*
X162594000Y-115715000D02*
X162594000Y-114385000D01*
X162594000Y-116985000D02*
X165254000Y-116985000D01*
X165254000Y-116985000D02*
X165254000Y-119585000D01*
X162594000Y-116985000D02*
X162594000Y-119585000D01*
X162594000Y-119585000D02*
X165254000Y-119585000D01*
G04 #@! TO.C,LED5_5*
X155594000Y-114385000D02*
X156924000Y-114385000D01*
X155594000Y-115715000D02*
X155594000Y-114385000D01*
X155594000Y-116985000D02*
X158254000Y-116985000D01*
X158254000Y-116985000D02*
X158254000Y-119585000D01*
X155594000Y-116985000D02*
X155594000Y-119585000D01*
X155594000Y-119585000D02*
X158254000Y-119585000D01*
G04 #@! TO.C,LED5_4*
X148594000Y-114385000D02*
X149924000Y-114385000D01*
X148594000Y-115715000D02*
X148594000Y-114385000D01*
X148594000Y-116985000D02*
X151254000Y-116985000D01*
X151254000Y-116985000D02*
X151254000Y-119585000D01*
X148594000Y-116985000D02*
X148594000Y-119585000D01*
X148594000Y-119585000D02*
X151254000Y-119585000D01*
G04 #@! TO.C,LED5_3*
X141594000Y-114385000D02*
X142924000Y-114385000D01*
X141594000Y-115715000D02*
X141594000Y-114385000D01*
X141594000Y-116985000D02*
X144254000Y-116985000D01*
X144254000Y-116985000D02*
X144254000Y-119585000D01*
X141594000Y-116985000D02*
X141594000Y-119585000D01*
X141594000Y-119585000D02*
X144254000Y-119585000D01*
G04 #@! TO.C,LED5_2*
X134594000Y-114385000D02*
X135924000Y-114385000D01*
X134594000Y-115715000D02*
X134594000Y-114385000D01*
X134594000Y-116985000D02*
X137254000Y-116985000D01*
X137254000Y-116985000D02*
X137254000Y-119585000D01*
X134594000Y-116985000D02*
X134594000Y-119585000D01*
X134594000Y-119585000D02*
X137254000Y-119585000D01*
G04 #@! TO.C,LED5_1*
X127594000Y-114385000D02*
X128924000Y-114385000D01*
X127594000Y-115715000D02*
X127594000Y-114385000D01*
X127594000Y-116985000D02*
X130254000Y-116985000D01*
X130254000Y-116985000D02*
X130254000Y-119585000D01*
X127594000Y-116985000D02*
X127594000Y-119585000D01*
X127594000Y-119585000D02*
X130254000Y-119585000D01*
G04 #@! TO.C,LED5_0*
X120594000Y-114385000D02*
X121924000Y-114385000D01*
X120594000Y-115715000D02*
X120594000Y-114385000D01*
X120594000Y-116985000D02*
X123254000Y-116985000D01*
X123254000Y-116985000D02*
X123254000Y-119585000D01*
X120594000Y-116985000D02*
X120594000Y-119585000D01*
X120594000Y-119585000D02*
X123254000Y-119585000D01*
G04 #@! TO.C,LED4_6*
X162594000Y-106385000D02*
X163924000Y-106385000D01*
X162594000Y-107715000D02*
X162594000Y-106385000D01*
X162594000Y-108985000D02*
X165254000Y-108985000D01*
X165254000Y-108985000D02*
X165254000Y-111585000D01*
X162594000Y-108985000D02*
X162594000Y-111585000D01*
X162594000Y-111585000D02*
X165254000Y-111585000D01*
G04 #@! TO.C,LED4_5*
X155594000Y-106385000D02*
X156924000Y-106385000D01*
X155594000Y-107715000D02*
X155594000Y-106385000D01*
X155594000Y-108985000D02*
X158254000Y-108985000D01*
X158254000Y-108985000D02*
X158254000Y-111585000D01*
X155594000Y-108985000D02*
X155594000Y-111585000D01*
X155594000Y-111585000D02*
X158254000Y-111585000D01*
G04 #@! TO.C,LED4_4*
X148594000Y-106385000D02*
X149924000Y-106385000D01*
X148594000Y-107715000D02*
X148594000Y-106385000D01*
X148594000Y-108985000D02*
X151254000Y-108985000D01*
X151254000Y-108985000D02*
X151254000Y-111585000D01*
X148594000Y-108985000D02*
X148594000Y-111585000D01*
X148594000Y-111585000D02*
X151254000Y-111585000D01*
G04 #@! TO.C,LED4_3*
X141594000Y-106385000D02*
X142924000Y-106385000D01*
X141594000Y-107715000D02*
X141594000Y-106385000D01*
X141594000Y-108985000D02*
X144254000Y-108985000D01*
X144254000Y-108985000D02*
X144254000Y-111585000D01*
X141594000Y-108985000D02*
X141594000Y-111585000D01*
X141594000Y-111585000D02*
X144254000Y-111585000D01*
G04 #@! TO.C,LED4_2*
X134594000Y-106385000D02*
X135924000Y-106385000D01*
X134594000Y-107715000D02*
X134594000Y-106385000D01*
X134594000Y-108985000D02*
X137254000Y-108985000D01*
X137254000Y-108985000D02*
X137254000Y-111585000D01*
X134594000Y-108985000D02*
X134594000Y-111585000D01*
X134594000Y-111585000D02*
X137254000Y-111585000D01*
G04 #@! TO.C,LED4_1*
X127594000Y-106385000D02*
X128924000Y-106385000D01*
X127594000Y-107715000D02*
X127594000Y-106385000D01*
X127594000Y-108985000D02*
X130254000Y-108985000D01*
X130254000Y-108985000D02*
X130254000Y-111585000D01*
X127594000Y-108985000D02*
X127594000Y-111585000D01*
X127594000Y-111585000D02*
X130254000Y-111585000D01*
G04 #@! TO.C,LED4_0*
X120594000Y-106385000D02*
X121924000Y-106385000D01*
X120594000Y-107715000D02*
X120594000Y-106385000D01*
X120594000Y-108985000D02*
X123254000Y-108985000D01*
X123254000Y-108985000D02*
X123254000Y-111585000D01*
X120594000Y-108985000D02*
X120594000Y-111585000D01*
X120594000Y-111585000D02*
X123254000Y-111585000D01*
G04 #@! TO.C,LED3_6*
X162594000Y-98385000D02*
X163924000Y-98385000D01*
X162594000Y-99715000D02*
X162594000Y-98385000D01*
X162594000Y-100985000D02*
X165254000Y-100985000D01*
X165254000Y-100985000D02*
X165254000Y-103585000D01*
X162594000Y-100985000D02*
X162594000Y-103585000D01*
X162594000Y-103585000D02*
X165254000Y-103585000D01*
G04 #@! TO.C,LED3_5*
X155594000Y-98385000D02*
X156924000Y-98385000D01*
X155594000Y-99715000D02*
X155594000Y-98385000D01*
X155594000Y-100985000D02*
X158254000Y-100985000D01*
X158254000Y-100985000D02*
X158254000Y-103585000D01*
X155594000Y-100985000D02*
X155594000Y-103585000D01*
X155594000Y-103585000D02*
X158254000Y-103585000D01*
G04 #@! TO.C,LED3_4*
X148594000Y-98385000D02*
X149924000Y-98385000D01*
X148594000Y-99715000D02*
X148594000Y-98385000D01*
X148594000Y-100985000D02*
X151254000Y-100985000D01*
X151254000Y-100985000D02*
X151254000Y-103585000D01*
X148594000Y-100985000D02*
X148594000Y-103585000D01*
X148594000Y-103585000D02*
X151254000Y-103585000D01*
G04 #@! TO.C,LED3_3*
X141594000Y-98385000D02*
X142924000Y-98385000D01*
X141594000Y-99715000D02*
X141594000Y-98385000D01*
X141594000Y-100985000D02*
X144254000Y-100985000D01*
X144254000Y-100985000D02*
X144254000Y-103585000D01*
X141594000Y-100985000D02*
X141594000Y-103585000D01*
X141594000Y-103585000D02*
X144254000Y-103585000D01*
G04 #@! TO.C,LED3_2*
X134594000Y-98385000D02*
X135924000Y-98385000D01*
X134594000Y-99715000D02*
X134594000Y-98385000D01*
X134594000Y-100985000D02*
X137254000Y-100985000D01*
X137254000Y-100985000D02*
X137254000Y-103585000D01*
X134594000Y-100985000D02*
X134594000Y-103585000D01*
X134594000Y-103585000D02*
X137254000Y-103585000D01*
G04 #@! TO.C,LED3_1*
X127594000Y-98385000D02*
X128924000Y-98385000D01*
X127594000Y-99715000D02*
X127594000Y-98385000D01*
X127594000Y-100985000D02*
X130254000Y-100985000D01*
X130254000Y-100985000D02*
X130254000Y-103585000D01*
X127594000Y-100985000D02*
X127594000Y-103585000D01*
X127594000Y-103585000D02*
X130254000Y-103585000D01*
G04 #@! TO.C,LED3_0*
X120594000Y-98385000D02*
X121924000Y-98385000D01*
X120594000Y-99715000D02*
X120594000Y-98385000D01*
X120594000Y-100985000D02*
X123254000Y-100985000D01*
X123254000Y-100985000D02*
X123254000Y-103585000D01*
X120594000Y-100985000D02*
X120594000Y-103585000D01*
X120594000Y-103585000D02*
X123254000Y-103585000D01*
G04 #@! TO.C,LED2_6*
X162594000Y-90385000D02*
X163924000Y-90385000D01*
X162594000Y-91715000D02*
X162594000Y-90385000D01*
X162594000Y-92985000D02*
X165254000Y-92985000D01*
X165254000Y-92985000D02*
X165254000Y-95585000D01*
X162594000Y-92985000D02*
X162594000Y-95585000D01*
X162594000Y-95585000D02*
X165254000Y-95585000D01*
G04 #@! TO.C,LED2_5*
X155594000Y-90385000D02*
X156924000Y-90385000D01*
X155594000Y-91715000D02*
X155594000Y-90385000D01*
X155594000Y-92985000D02*
X158254000Y-92985000D01*
X158254000Y-92985000D02*
X158254000Y-95585000D01*
X155594000Y-92985000D02*
X155594000Y-95585000D01*
X155594000Y-95585000D02*
X158254000Y-95585000D01*
G04 #@! TO.C,LED2_4*
X148594000Y-90385000D02*
X149924000Y-90385000D01*
X148594000Y-91715000D02*
X148594000Y-90385000D01*
X148594000Y-92985000D02*
X151254000Y-92985000D01*
X151254000Y-92985000D02*
X151254000Y-95585000D01*
X148594000Y-92985000D02*
X148594000Y-95585000D01*
X148594000Y-95585000D02*
X151254000Y-95585000D01*
G04 #@! TO.C,LED2_3*
X141594000Y-90385000D02*
X142924000Y-90385000D01*
X141594000Y-91715000D02*
X141594000Y-90385000D01*
X141594000Y-92985000D02*
X144254000Y-92985000D01*
X144254000Y-92985000D02*
X144254000Y-95585000D01*
X141594000Y-92985000D02*
X141594000Y-95585000D01*
X141594000Y-95585000D02*
X144254000Y-95585000D01*
G04 #@! TO.C,LED2_2*
X134594000Y-90385000D02*
X135924000Y-90385000D01*
X134594000Y-91715000D02*
X134594000Y-90385000D01*
X134594000Y-92985000D02*
X137254000Y-92985000D01*
X137254000Y-92985000D02*
X137254000Y-95585000D01*
X134594000Y-92985000D02*
X134594000Y-95585000D01*
X134594000Y-95585000D02*
X137254000Y-95585000D01*
G04 #@! TO.C,LED2_1*
X127594000Y-90385000D02*
X128924000Y-90385000D01*
X127594000Y-91715000D02*
X127594000Y-90385000D01*
X127594000Y-92985000D02*
X130254000Y-92985000D01*
X130254000Y-92985000D02*
X130254000Y-95585000D01*
X127594000Y-92985000D02*
X127594000Y-95585000D01*
X127594000Y-95585000D02*
X130254000Y-95585000D01*
G04 #@! TO.C,LED2_0*
X120594000Y-90385000D02*
X121924000Y-90385000D01*
X120594000Y-91715000D02*
X120594000Y-90385000D01*
X120594000Y-92985000D02*
X123254000Y-92985000D01*
X123254000Y-92985000D02*
X123254000Y-95585000D01*
X120594000Y-92985000D02*
X120594000Y-95585000D01*
X120594000Y-95585000D02*
X123254000Y-95585000D01*
G04 #@! TO.C,LED1_6*
X162594000Y-82385000D02*
X163924000Y-82385000D01*
X162594000Y-83715000D02*
X162594000Y-82385000D01*
X162594000Y-84985000D02*
X165254000Y-84985000D01*
X165254000Y-84985000D02*
X165254000Y-87585000D01*
X162594000Y-84985000D02*
X162594000Y-87585000D01*
X162594000Y-87585000D02*
X165254000Y-87585000D01*
G04 #@! TO.C,LED1_5*
X155594000Y-82385000D02*
X156924000Y-82385000D01*
X155594000Y-83715000D02*
X155594000Y-82385000D01*
X155594000Y-84985000D02*
X158254000Y-84985000D01*
X158254000Y-84985000D02*
X158254000Y-87585000D01*
X155594000Y-84985000D02*
X155594000Y-87585000D01*
X155594000Y-87585000D02*
X158254000Y-87585000D01*
G04 #@! TO.C,LED1_4*
X148594000Y-82385000D02*
X149924000Y-82385000D01*
X148594000Y-83715000D02*
X148594000Y-82385000D01*
X148594000Y-84985000D02*
X151254000Y-84985000D01*
X151254000Y-84985000D02*
X151254000Y-87585000D01*
X148594000Y-84985000D02*
X148594000Y-87585000D01*
X148594000Y-87585000D02*
X151254000Y-87585000D01*
G04 #@! TO.C,LED1_3*
X141594000Y-82385000D02*
X142924000Y-82385000D01*
X141594000Y-83715000D02*
X141594000Y-82385000D01*
X141594000Y-84985000D02*
X144254000Y-84985000D01*
X144254000Y-84985000D02*
X144254000Y-87585000D01*
X141594000Y-84985000D02*
X141594000Y-87585000D01*
X141594000Y-87585000D02*
X144254000Y-87585000D01*
G04 #@! TO.C,LED1_2*
X134594000Y-82385000D02*
X135924000Y-82385000D01*
X134594000Y-83715000D02*
X134594000Y-82385000D01*
X134594000Y-84985000D02*
X137254000Y-84985000D01*
X137254000Y-84985000D02*
X137254000Y-87585000D01*
X134594000Y-84985000D02*
X134594000Y-87585000D01*
X134594000Y-87585000D02*
X137254000Y-87585000D01*
G04 #@! TO.C,LED1_1*
X127594000Y-82385000D02*
X128924000Y-82385000D01*
X127594000Y-83715000D02*
X127594000Y-82385000D01*
X127594000Y-84985000D02*
X130254000Y-84985000D01*
X130254000Y-84985000D02*
X130254000Y-87585000D01*
X127594000Y-84985000D02*
X127594000Y-87585000D01*
X127594000Y-87585000D02*
X130254000Y-87585000D01*
G04 #@! TO.C,LED1_0*
X120594000Y-82385000D02*
X121924000Y-82385000D01*
X120594000Y-83715000D02*
X120594000Y-82385000D01*
X120594000Y-84985000D02*
X123254000Y-84985000D01*
X123254000Y-84985000D02*
X123254000Y-87585000D01*
X120594000Y-84985000D02*
X120594000Y-87585000D01*
X120594000Y-87585000D02*
X123254000Y-87585000D01*
G04 #@! TO.C,LED0_6*
X162594000Y-74385000D02*
X163924000Y-74385000D01*
X162594000Y-75715000D02*
X162594000Y-74385000D01*
X162594000Y-76985000D02*
X165254000Y-76985000D01*
X165254000Y-76985000D02*
X165254000Y-79585000D01*
X162594000Y-76985000D02*
X162594000Y-79585000D01*
X162594000Y-79585000D02*
X165254000Y-79585000D01*
G04 #@! TO.C,LED0_5*
X155594000Y-74385000D02*
X156924000Y-74385000D01*
X155594000Y-75715000D02*
X155594000Y-74385000D01*
X155594000Y-76985000D02*
X158254000Y-76985000D01*
X158254000Y-76985000D02*
X158254000Y-79585000D01*
X155594000Y-76985000D02*
X155594000Y-79585000D01*
X155594000Y-79585000D02*
X158254000Y-79585000D01*
G04 #@! TO.C,LED0_4*
X148594000Y-74385000D02*
X149924000Y-74385000D01*
X148594000Y-75715000D02*
X148594000Y-74385000D01*
X148594000Y-76985000D02*
X151254000Y-76985000D01*
X151254000Y-76985000D02*
X151254000Y-79585000D01*
X148594000Y-76985000D02*
X148594000Y-79585000D01*
X148594000Y-79585000D02*
X151254000Y-79585000D01*
G04 #@! TO.C,LED0_3*
X141594000Y-74385000D02*
X142924000Y-74385000D01*
X141594000Y-75715000D02*
X141594000Y-74385000D01*
X141594000Y-76985000D02*
X144254000Y-76985000D01*
X144254000Y-76985000D02*
X144254000Y-79585000D01*
X141594000Y-76985000D02*
X141594000Y-79585000D01*
X141594000Y-79585000D02*
X144254000Y-79585000D01*
G04 #@! TO.C,LED0_2*
X134594000Y-74385000D02*
X135924000Y-74385000D01*
X134594000Y-75715000D02*
X134594000Y-74385000D01*
X134594000Y-76985000D02*
X137254000Y-76985000D01*
X137254000Y-76985000D02*
X137254000Y-79585000D01*
X134594000Y-76985000D02*
X134594000Y-79585000D01*
X134594000Y-79585000D02*
X137254000Y-79585000D01*
G04 #@! TO.C,LED0_1*
X127594000Y-74385000D02*
X128924000Y-74385000D01*
X127594000Y-75715000D02*
X127594000Y-74385000D01*
X127594000Y-76985000D02*
X130254000Y-76985000D01*
X130254000Y-76985000D02*
X130254000Y-79585000D01*
X127594000Y-76985000D02*
X127594000Y-79585000D01*
X127594000Y-79585000D02*
X130254000Y-79585000D01*
G04 #@! TO.C,LED0_0*
X120594000Y-74385000D02*
X121924000Y-74385000D01*
X120594000Y-75715000D02*
X120594000Y-74385000D01*
X120594000Y-76985000D02*
X123254000Y-76985000D01*
X123254000Y-76985000D02*
X123254000Y-79585000D01*
X120594000Y-76985000D02*
X120594000Y-79585000D01*
X120594000Y-79585000D02*
X123254000Y-79585000D01*
G04 #@! TO.C,GND1*
X204181400Y-128718000D02*
X205511400Y-128718000D01*
X204181400Y-130048000D02*
X204181400Y-128718000D01*
X204181400Y-131318000D02*
X206841400Y-131318000D01*
X206841400Y-131318000D02*
X206841400Y-131378000D01*
X204181400Y-131318000D02*
X204181400Y-131378000D01*
X204181400Y-131378000D02*
X206841400Y-131378000D01*
D14*
G04 #@! TO.C,FET13*
X162572200Y-70713400D02*
X162422200Y-70413400D01*
X162872200Y-70713400D02*
X162572200Y-70713400D01*
X167272200Y-70713400D02*
X166972200Y-70713400D01*
X167272200Y-70713400D02*
X167422200Y-70413400D01*
D11*
X166872200Y-67563400D02*
G75*
G03X163022200Y-67513400I-1950000J-1900000D01*
G01*
D14*
G04 #@! TO.C,FET12*
X155536400Y-70713400D02*
X155386400Y-70413400D01*
X155836400Y-70713400D02*
X155536400Y-70713400D01*
X160236400Y-70713400D02*
X159936400Y-70713400D01*
X160236400Y-70713400D02*
X160386400Y-70413400D01*
D11*
X159836400Y-67563400D02*
G75*
G03X155986400Y-67513400I-1950000J-1900000D01*
G01*
D14*
G04 #@! TO.C,FET11*
X148767300Y-70624500D02*
X148617300Y-70324500D01*
X149067300Y-70624500D02*
X148767300Y-70624500D01*
X153467300Y-70624500D02*
X153167300Y-70624500D01*
X153467300Y-70624500D02*
X153617300Y-70324500D01*
D11*
X153067300Y-67474500D02*
G75*
G03X149217300Y-67424500I-1950000J-1900000D01*
G01*
D14*
G04 #@! TO.C,FET10*
X142099800Y-70522900D02*
X141949800Y-70222900D01*
X142399800Y-70522900D02*
X142099800Y-70522900D01*
X146799800Y-70522900D02*
X146499800Y-70522900D01*
X146799800Y-70522900D02*
X146949800Y-70222900D01*
D11*
X146399800Y-67372900D02*
G75*
G03X142549800Y-67322900I-1950000J-1900000D01*
G01*
D14*
G04 #@! TO.C,FET9*
X135203700Y-70510200D02*
X135053700Y-70210200D01*
X135503700Y-70510200D02*
X135203700Y-70510200D01*
X139903700Y-70510200D02*
X139603700Y-70510200D01*
X139903700Y-70510200D02*
X140053700Y-70210200D01*
D11*
X139503700Y-67360200D02*
G75*
G03X135653700Y-67310200I-1950000J-1900000D01*
G01*
D14*
G04 #@! TO.C,FET8*
X128320300Y-70561000D02*
X128170300Y-70261000D01*
X128620300Y-70561000D02*
X128320300Y-70561000D01*
X133020300Y-70561000D02*
X132720300Y-70561000D01*
X133020300Y-70561000D02*
X133170300Y-70261000D01*
D11*
X132620300Y-67411000D02*
G75*
G03X128770300Y-67361000I-1950000J-1900000D01*
G01*
D14*
G04 #@! TO.C,FET7*
X121513100Y-70561000D02*
X121363100Y-70261000D01*
X121813100Y-70561000D02*
X121513100Y-70561000D01*
X126213100Y-70561000D02*
X125913100Y-70561000D01*
X126213100Y-70561000D02*
X126363100Y-70261000D01*
D11*
X125813100Y-67411000D02*
G75*
G03X121963100Y-67361000I-1950000J-1900000D01*
G01*
D14*
G04 #@! TO.C,FET6*
X176072600Y-120561600D02*
X175772600Y-120711600D01*
X176072600Y-120261600D02*
X176072600Y-120561600D01*
X176072600Y-115861600D02*
X176072600Y-116161600D01*
X176072600Y-115861600D02*
X175772600Y-115711600D01*
D11*
X172922600Y-116261600D02*
G75*
G03X172872600Y-120111600I1900000J-1950000D01*
G01*
D14*
G04 #@! TO.C,FET5*
X176174200Y-113170200D02*
X175874200Y-113320200D01*
X176174200Y-112870200D02*
X176174200Y-113170200D01*
X176174200Y-108470200D02*
X176174200Y-108770200D01*
X176174200Y-108470200D02*
X175874200Y-108320200D01*
D11*
X173024200Y-108870200D02*
G75*
G03X172974200Y-112720200I1900000J-1950000D01*
G01*
D14*
G04 #@! TO.C,FET4*
X176186900Y-105842300D02*
X175886900Y-105992300D01*
X176186900Y-105542300D02*
X176186900Y-105842300D01*
X176186900Y-101142300D02*
X176186900Y-101442300D01*
X176186900Y-101142300D02*
X175886900Y-100992300D01*
D11*
X173036900Y-101542300D02*
G75*
G03X172986900Y-105392300I1900000J-1950000D01*
G01*
D14*
G04 #@! TO.C,FET3*
X176237700Y-98463600D02*
X175937700Y-98613600D01*
X176237700Y-98163600D02*
X176237700Y-98463600D01*
X176237700Y-93763600D02*
X176237700Y-94063600D01*
X176237700Y-93763600D02*
X175937700Y-93613600D01*
D11*
X173087700Y-94163600D02*
G75*
G03X173037700Y-98013600I1900000J-1950000D01*
G01*
D14*
G04 #@! TO.C,FET2*
X176174200Y-91161100D02*
X175874200Y-91311100D01*
X176174200Y-90861100D02*
X176174200Y-91161100D01*
X176174200Y-86461100D02*
X176174200Y-86761100D01*
X176174200Y-86461100D02*
X175874200Y-86311100D01*
D11*
X173024200Y-86861100D02*
G75*
G03X172974200Y-90711100I1900000J-1950000D01*
G01*
D14*
G04 #@! TO.C,FET1*
X176161500Y-83922100D02*
X175861500Y-84072100D01*
X176161500Y-83622100D02*
X176161500Y-83922100D01*
X176161500Y-79222100D02*
X176161500Y-79522100D01*
X176161500Y-79222100D02*
X175861500Y-79072100D01*
D11*
X173011500Y-79622100D02*
G75*
G03X172961500Y-83472100I1900000J-1950000D01*
G01*
D14*
G04 #@! TO.C,FET0*
X176098000Y-76606900D02*
X175798000Y-76756900D01*
X176098000Y-76306900D02*
X176098000Y-76606900D01*
X176098000Y-71906900D02*
X176098000Y-72206900D01*
X176098000Y-71906900D02*
X175798000Y-71756900D01*
D11*
X172948000Y-72306900D02*
G75*
G03X172898000Y-76156900I1900000J-1950000D01*
G01*
D12*
G04 #@! TO.C,COMMS1*
X193767400Y-132508300D02*
X196427400Y-132508300D01*
X193767400Y-129908300D02*
X193767400Y-132508300D01*
X196427400Y-129908300D02*
X196427400Y-132508300D01*
X193767400Y-129908300D02*
X196427400Y-129908300D01*
X193767400Y-128638300D02*
X193767400Y-127308300D01*
X193767400Y-127308300D02*
X195097400Y-127308300D01*
G04 #@! TO.C,COMMS0*
X197793300Y-127321000D02*
X199123300Y-127321000D01*
X197793300Y-128651000D02*
X197793300Y-127321000D01*
X197793300Y-129921000D02*
X200453300Y-129921000D01*
X200453300Y-129921000D02*
X200453300Y-132521000D01*
X197793300Y-129921000D02*
X197793300Y-132521000D01*
X197793300Y-132521000D02*
X200453300Y-132521000D01*
G04 #@! TO.C,+5VIN1*
X213445400Y-74031800D02*
X213445400Y-75361800D01*
X212115400Y-74031800D02*
X213445400Y-74031800D01*
X210845400Y-74031800D02*
X210845400Y-76691800D01*
X210845400Y-76691800D02*
X208245400Y-76691800D01*
X210845400Y-74031800D02*
X208245400Y-74031800D01*
X208245400Y-74031800D02*
X208245400Y-76691800D01*
G04 #@! TO.C,C0.1nF0*
X206759001Y-125575600D02*
X206759001Y-125175600D01*
X206959001Y-125375600D02*
X206559001Y-125375600D01*
X202608200Y-124550600D02*
X202608200Y-123810600D01*
X202648200Y-124717600D02*
X202648200Y-123643600D01*
X202688200Y-124844600D02*
X202688200Y-123516600D01*
X202728200Y-124948600D02*
X202728200Y-123412600D01*
X202768200Y-125039600D02*
X202768200Y-123321600D01*
X202808200Y-125120600D02*
X202808200Y-123240600D01*
X202848200Y-125193600D02*
X202848200Y-123167600D01*
X202888200Y-123340600D02*
X202888200Y-123100600D01*
X202888200Y-125260600D02*
X202888200Y-125020600D01*
X202928200Y-123340600D02*
X202928200Y-123038600D01*
X202928200Y-125322600D02*
X202928200Y-125020600D01*
X202968200Y-123340600D02*
X202968200Y-122980600D01*
X202968200Y-125380600D02*
X202968200Y-125020600D01*
X203008200Y-123340600D02*
X203008200Y-122926600D01*
X203008200Y-125434600D02*
X203008200Y-125020600D01*
X203048200Y-123340600D02*
X203048200Y-122876600D01*
X203048200Y-125484600D02*
X203048200Y-125020600D01*
X203088200Y-123340600D02*
X203088200Y-122829600D01*
X203088200Y-125531600D02*
X203088200Y-125020600D01*
X203128200Y-123340600D02*
X203128200Y-122784600D01*
X203128200Y-125576600D02*
X203128200Y-125020600D01*
X203168200Y-123340600D02*
X203168200Y-122742600D01*
X203168200Y-125618600D02*
X203168200Y-125020600D01*
X203208200Y-123340600D02*
X203208200Y-122702600D01*
X203208200Y-125658600D02*
X203208200Y-125020600D01*
X203248200Y-123340600D02*
X203248200Y-122664600D01*
X203248200Y-125696600D02*
X203248200Y-125020600D01*
X203288200Y-123340600D02*
X203288200Y-122628600D01*
X203288200Y-125732600D02*
X203288200Y-125020600D01*
X203328200Y-123340600D02*
X203328200Y-122593600D01*
X203328200Y-125767600D02*
X203328200Y-125020600D01*
X203368200Y-123340600D02*
X203368200Y-122561600D01*
X203368200Y-125799600D02*
X203368200Y-125020600D01*
X203408200Y-123340600D02*
X203408200Y-122530600D01*
X203408200Y-125830600D02*
X203408200Y-125020600D01*
X203448200Y-123340600D02*
X203448200Y-122500600D01*
X203448200Y-125860600D02*
X203448200Y-125020600D01*
X203488200Y-123340600D02*
X203488200Y-122472600D01*
X203488200Y-125888600D02*
X203488200Y-125020600D01*
X203528200Y-123340600D02*
X203528200Y-122445600D01*
X203528200Y-125915600D02*
X203528200Y-125020600D01*
X203568200Y-123340600D02*
X203568200Y-122420600D01*
X203568200Y-125940600D02*
X203568200Y-125020600D01*
X203608200Y-123340600D02*
X203608200Y-122395600D01*
X203608200Y-125965600D02*
X203608200Y-125020600D01*
X203648200Y-123340600D02*
X203648200Y-122372600D01*
X203648200Y-125988600D02*
X203648200Y-125020600D01*
X203688200Y-123340600D02*
X203688200Y-122350600D01*
X203688200Y-126010600D02*
X203688200Y-125020600D01*
X203728200Y-123340600D02*
X203728200Y-122329600D01*
X203728200Y-126031600D02*
X203728200Y-125020600D01*
X203768200Y-123340600D02*
X203768200Y-122310600D01*
X203768200Y-126050600D02*
X203768200Y-125020600D01*
X203808200Y-123340600D02*
X203808200Y-122291600D01*
X203808200Y-126069600D02*
X203808200Y-125020600D01*
X203848200Y-123340600D02*
X203848200Y-122273600D01*
X203848200Y-126087600D02*
X203848200Y-125020600D01*
X203888200Y-123340600D02*
X203888200Y-122256600D01*
X203888200Y-126104600D02*
X203888200Y-125020600D01*
X203928200Y-123340600D02*
X203928200Y-122240600D01*
X203928200Y-126120600D02*
X203928200Y-125020600D01*
X203968200Y-123340600D02*
X203968200Y-122226600D01*
X203968200Y-126134600D02*
X203968200Y-125020600D01*
X204009200Y-123340600D02*
X204009200Y-122212600D01*
X204009200Y-126148600D02*
X204009200Y-125020600D01*
X204049200Y-123340600D02*
X204049200Y-122198600D01*
X204049200Y-126162600D02*
X204049200Y-125020600D01*
X204089200Y-123340600D02*
X204089200Y-122186600D01*
X204089200Y-126174600D02*
X204089200Y-125020600D01*
X204129200Y-123340600D02*
X204129200Y-122175600D01*
X204129200Y-126185600D02*
X204129200Y-125020600D01*
X204169200Y-123340600D02*
X204169200Y-122164600D01*
X204169200Y-126196600D02*
X204169200Y-125020600D01*
X204209200Y-123340600D02*
X204209200Y-122155600D01*
X204209200Y-126205600D02*
X204209200Y-125020600D01*
X204249200Y-123340600D02*
X204249200Y-122146600D01*
X204249200Y-126214600D02*
X204249200Y-125020600D01*
X204289200Y-123340600D02*
X204289200Y-122138600D01*
X204289200Y-126222600D02*
X204289200Y-125020600D01*
X204329200Y-123340600D02*
X204329200Y-122130600D01*
X204329200Y-126230600D02*
X204329200Y-125020600D01*
X204369200Y-123340600D02*
X204369200Y-122124600D01*
X204369200Y-126236600D02*
X204369200Y-125020600D01*
X204409200Y-123340600D02*
X204409200Y-122118600D01*
X204409200Y-126242600D02*
X204409200Y-125020600D01*
X204449200Y-123340600D02*
X204449200Y-122113600D01*
X204449200Y-126247600D02*
X204449200Y-125020600D01*
X204489200Y-123340600D02*
X204489200Y-122109600D01*
X204489200Y-126251600D02*
X204489200Y-125020600D01*
X204529200Y-126254600D02*
X204529200Y-122106600D01*
X204569200Y-126257600D02*
X204569200Y-122103600D01*
X204609200Y-126259600D02*
X204609200Y-122101600D01*
X204649200Y-126260600D02*
X204649200Y-122100600D01*
X204689200Y-126260600D02*
X204689200Y-122100600D01*
X206809200Y-124180600D02*
G75*
G03X206809200Y-124180600I-2120000J0D01*
G01*
D13*
G04 #@! TO.C,Prt_IC1*
X193852800Y-120710960D02*
X193852800Y-119697500D01*
X193852800Y-119697500D02*
X192201800Y-119697500D01*
X193852800Y-122948700D02*
X193852800Y-121935240D01*
X192201800Y-122948700D02*
X193852800Y-122948700D01*
X192201800Y-120985239D02*
X192201800Y-121660961D01*
D12*
G04 #@! TO.C,J3*
X203482900Y-86681000D02*
X204812900Y-86681000D01*
X203482900Y-88011000D02*
X203482900Y-86681000D01*
X203482900Y-89281000D02*
X206142900Y-89281000D01*
X206142900Y-89281000D02*
X206142900Y-117281000D01*
X203482900Y-89281000D02*
X203482900Y-117281000D01*
X203482900Y-117281000D02*
X206142900Y-117281000D01*
G04 #@! TO.C,J2*
X183162900Y-76521000D02*
X184492900Y-76521000D01*
X183162900Y-77851000D02*
X183162900Y-76521000D01*
X183162900Y-79121000D02*
X185822900Y-79121000D01*
X185822900Y-79121000D02*
X185822900Y-117281000D01*
X183162900Y-79121000D02*
X183162900Y-117281000D01*
X183162900Y-117281000D02*
X185822900Y-117281000D01*
G04 #@! TD*
G04 #@! TO.C,CP0*
D11*
X210833333Y-89857142D02*
X210785714Y-89904761D01*
X210642857Y-89952380D01*
X210547619Y-89952380D01*
X210404761Y-89904761D01*
X210309523Y-89809523D01*
X210261904Y-89714285D01*
X210214285Y-89523809D01*
X210214285Y-89380952D01*
X210261904Y-89190476D01*
X210309523Y-89095238D01*
X210404761Y-89000000D01*
X210547619Y-88952380D01*
X210642857Y-88952380D01*
X210785714Y-89000000D01*
X210833333Y-89047619D01*
X211261904Y-89952380D02*
X211261904Y-88952380D01*
X211642857Y-88952380D01*
X211738095Y-89000000D01*
X211785714Y-89047619D01*
X211833333Y-89142857D01*
X211833333Y-89285714D01*
X211785714Y-89380952D01*
X211738095Y-89428571D01*
X211642857Y-89476190D01*
X211261904Y-89476190D01*
X212452380Y-88952380D02*
X212547619Y-88952380D01*
X212642857Y-89000000D01*
X212690476Y-89047619D01*
X212738095Y-89142857D01*
X212785714Y-89333333D01*
X212785714Y-89571428D01*
X212738095Y-89761904D01*
X212690476Y-89857142D01*
X212642857Y-89904761D01*
X212547619Y-89952380D01*
X212452380Y-89952380D01*
X212357142Y-89904761D01*
X212309523Y-89857142D01*
X212261904Y-89761904D01*
X212214285Y-89571428D01*
X212214285Y-89333333D01*
X212261904Y-89142857D01*
X212309523Y-89047619D01*
X212357142Y-89000000D01*
X212452380Y-88952380D01*
G04 #@! TO.C,RS-485*
X188209514Y-118194080D02*
X187876180Y-117717890D01*
X187638085Y-118194080D02*
X187638085Y-117194080D01*
X188019038Y-117194080D01*
X188114276Y-117241700D01*
X188161895Y-117289319D01*
X188209514Y-117384557D01*
X188209514Y-117527414D01*
X188161895Y-117622652D01*
X188114276Y-117670271D01*
X188019038Y-117717890D01*
X187638085Y-117717890D01*
X188590466Y-118146461D02*
X188733323Y-118194080D01*
X188971419Y-118194080D01*
X189066657Y-118146461D01*
X189114276Y-118098842D01*
X189161895Y-118003604D01*
X189161895Y-117908366D01*
X189114276Y-117813128D01*
X189066657Y-117765509D01*
X188971419Y-117717890D01*
X188780942Y-117670271D01*
X188685704Y-117622652D01*
X188638085Y-117575033D01*
X188590466Y-117479795D01*
X188590466Y-117384557D01*
X188638085Y-117289319D01*
X188685704Y-117241700D01*
X188780942Y-117194080D01*
X189019038Y-117194080D01*
X189161895Y-117241700D01*
X189590466Y-117813128D02*
X190352371Y-117813128D01*
X191257133Y-117527414D02*
X191257133Y-118194080D01*
X191019038Y-117146461D02*
X190780942Y-117860747D01*
X191399990Y-117860747D01*
X191923800Y-117622652D02*
X191828561Y-117575033D01*
X191780942Y-117527414D01*
X191733323Y-117432176D01*
X191733323Y-117384557D01*
X191780942Y-117289319D01*
X191828561Y-117241700D01*
X191923800Y-117194080D01*
X192114276Y-117194080D01*
X192209514Y-117241700D01*
X192257133Y-117289319D01*
X192304752Y-117384557D01*
X192304752Y-117432176D01*
X192257133Y-117527414D01*
X192209514Y-117575033D01*
X192114276Y-117622652D01*
X191923800Y-117622652D01*
X191828561Y-117670271D01*
X191780942Y-117717890D01*
X191733323Y-117813128D01*
X191733323Y-118003604D01*
X191780942Y-118098842D01*
X191828561Y-118146461D01*
X191923800Y-118194080D01*
X192114276Y-118194080D01*
X192209514Y-118146461D01*
X192257133Y-118098842D01*
X192304752Y-118003604D01*
X192304752Y-117813128D01*
X192257133Y-117717890D01*
X192209514Y-117670271D01*
X192114276Y-117622652D01*
X193209514Y-117194080D02*
X192733323Y-117194080D01*
X192685704Y-117670271D01*
X192733323Y-117622652D01*
X192828561Y-117575033D01*
X193066657Y-117575033D01*
X193161895Y-117622652D01*
X193209514Y-117670271D01*
X193257133Y-117765509D01*
X193257133Y-118003604D01*
X193209514Y-118098842D01*
X193161895Y-118146461D01*
X193066657Y-118194080D01*
X192828561Y-118194080D01*
X192733323Y-118146461D01*
X192685704Y-118098842D01*
G04 #@! TO.C,R10k13*
X167927280Y-64522100D02*
X167451090Y-64855433D01*
X167927280Y-65093528D02*
X166927280Y-65093528D01*
X166927280Y-64712576D01*
X166974900Y-64617338D01*
X167022519Y-64569719D01*
X167117757Y-64522100D01*
X167260614Y-64522100D01*
X167355852Y-64569719D01*
X167403471Y-64617338D01*
X167451090Y-64712576D01*
X167451090Y-65093528D01*
X167927280Y-63569719D02*
X167927280Y-64141147D01*
X167927280Y-63855433D02*
X166927280Y-63855433D01*
X167070138Y-63950671D01*
X167165376Y-64045909D01*
X167212995Y-64141147D01*
X166927280Y-62950671D02*
X166927280Y-62855433D01*
X166974900Y-62760195D01*
X167022519Y-62712576D01*
X167117757Y-62664957D01*
X167308233Y-62617338D01*
X167546328Y-62617338D01*
X167736804Y-62664957D01*
X167832042Y-62712576D01*
X167879661Y-62760195D01*
X167927280Y-62855433D01*
X167927280Y-62950671D01*
X167879661Y-63045909D01*
X167832042Y-63093528D01*
X167736804Y-63141147D01*
X167546328Y-63188766D01*
X167308233Y-63188766D01*
X167117757Y-63141147D01*
X167022519Y-63093528D01*
X166974900Y-63045909D01*
X166927280Y-62950671D01*
X167927280Y-62188766D02*
X166927280Y-62188766D01*
X167546328Y-62093528D02*
X167927280Y-61807814D01*
X167260614Y-61807814D02*
X167641566Y-62188766D01*
X167927280Y-60855433D02*
X167927280Y-61426861D01*
X167927280Y-61141147D02*
X166927280Y-61141147D01*
X167070138Y-61236385D01*
X167165376Y-61331623D01*
X167212995Y-61426861D01*
X166927280Y-60522100D02*
X166927280Y-59903052D01*
X167308233Y-60236385D01*
X167308233Y-60093528D01*
X167355852Y-59998290D01*
X167403471Y-59950671D01*
X167498709Y-59903052D01*
X167736804Y-59903052D01*
X167832042Y-59950671D01*
X167879661Y-59998290D01*
X167927280Y-60093528D01*
X167927280Y-60379242D01*
X167879661Y-60474480D01*
X167832042Y-60522100D01*
G04 #@! TO.C,R10k12*
X160192980Y-63506100D02*
X159716790Y-63839433D01*
X160192980Y-64077528D02*
X159192980Y-64077528D01*
X159192980Y-63696576D01*
X159240600Y-63601338D01*
X159288219Y-63553719D01*
X159383457Y-63506100D01*
X159526314Y-63506100D01*
X159621552Y-63553719D01*
X159669171Y-63601338D01*
X159716790Y-63696576D01*
X159716790Y-64077528D01*
X160192980Y-62553719D02*
X160192980Y-63125147D01*
X160192980Y-62839433D02*
X159192980Y-62839433D01*
X159335838Y-62934671D01*
X159431076Y-63029909D01*
X159478695Y-63125147D01*
X159192980Y-61934671D02*
X159192980Y-61839433D01*
X159240600Y-61744195D01*
X159288219Y-61696576D01*
X159383457Y-61648957D01*
X159573933Y-61601338D01*
X159812028Y-61601338D01*
X160002504Y-61648957D01*
X160097742Y-61696576D01*
X160145361Y-61744195D01*
X160192980Y-61839433D01*
X160192980Y-61934671D01*
X160145361Y-62029909D01*
X160097742Y-62077528D01*
X160002504Y-62125147D01*
X159812028Y-62172766D01*
X159573933Y-62172766D01*
X159383457Y-62125147D01*
X159288219Y-62077528D01*
X159240600Y-62029909D01*
X159192980Y-61934671D01*
X160192980Y-61172766D02*
X159192980Y-61172766D01*
X159812028Y-61077528D02*
X160192980Y-60791814D01*
X159526314Y-60791814D02*
X159907266Y-61172766D01*
X160192980Y-59839433D02*
X160192980Y-60410861D01*
X160192980Y-60125147D02*
X159192980Y-60125147D01*
X159335838Y-60220385D01*
X159431076Y-60315623D01*
X159478695Y-60410861D01*
X159288219Y-59458480D02*
X159240600Y-59410861D01*
X159192980Y-59315623D01*
X159192980Y-59077528D01*
X159240600Y-58982290D01*
X159288219Y-58934671D01*
X159383457Y-58887052D01*
X159478695Y-58887052D01*
X159621552Y-58934671D01*
X160192980Y-59506100D01*
X160192980Y-58887052D01*
G04 #@! TO.C,R10k11*
X153334980Y-63137800D02*
X152858790Y-63471133D01*
X153334980Y-63709228D02*
X152334980Y-63709228D01*
X152334980Y-63328276D01*
X152382600Y-63233038D01*
X152430219Y-63185419D01*
X152525457Y-63137800D01*
X152668314Y-63137800D01*
X152763552Y-63185419D01*
X152811171Y-63233038D01*
X152858790Y-63328276D01*
X152858790Y-63709228D01*
X153334980Y-62185419D02*
X153334980Y-62756847D01*
X153334980Y-62471133D02*
X152334980Y-62471133D01*
X152477838Y-62566371D01*
X152573076Y-62661609D01*
X152620695Y-62756847D01*
X152334980Y-61566371D02*
X152334980Y-61471133D01*
X152382600Y-61375895D01*
X152430219Y-61328276D01*
X152525457Y-61280657D01*
X152715933Y-61233038D01*
X152954028Y-61233038D01*
X153144504Y-61280657D01*
X153239742Y-61328276D01*
X153287361Y-61375895D01*
X153334980Y-61471133D01*
X153334980Y-61566371D01*
X153287361Y-61661609D01*
X153239742Y-61709228D01*
X153144504Y-61756847D01*
X152954028Y-61804466D01*
X152715933Y-61804466D01*
X152525457Y-61756847D01*
X152430219Y-61709228D01*
X152382600Y-61661609D01*
X152334980Y-61566371D01*
X153334980Y-60804466D02*
X152334980Y-60804466D01*
X152954028Y-60709228D02*
X153334980Y-60423514D01*
X152668314Y-60423514D02*
X153049266Y-60804466D01*
X153334980Y-59471133D02*
X153334980Y-60042561D01*
X153334980Y-59756847D02*
X152334980Y-59756847D01*
X152477838Y-59852085D01*
X152573076Y-59947323D01*
X152620695Y-60042561D01*
X153334980Y-58518752D02*
X153334980Y-59090180D01*
X153334980Y-58804466D02*
X152334980Y-58804466D01*
X152477838Y-58899704D01*
X152573076Y-58994942D01*
X152620695Y-59090180D01*
G04 #@! TO.C,R10k10*
X146921480Y-63328300D02*
X146445290Y-63661633D01*
X146921480Y-63899728D02*
X145921480Y-63899728D01*
X145921480Y-63518776D01*
X145969100Y-63423538D01*
X146016719Y-63375919D01*
X146111957Y-63328300D01*
X146254814Y-63328300D01*
X146350052Y-63375919D01*
X146397671Y-63423538D01*
X146445290Y-63518776D01*
X146445290Y-63899728D01*
X146921480Y-62375919D02*
X146921480Y-62947347D01*
X146921480Y-62661633D02*
X145921480Y-62661633D01*
X146064338Y-62756871D01*
X146159576Y-62852109D01*
X146207195Y-62947347D01*
X145921480Y-61756871D02*
X145921480Y-61661633D01*
X145969100Y-61566395D01*
X146016719Y-61518776D01*
X146111957Y-61471157D01*
X146302433Y-61423538D01*
X146540528Y-61423538D01*
X146731004Y-61471157D01*
X146826242Y-61518776D01*
X146873861Y-61566395D01*
X146921480Y-61661633D01*
X146921480Y-61756871D01*
X146873861Y-61852109D01*
X146826242Y-61899728D01*
X146731004Y-61947347D01*
X146540528Y-61994966D01*
X146302433Y-61994966D01*
X146111957Y-61947347D01*
X146016719Y-61899728D01*
X145969100Y-61852109D01*
X145921480Y-61756871D01*
X146921480Y-60994966D02*
X145921480Y-60994966D01*
X146540528Y-60899728D02*
X146921480Y-60614014D01*
X146254814Y-60614014D02*
X146635766Y-60994966D01*
X146921480Y-59661633D02*
X146921480Y-60233061D01*
X146921480Y-59947347D02*
X145921480Y-59947347D01*
X146064338Y-60042585D01*
X146159576Y-60137823D01*
X146207195Y-60233061D01*
X145921480Y-59042585D02*
X145921480Y-58947347D01*
X145969100Y-58852109D01*
X146016719Y-58804490D01*
X146111957Y-58756871D01*
X146302433Y-58709252D01*
X146540528Y-58709252D01*
X146731004Y-58756871D01*
X146826242Y-58804490D01*
X146873861Y-58852109D01*
X146921480Y-58947347D01*
X146921480Y-59042585D01*
X146873861Y-59137823D01*
X146826242Y-59185442D01*
X146731004Y-59233061D01*
X146540528Y-59280680D01*
X146302433Y-59280680D01*
X146111957Y-59233061D01*
X146016719Y-59185442D01*
X145969100Y-59137823D01*
X145921480Y-59042585D01*
G04 #@! TO.C,R10k9*
X140253980Y-63347409D02*
X139777790Y-63680742D01*
X140253980Y-63918838D02*
X139253980Y-63918838D01*
X139253980Y-63537885D01*
X139301600Y-63442647D01*
X139349219Y-63395028D01*
X139444457Y-63347409D01*
X139587314Y-63347409D01*
X139682552Y-63395028D01*
X139730171Y-63442647D01*
X139777790Y-63537885D01*
X139777790Y-63918838D01*
X140253980Y-62395028D02*
X140253980Y-62966457D01*
X140253980Y-62680742D02*
X139253980Y-62680742D01*
X139396838Y-62775980D01*
X139492076Y-62871219D01*
X139539695Y-62966457D01*
X139253980Y-61775980D02*
X139253980Y-61680742D01*
X139301600Y-61585504D01*
X139349219Y-61537885D01*
X139444457Y-61490266D01*
X139634933Y-61442647D01*
X139873028Y-61442647D01*
X140063504Y-61490266D01*
X140158742Y-61537885D01*
X140206361Y-61585504D01*
X140253980Y-61680742D01*
X140253980Y-61775980D01*
X140206361Y-61871219D01*
X140158742Y-61918838D01*
X140063504Y-61966457D01*
X139873028Y-62014076D01*
X139634933Y-62014076D01*
X139444457Y-61966457D01*
X139349219Y-61918838D01*
X139301600Y-61871219D01*
X139253980Y-61775980D01*
X140253980Y-61014076D02*
X139253980Y-61014076D01*
X139873028Y-60918838D02*
X140253980Y-60633123D01*
X139587314Y-60633123D02*
X139968266Y-61014076D01*
X140253980Y-60156933D02*
X140253980Y-59966457D01*
X140206361Y-59871219D01*
X140158742Y-59823600D01*
X140015885Y-59728361D01*
X139825409Y-59680742D01*
X139444457Y-59680742D01*
X139349219Y-59728361D01*
X139301600Y-59775980D01*
X139253980Y-59871219D01*
X139253980Y-60061695D01*
X139301600Y-60156933D01*
X139349219Y-60204552D01*
X139444457Y-60252171D01*
X139682552Y-60252171D01*
X139777790Y-60204552D01*
X139825409Y-60156933D01*
X139873028Y-60061695D01*
X139873028Y-59871219D01*
X139825409Y-59775980D01*
X139777790Y-59728361D01*
X139682552Y-59680742D01*
G04 #@! TO.C,R10k8*
X133268980Y-63347409D02*
X132792790Y-63680742D01*
X133268980Y-63918838D02*
X132268980Y-63918838D01*
X132268980Y-63537885D01*
X132316600Y-63442647D01*
X132364219Y-63395028D01*
X132459457Y-63347409D01*
X132602314Y-63347409D01*
X132697552Y-63395028D01*
X132745171Y-63442647D01*
X132792790Y-63537885D01*
X132792790Y-63918838D01*
X133268980Y-62395028D02*
X133268980Y-62966457D01*
X133268980Y-62680742D02*
X132268980Y-62680742D01*
X132411838Y-62775980D01*
X132507076Y-62871219D01*
X132554695Y-62966457D01*
X132268980Y-61775980D02*
X132268980Y-61680742D01*
X132316600Y-61585504D01*
X132364219Y-61537885D01*
X132459457Y-61490266D01*
X132649933Y-61442647D01*
X132888028Y-61442647D01*
X133078504Y-61490266D01*
X133173742Y-61537885D01*
X133221361Y-61585504D01*
X133268980Y-61680742D01*
X133268980Y-61775980D01*
X133221361Y-61871219D01*
X133173742Y-61918838D01*
X133078504Y-61966457D01*
X132888028Y-62014076D01*
X132649933Y-62014076D01*
X132459457Y-61966457D01*
X132364219Y-61918838D01*
X132316600Y-61871219D01*
X132268980Y-61775980D01*
X133268980Y-61014076D02*
X132268980Y-61014076D01*
X132888028Y-60918838D02*
X133268980Y-60633123D01*
X132602314Y-60633123D02*
X132983266Y-61014076D01*
X132697552Y-60061695D02*
X132649933Y-60156933D01*
X132602314Y-60204552D01*
X132507076Y-60252171D01*
X132459457Y-60252171D01*
X132364219Y-60204552D01*
X132316600Y-60156933D01*
X132268980Y-60061695D01*
X132268980Y-59871219D01*
X132316600Y-59775980D01*
X132364219Y-59728361D01*
X132459457Y-59680742D01*
X132507076Y-59680742D01*
X132602314Y-59728361D01*
X132649933Y-59775980D01*
X132697552Y-59871219D01*
X132697552Y-60061695D01*
X132745171Y-60156933D01*
X132792790Y-60204552D01*
X132888028Y-60252171D01*
X133078504Y-60252171D01*
X133173742Y-60204552D01*
X133221361Y-60156933D01*
X133268980Y-60061695D01*
X133268980Y-59871219D01*
X133221361Y-59775980D01*
X133173742Y-59728361D01*
X133078504Y-59680742D01*
X132888028Y-59680742D01*
X132792790Y-59728361D01*
X132745171Y-59775980D01*
X132697552Y-59871219D01*
G04 #@! TO.C,R10k7*
X126664980Y-63410909D02*
X126188790Y-63744242D01*
X126664980Y-63982338D02*
X125664980Y-63982338D01*
X125664980Y-63601385D01*
X125712600Y-63506147D01*
X125760219Y-63458528D01*
X125855457Y-63410909D01*
X125998314Y-63410909D01*
X126093552Y-63458528D01*
X126141171Y-63506147D01*
X126188790Y-63601385D01*
X126188790Y-63982338D01*
X126664980Y-62458528D02*
X126664980Y-63029957D01*
X126664980Y-62744242D02*
X125664980Y-62744242D01*
X125807838Y-62839480D01*
X125903076Y-62934719D01*
X125950695Y-63029957D01*
X125664980Y-61839480D02*
X125664980Y-61744242D01*
X125712600Y-61649004D01*
X125760219Y-61601385D01*
X125855457Y-61553766D01*
X126045933Y-61506147D01*
X126284028Y-61506147D01*
X126474504Y-61553766D01*
X126569742Y-61601385D01*
X126617361Y-61649004D01*
X126664980Y-61744242D01*
X126664980Y-61839480D01*
X126617361Y-61934719D01*
X126569742Y-61982338D01*
X126474504Y-62029957D01*
X126284028Y-62077576D01*
X126045933Y-62077576D01*
X125855457Y-62029957D01*
X125760219Y-61982338D01*
X125712600Y-61934719D01*
X125664980Y-61839480D01*
X126664980Y-61077576D02*
X125664980Y-61077576D01*
X126284028Y-60982338D02*
X126664980Y-60696623D01*
X125998314Y-60696623D02*
X126379266Y-61077576D01*
X125664980Y-60363290D02*
X125664980Y-59696623D01*
X126664980Y-60125195D01*
G04 #@! TO.C,R10k6*
X178084980Y-122199209D02*
X177608790Y-122532542D01*
X178084980Y-122770638D02*
X177084980Y-122770638D01*
X177084980Y-122389685D01*
X177132600Y-122294447D01*
X177180219Y-122246828D01*
X177275457Y-122199209D01*
X177418314Y-122199209D01*
X177513552Y-122246828D01*
X177561171Y-122294447D01*
X177608790Y-122389685D01*
X177608790Y-122770638D01*
X178084980Y-121246828D02*
X178084980Y-121818257D01*
X178084980Y-121532542D02*
X177084980Y-121532542D01*
X177227838Y-121627780D01*
X177323076Y-121723019D01*
X177370695Y-121818257D01*
X177084980Y-120627780D02*
X177084980Y-120532542D01*
X177132600Y-120437304D01*
X177180219Y-120389685D01*
X177275457Y-120342066D01*
X177465933Y-120294447D01*
X177704028Y-120294447D01*
X177894504Y-120342066D01*
X177989742Y-120389685D01*
X178037361Y-120437304D01*
X178084980Y-120532542D01*
X178084980Y-120627780D01*
X178037361Y-120723019D01*
X177989742Y-120770638D01*
X177894504Y-120818257D01*
X177704028Y-120865876D01*
X177465933Y-120865876D01*
X177275457Y-120818257D01*
X177180219Y-120770638D01*
X177132600Y-120723019D01*
X177084980Y-120627780D01*
X178084980Y-119865876D02*
X177084980Y-119865876D01*
X177704028Y-119770638D02*
X178084980Y-119484923D01*
X177418314Y-119484923D02*
X177799266Y-119865876D01*
X177084980Y-118627780D02*
X177084980Y-118818257D01*
X177132600Y-118913495D01*
X177180219Y-118961114D01*
X177323076Y-119056352D01*
X177513552Y-119103971D01*
X177894504Y-119103971D01*
X177989742Y-119056352D01*
X178037361Y-119008733D01*
X178084980Y-118913495D01*
X178084980Y-118723019D01*
X178037361Y-118627780D01*
X177989742Y-118580161D01*
X177894504Y-118532542D01*
X177656409Y-118532542D01*
X177561171Y-118580161D01*
X177513552Y-118627780D01*
X177465933Y-118723019D01*
X177465933Y-118913495D01*
X177513552Y-119008733D01*
X177561171Y-119056352D01*
X177656409Y-119103971D01*
G04 #@! TO.C,R10k5*
X178072280Y-114858609D02*
X177596090Y-115191942D01*
X178072280Y-115430038D02*
X177072280Y-115430038D01*
X177072280Y-115049085D01*
X177119900Y-114953847D01*
X177167519Y-114906228D01*
X177262757Y-114858609D01*
X177405614Y-114858609D01*
X177500852Y-114906228D01*
X177548471Y-114953847D01*
X177596090Y-115049085D01*
X177596090Y-115430038D01*
X178072280Y-113906228D02*
X178072280Y-114477657D01*
X178072280Y-114191942D02*
X177072280Y-114191942D01*
X177215138Y-114287180D01*
X177310376Y-114382419D01*
X177357995Y-114477657D01*
X177072280Y-113287180D02*
X177072280Y-113191942D01*
X177119900Y-113096704D01*
X177167519Y-113049085D01*
X177262757Y-113001466D01*
X177453233Y-112953847D01*
X177691328Y-112953847D01*
X177881804Y-113001466D01*
X177977042Y-113049085D01*
X178024661Y-113096704D01*
X178072280Y-113191942D01*
X178072280Y-113287180D01*
X178024661Y-113382419D01*
X177977042Y-113430038D01*
X177881804Y-113477657D01*
X177691328Y-113525276D01*
X177453233Y-113525276D01*
X177262757Y-113477657D01*
X177167519Y-113430038D01*
X177119900Y-113382419D01*
X177072280Y-113287180D01*
X178072280Y-112525276D02*
X177072280Y-112525276D01*
X177691328Y-112430038D02*
X178072280Y-112144323D01*
X177405614Y-112144323D02*
X177786566Y-112525276D01*
X177072280Y-111239561D02*
X177072280Y-111715752D01*
X177548471Y-111763371D01*
X177500852Y-111715752D01*
X177453233Y-111620514D01*
X177453233Y-111382419D01*
X177500852Y-111287180D01*
X177548471Y-111239561D01*
X177643709Y-111191942D01*
X177881804Y-111191942D01*
X177977042Y-111239561D01*
X178024661Y-111287180D01*
X178072280Y-111382419D01*
X178072280Y-111620514D01*
X178024661Y-111715752D01*
X177977042Y-111763371D01*
G04 #@! TO.C,R10k4*
X178059580Y-107619609D02*
X177583390Y-107952942D01*
X178059580Y-108191038D02*
X177059580Y-108191038D01*
X177059580Y-107810085D01*
X177107200Y-107714847D01*
X177154819Y-107667228D01*
X177250057Y-107619609D01*
X177392914Y-107619609D01*
X177488152Y-107667228D01*
X177535771Y-107714847D01*
X177583390Y-107810085D01*
X177583390Y-108191038D01*
X178059580Y-106667228D02*
X178059580Y-107238657D01*
X178059580Y-106952942D02*
X177059580Y-106952942D01*
X177202438Y-107048180D01*
X177297676Y-107143419D01*
X177345295Y-107238657D01*
X177059580Y-106048180D02*
X177059580Y-105952942D01*
X177107200Y-105857704D01*
X177154819Y-105810085D01*
X177250057Y-105762466D01*
X177440533Y-105714847D01*
X177678628Y-105714847D01*
X177869104Y-105762466D01*
X177964342Y-105810085D01*
X178011961Y-105857704D01*
X178059580Y-105952942D01*
X178059580Y-106048180D01*
X178011961Y-106143419D01*
X177964342Y-106191038D01*
X177869104Y-106238657D01*
X177678628Y-106286276D01*
X177440533Y-106286276D01*
X177250057Y-106238657D01*
X177154819Y-106191038D01*
X177107200Y-106143419D01*
X177059580Y-106048180D01*
X178059580Y-105286276D02*
X177059580Y-105286276D01*
X177678628Y-105191038D02*
X178059580Y-104905323D01*
X177392914Y-104905323D02*
X177773866Y-105286276D01*
X177392914Y-104048180D02*
X178059580Y-104048180D01*
X177011961Y-104286276D02*
X177726247Y-104524371D01*
X177726247Y-103905323D01*
G04 #@! TO.C,R10k3*
X178046880Y-100164709D02*
X177570690Y-100498042D01*
X178046880Y-100736138D02*
X177046880Y-100736138D01*
X177046880Y-100355185D01*
X177094500Y-100259947D01*
X177142119Y-100212328D01*
X177237357Y-100164709D01*
X177380214Y-100164709D01*
X177475452Y-100212328D01*
X177523071Y-100259947D01*
X177570690Y-100355185D01*
X177570690Y-100736138D01*
X178046880Y-99212328D02*
X178046880Y-99783757D01*
X178046880Y-99498042D02*
X177046880Y-99498042D01*
X177189738Y-99593280D01*
X177284976Y-99688519D01*
X177332595Y-99783757D01*
X177046880Y-98593280D02*
X177046880Y-98498042D01*
X177094500Y-98402804D01*
X177142119Y-98355185D01*
X177237357Y-98307566D01*
X177427833Y-98259947D01*
X177665928Y-98259947D01*
X177856404Y-98307566D01*
X177951642Y-98355185D01*
X177999261Y-98402804D01*
X178046880Y-98498042D01*
X178046880Y-98593280D01*
X177999261Y-98688519D01*
X177951642Y-98736138D01*
X177856404Y-98783757D01*
X177665928Y-98831376D01*
X177427833Y-98831376D01*
X177237357Y-98783757D01*
X177142119Y-98736138D01*
X177094500Y-98688519D01*
X177046880Y-98593280D01*
X178046880Y-97831376D02*
X177046880Y-97831376D01*
X177665928Y-97736138D02*
X178046880Y-97450423D01*
X177380214Y-97450423D02*
X177761166Y-97831376D01*
X177046880Y-97117090D02*
X177046880Y-96498042D01*
X177427833Y-96831376D01*
X177427833Y-96688519D01*
X177475452Y-96593280D01*
X177523071Y-96545661D01*
X177618309Y-96498042D01*
X177856404Y-96498042D01*
X177951642Y-96545661D01*
X177999261Y-96593280D01*
X178046880Y-96688519D01*
X178046880Y-96974233D01*
X177999261Y-97069471D01*
X177951642Y-97117090D01*
G04 #@! TO.C,R10k2*
X178034180Y-92925709D02*
X177557990Y-93259042D01*
X178034180Y-93497138D02*
X177034180Y-93497138D01*
X177034180Y-93116185D01*
X177081800Y-93020947D01*
X177129419Y-92973328D01*
X177224657Y-92925709D01*
X177367514Y-92925709D01*
X177462752Y-92973328D01*
X177510371Y-93020947D01*
X177557990Y-93116185D01*
X177557990Y-93497138D01*
X178034180Y-91973328D02*
X178034180Y-92544757D01*
X178034180Y-92259042D02*
X177034180Y-92259042D01*
X177177038Y-92354280D01*
X177272276Y-92449519D01*
X177319895Y-92544757D01*
X177034180Y-91354280D02*
X177034180Y-91259042D01*
X177081800Y-91163804D01*
X177129419Y-91116185D01*
X177224657Y-91068566D01*
X177415133Y-91020947D01*
X177653228Y-91020947D01*
X177843704Y-91068566D01*
X177938942Y-91116185D01*
X177986561Y-91163804D01*
X178034180Y-91259042D01*
X178034180Y-91354280D01*
X177986561Y-91449519D01*
X177938942Y-91497138D01*
X177843704Y-91544757D01*
X177653228Y-91592376D01*
X177415133Y-91592376D01*
X177224657Y-91544757D01*
X177129419Y-91497138D01*
X177081800Y-91449519D01*
X177034180Y-91354280D01*
X178034180Y-90592376D02*
X177034180Y-90592376D01*
X177653228Y-90497138D02*
X178034180Y-90211423D01*
X177367514Y-90211423D02*
X177748466Y-90592376D01*
X177129419Y-89830471D02*
X177081800Y-89782852D01*
X177034180Y-89687614D01*
X177034180Y-89449519D01*
X177081800Y-89354280D01*
X177129419Y-89306661D01*
X177224657Y-89259042D01*
X177319895Y-89259042D01*
X177462752Y-89306661D01*
X178034180Y-89878090D01*
X178034180Y-89259042D01*
G04 #@! TO.C,R10k1*
X177907180Y-85674009D02*
X177430990Y-86007342D01*
X177907180Y-86245438D02*
X176907180Y-86245438D01*
X176907180Y-85864485D01*
X176954800Y-85769247D01*
X177002419Y-85721628D01*
X177097657Y-85674009D01*
X177240514Y-85674009D01*
X177335752Y-85721628D01*
X177383371Y-85769247D01*
X177430990Y-85864485D01*
X177430990Y-86245438D01*
X177907180Y-84721628D02*
X177907180Y-85293057D01*
X177907180Y-85007342D02*
X176907180Y-85007342D01*
X177050038Y-85102580D01*
X177145276Y-85197819D01*
X177192895Y-85293057D01*
X176907180Y-84102580D02*
X176907180Y-84007342D01*
X176954800Y-83912104D01*
X177002419Y-83864485D01*
X177097657Y-83816866D01*
X177288133Y-83769247D01*
X177526228Y-83769247D01*
X177716704Y-83816866D01*
X177811942Y-83864485D01*
X177859561Y-83912104D01*
X177907180Y-84007342D01*
X177907180Y-84102580D01*
X177859561Y-84197819D01*
X177811942Y-84245438D01*
X177716704Y-84293057D01*
X177526228Y-84340676D01*
X177288133Y-84340676D01*
X177097657Y-84293057D01*
X177002419Y-84245438D01*
X176954800Y-84197819D01*
X176907180Y-84102580D01*
X177907180Y-83340676D02*
X176907180Y-83340676D01*
X177526228Y-83245438D02*
X177907180Y-82959723D01*
X177240514Y-82959723D02*
X177621466Y-83340676D01*
X177907180Y-82007342D02*
X177907180Y-82578771D01*
X177907180Y-82293057D02*
X176907180Y-82293057D01*
X177050038Y-82388295D01*
X177145276Y-82483533D01*
X177192895Y-82578771D01*
G04 #@! TO.C,R10k0*
X177894480Y-78422309D02*
X177418290Y-78755642D01*
X177894480Y-78993738D02*
X176894480Y-78993738D01*
X176894480Y-78612785D01*
X176942100Y-78517547D01*
X176989719Y-78469928D01*
X177084957Y-78422309D01*
X177227814Y-78422309D01*
X177323052Y-78469928D01*
X177370671Y-78517547D01*
X177418290Y-78612785D01*
X177418290Y-78993738D01*
X177894480Y-77469928D02*
X177894480Y-78041357D01*
X177894480Y-77755642D02*
X176894480Y-77755642D01*
X177037338Y-77850880D01*
X177132576Y-77946119D01*
X177180195Y-78041357D01*
X176894480Y-76850880D02*
X176894480Y-76755642D01*
X176942100Y-76660404D01*
X176989719Y-76612785D01*
X177084957Y-76565166D01*
X177275433Y-76517547D01*
X177513528Y-76517547D01*
X177704004Y-76565166D01*
X177799242Y-76612785D01*
X177846861Y-76660404D01*
X177894480Y-76755642D01*
X177894480Y-76850880D01*
X177846861Y-76946119D01*
X177799242Y-76993738D01*
X177704004Y-77041357D01*
X177513528Y-77088976D01*
X177275433Y-77088976D01*
X177084957Y-77041357D01*
X176989719Y-76993738D01*
X176942100Y-76946119D01*
X176894480Y-76850880D01*
X177894480Y-76088976D02*
X176894480Y-76088976D01*
X177513528Y-75993738D02*
X177894480Y-75708023D01*
X177227814Y-75708023D02*
X177608766Y-76088976D01*
X176894480Y-75088976D02*
X176894480Y-74993738D01*
X176942100Y-74898500D01*
X176989719Y-74850880D01*
X177084957Y-74803261D01*
X177275433Y-74755642D01*
X177513528Y-74755642D01*
X177704004Y-74803261D01*
X177799242Y-74850880D01*
X177846861Y-74898500D01*
X177894480Y-74993738D01*
X177894480Y-75088976D01*
X177846861Y-75184214D01*
X177799242Y-75231833D01*
X177704004Y-75279452D01*
X177513528Y-75327071D01*
X177275433Y-75327071D01*
X177084957Y-75279452D01*
X176989719Y-75231833D01*
X176942100Y-75184214D01*
X176894480Y-75088976D01*
G04 #@! TO.C,R313*
X161513780Y-65711247D02*
X161037590Y-66044580D01*
X161513780Y-66282676D02*
X160513780Y-66282676D01*
X160513780Y-65901723D01*
X160561400Y-65806485D01*
X160609019Y-65758866D01*
X160704257Y-65711247D01*
X160847114Y-65711247D01*
X160942352Y-65758866D01*
X160989971Y-65806485D01*
X161037590Y-65901723D01*
X161037590Y-66282676D01*
X160513780Y-65377914D02*
X160513780Y-64758866D01*
X160894733Y-65092200D01*
X160894733Y-64949342D01*
X160942352Y-64854104D01*
X160989971Y-64806485D01*
X161085209Y-64758866D01*
X161323304Y-64758866D01*
X161418542Y-64806485D01*
X161466161Y-64854104D01*
X161513780Y-64949342D01*
X161513780Y-65235057D01*
X161466161Y-65330295D01*
X161418542Y-65377914D01*
X161513780Y-63806485D02*
X161513780Y-64377914D01*
X161513780Y-64092200D02*
X160513780Y-64092200D01*
X160656638Y-64187438D01*
X160751876Y-64282676D01*
X160799495Y-64377914D01*
X160513780Y-63473152D02*
X160513780Y-62854104D01*
X160894733Y-63187438D01*
X160894733Y-63044580D01*
X160942352Y-62949342D01*
X160989971Y-62901723D01*
X161085209Y-62854104D01*
X161323304Y-62854104D01*
X161418542Y-62901723D01*
X161466161Y-62949342D01*
X161513780Y-63044580D01*
X161513780Y-63330295D01*
X161466161Y-63425533D01*
X161418542Y-63473152D01*
G04 #@! TO.C,R312*
X154223980Y-65647747D02*
X153747790Y-65981080D01*
X154223980Y-66219176D02*
X153223980Y-66219176D01*
X153223980Y-65838223D01*
X153271600Y-65742985D01*
X153319219Y-65695366D01*
X153414457Y-65647747D01*
X153557314Y-65647747D01*
X153652552Y-65695366D01*
X153700171Y-65742985D01*
X153747790Y-65838223D01*
X153747790Y-66219176D01*
X153223980Y-65314414D02*
X153223980Y-64695366D01*
X153604933Y-65028700D01*
X153604933Y-64885842D01*
X153652552Y-64790604D01*
X153700171Y-64742985D01*
X153795409Y-64695366D01*
X154033504Y-64695366D01*
X154128742Y-64742985D01*
X154176361Y-64790604D01*
X154223980Y-64885842D01*
X154223980Y-65171557D01*
X154176361Y-65266795D01*
X154128742Y-65314414D01*
X154223980Y-63742985D02*
X154223980Y-64314414D01*
X154223980Y-64028700D02*
X153223980Y-64028700D01*
X153366838Y-64123938D01*
X153462076Y-64219176D01*
X153509695Y-64314414D01*
X153319219Y-63362033D02*
X153271600Y-63314414D01*
X153223980Y-63219176D01*
X153223980Y-62981080D01*
X153271600Y-62885842D01*
X153319219Y-62838223D01*
X153414457Y-62790604D01*
X153509695Y-62790604D01*
X153652552Y-62838223D01*
X154223980Y-63409652D01*
X154223980Y-62790604D01*
G04 #@! TO.C,R311*
X147619980Y-65393747D02*
X147143790Y-65727080D01*
X147619980Y-65965176D02*
X146619980Y-65965176D01*
X146619980Y-65584223D01*
X146667600Y-65488985D01*
X146715219Y-65441366D01*
X146810457Y-65393747D01*
X146953314Y-65393747D01*
X147048552Y-65441366D01*
X147096171Y-65488985D01*
X147143790Y-65584223D01*
X147143790Y-65965176D01*
X146619980Y-65060414D02*
X146619980Y-64441366D01*
X147000933Y-64774700D01*
X147000933Y-64631842D01*
X147048552Y-64536604D01*
X147096171Y-64488985D01*
X147191409Y-64441366D01*
X147429504Y-64441366D01*
X147524742Y-64488985D01*
X147572361Y-64536604D01*
X147619980Y-64631842D01*
X147619980Y-64917557D01*
X147572361Y-65012795D01*
X147524742Y-65060414D01*
X147619980Y-63488985D02*
X147619980Y-64060414D01*
X147619980Y-63774700D02*
X146619980Y-63774700D01*
X146762838Y-63869938D01*
X146858076Y-63965176D01*
X146905695Y-64060414D01*
X147619980Y-62536604D02*
X147619980Y-63108033D01*
X147619980Y-62822319D02*
X146619980Y-62822319D01*
X146762838Y-62917557D01*
X146858076Y-63012795D01*
X146905695Y-63108033D01*
G04 #@! TO.C,R310*
X141003280Y-65330247D02*
X140527090Y-65663580D01*
X141003280Y-65901676D02*
X140003280Y-65901676D01*
X140003280Y-65520723D01*
X140050900Y-65425485D01*
X140098519Y-65377866D01*
X140193757Y-65330247D01*
X140336614Y-65330247D01*
X140431852Y-65377866D01*
X140479471Y-65425485D01*
X140527090Y-65520723D01*
X140527090Y-65901676D01*
X140003280Y-64996914D02*
X140003280Y-64377866D01*
X140384233Y-64711200D01*
X140384233Y-64568342D01*
X140431852Y-64473104D01*
X140479471Y-64425485D01*
X140574709Y-64377866D01*
X140812804Y-64377866D01*
X140908042Y-64425485D01*
X140955661Y-64473104D01*
X141003280Y-64568342D01*
X141003280Y-64854057D01*
X140955661Y-64949295D01*
X140908042Y-64996914D01*
X141003280Y-63425485D02*
X141003280Y-63996914D01*
X141003280Y-63711200D02*
X140003280Y-63711200D01*
X140146138Y-63806438D01*
X140241376Y-63901676D01*
X140288995Y-63996914D01*
X140003280Y-62806438D02*
X140003280Y-62711200D01*
X140050900Y-62615961D01*
X140098519Y-62568342D01*
X140193757Y-62520723D01*
X140384233Y-62473104D01*
X140622328Y-62473104D01*
X140812804Y-62520723D01*
X140908042Y-62568342D01*
X140955661Y-62615961D01*
X141003280Y-62711200D01*
X141003280Y-62806438D01*
X140955661Y-62901676D01*
X140908042Y-62949295D01*
X140812804Y-62996914D01*
X140622328Y-63044533D01*
X140384233Y-63044533D01*
X140193757Y-62996914D01*
X140098519Y-62949295D01*
X140050900Y-62901676D01*
X140003280Y-62806438D01*
G04 #@! TO.C,R309*
X134094480Y-65647747D02*
X133618290Y-65981080D01*
X134094480Y-66219176D02*
X133094480Y-66219176D01*
X133094480Y-65838223D01*
X133142100Y-65742985D01*
X133189719Y-65695366D01*
X133284957Y-65647747D01*
X133427814Y-65647747D01*
X133523052Y-65695366D01*
X133570671Y-65742985D01*
X133618290Y-65838223D01*
X133618290Y-66219176D01*
X133094480Y-65314414D02*
X133094480Y-64695366D01*
X133475433Y-65028700D01*
X133475433Y-64885842D01*
X133523052Y-64790604D01*
X133570671Y-64742985D01*
X133665909Y-64695366D01*
X133904004Y-64695366D01*
X133999242Y-64742985D01*
X134046861Y-64790604D01*
X134094480Y-64885842D01*
X134094480Y-65171557D01*
X134046861Y-65266795D01*
X133999242Y-65314414D01*
X133094480Y-64076319D02*
X133094480Y-63981080D01*
X133142100Y-63885842D01*
X133189719Y-63838223D01*
X133284957Y-63790604D01*
X133475433Y-63742985D01*
X133713528Y-63742985D01*
X133904004Y-63790604D01*
X133999242Y-63838223D01*
X134046861Y-63885842D01*
X134094480Y-63981080D01*
X134094480Y-64076319D01*
X134046861Y-64171557D01*
X133999242Y-64219176D01*
X133904004Y-64266795D01*
X133713528Y-64314414D01*
X133475433Y-64314414D01*
X133284957Y-64266795D01*
X133189719Y-64219176D01*
X133142100Y-64171557D01*
X133094480Y-64076319D01*
X134094480Y-63266795D02*
X134094480Y-63076319D01*
X134046861Y-62981080D01*
X133999242Y-62933461D01*
X133856385Y-62838223D01*
X133665909Y-62790604D01*
X133284957Y-62790604D01*
X133189719Y-62838223D01*
X133142100Y-62885842D01*
X133094480Y-62981080D01*
X133094480Y-63171557D01*
X133142100Y-63266795D01*
X133189719Y-63314414D01*
X133284957Y-63362033D01*
X133523052Y-63362033D01*
X133618290Y-63314414D01*
X133665909Y-63266795D01*
X133713528Y-63171557D01*
X133713528Y-62981080D01*
X133665909Y-62885842D01*
X133618290Y-62838223D01*
X133523052Y-62790604D01*
G04 #@! TO.C,R308*
X127236480Y-65584247D02*
X126760290Y-65917580D01*
X127236480Y-66155676D02*
X126236480Y-66155676D01*
X126236480Y-65774723D01*
X126284100Y-65679485D01*
X126331719Y-65631866D01*
X126426957Y-65584247D01*
X126569814Y-65584247D01*
X126665052Y-65631866D01*
X126712671Y-65679485D01*
X126760290Y-65774723D01*
X126760290Y-66155676D01*
X126236480Y-65250914D02*
X126236480Y-64631866D01*
X126617433Y-64965200D01*
X126617433Y-64822342D01*
X126665052Y-64727104D01*
X126712671Y-64679485D01*
X126807909Y-64631866D01*
X127046004Y-64631866D01*
X127141242Y-64679485D01*
X127188861Y-64727104D01*
X127236480Y-64822342D01*
X127236480Y-65108057D01*
X127188861Y-65203295D01*
X127141242Y-65250914D01*
X126236480Y-64012819D02*
X126236480Y-63917580D01*
X126284100Y-63822342D01*
X126331719Y-63774723D01*
X126426957Y-63727104D01*
X126617433Y-63679485D01*
X126855528Y-63679485D01*
X127046004Y-63727104D01*
X127141242Y-63774723D01*
X127188861Y-63822342D01*
X127236480Y-63917580D01*
X127236480Y-64012819D01*
X127188861Y-64108057D01*
X127141242Y-64155676D01*
X127046004Y-64203295D01*
X126855528Y-64250914D01*
X126617433Y-64250914D01*
X126426957Y-64203295D01*
X126331719Y-64155676D01*
X126284100Y-64108057D01*
X126236480Y-64012819D01*
X126665052Y-63108057D02*
X126617433Y-63203295D01*
X126569814Y-63250914D01*
X126474576Y-63298533D01*
X126426957Y-63298533D01*
X126331719Y-63250914D01*
X126284100Y-63203295D01*
X126236480Y-63108057D01*
X126236480Y-62917580D01*
X126284100Y-62822342D01*
X126331719Y-62774723D01*
X126426957Y-62727104D01*
X126474576Y-62727104D01*
X126569814Y-62774723D01*
X126617433Y-62822342D01*
X126665052Y-62917580D01*
X126665052Y-63108057D01*
X126712671Y-63203295D01*
X126760290Y-63250914D01*
X126855528Y-63298533D01*
X127046004Y-63298533D01*
X127141242Y-63250914D01*
X127188861Y-63203295D01*
X127236480Y-63108057D01*
X127236480Y-62917580D01*
X127188861Y-62822342D01*
X127141242Y-62774723D01*
X127046004Y-62727104D01*
X126855528Y-62727104D01*
X126760290Y-62774723D01*
X126712671Y-62822342D01*
X126665052Y-62917580D01*
G04 #@! TO.C,R307*
X120378480Y-65774747D02*
X119902290Y-66108080D01*
X120378480Y-66346176D02*
X119378480Y-66346176D01*
X119378480Y-65965223D01*
X119426100Y-65869985D01*
X119473719Y-65822366D01*
X119568957Y-65774747D01*
X119711814Y-65774747D01*
X119807052Y-65822366D01*
X119854671Y-65869985D01*
X119902290Y-65965223D01*
X119902290Y-66346176D01*
X119378480Y-65441414D02*
X119378480Y-64822366D01*
X119759433Y-65155700D01*
X119759433Y-65012842D01*
X119807052Y-64917604D01*
X119854671Y-64869985D01*
X119949909Y-64822366D01*
X120188004Y-64822366D01*
X120283242Y-64869985D01*
X120330861Y-64917604D01*
X120378480Y-65012842D01*
X120378480Y-65298557D01*
X120330861Y-65393795D01*
X120283242Y-65441414D01*
X119378480Y-64203319D02*
X119378480Y-64108080D01*
X119426100Y-64012842D01*
X119473719Y-63965223D01*
X119568957Y-63917604D01*
X119759433Y-63869985D01*
X119997528Y-63869985D01*
X120188004Y-63917604D01*
X120283242Y-63965223D01*
X120330861Y-64012842D01*
X120378480Y-64108080D01*
X120378480Y-64203319D01*
X120330861Y-64298557D01*
X120283242Y-64346176D01*
X120188004Y-64393795D01*
X119997528Y-64441414D01*
X119759433Y-64441414D01*
X119568957Y-64393795D01*
X119473719Y-64346176D01*
X119426100Y-64298557D01*
X119378480Y-64203319D01*
X119378480Y-63536652D02*
X119378480Y-62869985D01*
X120378480Y-63298557D01*
G04 #@! TO.C,R306*
X168397180Y-122899347D02*
X167920990Y-123232680D01*
X168397180Y-123470776D02*
X167397180Y-123470776D01*
X167397180Y-123089823D01*
X167444800Y-122994585D01*
X167492419Y-122946966D01*
X167587657Y-122899347D01*
X167730514Y-122899347D01*
X167825752Y-122946966D01*
X167873371Y-122994585D01*
X167920990Y-123089823D01*
X167920990Y-123470776D01*
X167397180Y-122566014D02*
X167397180Y-121946966D01*
X167778133Y-122280300D01*
X167778133Y-122137442D01*
X167825752Y-122042204D01*
X167873371Y-121994585D01*
X167968609Y-121946966D01*
X168206704Y-121946966D01*
X168301942Y-121994585D01*
X168349561Y-122042204D01*
X168397180Y-122137442D01*
X168397180Y-122423157D01*
X168349561Y-122518395D01*
X168301942Y-122566014D01*
X167397180Y-121327919D02*
X167397180Y-121232680D01*
X167444800Y-121137442D01*
X167492419Y-121089823D01*
X167587657Y-121042204D01*
X167778133Y-120994585D01*
X168016228Y-120994585D01*
X168206704Y-121042204D01*
X168301942Y-121089823D01*
X168349561Y-121137442D01*
X168397180Y-121232680D01*
X168397180Y-121327919D01*
X168349561Y-121423157D01*
X168301942Y-121470776D01*
X168206704Y-121518395D01*
X168016228Y-121566014D01*
X167778133Y-121566014D01*
X167587657Y-121518395D01*
X167492419Y-121470776D01*
X167444800Y-121423157D01*
X167397180Y-121327919D01*
X167397180Y-120137442D02*
X167397180Y-120327919D01*
X167444800Y-120423157D01*
X167492419Y-120470776D01*
X167635276Y-120566014D01*
X167825752Y-120613633D01*
X168206704Y-120613633D01*
X168301942Y-120566014D01*
X168349561Y-120518395D01*
X168397180Y-120423157D01*
X168397180Y-120232680D01*
X168349561Y-120137442D01*
X168301942Y-120089823D01*
X168206704Y-120042204D01*
X167968609Y-120042204D01*
X167873371Y-120089823D01*
X167825752Y-120137442D01*
X167778133Y-120232680D01*
X167778133Y-120423157D01*
X167825752Y-120518395D01*
X167873371Y-120566014D01*
X167968609Y-120613633D01*
G04 #@! TO.C,R305*
X168295580Y-115698447D02*
X167819390Y-116031780D01*
X168295580Y-116269876D02*
X167295580Y-116269876D01*
X167295580Y-115888923D01*
X167343200Y-115793685D01*
X167390819Y-115746066D01*
X167486057Y-115698447D01*
X167628914Y-115698447D01*
X167724152Y-115746066D01*
X167771771Y-115793685D01*
X167819390Y-115888923D01*
X167819390Y-116269876D01*
X167295580Y-115365114D02*
X167295580Y-114746066D01*
X167676533Y-115079400D01*
X167676533Y-114936542D01*
X167724152Y-114841304D01*
X167771771Y-114793685D01*
X167867009Y-114746066D01*
X168105104Y-114746066D01*
X168200342Y-114793685D01*
X168247961Y-114841304D01*
X168295580Y-114936542D01*
X168295580Y-115222257D01*
X168247961Y-115317495D01*
X168200342Y-115365114D01*
X167295580Y-114127019D02*
X167295580Y-114031780D01*
X167343200Y-113936542D01*
X167390819Y-113888923D01*
X167486057Y-113841304D01*
X167676533Y-113793685D01*
X167914628Y-113793685D01*
X168105104Y-113841304D01*
X168200342Y-113888923D01*
X168247961Y-113936542D01*
X168295580Y-114031780D01*
X168295580Y-114127019D01*
X168247961Y-114222257D01*
X168200342Y-114269876D01*
X168105104Y-114317495D01*
X167914628Y-114365114D01*
X167676533Y-114365114D01*
X167486057Y-114317495D01*
X167390819Y-114269876D01*
X167343200Y-114222257D01*
X167295580Y-114127019D01*
X167295580Y-112888923D02*
X167295580Y-113365114D01*
X167771771Y-113412733D01*
X167724152Y-113365114D01*
X167676533Y-113269876D01*
X167676533Y-113031780D01*
X167724152Y-112936542D01*
X167771771Y-112888923D01*
X167867009Y-112841304D01*
X168105104Y-112841304D01*
X168200342Y-112888923D01*
X168247961Y-112936542D01*
X168295580Y-113031780D01*
X168295580Y-113269876D01*
X168247961Y-113365114D01*
X168200342Y-113412733D01*
G04 #@! TO.C,R304*
X168333680Y-108192747D02*
X167857490Y-108526080D01*
X168333680Y-108764176D02*
X167333680Y-108764176D01*
X167333680Y-108383223D01*
X167381300Y-108287985D01*
X167428919Y-108240366D01*
X167524157Y-108192747D01*
X167667014Y-108192747D01*
X167762252Y-108240366D01*
X167809871Y-108287985D01*
X167857490Y-108383223D01*
X167857490Y-108764176D01*
X167333680Y-107859414D02*
X167333680Y-107240366D01*
X167714633Y-107573700D01*
X167714633Y-107430842D01*
X167762252Y-107335604D01*
X167809871Y-107287985D01*
X167905109Y-107240366D01*
X168143204Y-107240366D01*
X168238442Y-107287985D01*
X168286061Y-107335604D01*
X168333680Y-107430842D01*
X168333680Y-107716557D01*
X168286061Y-107811795D01*
X168238442Y-107859414D01*
X167333680Y-106621319D02*
X167333680Y-106526080D01*
X167381300Y-106430842D01*
X167428919Y-106383223D01*
X167524157Y-106335604D01*
X167714633Y-106287985D01*
X167952728Y-106287985D01*
X168143204Y-106335604D01*
X168238442Y-106383223D01*
X168286061Y-106430842D01*
X168333680Y-106526080D01*
X168333680Y-106621319D01*
X168286061Y-106716557D01*
X168238442Y-106764176D01*
X168143204Y-106811795D01*
X167952728Y-106859414D01*
X167714633Y-106859414D01*
X167524157Y-106811795D01*
X167428919Y-106764176D01*
X167381300Y-106716557D01*
X167333680Y-106621319D01*
X167667014Y-105430842D02*
X168333680Y-105430842D01*
X167286061Y-105668938D02*
X168000347Y-105907033D01*
X168000347Y-105287985D01*
G04 #@! TO.C,R303*
X168232080Y-100941047D02*
X167755890Y-101274380D01*
X168232080Y-101512476D02*
X167232080Y-101512476D01*
X167232080Y-101131523D01*
X167279700Y-101036285D01*
X167327319Y-100988666D01*
X167422557Y-100941047D01*
X167565414Y-100941047D01*
X167660652Y-100988666D01*
X167708271Y-101036285D01*
X167755890Y-101131523D01*
X167755890Y-101512476D01*
X167232080Y-100607714D02*
X167232080Y-99988666D01*
X167613033Y-100322000D01*
X167613033Y-100179142D01*
X167660652Y-100083904D01*
X167708271Y-100036285D01*
X167803509Y-99988666D01*
X168041604Y-99988666D01*
X168136842Y-100036285D01*
X168184461Y-100083904D01*
X168232080Y-100179142D01*
X168232080Y-100464857D01*
X168184461Y-100560095D01*
X168136842Y-100607714D01*
X167232080Y-99369619D02*
X167232080Y-99274380D01*
X167279700Y-99179142D01*
X167327319Y-99131523D01*
X167422557Y-99083904D01*
X167613033Y-99036285D01*
X167851128Y-99036285D01*
X168041604Y-99083904D01*
X168136842Y-99131523D01*
X168184461Y-99179142D01*
X168232080Y-99274380D01*
X168232080Y-99369619D01*
X168184461Y-99464857D01*
X168136842Y-99512476D01*
X168041604Y-99560095D01*
X167851128Y-99607714D01*
X167613033Y-99607714D01*
X167422557Y-99560095D01*
X167327319Y-99512476D01*
X167279700Y-99464857D01*
X167232080Y-99369619D01*
X167232080Y-98702952D02*
X167232080Y-98083904D01*
X167613033Y-98417238D01*
X167613033Y-98274380D01*
X167660652Y-98179142D01*
X167708271Y-98131523D01*
X167803509Y-98083904D01*
X168041604Y-98083904D01*
X168136842Y-98131523D01*
X168184461Y-98179142D01*
X168232080Y-98274380D01*
X168232080Y-98560095D01*
X168184461Y-98655333D01*
X168136842Y-98702952D01*
G04 #@! TO.C,R302*
X168384480Y-93879847D02*
X167908290Y-94213180D01*
X168384480Y-94451276D02*
X167384480Y-94451276D01*
X167384480Y-94070323D01*
X167432100Y-93975085D01*
X167479719Y-93927466D01*
X167574957Y-93879847D01*
X167717814Y-93879847D01*
X167813052Y-93927466D01*
X167860671Y-93975085D01*
X167908290Y-94070323D01*
X167908290Y-94451276D01*
X167384480Y-93546514D02*
X167384480Y-92927466D01*
X167765433Y-93260800D01*
X167765433Y-93117942D01*
X167813052Y-93022704D01*
X167860671Y-92975085D01*
X167955909Y-92927466D01*
X168194004Y-92927466D01*
X168289242Y-92975085D01*
X168336861Y-93022704D01*
X168384480Y-93117942D01*
X168384480Y-93403657D01*
X168336861Y-93498895D01*
X168289242Y-93546514D01*
X167384480Y-92308419D02*
X167384480Y-92213180D01*
X167432100Y-92117942D01*
X167479719Y-92070323D01*
X167574957Y-92022704D01*
X167765433Y-91975085D01*
X168003528Y-91975085D01*
X168194004Y-92022704D01*
X168289242Y-92070323D01*
X168336861Y-92117942D01*
X168384480Y-92213180D01*
X168384480Y-92308419D01*
X168336861Y-92403657D01*
X168289242Y-92451276D01*
X168194004Y-92498895D01*
X168003528Y-92546514D01*
X167765433Y-92546514D01*
X167574957Y-92498895D01*
X167479719Y-92451276D01*
X167432100Y-92403657D01*
X167384480Y-92308419D01*
X167479719Y-91594133D02*
X167432100Y-91546514D01*
X167384480Y-91451276D01*
X167384480Y-91213180D01*
X167432100Y-91117942D01*
X167479719Y-91070323D01*
X167574957Y-91022704D01*
X167670195Y-91022704D01*
X167813052Y-91070323D01*
X168384480Y-91641752D01*
X168384480Y-91022704D01*
G04 #@! TO.C,R301*
X168333680Y-84812047D02*
X167857490Y-85145380D01*
X168333680Y-85383476D02*
X167333680Y-85383476D01*
X167333680Y-85002523D01*
X167381300Y-84907285D01*
X167428919Y-84859666D01*
X167524157Y-84812047D01*
X167667014Y-84812047D01*
X167762252Y-84859666D01*
X167809871Y-84907285D01*
X167857490Y-85002523D01*
X167857490Y-85383476D01*
X167333680Y-84478714D02*
X167333680Y-83859666D01*
X167714633Y-84193000D01*
X167714633Y-84050142D01*
X167762252Y-83954904D01*
X167809871Y-83907285D01*
X167905109Y-83859666D01*
X168143204Y-83859666D01*
X168238442Y-83907285D01*
X168286061Y-83954904D01*
X168333680Y-84050142D01*
X168333680Y-84335857D01*
X168286061Y-84431095D01*
X168238442Y-84478714D01*
X167333680Y-83240619D02*
X167333680Y-83145380D01*
X167381300Y-83050142D01*
X167428919Y-83002523D01*
X167524157Y-82954904D01*
X167714633Y-82907285D01*
X167952728Y-82907285D01*
X168143204Y-82954904D01*
X168238442Y-83002523D01*
X168286061Y-83050142D01*
X168333680Y-83145380D01*
X168333680Y-83240619D01*
X168286061Y-83335857D01*
X168238442Y-83383476D01*
X168143204Y-83431095D01*
X167952728Y-83478714D01*
X167714633Y-83478714D01*
X167524157Y-83431095D01*
X167428919Y-83383476D01*
X167381300Y-83335857D01*
X167333680Y-83240619D01*
X168333680Y-81954904D02*
X168333680Y-82526333D01*
X168333680Y-82240619D02*
X167333680Y-82240619D01*
X167476538Y-82335857D01*
X167571776Y-82431095D01*
X167619395Y-82526333D01*
G04 #@! TO.C,R300*
X168117780Y-77534947D02*
X167641590Y-77868280D01*
X168117780Y-78106376D02*
X167117780Y-78106376D01*
X167117780Y-77725423D01*
X167165400Y-77630185D01*
X167213019Y-77582566D01*
X167308257Y-77534947D01*
X167451114Y-77534947D01*
X167546352Y-77582566D01*
X167593971Y-77630185D01*
X167641590Y-77725423D01*
X167641590Y-78106376D01*
X167117780Y-77201614D02*
X167117780Y-76582566D01*
X167498733Y-76915900D01*
X167498733Y-76773042D01*
X167546352Y-76677804D01*
X167593971Y-76630185D01*
X167689209Y-76582566D01*
X167927304Y-76582566D01*
X168022542Y-76630185D01*
X168070161Y-76677804D01*
X168117780Y-76773042D01*
X168117780Y-77058757D01*
X168070161Y-77153995D01*
X168022542Y-77201614D01*
X167117780Y-75963519D02*
X167117780Y-75868280D01*
X167165400Y-75773042D01*
X167213019Y-75725423D01*
X167308257Y-75677804D01*
X167498733Y-75630185D01*
X167736828Y-75630185D01*
X167927304Y-75677804D01*
X168022542Y-75725423D01*
X168070161Y-75773042D01*
X168117780Y-75868280D01*
X168117780Y-75963519D01*
X168070161Y-76058757D01*
X168022542Y-76106376D01*
X167927304Y-76153995D01*
X167736828Y-76201614D01*
X167498733Y-76201614D01*
X167308257Y-76153995D01*
X167213019Y-76106376D01*
X167165400Y-76058757D01*
X167117780Y-75963519D01*
X167117780Y-75011138D02*
X167117780Y-74915900D01*
X167165400Y-74820661D01*
X167213019Y-74773042D01*
X167308257Y-74725423D01*
X167498733Y-74677804D01*
X167736828Y-74677804D01*
X167927304Y-74725423D01*
X168022542Y-74773042D01*
X168070161Y-74820661D01*
X168117780Y-74915900D01*
X168117780Y-75011138D01*
X168070161Y-75106376D01*
X168022542Y-75153995D01*
X167927304Y-75201614D01*
X167736828Y-75249233D01*
X167498733Y-75249233D01*
X167308257Y-75201614D01*
X167213019Y-75153995D01*
X167165400Y-75106376D01*
X167117780Y-75011138D01*
G04 #@! TO.C,R11*
X182745880Y-125725157D02*
X182269690Y-126058490D01*
X182745880Y-126296585D02*
X181745880Y-126296585D01*
X181745880Y-125915633D01*
X181793500Y-125820395D01*
X181841119Y-125772776D01*
X181936357Y-125725157D01*
X182079214Y-125725157D01*
X182174452Y-125772776D01*
X182222071Y-125820395D01*
X182269690Y-125915633D01*
X182269690Y-126296585D01*
X182745880Y-124772776D02*
X182745880Y-125344204D01*
X182745880Y-125058490D02*
X181745880Y-125058490D01*
X181888738Y-125153728D01*
X181983976Y-125248966D01*
X182031595Y-125344204D01*
X182745880Y-123820395D02*
X182745880Y-124391823D01*
X182745880Y-124106109D02*
X181745880Y-124106109D01*
X181888738Y-124201347D01*
X181983976Y-124296585D01*
X182031595Y-124391823D01*
G04 #@! TO.C,R10*
X187051180Y-125420357D02*
X186574990Y-125753690D01*
X187051180Y-125991785D02*
X186051180Y-125991785D01*
X186051180Y-125610833D01*
X186098800Y-125515595D01*
X186146419Y-125467976D01*
X186241657Y-125420357D01*
X186384514Y-125420357D01*
X186479752Y-125467976D01*
X186527371Y-125515595D01*
X186574990Y-125610833D01*
X186574990Y-125991785D01*
X187051180Y-124467976D02*
X187051180Y-125039404D01*
X187051180Y-124753690D02*
X186051180Y-124753690D01*
X186194038Y-124848928D01*
X186289276Y-124944166D01*
X186336895Y-125039404D01*
X186051180Y-123848928D02*
X186051180Y-123753690D01*
X186098800Y-123658452D01*
X186146419Y-123610833D01*
X186241657Y-123563214D01*
X186432133Y-123515595D01*
X186670228Y-123515595D01*
X186860704Y-123563214D01*
X186955942Y-123610833D01*
X187003561Y-123658452D01*
X187051180Y-123753690D01*
X187051180Y-123848928D01*
X187003561Y-123944166D01*
X186955942Y-123991785D01*
X186860704Y-124039404D01*
X186670228Y-124087023D01*
X186432133Y-124087023D01*
X186241657Y-124039404D01*
X186146419Y-123991785D01*
X186098800Y-123944166D01*
X186051180Y-123848928D01*
G04 #@! TO.C,LED6_6*
X161947809Y-121837380D02*
X161471619Y-121837380D01*
X161471619Y-120837380D01*
X162281142Y-121313571D02*
X162614476Y-121313571D01*
X162757333Y-121837380D02*
X162281142Y-121837380D01*
X162281142Y-120837380D01*
X162757333Y-120837380D01*
X163185904Y-121837380D02*
X163185904Y-120837380D01*
X163424000Y-120837380D01*
X163566857Y-120885000D01*
X163662095Y-120980238D01*
X163709714Y-121075476D01*
X163757333Y-121265952D01*
X163757333Y-121408809D01*
X163709714Y-121599285D01*
X163662095Y-121694523D01*
X163566857Y-121789761D01*
X163424000Y-121837380D01*
X163185904Y-121837380D01*
X164614476Y-120837380D02*
X164424000Y-120837380D01*
X164328761Y-120885000D01*
X164281142Y-120932619D01*
X164185904Y-121075476D01*
X164138285Y-121265952D01*
X164138285Y-121646904D01*
X164185904Y-121742142D01*
X164233523Y-121789761D01*
X164328761Y-121837380D01*
X164519238Y-121837380D01*
X164614476Y-121789761D01*
X164662095Y-121742142D01*
X164709714Y-121646904D01*
X164709714Y-121408809D01*
X164662095Y-121313571D01*
X164614476Y-121265952D01*
X164519238Y-121218333D01*
X164328761Y-121218333D01*
X164233523Y-121265952D01*
X164185904Y-121313571D01*
X164138285Y-121408809D01*
X164900190Y-121932619D02*
X165662095Y-121932619D01*
X166328761Y-120837380D02*
X166138285Y-120837380D01*
X166043047Y-120885000D01*
X165995428Y-120932619D01*
X165900190Y-121075476D01*
X165852571Y-121265952D01*
X165852571Y-121646904D01*
X165900190Y-121742142D01*
X165947809Y-121789761D01*
X166043047Y-121837380D01*
X166233523Y-121837380D01*
X166328761Y-121789761D01*
X166376380Y-121742142D01*
X166424000Y-121646904D01*
X166424000Y-121408809D01*
X166376380Y-121313571D01*
X166328761Y-121265952D01*
X166233523Y-121218333D01*
X166043047Y-121218333D01*
X165947809Y-121265952D01*
X165900190Y-121313571D01*
X165852571Y-121408809D01*
G04 #@! TO.C,LED6_5*
X154947809Y-121837380D02*
X154471619Y-121837380D01*
X154471619Y-120837380D01*
X155281142Y-121313571D02*
X155614476Y-121313571D01*
X155757333Y-121837380D02*
X155281142Y-121837380D01*
X155281142Y-120837380D01*
X155757333Y-120837380D01*
X156185904Y-121837380D02*
X156185904Y-120837380D01*
X156424000Y-120837380D01*
X156566857Y-120885000D01*
X156662095Y-120980238D01*
X156709714Y-121075476D01*
X156757333Y-121265952D01*
X156757333Y-121408809D01*
X156709714Y-121599285D01*
X156662095Y-121694523D01*
X156566857Y-121789761D01*
X156424000Y-121837380D01*
X156185904Y-121837380D01*
X157614476Y-120837380D02*
X157424000Y-120837380D01*
X157328761Y-120885000D01*
X157281142Y-120932619D01*
X157185904Y-121075476D01*
X157138285Y-121265952D01*
X157138285Y-121646904D01*
X157185904Y-121742142D01*
X157233523Y-121789761D01*
X157328761Y-121837380D01*
X157519238Y-121837380D01*
X157614476Y-121789761D01*
X157662095Y-121742142D01*
X157709714Y-121646904D01*
X157709714Y-121408809D01*
X157662095Y-121313571D01*
X157614476Y-121265952D01*
X157519238Y-121218333D01*
X157328761Y-121218333D01*
X157233523Y-121265952D01*
X157185904Y-121313571D01*
X157138285Y-121408809D01*
X157900190Y-121932619D02*
X158662095Y-121932619D01*
X159376380Y-120837380D02*
X158900190Y-120837380D01*
X158852571Y-121313571D01*
X158900190Y-121265952D01*
X158995428Y-121218333D01*
X159233523Y-121218333D01*
X159328761Y-121265952D01*
X159376380Y-121313571D01*
X159424000Y-121408809D01*
X159424000Y-121646904D01*
X159376380Y-121742142D01*
X159328761Y-121789761D01*
X159233523Y-121837380D01*
X158995428Y-121837380D01*
X158900190Y-121789761D01*
X158852571Y-121742142D01*
G04 #@! TO.C,LED6_4*
X147947809Y-121837380D02*
X147471619Y-121837380D01*
X147471619Y-120837380D01*
X148281142Y-121313571D02*
X148614476Y-121313571D01*
X148757333Y-121837380D02*
X148281142Y-121837380D01*
X148281142Y-120837380D01*
X148757333Y-120837380D01*
X149185904Y-121837380D02*
X149185904Y-120837380D01*
X149424000Y-120837380D01*
X149566857Y-120885000D01*
X149662095Y-120980238D01*
X149709714Y-121075476D01*
X149757333Y-121265952D01*
X149757333Y-121408809D01*
X149709714Y-121599285D01*
X149662095Y-121694523D01*
X149566857Y-121789761D01*
X149424000Y-121837380D01*
X149185904Y-121837380D01*
X150614476Y-120837380D02*
X150424000Y-120837380D01*
X150328761Y-120885000D01*
X150281142Y-120932619D01*
X150185904Y-121075476D01*
X150138285Y-121265952D01*
X150138285Y-121646904D01*
X150185904Y-121742142D01*
X150233523Y-121789761D01*
X150328761Y-121837380D01*
X150519238Y-121837380D01*
X150614476Y-121789761D01*
X150662095Y-121742142D01*
X150709714Y-121646904D01*
X150709714Y-121408809D01*
X150662095Y-121313571D01*
X150614476Y-121265952D01*
X150519238Y-121218333D01*
X150328761Y-121218333D01*
X150233523Y-121265952D01*
X150185904Y-121313571D01*
X150138285Y-121408809D01*
X150900190Y-121932619D02*
X151662095Y-121932619D01*
X152328761Y-121170714D02*
X152328761Y-121837380D01*
X152090666Y-120789761D02*
X151852571Y-121504047D01*
X152471619Y-121504047D01*
G04 #@! TO.C,LED6_3*
X140947809Y-121837380D02*
X140471619Y-121837380D01*
X140471619Y-120837380D01*
X141281142Y-121313571D02*
X141614476Y-121313571D01*
X141757333Y-121837380D02*
X141281142Y-121837380D01*
X141281142Y-120837380D01*
X141757333Y-120837380D01*
X142185904Y-121837380D02*
X142185904Y-120837380D01*
X142424000Y-120837380D01*
X142566857Y-120885000D01*
X142662095Y-120980238D01*
X142709714Y-121075476D01*
X142757333Y-121265952D01*
X142757333Y-121408809D01*
X142709714Y-121599285D01*
X142662095Y-121694523D01*
X142566857Y-121789761D01*
X142424000Y-121837380D01*
X142185904Y-121837380D01*
X143614476Y-120837380D02*
X143424000Y-120837380D01*
X143328761Y-120885000D01*
X143281142Y-120932619D01*
X143185904Y-121075476D01*
X143138285Y-121265952D01*
X143138285Y-121646904D01*
X143185904Y-121742142D01*
X143233523Y-121789761D01*
X143328761Y-121837380D01*
X143519238Y-121837380D01*
X143614476Y-121789761D01*
X143662095Y-121742142D01*
X143709714Y-121646904D01*
X143709714Y-121408809D01*
X143662095Y-121313571D01*
X143614476Y-121265952D01*
X143519238Y-121218333D01*
X143328761Y-121218333D01*
X143233523Y-121265952D01*
X143185904Y-121313571D01*
X143138285Y-121408809D01*
X143900190Y-121932619D02*
X144662095Y-121932619D01*
X144804952Y-120837380D02*
X145424000Y-120837380D01*
X145090666Y-121218333D01*
X145233523Y-121218333D01*
X145328761Y-121265952D01*
X145376380Y-121313571D01*
X145424000Y-121408809D01*
X145424000Y-121646904D01*
X145376380Y-121742142D01*
X145328761Y-121789761D01*
X145233523Y-121837380D01*
X144947809Y-121837380D01*
X144852571Y-121789761D01*
X144804952Y-121742142D01*
G04 #@! TO.C,LED6_2*
X133947809Y-121837380D02*
X133471619Y-121837380D01*
X133471619Y-120837380D01*
X134281142Y-121313571D02*
X134614476Y-121313571D01*
X134757333Y-121837380D02*
X134281142Y-121837380D01*
X134281142Y-120837380D01*
X134757333Y-120837380D01*
X135185904Y-121837380D02*
X135185904Y-120837380D01*
X135424000Y-120837380D01*
X135566857Y-120885000D01*
X135662095Y-120980238D01*
X135709714Y-121075476D01*
X135757333Y-121265952D01*
X135757333Y-121408809D01*
X135709714Y-121599285D01*
X135662095Y-121694523D01*
X135566857Y-121789761D01*
X135424000Y-121837380D01*
X135185904Y-121837380D01*
X136614476Y-120837380D02*
X136424000Y-120837380D01*
X136328761Y-120885000D01*
X136281142Y-120932619D01*
X136185904Y-121075476D01*
X136138285Y-121265952D01*
X136138285Y-121646904D01*
X136185904Y-121742142D01*
X136233523Y-121789761D01*
X136328761Y-121837380D01*
X136519238Y-121837380D01*
X136614476Y-121789761D01*
X136662095Y-121742142D01*
X136709714Y-121646904D01*
X136709714Y-121408809D01*
X136662095Y-121313571D01*
X136614476Y-121265952D01*
X136519238Y-121218333D01*
X136328761Y-121218333D01*
X136233523Y-121265952D01*
X136185904Y-121313571D01*
X136138285Y-121408809D01*
X136900190Y-121932619D02*
X137662095Y-121932619D01*
X137852571Y-120932619D02*
X137900190Y-120885000D01*
X137995428Y-120837380D01*
X138233523Y-120837380D01*
X138328761Y-120885000D01*
X138376380Y-120932619D01*
X138424000Y-121027857D01*
X138424000Y-121123095D01*
X138376380Y-121265952D01*
X137804952Y-121837380D01*
X138424000Y-121837380D01*
G04 #@! TO.C,LED6_1*
X126947809Y-121837380D02*
X126471619Y-121837380D01*
X126471619Y-120837380D01*
X127281142Y-121313571D02*
X127614476Y-121313571D01*
X127757333Y-121837380D02*
X127281142Y-121837380D01*
X127281142Y-120837380D01*
X127757333Y-120837380D01*
X128185904Y-121837380D02*
X128185904Y-120837380D01*
X128424000Y-120837380D01*
X128566857Y-120885000D01*
X128662095Y-120980238D01*
X128709714Y-121075476D01*
X128757333Y-121265952D01*
X128757333Y-121408809D01*
X128709714Y-121599285D01*
X128662095Y-121694523D01*
X128566857Y-121789761D01*
X128424000Y-121837380D01*
X128185904Y-121837380D01*
X129614476Y-120837380D02*
X129424000Y-120837380D01*
X129328761Y-120885000D01*
X129281142Y-120932619D01*
X129185904Y-121075476D01*
X129138285Y-121265952D01*
X129138285Y-121646904D01*
X129185904Y-121742142D01*
X129233523Y-121789761D01*
X129328761Y-121837380D01*
X129519238Y-121837380D01*
X129614476Y-121789761D01*
X129662095Y-121742142D01*
X129709714Y-121646904D01*
X129709714Y-121408809D01*
X129662095Y-121313571D01*
X129614476Y-121265952D01*
X129519238Y-121218333D01*
X129328761Y-121218333D01*
X129233523Y-121265952D01*
X129185904Y-121313571D01*
X129138285Y-121408809D01*
X129900190Y-121932619D02*
X130662095Y-121932619D01*
X131424000Y-121837380D02*
X130852571Y-121837380D01*
X131138285Y-121837380D02*
X131138285Y-120837380D01*
X131043047Y-120980238D01*
X130947809Y-121075476D01*
X130852571Y-121123095D01*
G04 #@! TO.C,LED6_0*
X119947809Y-121837380D02*
X119471619Y-121837380D01*
X119471619Y-120837380D01*
X120281142Y-121313571D02*
X120614476Y-121313571D01*
X120757333Y-121837380D02*
X120281142Y-121837380D01*
X120281142Y-120837380D01*
X120757333Y-120837380D01*
X121185904Y-121837380D02*
X121185904Y-120837380D01*
X121424000Y-120837380D01*
X121566857Y-120885000D01*
X121662095Y-120980238D01*
X121709714Y-121075476D01*
X121757333Y-121265952D01*
X121757333Y-121408809D01*
X121709714Y-121599285D01*
X121662095Y-121694523D01*
X121566857Y-121789761D01*
X121424000Y-121837380D01*
X121185904Y-121837380D01*
X122614476Y-120837380D02*
X122424000Y-120837380D01*
X122328761Y-120885000D01*
X122281142Y-120932619D01*
X122185904Y-121075476D01*
X122138285Y-121265952D01*
X122138285Y-121646904D01*
X122185904Y-121742142D01*
X122233523Y-121789761D01*
X122328761Y-121837380D01*
X122519238Y-121837380D01*
X122614476Y-121789761D01*
X122662095Y-121742142D01*
X122709714Y-121646904D01*
X122709714Y-121408809D01*
X122662095Y-121313571D01*
X122614476Y-121265952D01*
X122519238Y-121218333D01*
X122328761Y-121218333D01*
X122233523Y-121265952D01*
X122185904Y-121313571D01*
X122138285Y-121408809D01*
X122900190Y-121932619D02*
X123662095Y-121932619D01*
X124090666Y-120837380D02*
X124185904Y-120837380D01*
X124281142Y-120885000D01*
X124328761Y-120932619D01*
X124376380Y-121027857D01*
X124424000Y-121218333D01*
X124424000Y-121456428D01*
X124376380Y-121646904D01*
X124328761Y-121742142D01*
X124281142Y-121789761D01*
X124185904Y-121837380D01*
X124090666Y-121837380D01*
X123995428Y-121789761D01*
X123947809Y-121742142D01*
X123900190Y-121646904D01*
X123852571Y-121456428D01*
X123852571Y-121218333D01*
X123900190Y-121027857D01*
X123947809Y-120932619D01*
X123995428Y-120885000D01*
X124090666Y-120837380D01*
G04 #@! TO.C,LED5_6*
X161947809Y-113837380D02*
X161471619Y-113837380D01*
X161471619Y-112837380D01*
X162281142Y-113313571D02*
X162614476Y-113313571D01*
X162757333Y-113837380D02*
X162281142Y-113837380D01*
X162281142Y-112837380D01*
X162757333Y-112837380D01*
X163185904Y-113837380D02*
X163185904Y-112837380D01*
X163424000Y-112837380D01*
X163566857Y-112885000D01*
X163662095Y-112980238D01*
X163709714Y-113075476D01*
X163757333Y-113265952D01*
X163757333Y-113408809D01*
X163709714Y-113599285D01*
X163662095Y-113694523D01*
X163566857Y-113789761D01*
X163424000Y-113837380D01*
X163185904Y-113837380D01*
X164662095Y-112837380D02*
X164185904Y-112837380D01*
X164138285Y-113313571D01*
X164185904Y-113265952D01*
X164281142Y-113218333D01*
X164519238Y-113218333D01*
X164614476Y-113265952D01*
X164662095Y-113313571D01*
X164709714Y-113408809D01*
X164709714Y-113646904D01*
X164662095Y-113742142D01*
X164614476Y-113789761D01*
X164519238Y-113837380D01*
X164281142Y-113837380D01*
X164185904Y-113789761D01*
X164138285Y-113742142D01*
X164900190Y-113932619D02*
X165662095Y-113932619D01*
X166328761Y-112837380D02*
X166138285Y-112837380D01*
X166043047Y-112885000D01*
X165995428Y-112932619D01*
X165900190Y-113075476D01*
X165852571Y-113265952D01*
X165852571Y-113646904D01*
X165900190Y-113742142D01*
X165947809Y-113789761D01*
X166043047Y-113837380D01*
X166233523Y-113837380D01*
X166328761Y-113789761D01*
X166376380Y-113742142D01*
X166424000Y-113646904D01*
X166424000Y-113408809D01*
X166376380Y-113313571D01*
X166328761Y-113265952D01*
X166233523Y-113218333D01*
X166043047Y-113218333D01*
X165947809Y-113265952D01*
X165900190Y-113313571D01*
X165852571Y-113408809D01*
G04 #@! TO.C,LED5_5*
X154947809Y-113837380D02*
X154471619Y-113837380D01*
X154471619Y-112837380D01*
X155281142Y-113313571D02*
X155614476Y-113313571D01*
X155757333Y-113837380D02*
X155281142Y-113837380D01*
X155281142Y-112837380D01*
X155757333Y-112837380D01*
X156185904Y-113837380D02*
X156185904Y-112837380D01*
X156424000Y-112837380D01*
X156566857Y-112885000D01*
X156662095Y-112980238D01*
X156709714Y-113075476D01*
X156757333Y-113265952D01*
X156757333Y-113408809D01*
X156709714Y-113599285D01*
X156662095Y-113694523D01*
X156566857Y-113789761D01*
X156424000Y-113837380D01*
X156185904Y-113837380D01*
X157662095Y-112837380D02*
X157185904Y-112837380D01*
X157138285Y-113313571D01*
X157185904Y-113265952D01*
X157281142Y-113218333D01*
X157519238Y-113218333D01*
X157614476Y-113265952D01*
X157662095Y-113313571D01*
X157709714Y-113408809D01*
X157709714Y-113646904D01*
X157662095Y-113742142D01*
X157614476Y-113789761D01*
X157519238Y-113837380D01*
X157281142Y-113837380D01*
X157185904Y-113789761D01*
X157138285Y-113742142D01*
X157900190Y-113932619D02*
X158662095Y-113932619D01*
X159376380Y-112837380D02*
X158900190Y-112837380D01*
X158852571Y-113313571D01*
X158900190Y-113265952D01*
X158995428Y-113218333D01*
X159233523Y-113218333D01*
X159328761Y-113265952D01*
X159376380Y-113313571D01*
X159424000Y-113408809D01*
X159424000Y-113646904D01*
X159376380Y-113742142D01*
X159328761Y-113789761D01*
X159233523Y-113837380D01*
X158995428Y-113837380D01*
X158900190Y-113789761D01*
X158852571Y-113742142D01*
G04 #@! TO.C,LED5_4*
X147947809Y-113837380D02*
X147471619Y-113837380D01*
X147471619Y-112837380D01*
X148281142Y-113313571D02*
X148614476Y-113313571D01*
X148757333Y-113837380D02*
X148281142Y-113837380D01*
X148281142Y-112837380D01*
X148757333Y-112837380D01*
X149185904Y-113837380D02*
X149185904Y-112837380D01*
X149424000Y-112837380D01*
X149566857Y-112885000D01*
X149662095Y-112980238D01*
X149709714Y-113075476D01*
X149757333Y-113265952D01*
X149757333Y-113408809D01*
X149709714Y-113599285D01*
X149662095Y-113694523D01*
X149566857Y-113789761D01*
X149424000Y-113837380D01*
X149185904Y-113837380D01*
X150662095Y-112837380D02*
X150185904Y-112837380D01*
X150138285Y-113313571D01*
X150185904Y-113265952D01*
X150281142Y-113218333D01*
X150519238Y-113218333D01*
X150614476Y-113265952D01*
X150662095Y-113313571D01*
X150709714Y-113408809D01*
X150709714Y-113646904D01*
X150662095Y-113742142D01*
X150614476Y-113789761D01*
X150519238Y-113837380D01*
X150281142Y-113837380D01*
X150185904Y-113789761D01*
X150138285Y-113742142D01*
X150900190Y-113932619D02*
X151662095Y-113932619D01*
X152328761Y-113170714D02*
X152328761Y-113837380D01*
X152090666Y-112789761D02*
X151852571Y-113504047D01*
X152471619Y-113504047D01*
G04 #@! TO.C,LED5_3*
X140947809Y-113837380D02*
X140471619Y-113837380D01*
X140471619Y-112837380D01*
X141281142Y-113313571D02*
X141614476Y-113313571D01*
X141757333Y-113837380D02*
X141281142Y-113837380D01*
X141281142Y-112837380D01*
X141757333Y-112837380D01*
X142185904Y-113837380D02*
X142185904Y-112837380D01*
X142424000Y-112837380D01*
X142566857Y-112885000D01*
X142662095Y-112980238D01*
X142709714Y-113075476D01*
X142757333Y-113265952D01*
X142757333Y-113408809D01*
X142709714Y-113599285D01*
X142662095Y-113694523D01*
X142566857Y-113789761D01*
X142424000Y-113837380D01*
X142185904Y-113837380D01*
X143662095Y-112837380D02*
X143185904Y-112837380D01*
X143138285Y-113313571D01*
X143185904Y-113265952D01*
X143281142Y-113218333D01*
X143519238Y-113218333D01*
X143614476Y-113265952D01*
X143662095Y-113313571D01*
X143709714Y-113408809D01*
X143709714Y-113646904D01*
X143662095Y-113742142D01*
X143614476Y-113789761D01*
X143519238Y-113837380D01*
X143281142Y-113837380D01*
X143185904Y-113789761D01*
X143138285Y-113742142D01*
X143900190Y-113932619D02*
X144662095Y-113932619D01*
X144804952Y-112837380D02*
X145424000Y-112837380D01*
X145090666Y-113218333D01*
X145233523Y-113218333D01*
X145328761Y-113265952D01*
X145376380Y-113313571D01*
X145424000Y-113408809D01*
X145424000Y-113646904D01*
X145376380Y-113742142D01*
X145328761Y-113789761D01*
X145233523Y-113837380D01*
X144947809Y-113837380D01*
X144852571Y-113789761D01*
X144804952Y-113742142D01*
G04 #@! TO.C,LED5_2*
X133947809Y-113837380D02*
X133471619Y-113837380D01*
X133471619Y-112837380D01*
X134281142Y-113313571D02*
X134614476Y-113313571D01*
X134757333Y-113837380D02*
X134281142Y-113837380D01*
X134281142Y-112837380D01*
X134757333Y-112837380D01*
X135185904Y-113837380D02*
X135185904Y-112837380D01*
X135424000Y-112837380D01*
X135566857Y-112885000D01*
X135662095Y-112980238D01*
X135709714Y-113075476D01*
X135757333Y-113265952D01*
X135757333Y-113408809D01*
X135709714Y-113599285D01*
X135662095Y-113694523D01*
X135566857Y-113789761D01*
X135424000Y-113837380D01*
X135185904Y-113837380D01*
X136662095Y-112837380D02*
X136185904Y-112837380D01*
X136138285Y-113313571D01*
X136185904Y-113265952D01*
X136281142Y-113218333D01*
X136519238Y-113218333D01*
X136614476Y-113265952D01*
X136662095Y-113313571D01*
X136709714Y-113408809D01*
X136709714Y-113646904D01*
X136662095Y-113742142D01*
X136614476Y-113789761D01*
X136519238Y-113837380D01*
X136281142Y-113837380D01*
X136185904Y-113789761D01*
X136138285Y-113742142D01*
X136900190Y-113932619D02*
X137662095Y-113932619D01*
X137852571Y-112932619D02*
X137900190Y-112885000D01*
X137995428Y-112837380D01*
X138233523Y-112837380D01*
X138328761Y-112885000D01*
X138376380Y-112932619D01*
X138424000Y-113027857D01*
X138424000Y-113123095D01*
X138376380Y-113265952D01*
X137804952Y-113837380D01*
X138424000Y-113837380D01*
G04 #@! TO.C,LED5_1*
X126947809Y-113837380D02*
X126471619Y-113837380D01*
X126471619Y-112837380D01*
X127281142Y-113313571D02*
X127614476Y-113313571D01*
X127757333Y-113837380D02*
X127281142Y-113837380D01*
X127281142Y-112837380D01*
X127757333Y-112837380D01*
X128185904Y-113837380D02*
X128185904Y-112837380D01*
X128424000Y-112837380D01*
X128566857Y-112885000D01*
X128662095Y-112980238D01*
X128709714Y-113075476D01*
X128757333Y-113265952D01*
X128757333Y-113408809D01*
X128709714Y-113599285D01*
X128662095Y-113694523D01*
X128566857Y-113789761D01*
X128424000Y-113837380D01*
X128185904Y-113837380D01*
X129662095Y-112837380D02*
X129185904Y-112837380D01*
X129138285Y-113313571D01*
X129185904Y-113265952D01*
X129281142Y-113218333D01*
X129519238Y-113218333D01*
X129614476Y-113265952D01*
X129662095Y-113313571D01*
X129709714Y-113408809D01*
X129709714Y-113646904D01*
X129662095Y-113742142D01*
X129614476Y-113789761D01*
X129519238Y-113837380D01*
X129281142Y-113837380D01*
X129185904Y-113789761D01*
X129138285Y-113742142D01*
X129900190Y-113932619D02*
X130662095Y-113932619D01*
X131424000Y-113837380D02*
X130852571Y-113837380D01*
X131138285Y-113837380D02*
X131138285Y-112837380D01*
X131043047Y-112980238D01*
X130947809Y-113075476D01*
X130852571Y-113123095D01*
G04 #@! TO.C,LED5_0*
X119947809Y-113837380D02*
X119471619Y-113837380D01*
X119471619Y-112837380D01*
X120281142Y-113313571D02*
X120614476Y-113313571D01*
X120757333Y-113837380D02*
X120281142Y-113837380D01*
X120281142Y-112837380D01*
X120757333Y-112837380D01*
X121185904Y-113837380D02*
X121185904Y-112837380D01*
X121424000Y-112837380D01*
X121566857Y-112885000D01*
X121662095Y-112980238D01*
X121709714Y-113075476D01*
X121757333Y-113265952D01*
X121757333Y-113408809D01*
X121709714Y-113599285D01*
X121662095Y-113694523D01*
X121566857Y-113789761D01*
X121424000Y-113837380D01*
X121185904Y-113837380D01*
X122662095Y-112837380D02*
X122185904Y-112837380D01*
X122138285Y-113313571D01*
X122185904Y-113265952D01*
X122281142Y-113218333D01*
X122519238Y-113218333D01*
X122614476Y-113265952D01*
X122662095Y-113313571D01*
X122709714Y-113408809D01*
X122709714Y-113646904D01*
X122662095Y-113742142D01*
X122614476Y-113789761D01*
X122519238Y-113837380D01*
X122281142Y-113837380D01*
X122185904Y-113789761D01*
X122138285Y-113742142D01*
X122900190Y-113932619D02*
X123662095Y-113932619D01*
X124090666Y-112837380D02*
X124185904Y-112837380D01*
X124281142Y-112885000D01*
X124328761Y-112932619D01*
X124376380Y-113027857D01*
X124424000Y-113218333D01*
X124424000Y-113456428D01*
X124376380Y-113646904D01*
X124328761Y-113742142D01*
X124281142Y-113789761D01*
X124185904Y-113837380D01*
X124090666Y-113837380D01*
X123995428Y-113789761D01*
X123947809Y-113742142D01*
X123900190Y-113646904D01*
X123852571Y-113456428D01*
X123852571Y-113218333D01*
X123900190Y-113027857D01*
X123947809Y-112932619D01*
X123995428Y-112885000D01*
X124090666Y-112837380D01*
G04 #@! TO.C,LED4_6*
X161947809Y-105837380D02*
X161471619Y-105837380D01*
X161471619Y-104837380D01*
X162281142Y-105313571D02*
X162614476Y-105313571D01*
X162757333Y-105837380D02*
X162281142Y-105837380D01*
X162281142Y-104837380D01*
X162757333Y-104837380D01*
X163185904Y-105837380D02*
X163185904Y-104837380D01*
X163424000Y-104837380D01*
X163566857Y-104885000D01*
X163662095Y-104980238D01*
X163709714Y-105075476D01*
X163757333Y-105265952D01*
X163757333Y-105408809D01*
X163709714Y-105599285D01*
X163662095Y-105694523D01*
X163566857Y-105789761D01*
X163424000Y-105837380D01*
X163185904Y-105837380D01*
X164614476Y-105170714D02*
X164614476Y-105837380D01*
X164376380Y-104789761D02*
X164138285Y-105504047D01*
X164757333Y-105504047D01*
X164900190Y-105932619D02*
X165662095Y-105932619D01*
X166328761Y-104837380D02*
X166138285Y-104837380D01*
X166043047Y-104885000D01*
X165995428Y-104932619D01*
X165900190Y-105075476D01*
X165852571Y-105265952D01*
X165852571Y-105646904D01*
X165900190Y-105742142D01*
X165947809Y-105789761D01*
X166043047Y-105837380D01*
X166233523Y-105837380D01*
X166328761Y-105789761D01*
X166376380Y-105742142D01*
X166424000Y-105646904D01*
X166424000Y-105408809D01*
X166376380Y-105313571D01*
X166328761Y-105265952D01*
X166233523Y-105218333D01*
X166043047Y-105218333D01*
X165947809Y-105265952D01*
X165900190Y-105313571D01*
X165852571Y-105408809D01*
G04 #@! TO.C,LED4_5*
X154947809Y-105837380D02*
X154471619Y-105837380D01*
X154471619Y-104837380D01*
X155281142Y-105313571D02*
X155614476Y-105313571D01*
X155757333Y-105837380D02*
X155281142Y-105837380D01*
X155281142Y-104837380D01*
X155757333Y-104837380D01*
X156185904Y-105837380D02*
X156185904Y-104837380D01*
X156424000Y-104837380D01*
X156566857Y-104885000D01*
X156662095Y-104980238D01*
X156709714Y-105075476D01*
X156757333Y-105265952D01*
X156757333Y-105408809D01*
X156709714Y-105599285D01*
X156662095Y-105694523D01*
X156566857Y-105789761D01*
X156424000Y-105837380D01*
X156185904Y-105837380D01*
X157614476Y-105170714D02*
X157614476Y-105837380D01*
X157376380Y-104789761D02*
X157138285Y-105504047D01*
X157757333Y-105504047D01*
X157900190Y-105932619D02*
X158662095Y-105932619D01*
X159376380Y-104837380D02*
X158900190Y-104837380D01*
X158852571Y-105313571D01*
X158900190Y-105265952D01*
X158995428Y-105218333D01*
X159233523Y-105218333D01*
X159328761Y-105265952D01*
X159376380Y-105313571D01*
X159424000Y-105408809D01*
X159424000Y-105646904D01*
X159376380Y-105742142D01*
X159328761Y-105789761D01*
X159233523Y-105837380D01*
X158995428Y-105837380D01*
X158900190Y-105789761D01*
X158852571Y-105742142D01*
G04 #@! TO.C,LED4_4*
X147947809Y-105837380D02*
X147471619Y-105837380D01*
X147471619Y-104837380D01*
X148281142Y-105313571D02*
X148614476Y-105313571D01*
X148757333Y-105837380D02*
X148281142Y-105837380D01*
X148281142Y-104837380D01*
X148757333Y-104837380D01*
X149185904Y-105837380D02*
X149185904Y-104837380D01*
X149424000Y-104837380D01*
X149566857Y-104885000D01*
X149662095Y-104980238D01*
X149709714Y-105075476D01*
X149757333Y-105265952D01*
X149757333Y-105408809D01*
X149709714Y-105599285D01*
X149662095Y-105694523D01*
X149566857Y-105789761D01*
X149424000Y-105837380D01*
X149185904Y-105837380D01*
X150614476Y-105170714D02*
X150614476Y-105837380D01*
X150376380Y-104789761D02*
X150138285Y-105504047D01*
X150757333Y-105504047D01*
X150900190Y-105932619D02*
X151662095Y-105932619D01*
X152328761Y-105170714D02*
X152328761Y-105837380D01*
X152090666Y-104789761D02*
X151852571Y-105504047D01*
X152471619Y-105504047D01*
G04 #@! TO.C,LED4_3*
X140947809Y-105837380D02*
X140471619Y-105837380D01*
X140471619Y-104837380D01*
X141281142Y-105313571D02*
X141614476Y-105313571D01*
X141757333Y-105837380D02*
X141281142Y-105837380D01*
X141281142Y-104837380D01*
X141757333Y-104837380D01*
X142185904Y-105837380D02*
X142185904Y-104837380D01*
X142424000Y-104837380D01*
X142566857Y-104885000D01*
X142662095Y-104980238D01*
X142709714Y-105075476D01*
X142757333Y-105265952D01*
X142757333Y-105408809D01*
X142709714Y-105599285D01*
X142662095Y-105694523D01*
X142566857Y-105789761D01*
X142424000Y-105837380D01*
X142185904Y-105837380D01*
X143614476Y-105170714D02*
X143614476Y-105837380D01*
X143376380Y-104789761D02*
X143138285Y-105504047D01*
X143757333Y-105504047D01*
X143900190Y-105932619D02*
X144662095Y-105932619D01*
X144804952Y-104837380D02*
X145424000Y-104837380D01*
X145090666Y-105218333D01*
X145233523Y-105218333D01*
X145328761Y-105265952D01*
X145376380Y-105313571D01*
X145424000Y-105408809D01*
X145424000Y-105646904D01*
X145376380Y-105742142D01*
X145328761Y-105789761D01*
X145233523Y-105837380D01*
X144947809Y-105837380D01*
X144852571Y-105789761D01*
X144804952Y-105742142D01*
G04 #@! TO.C,LED4_2*
X133947809Y-105837380D02*
X133471619Y-105837380D01*
X133471619Y-104837380D01*
X134281142Y-105313571D02*
X134614476Y-105313571D01*
X134757333Y-105837380D02*
X134281142Y-105837380D01*
X134281142Y-104837380D01*
X134757333Y-104837380D01*
X135185904Y-105837380D02*
X135185904Y-104837380D01*
X135424000Y-104837380D01*
X135566857Y-104885000D01*
X135662095Y-104980238D01*
X135709714Y-105075476D01*
X135757333Y-105265952D01*
X135757333Y-105408809D01*
X135709714Y-105599285D01*
X135662095Y-105694523D01*
X135566857Y-105789761D01*
X135424000Y-105837380D01*
X135185904Y-105837380D01*
X136614476Y-105170714D02*
X136614476Y-105837380D01*
X136376380Y-104789761D02*
X136138285Y-105504047D01*
X136757333Y-105504047D01*
X136900190Y-105932619D02*
X137662095Y-105932619D01*
X137852571Y-104932619D02*
X137900190Y-104885000D01*
X137995428Y-104837380D01*
X138233523Y-104837380D01*
X138328761Y-104885000D01*
X138376380Y-104932619D01*
X138424000Y-105027857D01*
X138424000Y-105123095D01*
X138376380Y-105265952D01*
X137804952Y-105837380D01*
X138424000Y-105837380D01*
G04 #@! TO.C,LED4_1*
X126947809Y-105837380D02*
X126471619Y-105837380D01*
X126471619Y-104837380D01*
X127281142Y-105313571D02*
X127614476Y-105313571D01*
X127757333Y-105837380D02*
X127281142Y-105837380D01*
X127281142Y-104837380D01*
X127757333Y-104837380D01*
X128185904Y-105837380D02*
X128185904Y-104837380D01*
X128424000Y-104837380D01*
X128566857Y-104885000D01*
X128662095Y-104980238D01*
X128709714Y-105075476D01*
X128757333Y-105265952D01*
X128757333Y-105408809D01*
X128709714Y-105599285D01*
X128662095Y-105694523D01*
X128566857Y-105789761D01*
X128424000Y-105837380D01*
X128185904Y-105837380D01*
X129614476Y-105170714D02*
X129614476Y-105837380D01*
X129376380Y-104789761D02*
X129138285Y-105504047D01*
X129757333Y-105504047D01*
X129900190Y-105932619D02*
X130662095Y-105932619D01*
X131424000Y-105837380D02*
X130852571Y-105837380D01*
X131138285Y-105837380D02*
X131138285Y-104837380D01*
X131043047Y-104980238D01*
X130947809Y-105075476D01*
X130852571Y-105123095D01*
G04 #@! TO.C,LED4_0*
X119947809Y-105837380D02*
X119471619Y-105837380D01*
X119471619Y-104837380D01*
X120281142Y-105313571D02*
X120614476Y-105313571D01*
X120757333Y-105837380D02*
X120281142Y-105837380D01*
X120281142Y-104837380D01*
X120757333Y-104837380D01*
X121185904Y-105837380D02*
X121185904Y-104837380D01*
X121424000Y-104837380D01*
X121566857Y-104885000D01*
X121662095Y-104980238D01*
X121709714Y-105075476D01*
X121757333Y-105265952D01*
X121757333Y-105408809D01*
X121709714Y-105599285D01*
X121662095Y-105694523D01*
X121566857Y-105789761D01*
X121424000Y-105837380D01*
X121185904Y-105837380D01*
X122614476Y-105170714D02*
X122614476Y-105837380D01*
X122376380Y-104789761D02*
X122138285Y-105504047D01*
X122757333Y-105504047D01*
X122900190Y-105932619D02*
X123662095Y-105932619D01*
X124090666Y-104837380D02*
X124185904Y-104837380D01*
X124281142Y-104885000D01*
X124328761Y-104932619D01*
X124376380Y-105027857D01*
X124424000Y-105218333D01*
X124424000Y-105456428D01*
X124376380Y-105646904D01*
X124328761Y-105742142D01*
X124281142Y-105789761D01*
X124185904Y-105837380D01*
X124090666Y-105837380D01*
X123995428Y-105789761D01*
X123947809Y-105742142D01*
X123900190Y-105646904D01*
X123852571Y-105456428D01*
X123852571Y-105218333D01*
X123900190Y-105027857D01*
X123947809Y-104932619D01*
X123995428Y-104885000D01*
X124090666Y-104837380D01*
G04 #@! TO.C,LED3_6*
X161947809Y-97837380D02*
X161471619Y-97837380D01*
X161471619Y-96837380D01*
X162281142Y-97313571D02*
X162614476Y-97313571D01*
X162757333Y-97837380D02*
X162281142Y-97837380D01*
X162281142Y-96837380D01*
X162757333Y-96837380D01*
X163185904Y-97837380D02*
X163185904Y-96837380D01*
X163424000Y-96837380D01*
X163566857Y-96885000D01*
X163662095Y-96980238D01*
X163709714Y-97075476D01*
X163757333Y-97265952D01*
X163757333Y-97408809D01*
X163709714Y-97599285D01*
X163662095Y-97694523D01*
X163566857Y-97789761D01*
X163424000Y-97837380D01*
X163185904Y-97837380D01*
X164090666Y-96837380D02*
X164709714Y-96837380D01*
X164376380Y-97218333D01*
X164519238Y-97218333D01*
X164614476Y-97265952D01*
X164662095Y-97313571D01*
X164709714Y-97408809D01*
X164709714Y-97646904D01*
X164662095Y-97742142D01*
X164614476Y-97789761D01*
X164519238Y-97837380D01*
X164233523Y-97837380D01*
X164138285Y-97789761D01*
X164090666Y-97742142D01*
X164900190Y-97932619D02*
X165662095Y-97932619D01*
X166328761Y-96837380D02*
X166138285Y-96837380D01*
X166043047Y-96885000D01*
X165995428Y-96932619D01*
X165900190Y-97075476D01*
X165852571Y-97265952D01*
X165852571Y-97646904D01*
X165900190Y-97742142D01*
X165947809Y-97789761D01*
X166043047Y-97837380D01*
X166233523Y-97837380D01*
X166328761Y-97789761D01*
X166376380Y-97742142D01*
X166424000Y-97646904D01*
X166424000Y-97408809D01*
X166376380Y-97313571D01*
X166328761Y-97265952D01*
X166233523Y-97218333D01*
X166043047Y-97218333D01*
X165947809Y-97265952D01*
X165900190Y-97313571D01*
X165852571Y-97408809D01*
G04 #@! TO.C,LED3_5*
X154947809Y-97837380D02*
X154471619Y-97837380D01*
X154471619Y-96837380D01*
X155281142Y-97313571D02*
X155614476Y-97313571D01*
X155757333Y-97837380D02*
X155281142Y-97837380D01*
X155281142Y-96837380D01*
X155757333Y-96837380D01*
X156185904Y-97837380D02*
X156185904Y-96837380D01*
X156424000Y-96837380D01*
X156566857Y-96885000D01*
X156662095Y-96980238D01*
X156709714Y-97075476D01*
X156757333Y-97265952D01*
X156757333Y-97408809D01*
X156709714Y-97599285D01*
X156662095Y-97694523D01*
X156566857Y-97789761D01*
X156424000Y-97837380D01*
X156185904Y-97837380D01*
X157090666Y-96837380D02*
X157709714Y-96837380D01*
X157376380Y-97218333D01*
X157519238Y-97218333D01*
X157614476Y-97265952D01*
X157662095Y-97313571D01*
X157709714Y-97408809D01*
X157709714Y-97646904D01*
X157662095Y-97742142D01*
X157614476Y-97789761D01*
X157519238Y-97837380D01*
X157233523Y-97837380D01*
X157138285Y-97789761D01*
X157090666Y-97742142D01*
X157900190Y-97932619D02*
X158662095Y-97932619D01*
X159376380Y-96837380D02*
X158900190Y-96837380D01*
X158852571Y-97313571D01*
X158900190Y-97265952D01*
X158995428Y-97218333D01*
X159233523Y-97218333D01*
X159328761Y-97265952D01*
X159376380Y-97313571D01*
X159424000Y-97408809D01*
X159424000Y-97646904D01*
X159376380Y-97742142D01*
X159328761Y-97789761D01*
X159233523Y-97837380D01*
X158995428Y-97837380D01*
X158900190Y-97789761D01*
X158852571Y-97742142D01*
G04 #@! TO.C,LED3_4*
X147947809Y-97837380D02*
X147471619Y-97837380D01*
X147471619Y-96837380D01*
X148281142Y-97313571D02*
X148614476Y-97313571D01*
X148757333Y-97837380D02*
X148281142Y-97837380D01*
X148281142Y-96837380D01*
X148757333Y-96837380D01*
X149185904Y-97837380D02*
X149185904Y-96837380D01*
X149424000Y-96837380D01*
X149566857Y-96885000D01*
X149662095Y-96980238D01*
X149709714Y-97075476D01*
X149757333Y-97265952D01*
X149757333Y-97408809D01*
X149709714Y-97599285D01*
X149662095Y-97694523D01*
X149566857Y-97789761D01*
X149424000Y-97837380D01*
X149185904Y-97837380D01*
X150090666Y-96837380D02*
X150709714Y-96837380D01*
X150376380Y-97218333D01*
X150519238Y-97218333D01*
X150614476Y-97265952D01*
X150662095Y-97313571D01*
X150709714Y-97408809D01*
X150709714Y-97646904D01*
X150662095Y-97742142D01*
X150614476Y-97789761D01*
X150519238Y-97837380D01*
X150233523Y-97837380D01*
X150138285Y-97789761D01*
X150090666Y-97742142D01*
X150900190Y-97932619D02*
X151662095Y-97932619D01*
X152328761Y-97170714D02*
X152328761Y-97837380D01*
X152090666Y-96789761D02*
X151852571Y-97504047D01*
X152471619Y-97504047D01*
G04 #@! TO.C,LED3_3*
X140947809Y-97837380D02*
X140471619Y-97837380D01*
X140471619Y-96837380D01*
X141281142Y-97313571D02*
X141614476Y-97313571D01*
X141757333Y-97837380D02*
X141281142Y-97837380D01*
X141281142Y-96837380D01*
X141757333Y-96837380D01*
X142185904Y-97837380D02*
X142185904Y-96837380D01*
X142424000Y-96837380D01*
X142566857Y-96885000D01*
X142662095Y-96980238D01*
X142709714Y-97075476D01*
X142757333Y-97265952D01*
X142757333Y-97408809D01*
X142709714Y-97599285D01*
X142662095Y-97694523D01*
X142566857Y-97789761D01*
X142424000Y-97837380D01*
X142185904Y-97837380D01*
X143090666Y-96837380D02*
X143709714Y-96837380D01*
X143376380Y-97218333D01*
X143519238Y-97218333D01*
X143614476Y-97265952D01*
X143662095Y-97313571D01*
X143709714Y-97408809D01*
X143709714Y-97646904D01*
X143662095Y-97742142D01*
X143614476Y-97789761D01*
X143519238Y-97837380D01*
X143233523Y-97837380D01*
X143138285Y-97789761D01*
X143090666Y-97742142D01*
X143900190Y-97932619D02*
X144662095Y-97932619D01*
X144804952Y-96837380D02*
X145424000Y-96837380D01*
X145090666Y-97218333D01*
X145233523Y-97218333D01*
X145328761Y-97265952D01*
X145376380Y-97313571D01*
X145424000Y-97408809D01*
X145424000Y-97646904D01*
X145376380Y-97742142D01*
X145328761Y-97789761D01*
X145233523Y-97837380D01*
X144947809Y-97837380D01*
X144852571Y-97789761D01*
X144804952Y-97742142D01*
G04 #@! TO.C,LED3_2*
X133947809Y-97837380D02*
X133471619Y-97837380D01*
X133471619Y-96837380D01*
X134281142Y-97313571D02*
X134614476Y-97313571D01*
X134757333Y-97837380D02*
X134281142Y-97837380D01*
X134281142Y-96837380D01*
X134757333Y-96837380D01*
X135185904Y-97837380D02*
X135185904Y-96837380D01*
X135424000Y-96837380D01*
X135566857Y-96885000D01*
X135662095Y-96980238D01*
X135709714Y-97075476D01*
X135757333Y-97265952D01*
X135757333Y-97408809D01*
X135709714Y-97599285D01*
X135662095Y-97694523D01*
X135566857Y-97789761D01*
X135424000Y-97837380D01*
X135185904Y-97837380D01*
X136090666Y-96837380D02*
X136709714Y-96837380D01*
X136376380Y-97218333D01*
X136519238Y-97218333D01*
X136614476Y-97265952D01*
X136662095Y-97313571D01*
X136709714Y-97408809D01*
X136709714Y-97646904D01*
X136662095Y-97742142D01*
X136614476Y-97789761D01*
X136519238Y-97837380D01*
X136233523Y-97837380D01*
X136138285Y-97789761D01*
X136090666Y-97742142D01*
X136900190Y-97932619D02*
X137662095Y-97932619D01*
X137852571Y-96932619D02*
X137900190Y-96885000D01*
X137995428Y-96837380D01*
X138233523Y-96837380D01*
X138328761Y-96885000D01*
X138376380Y-96932619D01*
X138424000Y-97027857D01*
X138424000Y-97123095D01*
X138376380Y-97265952D01*
X137804952Y-97837380D01*
X138424000Y-97837380D01*
G04 #@! TO.C,LED3_1*
X126947809Y-97837380D02*
X126471619Y-97837380D01*
X126471619Y-96837380D01*
X127281142Y-97313571D02*
X127614476Y-97313571D01*
X127757333Y-97837380D02*
X127281142Y-97837380D01*
X127281142Y-96837380D01*
X127757333Y-96837380D01*
X128185904Y-97837380D02*
X128185904Y-96837380D01*
X128424000Y-96837380D01*
X128566857Y-96885000D01*
X128662095Y-96980238D01*
X128709714Y-97075476D01*
X128757333Y-97265952D01*
X128757333Y-97408809D01*
X128709714Y-97599285D01*
X128662095Y-97694523D01*
X128566857Y-97789761D01*
X128424000Y-97837380D01*
X128185904Y-97837380D01*
X129090666Y-96837380D02*
X129709714Y-96837380D01*
X129376380Y-97218333D01*
X129519238Y-97218333D01*
X129614476Y-97265952D01*
X129662095Y-97313571D01*
X129709714Y-97408809D01*
X129709714Y-97646904D01*
X129662095Y-97742142D01*
X129614476Y-97789761D01*
X129519238Y-97837380D01*
X129233523Y-97837380D01*
X129138285Y-97789761D01*
X129090666Y-97742142D01*
X129900190Y-97932619D02*
X130662095Y-97932619D01*
X131424000Y-97837380D02*
X130852571Y-97837380D01*
X131138285Y-97837380D02*
X131138285Y-96837380D01*
X131043047Y-96980238D01*
X130947809Y-97075476D01*
X130852571Y-97123095D01*
G04 #@! TO.C,LED3_0*
X119947809Y-97837380D02*
X119471619Y-97837380D01*
X119471619Y-96837380D01*
X120281142Y-97313571D02*
X120614476Y-97313571D01*
X120757333Y-97837380D02*
X120281142Y-97837380D01*
X120281142Y-96837380D01*
X120757333Y-96837380D01*
X121185904Y-97837380D02*
X121185904Y-96837380D01*
X121424000Y-96837380D01*
X121566857Y-96885000D01*
X121662095Y-96980238D01*
X121709714Y-97075476D01*
X121757333Y-97265952D01*
X121757333Y-97408809D01*
X121709714Y-97599285D01*
X121662095Y-97694523D01*
X121566857Y-97789761D01*
X121424000Y-97837380D01*
X121185904Y-97837380D01*
X122090666Y-96837380D02*
X122709714Y-96837380D01*
X122376380Y-97218333D01*
X122519238Y-97218333D01*
X122614476Y-97265952D01*
X122662095Y-97313571D01*
X122709714Y-97408809D01*
X122709714Y-97646904D01*
X122662095Y-97742142D01*
X122614476Y-97789761D01*
X122519238Y-97837380D01*
X122233523Y-97837380D01*
X122138285Y-97789761D01*
X122090666Y-97742142D01*
X122900190Y-97932619D02*
X123662095Y-97932619D01*
X124090666Y-96837380D02*
X124185904Y-96837380D01*
X124281142Y-96885000D01*
X124328761Y-96932619D01*
X124376380Y-97027857D01*
X124424000Y-97218333D01*
X124424000Y-97456428D01*
X124376380Y-97646904D01*
X124328761Y-97742142D01*
X124281142Y-97789761D01*
X124185904Y-97837380D01*
X124090666Y-97837380D01*
X123995428Y-97789761D01*
X123947809Y-97742142D01*
X123900190Y-97646904D01*
X123852571Y-97456428D01*
X123852571Y-97218333D01*
X123900190Y-97027857D01*
X123947809Y-96932619D01*
X123995428Y-96885000D01*
X124090666Y-96837380D01*
G04 #@! TO.C,LED2_6*
X161947809Y-89837380D02*
X161471619Y-89837380D01*
X161471619Y-88837380D01*
X162281142Y-89313571D02*
X162614476Y-89313571D01*
X162757333Y-89837380D02*
X162281142Y-89837380D01*
X162281142Y-88837380D01*
X162757333Y-88837380D01*
X163185904Y-89837380D02*
X163185904Y-88837380D01*
X163424000Y-88837380D01*
X163566857Y-88885000D01*
X163662095Y-88980238D01*
X163709714Y-89075476D01*
X163757333Y-89265952D01*
X163757333Y-89408809D01*
X163709714Y-89599285D01*
X163662095Y-89694523D01*
X163566857Y-89789761D01*
X163424000Y-89837380D01*
X163185904Y-89837380D01*
X164138285Y-88932619D02*
X164185904Y-88885000D01*
X164281142Y-88837380D01*
X164519238Y-88837380D01*
X164614476Y-88885000D01*
X164662095Y-88932619D01*
X164709714Y-89027857D01*
X164709714Y-89123095D01*
X164662095Y-89265952D01*
X164090666Y-89837380D01*
X164709714Y-89837380D01*
X164900190Y-89932619D02*
X165662095Y-89932619D01*
X166328761Y-88837380D02*
X166138285Y-88837380D01*
X166043047Y-88885000D01*
X165995428Y-88932619D01*
X165900190Y-89075476D01*
X165852571Y-89265952D01*
X165852571Y-89646904D01*
X165900190Y-89742142D01*
X165947809Y-89789761D01*
X166043047Y-89837380D01*
X166233523Y-89837380D01*
X166328761Y-89789761D01*
X166376380Y-89742142D01*
X166424000Y-89646904D01*
X166424000Y-89408809D01*
X166376380Y-89313571D01*
X166328761Y-89265952D01*
X166233523Y-89218333D01*
X166043047Y-89218333D01*
X165947809Y-89265952D01*
X165900190Y-89313571D01*
X165852571Y-89408809D01*
G04 #@! TO.C,LED2_5*
X154947809Y-89837380D02*
X154471619Y-89837380D01*
X154471619Y-88837380D01*
X155281142Y-89313571D02*
X155614476Y-89313571D01*
X155757333Y-89837380D02*
X155281142Y-89837380D01*
X155281142Y-88837380D01*
X155757333Y-88837380D01*
X156185904Y-89837380D02*
X156185904Y-88837380D01*
X156424000Y-88837380D01*
X156566857Y-88885000D01*
X156662095Y-88980238D01*
X156709714Y-89075476D01*
X156757333Y-89265952D01*
X156757333Y-89408809D01*
X156709714Y-89599285D01*
X156662095Y-89694523D01*
X156566857Y-89789761D01*
X156424000Y-89837380D01*
X156185904Y-89837380D01*
X157138285Y-88932619D02*
X157185904Y-88885000D01*
X157281142Y-88837380D01*
X157519238Y-88837380D01*
X157614476Y-88885000D01*
X157662095Y-88932619D01*
X157709714Y-89027857D01*
X157709714Y-89123095D01*
X157662095Y-89265952D01*
X157090666Y-89837380D01*
X157709714Y-89837380D01*
X157900190Y-89932619D02*
X158662095Y-89932619D01*
X159376380Y-88837380D02*
X158900190Y-88837380D01*
X158852571Y-89313571D01*
X158900190Y-89265952D01*
X158995428Y-89218333D01*
X159233523Y-89218333D01*
X159328761Y-89265952D01*
X159376380Y-89313571D01*
X159424000Y-89408809D01*
X159424000Y-89646904D01*
X159376380Y-89742142D01*
X159328761Y-89789761D01*
X159233523Y-89837380D01*
X158995428Y-89837380D01*
X158900190Y-89789761D01*
X158852571Y-89742142D01*
G04 #@! TO.C,LED2_4*
X147947809Y-89837380D02*
X147471619Y-89837380D01*
X147471619Y-88837380D01*
X148281142Y-89313571D02*
X148614476Y-89313571D01*
X148757333Y-89837380D02*
X148281142Y-89837380D01*
X148281142Y-88837380D01*
X148757333Y-88837380D01*
X149185904Y-89837380D02*
X149185904Y-88837380D01*
X149424000Y-88837380D01*
X149566857Y-88885000D01*
X149662095Y-88980238D01*
X149709714Y-89075476D01*
X149757333Y-89265952D01*
X149757333Y-89408809D01*
X149709714Y-89599285D01*
X149662095Y-89694523D01*
X149566857Y-89789761D01*
X149424000Y-89837380D01*
X149185904Y-89837380D01*
X150138285Y-88932619D02*
X150185904Y-88885000D01*
X150281142Y-88837380D01*
X150519238Y-88837380D01*
X150614476Y-88885000D01*
X150662095Y-88932619D01*
X150709714Y-89027857D01*
X150709714Y-89123095D01*
X150662095Y-89265952D01*
X150090666Y-89837380D01*
X150709714Y-89837380D01*
X150900190Y-89932619D02*
X151662095Y-89932619D01*
X152328761Y-89170714D02*
X152328761Y-89837380D01*
X152090666Y-88789761D02*
X151852571Y-89504047D01*
X152471619Y-89504047D01*
G04 #@! TO.C,LED2_3*
X140947809Y-89837380D02*
X140471619Y-89837380D01*
X140471619Y-88837380D01*
X141281142Y-89313571D02*
X141614476Y-89313571D01*
X141757333Y-89837380D02*
X141281142Y-89837380D01*
X141281142Y-88837380D01*
X141757333Y-88837380D01*
X142185904Y-89837380D02*
X142185904Y-88837380D01*
X142424000Y-88837380D01*
X142566857Y-88885000D01*
X142662095Y-88980238D01*
X142709714Y-89075476D01*
X142757333Y-89265952D01*
X142757333Y-89408809D01*
X142709714Y-89599285D01*
X142662095Y-89694523D01*
X142566857Y-89789761D01*
X142424000Y-89837380D01*
X142185904Y-89837380D01*
X143138285Y-88932619D02*
X143185904Y-88885000D01*
X143281142Y-88837380D01*
X143519238Y-88837380D01*
X143614476Y-88885000D01*
X143662095Y-88932619D01*
X143709714Y-89027857D01*
X143709714Y-89123095D01*
X143662095Y-89265952D01*
X143090666Y-89837380D01*
X143709714Y-89837380D01*
X143900190Y-89932619D02*
X144662095Y-89932619D01*
X144804952Y-88837380D02*
X145424000Y-88837380D01*
X145090666Y-89218333D01*
X145233523Y-89218333D01*
X145328761Y-89265952D01*
X145376380Y-89313571D01*
X145424000Y-89408809D01*
X145424000Y-89646904D01*
X145376380Y-89742142D01*
X145328761Y-89789761D01*
X145233523Y-89837380D01*
X144947809Y-89837380D01*
X144852571Y-89789761D01*
X144804952Y-89742142D01*
G04 #@! TO.C,LED2_2*
X133947809Y-89837380D02*
X133471619Y-89837380D01*
X133471619Y-88837380D01*
X134281142Y-89313571D02*
X134614476Y-89313571D01*
X134757333Y-89837380D02*
X134281142Y-89837380D01*
X134281142Y-88837380D01*
X134757333Y-88837380D01*
X135185904Y-89837380D02*
X135185904Y-88837380D01*
X135424000Y-88837380D01*
X135566857Y-88885000D01*
X135662095Y-88980238D01*
X135709714Y-89075476D01*
X135757333Y-89265952D01*
X135757333Y-89408809D01*
X135709714Y-89599285D01*
X135662095Y-89694523D01*
X135566857Y-89789761D01*
X135424000Y-89837380D01*
X135185904Y-89837380D01*
X136138285Y-88932619D02*
X136185904Y-88885000D01*
X136281142Y-88837380D01*
X136519238Y-88837380D01*
X136614476Y-88885000D01*
X136662095Y-88932619D01*
X136709714Y-89027857D01*
X136709714Y-89123095D01*
X136662095Y-89265952D01*
X136090666Y-89837380D01*
X136709714Y-89837380D01*
X136900190Y-89932619D02*
X137662095Y-89932619D01*
X137852571Y-88932619D02*
X137900190Y-88885000D01*
X137995428Y-88837380D01*
X138233523Y-88837380D01*
X138328761Y-88885000D01*
X138376380Y-88932619D01*
X138424000Y-89027857D01*
X138424000Y-89123095D01*
X138376380Y-89265952D01*
X137804952Y-89837380D01*
X138424000Y-89837380D01*
G04 #@! TO.C,LED2_1*
X126947809Y-89837380D02*
X126471619Y-89837380D01*
X126471619Y-88837380D01*
X127281142Y-89313571D02*
X127614476Y-89313571D01*
X127757333Y-89837380D02*
X127281142Y-89837380D01*
X127281142Y-88837380D01*
X127757333Y-88837380D01*
X128185904Y-89837380D02*
X128185904Y-88837380D01*
X128424000Y-88837380D01*
X128566857Y-88885000D01*
X128662095Y-88980238D01*
X128709714Y-89075476D01*
X128757333Y-89265952D01*
X128757333Y-89408809D01*
X128709714Y-89599285D01*
X128662095Y-89694523D01*
X128566857Y-89789761D01*
X128424000Y-89837380D01*
X128185904Y-89837380D01*
X129138285Y-88932619D02*
X129185904Y-88885000D01*
X129281142Y-88837380D01*
X129519238Y-88837380D01*
X129614476Y-88885000D01*
X129662095Y-88932619D01*
X129709714Y-89027857D01*
X129709714Y-89123095D01*
X129662095Y-89265952D01*
X129090666Y-89837380D01*
X129709714Y-89837380D01*
X129900190Y-89932619D02*
X130662095Y-89932619D01*
X131424000Y-89837380D02*
X130852571Y-89837380D01*
X131138285Y-89837380D02*
X131138285Y-88837380D01*
X131043047Y-88980238D01*
X130947809Y-89075476D01*
X130852571Y-89123095D01*
G04 #@! TO.C,LED2_0*
X119947809Y-89837380D02*
X119471619Y-89837380D01*
X119471619Y-88837380D01*
X120281142Y-89313571D02*
X120614476Y-89313571D01*
X120757333Y-89837380D02*
X120281142Y-89837380D01*
X120281142Y-88837380D01*
X120757333Y-88837380D01*
X121185904Y-89837380D02*
X121185904Y-88837380D01*
X121424000Y-88837380D01*
X121566857Y-88885000D01*
X121662095Y-88980238D01*
X121709714Y-89075476D01*
X121757333Y-89265952D01*
X121757333Y-89408809D01*
X121709714Y-89599285D01*
X121662095Y-89694523D01*
X121566857Y-89789761D01*
X121424000Y-89837380D01*
X121185904Y-89837380D01*
X122138285Y-88932619D02*
X122185904Y-88885000D01*
X122281142Y-88837380D01*
X122519238Y-88837380D01*
X122614476Y-88885000D01*
X122662095Y-88932619D01*
X122709714Y-89027857D01*
X122709714Y-89123095D01*
X122662095Y-89265952D01*
X122090666Y-89837380D01*
X122709714Y-89837380D01*
X122900190Y-89932619D02*
X123662095Y-89932619D01*
X124090666Y-88837380D02*
X124185904Y-88837380D01*
X124281142Y-88885000D01*
X124328761Y-88932619D01*
X124376380Y-89027857D01*
X124424000Y-89218333D01*
X124424000Y-89456428D01*
X124376380Y-89646904D01*
X124328761Y-89742142D01*
X124281142Y-89789761D01*
X124185904Y-89837380D01*
X124090666Y-89837380D01*
X123995428Y-89789761D01*
X123947809Y-89742142D01*
X123900190Y-89646904D01*
X123852571Y-89456428D01*
X123852571Y-89218333D01*
X123900190Y-89027857D01*
X123947809Y-88932619D01*
X123995428Y-88885000D01*
X124090666Y-88837380D01*
G04 #@! TO.C,LED1_6*
X161947809Y-81837380D02*
X161471619Y-81837380D01*
X161471619Y-80837380D01*
X162281142Y-81313571D02*
X162614476Y-81313571D01*
X162757333Y-81837380D02*
X162281142Y-81837380D01*
X162281142Y-80837380D01*
X162757333Y-80837380D01*
X163185904Y-81837380D02*
X163185904Y-80837380D01*
X163424000Y-80837380D01*
X163566857Y-80885000D01*
X163662095Y-80980238D01*
X163709714Y-81075476D01*
X163757333Y-81265952D01*
X163757333Y-81408809D01*
X163709714Y-81599285D01*
X163662095Y-81694523D01*
X163566857Y-81789761D01*
X163424000Y-81837380D01*
X163185904Y-81837380D01*
X164709714Y-81837380D02*
X164138285Y-81837380D01*
X164424000Y-81837380D02*
X164424000Y-80837380D01*
X164328761Y-80980238D01*
X164233523Y-81075476D01*
X164138285Y-81123095D01*
X164900190Y-81932619D02*
X165662095Y-81932619D01*
X166328761Y-80837380D02*
X166138285Y-80837380D01*
X166043047Y-80885000D01*
X165995428Y-80932619D01*
X165900190Y-81075476D01*
X165852571Y-81265952D01*
X165852571Y-81646904D01*
X165900190Y-81742142D01*
X165947809Y-81789761D01*
X166043047Y-81837380D01*
X166233523Y-81837380D01*
X166328761Y-81789761D01*
X166376380Y-81742142D01*
X166424000Y-81646904D01*
X166424000Y-81408809D01*
X166376380Y-81313571D01*
X166328761Y-81265952D01*
X166233523Y-81218333D01*
X166043047Y-81218333D01*
X165947809Y-81265952D01*
X165900190Y-81313571D01*
X165852571Y-81408809D01*
G04 #@! TO.C,LED1_5*
X154947809Y-81837380D02*
X154471619Y-81837380D01*
X154471619Y-80837380D01*
X155281142Y-81313571D02*
X155614476Y-81313571D01*
X155757333Y-81837380D02*
X155281142Y-81837380D01*
X155281142Y-80837380D01*
X155757333Y-80837380D01*
X156185904Y-81837380D02*
X156185904Y-80837380D01*
X156424000Y-80837380D01*
X156566857Y-80885000D01*
X156662095Y-80980238D01*
X156709714Y-81075476D01*
X156757333Y-81265952D01*
X156757333Y-81408809D01*
X156709714Y-81599285D01*
X156662095Y-81694523D01*
X156566857Y-81789761D01*
X156424000Y-81837380D01*
X156185904Y-81837380D01*
X157709714Y-81837380D02*
X157138285Y-81837380D01*
X157424000Y-81837380D02*
X157424000Y-80837380D01*
X157328761Y-80980238D01*
X157233523Y-81075476D01*
X157138285Y-81123095D01*
X157900190Y-81932619D02*
X158662095Y-81932619D01*
X159376380Y-80837380D02*
X158900190Y-80837380D01*
X158852571Y-81313571D01*
X158900190Y-81265952D01*
X158995428Y-81218333D01*
X159233523Y-81218333D01*
X159328761Y-81265952D01*
X159376380Y-81313571D01*
X159424000Y-81408809D01*
X159424000Y-81646904D01*
X159376380Y-81742142D01*
X159328761Y-81789761D01*
X159233523Y-81837380D01*
X158995428Y-81837380D01*
X158900190Y-81789761D01*
X158852571Y-81742142D01*
G04 #@! TO.C,LED1_4*
X147947809Y-81837380D02*
X147471619Y-81837380D01*
X147471619Y-80837380D01*
X148281142Y-81313571D02*
X148614476Y-81313571D01*
X148757333Y-81837380D02*
X148281142Y-81837380D01*
X148281142Y-80837380D01*
X148757333Y-80837380D01*
X149185904Y-81837380D02*
X149185904Y-80837380D01*
X149424000Y-80837380D01*
X149566857Y-80885000D01*
X149662095Y-80980238D01*
X149709714Y-81075476D01*
X149757333Y-81265952D01*
X149757333Y-81408809D01*
X149709714Y-81599285D01*
X149662095Y-81694523D01*
X149566857Y-81789761D01*
X149424000Y-81837380D01*
X149185904Y-81837380D01*
X150709714Y-81837380D02*
X150138285Y-81837380D01*
X150424000Y-81837380D02*
X150424000Y-80837380D01*
X150328761Y-80980238D01*
X150233523Y-81075476D01*
X150138285Y-81123095D01*
X150900190Y-81932619D02*
X151662095Y-81932619D01*
X152328761Y-81170714D02*
X152328761Y-81837380D01*
X152090666Y-80789761D02*
X151852571Y-81504047D01*
X152471619Y-81504047D01*
G04 #@! TO.C,LED1_3*
X140947809Y-81837380D02*
X140471619Y-81837380D01*
X140471619Y-80837380D01*
X141281142Y-81313571D02*
X141614476Y-81313571D01*
X141757333Y-81837380D02*
X141281142Y-81837380D01*
X141281142Y-80837380D01*
X141757333Y-80837380D01*
X142185904Y-81837380D02*
X142185904Y-80837380D01*
X142424000Y-80837380D01*
X142566857Y-80885000D01*
X142662095Y-80980238D01*
X142709714Y-81075476D01*
X142757333Y-81265952D01*
X142757333Y-81408809D01*
X142709714Y-81599285D01*
X142662095Y-81694523D01*
X142566857Y-81789761D01*
X142424000Y-81837380D01*
X142185904Y-81837380D01*
X143709714Y-81837380D02*
X143138285Y-81837380D01*
X143424000Y-81837380D02*
X143424000Y-80837380D01*
X143328761Y-80980238D01*
X143233523Y-81075476D01*
X143138285Y-81123095D01*
X143900190Y-81932619D02*
X144662095Y-81932619D01*
X144804952Y-80837380D02*
X145424000Y-80837380D01*
X145090666Y-81218333D01*
X145233523Y-81218333D01*
X145328761Y-81265952D01*
X145376380Y-81313571D01*
X145424000Y-81408809D01*
X145424000Y-81646904D01*
X145376380Y-81742142D01*
X145328761Y-81789761D01*
X145233523Y-81837380D01*
X144947809Y-81837380D01*
X144852571Y-81789761D01*
X144804952Y-81742142D01*
G04 #@! TO.C,LED1_2*
X133947809Y-81837380D02*
X133471619Y-81837380D01*
X133471619Y-80837380D01*
X134281142Y-81313571D02*
X134614476Y-81313571D01*
X134757333Y-81837380D02*
X134281142Y-81837380D01*
X134281142Y-80837380D01*
X134757333Y-80837380D01*
X135185904Y-81837380D02*
X135185904Y-80837380D01*
X135424000Y-80837380D01*
X135566857Y-80885000D01*
X135662095Y-80980238D01*
X135709714Y-81075476D01*
X135757333Y-81265952D01*
X135757333Y-81408809D01*
X135709714Y-81599285D01*
X135662095Y-81694523D01*
X135566857Y-81789761D01*
X135424000Y-81837380D01*
X135185904Y-81837380D01*
X136709714Y-81837380D02*
X136138285Y-81837380D01*
X136424000Y-81837380D02*
X136424000Y-80837380D01*
X136328761Y-80980238D01*
X136233523Y-81075476D01*
X136138285Y-81123095D01*
X136900190Y-81932619D02*
X137662095Y-81932619D01*
X137852571Y-80932619D02*
X137900190Y-80885000D01*
X137995428Y-80837380D01*
X138233523Y-80837380D01*
X138328761Y-80885000D01*
X138376380Y-80932619D01*
X138424000Y-81027857D01*
X138424000Y-81123095D01*
X138376380Y-81265952D01*
X137804952Y-81837380D01*
X138424000Y-81837380D01*
G04 #@! TO.C,LED1_1*
X126947809Y-81837380D02*
X126471619Y-81837380D01*
X126471619Y-80837380D01*
X127281142Y-81313571D02*
X127614476Y-81313571D01*
X127757333Y-81837380D02*
X127281142Y-81837380D01*
X127281142Y-80837380D01*
X127757333Y-80837380D01*
X128185904Y-81837380D02*
X128185904Y-80837380D01*
X128424000Y-80837380D01*
X128566857Y-80885000D01*
X128662095Y-80980238D01*
X128709714Y-81075476D01*
X128757333Y-81265952D01*
X128757333Y-81408809D01*
X128709714Y-81599285D01*
X128662095Y-81694523D01*
X128566857Y-81789761D01*
X128424000Y-81837380D01*
X128185904Y-81837380D01*
X129709714Y-81837380D02*
X129138285Y-81837380D01*
X129424000Y-81837380D02*
X129424000Y-80837380D01*
X129328761Y-80980238D01*
X129233523Y-81075476D01*
X129138285Y-81123095D01*
X129900190Y-81932619D02*
X130662095Y-81932619D01*
X131424000Y-81837380D02*
X130852571Y-81837380D01*
X131138285Y-81837380D02*
X131138285Y-80837380D01*
X131043047Y-80980238D01*
X130947809Y-81075476D01*
X130852571Y-81123095D01*
G04 #@! TO.C,LED1_0*
X119947809Y-81837380D02*
X119471619Y-81837380D01*
X119471619Y-80837380D01*
X120281142Y-81313571D02*
X120614476Y-81313571D01*
X120757333Y-81837380D02*
X120281142Y-81837380D01*
X120281142Y-80837380D01*
X120757333Y-80837380D01*
X121185904Y-81837380D02*
X121185904Y-80837380D01*
X121424000Y-80837380D01*
X121566857Y-80885000D01*
X121662095Y-80980238D01*
X121709714Y-81075476D01*
X121757333Y-81265952D01*
X121757333Y-81408809D01*
X121709714Y-81599285D01*
X121662095Y-81694523D01*
X121566857Y-81789761D01*
X121424000Y-81837380D01*
X121185904Y-81837380D01*
X122709714Y-81837380D02*
X122138285Y-81837380D01*
X122424000Y-81837380D02*
X122424000Y-80837380D01*
X122328761Y-80980238D01*
X122233523Y-81075476D01*
X122138285Y-81123095D01*
X122900190Y-81932619D02*
X123662095Y-81932619D01*
X124090666Y-80837380D02*
X124185904Y-80837380D01*
X124281142Y-80885000D01*
X124328761Y-80932619D01*
X124376380Y-81027857D01*
X124424000Y-81218333D01*
X124424000Y-81456428D01*
X124376380Y-81646904D01*
X124328761Y-81742142D01*
X124281142Y-81789761D01*
X124185904Y-81837380D01*
X124090666Y-81837380D01*
X123995428Y-81789761D01*
X123947809Y-81742142D01*
X123900190Y-81646904D01*
X123852571Y-81456428D01*
X123852571Y-81218333D01*
X123900190Y-81027857D01*
X123947809Y-80932619D01*
X123995428Y-80885000D01*
X124090666Y-80837380D01*
G04 #@! TO.C,LED0_6*
X161947809Y-73837380D02*
X161471619Y-73837380D01*
X161471619Y-72837380D01*
X162281142Y-73313571D02*
X162614476Y-73313571D01*
X162757333Y-73837380D02*
X162281142Y-73837380D01*
X162281142Y-72837380D01*
X162757333Y-72837380D01*
X163185904Y-73837380D02*
X163185904Y-72837380D01*
X163424000Y-72837380D01*
X163566857Y-72885000D01*
X163662095Y-72980238D01*
X163709714Y-73075476D01*
X163757333Y-73265952D01*
X163757333Y-73408809D01*
X163709714Y-73599285D01*
X163662095Y-73694523D01*
X163566857Y-73789761D01*
X163424000Y-73837380D01*
X163185904Y-73837380D01*
X164376380Y-72837380D02*
X164471619Y-72837380D01*
X164566857Y-72885000D01*
X164614476Y-72932619D01*
X164662095Y-73027857D01*
X164709714Y-73218333D01*
X164709714Y-73456428D01*
X164662095Y-73646904D01*
X164614476Y-73742142D01*
X164566857Y-73789761D01*
X164471619Y-73837380D01*
X164376380Y-73837380D01*
X164281142Y-73789761D01*
X164233523Y-73742142D01*
X164185904Y-73646904D01*
X164138285Y-73456428D01*
X164138285Y-73218333D01*
X164185904Y-73027857D01*
X164233523Y-72932619D01*
X164281142Y-72885000D01*
X164376380Y-72837380D01*
X164900190Y-73932619D02*
X165662095Y-73932619D01*
X166328761Y-72837380D02*
X166138285Y-72837380D01*
X166043047Y-72885000D01*
X165995428Y-72932619D01*
X165900190Y-73075476D01*
X165852571Y-73265952D01*
X165852571Y-73646904D01*
X165900190Y-73742142D01*
X165947809Y-73789761D01*
X166043047Y-73837380D01*
X166233523Y-73837380D01*
X166328761Y-73789761D01*
X166376380Y-73742142D01*
X166424000Y-73646904D01*
X166424000Y-73408809D01*
X166376380Y-73313571D01*
X166328761Y-73265952D01*
X166233523Y-73218333D01*
X166043047Y-73218333D01*
X165947809Y-73265952D01*
X165900190Y-73313571D01*
X165852571Y-73408809D01*
G04 #@! TO.C,LED0_5*
X154947809Y-73837380D02*
X154471619Y-73837380D01*
X154471619Y-72837380D01*
X155281142Y-73313571D02*
X155614476Y-73313571D01*
X155757333Y-73837380D02*
X155281142Y-73837380D01*
X155281142Y-72837380D01*
X155757333Y-72837380D01*
X156185904Y-73837380D02*
X156185904Y-72837380D01*
X156424000Y-72837380D01*
X156566857Y-72885000D01*
X156662095Y-72980238D01*
X156709714Y-73075476D01*
X156757333Y-73265952D01*
X156757333Y-73408809D01*
X156709714Y-73599285D01*
X156662095Y-73694523D01*
X156566857Y-73789761D01*
X156424000Y-73837380D01*
X156185904Y-73837380D01*
X157376380Y-72837380D02*
X157471619Y-72837380D01*
X157566857Y-72885000D01*
X157614476Y-72932619D01*
X157662095Y-73027857D01*
X157709714Y-73218333D01*
X157709714Y-73456428D01*
X157662095Y-73646904D01*
X157614476Y-73742142D01*
X157566857Y-73789761D01*
X157471619Y-73837380D01*
X157376380Y-73837380D01*
X157281142Y-73789761D01*
X157233523Y-73742142D01*
X157185904Y-73646904D01*
X157138285Y-73456428D01*
X157138285Y-73218333D01*
X157185904Y-73027857D01*
X157233523Y-72932619D01*
X157281142Y-72885000D01*
X157376380Y-72837380D01*
X157900190Y-73932619D02*
X158662095Y-73932619D01*
X159376380Y-72837380D02*
X158900190Y-72837380D01*
X158852571Y-73313571D01*
X158900190Y-73265952D01*
X158995428Y-73218333D01*
X159233523Y-73218333D01*
X159328761Y-73265952D01*
X159376380Y-73313571D01*
X159424000Y-73408809D01*
X159424000Y-73646904D01*
X159376380Y-73742142D01*
X159328761Y-73789761D01*
X159233523Y-73837380D01*
X158995428Y-73837380D01*
X158900190Y-73789761D01*
X158852571Y-73742142D01*
G04 #@! TO.C,LED0_4*
X147947809Y-73837380D02*
X147471619Y-73837380D01*
X147471619Y-72837380D01*
X148281142Y-73313571D02*
X148614476Y-73313571D01*
X148757333Y-73837380D02*
X148281142Y-73837380D01*
X148281142Y-72837380D01*
X148757333Y-72837380D01*
X149185904Y-73837380D02*
X149185904Y-72837380D01*
X149424000Y-72837380D01*
X149566857Y-72885000D01*
X149662095Y-72980238D01*
X149709714Y-73075476D01*
X149757333Y-73265952D01*
X149757333Y-73408809D01*
X149709714Y-73599285D01*
X149662095Y-73694523D01*
X149566857Y-73789761D01*
X149424000Y-73837380D01*
X149185904Y-73837380D01*
X150376380Y-72837380D02*
X150471619Y-72837380D01*
X150566857Y-72885000D01*
X150614476Y-72932619D01*
X150662095Y-73027857D01*
X150709714Y-73218333D01*
X150709714Y-73456428D01*
X150662095Y-73646904D01*
X150614476Y-73742142D01*
X150566857Y-73789761D01*
X150471619Y-73837380D01*
X150376380Y-73837380D01*
X150281142Y-73789761D01*
X150233523Y-73742142D01*
X150185904Y-73646904D01*
X150138285Y-73456428D01*
X150138285Y-73218333D01*
X150185904Y-73027857D01*
X150233523Y-72932619D01*
X150281142Y-72885000D01*
X150376380Y-72837380D01*
X150900190Y-73932619D02*
X151662095Y-73932619D01*
X152328761Y-73170714D02*
X152328761Y-73837380D01*
X152090666Y-72789761D02*
X151852571Y-73504047D01*
X152471619Y-73504047D01*
G04 #@! TO.C,LED0_3*
X140947809Y-73837380D02*
X140471619Y-73837380D01*
X140471619Y-72837380D01*
X141281142Y-73313571D02*
X141614476Y-73313571D01*
X141757333Y-73837380D02*
X141281142Y-73837380D01*
X141281142Y-72837380D01*
X141757333Y-72837380D01*
X142185904Y-73837380D02*
X142185904Y-72837380D01*
X142424000Y-72837380D01*
X142566857Y-72885000D01*
X142662095Y-72980238D01*
X142709714Y-73075476D01*
X142757333Y-73265952D01*
X142757333Y-73408809D01*
X142709714Y-73599285D01*
X142662095Y-73694523D01*
X142566857Y-73789761D01*
X142424000Y-73837380D01*
X142185904Y-73837380D01*
X143376380Y-72837380D02*
X143471619Y-72837380D01*
X143566857Y-72885000D01*
X143614476Y-72932619D01*
X143662095Y-73027857D01*
X143709714Y-73218333D01*
X143709714Y-73456428D01*
X143662095Y-73646904D01*
X143614476Y-73742142D01*
X143566857Y-73789761D01*
X143471619Y-73837380D01*
X143376380Y-73837380D01*
X143281142Y-73789761D01*
X143233523Y-73742142D01*
X143185904Y-73646904D01*
X143138285Y-73456428D01*
X143138285Y-73218333D01*
X143185904Y-73027857D01*
X143233523Y-72932619D01*
X143281142Y-72885000D01*
X143376380Y-72837380D01*
X143900190Y-73932619D02*
X144662095Y-73932619D01*
X144804952Y-72837380D02*
X145424000Y-72837380D01*
X145090666Y-73218333D01*
X145233523Y-73218333D01*
X145328761Y-73265952D01*
X145376380Y-73313571D01*
X145424000Y-73408809D01*
X145424000Y-73646904D01*
X145376380Y-73742142D01*
X145328761Y-73789761D01*
X145233523Y-73837380D01*
X144947809Y-73837380D01*
X144852571Y-73789761D01*
X144804952Y-73742142D01*
G04 #@! TO.C,LED0_2*
X133947809Y-73837380D02*
X133471619Y-73837380D01*
X133471619Y-72837380D01*
X134281142Y-73313571D02*
X134614476Y-73313571D01*
X134757333Y-73837380D02*
X134281142Y-73837380D01*
X134281142Y-72837380D01*
X134757333Y-72837380D01*
X135185904Y-73837380D02*
X135185904Y-72837380D01*
X135424000Y-72837380D01*
X135566857Y-72885000D01*
X135662095Y-72980238D01*
X135709714Y-73075476D01*
X135757333Y-73265952D01*
X135757333Y-73408809D01*
X135709714Y-73599285D01*
X135662095Y-73694523D01*
X135566857Y-73789761D01*
X135424000Y-73837380D01*
X135185904Y-73837380D01*
X136376380Y-72837380D02*
X136471619Y-72837380D01*
X136566857Y-72885000D01*
X136614476Y-72932619D01*
X136662095Y-73027857D01*
X136709714Y-73218333D01*
X136709714Y-73456428D01*
X136662095Y-73646904D01*
X136614476Y-73742142D01*
X136566857Y-73789761D01*
X136471619Y-73837380D01*
X136376380Y-73837380D01*
X136281142Y-73789761D01*
X136233523Y-73742142D01*
X136185904Y-73646904D01*
X136138285Y-73456428D01*
X136138285Y-73218333D01*
X136185904Y-73027857D01*
X136233523Y-72932619D01*
X136281142Y-72885000D01*
X136376380Y-72837380D01*
X136900190Y-73932619D02*
X137662095Y-73932619D01*
X137852571Y-72932619D02*
X137900190Y-72885000D01*
X137995428Y-72837380D01*
X138233523Y-72837380D01*
X138328761Y-72885000D01*
X138376380Y-72932619D01*
X138424000Y-73027857D01*
X138424000Y-73123095D01*
X138376380Y-73265952D01*
X137804952Y-73837380D01*
X138424000Y-73837380D01*
G04 #@! TO.C,LED0_1*
X126947809Y-73837380D02*
X126471619Y-73837380D01*
X126471619Y-72837380D01*
X127281142Y-73313571D02*
X127614476Y-73313571D01*
X127757333Y-73837380D02*
X127281142Y-73837380D01*
X127281142Y-72837380D01*
X127757333Y-72837380D01*
X128185904Y-73837380D02*
X128185904Y-72837380D01*
X128424000Y-72837380D01*
X128566857Y-72885000D01*
X128662095Y-72980238D01*
X128709714Y-73075476D01*
X128757333Y-73265952D01*
X128757333Y-73408809D01*
X128709714Y-73599285D01*
X128662095Y-73694523D01*
X128566857Y-73789761D01*
X128424000Y-73837380D01*
X128185904Y-73837380D01*
X129376380Y-72837380D02*
X129471619Y-72837380D01*
X129566857Y-72885000D01*
X129614476Y-72932619D01*
X129662095Y-73027857D01*
X129709714Y-73218333D01*
X129709714Y-73456428D01*
X129662095Y-73646904D01*
X129614476Y-73742142D01*
X129566857Y-73789761D01*
X129471619Y-73837380D01*
X129376380Y-73837380D01*
X129281142Y-73789761D01*
X129233523Y-73742142D01*
X129185904Y-73646904D01*
X129138285Y-73456428D01*
X129138285Y-73218333D01*
X129185904Y-73027857D01*
X129233523Y-72932619D01*
X129281142Y-72885000D01*
X129376380Y-72837380D01*
X129900190Y-73932619D02*
X130662095Y-73932619D01*
X131424000Y-73837380D02*
X130852571Y-73837380D01*
X131138285Y-73837380D02*
X131138285Y-72837380D01*
X131043047Y-72980238D01*
X130947809Y-73075476D01*
X130852571Y-73123095D01*
G04 #@! TO.C,LED0_0*
X119947809Y-73837380D02*
X119471619Y-73837380D01*
X119471619Y-72837380D01*
X120281142Y-73313571D02*
X120614476Y-73313571D01*
X120757333Y-73837380D02*
X120281142Y-73837380D01*
X120281142Y-72837380D01*
X120757333Y-72837380D01*
X121185904Y-73837380D02*
X121185904Y-72837380D01*
X121424000Y-72837380D01*
X121566857Y-72885000D01*
X121662095Y-72980238D01*
X121709714Y-73075476D01*
X121757333Y-73265952D01*
X121757333Y-73408809D01*
X121709714Y-73599285D01*
X121662095Y-73694523D01*
X121566857Y-73789761D01*
X121424000Y-73837380D01*
X121185904Y-73837380D01*
X122376380Y-72837380D02*
X122471619Y-72837380D01*
X122566857Y-72885000D01*
X122614476Y-72932619D01*
X122662095Y-73027857D01*
X122709714Y-73218333D01*
X122709714Y-73456428D01*
X122662095Y-73646904D01*
X122614476Y-73742142D01*
X122566857Y-73789761D01*
X122471619Y-73837380D01*
X122376380Y-73837380D01*
X122281142Y-73789761D01*
X122233523Y-73742142D01*
X122185904Y-73646904D01*
X122138285Y-73456428D01*
X122138285Y-73218333D01*
X122185904Y-73027857D01*
X122233523Y-72932619D01*
X122281142Y-72885000D01*
X122376380Y-72837380D01*
X122900190Y-73932619D02*
X123662095Y-73932619D01*
X124090666Y-72837380D02*
X124185904Y-72837380D01*
X124281142Y-72885000D01*
X124328761Y-72932619D01*
X124376380Y-73027857D01*
X124424000Y-73218333D01*
X124424000Y-73456428D01*
X124376380Y-73646904D01*
X124328761Y-73742142D01*
X124281142Y-73789761D01*
X124185904Y-73837380D01*
X124090666Y-73837380D01*
X123995428Y-73789761D01*
X123947809Y-73742142D01*
X123900190Y-73646904D01*
X123852571Y-73456428D01*
X123852571Y-73218333D01*
X123900190Y-73027857D01*
X123947809Y-72932619D01*
X123995428Y-72885000D01*
X124090666Y-72837380D01*
G04 #@! TO.C,GND1*
X204273304Y-127218000D02*
X204178066Y-127170380D01*
X204035209Y-127170380D01*
X203892352Y-127218000D01*
X203797114Y-127313238D01*
X203749495Y-127408476D01*
X203701876Y-127598952D01*
X203701876Y-127741809D01*
X203749495Y-127932285D01*
X203797114Y-128027523D01*
X203892352Y-128122761D01*
X204035209Y-128170380D01*
X204130447Y-128170380D01*
X204273304Y-128122761D01*
X204320923Y-128075142D01*
X204320923Y-127741809D01*
X204130447Y-127741809D01*
X204749495Y-128170380D02*
X204749495Y-127170380D01*
X205320923Y-128170380D01*
X205320923Y-127170380D01*
X205797114Y-128170380D02*
X205797114Y-127170380D01*
X206035209Y-127170380D01*
X206178066Y-127218000D01*
X206273304Y-127313238D01*
X206320923Y-127408476D01*
X206368542Y-127598952D01*
X206368542Y-127741809D01*
X206320923Y-127932285D01*
X206273304Y-128027523D01*
X206178066Y-128122761D01*
X206035209Y-128170380D01*
X205797114Y-128170380D01*
X207320923Y-128170380D02*
X206749495Y-128170380D01*
X207035209Y-128170380D02*
X207035209Y-127170380D01*
X206939971Y-127313238D01*
X206844733Y-127408476D01*
X206749495Y-127456095D01*
G04 #@! TO.C,FET13*
X161564842Y-71772471D02*
X161231509Y-71772471D01*
X161231509Y-72296280D02*
X161231509Y-71296280D01*
X161707700Y-71296280D01*
X162088652Y-71772471D02*
X162421985Y-71772471D01*
X162564842Y-72296280D02*
X162088652Y-72296280D01*
X162088652Y-71296280D01*
X162564842Y-71296280D01*
X162850557Y-71296280D02*
X163421985Y-71296280D01*
X163136271Y-72296280D02*
X163136271Y-71296280D01*
X164279128Y-72296280D02*
X163707700Y-72296280D01*
X163993414Y-72296280D02*
X163993414Y-71296280D01*
X163898176Y-71439138D01*
X163802938Y-71534376D01*
X163707700Y-71581995D01*
X164612461Y-71296280D02*
X165231509Y-71296280D01*
X164898176Y-71677233D01*
X165041033Y-71677233D01*
X165136271Y-71724852D01*
X165183890Y-71772471D01*
X165231509Y-71867709D01*
X165231509Y-72105804D01*
X165183890Y-72201042D01*
X165136271Y-72248661D01*
X165041033Y-72296280D01*
X164755319Y-72296280D01*
X164660080Y-72248661D01*
X164612461Y-72201042D01*
G04 #@! TO.C,FET12*
X154719542Y-71620071D02*
X154386209Y-71620071D01*
X154386209Y-72143880D02*
X154386209Y-71143880D01*
X154862400Y-71143880D01*
X155243352Y-71620071D02*
X155576685Y-71620071D01*
X155719542Y-72143880D02*
X155243352Y-72143880D01*
X155243352Y-71143880D01*
X155719542Y-71143880D01*
X156005257Y-71143880D02*
X156576685Y-71143880D01*
X156290971Y-72143880D02*
X156290971Y-71143880D01*
X157433828Y-72143880D02*
X156862400Y-72143880D01*
X157148114Y-72143880D02*
X157148114Y-71143880D01*
X157052876Y-71286738D01*
X156957638Y-71381976D01*
X156862400Y-71429595D01*
X157814780Y-71239119D02*
X157862400Y-71191500D01*
X157957638Y-71143880D01*
X158195733Y-71143880D01*
X158290971Y-71191500D01*
X158338590Y-71239119D01*
X158386209Y-71334357D01*
X158386209Y-71429595D01*
X158338590Y-71572452D01*
X157767161Y-72143880D01*
X158386209Y-72143880D01*
G04 #@! TO.C,FET11*
X148242542Y-71594671D02*
X147909209Y-71594671D01*
X147909209Y-72118480D02*
X147909209Y-71118480D01*
X148385400Y-71118480D01*
X148766352Y-71594671D02*
X149099685Y-71594671D01*
X149242542Y-72118480D02*
X148766352Y-72118480D01*
X148766352Y-71118480D01*
X149242542Y-71118480D01*
X149528257Y-71118480D02*
X150099685Y-71118480D01*
X149813971Y-72118480D02*
X149813971Y-71118480D01*
X150956828Y-72118480D02*
X150385400Y-72118480D01*
X150671114Y-72118480D02*
X150671114Y-71118480D01*
X150575876Y-71261338D01*
X150480638Y-71356576D01*
X150385400Y-71404195D01*
X151909209Y-72118480D02*
X151337780Y-72118480D01*
X151623495Y-72118480D02*
X151623495Y-71118480D01*
X151528257Y-71261338D01*
X151433019Y-71356576D01*
X151337780Y-71404195D01*
G04 #@! TO.C,FET10*
X141397242Y-71454971D02*
X141063909Y-71454971D01*
X141063909Y-71978780D02*
X141063909Y-70978780D01*
X141540100Y-70978780D01*
X141921052Y-71454971D02*
X142254385Y-71454971D01*
X142397242Y-71978780D02*
X141921052Y-71978780D01*
X141921052Y-70978780D01*
X142397242Y-70978780D01*
X142682957Y-70978780D02*
X143254385Y-70978780D01*
X142968671Y-71978780D02*
X142968671Y-70978780D01*
X144111528Y-71978780D02*
X143540100Y-71978780D01*
X143825814Y-71978780D02*
X143825814Y-70978780D01*
X143730576Y-71121638D01*
X143635338Y-71216876D01*
X143540100Y-71264495D01*
X144730576Y-70978780D02*
X144825814Y-70978780D01*
X144921052Y-71026400D01*
X144968671Y-71074019D01*
X145016290Y-71169257D01*
X145063909Y-71359733D01*
X145063909Y-71597828D01*
X145016290Y-71788304D01*
X144968671Y-71883542D01*
X144921052Y-71931161D01*
X144825814Y-71978780D01*
X144730576Y-71978780D01*
X144635338Y-71931161D01*
X144587719Y-71883542D01*
X144540100Y-71788304D01*
X144492480Y-71597828D01*
X144492480Y-71359733D01*
X144540100Y-71169257D01*
X144587719Y-71074019D01*
X144635338Y-71026400D01*
X144730576Y-70978780D01*
G04 #@! TO.C,FET9*
X135371033Y-71454971D02*
X135037700Y-71454971D01*
X135037700Y-71978780D02*
X135037700Y-70978780D01*
X135513890Y-70978780D01*
X135894842Y-71454971D02*
X136228176Y-71454971D01*
X136371033Y-71978780D02*
X135894842Y-71978780D01*
X135894842Y-70978780D01*
X136371033Y-70978780D01*
X136656747Y-70978780D02*
X137228176Y-70978780D01*
X136942461Y-71978780D02*
X136942461Y-70978780D01*
X137609128Y-71978780D02*
X137799604Y-71978780D01*
X137894842Y-71931161D01*
X137942461Y-71883542D01*
X138037700Y-71740685D01*
X138085319Y-71550209D01*
X138085319Y-71169257D01*
X138037700Y-71074019D01*
X137990080Y-71026400D01*
X137894842Y-70978780D01*
X137704366Y-70978780D01*
X137609128Y-71026400D01*
X137561509Y-71074019D01*
X137513890Y-71169257D01*
X137513890Y-71407352D01*
X137561509Y-71502590D01*
X137609128Y-71550209D01*
X137704366Y-71597828D01*
X137894842Y-71597828D01*
X137990080Y-71550209D01*
X138037700Y-71502590D01*
X138085319Y-71407352D01*
G04 #@! TO.C,FET8*
X128246333Y-71543871D02*
X127913000Y-71543871D01*
X127913000Y-72067680D02*
X127913000Y-71067680D01*
X128389190Y-71067680D01*
X128770142Y-71543871D02*
X129103476Y-71543871D01*
X129246333Y-72067680D02*
X128770142Y-72067680D01*
X128770142Y-71067680D01*
X129246333Y-71067680D01*
X129532047Y-71067680D02*
X130103476Y-71067680D01*
X129817761Y-72067680D02*
X129817761Y-71067680D01*
X130579666Y-71496252D02*
X130484428Y-71448633D01*
X130436809Y-71401014D01*
X130389190Y-71305776D01*
X130389190Y-71258157D01*
X130436809Y-71162919D01*
X130484428Y-71115300D01*
X130579666Y-71067680D01*
X130770142Y-71067680D01*
X130865380Y-71115300D01*
X130913000Y-71162919D01*
X130960619Y-71258157D01*
X130960619Y-71305776D01*
X130913000Y-71401014D01*
X130865380Y-71448633D01*
X130770142Y-71496252D01*
X130579666Y-71496252D01*
X130484428Y-71543871D01*
X130436809Y-71591490D01*
X130389190Y-71686728D01*
X130389190Y-71877204D01*
X130436809Y-71972442D01*
X130484428Y-72020061D01*
X130579666Y-72067680D01*
X130770142Y-72067680D01*
X130865380Y-72020061D01*
X130913000Y-71972442D01*
X130960619Y-71877204D01*
X130960619Y-71686728D01*
X130913000Y-71591490D01*
X130865380Y-71543871D01*
X130770142Y-71496252D01*
G04 #@! TO.C,FET7*
X121362933Y-71772471D02*
X121029600Y-71772471D01*
X121029600Y-72296280D02*
X121029600Y-71296280D01*
X121505790Y-71296280D01*
X121886742Y-71772471D02*
X122220076Y-71772471D01*
X122362933Y-72296280D02*
X121886742Y-72296280D01*
X121886742Y-71296280D01*
X122362933Y-71296280D01*
X122648647Y-71296280D02*
X123220076Y-71296280D01*
X122934361Y-72296280D02*
X122934361Y-71296280D01*
X123458171Y-71296280D02*
X124124838Y-71296280D01*
X123696266Y-72296280D01*
G04 #@! TO.C,FET6*
X173521833Y-121975571D02*
X173188500Y-121975571D01*
X173188500Y-122499380D02*
X173188500Y-121499380D01*
X173664690Y-121499380D01*
X174045642Y-121975571D02*
X174378976Y-121975571D01*
X174521833Y-122499380D02*
X174045642Y-122499380D01*
X174045642Y-121499380D01*
X174521833Y-121499380D01*
X174807547Y-121499380D02*
X175378976Y-121499380D01*
X175093261Y-122499380D02*
X175093261Y-121499380D01*
X176140880Y-121499380D02*
X175950404Y-121499380D01*
X175855166Y-121547000D01*
X175807547Y-121594619D01*
X175712309Y-121737476D01*
X175664690Y-121927952D01*
X175664690Y-122308904D01*
X175712309Y-122404142D01*
X175759928Y-122451761D01*
X175855166Y-122499380D01*
X176045642Y-122499380D01*
X176140880Y-122451761D01*
X176188500Y-122404142D01*
X176236119Y-122308904D01*
X176236119Y-122070809D01*
X176188500Y-121975571D01*
X176140880Y-121927952D01*
X176045642Y-121880333D01*
X175855166Y-121880333D01*
X175759928Y-121927952D01*
X175712309Y-121975571D01*
X175664690Y-122070809D01*
G04 #@! TO.C,FET5*
X173115433Y-114419071D02*
X172782100Y-114419071D01*
X172782100Y-114942880D02*
X172782100Y-113942880D01*
X173258290Y-113942880D01*
X173639242Y-114419071D02*
X173972576Y-114419071D01*
X174115433Y-114942880D02*
X173639242Y-114942880D01*
X173639242Y-113942880D01*
X174115433Y-113942880D01*
X174401147Y-113942880D02*
X174972576Y-113942880D01*
X174686861Y-114942880D02*
X174686861Y-113942880D01*
X175782100Y-113942880D02*
X175305909Y-113942880D01*
X175258290Y-114419071D01*
X175305909Y-114371452D01*
X175401147Y-114323833D01*
X175639242Y-114323833D01*
X175734480Y-114371452D01*
X175782100Y-114419071D01*
X175829719Y-114514309D01*
X175829719Y-114752404D01*
X175782100Y-114847642D01*
X175734480Y-114895261D01*
X175639242Y-114942880D01*
X175401147Y-114942880D01*
X175305909Y-114895261D01*
X175258290Y-114847642D01*
G04 #@! TO.C,FET4*
X173140833Y-107103871D02*
X172807500Y-107103871D01*
X172807500Y-107627680D02*
X172807500Y-106627680D01*
X173283690Y-106627680D01*
X173664642Y-107103871D02*
X173997976Y-107103871D01*
X174140833Y-107627680D02*
X173664642Y-107627680D01*
X173664642Y-106627680D01*
X174140833Y-106627680D01*
X174426547Y-106627680D02*
X174997976Y-106627680D01*
X174712261Y-107627680D02*
X174712261Y-106627680D01*
X175759880Y-106961014D02*
X175759880Y-107627680D01*
X175521785Y-106580061D02*
X175283690Y-107294347D01*
X175902738Y-107294347D01*
G04 #@! TO.C,FET3*
X173333333Y-99928571D02*
X173000000Y-99928571D01*
X173000000Y-100452380D02*
X173000000Y-99452380D01*
X173476190Y-99452380D01*
X173857142Y-99928571D02*
X174190476Y-99928571D01*
X174333333Y-100452380D02*
X173857142Y-100452380D01*
X173857142Y-99452380D01*
X174333333Y-99452380D01*
X174619047Y-99452380D02*
X175190476Y-99452380D01*
X174904761Y-100452380D02*
X174904761Y-99452380D01*
X175428571Y-99452380D02*
X176047619Y-99452380D01*
X175714285Y-99833333D01*
X175857142Y-99833333D01*
X175952380Y-99880952D01*
X176000000Y-99928571D01*
X176047619Y-100023809D01*
X176047619Y-100261904D01*
X176000000Y-100357142D01*
X175952380Y-100404761D01*
X175857142Y-100452380D01*
X175571428Y-100452380D01*
X175476190Y-100404761D01*
X175428571Y-100357142D01*
G04 #@! TO.C,FET2*
X173583333Y-92422671D02*
X173250000Y-92422671D01*
X173250000Y-92946480D02*
X173250000Y-91946480D01*
X173726190Y-91946480D01*
X174107142Y-92422671D02*
X174440476Y-92422671D01*
X174583333Y-92946480D02*
X174107142Y-92946480D01*
X174107142Y-91946480D01*
X174583333Y-91946480D01*
X174869047Y-91946480D02*
X175440476Y-91946480D01*
X175154761Y-92946480D02*
X175154761Y-91946480D01*
X175726190Y-92041719D02*
X175773809Y-91994100D01*
X175869047Y-91946480D01*
X176107142Y-91946480D01*
X176202380Y-91994100D01*
X176250000Y-92041719D01*
X176297619Y-92136957D01*
X176297619Y-92232195D01*
X176250000Y-92375052D01*
X175678571Y-92946480D01*
X176297619Y-92946480D01*
G04 #@! TO.C,FET1*
X173833333Y-85183671D02*
X173500000Y-85183671D01*
X173500000Y-85707480D02*
X173500000Y-84707480D01*
X173976190Y-84707480D01*
X174357142Y-85183671D02*
X174690476Y-85183671D01*
X174833333Y-85707480D02*
X174357142Y-85707480D01*
X174357142Y-84707480D01*
X174833333Y-84707480D01*
X175119047Y-84707480D02*
X175690476Y-84707480D01*
X175404761Y-85707480D02*
X175404761Y-84707480D01*
X176547619Y-85707480D02*
X175976190Y-85707480D01*
X176261904Y-85707480D02*
X176261904Y-84707480D01*
X176166666Y-84850338D01*
X176071428Y-84945576D01*
X175976190Y-84993195D01*
G04 #@! TO.C,FET0*
X173583333Y-77928571D02*
X173250000Y-77928571D01*
X173250000Y-78452380D02*
X173250000Y-77452380D01*
X173726190Y-77452380D01*
X174107142Y-77928571D02*
X174440476Y-77928571D01*
X174583333Y-78452380D02*
X174107142Y-78452380D01*
X174107142Y-77452380D01*
X174583333Y-77452380D01*
X174869047Y-77452380D02*
X175440476Y-77452380D01*
X175154761Y-78452380D02*
X175154761Y-77452380D01*
X175964285Y-77452380D02*
X176059523Y-77452380D01*
X176154761Y-77500000D01*
X176202380Y-77547619D01*
X176250000Y-77642857D01*
X176297619Y-77833333D01*
X176297619Y-78071428D01*
X176250000Y-78261904D01*
X176202380Y-78357142D01*
X176154761Y-78404761D01*
X176059523Y-78452380D01*
X175964285Y-78452380D01*
X175869047Y-78404761D01*
X175821428Y-78357142D01*
X175773809Y-78261904D01*
X175726190Y-78071428D01*
X175726190Y-77833333D01*
X175773809Y-77642857D01*
X175821428Y-77547619D01*
X175869047Y-77500000D01*
X175964285Y-77452380D01*
G04 #@! TO.C,COMMS1*
X192863742Y-132179723D02*
X192911361Y-132227342D01*
X192958980Y-132370200D01*
X192958980Y-132465438D01*
X192911361Y-132608295D01*
X192816123Y-132703533D01*
X192720885Y-132751152D01*
X192530409Y-132798771D01*
X192387552Y-132798771D01*
X192197076Y-132751152D01*
X192101838Y-132703533D01*
X192006600Y-132608295D01*
X191958980Y-132465438D01*
X191958980Y-132370200D01*
X192006600Y-132227342D01*
X192054219Y-132179723D01*
X191958980Y-131560676D02*
X191958980Y-131370200D01*
X192006600Y-131274961D01*
X192101838Y-131179723D01*
X192292314Y-131132104D01*
X192625647Y-131132104D01*
X192816123Y-131179723D01*
X192911361Y-131274961D01*
X192958980Y-131370200D01*
X192958980Y-131560676D01*
X192911361Y-131655914D01*
X192816123Y-131751152D01*
X192625647Y-131798771D01*
X192292314Y-131798771D01*
X192101838Y-131751152D01*
X192006600Y-131655914D01*
X191958980Y-131560676D01*
X192958980Y-130703533D02*
X191958980Y-130703533D01*
X192673266Y-130370200D01*
X191958980Y-130036866D01*
X192958980Y-130036866D01*
X192958980Y-129560676D02*
X191958980Y-129560676D01*
X192673266Y-129227342D01*
X191958980Y-128894009D01*
X192958980Y-128894009D01*
X192911361Y-128465438D02*
X192958980Y-128322580D01*
X192958980Y-128084485D01*
X192911361Y-127989247D01*
X192863742Y-127941628D01*
X192768504Y-127894009D01*
X192673266Y-127894009D01*
X192578028Y-127941628D01*
X192530409Y-127989247D01*
X192482790Y-128084485D01*
X192435171Y-128274961D01*
X192387552Y-128370200D01*
X192339933Y-128417819D01*
X192244695Y-128465438D01*
X192149457Y-128465438D01*
X192054219Y-128417819D01*
X192006600Y-128370200D01*
X191958980Y-128274961D01*
X191958980Y-128036866D01*
X192006600Y-127894009D01*
X192958980Y-126941628D02*
X192958980Y-127513057D01*
X192958980Y-127227342D02*
X191958980Y-127227342D01*
X192101838Y-127322580D01*
X192197076Y-127417819D01*
X192244695Y-127513057D01*
G04 #@! TO.C,COMMS0*
X203353942Y-132243223D02*
X203401561Y-132290842D01*
X203449180Y-132433700D01*
X203449180Y-132528938D01*
X203401561Y-132671795D01*
X203306323Y-132767033D01*
X203211085Y-132814652D01*
X203020609Y-132862271D01*
X202877752Y-132862271D01*
X202687276Y-132814652D01*
X202592038Y-132767033D01*
X202496800Y-132671795D01*
X202449180Y-132528938D01*
X202449180Y-132433700D01*
X202496800Y-132290842D01*
X202544419Y-132243223D01*
X202449180Y-131624176D02*
X202449180Y-131433700D01*
X202496800Y-131338461D01*
X202592038Y-131243223D01*
X202782514Y-131195604D01*
X203115847Y-131195604D01*
X203306323Y-131243223D01*
X203401561Y-131338461D01*
X203449180Y-131433700D01*
X203449180Y-131624176D01*
X203401561Y-131719414D01*
X203306323Y-131814652D01*
X203115847Y-131862271D01*
X202782514Y-131862271D01*
X202592038Y-131814652D01*
X202496800Y-131719414D01*
X202449180Y-131624176D01*
X203449180Y-130767033D02*
X202449180Y-130767033D01*
X203163466Y-130433700D01*
X202449180Y-130100366D01*
X203449180Y-130100366D01*
X203449180Y-129624176D02*
X202449180Y-129624176D01*
X203163466Y-129290842D01*
X202449180Y-128957509D01*
X203449180Y-128957509D01*
X203401561Y-128528938D02*
X203449180Y-128386080D01*
X203449180Y-128147985D01*
X203401561Y-128052747D01*
X203353942Y-128005128D01*
X203258704Y-127957509D01*
X203163466Y-127957509D01*
X203068228Y-128005128D01*
X203020609Y-128052747D01*
X202972990Y-128147985D01*
X202925371Y-128338461D01*
X202877752Y-128433700D01*
X202830133Y-128481319D01*
X202734895Y-128528938D01*
X202639657Y-128528938D01*
X202544419Y-128481319D01*
X202496800Y-128433700D01*
X202449180Y-128338461D01*
X202449180Y-128100366D01*
X202496800Y-127957509D01*
X202449180Y-127338461D02*
X202449180Y-127243223D01*
X202496800Y-127147985D01*
X202544419Y-127100366D01*
X202639657Y-127052747D01*
X202830133Y-127005128D01*
X203068228Y-127005128D01*
X203258704Y-127052747D01*
X203353942Y-127100366D01*
X203401561Y-127147985D01*
X203449180Y-127243223D01*
X203449180Y-127338461D01*
X203401561Y-127433700D01*
X203353942Y-127481319D01*
X203258704Y-127528938D01*
X203068228Y-127576557D01*
X202830133Y-127576557D01*
X202639657Y-127528938D01*
X202544419Y-127481319D01*
X202496800Y-127433700D01*
X202449180Y-127338461D01*
G04 #@! TO.C,+5VIN1*
X208080290Y-72537628D02*
X208842195Y-72537628D01*
X208461242Y-72918580D02*
X208461242Y-72156676D01*
X209794576Y-71918580D02*
X209318385Y-71918580D01*
X209270766Y-72394771D01*
X209318385Y-72347152D01*
X209413623Y-72299533D01*
X209651719Y-72299533D01*
X209746957Y-72347152D01*
X209794576Y-72394771D01*
X209842195Y-72490009D01*
X209842195Y-72728104D01*
X209794576Y-72823342D01*
X209746957Y-72870961D01*
X209651719Y-72918580D01*
X209413623Y-72918580D01*
X209318385Y-72870961D01*
X209270766Y-72823342D01*
X210127909Y-71918580D02*
X210461242Y-72918580D01*
X210794576Y-71918580D01*
X211127909Y-72918580D02*
X211127909Y-71918580D01*
X211604100Y-72918580D02*
X211604100Y-71918580D01*
X212175528Y-72918580D01*
X212175528Y-71918580D01*
X213175528Y-72918580D02*
X212604100Y-72918580D01*
X212889814Y-72918580D02*
X212889814Y-71918580D01*
X212794576Y-72061438D01*
X212699338Y-72156676D01*
X212604100Y-72204295D01*
G04 #@! TO.C,C0.1nF0*
X202892304Y-121210342D02*
X202844685Y-121257961D01*
X202701828Y-121305580D01*
X202606590Y-121305580D01*
X202463733Y-121257961D01*
X202368495Y-121162723D01*
X202320876Y-121067485D01*
X202273257Y-120877009D01*
X202273257Y-120734152D01*
X202320876Y-120543676D01*
X202368495Y-120448438D01*
X202463733Y-120353200D01*
X202606590Y-120305580D01*
X202701828Y-120305580D01*
X202844685Y-120353200D01*
X202892304Y-120400819D01*
X203511352Y-120305580D02*
X203606590Y-120305580D01*
X203701828Y-120353200D01*
X203749447Y-120400819D01*
X203797066Y-120496057D01*
X203844685Y-120686533D01*
X203844685Y-120924628D01*
X203797066Y-121115104D01*
X203749447Y-121210342D01*
X203701828Y-121257961D01*
X203606590Y-121305580D01*
X203511352Y-121305580D01*
X203416114Y-121257961D01*
X203368495Y-121210342D01*
X203320876Y-121115104D01*
X203273257Y-120924628D01*
X203273257Y-120686533D01*
X203320876Y-120496057D01*
X203368495Y-120400819D01*
X203416114Y-120353200D01*
X203511352Y-120305580D01*
X204273257Y-121210342D02*
X204320876Y-121257961D01*
X204273257Y-121305580D01*
X204225638Y-121257961D01*
X204273257Y-121210342D01*
X204273257Y-121305580D01*
X205273257Y-121305580D02*
X204701828Y-121305580D01*
X204987542Y-121305580D02*
X204987542Y-120305580D01*
X204892304Y-120448438D01*
X204797066Y-120543676D01*
X204701828Y-120591295D01*
X205701828Y-120638914D02*
X205701828Y-121305580D01*
X205701828Y-120734152D02*
X205749447Y-120686533D01*
X205844685Y-120638914D01*
X205987542Y-120638914D01*
X206082780Y-120686533D01*
X206130400Y-120781771D01*
X206130400Y-121305580D01*
X206939923Y-120781771D02*
X206606590Y-120781771D01*
X206606590Y-121305580D02*
X206606590Y-120305580D01*
X207082780Y-120305580D01*
X207654209Y-120305580D02*
X207749447Y-120305580D01*
X207844685Y-120353200D01*
X207892304Y-120400819D01*
X207939923Y-120496057D01*
X207987542Y-120686533D01*
X207987542Y-120924628D01*
X207939923Y-121115104D01*
X207892304Y-121210342D01*
X207844685Y-121257961D01*
X207749447Y-121305580D01*
X207654209Y-121305580D01*
X207558971Y-121257961D01*
X207511352Y-121210342D01*
X207463733Y-121115104D01*
X207416114Y-120924628D01*
X207416114Y-120686533D01*
X207463733Y-120496057D01*
X207511352Y-120400819D01*
X207558971Y-120353200D01*
X207654209Y-120305580D01*
G04 #@! TO.C,Prt_IC1*
X190295519Y-124544080D02*
X190295519Y-123544080D01*
X190676471Y-123544080D01*
X190771709Y-123591700D01*
X190819328Y-123639319D01*
X190866947Y-123734557D01*
X190866947Y-123877414D01*
X190819328Y-123972652D01*
X190771709Y-124020271D01*
X190676471Y-124067890D01*
X190295519Y-124067890D01*
X191295519Y-124544080D02*
X191295519Y-123877414D01*
X191295519Y-124067890D02*
X191343138Y-123972652D01*
X191390757Y-123925033D01*
X191485995Y-123877414D01*
X191581233Y-123877414D01*
X191771709Y-123877414D02*
X192152661Y-123877414D01*
X191914566Y-123544080D02*
X191914566Y-124401223D01*
X191962185Y-124496461D01*
X192057423Y-124544080D01*
X192152661Y-124544080D01*
X192247900Y-124639319D02*
X193009804Y-124639319D01*
X193247900Y-124544080D02*
X193247900Y-123544080D01*
X194295519Y-124448842D02*
X194247900Y-124496461D01*
X194105042Y-124544080D01*
X194009804Y-124544080D01*
X193866947Y-124496461D01*
X193771709Y-124401223D01*
X193724090Y-124305985D01*
X193676471Y-124115509D01*
X193676471Y-123972652D01*
X193724090Y-123782176D01*
X193771709Y-123686938D01*
X193866947Y-123591700D01*
X194009804Y-123544080D01*
X194105042Y-123544080D01*
X194247900Y-123591700D01*
X194295519Y-123639319D01*
X195247900Y-124544080D02*
X194676471Y-124544080D01*
X194962185Y-124544080D02*
X194962185Y-123544080D01*
X194866947Y-123686938D01*
X194771709Y-123782176D01*
X194676471Y-123829795D01*
G04 #@! TD*
M02*
