G04 #@! TF.GenerationSoftware,KiCad,Pcbnew,5.1.5-52549c5~84~ubuntu18.04.1*
G04 #@! TF.CreationDate,2020-02-11T15:06:06-05:00*
G04 #@! TF.ProjectId,solenoid_board,736f6c65-6e6f-4696-945f-626f6172642e,rev?*
G04 #@! TF.SameCoordinates,Original*
G04 #@! TF.FileFunction,Legend,Top*
G04 #@! TF.FilePolarity,Positive*
%FSLAX46Y46*%
G04 Gerber Fmt 4.6, Leading zero omitted, Abs format (unit mm)*
G04 Created by KiCad (PCBNEW 5.1.5-52549c5~84~ubuntu18.04.1) date 2020-02-11 15:06:06*
%MOMM*%
%LPD*%
G04 APERTURE LIST*
G04 #@! TA.AperFunction,Profile*
%ADD10C,0.120000*%
G04 #@! TD*
%ADD11C,0.150000*%
%ADD12C,0.120000*%
%ADD13C,0.152400*%
G04 APERTURE END LIST*
D10*
X50000000Y-25000000D02*
X50000000Y-150000000D01*
X230000000Y-25000000D02*
X50000000Y-25000000D01*
X230000000Y-150000000D02*
X230000000Y-25000000D01*
X50000000Y-150000000D02*
X230000000Y-150000000D01*
D11*
X156772552Y-146823180D02*
X156772552Y-147537466D01*
X156724933Y-147680323D01*
X156629695Y-147775561D01*
X156486838Y-147823180D01*
X156391600Y-147823180D01*
X157724933Y-147823180D02*
X157248742Y-147823180D01*
X157248742Y-146823180D01*
X158629695Y-147727942D02*
X158582076Y-147775561D01*
X158439219Y-147823180D01*
X158343980Y-147823180D01*
X158201123Y-147775561D01*
X158105885Y-147680323D01*
X158058266Y-147585085D01*
X158010647Y-147394609D01*
X158010647Y-147251752D01*
X158058266Y-147061276D01*
X158105885Y-146966038D01*
X158201123Y-146870800D01*
X158343980Y-146823180D01*
X158439219Y-146823180D01*
X158582076Y-146870800D01*
X158629695Y-146918419D01*
X159343980Y-146823180D02*
X159343980Y-147537466D01*
X159296361Y-147680323D01*
X159201123Y-147775561D01*
X159058266Y-147823180D01*
X158963028Y-147823180D01*
X160296361Y-147823180D02*
X159820171Y-147823180D01*
X159820171Y-146823180D01*
X161201123Y-147727942D02*
X161153504Y-147775561D01*
X161010647Y-147823180D01*
X160915409Y-147823180D01*
X160772552Y-147775561D01*
X160677314Y-147680323D01*
X160629695Y-147585085D01*
X160582076Y-147394609D01*
X160582076Y-147251752D01*
X160629695Y-147061276D01*
X160677314Y-146966038D01*
X160772552Y-146870800D01*
X160915409Y-146823180D01*
X161010647Y-146823180D01*
X161153504Y-146870800D01*
X161201123Y-146918419D01*
X161915409Y-146823180D02*
X161915409Y-147537466D01*
X161867790Y-147680323D01*
X161772552Y-147775561D01*
X161629695Y-147823180D01*
X161534457Y-147823180D01*
X162867790Y-147823180D02*
X162391600Y-147823180D01*
X162391600Y-146823180D01*
X163772552Y-147727942D02*
X163724933Y-147775561D01*
X163582076Y-147823180D01*
X163486838Y-147823180D01*
X163343980Y-147775561D01*
X163248742Y-147680323D01*
X163201123Y-147585085D01*
X163153504Y-147394609D01*
X163153504Y-147251752D01*
X163201123Y-147061276D01*
X163248742Y-146966038D01*
X163343980Y-146870800D01*
X163486838Y-146823180D01*
X163582076Y-146823180D01*
X163724933Y-146870800D01*
X163772552Y-146918419D01*
X164486838Y-146823180D02*
X164486838Y-147537466D01*
X164439219Y-147680323D01*
X164343980Y-147775561D01*
X164201123Y-147823180D01*
X164105885Y-147823180D01*
X165439219Y-147823180D02*
X164963028Y-147823180D01*
X164963028Y-146823180D01*
X166343980Y-147727942D02*
X166296361Y-147775561D01*
X166153504Y-147823180D01*
X166058266Y-147823180D01*
X165915409Y-147775561D01*
X165820171Y-147680323D01*
X165772552Y-147585085D01*
X165724933Y-147394609D01*
X165724933Y-147251752D01*
X165772552Y-147061276D01*
X165820171Y-146966038D01*
X165915409Y-146870800D01*
X166058266Y-146823180D01*
X166153504Y-146823180D01*
X166296361Y-146870800D01*
X166343980Y-146918419D01*
X143955190Y-146645380D02*
X143955190Y-147359666D01*
X143907571Y-147502523D01*
X143812333Y-147597761D01*
X143669476Y-147645380D01*
X143574238Y-147645380D01*
X144907571Y-147645380D02*
X144431380Y-147645380D01*
X144431380Y-146645380D01*
X145812333Y-147550142D02*
X145764714Y-147597761D01*
X145621857Y-147645380D01*
X145526619Y-147645380D01*
X145383761Y-147597761D01*
X145288523Y-147502523D01*
X145240904Y-147407285D01*
X145193285Y-147216809D01*
X145193285Y-147073952D01*
X145240904Y-146883476D01*
X145288523Y-146788238D01*
X145383761Y-146693000D01*
X145526619Y-146645380D01*
X145621857Y-146645380D01*
X145764714Y-146693000D01*
X145812333Y-146740619D01*
X146240904Y-147645380D02*
X146240904Y-146645380D01*
X146621857Y-146645380D01*
X146717095Y-146693000D01*
X146764714Y-146740619D01*
X146812333Y-146835857D01*
X146812333Y-146978714D01*
X146764714Y-147073952D01*
X146717095Y-147121571D01*
X146621857Y-147169190D01*
X146240904Y-147169190D01*
X147812333Y-147550142D02*
X147764714Y-147597761D01*
X147621857Y-147645380D01*
X147526619Y-147645380D01*
X147383761Y-147597761D01*
X147288523Y-147502523D01*
X147240904Y-147407285D01*
X147193285Y-147216809D01*
X147193285Y-147073952D01*
X147240904Y-146883476D01*
X147288523Y-146788238D01*
X147383761Y-146693000D01*
X147526619Y-146645380D01*
X147621857Y-146645380D01*
X147764714Y-146693000D01*
X147812333Y-146740619D01*
X148574238Y-147121571D02*
X148717095Y-147169190D01*
X148764714Y-147216809D01*
X148812333Y-147312047D01*
X148812333Y-147454904D01*
X148764714Y-147550142D01*
X148717095Y-147597761D01*
X148621857Y-147645380D01*
X148240904Y-147645380D01*
X148240904Y-146645380D01*
X148574238Y-146645380D01*
X148669476Y-146693000D01*
X148717095Y-146740619D01*
X148764714Y-146835857D01*
X148764714Y-146931095D01*
X148717095Y-147026333D01*
X148669476Y-147073952D01*
X148574238Y-147121571D01*
X148240904Y-147121571D01*
X150002809Y-147645380D02*
X150002809Y-146645380D01*
X150336142Y-147359666D01*
X150669476Y-146645380D01*
X150669476Y-147645380D01*
X151145666Y-146978714D02*
X151145666Y-147645380D01*
X151145666Y-147073952D02*
X151193285Y-147026333D01*
X151288523Y-146978714D01*
X151431380Y-146978714D01*
X151526619Y-147026333D01*
X151574238Y-147121571D01*
X151574238Y-147645380D01*
X151907571Y-146978714D02*
X152288523Y-146978714D01*
X152050428Y-147645380D02*
X152050428Y-146788238D01*
X152098047Y-146693000D01*
X152193285Y-146645380D01*
X152288523Y-146645380D01*
X153050428Y-146978714D02*
X153050428Y-147788238D01*
X153002809Y-147883476D01*
X152955190Y-147931095D01*
X152859952Y-147978714D01*
X152717095Y-147978714D01*
X152621857Y-147931095D01*
X153050428Y-147597761D02*
X152955190Y-147645380D01*
X152764714Y-147645380D01*
X152669476Y-147597761D01*
X152621857Y-147550142D01*
X152574238Y-147454904D01*
X152574238Y-147169190D01*
X152621857Y-147073952D01*
X152669476Y-147026333D01*
X152764714Y-146978714D01*
X152955190Y-146978714D01*
X153050428Y-147026333D01*
X154240904Y-146978714D02*
X154955190Y-146978714D01*
X154526619Y-146550142D02*
X154240904Y-147835857D01*
X154859952Y-147407285D02*
X154145666Y-147407285D01*
X154574238Y-147835857D02*
X154859952Y-146550142D01*
X155288523Y-147550142D02*
X155336142Y-147597761D01*
X155288523Y-147645380D01*
X155240904Y-147597761D01*
X155288523Y-147550142D01*
X155288523Y-147645380D01*
X155288523Y-147026333D02*
X155336142Y-147073952D01*
X155288523Y-147121571D01*
X155240904Y-147073952D01*
X155288523Y-147026333D01*
X155288523Y-147121571D01*
X144313828Y-141108180D02*
X144409066Y-141108180D01*
X144504304Y-141155800D01*
X144551923Y-141203419D01*
X144599542Y-141298657D01*
X144647161Y-141489133D01*
X144647161Y-141727228D01*
X144599542Y-141917704D01*
X144551923Y-142012942D01*
X144504304Y-142060561D01*
X144409066Y-142108180D01*
X144313828Y-142108180D01*
X144218590Y-142060561D01*
X144170971Y-142012942D01*
X144123352Y-141917704D01*
X144075733Y-141727228D01*
X144075733Y-141489133D01*
X144123352Y-141298657D01*
X144170971Y-141203419D01*
X144218590Y-141155800D01*
X144313828Y-141108180D01*
X145028114Y-141203419D02*
X145075733Y-141155800D01*
X145170971Y-141108180D01*
X145409066Y-141108180D01*
X145504304Y-141155800D01*
X145551923Y-141203419D01*
X145599542Y-141298657D01*
X145599542Y-141393895D01*
X145551923Y-141536752D01*
X144980495Y-142108180D01*
X145599542Y-142108180D01*
X146742400Y-141060561D02*
X145885257Y-142346276D01*
X147266209Y-141108180D02*
X147361447Y-141108180D01*
X147456685Y-141155800D01*
X147504304Y-141203419D01*
X147551923Y-141298657D01*
X147599542Y-141489133D01*
X147599542Y-141727228D01*
X147551923Y-141917704D01*
X147504304Y-142012942D01*
X147456685Y-142060561D01*
X147361447Y-142108180D01*
X147266209Y-142108180D01*
X147170971Y-142060561D01*
X147123352Y-142012942D01*
X147075733Y-141917704D01*
X147028114Y-141727228D01*
X147028114Y-141489133D01*
X147075733Y-141298657D01*
X147123352Y-141203419D01*
X147170971Y-141155800D01*
X147266209Y-141108180D01*
X147932876Y-141108180D02*
X148599542Y-141108180D01*
X148170971Y-142108180D01*
X149694780Y-141060561D02*
X148837638Y-142346276D01*
X149980495Y-141203419D02*
X150028114Y-141155800D01*
X150123352Y-141108180D01*
X150361447Y-141108180D01*
X150456685Y-141155800D01*
X150504304Y-141203419D01*
X150551923Y-141298657D01*
X150551923Y-141393895D01*
X150504304Y-141536752D01*
X149932876Y-142108180D01*
X150551923Y-142108180D01*
X151170971Y-141108180D02*
X151266209Y-141108180D01*
X151361447Y-141155800D01*
X151409066Y-141203419D01*
X151456685Y-141298657D01*
X151504304Y-141489133D01*
X151504304Y-141727228D01*
X151456685Y-141917704D01*
X151409066Y-142012942D01*
X151361447Y-142060561D01*
X151266209Y-142108180D01*
X151170971Y-142108180D01*
X151075733Y-142060561D01*
X151028114Y-142012942D01*
X150980495Y-141917704D01*
X150932876Y-141727228D01*
X150932876Y-141489133D01*
X150980495Y-141298657D01*
X151028114Y-141203419D01*
X151075733Y-141155800D01*
X151170971Y-141108180D01*
X151885257Y-141203419D02*
X151932876Y-141155800D01*
X152028114Y-141108180D01*
X152266209Y-141108180D01*
X152361447Y-141155800D01*
X152409066Y-141203419D01*
X152456685Y-141298657D01*
X152456685Y-141393895D01*
X152409066Y-141536752D01*
X151837638Y-142108180D01*
X152456685Y-142108180D01*
X153075733Y-141108180D02*
X153170971Y-141108180D01*
X153266209Y-141155800D01*
X153313828Y-141203419D01*
X153361447Y-141298657D01*
X153409066Y-141489133D01*
X153409066Y-141727228D01*
X153361447Y-141917704D01*
X153313828Y-142012942D01*
X153266209Y-142060561D01*
X153170971Y-142108180D01*
X153075733Y-142108180D01*
X152980495Y-142060561D01*
X152932876Y-142012942D01*
X152885257Y-141917704D01*
X152837638Y-141727228D01*
X152837638Y-141489133D01*
X152885257Y-141298657D01*
X152932876Y-141203419D01*
X152980495Y-141155800D01*
X153075733Y-141108180D01*
X144009647Y-145403866D02*
X144485838Y-145403866D01*
X143914409Y-145689580D02*
X144247742Y-144689580D01*
X144581076Y-145689580D01*
X145342980Y-145022914D02*
X145342980Y-145689580D01*
X144914409Y-145022914D02*
X144914409Y-145546723D01*
X144962028Y-145641961D01*
X145057266Y-145689580D01*
X145200123Y-145689580D01*
X145295361Y-145641961D01*
X145342980Y-145594342D01*
X145676314Y-145022914D02*
X146057266Y-145022914D01*
X145819171Y-144689580D02*
X145819171Y-145546723D01*
X145866790Y-145641961D01*
X145962028Y-145689580D01*
X146057266Y-145689580D01*
X146390600Y-145689580D02*
X146390600Y-144689580D01*
X146819171Y-145689580D02*
X146819171Y-145165771D01*
X146771552Y-145070533D01*
X146676314Y-145022914D01*
X146533457Y-145022914D01*
X146438219Y-145070533D01*
X146390600Y-145118152D01*
X147438219Y-145689580D02*
X147342980Y-145641961D01*
X147295361Y-145594342D01*
X147247742Y-145499104D01*
X147247742Y-145213390D01*
X147295361Y-145118152D01*
X147342980Y-145070533D01*
X147438219Y-145022914D01*
X147581076Y-145022914D01*
X147676314Y-145070533D01*
X147723933Y-145118152D01*
X147771552Y-145213390D01*
X147771552Y-145499104D01*
X147723933Y-145594342D01*
X147676314Y-145641961D01*
X147581076Y-145689580D01*
X147438219Y-145689580D01*
X148200123Y-145689580D02*
X148200123Y-145022914D01*
X148200123Y-145213390D02*
X148247742Y-145118152D01*
X148295361Y-145070533D01*
X148390600Y-145022914D01*
X148485838Y-145022914D01*
X148819171Y-145594342D02*
X148866790Y-145641961D01*
X148819171Y-145689580D01*
X148771552Y-145641961D01*
X148819171Y-145594342D01*
X148819171Y-145689580D01*
X148819171Y-145070533D02*
X148866790Y-145118152D01*
X148819171Y-145165771D01*
X148771552Y-145118152D01*
X148819171Y-145070533D01*
X148819171Y-145165771D01*
X150057266Y-145689580D02*
X150057266Y-144689580D01*
X150438219Y-144689580D01*
X150533457Y-144737200D01*
X150581076Y-144784819D01*
X150628695Y-144880057D01*
X150628695Y-145022914D01*
X150581076Y-145118152D01*
X150533457Y-145165771D01*
X150438219Y-145213390D01*
X150057266Y-145213390D01*
X151485838Y-145689580D02*
X151485838Y-145165771D01*
X151438219Y-145070533D01*
X151342980Y-145022914D01*
X151152504Y-145022914D01*
X151057266Y-145070533D01*
X151485838Y-145641961D02*
X151390600Y-145689580D01*
X151152504Y-145689580D01*
X151057266Y-145641961D01*
X151009647Y-145546723D01*
X151009647Y-145451485D01*
X151057266Y-145356247D01*
X151152504Y-145308628D01*
X151390600Y-145308628D01*
X151485838Y-145261009D01*
X151819171Y-145022914D02*
X152200123Y-145022914D01*
X151962028Y-144689580D02*
X151962028Y-145546723D01*
X152009647Y-145641961D01*
X152104885Y-145689580D01*
X152200123Y-145689580D01*
X152533457Y-145689580D02*
X152533457Y-145022914D01*
X152533457Y-145213390D02*
X152581076Y-145118152D01*
X152628695Y-145070533D01*
X152723933Y-145022914D01*
X152819171Y-145022914D01*
X153152504Y-145689580D02*
X153152504Y-145022914D01*
X153152504Y-144689580D02*
X153104885Y-144737200D01*
X153152504Y-144784819D01*
X153200123Y-144737200D01*
X153152504Y-144689580D01*
X153152504Y-144784819D01*
X154057266Y-145641961D02*
X153962028Y-145689580D01*
X153771552Y-145689580D01*
X153676314Y-145641961D01*
X153628695Y-145594342D01*
X153581076Y-145499104D01*
X153581076Y-145213390D01*
X153628695Y-145118152D01*
X153676314Y-145070533D01*
X153771552Y-145022914D01*
X153962028Y-145022914D01*
X154057266Y-145070533D01*
X154485838Y-145689580D02*
X154485838Y-144689580D01*
X154581076Y-145308628D02*
X154866790Y-145689580D01*
X154866790Y-145022914D02*
X154485838Y-145403866D01*
X155914409Y-144689580D02*
X156485838Y-144689580D01*
X156200123Y-145689580D02*
X156200123Y-144689580D01*
X157247742Y-145689580D02*
X157247742Y-145165771D01*
X157200123Y-145070533D01*
X157104885Y-145022914D01*
X156914409Y-145022914D01*
X156819171Y-145070533D01*
X157247742Y-145641961D02*
X157152504Y-145689580D01*
X156914409Y-145689580D01*
X156819171Y-145641961D01*
X156771552Y-145546723D01*
X156771552Y-145451485D01*
X156819171Y-145356247D01*
X156914409Y-145308628D01*
X157152504Y-145308628D01*
X157247742Y-145261009D01*
X157866790Y-145689580D02*
X157771552Y-145641961D01*
X157723933Y-145546723D01*
X157723933Y-144689580D01*
X158247742Y-145689580D02*
X158247742Y-145022914D01*
X158247742Y-144689580D02*
X158200123Y-144737200D01*
X158247742Y-144784819D01*
X158295361Y-144737200D01*
X158247742Y-144689580D01*
X158247742Y-144784819D01*
X159152504Y-145689580D02*
X159152504Y-145165771D01*
X159104885Y-145070533D01*
X159009647Y-145022914D01*
X158819171Y-145022914D01*
X158723933Y-145070533D01*
X159152504Y-145641961D02*
X159057266Y-145689580D01*
X158819171Y-145689580D01*
X158723933Y-145641961D01*
X158676314Y-145546723D01*
X158676314Y-145451485D01*
X158723933Y-145356247D01*
X158819171Y-145308628D01*
X159057266Y-145308628D01*
X159152504Y-145261009D01*
X159485838Y-145022914D02*
X159866790Y-145022914D01*
X159628695Y-145689580D02*
X159628695Y-144832438D01*
X159676314Y-144737200D01*
X159771552Y-144689580D01*
X159866790Y-144689580D01*
X160581076Y-145641961D02*
X160485838Y-145689580D01*
X160295361Y-145689580D01*
X160200123Y-145641961D01*
X160152504Y-145546723D01*
X160152504Y-145165771D01*
X160200123Y-145070533D01*
X160295361Y-145022914D01*
X160485838Y-145022914D01*
X160581076Y-145070533D01*
X160628695Y-145165771D01*
X160628695Y-145261009D01*
X160152504Y-145356247D01*
X161057266Y-145689580D02*
X161057266Y-145022914D01*
X161057266Y-145213390D02*
X161104885Y-145118152D01*
X161152504Y-145070533D01*
X161247742Y-145022914D01*
X161342980Y-145022914D01*
X161676314Y-145689580D02*
X161676314Y-145022914D01*
X161676314Y-145213390D02*
X161723933Y-145118152D01*
X161771552Y-145070533D01*
X161866790Y-145022914D01*
X161962028Y-145022914D01*
X162438219Y-145689580D02*
X162342980Y-145641961D01*
X162295361Y-145594342D01*
X162247742Y-145499104D01*
X162247742Y-145213390D01*
X162295361Y-145118152D01*
X162342980Y-145070533D01*
X162438219Y-145022914D01*
X162581076Y-145022914D01*
X162676314Y-145070533D01*
X162723933Y-145118152D01*
X162771552Y-145213390D01*
X162771552Y-145499104D01*
X162723933Y-145594342D01*
X162676314Y-145641961D01*
X162581076Y-145689580D01*
X162438219Y-145689580D01*
X144312666Y-143886180D02*
X143836476Y-143886180D01*
X143836476Y-142886180D01*
X144646000Y-143362371D02*
X144979333Y-143362371D01*
X145122190Y-143886180D02*
X144646000Y-143886180D01*
X144646000Y-142886180D01*
X145122190Y-142886180D01*
X145550761Y-143886180D02*
X145550761Y-142886180D01*
X145788857Y-142886180D01*
X145931714Y-142933800D01*
X146026952Y-143029038D01*
X146074571Y-143124276D01*
X146122190Y-143314752D01*
X146122190Y-143457609D01*
X146074571Y-143648085D01*
X146026952Y-143743323D01*
X145931714Y-143838561D01*
X145788857Y-143886180D01*
X145550761Y-143886180D01*
X147312666Y-143886180D02*
X147312666Y-142886180D01*
X147646000Y-143600466D01*
X147979333Y-142886180D01*
X147979333Y-143886180D01*
X148884095Y-143886180D02*
X148884095Y-143362371D01*
X148836476Y-143267133D01*
X148741238Y-143219514D01*
X148550761Y-143219514D01*
X148455523Y-143267133D01*
X148884095Y-143838561D02*
X148788857Y-143886180D01*
X148550761Y-143886180D01*
X148455523Y-143838561D01*
X148407904Y-143743323D01*
X148407904Y-143648085D01*
X148455523Y-143552847D01*
X148550761Y-143505228D01*
X148788857Y-143505228D01*
X148884095Y-143457609D01*
X149217428Y-143219514D02*
X149598380Y-143219514D01*
X149360285Y-142886180D02*
X149360285Y-143743323D01*
X149407904Y-143838561D01*
X149503142Y-143886180D01*
X149598380Y-143886180D01*
X149931714Y-143886180D02*
X149931714Y-143219514D01*
X149931714Y-143409990D02*
X149979333Y-143314752D01*
X150026952Y-143267133D01*
X150122190Y-143219514D01*
X150217428Y-143219514D01*
X150550761Y-143886180D02*
X150550761Y-143219514D01*
X150550761Y-142886180D02*
X150503142Y-142933800D01*
X150550761Y-142981419D01*
X150598380Y-142933800D01*
X150550761Y-142886180D01*
X150550761Y-142981419D01*
X150931714Y-143886180D02*
X151455523Y-143219514D01*
X150931714Y-143219514D02*
X151455523Y-143886180D01*
X152931714Y-143362371D02*
X153074571Y-143409990D01*
X153122190Y-143457609D01*
X153169809Y-143552847D01*
X153169809Y-143695704D01*
X153122190Y-143790942D01*
X153074571Y-143838561D01*
X152979333Y-143886180D01*
X152598380Y-143886180D01*
X152598380Y-142886180D01*
X152931714Y-142886180D01*
X153026952Y-142933800D01*
X153074571Y-142981419D01*
X153122190Y-143076657D01*
X153122190Y-143171895D01*
X153074571Y-143267133D01*
X153026952Y-143314752D01*
X152931714Y-143362371D01*
X152598380Y-143362371D01*
X153741238Y-143886180D02*
X153646000Y-143838561D01*
X153598380Y-143790942D01*
X153550761Y-143695704D01*
X153550761Y-143409990D01*
X153598380Y-143314752D01*
X153646000Y-143267133D01*
X153741238Y-143219514D01*
X153884095Y-143219514D01*
X153979333Y-143267133D01*
X154026952Y-143314752D01*
X154074571Y-143409990D01*
X154074571Y-143695704D01*
X154026952Y-143790942D01*
X153979333Y-143838561D01*
X153884095Y-143886180D01*
X153741238Y-143886180D01*
X154931714Y-143886180D02*
X154931714Y-143362371D01*
X154884095Y-143267133D01*
X154788857Y-143219514D01*
X154598380Y-143219514D01*
X154503142Y-143267133D01*
X154931714Y-143838561D02*
X154836476Y-143886180D01*
X154598380Y-143886180D01*
X154503142Y-143838561D01*
X154455523Y-143743323D01*
X154455523Y-143648085D01*
X154503142Y-143552847D01*
X154598380Y-143505228D01*
X154836476Y-143505228D01*
X154931714Y-143457609D01*
X155407904Y-143886180D02*
X155407904Y-143219514D01*
X155407904Y-143409990D02*
X155455523Y-143314752D01*
X155503142Y-143267133D01*
X155598380Y-143219514D01*
X155693619Y-143219514D01*
X156455523Y-143886180D02*
X156455523Y-142886180D01*
X156455523Y-143838561D02*
X156360285Y-143886180D01*
X156169809Y-143886180D01*
X156074571Y-143838561D01*
X156026952Y-143790942D01*
X155979333Y-143695704D01*
X155979333Y-143409990D01*
X156026952Y-143314752D01*
X156074571Y-143267133D01*
X156169809Y-143219514D01*
X156360285Y-143219514D01*
X156455523Y-143267133D01*
X157550761Y-142886180D02*
X157884095Y-143886180D01*
X158217428Y-142886180D01*
X159074571Y-143886180D02*
X158503142Y-143886180D01*
X158788857Y-143886180D02*
X158788857Y-142886180D01*
X158693619Y-143029038D01*
X158598380Y-143124276D01*
X158503142Y-143171895D01*
X159503142Y-143790942D02*
X159550761Y-143838561D01*
X159503142Y-143886180D01*
X159455523Y-143838561D01*
X159503142Y-143790942D01*
X159503142Y-143886180D01*
X160169809Y-142886180D02*
X160265047Y-142886180D01*
X160360285Y-142933800D01*
X160407904Y-142981419D01*
X160455523Y-143076657D01*
X160503142Y-143267133D01*
X160503142Y-143505228D01*
X160455523Y-143695704D01*
X160407904Y-143790942D01*
X160360285Y-143838561D01*
X160265047Y-143886180D01*
X160169809Y-143886180D01*
X160074571Y-143838561D01*
X160026952Y-143790942D01*
X159979333Y-143695704D01*
X159931714Y-143505228D01*
X159931714Y-143267133D01*
X159979333Y-143076657D01*
X160026952Y-142981419D01*
X160074571Y-142933800D01*
X160169809Y-142886180D01*
X196382095Y-71461380D02*
X196477333Y-71461380D01*
X196572571Y-71509000D01*
X196620190Y-71556619D01*
X196667809Y-71651857D01*
X196715428Y-71842333D01*
X196715428Y-72080428D01*
X196667809Y-72270904D01*
X196620190Y-72366142D01*
X196572571Y-72413761D01*
X196477333Y-72461380D01*
X196382095Y-72461380D01*
X196286857Y-72413761D01*
X196239238Y-72366142D01*
X196191619Y-72270904D01*
X196144000Y-72080428D01*
X196144000Y-71842333D01*
X196191619Y-71651857D01*
X196239238Y-71556619D01*
X196286857Y-71509000D01*
X196382095Y-71461380D01*
X197144000Y-72366142D02*
X197191619Y-72413761D01*
X197144000Y-72461380D01*
X197096380Y-72413761D01*
X197144000Y-72366142D01*
X197144000Y-72461380D01*
X197763047Y-71889952D02*
X197667809Y-71842333D01*
X197620190Y-71794714D01*
X197572571Y-71699476D01*
X197572571Y-71651857D01*
X197620190Y-71556619D01*
X197667809Y-71509000D01*
X197763047Y-71461380D01*
X197953523Y-71461380D01*
X198048761Y-71509000D01*
X198096380Y-71556619D01*
X198144000Y-71651857D01*
X198144000Y-71699476D01*
X198096380Y-71794714D01*
X198048761Y-71842333D01*
X197953523Y-71889952D01*
X197763047Y-71889952D01*
X197667809Y-71937571D01*
X197620190Y-71985190D01*
X197572571Y-72080428D01*
X197572571Y-72270904D01*
X197620190Y-72366142D01*
X197667809Y-72413761D01*
X197763047Y-72461380D01*
X197953523Y-72461380D01*
X198048761Y-72413761D01*
X198096380Y-72366142D01*
X198144000Y-72270904D01*
X198144000Y-72080428D01*
X198096380Y-71985190D01*
X198048761Y-71937571D01*
X197953523Y-71889952D01*
X198763047Y-71461380D02*
X198858285Y-71461380D01*
X198953523Y-71509000D01*
X199001142Y-71556619D01*
X199048761Y-71651857D01*
X199096380Y-71842333D01*
X199096380Y-72080428D01*
X199048761Y-72270904D01*
X199001142Y-72366142D01*
X198953523Y-72413761D01*
X198858285Y-72461380D01*
X198763047Y-72461380D01*
X198667809Y-72413761D01*
X198620190Y-72366142D01*
X198572571Y-72270904D01*
X198524952Y-72080428D01*
X198524952Y-71842333D01*
X198572571Y-71651857D01*
X198620190Y-71556619D01*
X198667809Y-71509000D01*
X198763047Y-71461380D01*
X199715428Y-71461380D02*
X199810666Y-71461380D01*
X199905904Y-71509000D01*
X199953523Y-71556619D01*
X200001142Y-71651857D01*
X200048761Y-71842333D01*
X200048761Y-72080428D01*
X200001142Y-72270904D01*
X199953523Y-72366142D01*
X199905904Y-72413761D01*
X199810666Y-72461380D01*
X199715428Y-72461380D01*
X199620190Y-72413761D01*
X199572571Y-72366142D01*
X199524952Y-72270904D01*
X199477333Y-72080428D01*
X199477333Y-71842333D01*
X199524952Y-71651857D01*
X199572571Y-71556619D01*
X199620190Y-71509000D01*
X199715428Y-71461380D01*
X200667809Y-71461380D02*
X200763047Y-71461380D01*
X200858285Y-71509000D01*
X200905904Y-71556619D01*
X200953523Y-71651857D01*
X201001142Y-71842333D01*
X201001142Y-72080428D01*
X200953523Y-72270904D01*
X200905904Y-72366142D01*
X200858285Y-72413761D01*
X200763047Y-72461380D01*
X200667809Y-72461380D01*
X200572571Y-72413761D01*
X200524952Y-72366142D01*
X200477333Y-72270904D01*
X200429714Y-72080428D01*
X200429714Y-71842333D01*
X200477333Y-71651857D01*
X200524952Y-71556619D01*
X200572571Y-71509000D01*
X200667809Y-71461380D01*
X202191619Y-72461380D02*
X202191619Y-71794714D01*
X202191619Y-71461380D02*
X202144000Y-71509000D01*
X202191619Y-71556619D01*
X202239238Y-71509000D01*
X202191619Y-71461380D01*
X202191619Y-71556619D01*
X202667809Y-71794714D02*
X202667809Y-72461380D01*
X202667809Y-71889952D02*
X202715428Y-71842333D01*
X202810666Y-71794714D01*
X202953523Y-71794714D01*
X203048761Y-71842333D01*
X203096380Y-71937571D01*
X203096380Y-72461380D01*
D12*
X209804000Y-73279000D02*
X189484000Y-73279000D01*
X209804000Y-115951000D02*
X209804000Y-72692579D01*
X189484000Y-115951000D02*
X189484000Y-72692579D01*
X189484000Y-73279000D02*
X190610504Y-72692579D01*
X189484000Y-73279000D02*
X190610504Y-73865421D01*
X209804000Y-73279000D02*
X208677496Y-72692579D01*
X209804000Y-73279000D02*
X208677496Y-73865421D01*
G04 #@! TO.C,R11*
X173685200Y-122401200D02*
X173685200Y-126901200D01*
X173685200Y-140641200D02*
X173685200Y-136141200D01*
X171965200Y-126901200D02*
X171965200Y-136141200D01*
X175405200Y-126901200D02*
X171965200Y-126901200D01*
X175405200Y-136141200D02*
X175405200Y-126901200D01*
X171965200Y-136141200D02*
X175405200Y-136141200D01*
G04 #@! TO.C,R10*
X179349400Y-124382400D02*
X179349400Y-128882400D01*
X179349400Y-142622400D02*
X179349400Y-138122400D01*
X177629400Y-128882400D02*
X177629400Y-138122400D01*
X181069400Y-128882400D02*
X177629400Y-128882400D01*
X181069400Y-138122400D02*
X181069400Y-128882400D01*
X177629400Y-138122400D02*
X181069400Y-138122400D01*
G04 #@! TO.C,R337*
X164792600Y-46000000D02*
X160292600Y-46000000D01*
X146552600Y-46000000D02*
X151052600Y-46000000D01*
X160292600Y-44280000D02*
X151052600Y-44280000D01*
X160292600Y-47720000D02*
X160292600Y-44280000D01*
X151052600Y-47720000D02*
X160292600Y-47720000D01*
X151052600Y-44280000D02*
X151052600Y-47720000D01*
G04 #@! TO.C,R338*
X176792600Y-50000000D02*
X172292600Y-50000000D01*
X158552600Y-50000000D02*
X163052600Y-50000000D01*
X172292600Y-48280000D02*
X163052600Y-48280000D01*
X172292600Y-51720000D02*
X172292600Y-48280000D01*
X163052600Y-51720000D02*
X172292600Y-51720000D01*
X163052600Y-48280000D02*
X163052600Y-51720000D01*
G04 #@! TO.C,R336*
X152792600Y-42000000D02*
X148292600Y-42000000D01*
X134552600Y-42000000D02*
X139052600Y-42000000D01*
X148292600Y-40280000D02*
X139052600Y-40280000D01*
X148292600Y-43720000D02*
X148292600Y-40280000D01*
X139052600Y-43720000D02*
X148292600Y-43720000D01*
X139052600Y-40280000D02*
X139052600Y-43720000D01*
G04 #@! TO.C,R335*
X140792600Y-38000000D02*
X136292600Y-38000000D01*
X122552600Y-38000000D02*
X127052600Y-38000000D01*
X136292600Y-36280000D02*
X127052600Y-36280000D01*
X136292600Y-39720000D02*
X136292600Y-36280000D01*
X127052600Y-39720000D02*
X136292600Y-39720000D01*
X127052600Y-36280000D02*
X127052600Y-39720000D01*
G04 #@! TO.C,R334*
X128792600Y-50000000D02*
X124292600Y-50000000D01*
X110552600Y-50000000D02*
X115052600Y-50000000D01*
X124292600Y-48280000D02*
X115052600Y-48280000D01*
X124292600Y-51720000D02*
X124292600Y-48280000D01*
X115052600Y-51720000D02*
X124292600Y-51720000D01*
X115052600Y-48280000D02*
X115052600Y-51720000D01*
G04 #@! TO.C,R333*
X116792600Y-46000000D02*
X112292600Y-46000000D01*
X98552600Y-46000000D02*
X103052600Y-46000000D01*
X112292600Y-44280000D02*
X103052600Y-44280000D01*
X112292600Y-47720000D02*
X112292600Y-44280000D01*
X103052600Y-47720000D02*
X112292600Y-47720000D01*
X103052600Y-44280000D02*
X103052600Y-47720000D01*
G04 #@! TO.C,R332*
X104792600Y-42000000D02*
X100292600Y-42000000D01*
X86552600Y-42000000D02*
X91052600Y-42000000D01*
X100292600Y-40280000D02*
X91052600Y-40280000D01*
X100292600Y-43720000D02*
X100292600Y-40280000D01*
X91052600Y-43720000D02*
X100292600Y-43720000D01*
X91052600Y-40280000D02*
X91052600Y-43720000D01*
G04 #@! TO.C,R331*
X92792600Y-38000000D02*
X88292600Y-38000000D01*
X74552600Y-38000000D02*
X79052600Y-38000000D01*
X88292600Y-36280000D02*
X79052600Y-36280000D01*
X88292600Y-39720000D02*
X88292600Y-36280000D01*
X79052600Y-39720000D02*
X88292600Y-39720000D01*
X79052600Y-36280000D02*
X79052600Y-39720000D01*
G04 #@! TO.C,R330*
X80792600Y-34000000D02*
X76292600Y-34000000D01*
X62552600Y-34000000D02*
X67052600Y-34000000D01*
X76292600Y-32280000D02*
X67052600Y-32280000D01*
X76292600Y-35720000D02*
X76292600Y-32280000D01*
X67052600Y-35720000D02*
X76292600Y-35720000D01*
X67052600Y-32280000D02*
X67052600Y-35720000D01*
G04 #@! TO.C,LED7_8*
X154972600Y-139095000D02*
X165132600Y-139095000D01*
X154972600Y-131475000D02*
X154972600Y-139095000D01*
X165132600Y-131475000D02*
X154972600Y-131475000D01*
X165132600Y-139095000D02*
X165132600Y-131475000D01*
X165132600Y-137825000D02*
X154972600Y-137825000D01*
G04 #@! TO.C,LED7_7*
X142972600Y-139095000D02*
X153132600Y-139095000D01*
X142972600Y-131475000D02*
X142972600Y-139095000D01*
X153132600Y-131475000D02*
X142972600Y-131475000D01*
X153132600Y-139095000D02*
X153132600Y-131475000D01*
X153132600Y-137825000D02*
X142972600Y-137825000D01*
G04 #@! TO.C,LED7_6*
X130972600Y-139095000D02*
X141132600Y-139095000D01*
X130972600Y-131475000D02*
X130972600Y-139095000D01*
X141132600Y-131475000D02*
X130972600Y-131475000D01*
X141132600Y-139095000D02*
X141132600Y-131475000D01*
X141132600Y-137825000D02*
X130972600Y-137825000D01*
G04 #@! TO.C,LED7_5*
X118972600Y-139095000D02*
X129132600Y-139095000D01*
X118972600Y-131475000D02*
X118972600Y-139095000D01*
X129132600Y-131475000D02*
X118972600Y-131475000D01*
X129132600Y-139095000D02*
X129132600Y-131475000D01*
X129132600Y-137825000D02*
X118972600Y-137825000D01*
G04 #@! TO.C,LED7_4*
X106972600Y-139095000D02*
X117132600Y-139095000D01*
X106972600Y-131475000D02*
X106972600Y-139095000D01*
X117132600Y-131475000D02*
X106972600Y-131475000D01*
X117132600Y-139095000D02*
X117132600Y-131475000D01*
X117132600Y-137825000D02*
X106972600Y-137825000D01*
G04 #@! TO.C,LED7_3*
X94972600Y-139095000D02*
X105132600Y-139095000D01*
X94972600Y-131475000D02*
X94972600Y-139095000D01*
X105132600Y-131475000D02*
X94972600Y-131475000D01*
X105132600Y-139095000D02*
X105132600Y-131475000D01*
X105132600Y-137825000D02*
X94972600Y-137825000D01*
G04 #@! TO.C,LED7_2*
X82972600Y-139095000D02*
X93132600Y-139095000D01*
X82972600Y-131475000D02*
X82972600Y-139095000D01*
X93132600Y-131475000D02*
X82972600Y-131475000D01*
X93132600Y-139095000D02*
X93132600Y-131475000D01*
X93132600Y-137825000D02*
X82972600Y-137825000D01*
G04 #@! TO.C,LED7_1*
X70972600Y-139095000D02*
X81132600Y-139095000D01*
X70972600Y-131475000D02*
X70972600Y-139095000D01*
X81132600Y-131475000D02*
X70972600Y-131475000D01*
X81132600Y-139095000D02*
X81132600Y-131475000D01*
X81132600Y-137825000D02*
X70972600Y-137825000D01*
G04 #@! TO.C,LED7_0*
X58972600Y-139095000D02*
X69132600Y-139095000D01*
X58972600Y-131475000D02*
X58972600Y-139095000D01*
X69132600Y-131475000D02*
X58972600Y-131475000D01*
X69132600Y-139095000D02*
X69132600Y-131475000D01*
X69132600Y-137825000D02*
X58972600Y-137825000D01*
G04 #@! TO.C,LED6_8*
X154972600Y-128095000D02*
X165132600Y-128095000D01*
X154972600Y-120475000D02*
X154972600Y-128095000D01*
X165132600Y-120475000D02*
X154972600Y-120475000D01*
X165132600Y-128095000D02*
X165132600Y-120475000D01*
X165132600Y-126825000D02*
X154972600Y-126825000D01*
G04 #@! TO.C,LED6_7*
X142972600Y-128095000D02*
X153132600Y-128095000D01*
X142972600Y-120475000D02*
X142972600Y-128095000D01*
X153132600Y-120475000D02*
X142972600Y-120475000D01*
X153132600Y-128095000D02*
X153132600Y-120475000D01*
X153132600Y-126825000D02*
X142972600Y-126825000D01*
G04 #@! TO.C,LED6_6*
X130972600Y-128095000D02*
X141132600Y-128095000D01*
X130972600Y-120475000D02*
X130972600Y-128095000D01*
X141132600Y-120475000D02*
X130972600Y-120475000D01*
X141132600Y-128095000D02*
X141132600Y-120475000D01*
X141132600Y-126825000D02*
X130972600Y-126825000D01*
G04 #@! TO.C,LED6_5*
X118972600Y-128095000D02*
X129132600Y-128095000D01*
X118972600Y-120475000D02*
X118972600Y-128095000D01*
X129132600Y-120475000D02*
X118972600Y-120475000D01*
X129132600Y-128095000D02*
X129132600Y-120475000D01*
X129132600Y-126825000D02*
X118972600Y-126825000D01*
G04 #@! TO.C,LED6_4*
X106972600Y-128095000D02*
X117132600Y-128095000D01*
X106972600Y-120475000D02*
X106972600Y-128095000D01*
X117132600Y-120475000D02*
X106972600Y-120475000D01*
X117132600Y-128095000D02*
X117132600Y-120475000D01*
X117132600Y-126825000D02*
X106972600Y-126825000D01*
G04 #@! TO.C,LED6_3*
X94972600Y-128095000D02*
X105132600Y-128095000D01*
X94972600Y-120475000D02*
X94972600Y-128095000D01*
X105132600Y-120475000D02*
X94972600Y-120475000D01*
X105132600Y-128095000D02*
X105132600Y-120475000D01*
X105132600Y-126825000D02*
X94972600Y-126825000D01*
G04 #@! TO.C,LED6_2*
X82972600Y-128095000D02*
X93132600Y-128095000D01*
X82972600Y-120475000D02*
X82972600Y-128095000D01*
X93132600Y-120475000D02*
X82972600Y-120475000D01*
X93132600Y-128095000D02*
X93132600Y-120475000D01*
X93132600Y-126825000D02*
X82972600Y-126825000D01*
G04 #@! TO.C,LED6_1*
X70972600Y-128095000D02*
X81132600Y-128095000D01*
X70972600Y-120475000D02*
X70972600Y-128095000D01*
X81132600Y-120475000D02*
X70972600Y-120475000D01*
X81132600Y-128095000D02*
X81132600Y-120475000D01*
X81132600Y-126825000D02*
X70972600Y-126825000D01*
G04 #@! TO.C,LED6_0*
X58972600Y-128095000D02*
X69132600Y-128095000D01*
X58972600Y-120475000D02*
X58972600Y-128095000D01*
X69132600Y-120475000D02*
X58972600Y-120475000D01*
X69132600Y-128095000D02*
X69132600Y-120475000D01*
X69132600Y-126825000D02*
X58972600Y-126825000D01*
G04 #@! TO.C,LED5_8*
X154972600Y-117095000D02*
X165132600Y-117095000D01*
X154972600Y-109475000D02*
X154972600Y-117095000D01*
X165132600Y-109475000D02*
X154972600Y-109475000D01*
X165132600Y-117095000D02*
X165132600Y-109475000D01*
X165132600Y-115825000D02*
X154972600Y-115825000D01*
G04 #@! TO.C,LED5_7*
X142972600Y-117095000D02*
X153132600Y-117095000D01*
X142972600Y-109475000D02*
X142972600Y-117095000D01*
X153132600Y-109475000D02*
X142972600Y-109475000D01*
X153132600Y-117095000D02*
X153132600Y-109475000D01*
X153132600Y-115825000D02*
X142972600Y-115825000D01*
G04 #@! TO.C,LED5_6*
X130972600Y-117095000D02*
X141132600Y-117095000D01*
X130972600Y-109475000D02*
X130972600Y-117095000D01*
X141132600Y-109475000D02*
X130972600Y-109475000D01*
X141132600Y-117095000D02*
X141132600Y-109475000D01*
X141132600Y-115825000D02*
X130972600Y-115825000D01*
G04 #@! TO.C,LED5_5*
X118972600Y-117095000D02*
X129132600Y-117095000D01*
X118972600Y-109475000D02*
X118972600Y-117095000D01*
X129132600Y-109475000D02*
X118972600Y-109475000D01*
X129132600Y-117095000D02*
X129132600Y-109475000D01*
X129132600Y-115825000D02*
X118972600Y-115825000D01*
G04 #@! TO.C,LED5_4*
X106972600Y-117095000D02*
X117132600Y-117095000D01*
X106972600Y-109475000D02*
X106972600Y-117095000D01*
X117132600Y-109475000D02*
X106972600Y-109475000D01*
X117132600Y-117095000D02*
X117132600Y-109475000D01*
X117132600Y-115825000D02*
X106972600Y-115825000D01*
G04 #@! TO.C,LED5_3*
X94972600Y-117095000D02*
X105132600Y-117095000D01*
X94972600Y-109475000D02*
X94972600Y-117095000D01*
X105132600Y-109475000D02*
X94972600Y-109475000D01*
X105132600Y-117095000D02*
X105132600Y-109475000D01*
X105132600Y-115825000D02*
X94972600Y-115825000D01*
G04 #@! TO.C,LED5_2*
X82972600Y-117095000D02*
X93132600Y-117095000D01*
X82972600Y-109475000D02*
X82972600Y-117095000D01*
X93132600Y-109475000D02*
X82972600Y-109475000D01*
X93132600Y-117095000D02*
X93132600Y-109475000D01*
X93132600Y-115825000D02*
X82972600Y-115825000D01*
G04 #@! TO.C,LED5_1*
X70972600Y-117095000D02*
X81132600Y-117095000D01*
X70972600Y-109475000D02*
X70972600Y-117095000D01*
X81132600Y-109475000D02*
X70972600Y-109475000D01*
X81132600Y-117095000D02*
X81132600Y-109475000D01*
X81132600Y-115825000D02*
X70972600Y-115825000D01*
G04 #@! TO.C,LED5_0*
X58972600Y-117095000D02*
X69132600Y-117095000D01*
X58972600Y-109475000D02*
X58972600Y-117095000D01*
X69132600Y-109475000D02*
X58972600Y-109475000D01*
X69132600Y-117095000D02*
X69132600Y-109475000D01*
X69132600Y-115825000D02*
X58972600Y-115825000D01*
G04 #@! TO.C,LED4_8*
X154972600Y-106095000D02*
X165132600Y-106095000D01*
X154972600Y-98475000D02*
X154972600Y-106095000D01*
X165132600Y-98475000D02*
X154972600Y-98475000D01*
X165132600Y-106095000D02*
X165132600Y-98475000D01*
X165132600Y-104825000D02*
X154972600Y-104825000D01*
G04 #@! TO.C,LED4_7*
X142972600Y-106095000D02*
X153132600Y-106095000D01*
X142972600Y-98475000D02*
X142972600Y-106095000D01*
X153132600Y-98475000D02*
X142972600Y-98475000D01*
X153132600Y-106095000D02*
X153132600Y-98475000D01*
X153132600Y-104825000D02*
X142972600Y-104825000D01*
G04 #@! TO.C,LED4_6*
X130972600Y-106095000D02*
X141132600Y-106095000D01*
X130972600Y-98475000D02*
X130972600Y-106095000D01*
X141132600Y-98475000D02*
X130972600Y-98475000D01*
X141132600Y-106095000D02*
X141132600Y-98475000D01*
X141132600Y-104825000D02*
X130972600Y-104825000D01*
G04 #@! TO.C,LED4_5*
X118972600Y-106095000D02*
X129132600Y-106095000D01*
X118972600Y-98475000D02*
X118972600Y-106095000D01*
X129132600Y-98475000D02*
X118972600Y-98475000D01*
X129132600Y-106095000D02*
X129132600Y-98475000D01*
X129132600Y-104825000D02*
X118972600Y-104825000D01*
G04 #@! TO.C,LED4_4*
X106972600Y-106095000D02*
X117132600Y-106095000D01*
X106972600Y-98475000D02*
X106972600Y-106095000D01*
X117132600Y-98475000D02*
X106972600Y-98475000D01*
X117132600Y-106095000D02*
X117132600Y-98475000D01*
X117132600Y-104825000D02*
X106972600Y-104825000D01*
G04 #@! TO.C,LED4_3*
X94972600Y-106095000D02*
X105132600Y-106095000D01*
X94972600Y-98475000D02*
X94972600Y-106095000D01*
X105132600Y-98475000D02*
X94972600Y-98475000D01*
X105132600Y-106095000D02*
X105132600Y-98475000D01*
X105132600Y-104825000D02*
X94972600Y-104825000D01*
G04 #@! TO.C,LED4_2*
X82972600Y-106095000D02*
X93132600Y-106095000D01*
X82972600Y-98475000D02*
X82972600Y-106095000D01*
X93132600Y-98475000D02*
X82972600Y-98475000D01*
X93132600Y-106095000D02*
X93132600Y-98475000D01*
X93132600Y-104825000D02*
X82972600Y-104825000D01*
G04 #@! TO.C,LED4_1*
X70972600Y-106095000D02*
X81132600Y-106095000D01*
X70972600Y-98475000D02*
X70972600Y-106095000D01*
X81132600Y-98475000D02*
X70972600Y-98475000D01*
X81132600Y-106095000D02*
X81132600Y-98475000D01*
X81132600Y-104825000D02*
X70972600Y-104825000D01*
G04 #@! TO.C,LED4_0*
X58972600Y-106095000D02*
X69132600Y-106095000D01*
X58972600Y-98475000D02*
X58972600Y-106095000D01*
X69132600Y-98475000D02*
X58972600Y-98475000D01*
X69132600Y-106095000D02*
X69132600Y-98475000D01*
X69132600Y-104825000D02*
X58972600Y-104825000D01*
G04 #@! TO.C,LED3_8*
X154972600Y-95095000D02*
X165132600Y-95095000D01*
X154972600Y-87475000D02*
X154972600Y-95095000D01*
X165132600Y-87475000D02*
X154972600Y-87475000D01*
X165132600Y-95095000D02*
X165132600Y-87475000D01*
X165132600Y-93825000D02*
X154972600Y-93825000D01*
G04 #@! TO.C,LED3_7*
X142972600Y-95095000D02*
X153132600Y-95095000D01*
X142972600Y-87475000D02*
X142972600Y-95095000D01*
X153132600Y-87475000D02*
X142972600Y-87475000D01*
X153132600Y-95095000D02*
X153132600Y-87475000D01*
X153132600Y-93825000D02*
X142972600Y-93825000D01*
G04 #@! TO.C,LED3_6*
X130972600Y-95095000D02*
X141132600Y-95095000D01*
X130972600Y-87475000D02*
X130972600Y-95095000D01*
X141132600Y-87475000D02*
X130972600Y-87475000D01*
X141132600Y-95095000D02*
X141132600Y-87475000D01*
X141132600Y-93825000D02*
X130972600Y-93825000D01*
G04 #@! TO.C,LED3_5*
X118972600Y-95095000D02*
X129132600Y-95095000D01*
X118972600Y-87475000D02*
X118972600Y-95095000D01*
X129132600Y-87475000D02*
X118972600Y-87475000D01*
X129132600Y-95095000D02*
X129132600Y-87475000D01*
X129132600Y-93825000D02*
X118972600Y-93825000D01*
G04 #@! TO.C,LED3_4*
X106972600Y-95095000D02*
X117132600Y-95095000D01*
X106972600Y-87475000D02*
X106972600Y-95095000D01*
X117132600Y-87475000D02*
X106972600Y-87475000D01*
X117132600Y-95095000D02*
X117132600Y-87475000D01*
X117132600Y-93825000D02*
X106972600Y-93825000D01*
G04 #@! TO.C,LED3_3*
X94972600Y-95095000D02*
X105132600Y-95095000D01*
X94972600Y-87475000D02*
X94972600Y-95095000D01*
X105132600Y-87475000D02*
X94972600Y-87475000D01*
X105132600Y-95095000D02*
X105132600Y-87475000D01*
X105132600Y-93825000D02*
X94972600Y-93825000D01*
G04 #@! TO.C,LED3_2*
X82972600Y-95095000D02*
X93132600Y-95095000D01*
X82972600Y-87475000D02*
X82972600Y-95095000D01*
X93132600Y-87475000D02*
X82972600Y-87475000D01*
X93132600Y-95095000D02*
X93132600Y-87475000D01*
X93132600Y-93825000D02*
X82972600Y-93825000D01*
G04 #@! TO.C,LED3_1*
X70972600Y-95095000D02*
X81132600Y-95095000D01*
X70972600Y-87475000D02*
X70972600Y-95095000D01*
X81132600Y-87475000D02*
X70972600Y-87475000D01*
X81132600Y-95095000D02*
X81132600Y-87475000D01*
X81132600Y-93825000D02*
X70972600Y-93825000D01*
G04 #@! TO.C,LED3_0*
X58972600Y-95095000D02*
X69132600Y-95095000D01*
X58972600Y-87475000D02*
X58972600Y-95095000D01*
X69132600Y-87475000D02*
X58972600Y-87475000D01*
X69132600Y-95095000D02*
X69132600Y-87475000D01*
X69132600Y-93825000D02*
X58972600Y-93825000D01*
G04 #@! TO.C,LED2_8*
X154972600Y-84095000D02*
X165132600Y-84095000D01*
X154972600Y-76475000D02*
X154972600Y-84095000D01*
X165132600Y-76475000D02*
X154972600Y-76475000D01*
X165132600Y-84095000D02*
X165132600Y-76475000D01*
X165132600Y-82825000D02*
X154972600Y-82825000D01*
G04 #@! TO.C,LED2_7*
X142972600Y-84095000D02*
X153132600Y-84095000D01*
X142972600Y-76475000D02*
X142972600Y-84095000D01*
X153132600Y-76475000D02*
X142972600Y-76475000D01*
X153132600Y-84095000D02*
X153132600Y-76475000D01*
X153132600Y-82825000D02*
X142972600Y-82825000D01*
G04 #@! TO.C,LED2_6*
X130972600Y-84095000D02*
X141132600Y-84095000D01*
X130972600Y-76475000D02*
X130972600Y-84095000D01*
X141132600Y-76475000D02*
X130972600Y-76475000D01*
X141132600Y-84095000D02*
X141132600Y-76475000D01*
X141132600Y-82825000D02*
X130972600Y-82825000D01*
G04 #@! TO.C,LED2_5*
X118972600Y-84095000D02*
X129132600Y-84095000D01*
X118972600Y-76475000D02*
X118972600Y-84095000D01*
X129132600Y-76475000D02*
X118972600Y-76475000D01*
X129132600Y-84095000D02*
X129132600Y-76475000D01*
X129132600Y-82825000D02*
X118972600Y-82825000D01*
G04 #@! TO.C,LED2_4*
X106972600Y-84095000D02*
X117132600Y-84095000D01*
X106972600Y-76475000D02*
X106972600Y-84095000D01*
X117132600Y-76475000D02*
X106972600Y-76475000D01*
X117132600Y-84095000D02*
X117132600Y-76475000D01*
X117132600Y-82825000D02*
X106972600Y-82825000D01*
G04 #@! TO.C,LED2_3*
X94972600Y-84095000D02*
X105132600Y-84095000D01*
X94972600Y-76475000D02*
X94972600Y-84095000D01*
X105132600Y-76475000D02*
X94972600Y-76475000D01*
X105132600Y-84095000D02*
X105132600Y-76475000D01*
X105132600Y-82825000D02*
X94972600Y-82825000D01*
G04 #@! TO.C,LED2_2*
X82972600Y-84095000D02*
X93132600Y-84095000D01*
X82972600Y-76475000D02*
X82972600Y-84095000D01*
X93132600Y-76475000D02*
X82972600Y-76475000D01*
X93132600Y-84095000D02*
X93132600Y-76475000D01*
X93132600Y-82825000D02*
X82972600Y-82825000D01*
G04 #@! TO.C,LED2_1*
X70972600Y-84095000D02*
X81132600Y-84095000D01*
X70972600Y-76475000D02*
X70972600Y-84095000D01*
X81132600Y-76475000D02*
X70972600Y-76475000D01*
X81132600Y-84095000D02*
X81132600Y-76475000D01*
X81132600Y-82825000D02*
X70972600Y-82825000D01*
G04 #@! TO.C,LED2_0*
X58972600Y-84095000D02*
X69132600Y-84095000D01*
X58972600Y-76475000D02*
X58972600Y-84095000D01*
X69132600Y-76475000D02*
X58972600Y-76475000D01*
X69132600Y-84095000D02*
X69132600Y-76475000D01*
X69132600Y-82825000D02*
X58972600Y-82825000D01*
G04 #@! TO.C,LED1_8*
X154972600Y-73095000D02*
X165132600Y-73095000D01*
X154972600Y-65475000D02*
X154972600Y-73095000D01*
X165132600Y-65475000D02*
X154972600Y-65475000D01*
X165132600Y-73095000D02*
X165132600Y-65475000D01*
X165132600Y-71825000D02*
X154972600Y-71825000D01*
G04 #@! TO.C,LED1_7*
X142972600Y-73095000D02*
X153132600Y-73095000D01*
X142972600Y-65475000D02*
X142972600Y-73095000D01*
X153132600Y-65475000D02*
X142972600Y-65475000D01*
X153132600Y-73095000D02*
X153132600Y-65475000D01*
X153132600Y-71825000D02*
X142972600Y-71825000D01*
G04 #@! TO.C,LED1_6*
X130972600Y-73095000D02*
X141132600Y-73095000D01*
X130972600Y-65475000D02*
X130972600Y-73095000D01*
X141132600Y-65475000D02*
X130972600Y-65475000D01*
X141132600Y-73095000D02*
X141132600Y-65475000D01*
X141132600Y-71825000D02*
X130972600Y-71825000D01*
G04 #@! TO.C,LED1_5*
X118972600Y-73095000D02*
X129132600Y-73095000D01*
X118972600Y-65475000D02*
X118972600Y-73095000D01*
X129132600Y-65475000D02*
X118972600Y-65475000D01*
X129132600Y-73095000D02*
X129132600Y-65475000D01*
X129132600Y-71825000D02*
X118972600Y-71825000D01*
G04 #@! TO.C,LED1_4*
X106972600Y-73095000D02*
X117132600Y-73095000D01*
X106972600Y-65475000D02*
X106972600Y-73095000D01*
X117132600Y-65475000D02*
X106972600Y-65475000D01*
X117132600Y-73095000D02*
X117132600Y-65475000D01*
X117132600Y-71825000D02*
X106972600Y-71825000D01*
G04 #@! TO.C,LED1_3*
X94972600Y-73095000D02*
X105132600Y-73095000D01*
X94972600Y-65475000D02*
X94972600Y-73095000D01*
X105132600Y-65475000D02*
X94972600Y-65475000D01*
X105132600Y-73095000D02*
X105132600Y-65475000D01*
X105132600Y-71825000D02*
X94972600Y-71825000D01*
G04 #@! TO.C,LED1_2*
X82972600Y-73095000D02*
X93132600Y-73095000D01*
X82972600Y-65475000D02*
X82972600Y-73095000D01*
X93132600Y-65475000D02*
X82972600Y-65475000D01*
X93132600Y-73095000D02*
X93132600Y-65475000D01*
X93132600Y-71825000D02*
X82972600Y-71825000D01*
G04 #@! TO.C,LED1_1*
X70972600Y-73095000D02*
X81132600Y-73095000D01*
X70972600Y-65475000D02*
X70972600Y-73095000D01*
X81132600Y-65475000D02*
X70972600Y-65475000D01*
X81132600Y-73095000D02*
X81132600Y-65475000D01*
X81132600Y-71825000D02*
X70972600Y-71825000D01*
G04 #@! TO.C,LED1_0*
X58972600Y-73095000D02*
X69132600Y-73095000D01*
X58972600Y-65475000D02*
X58972600Y-73095000D01*
X69132600Y-65475000D02*
X58972600Y-65475000D01*
X69132600Y-73095000D02*
X69132600Y-65475000D01*
X69132600Y-71825000D02*
X58972600Y-71825000D01*
G04 #@! TO.C,LED0_8*
X154972600Y-62095000D02*
X165132600Y-62095000D01*
X154972600Y-54475000D02*
X154972600Y-62095000D01*
X165132600Y-54475000D02*
X154972600Y-54475000D01*
X165132600Y-62095000D02*
X165132600Y-54475000D01*
X165132600Y-60825000D02*
X154972600Y-60825000D01*
G04 #@! TO.C,LED0_7*
X142972600Y-62095000D02*
X153132600Y-62095000D01*
X142972600Y-54475000D02*
X142972600Y-62095000D01*
X153132600Y-54475000D02*
X142972600Y-54475000D01*
X153132600Y-62095000D02*
X153132600Y-54475000D01*
X153132600Y-60825000D02*
X142972600Y-60825000D01*
G04 #@! TO.C,LED0_6*
X130972600Y-62095000D02*
X141132600Y-62095000D01*
X130972600Y-54475000D02*
X130972600Y-62095000D01*
X141132600Y-54475000D02*
X130972600Y-54475000D01*
X141132600Y-62095000D02*
X141132600Y-54475000D01*
X141132600Y-60825000D02*
X130972600Y-60825000D01*
G04 #@! TO.C,LED0_5*
X118972600Y-62095000D02*
X129132600Y-62095000D01*
X118972600Y-54475000D02*
X118972600Y-62095000D01*
X129132600Y-54475000D02*
X118972600Y-54475000D01*
X129132600Y-62095000D02*
X129132600Y-54475000D01*
X129132600Y-60825000D02*
X118972600Y-60825000D01*
G04 #@! TO.C,LED0_4*
X106972600Y-62095000D02*
X117132600Y-62095000D01*
X106972600Y-54475000D02*
X106972600Y-62095000D01*
X117132600Y-54475000D02*
X106972600Y-54475000D01*
X117132600Y-62095000D02*
X117132600Y-54475000D01*
X117132600Y-60825000D02*
X106972600Y-60825000D01*
G04 #@! TO.C,LED0_3*
X94972600Y-62095000D02*
X105132600Y-62095000D01*
X94972600Y-54475000D02*
X94972600Y-62095000D01*
X105132600Y-54475000D02*
X94972600Y-54475000D01*
X105132600Y-62095000D02*
X105132600Y-54475000D01*
X105132600Y-60825000D02*
X94972600Y-60825000D01*
G04 #@! TO.C,LED0_2*
X82972600Y-62095000D02*
X93132600Y-62095000D01*
X82972600Y-54475000D02*
X82972600Y-62095000D01*
X93132600Y-54475000D02*
X82972600Y-54475000D01*
X93132600Y-62095000D02*
X93132600Y-54475000D01*
X93132600Y-60825000D02*
X82972600Y-60825000D01*
G04 #@! TO.C,LED0_1*
X70972600Y-62095000D02*
X81132600Y-62095000D01*
X70972600Y-54475000D02*
X70972600Y-62095000D01*
X81132600Y-54475000D02*
X70972600Y-54475000D01*
X81132600Y-62095000D02*
X81132600Y-54475000D01*
X81132600Y-60825000D02*
X70972600Y-60825000D01*
G04 #@! TO.C,LED0_0*
X58972600Y-62095000D02*
X69132600Y-62095000D01*
X58972600Y-54475000D02*
X58972600Y-62095000D01*
X69132600Y-54475000D02*
X58972600Y-54475000D01*
X69132600Y-62095000D02*
X69132600Y-54475000D01*
X69132600Y-60825000D02*
X58972600Y-60825000D01*
G04 #@! TO.C,RJ1*
X208851200Y-133153000D02*
X208851200Y-151113000D01*
X224371200Y-133153000D02*
X208851200Y-133153000D01*
X224371200Y-133153000D02*
X224371200Y-151113000D01*
X208851200Y-151113000D02*
X224371200Y-151113000D01*
X208666200Y-137033000D02*
X208166200Y-136533000D01*
X208166200Y-136533000D02*
X208166200Y-137533000D01*
X208166200Y-137533000D02*
X208666200Y-137033000D01*
G04 #@! TO.C,RJ0*
X187642200Y-133153000D02*
X187642200Y-151113000D01*
X203162200Y-133153000D02*
X187642200Y-133153000D01*
X203162200Y-133153000D02*
X203162200Y-151113000D01*
X187642200Y-151113000D02*
X203162200Y-151113000D01*
X187457200Y-137033000D02*
X186957200Y-136533000D01*
X186957200Y-136533000D02*
X186957200Y-137533000D01*
X186957200Y-137533000D02*
X187457200Y-137033000D01*
G04 #@! TO.C,CP0*
X211852025Y-88800600D02*
X211852025Y-89300600D01*
X211602025Y-89050600D02*
X212102025Y-89050600D01*
X217007800Y-90241600D02*
X217007800Y-90809600D01*
X216967800Y-90007600D02*
X216967800Y-91043600D01*
X216927800Y-89848600D02*
X216927800Y-91202600D01*
X216887800Y-89720600D02*
X216887800Y-91330600D01*
X216847800Y-89610600D02*
X216847800Y-91440600D01*
X216807800Y-89514600D02*
X216807800Y-91536600D01*
X216767800Y-89427600D02*
X216767800Y-91623600D01*
X216727800Y-89347600D02*
X216727800Y-91703600D01*
X216687800Y-91565600D02*
X216687800Y-91776600D01*
X216687800Y-89274600D02*
X216687800Y-89485600D01*
X216647800Y-91565600D02*
X216647800Y-91844600D01*
X216647800Y-89206600D02*
X216647800Y-89485600D01*
X216607800Y-91565600D02*
X216607800Y-91908600D01*
X216607800Y-89142600D02*
X216607800Y-89485600D01*
X216567800Y-91565600D02*
X216567800Y-91968600D01*
X216567800Y-89082600D02*
X216567800Y-89485600D01*
X216527800Y-91565600D02*
X216527800Y-92025600D01*
X216527800Y-89025600D02*
X216527800Y-89485600D01*
X216487800Y-91565600D02*
X216487800Y-92079600D01*
X216487800Y-88971600D02*
X216487800Y-89485600D01*
X216447800Y-91565600D02*
X216447800Y-92130600D01*
X216447800Y-88920600D02*
X216447800Y-89485600D01*
X216407800Y-91565600D02*
X216407800Y-92178600D01*
X216407800Y-88872600D02*
X216407800Y-89485600D01*
X216367800Y-91565600D02*
X216367800Y-92224600D01*
X216367800Y-88826600D02*
X216367800Y-89485600D01*
X216327800Y-91565600D02*
X216327800Y-92268600D01*
X216327800Y-88782600D02*
X216327800Y-89485600D01*
X216287800Y-91565600D02*
X216287800Y-92310600D01*
X216287800Y-88740600D02*
X216287800Y-89485600D01*
X216247800Y-91565600D02*
X216247800Y-92351600D01*
X216247800Y-88699600D02*
X216247800Y-89485600D01*
X216207800Y-91565600D02*
X216207800Y-92389600D01*
X216207800Y-88661600D02*
X216207800Y-89485600D01*
X216167800Y-91565600D02*
X216167800Y-92426600D01*
X216167800Y-88624600D02*
X216167800Y-89485600D01*
X216127800Y-91565600D02*
X216127800Y-92462600D01*
X216127800Y-88588600D02*
X216127800Y-89485600D01*
X216087800Y-91565600D02*
X216087800Y-92496600D01*
X216087800Y-88554600D02*
X216087800Y-89485600D01*
X216047800Y-91565600D02*
X216047800Y-92529600D01*
X216047800Y-88521600D02*
X216047800Y-89485600D01*
X216007800Y-91565600D02*
X216007800Y-92560600D01*
X216007800Y-88490600D02*
X216007800Y-89485600D01*
X215967800Y-91565600D02*
X215967800Y-92590600D01*
X215967800Y-88460600D02*
X215967800Y-89485600D01*
X215927800Y-91565600D02*
X215927800Y-92620600D01*
X215927800Y-88430600D02*
X215927800Y-89485600D01*
X215887800Y-91565600D02*
X215887800Y-92647600D01*
X215887800Y-88403600D02*
X215887800Y-89485600D01*
X215847800Y-91565600D02*
X215847800Y-92674600D01*
X215847800Y-88376600D02*
X215847800Y-89485600D01*
X215807800Y-91565600D02*
X215807800Y-92700600D01*
X215807800Y-88350600D02*
X215807800Y-89485600D01*
X215767800Y-91565600D02*
X215767800Y-92725600D01*
X215767800Y-88325600D02*
X215767800Y-89485600D01*
X215727800Y-91565600D02*
X215727800Y-92749600D01*
X215727800Y-88301600D02*
X215727800Y-89485600D01*
X215687800Y-91565600D02*
X215687800Y-92772600D01*
X215687800Y-88278600D02*
X215687800Y-89485600D01*
X215647800Y-91565600D02*
X215647800Y-92793600D01*
X215647800Y-88257600D02*
X215647800Y-89485600D01*
X215607800Y-91565600D02*
X215607800Y-92815600D01*
X215607800Y-88235600D02*
X215607800Y-89485600D01*
X215567800Y-91565600D02*
X215567800Y-92835600D01*
X215567800Y-88215600D02*
X215567800Y-89485600D01*
X215527800Y-91565600D02*
X215527800Y-92854600D01*
X215527800Y-88196600D02*
X215527800Y-89485600D01*
X215487800Y-91565600D02*
X215487800Y-92873600D01*
X215487800Y-88177600D02*
X215487800Y-89485600D01*
X215447800Y-91565600D02*
X215447800Y-92890600D01*
X215447800Y-88160600D02*
X215447800Y-89485600D01*
X215407800Y-91565600D02*
X215407800Y-92907600D01*
X215407800Y-88143600D02*
X215407800Y-89485600D01*
X215367800Y-91565600D02*
X215367800Y-92923600D01*
X215367800Y-88127600D02*
X215367800Y-89485600D01*
X215327800Y-91565600D02*
X215327800Y-92939600D01*
X215327800Y-88111600D02*
X215327800Y-89485600D01*
X215287800Y-91565600D02*
X215287800Y-92953600D01*
X215287800Y-88097600D02*
X215287800Y-89485600D01*
X215247800Y-91565600D02*
X215247800Y-92967600D01*
X215247800Y-88083600D02*
X215247800Y-89485600D01*
X215207800Y-91565600D02*
X215207800Y-92980600D01*
X215207800Y-88070600D02*
X215207800Y-89485600D01*
X215167800Y-91565600D02*
X215167800Y-92993600D01*
X215167800Y-88057600D02*
X215167800Y-89485600D01*
X215127800Y-91565600D02*
X215127800Y-93005600D01*
X215127800Y-88045600D02*
X215127800Y-89485600D01*
X215086800Y-91565600D02*
X215086800Y-93016600D01*
X215086800Y-88034600D02*
X215086800Y-89485600D01*
X215046800Y-91565600D02*
X215046800Y-93026600D01*
X215046800Y-88024600D02*
X215046800Y-89485600D01*
X215006800Y-91565600D02*
X215006800Y-93036600D01*
X215006800Y-88014600D02*
X215006800Y-89485600D01*
X214966800Y-91565600D02*
X214966800Y-93045600D01*
X214966800Y-88005600D02*
X214966800Y-89485600D01*
X214926800Y-91565600D02*
X214926800Y-93053600D01*
X214926800Y-87997600D02*
X214926800Y-89485600D01*
X214886800Y-91565600D02*
X214886800Y-93061600D01*
X214886800Y-87989600D02*
X214886800Y-89485600D01*
X214846800Y-91565600D02*
X214846800Y-93068600D01*
X214846800Y-87982600D02*
X214846800Y-89485600D01*
X214806800Y-91565600D02*
X214806800Y-93075600D01*
X214806800Y-87975600D02*
X214806800Y-89485600D01*
X214766800Y-91565600D02*
X214766800Y-93081600D01*
X214766800Y-87969600D02*
X214766800Y-89485600D01*
X214726800Y-91565600D02*
X214726800Y-93086600D01*
X214726800Y-87964600D02*
X214726800Y-89485600D01*
X214686800Y-91565600D02*
X214686800Y-93090600D01*
X214686800Y-87960600D02*
X214686800Y-89485600D01*
X214646800Y-91565600D02*
X214646800Y-93094600D01*
X214646800Y-87956600D02*
X214646800Y-89485600D01*
X214606800Y-87952600D02*
X214606800Y-93098600D01*
X214566800Y-87949600D02*
X214566800Y-93101600D01*
X214526800Y-87947600D02*
X214526800Y-93103600D01*
X214486800Y-87946600D02*
X214486800Y-93104600D01*
X214446800Y-87945600D02*
X214446800Y-93105600D01*
X214406800Y-87945600D02*
X214406800Y-93105600D01*
X217026800Y-90525600D02*
G75*
G03X217026800Y-90525600I-2620000J0D01*
G01*
G04 #@! TO.C,C0.1nF0*
X209476801Y-126744000D02*
X209476801Y-126344000D01*
X209676801Y-126544000D02*
X209276801Y-126544000D01*
X205326000Y-125719000D02*
X205326000Y-124979000D01*
X205366000Y-125886000D02*
X205366000Y-124812000D01*
X205406000Y-126013000D02*
X205406000Y-124685000D01*
X205446000Y-126117000D02*
X205446000Y-124581000D01*
X205486000Y-126208000D02*
X205486000Y-124490000D01*
X205526000Y-126289000D02*
X205526000Y-124409000D01*
X205566000Y-126362000D02*
X205566000Y-124336000D01*
X205606000Y-124509000D02*
X205606000Y-124269000D01*
X205606000Y-126429000D02*
X205606000Y-126189000D01*
X205646000Y-124509000D02*
X205646000Y-124207000D01*
X205646000Y-126491000D02*
X205646000Y-126189000D01*
X205686000Y-124509000D02*
X205686000Y-124149000D01*
X205686000Y-126549000D02*
X205686000Y-126189000D01*
X205726000Y-124509000D02*
X205726000Y-124095000D01*
X205726000Y-126603000D02*
X205726000Y-126189000D01*
X205766000Y-124509000D02*
X205766000Y-124045000D01*
X205766000Y-126653000D02*
X205766000Y-126189000D01*
X205806000Y-124509000D02*
X205806000Y-123998000D01*
X205806000Y-126700000D02*
X205806000Y-126189000D01*
X205846000Y-124509000D02*
X205846000Y-123953000D01*
X205846000Y-126745000D02*
X205846000Y-126189000D01*
X205886000Y-124509000D02*
X205886000Y-123911000D01*
X205886000Y-126787000D02*
X205886000Y-126189000D01*
X205926000Y-124509000D02*
X205926000Y-123871000D01*
X205926000Y-126827000D02*
X205926000Y-126189000D01*
X205966000Y-124509000D02*
X205966000Y-123833000D01*
X205966000Y-126865000D02*
X205966000Y-126189000D01*
X206006000Y-124509000D02*
X206006000Y-123797000D01*
X206006000Y-126901000D02*
X206006000Y-126189000D01*
X206046000Y-124509000D02*
X206046000Y-123762000D01*
X206046000Y-126936000D02*
X206046000Y-126189000D01*
X206086000Y-124509000D02*
X206086000Y-123730000D01*
X206086000Y-126968000D02*
X206086000Y-126189000D01*
X206126000Y-124509000D02*
X206126000Y-123699000D01*
X206126000Y-126999000D02*
X206126000Y-126189000D01*
X206166000Y-124509000D02*
X206166000Y-123669000D01*
X206166000Y-127029000D02*
X206166000Y-126189000D01*
X206206000Y-124509000D02*
X206206000Y-123641000D01*
X206206000Y-127057000D02*
X206206000Y-126189000D01*
X206246000Y-124509000D02*
X206246000Y-123614000D01*
X206246000Y-127084000D02*
X206246000Y-126189000D01*
X206286000Y-124509000D02*
X206286000Y-123589000D01*
X206286000Y-127109000D02*
X206286000Y-126189000D01*
X206326000Y-124509000D02*
X206326000Y-123564000D01*
X206326000Y-127134000D02*
X206326000Y-126189000D01*
X206366000Y-124509000D02*
X206366000Y-123541000D01*
X206366000Y-127157000D02*
X206366000Y-126189000D01*
X206406000Y-124509000D02*
X206406000Y-123519000D01*
X206406000Y-127179000D02*
X206406000Y-126189000D01*
X206446000Y-124509000D02*
X206446000Y-123498000D01*
X206446000Y-127200000D02*
X206446000Y-126189000D01*
X206486000Y-124509000D02*
X206486000Y-123479000D01*
X206486000Y-127219000D02*
X206486000Y-126189000D01*
X206526000Y-124509000D02*
X206526000Y-123460000D01*
X206526000Y-127238000D02*
X206526000Y-126189000D01*
X206566000Y-124509000D02*
X206566000Y-123442000D01*
X206566000Y-127256000D02*
X206566000Y-126189000D01*
X206606000Y-124509000D02*
X206606000Y-123425000D01*
X206606000Y-127273000D02*
X206606000Y-126189000D01*
X206646000Y-124509000D02*
X206646000Y-123409000D01*
X206646000Y-127289000D02*
X206646000Y-126189000D01*
X206686000Y-124509000D02*
X206686000Y-123395000D01*
X206686000Y-127303000D02*
X206686000Y-126189000D01*
X206727000Y-124509000D02*
X206727000Y-123381000D01*
X206727000Y-127317000D02*
X206727000Y-126189000D01*
X206767000Y-124509000D02*
X206767000Y-123367000D01*
X206767000Y-127331000D02*
X206767000Y-126189000D01*
X206807000Y-124509000D02*
X206807000Y-123355000D01*
X206807000Y-127343000D02*
X206807000Y-126189000D01*
X206847000Y-124509000D02*
X206847000Y-123344000D01*
X206847000Y-127354000D02*
X206847000Y-126189000D01*
X206887000Y-124509000D02*
X206887000Y-123333000D01*
X206887000Y-127365000D02*
X206887000Y-126189000D01*
X206927000Y-124509000D02*
X206927000Y-123324000D01*
X206927000Y-127374000D02*
X206927000Y-126189000D01*
X206967000Y-124509000D02*
X206967000Y-123315000D01*
X206967000Y-127383000D02*
X206967000Y-126189000D01*
X207007000Y-124509000D02*
X207007000Y-123307000D01*
X207007000Y-127391000D02*
X207007000Y-126189000D01*
X207047000Y-124509000D02*
X207047000Y-123299000D01*
X207047000Y-127399000D02*
X207047000Y-126189000D01*
X207087000Y-124509000D02*
X207087000Y-123293000D01*
X207087000Y-127405000D02*
X207087000Y-126189000D01*
X207127000Y-124509000D02*
X207127000Y-123287000D01*
X207127000Y-127411000D02*
X207127000Y-126189000D01*
X207167000Y-124509000D02*
X207167000Y-123282000D01*
X207167000Y-127416000D02*
X207167000Y-126189000D01*
X207207000Y-124509000D02*
X207207000Y-123278000D01*
X207207000Y-127420000D02*
X207207000Y-126189000D01*
X207247000Y-127423000D02*
X207247000Y-123275000D01*
X207287000Y-127426000D02*
X207287000Y-123272000D01*
X207327000Y-127428000D02*
X207327000Y-123270000D01*
X207367000Y-127429000D02*
X207367000Y-123269000D01*
X207407000Y-127429000D02*
X207407000Y-123269000D01*
X209527000Y-125349000D02*
G75*
G03X209527000Y-125349000I-2120000J0D01*
G01*
G04 #@! TO.C,+5V_IN1*
X221030800Y-44018200D02*
X210870800Y-44018200D01*
X221030800Y-51638200D02*
X221030800Y-44018200D01*
X210870800Y-51638200D02*
X221030800Y-51638200D01*
X210870800Y-44018200D02*
X210870800Y-51638200D01*
X210870800Y-45288200D02*
X221030800Y-45288200D01*
G04 #@! TO.C,GND1*
X214290600Y-127219400D02*
X215620600Y-127219400D01*
X214290600Y-128549400D02*
X214290600Y-127219400D01*
X214290600Y-129819400D02*
X216950600Y-129819400D01*
X216950600Y-129819400D02*
X216950600Y-129879400D01*
X214290600Y-129819400D02*
X214290600Y-129879400D01*
X214290600Y-129879400D02*
X216950600Y-129879400D01*
D13*
G04 #@! TO.C,RS-485*
X198920100Y-120434100D02*
X198920100Y-124675900D01*
X204177900Y-124675900D02*
X204177900Y-120434100D01*
G04 #@! TO.C,Prt_IC1*
X194195700Y-121688860D02*
X194195700Y-120675400D01*
X194195700Y-120675400D02*
X192544700Y-120675400D01*
X194195700Y-123926600D02*
X194195700Y-122913140D01*
X192544700Y-123926600D02*
X194195700Y-123926600D01*
X192544700Y-121963139D02*
X192544700Y-122638861D01*
D12*
G04 #@! TO.C,J3*
X208220000Y-86681000D02*
X209550000Y-86681000D01*
X208220000Y-88011000D02*
X208220000Y-86681000D01*
X208220000Y-89281000D02*
X210880000Y-89281000D01*
X210880000Y-89281000D02*
X210880000Y-117281000D01*
X208220000Y-89281000D02*
X208220000Y-117281000D01*
X208220000Y-117281000D02*
X210880000Y-117281000D01*
G04 #@! TO.C,J2*
X187900000Y-76521000D02*
X189230000Y-76521000D01*
X187900000Y-77851000D02*
X187900000Y-76521000D01*
X187900000Y-79121000D02*
X190560000Y-79121000D01*
X190560000Y-79121000D02*
X190560000Y-117281000D01*
X187900000Y-79121000D02*
X187900000Y-117281000D01*
X187900000Y-117281000D02*
X190560000Y-117281000D01*
G04 #@! TD*
G04 #@! TO.C,R11*
D11*
X173093142Y-144140180D02*
X172759809Y-143663990D01*
X172521714Y-144140180D02*
X172521714Y-143140180D01*
X172902666Y-143140180D01*
X172997904Y-143187800D01*
X173045523Y-143235419D01*
X173093142Y-143330657D01*
X173093142Y-143473514D01*
X173045523Y-143568752D01*
X172997904Y-143616371D01*
X172902666Y-143663990D01*
X172521714Y-143663990D01*
X174045523Y-144140180D02*
X173474095Y-144140180D01*
X173759809Y-144140180D02*
X173759809Y-143140180D01*
X173664571Y-143283038D01*
X173569333Y-143378276D01*
X173474095Y-143425895D01*
X174997904Y-144140180D02*
X174426476Y-144140180D01*
X174712190Y-144140180D02*
X174712190Y-143140180D01*
X174616952Y-143283038D01*
X174521714Y-143378276D01*
X174426476Y-143425895D01*
G04 #@! TO.C,R10*
X178757342Y-146299180D02*
X178424009Y-145822990D01*
X178185914Y-146299180D02*
X178185914Y-145299180D01*
X178566866Y-145299180D01*
X178662104Y-145346800D01*
X178709723Y-145394419D01*
X178757342Y-145489657D01*
X178757342Y-145632514D01*
X178709723Y-145727752D01*
X178662104Y-145775371D01*
X178566866Y-145822990D01*
X178185914Y-145822990D01*
X179709723Y-146299180D02*
X179138295Y-146299180D01*
X179424009Y-146299180D02*
X179424009Y-145299180D01*
X179328771Y-145442038D01*
X179233533Y-145537276D01*
X179138295Y-145584895D01*
X180328771Y-145299180D02*
X180424009Y-145299180D01*
X180519247Y-145346800D01*
X180566866Y-145394419D01*
X180614485Y-145489657D01*
X180662104Y-145680133D01*
X180662104Y-145918228D01*
X180614485Y-146108704D01*
X180566866Y-146203942D01*
X180519247Y-146251561D01*
X180424009Y-146299180D01*
X180328771Y-146299180D01*
X180233533Y-146251561D01*
X180185914Y-146203942D01*
X180138295Y-146108704D01*
X180090676Y-145918228D01*
X180090676Y-145680133D01*
X180138295Y-145489657D01*
X180185914Y-145394419D01*
X180233533Y-145346800D01*
X180328771Y-145299180D01*
G04 #@! TO.C,R337*
X140943152Y-46676580D02*
X140609819Y-46200390D01*
X140371723Y-46676580D02*
X140371723Y-45676580D01*
X140752676Y-45676580D01*
X140847914Y-45724200D01*
X140895533Y-45771819D01*
X140943152Y-45867057D01*
X140943152Y-46009914D01*
X140895533Y-46105152D01*
X140847914Y-46152771D01*
X140752676Y-46200390D01*
X140371723Y-46200390D01*
X141276485Y-45676580D02*
X141895533Y-45676580D01*
X141562200Y-46057533D01*
X141705057Y-46057533D01*
X141800295Y-46105152D01*
X141847914Y-46152771D01*
X141895533Y-46248009D01*
X141895533Y-46486104D01*
X141847914Y-46581342D01*
X141800295Y-46628961D01*
X141705057Y-46676580D01*
X141419342Y-46676580D01*
X141324104Y-46628961D01*
X141276485Y-46581342D01*
X142228866Y-45676580D02*
X142847914Y-45676580D01*
X142514580Y-46057533D01*
X142657438Y-46057533D01*
X142752676Y-46105152D01*
X142800295Y-46152771D01*
X142847914Y-46248009D01*
X142847914Y-46486104D01*
X142800295Y-46581342D01*
X142752676Y-46628961D01*
X142657438Y-46676580D01*
X142371723Y-46676580D01*
X142276485Y-46628961D01*
X142228866Y-46581342D01*
X143181247Y-45676580D02*
X143847914Y-45676580D01*
X143419342Y-46676580D01*
G04 #@! TO.C,R338*
X152931952Y-50512980D02*
X152598619Y-50036790D01*
X152360523Y-50512980D02*
X152360523Y-49512980D01*
X152741476Y-49512980D01*
X152836714Y-49560600D01*
X152884333Y-49608219D01*
X152931952Y-49703457D01*
X152931952Y-49846314D01*
X152884333Y-49941552D01*
X152836714Y-49989171D01*
X152741476Y-50036790D01*
X152360523Y-50036790D01*
X153265285Y-49512980D02*
X153884333Y-49512980D01*
X153551000Y-49893933D01*
X153693857Y-49893933D01*
X153789095Y-49941552D01*
X153836714Y-49989171D01*
X153884333Y-50084409D01*
X153884333Y-50322504D01*
X153836714Y-50417742D01*
X153789095Y-50465361D01*
X153693857Y-50512980D01*
X153408142Y-50512980D01*
X153312904Y-50465361D01*
X153265285Y-50417742D01*
X154217666Y-49512980D02*
X154836714Y-49512980D01*
X154503380Y-49893933D01*
X154646238Y-49893933D01*
X154741476Y-49941552D01*
X154789095Y-49989171D01*
X154836714Y-50084409D01*
X154836714Y-50322504D01*
X154789095Y-50417742D01*
X154741476Y-50465361D01*
X154646238Y-50512980D01*
X154360523Y-50512980D01*
X154265285Y-50465361D01*
X154217666Y-50417742D01*
X155408142Y-49941552D02*
X155312904Y-49893933D01*
X155265285Y-49846314D01*
X155217666Y-49751076D01*
X155217666Y-49703457D01*
X155265285Y-49608219D01*
X155312904Y-49560600D01*
X155408142Y-49512980D01*
X155598619Y-49512980D01*
X155693857Y-49560600D01*
X155741476Y-49608219D01*
X155789095Y-49703457D01*
X155789095Y-49751076D01*
X155741476Y-49846314D01*
X155693857Y-49893933D01*
X155598619Y-49941552D01*
X155408142Y-49941552D01*
X155312904Y-49989171D01*
X155265285Y-50036790D01*
X155217666Y-50132028D01*
X155217666Y-50322504D01*
X155265285Y-50417742D01*
X155312904Y-50465361D01*
X155408142Y-50512980D01*
X155598619Y-50512980D01*
X155693857Y-50465361D01*
X155741476Y-50417742D01*
X155789095Y-50322504D01*
X155789095Y-50132028D01*
X155741476Y-50036790D01*
X155693857Y-49989171D01*
X155598619Y-49941552D01*
G04 #@! TO.C,R336*
X129259152Y-42540180D02*
X128925819Y-42063990D01*
X128687723Y-42540180D02*
X128687723Y-41540180D01*
X129068676Y-41540180D01*
X129163914Y-41587800D01*
X129211533Y-41635419D01*
X129259152Y-41730657D01*
X129259152Y-41873514D01*
X129211533Y-41968752D01*
X129163914Y-42016371D01*
X129068676Y-42063990D01*
X128687723Y-42063990D01*
X129592485Y-41540180D02*
X130211533Y-41540180D01*
X129878200Y-41921133D01*
X130021057Y-41921133D01*
X130116295Y-41968752D01*
X130163914Y-42016371D01*
X130211533Y-42111609D01*
X130211533Y-42349704D01*
X130163914Y-42444942D01*
X130116295Y-42492561D01*
X130021057Y-42540180D01*
X129735342Y-42540180D01*
X129640104Y-42492561D01*
X129592485Y-42444942D01*
X130544866Y-41540180D02*
X131163914Y-41540180D01*
X130830580Y-41921133D01*
X130973438Y-41921133D01*
X131068676Y-41968752D01*
X131116295Y-42016371D01*
X131163914Y-42111609D01*
X131163914Y-42349704D01*
X131116295Y-42444942D01*
X131068676Y-42492561D01*
X130973438Y-42540180D01*
X130687723Y-42540180D01*
X130592485Y-42492561D01*
X130544866Y-42444942D01*
X132021057Y-41540180D02*
X131830580Y-41540180D01*
X131735342Y-41587800D01*
X131687723Y-41635419D01*
X131592485Y-41778276D01*
X131544866Y-41968752D01*
X131544866Y-42349704D01*
X131592485Y-42444942D01*
X131640104Y-42492561D01*
X131735342Y-42540180D01*
X131925819Y-42540180D01*
X132021057Y-42492561D01*
X132068676Y-42444942D01*
X132116295Y-42349704D01*
X132116295Y-42111609D01*
X132068676Y-42016371D01*
X132021057Y-41968752D01*
X131925819Y-41921133D01*
X131735342Y-41921133D01*
X131640104Y-41968752D01*
X131592485Y-42016371D01*
X131544866Y-42111609D01*
G04 #@! TO.C,R335*
X116940152Y-38383980D02*
X116606819Y-37907790D01*
X116368723Y-38383980D02*
X116368723Y-37383980D01*
X116749676Y-37383980D01*
X116844914Y-37431600D01*
X116892533Y-37479219D01*
X116940152Y-37574457D01*
X116940152Y-37717314D01*
X116892533Y-37812552D01*
X116844914Y-37860171D01*
X116749676Y-37907790D01*
X116368723Y-37907790D01*
X117273485Y-37383980D02*
X117892533Y-37383980D01*
X117559200Y-37764933D01*
X117702057Y-37764933D01*
X117797295Y-37812552D01*
X117844914Y-37860171D01*
X117892533Y-37955409D01*
X117892533Y-38193504D01*
X117844914Y-38288742D01*
X117797295Y-38336361D01*
X117702057Y-38383980D01*
X117416342Y-38383980D01*
X117321104Y-38336361D01*
X117273485Y-38288742D01*
X118225866Y-37383980D02*
X118844914Y-37383980D01*
X118511580Y-37764933D01*
X118654438Y-37764933D01*
X118749676Y-37812552D01*
X118797295Y-37860171D01*
X118844914Y-37955409D01*
X118844914Y-38193504D01*
X118797295Y-38288742D01*
X118749676Y-38336361D01*
X118654438Y-38383980D01*
X118368723Y-38383980D01*
X118273485Y-38336361D01*
X118225866Y-38288742D01*
X119749676Y-37383980D02*
X119273485Y-37383980D01*
X119225866Y-37860171D01*
X119273485Y-37812552D01*
X119368723Y-37764933D01*
X119606819Y-37764933D01*
X119702057Y-37812552D01*
X119749676Y-37860171D01*
X119797295Y-37955409D01*
X119797295Y-38193504D01*
X119749676Y-38288742D01*
X119702057Y-38336361D01*
X119606819Y-38383980D01*
X119368723Y-38383980D01*
X119273485Y-38336361D01*
X119225866Y-38288742D01*
G04 #@! TO.C,R334*
X104925952Y-50363380D02*
X104592619Y-49887190D01*
X104354523Y-50363380D02*
X104354523Y-49363380D01*
X104735476Y-49363380D01*
X104830714Y-49411000D01*
X104878333Y-49458619D01*
X104925952Y-49553857D01*
X104925952Y-49696714D01*
X104878333Y-49791952D01*
X104830714Y-49839571D01*
X104735476Y-49887190D01*
X104354523Y-49887190D01*
X105259285Y-49363380D02*
X105878333Y-49363380D01*
X105545000Y-49744333D01*
X105687857Y-49744333D01*
X105783095Y-49791952D01*
X105830714Y-49839571D01*
X105878333Y-49934809D01*
X105878333Y-50172904D01*
X105830714Y-50268142D01*
X105783095Y-50315761D01*
X105687857Y-50363380D01*
X105402142Y-50363380D01*
X105306904Y-50315761D01*
X105259285Y-50268142D01*
X106211666Y-49363380D02*
X106830714Y-49363380D01*
X106497380Y-49744333D01*
X106640238Y-49744333D01*
X106735476Y-49791952D01*
X106783095Y-49839571D01*
X106830714Y-49934809D01*
X106830714Y-50172904D01*
X106783095Y-50268142D01*
X106735476Y-50315761D01*
X106640238Y-50363380D01*
X106354523Y-50363380D01*
X106259285Y-50315761D01*
X106211666Y-50268142D01*
X107687857Y-49696714D02*
X107687857Y-50363380D01*
X107449761Y-49315761D02*
X107211666Y-50030047D01*
X107830714Y-50030047D01*
G04 #@! TO.C,R333*
X92987952Y-46527980D02*
X92654619Y-46051790D01*
X92416523Y-46527980D02*
X92416523Y-45527980D01*
X92797476Y-45527980D01*
X92892714Y-45575600D01*
X92940333Y-45623219D01*
X92987952Y-45718457D01*
X92987952Y-45861314D01*
X92940333Y-45956552D01*
X92892714Y-46004171D01*
X92797476Y-46051790D01*
X92416523Y-46051790D01*
X93321285Y-45527980D02*
X93940333Y-45527980D01*
X93607000Y-45908933D01*
X93749857Y-45908933D01*
X93845095Y-45956552D01*
X93892714Y-46004171D01*
X93940333Y-46099409D01*
X93940333Y-46337504D01*
X93892714Y-46432742D01*
X93845095Y-46480361D01*
X93749857Y-46527980D01*
X93464142Y-46527980D01*
X93368904Y-46480361D01*
X93321285Y-46432742D01*
X94273666Y-45527980D02*
X94892714Y-45527980D01*
X94559380Y-45908933D01*
X94702238Y-45908933D01*
X94797476Y-45956552D01*
X94845095Y-46004171D01*
X94892714Y-46099409D01*
X94892714Y-46337504D01*
X94845095Y-46432742D01*
X94797476Y-46480361D01*
X94702238Y-46527980D01*
X94416523Y-46527980D01*
X94321285Y-46480361D01*
X94273666Y-46432742D01*
X95226047Y-45527980D02*
X95845095Y-45527980D01*
X95511761Y-45908933D01*
X95654619Y-45908933D01*
X95749857Y-45956552D01*
X95797476Y-46004171D01*
X95845095Y-46099409D01*
X95845095Y-46337504D01*
X95797476Y-46432742D01*
X95749857Y-46480361D01*
X95654619Y-46527980D01*
X95368904Y-46527980D01*
X95273666Y-46480361D01*
X95226047Y-46432742D01*
G04 #@! TO.C,R332*
X80872152Y-42514780D02*
X80538819Y-42038590D01*
X80300723Y-42514780D02*
X80300723Y-41514780D01*
X80681676Y-41514780D01*
X80776914Y-41562400D01*
X80824533Y-41610019D01*
X80872152Y-41705257D01*
X80872152Y-41848114D01*
X80824533Y-41943352D01*
X80776914Y-41990971D01*
X80681676Y-42038590D01*
X80300723Y-42038590D01*
X81205485Y-41514780D02*
X81824533Y-41514780D01*
X81491200Y-41895733D01*
X81634057Y-41895733D01*
X81729295Y-41943352D01*
X81776914Y-41990971D01*
X81824533Y-42086209D01*
X81824533Y-42324304D01*
X81776914Y-42419542D01*
X81729295Y-42467161D01*
X81634057Y-42514780D01*
X81348342Y-42514780D01*
X81253104Y-42467161D01*
X81205485Y-42419542D01*
X82157866Y-41514780D02*
X82776914Y-41514780D01*
X82443580Y-41895733D01*
X82586438Y-41895733D01*
X82681676Y-41943352D01*
X82729295Y-41990971D01*
X82776914Y-42086209D01*
X82776914Y-42324304D01*
X82729295Y-42419542D01*
X82681676Y-42467161D01*
X82586438Y-42514780D01*
X82300723Y-42514780D01*
X82205485Y-42467161D01*
X82157866Y-42419542D01*
X83157866Y-41610019D02*
X83205485Y-41562400D01*
X83300723Y-41514780D01*
X83538819Y-41514780D01*
X83634057Y-41562400D01*
X83681676Y-41610019D01*
X83729295Y-41705257D01*
X83729295Y-41800495D01*
X83681676Y-41943352D01*
X83110247Y-42514780D01*
X83729295Y-42514780D01*
G04 #@! TO.C,R331*
X69264352Y-38374580D02*
X68931019Y-37898390D01*
X68692923Y-38374580D02*
X68692923Y-37374580D01*
X69073876Y-37374580D01*
X69169114Y-37422200D01*
X69216733Y-37469819D01*
X69264352Y-37565057D01*
X69264352Y-37707914D01*
X69216733Y-37803152D01*
X69169114Y-37850771D01*
X69073876Y-37898390D01*
X68692923Y-37898390D01*
X69597685Y-37374580D02*
X70216733Y-37374580D01*
X69883400Y-37755533D01*
X70026257Y-37755533D01*
X70121495Y-37803152D01*
X70169114Y-37850771D01*
X70216733Y-37946009D01*
X70216733Y-38184104D01*
X70169114Y-38279342D01*
X70121495Y-38326961D01*
X70026257Y-38374580D01*
X69740542Y-38374580D01*
X69645304Y-38326961D01*
X69597685Y-38279342D01*
X70550066Y-37374580D02*
X71169114Y-37374580D01*
X70835780Y-37755533D01*
X70978638Y-37755533D01*
X71073876Y-37803152D01*
X71121495Y-37850771D01*
X71169114Y-37946009D01*
X71169114Y-38184104D01*
X71121495Y-38279342D01*
X71073876Y-38326961D01*
X70978638Y-38374580D01*
X70692923Y-38374580D01*
X70597685Y-38326961D01*
X70550066Y-38279342D01*
X72121495Y-38374580D02*
X71550066Y-38374580D01*
X71835780Y-38374580D02*
X71835780Y-37374580D01*
X71740542Y-37517438D01*
X71645304Y-37612676D01*
X71550066Y-37660295D01*
G04 #@! TO.C,R330*
X57097752Y-34513780D02*
X56764419Y-34037590D01*
X56526323Y-34513780D02*
X56526323Y-33513780D01*
X56907276Y-33513780D01*
X57002514Y-33561400D01*
X57050133Y-33609019D01*
X57097752Y-33704257D01*
X57097752Y-33847114D01*
X57050133Y-33942352D01*
X57002514Y-33989971D01*
X56907276Y-34037590D01*
X56526323Y-34037590D01*
X57431085Y-33513780D02*
X58050133Y-33513780D01*
X57716800Y-33894733D01*
X57859657Y-33894733D01*
X57954895Y-33942352D01*
X58002514Y-33989971D01*
X58050133Y-34085209D01*
X58050133Y-34323304D01*
X58002514Y-34418542D01*
X57954895Y-34466161D01*
X57859657Y-34513780D01*
X57573942Y-34513780D01*
X57478704Y-34466161D01*
X57431085Y-34418542D01*
X58383466Y-33513780D02*
X59002514Y-33513780D01*
X58669180Y-33894733D01*
X58812038Y-33894733D01*
X58907276Y-33942352D01*
X58954895Y-33989971D01*
X59002514Y-34085209D01*
X59002514Y-34323304D01*
X58954895Y-34418542D01*
X58907276Y-34466161D01*
X58812038Y-34513780D01*
X58526323Y-34513780D01*
X58431085Y-34466161D01*
X58383466Y-34418542D01*
X59621561Y-33513780D02*
X59716800Y-33513780D01*
X59812038Y-33561400D01*
X59859657Y-33609019D01*
X59907276Y-33704257D01*
X59954895Y-33894733D01*
X59954895Y-34132828D01*
X59907276Y-34323304D01*
X59859657Y-34418542D01*
X59812038Y-34466161D01*
X59716800Y-34513780D01*
X59621561Y-34513780D01*
X59526323Y-34466161D01*
X59478704Y-34418542D01*
X59431085Y-34323304D01*
X59383466Y-34132828D01*
X59383466Y-33894733D01*
X59431085Y-33704257D01*
X59478704Y-33609019D01*
X59526323Y-33561400D01*
X59621561Y-33513780D01*
G04 #@! TO.C,LED7_8*
X158958209Y-130652780D02*
X158482019Y-130652780D01*
X158482019Y-129652780D01*
X159291542Y-130128971D02*
X159624876Y-130128971D01*
X159767733Y-130652780D02*
X159291542Y-130652780D01*
X159291542Y-129652780D01*
X159767733Y-129652780D01*
X160196304Y-130652780D02*
X160196304Y-129652780D01*
X160434400Y-129652780D01*
X160577257Y-129700400D01*
X160672495Y-129795638D01*
X160720114Y-129890876D01*
X160767733Y-130081352D01*
X160767733Y-130224209D01*
X160720114Y-130414685D01*
X160672495Y-130509923D01*
X160577257Y-130605161D01*
X160434400Y-130652780D01*
X160196304Y-130652780D01*
X161101066Y-129652780D02*
X161767733Y-129652780D01*
X161339161Y-130652780D01*
X161910590Y-130748019D02*
X162672495Y-130748019D01*
X163053447Y-130081352D02*
X162958209Y-130033733D01*
X162910590Y-129986114D01*
X162862971Y-129890876D01*
X162862971Y-129843257D01*
X162910590Y-129748019D01*
X162958209Y-129700400D01*
X163053447Y-129652780D01*
X163243923Y-129652780D01*
X163339161Y-129700400D01*
X163386780Y-129748019D01*
X163434400Y-129843257D01*
X163434400Y-129890876D01*
X163386780Y-129986114D01*
X163339161Y-130033733D01*
X163243923Y-130081352D01*
X163053447Y-130081352D01*
X162958209Y-130128971D01*
X162910590Y-130176590D01*
X162862971Y-130271828D01*
X162862971Y-130462304D01*
X162910590Y-130557542D01*
X162958209Y-130605161D01*
X163053447Y-130652780D01*
X163243923Y-130652780D01*
X163339161Y-130605161D01*
X163386780Y-130557542D01*
X163434400Y-130462304D01*
X163434400Y-130271828D01*
X163386780Y-130176590D01*
X163339161Y-130128971D01*
X163243923Y-130081352D01*
G04 #@! TO.C,LED7_7*
X147198009Y-130728980D02*
X146721819Y-130728980D01*
X146721819Y-129728980D01*
X147531342Y-130205171D02*
X147864676Y-130205171D01*
X148007533Y-130728980D02*
X147531342Y-130728980D01*
X147531342Y-129728980D01*
X148007533Y-129728980D01*
X148436104Y-130728980D02*
X148436104Y-129728980D01*
X148674200Y-129728980D01*
X148817057Y-129776600D01*
X148912295Y-129871838D01*
X148959914Y-129967076D01*
X149007533Y-130157552D01*
X149007533Y-130300409D01*
X148959914Y-130490885D01*
X148912295Y-130586123D01*
X148817057Y-130681361D01*
X148674200Y-130728980D01*
X148436104Y-130728980D01*
X149340866Y-129728980D02*
X150007533Y-129728980D01*
X149578961Y-130728980D01*
X150150390Y-130824219D02*
X150912295Y-130824219D01*
X151055152Y-129728980D02*
X151721819Y-129728980D01*
X151293247Y-130728980D01*
G04 #@! TO.C,LED7_6*
X135387009Y-130728980D02*
X134910819Y-130728980D01*
X134910819Y-129728980D01*
X135720342Y-130205171D02*
X136053676Y-130205171D01*
X136196533Y-130728980D02*
X135720342Y-130728980D01*
X135720342Y-129728980D01*
X136196533Y-129728980D01*
X136625104Y-130728980D02*
X136625104Y-129728980D01*
X136863200Y-129728980D01*
X137006057Y-129776600D01*
X137101295Y-129871838D01*
X137148914Y-129967076D01*
X137196533Y-130157552D01*
X137196533Y-130300409D01*
X137148914Y-130490885D01*
X137101295Y-130586123D01*
X137006057Y-130681361D01*
X136863200Y-130728980D01*
X136625104Y-130728980D01*
X137529866Y-129728980D02*
X138196533Y-129728980D01*
X137767961Y-130728980D01*
X138339390Y-130824219D02*
X139101295Y-130824219D01*
X139767961Y-129728980D02*
X139577485Y-129728980D01*
X139482247Y-129776600D01*
X139434628Y-129824219D01*
X139339390Y-129967076D01*
X139291771Y-130157552D01*
X139291771Y-130538504D01*
X139339390Y-130633742D01*
X139387009Y-130681361D01*
X139482247Y-130728980D01*
X139672723Y-130728980D01*
X139767961Y-130681361D01*
X139815580Y-130633742D01*
X139863200Y-130538504D01*
X139863200Y-130300409D01*
X139815580Y-130205171D01*
X139767961Y-130157552D01*
X139672723Y-130109933D01*
X139482247Y-130109933D01*
X139387009Y-130157552D01*
X139339390Y-130205171D01*
X139291771Y-130300409D01*
G04 #@! TO.C,LED7_5*
X123195009Y-130627380D02*
X122718819Y-130627380D01*
X122718819Y-129627380D01*
X123528342Y-130103571D02*
X123861676Y-130103571D01*
X124004533Y-130627380D02*
X123528342Y-130627380D01*
X123528342Y-129627380D01*
X124004533Y-129627380D01*
X124433104Y-130627380D02*
X124433104Y-129627380D01*
X124671200Y-129627380D01*
X124814057Y-129675000D01*
X124909295Y-129770238D01*
X124956914Y-129865476D01*
X125004533Y-130055952D01*
X125004533Y-130198809D01*
X124956914Y-130389285D01*
X124909295Y-130484523D01*
X124814057Y-130579761D01*
X124671200Y-130627380D01*
X124433104Y-130627380D01*
X125337866Y-129627380D02*
X126004533Y-129627380D01*
X125575961Y-130627380D01*
X126147390Y-130722619D02*
X126909295Y-130722619D01*
X127623580Y-129627380D02*
X127147390Y-129627380D01*
X127099771Y-130103571D01*
X127147390Y-130055952D01*
X127242628Y-130008333D01*
X127480723Y-130008333D01*
X127575961Y-130055952D01*
X127623580Y-130103571D01*
X127671200Y-130198809D01*
X127671200Y-130436904D01*
X127623580Y-130532142D01*
X127575961Y-130579761D01*
X127480723Y-130627380D01*
X127242628Y-130627380D01*
X127147390Y-130579761D01*
X127099771Y-130532142D01*
G04 #@! TO.C,LED7_4*
X111206209Y-130627380D02*
X110730019Y-130627380D01*
X110730019Y-129627380D01*
X111539542Y-130103571D02*
X111872876Y-130103571D01*
X112015733Y-130627380D02*
X111539542Y-130627380D01*
X111539542Y-129627380D01*
X112015733Y-129627380D01*
X112444304Y-130627380D02*
X112444304Y-129627380D01*
X112682400Y-129627380D01*
X112825257Y-129675000D01*
X112920495Y-129770238D01*
X112968114Y-129865476D01*
X113015733Y-130055952D01*
X113015733Y-130198809D01*
X112968114Y-130389285D01*
X112920495Y-130484523D01*
X112825257Y-130579761D01*
X112682400Y-130627380D01*
X112444304Y-130627380D01*
X113349066Y-129627380D02*
X114015733Y-129627380D01*
X113587161Y-130627380D01*
X114158590Y-130722619D02*
X114920495Y-130722619D01*
X115587161Y-129960714D02*
X115587161Y-130627380D01*
X115349066Y-129579761D02*
X115110971Y-130294047D01*
X115730019Y-130294047D01*
G04 #@! TO.C,LED7_3*
X99192009Y-130627380D02*
X98715819Y-130627380D01*
X98715819Y-129627380D01*
X99525342Y-130103571D02*
X99858676Y-130103571D01*
X100001533Y-130627380D02*
X99525342Y-130627380D01*
X99525342Y-129627380D01*
X100001533Y-129627380D01*
X100430104Y-130627380D02*
X100430104Y-129627380D01*
X100668200Y-129627380D01*
X100811057Y-129675000D01*
X100906295Y-129770238D01*
X100953914Y-129865476D01*
X101001533Y-130055952D01*
X101001533Y-130198809D01*
X100953914Y-130389285D01*
X100906295Y-130484523D01*
X100811057Y-130579761D01*
X100668200Y-130627380D01*
X100430104Y-130627380D01*
X101334866Y-129627380D02*
X102001533Y-129627380D01*
X101572961Y-130627380D01*
X102144390Y-130722619D02*
X102906295Y-130722619D01*
X103049152Y-129627380D02*
X103668200Y-129627380D01*
X103334866Y-130008333D01*
X103477723Y-130008333D01*
X103572961Y-130055952D01*
X103620580Y-130103571D01*
X103668200Y-130198809D01*
X103668200Y-130436904D01*
X103620580Y-130532142D01*
X103572961Y-130579761D01*
X103477723Y-130627380D01*
X103192009Y-130627380D01*
X103096771Y-130579761D01*
X103049152Y-130532142D01*
G04 #@! TO.C,LED7_2*
X87355609Y-130678180D02*
X86879419Y-130678180D01*
X86879419Y-129678180D01*
X87688942Y-130154371D02*
X88022276Y-130154371D01*
X88165133Y-130678180D02*
X87688942Y-130678180D01*
X87688942Y-129678180D01*
X88165133Y-129678180D01*
X88593704Y-130678180D02*
X88593704Y-129678180D01*
X88831800Y-129678180D01*
X88974657Y-129725800D01*
X89069895Y-129821038D01*
X89117514Y-129916276D01*
X89165133Y-130106752D01*
X89165133Y-130249609D01*
X89117514Y-130440085D01*
X89069895Y-130535323D01*
X88974657Y-130630561D01*
X88831800Y-130678180D01*
X88593704Y-130678180D01*
X89498466Y-129678180D02*
X90165133Y-129678180D01*
X89736561Y-130678180D01*
X90307990Y-130773419D02*
X91069895Y-130773419D01*
X91260371Y-129773419D02*
X91307990Y-129725800D01*
X91403228Y-129678180D01*
X91641323Y-129678180D01*
X91736561Y-129725800D01*
X91784180Y-129773419D01*
X91831800Y-129868657D01*
X91831800Y-129963895D01*
X91784180Y-130106752D01*
X91212752Y-130678180D01*
X91831800Y-130678180D01*
G04 #@! TO.C,LED7_1*
X75544609Y-130805180D02*
X75068419Y-130805180D01*
X75068419Y-129805180D01*
X75877942Y-130281371D02*
X76211276Y-130281371D01*
X76354133Y-130805180D02*
X75877942Y-130805180D01*
X75877942Y-129805180D01*
X76354133Y-129805180D01*
X76782704Y-130805180D02*
X76782704Y-129805180D01*
X77020800Y-129805180D01*
X77163657Y-129852800D01*
X77258895Y-129948038D01*
X77306514Y-130043276D01*
X77354133Y-130233752D01*
X77354133Y-130376609D01*
X77306514Y-130567085D01*
X77258895Y-130662323D01*
X77163657Y-130757561D01*
X77020800Y-130805180D01*
X76782704Y-130805180D01*
X77687466Y-129805180D02*
X78354133Y-129805180D01*
X77925561Y-130805180D01*
X78496990Y-130900419D02*
X79258895Y-130900419D01*
X80020800Y-130805180D02*
X79449371Y-130805180D01*
X79735085Y-130805180D02*
X79735085Y-129805180D01*
X79639847Y-129948038D01*
X79544609Y-130043276D01*
X79449371Y-130090895D01*
G04 #@! TO.C,LED7_0*
X63962209Y-130728980D02*
X63486019Y-130728980D01*
X63486019Y-129728980D01*
X64295542Y-130205171D02*
X64628876Y-130205171D01*
X64771733Y-130728980D02*
X64295542Y-130728980D01*
X64295542Y-129728980D01*
X64771733Y-129728980D01*
X65200304Y-130728980D02*
X65200304Y-129728980D01*
X65438400Y-129728980D01*
X65581257Y-129776600D01*
X65676495Y-129871838D01*
X65724114Y-129967076D01*
X65771733Y-130157552D01*
X65771733Y-130300409D01*
X65724114Y-130490885D01*
X65676495Y-130586123D01*
X65581257Y-130681361D01*
X65438400Y-130728980D01*
X65200304Y-130728980D01*
X66105066Y-129728980D02*
X66771733Y-129728980D01*
X66343161Y-130728980D01*
X66914590Y-130824219D02*
X67676495Y-130824219D01*
X68105066Y-129728980D02*
X68200304Y-129728980D01*
X68295542Y-129776600D01*
X68343161Y-129824219D01*
X68390780Y-129919457D01*
X68438400Y-130109933D01*
X68438400Y-130348028D01*
X68390780Y-130538504D01*
X68343161Y-130633742D01*
X68295542Y-130681361D01*
X68200304Y-130728980D01*
X68105066Y-130728980D01*
X68009828Y-130681361D01*
X67962209Y-130633742D01*
X67914590Y-130538504D01*
X67866971Y-130348028D01*
X67866971Y-130109933D01*
X67914590Y-129919457D01*
X67962209Y-129824219D01*
X68009828Y-129776600D01*
X68105066Y-129728980D01*
G04 #@! TO.C,LED6_8*
X159542409Y-119756180D02*
X159066219Y-119756180D01*
X159066219Y-118756180D01*
X159875742Y-119232371D02*
X160209076Y-119232371D01*
X160351933Y-119756180D02*
X159875742Y-119756180D01*
X159875742Y-118756180D01*
X160351933Y-118756180D01*
X160780504Y-119756180D02*
X160780504Y-118756180D01*
X161018600Y-118756180D01*
X161161457Y-118803800D01*
X161256695Y-118899038D01*
X161304314Y-118994276D01*
X161351933Y-119184752D01*
X161351933Y-119327609D01*
X161304314Y-119518085D01*
X161256695Y-119613323D01*
X161161457Y-119708561D01*
X161018600Y-119756180D01*
X160780504Y-119756180D01*
X162209076Y-118756180D02*
X162018600Y-118756180D01*
X161923361Y-118803800D01*
X161875742Y-118851419D01*
X161780504Y-118994276D01*
X161732885Y-119184752D01*
X161732885Y-119565704D01*
X161780504Y-119660942D01*
X161828123Y-119708561D01*
X161923361Y-119756180D01*
X162113838Y-119756180D01*
X162209076Y-119708561D01*
X162256695Y-119660942D01*
X162304314Y-119565704D01*
X162304314Y-119327609D01*
X162256695Y-119232371D01*
X162209076Y-119184752D01*
X162113838Y-119137133D01*
X161923361Y-119137133D01*
X161828123Y-119184752D01*
X161780504Y-119232371D01*
X161732885Y-119327609D01*
X162494790Y-119851419D02*
X163256695Y-119851419D01*
X163637647Y-119184752D02*
X163542409Y-119137133D01*
X163494790Y-119089514D01*
X163447171Y-118994276D01*
X163447171Y-118946657D01*
X163494790Y-118851419D01*
X163542409Y-118803800D01*
X163637647Y-118756180D01*
X163828123Y-118756180D01*
X163923361Y-118803800D01*
X163970980Y-118851419D01*
X164018600Y-118946657D01*
X164018600Y-118994276D01*
X163970980Y-119089514D01*
X163923361Y-119137133D01*
X163828123Y-119184752D01*
X163637647Y-119184752D01*
X163542409Y-119232371D01*
X163494790Y-119279990D01*
X163447171Y-119375228D01*
X163447171Y-119565704D01*
X163494790Y-119660942D01*
X163542409Y-119708561D01*
X163637647Y-119756180D01*
X163828123Y-119756180D01*
X163923361Y-119708561D01*
X163970980Y-119660942D01*
X164018600Y-119565704D01*
X164018600Y-119375228D01*
X163970980Y-119279990D01*
X163923361Y-119232371D01*
X163828123Y-119184752D01*
G04 #@! TO.C,LED6_7*
X147909209Y-119705380D02*
X147433019Y-119705380D01*
X147433019Y-118705380D01*
X148242542Y-119181571D02*
X148575876Y-119181571D01*
X148718733Y-119705380D02*
X148242542Y-119705380D01*
X148242542Y-118705380D01*
X148718733Y-118705380D01*
X149147304Y-119705380D02*
X149147304Y-118705380D01*
X149385400Y-118705380D01*
X149528257Y-118753000D01*
X149623495Y-118848238D01*
X149671114Y-118943476D01*
X149718733Y-119133952D01*
X149718733Y-119276809D01*
X149671114Y-119467285D01*
X149623495Y-119562523D01*
X149528257Y-119657761D01*
X149385400Y-119705380D01*
X149147304Y-119705380D01*
X150575876Y-118705380D02*
X150385400Y-118705380D01*
X150290161Y-118753000D01*
X150242542Y-118800619D01*
X150147304Y-118943476D01*
X150099685Y-119133952D01*
X150099685Y-119514904D01*
X150147304Y-119610142D01*
X150194923Y-119657761D01*
X150290161Y-119705380D01*
X150480638Y-119705380D01*
X150575876Y-119657761D01*
X150623495Y-119610142D01*
X150671114Y-119514904D01*
X150671114Y-119276809D01*
X150623495Y-119181571D01*
X150575876Y-119133952D01*
X150480638Y-119086333D01*
X150290161Y-119086333D01*
X150194923Y-119133952D01*
X150147304Y-119181571D01*
X150099685Y-119276809D01*
X150861590Y-119800619D02*
X151623495Y-119800619D01*
X151766352Y-118705380D02*
X152433019Y-118705380D01*
X152004447Y-119705380D01*
G04 #@! TO.C,LED6_6*
X135183809Y-119705380D02*
X134707619Y-119705380D01*
X134707619Y-118705380D01*
X135517142Y-119181571D02*
X135850476Y-119181571D01*
X135993333Y-119705380D02*
X135517142Y-119705380D01*
X135517142Y-118705380D01*
X135993333Y-118705380D01*
X136421904Y-119705380D02*
X136421904Y-118705380D01*
X136660000Y-118705380D01*
X136802857Y-118753000D01*
X136898095Y-118848238D01*
X136945714Y-118943476D01*
X136993333Y-119133952D01*
X136993333Y-119276809D01*
X136945714Y-119467285D01*
X136898095Y-119562523D01*
X136802857Y-119657761D01*
X136660000Y-119705380D01*
X136421904Y-119705380D01*
X137850476Y-118705380D02*
X137660000Y-118705380D01*
X137564761Y-118753000D01*
X137517142Y-118800619D01*
X137421904Y-118943476D01*
X137374285Y-119133952D01*
X137374285Y-119514904D01*
X137421904Y-119610142D01*
X137469523Y-119657761D01*
X137564761Y-119705380D01*
X137755238Y-119705380D01*
X137850476Y-119657761D01*
X137898095Y-119610142D01*
X137945714Y-119514904D01*
X137945714Y-119276809D01*
X137898095Y-119181571D01*
X137850476Y-119133952D01*
X137755238Y-119086333D01*
X137564761Y-119086333D01*
X137469523Y-119133952D01*
X137421904Y-119181571D01*
X137374285Y-119276809D01*
X138136190Y-119800619D02*
X138898095Y-119800619D01*
X139564761Y-118705380D02*
X139374285Y-118705380D01*
X139279047Y-118753000D01*
X139231428Y-118800619D01*
X139136190Y-118943476D01*
X139088571Y-119133952D01*
X139088571Y-119514904D01*
X139136190Y-119610142D01*
X139183809Y-119657761D01*
X139279047Y-119705380D01*
X139469523Y-119705380D01*
X139564761Y-119657761D01*
X139612380Y-119610142D01*
X139660000Y-119514904D01*
X139660000Y-119276809D01*
X139612380Y-119181571D01*
X139564761Y-119133952D01*
X139469523Y-119086333D01*
X139279047Y-119086333D01*
X139183809Y-119133952D01*
X139136190Y-119181571D01*
X139088571Y-119276809D01*
G04 #@! TO.C,LED6_5*
X123296609Y-119629180D02*
X122820419Y-119629180D01*
X122820419Y-118629180D01*
X123629942Y-119105371D02*
X123963276Y-119105371D01*
X124106133Y-119629180D02*
X123629942Y-119629180D01*
X123629942Y-118629180D01*
X124106133Y-118629180D01*
X124534704Y-119629180D02*
X124534704Y-118629180D01*
X124772800Y-118629180D01*
X124915657Y-118676800D01*
X125010895Y-118772038D01*
X125058514Y-118867276D01*
X125106133Y-119057752D01*
X125106133Y-119200609D01*
X125058514Y-119391085D01*
X125010895Y-119486323D01*
X124915657Y-119581561D01*
X124772800Y-119629180D01*
X124534704Y-119629180D01*
X125963276Y-118629180D02*
X125772800Y-118629180D01*
X125677561Y-118676800D01*
X125629942Y-118724419D01*
X125534704Y-118867276D01*
X125487085Y-119057752D01*
X125487085Y-119438704D01*
X125534704Y-119533942D01*
X125582323Y-119581561D01*
X125677561Y-119629180D01*
X125868038Y-119629180D01*
X125963276Y-119581561D01*
X126010895Y-119533942D01*
X126058514Y-119438704D01*
X126058514Y-119200609D01*
X126010895Y-119105371D01*
X125963276Y-119057752D01*
X125868038Y-119010133D01*
X125677561Y-119010133D01*
X125582323Y-119057752D01*
X125534704Y-119105371D01*
X125487085Y-119200609D01*
X126248990Y-119724419D02*
X127010895Y-119724419D01*
X127725180Y-118629180D02*
X127248990Y-118629180D01*
X127201371Y-119105371D01*
X127248990Y-119057752D01*
X127344228Y-119010133D01*
X127582323Y-119010133D01*
X127677561Y-119057752D01*
X127725180Y-119105371D01*
X127772800Y-119200609D01*
X127772800Y-119438704D01*
X127725180Y-119533942D01*
X127677561Y-119581561D01*
X127582323Y-119629180D01*
X127344228Y-119629180D01*
X127248990Y-119581561D01*
X127201371Y-119533942D01*
G04 #@! TO.C,LED6_4*
X111638009Y-119629180D02*
X111161819Y-119629180D01*
X111161819Y-118629180D01*
X111971342Y-119105371D02*
X112304676Y-119105371D01*
X112447533Y-119629180D02*
X111971342Y-119629180D01*
X111971342Y-118629180D01*
X112447533Y-118629180D01*
X112876104Y-119629180D02*
X112876104Y-118629180D01*
X113114200Y-118629180D01*
X113257057Y-118676800D01*
X113352295Y-118772038D01*
X113399914Y-118867276D01*
X113447533Y-119057752D01*
X113447533Y-119200609D01*
X113399914Y-119391085D01*
X113352295Y-119486323D01*
X113257057Y-119581561D01*
X113114200Y-119629180D01*
X112876104Y-119629180D01*
X114304676Y-118629180D02*
X114114200Y-118629180D01*
X114018961Y-118676800D01*
X113971342Y-118724419D01*
X113876104Y-118867276D01*
X113828485Y-119057752D01*
X113828485Y-119438704D01*
X113876104Y-119533942D01*
X113923723Y-119581561D01*
X114018961Y-119629180D01*
X114209438Y-119629180D01*
X114304676Y-119581561D01*
X114352295Y-119533942D01*
X114399914Y-119438704D01*
X114399914Y-119200609D01*
X114352295Y-119105371D01*
X114304676Y-119057752D01*
X114209438Y-119010133D01*
X114018961Y-119010133D01*
X113923723Y-119057752D01*
X113876104Y-119105371D01*
X113828485Y-119200609D01*
X114590390Y-119724419D02*
X115352295Y-119724419D01*
X116018961Y-118962514D02*
X116018961Y-119629180D01*
X115780866Y-118581561D02*
X115542771Y-119295847D01*
X116161819Y-119295847D01*
G04 #@! TO.C,LED6_3*
X99369809Y-119629180D02*
X98893619Y-119629180D01*
X98893619Y-118629180D01*
X99703142Y-119105371D02*
X100036476Y-119105371D01*
X100179333Y-119629180D02*
X99703142Y-119629180D01*
X99703142Y-118629180D01*
X100179333Y-118629180D01*
X100607904Y-119629180D02*
X100607904Y-118629180D01*
X100846000Y-118629180D01*
X100988857Y-118676800D01*
X101084095Y-118772038D01*
X101131714Y-118867276D01*
X101179333Y-119057752D01*
X101179333Y-119200609D01*
X101131714Y-119391085D01*
X101084095Y-119486323D01*
X100988857Y-119581561D01*
X100846000Y-119629180D01*
X100607904Y-119629180D01*
X102036476Y-118629180D02*
X101846000Y-118629180D01*
X101750761Y-118676800D01*
X101703142Y-118724419D01*
X101607904Y-118867276D01*
X101560285Y-119057752D01*
X101560285Y-119438704D01*
X101607904Y-119533942D01*
X101655523Y-119581561D01*
X101750761Y-119629180D01*
X101941238Y-119629180D01*
X102036476Y-119581561D01*
X102084095Y-119533942D01*
X102131714Y-119438704D01*
X102131714Y-119200609D01*
X102084095Y-119105371D01*
X102036476Y-119057752D01*
X101941238Y-119010133D01*
X101750761Y-119010133D01*
X101655523Y-119057752D01*
X101607904Y-119105371D01*
X101560285Y-119200609D01*
X102322190Y-119724419D02*
X103084095Y-119724419D01*
X103226952Y-118629180D02*
X103846000Y-118629180D01*
X103512666Y-119010133D01*
X103655523Y-119010133D01*
X103750761Y-119057752D01*
X103798380Y-119105371D01*
X103846000Y-119200609D01*
X103846000Y-119438704D01*
X103798380Y-119533942D01*
X103750761Y-119581561D01*
X103655523Y-119629180D01*
X103369809Y-119629180D01*
X103274571Y-119581561D01*
X103226952Y-119533942D01*
G04 #@! TO.C,LED6_2*
X87863609Y-119679980D02*
X87387419Y-119679980D01*
X87387419Y-118679980D01*
X88196942Y-119156171D02*
X88530276Y-119156171D01*
X88673133Y-119679980D02*
X88196942Y-119679980D01*
X88196942Y-118679980D01*
X88673133Y-118679980D01*
X89101704Y-119679980D02*
X89101704Y-118679980D01*
X89339800Y-118679980D01*
X89482657Y-118727600D01*
X89577895Y-118822838D01*
X89625514Y-118918076D01*
X89673133Y-119108552D01*
X89673133Y-119251409D01*
X89625514Y-119441885D01*
X89577895Y-119537123D01*
X89482657Y-119632361D01*
X89339800Y-119679980D01*
X89101704Y-119679980D01*
X90530276Y-118679980D02*
X90339800Y-118679980D01*
X90244561Y-118727600D01*
X90196942Y-118775219D01*
X90101704Y-118918076D01*
X90054085Y-119108552D01*
X90054085Y-119489504D01*
X90101704Y-119584742D01*
X90149323Y-119632361D01*
X90244561Y-119679980D01*
X90435038Y-119679980D01*
X90530276Y-119632361D01*
X90577895Y-119584742D01*
X90625514Y-119489504D01*
X90625514Y-119251409D01*
X90577895Y-119156171D01*
X90530276Y-119108552D01*
X90435038Y-119060933D01*
X90244561Y-119060933D01*
X90149323Y-119108552D01*
X90101704Y-119156171D01*
X90054085Y-119251409D01*
X90815990Y-119775219D02*
X91577895Y-119775219D01*
X91768371Y-118775219D02*
X91815990Y-118727600D01*
X91911228Y-118679980D01*
X92149323Y-118679980D01*
X92244561Y-118727600D01*
X92292180Y-118775219D01*
X92339800Y-118870457D01*
X92339800Y-118965695D01*
X92292180Y-119108552D01*
X91720752Y-119679980D01*
X92339800Y-119679980D01*
G04 #@! TO.C,LED6_1*
X75341409Y-119603780D02*
X74865219Y-119603780D01*
X74865219Y-118603780D01*
X75674742Y-119079971D02*
X76008076Y-119079971D01*
X76150933Y-119603780D02*
X75674742Y-119603780D01*
X75674742Y-118603780D01*
X76150933Y-118603780D01*
X76579504Y-119603780D02*
X76579504Y-118603780D01*
X76817600Y-118603780D01*
X76960457Y-118651400D01*
X77055695Y-118746638D01*
X77103314Y-118841876D01*
X77150933Y-119032352D01*
X77150933Y-119175209D01*
X77103314Y-119365685D01*
X77055695Y-119460923D01*
X76960457Y-119556161D01*
X76817600Y-119603780D01*
X76579504Y-119603780D01*
X78008076Y-118603780D02*
X77817600Y-118603780D01*
X77722361Y-118651400D01*
X77674742Y-118699019D01*
X77579504Y-118841876D01*
X77531885Y-119032352D01*
X77531885Y-119413304D01*
X77579504Y-119508542D01*
X77627123Y-119556161D01*
X77722361Y-119603780D01*
X77912838Y-119603780D01*
X78008076Y-119556161D01*
X78055695Y-119508542D01*
X78103314Y-119413304D01*
X78103314Y-119175209D01*
X78055695Y-119079971D01*
X78008076Y-119032352D01*
X77912838Y-118984733D01*
X77722361Y-118984733D01*
X77627123Y-119032352D01*
X77579504Y-119079971D01*
X77531885Y-119175209D01*
X78293790Y-119699019D02*
X79055695Y-119699019D01*
X79817600Y-119603780D02*
X79246171Y-119603780D01*
X79531885Y-119603780D02*
X79531885Y-118603780D01*
X79436647Y-118746638D01*
X79341409Y-118841876D01*
X79246171Y-118889495D01*
G04 #@! TO.C,LED6_0*
X63530409Y-119730780D02*
X63054219Y-119730780D01*
X63054219Y-118730780D01*
X63863742Y-119206971D02*
X64197076Y-119206971D01*
X64339933Y-119730780D02*
X63863742Y-119730780D01*
X63863742Y-118730780D01*
X64339933Y-118730780D01*
X64768504Y-119730780D02*
X64768504Y-118730780D01*
X65006600Y-118730780D01*
X65149457Y-118778400D01*
X65244695Y-118873638D01*
X65292314Y-118968876D01*
X65339933Y-119159352D01*
X65339933Y-119302209D01*
X65292314Y-119492685D01*
X65244695Y-119587923D01*
X65149457Y-119683161D01*
X65006600Y-119730780D01*
X64768504Y-119730780D01*
X66197076Y-118730780D02*
X66006600Y-118730780D01*
X65911361Y-118778400D01*
X65863742Y-118826019D01*
X65768504Y-118968876D01*
X65720885Y-119159352D01*
X65720885Y-119540304D01*
X65768504Y-119635542D01*
X65816123Y-119683161D01*
X65911361Y-119730780D01*
X66101838Y-119730780D01*
X66197076Y-119683161D01*
X66244695Y-119635542D01*
X66292314Y-119540304D01*
X66292314Y-119302209D01*
X66244695Y-119206971D01*
X66197076Y-119159352D01*
X66101838Y-119111733D01*
X65911361Y-119111733D01*
X65816123Y-119159352D01*
X65768504Y-119206971D01*
X65720885Y-119302209D01*
X66482790Y-119826019D02*
X67244695Y-119826019D01*
X67673266Y-118730780D02*
X67768504Y-118730780D01*
X67863742Y-118778400D01*
X67911361Y-118826019D01*
X67958980Y-118921257D01*
X68006600Y-119111733D01*
X68006600Y-119349828D01*
X67958980Y-119540304D01*
X67911361Y-119635542D01*
X67863742Y-119683161D01*
X67768504Y-119730780D01*
X67673266Y-119730780D01*
X67578028Y-119683161D01*
X67530409Y-119635542D01*
X67482790Y-119540304D01*
X67435171Y-119349828D01*
X67435171Y-119111733D01*
X67482790Y-118921257D01*
X67530409Y-118826019D01*
X67578028Y-118778400D01*
X67673266Y-118730780D01*
G04 #@! TO.C,LED5_8*
X159999609Y-108783380D02*
X159523419Y-108783380D01*
X159523419Y-107783380D01*
X160332942Y-108259571D02*
X160666276Y-108259571D01*
X160809133Y-108783380D02*
X160332942Y-108783380D01*
X160332942Y-107783380D01*
X160809133Y-107783380D01*
X161237704Y-108783380D02*
X161237704Y-107783380D01*
X161475800Y-107783380D01*
X161618657Y-107831000D01*
X161713895Y-107926238D01*
X161761514Y-108021476D01*
X161809133Y-108211952D01*
X161809133Y-108354809D01*
X161761514Y-108545285D01*
X161713895Y-108640523D01*
X161618657Y-108735761D01*
X161475800Y-108783380D01*
X161237704Y-108783380D01*
X162713895Y-107783380D02*
X162237704Y-107783380D01*
X162190085Y-108259571D01*
X162237704Y-108211952D01*
X162332942Y-108164333D01*
X162571038Y-108164333D01*
X162666276Y-108211952D01*
X162713895Y-108259571D01*
X162761514Y-108354809D01*
X162761514Y-108592904D01*
X162713895Y-108688142D01*
X162666276Y-108735761D01*
X162571038Y-108783380D01*
X162332942Y-108783380D01*
X162237704Y-108735761D01*
X162190085Y-108688142D01*
X162951990Y-108878619D02*
X163713895Y-108878619D01*
X164094847Y-108211952D02*
X163999609Y-108164333D01*
X163951990Y-108116714D01*
X163904371Y-108021476D01*
X163904371Y-107973857D01*
X163951990Y-107878619D01*
X163999609Y-107831000D01*
X164094847Y-107783380D01*
X164285323Y-107783380D01*
X164380561Y-107831000D01*
X164428180Y-107878619D01*
X164475800Y-107973857D01*
X164475800Y-108021476D01*
X164428180Y-108116714D01*
X164380561Y-108164333D01*
X164285323Y-108211952D01*
X164094847Y-108211952D01*
X163999609Y-108259571D01*
X163951990Y-108307190D01*
X163904371Y-108402428D01*
X163904371Y-108592904D01*
X163951990Y-108688142D01*
X163999609Y-108735761D01*
X164094847Y-108783380D01*
X164285323Y-108783380D01*
X164380561Y-108735761D01*
X164428180Y-108688142D01*
X164475800Y-108592904D01*
X164475800Y-108402428D01*
X164428180Y-108307190D01*
X164380561Y-108259571D01*
X164285323Y-108211952D01*
G04 #@! TO.C,LED5_7*
X148010809Y-108834180D02*
X147534619Y-108834180D01*
X147534619Y-107834180D01*
X148344142Y-108310371D02*
X148677476Y-108310371D01*
X148820333Y-108834180D02*
X148344142Y-108834180D01*
X148344142Y-107834180D01*
X148820333Y-107834180D01*
X149248904Y-108834180D02*
X149248904Y-107834180D01*
X149487000Y-107834180D01*
X149629857Y-107881800D01*
X149725095Y-107977038D01*
X149772714Y-108072276D01*
X149820333Y-108262752D01*
X149820333Y-108405609D01*
X149772714Y-108596085D01*
X149725095Y-108691323D01*
X149629857Y-108786561D01*
X149487000Y-108834180D01*
X149248904Y-108834180D01*
X150725095Y-107834180D02*
X150248904Y-107834180D01*
X150201285Y-108310371D01*
X150248904Y-108262752D01*
X150344142Y-108215133D01*
X150582238Y-108215133D01*
X150677476Y-108262752D01*
X150725095Y-108310371D01*
X150772714Y-108405609D01*
X150772714Y-108643704D01*
X150725095Y-108738942D01*
X150677476Y-108786561D01*
X150582238Y-108834180D01*
X150344142Y-108834180D01*
X150248904Y-108786561D01*
X150201285Y-108738942D01*
X150963190Y-108929419D02*
X151725095Y-108929419D01*
X151867952Y-107834180D02*
X152534619Y-107834180D01*
X152106047Y-108834180D01*
G04 #@! TO.C,LED5_6*
X135818809Y-108834180D02*
X135342619Y-108834180D01*
X135342619Y-107834180D01*
X136152142Y-108310371D02*
X136485476Y-108310371D01*
X136628333Y-108834180D02*
X136152142Y-108834180D01*
X136152142Y-107834180D01*
X136628333Y-107834180D01*
X137056904Y-108834180D02*
X137056904Y-107834180D01*
X137295000Y-107834180D01*
X137437857Y-107881800D01*
X137533095Y-107977038D01*
X137580714Y-108072276D01*
X137628333Y-108262752D01*
X137628333Y-108405609D01*
X137580714Y-108596085D01*
X137533095Y-108691323D01*
X137437857Y-108786561D01*
X137295000Y-108834180D01*
X137056904Y-108834180D01*
X138533095Y-107834180D02*
X138056904Y-107834180D01*
X138009285Y-108310371D01*
X138056904Y-108262752D01*
X138152142Y-108215133D01*
X138390238Y-108215133D01*
X138485476Y-108262752D01*
X138533095Y-108310371D01*
X138580714Y-108405609D01*
X138580714Y-108643704D01*
X138533095Y-108738942D01*
X138485476Y-108786561D01*
X138390238Y-108834180D01*
X138152142Y-108834180D01*
X138056904Y-108786561D01*
X138009285Y-108738942D01*
X138771190Y-108929419D02*
X139533095Y-108929419D01*
X140199761Y-107834180D02*
X140009285Y-107834180D01*
X139914047Y-107881800D01*
X139866428Y-107929419D01*
X139771190Y-108072276D01*
X139723571Y-108262752D01*
X139723571Y-108643704D01*
X139771190Y-108738942D01*
X139818809Y-108786561D01*
X139914047Y-108834180D01*
X140104523Y-108834180D01*
X140199761Y-108786561D01*
X140247380Y-108738942D01*
X140295000Y-108643704D01*
X140295000Y-108405609D01*
X140247380Y-108310371D01*
X140199761Y-108262752D01*
X140104523Y-108215133D01*
X139914047Y-108215133D01*
X139818809Y-108262752D01*
X139771190Y-108310371D01*
X139723571Y-108405609D01*
G04 #@! TO.C,LED5_5*
X123118809Y-108732580D02*
X122642619Y-108732580D01*
X122642619Y-107732580D01*
X123452142Y-108208771D02*
X123785476Y-108208771D01*
X123928333Y-108732580D02*
X123452142Y-108732580D01*
X123452142Y-107732580D01*
X123928333Y-107732580D01*
X124356904Y-108732580D02*
X124356904Y-107732580D01*
X124595000Y-107732580D01*
X124737857Y-107780200D01*
X124833095Y-107875438D01*
X124880714Y-107970676D01*
X124928333Y-108161152D01*
X124928333Y-108304009D01*
X124880714Y-108494485D01*
X124833095Y-108589723D01*
X124737857Y-108684961D01*
X124595000Y-108732580D01*
X124356904Y-108732580D01*
X125833095Y-107732580D02*
X125356904Y-107732580D01*
X125309285Y-108208771D01*
X125356904Y-108161152D01*
X125452142Y-108113533D01*
X125690238Y-108113533D01*
X125785476Y-108161152D01*
X125833095Y-108208771D01*
X125880714Y-108304009D01*
X125880714Y-108542104D01*
X125833095Y-108637342D01*
X125785476Y-108684961D01*
X125690238Y-108732580D01*
X125452142Y-108732580D01*
X125356904Y-108684961D01*
X125309285Y-108637342D01*
X126071190Y-108827819D02*
X126833095Y-108827819D01*
X127547380Y-107732580D02*
X127071190Y-107732580D01*
X127023571Y-108208771D01*
X127071190Y-108161152D01*
X127166428Y-108113533D01*
X127404523Y-108113533D01*
X127499761Y-108161152D01*
X127547380Y-108208771D01*
X127595000Y-108304009D01*
X127595000Y-108542104D01*
X127547380Y-108637342D01*
X127499761Y-108684961D01*
X127404523Y-108732580D01*
X127166428Y-108732580D01*
X127071190Y-108684961D01*
X127023571Y-108637342D01*
G04 #@! TO.C,LED5_4*
X111409409Y-108580180D02*
X110933219Y-108580180D01*
X110933219Y-107580180D01*
X111742742Y-108056371D02*
X112076076Y-108056371D01*
X112218933Y-108580180D02*
X111742742Y-108580180D01*
X111742742Y-107580180D01*
X112218933Y-107580180D01*
X112647504Y-108580180D02*
X112647504Y-107580180D01*
X112885600Y-107580180D01*
X113028457Y-107627800D01*
X113123695Y-107723038D01*
X113171314Y-107818276D01*
X113218933Y-108008752D01*
X113218933Y-108151609D01*
X113171314Y-108342085D01*
X113123695Y-108437323D01*
X113028457Y-108532561D01*
X112885600Y-108580180D01*
X112647504Y-108580180D01*
X114123695Y-107580180D02*
X113647504Y-107580180D01*
X113599885Y-108056371D01*
X113647504Y-108008752D01*
X113742742Y-107961133D01*
X113980838Y-107961133D01*
X114076076Y-108008752D01*
X114123695Y-108056371D01*
X114171314Y-108151609D01*
X114171314Y-108389704D01*
X114123695Y-108484942D01*
X114076076Y-108532561D01*
X113980838Y-108580180D01*
X113742742Y-108580180D01*
X113647504Y-108532561D01*
X113599885Y-108484942D01*
X114361790Y-108675419D02*
X115123695Y-108675419D01*
X115790361Y-107913514D02*
X115790361Y-108580180D01*
X115552266Y-107532561D02*
X115314171Y-108246847D01*
X115933219Y-108246847D01*
G04 #@! TO.C,LED5_3*
X99268209Y-108580180D02*
X98792019Y-108580180D01*
X98792019Y-107580180D01*
X99601542Y-108056371D02*
X99934876Y-108056371D01*
X100077733Y-108580180D02*
X99601542Y-108580180D01*
X99601542Y-107580180D01*
X100077733Y-107580180D01*
X100506304Y-108580180D02*
X100506304Y-107580180D01*
X100744400Y-107580180D01*
X100887257Y-107627800D01*
X100982495Y-107723038D01*
X101030114Y-107818276D01*
X101077733Y-108008752D01*
X101077733Y-108151609D01*
X101030114Y-108342085D01*
X100982495Y-108437323D01*
X100887257Y-108532561D01*
X100744400Y-108580180D01*
X100506304Y-108580180D01*
X101982495Y-107580180D02*
X101506304Y-107580180D01*
X101458685Y-108056371D01*
X101506304Y-108008752D01*
X101601542Y-107961133D01*
X101839638Y-107961133D01*
X101934876Y-108008752D01*
X101982495Y-108056371D01*
X102030114Y-108151609D01*
X102030114Y-108389704D01*
X101982495Y-108484942D01*
X101934876Y-108532561D01*
X101839638Y-108580180D01*
X101601542Y-108580180D01*
X101506304Y-108532561D01*
X101458685Y-108484942D01*
X102220590Y-108675419D02*
X102982495Y-108675419D01*
X103125352Y-107580180D02*
X103744400Y-107580180D01*
X103411066Y-107961133D01*
X103553923Y-107961133D01*
X103649161Y-108008752D01*
X103696780Y-108056371D01*
X103744400Y-108151609D01*
X103744400Y-108389704D01*
X103696780Y-108484942D01*
X103649161Y-108532561D01*
X103553923Y-108580180D01*
X103268209Y-108580180D01*
X103172971Y-108532561D01*
X103125352Y-108484942D01*
G04 #@! TO.C,LED5_2*
X87152409Y-108757980D02*
X86676219Y-108757980D01*
X86676219Y-107757980D01*
X87485742Y-108234171D02*
X87819076Y-108234171D01*
X87961933Y-108757980D02*
X87485742Y-108757980D01*
X87485742Y-107757980D01*
X87961933Y-107757980D01*
X88390504Y-108757980D02*
X88390504Y-107757980D01*
X88628600Y-107757980D01*
X88771457Y-107805600D01*
X88866695Y-107900838D01*
X88914314Y-107996076D01*
X88961933Y-108186552D01*
X88961933Y-108329409D01*
X88914314Y-108519885D01*
X88866695Y-108615123D01*
X88771457Y-108710361D01*
X88628600Y-108757980D01*
X88390504Y-108757980D01*
X89866695Y-107757980D02*
X89390504Y-107757980D01*
X89342885Y-108234171D01*
X89390504Y-108186552D01*
X89485742Y-108138933D01*
X89723838Y-108138933D01*
X89819076Y-108186552D01*
X89866695Y-108234171D01*
X89914314Y-108329409D01*
X89914314Y-108567504D01*
X89866695Y-108662742D01*
X89819076Y-108710361D01*
X89723838Y-108757980D01*
X89485742Y-108757980D01*
X89390504Y-108710361D01*
X89342885Y-108662742D01*
X90104790Y-108853219D02*
X90866695Y-108853219D01*
X91057171Y-107853219D02*
X91104790Y-107805600D01*
X91200028Y-107757980D01*
X91438123Y-107757980D01*
X91533361Y-107805600D01*
X91580980Y-107853219D01*
X91628600Y-107948457D01*
X91628600Y-108043695D01*
X91580980Y-108186552D01*
X91009552Y-108757980D01*
X91628600Y-108757980D01*
G04 #@! TO.C,LED5_1*
X75214409Y-108605580D02*
X74738219Y-108605580D01*
X74738219Y-107605580D01*
X75547742Y-108081771D02*
X75881076Y-108081771D01*
X76023933Y-108605580D02*
X75547742Y-108605580D01*
X75547742Y-107605580D01*
X76023933Y-107605580D01*
X76452504Y-108605580D02*
X76452504Y-107605580D01*
X76690600Y-107605580D01*
X76833457Y-107653200D01*
X76928695Y-107748438D01*
X76976314Y-107843676D01*
X77023933Y-108034152D01*
X77023933Y-108177009D01*
X76976314Y-108367485D01*
X76928695Y-108462723D01*
X76833457Y-108557961D01*
X76690600Y-108605580D01*
X76452504Y-108605580D01*
X77928695Y-107605580D02*
X77452504Y-107605580D01*
X77404885Y-108081771D01*
X77452504Y-108034152D01*
X77547742Y-107986533D01*
X77785838Y-107986533D01*
X77881076Y-108034152D01*
X77928695Y-108081771D01*
X77976314Y-108177009D01*
X77976314Y-108415104D01*
X77928695Y-108510342D01*
X77881076Y-108557961D01*
X77785838Y-108605580D01*
X77547742Y-108605580D01*
X77452504Y-108557961D01*
X77404885Y-108510342D01*
X78166790Y-108700819D02*
X78928695Y-108700819D01*
X79690600Y-108605580D02*
X79119171Y-108605580D01*
X79404885Y-108605580D02*
X79404885Y-107605580D01*
X79309647Y-107748438D01*
X79214409Y-107843676D01*
X79119171Y-107891295D01*
G04 #@! TO.C,LED5_0*
X63479609Y-108783380D02*
X63003419Y-108783380D01*
X63003419Y-107783380D01*
X63812942Y-108259571D02*
X64146276Y-108259571D01*
X64289133Y-108783380D02*
X63812942Y-108783380D01*
X63812942Y-107783380D01*
X64289133Y-107783380D01*
X64717704Y-108783380D02*
X64717704Y-107783380D01*
X64955800Y-107783380D01*
X65098657Y-107831000D01*
X65193895Y-107926238D01*
X65241514Y-108021476D01*
X65289133Y-108211952D01*
X65289133Y-108354809D01*
X65241514Y-108545285D01*
X65193895Y-108640523D01*
X65098657Y-108735761D01*
X64955800Y-108783380D01*
X64717704Y-108783380D01*
X66193895Y-107783380D02*
X65717704Y-107783380D01*
X65670085Y-108259571D01*
X65717704Y-108211952D01*
X65812942Y-108164333D01*
X66051038Y-108164333D01*
X66146276Y-108211952D01*
X66193895Y-108259571D01*
X66241514Y-108354809D01*
X66241514Y-108592904D01*
X66193895Y-108688142D01*
X66146276Y-108735761D01*
X66051038Y-108783380D01*
X65812942Y-108783380D01*
X65717704Y-108735761D01*
X65670085Y-108688142D01*
X66431990Y-108878619D02*
X67193895Y-108878619D01*
X67622466Y-107783380D02*
X67717704Y-107783380D01*
X67812942Y-107831000D01*
X67860561Y-107878619D01*
X67908180Y-107973857D01*
X67955800Y-108164333D01*
X67955800Y-108402428D01*
X67908180Y-108592904D01*
X67860561Y-108688142D01*
X67812942Y-108735761D01*
X67717704Y-108783380D01*
X67622466Y-108783380D01*
X67527228Y-108735761D01*
X67479609Y-108688142D01*
X67431990Y-108592904D01*
X67384371Y-108402428D01*
X67384371Y-108164333D01*
X67431990Y-107973857D01*
X67479609Y-107878619D01*
X67527228Y-107831000D01*
X67622466Y-107783380D01*
G04 #@! TO.C,LED4_8*
X159491609Y-97835980D02*
X159015419Y-97835980D01*
X159015419Y-96835980D01*
X159824942Y-97312171D02*
X160158276Y-97312171D01*
X160301133Y-97835980D02*
X159824942Y-97835980D01*
X159824942Y-96835980D01*
X160301133Y-96835980D01*
X160729704Y-97835980D02*
X160729704Y-96835980D01*
X160967800Y-96835980D01*
X161110657Y-96883600D01*
X161205895Y-96978838D01*
X161253514Y-97074076D01*
X161301133Y-97264552D01*
X161301133Y-97407409D01*
X161253514Y-97597885D01*
X161205895Y-97693123D01*
X161110657Y-97788361D01*
X160967800Y-97835980D01*
X160729704Y-97835980D01*
X162158276Y-97169314D02*
X162158276Y-97835980D01*
X161920180Y-96788361D02*
X161682085Y-97502647D01*
X162301133Y-97502647D01*
X162443990Y-97931219D02*
X163205895Y-97931219D01*
X163586847Y-97264552D02*
X163491609Y-97216933D01*
X163443990Y-97169314D01*
X163396371Y-97074076D01*
X163396371Y-97026457D01*
X163443990Y-96931219D01*
X163491609Y-96883600D01*
X163586847Y-96835980D01*
X163777323Y-96835980D01*
X163872561Y-96883600D01*
X163920180Y-96931219D01*
X163967800Y-97026457D01*
X163967800Y-97074076D01*
X163920180Y-97169314D01*
X163872561Y-97216933D01*
X163777323Y-97264552D01*
X163586847Y-97264552D01*
X163491609Y-97312171D01*
X163443990Y-97359790D01*
X163396371Y-97455028D01*
X163396371Y-97645504D01*
X163443990Y-97740742D01*
X163491609Y-97788361D01*
X163586847Y-97835980D01*
X163777323Y-97835980D01*
X163872561Y-97788361D01*
X163920180Y-97740742D01*
X163967800Y-97645504D01*
X163967800Y-97455028D01*
X163920180Y-97359790D01*
X163872561Y-97312171D01*
X163777323Y-97264552D01*
G04 #@! TO.C,LED4_7*
X147401209Y-97556580D02*
X146925019Y-97556580D01*
X146925019Y-96556580D01*
X147734542Y-97032771D02*
X148067876Y-97032771D01*
X148210733Y-97556580D02*
X147734542Y-97556580D01*
X147734542Y-96556580D01*
X148210733Y-96556580D01*
X148639304Y-97556580D02*
X148639304Y-96556580D01*
X148877400Y-96556580D01*
X149020257Y-96604200D01*
X149115495Y-96699438D01*
X149163114Y-96794676D01*
X149210733Y-96985152D01*
X149210733Y-97128009D01*
X149163114Y-97318485D01*
X149115495Y-97413723D01*
X149020257Y-97508961D01*
X148877400Y-97556580D01*
X148639304Y-97556580D01*
X150067876Y-96889914D02*
X150067876Y-97556580D01*
X149829780Y-96508961D02*
X149591685Y-97223247D01*
X150210733Y-97223247D01*
X150353590Y-97651819D02*
X151115495Y-97651819D01*
X151258352Y-96556580D02*
X151925019Y-96556580D01*
X151496447Y-97556580D01*
G04 #@! TO.C,LED4_6*
X135310809Y-97734380D02*
X134834619Y-97734380D01*
X134834619Y-96734380D01*
X135644142Y-97210571D02*
X135977476Y-97210571D01*
X136120333Y-97734380D02*
X135644142Y-97734380D01*
X135644142Y-96734380D01*
X136120333Y-96734380D01*
X136548904Y-97734380D02*
X136548904Y-96734380D01*
X136787000Y-96734380D01*
X136929857Y-96782000D01*
X137025095Y-96877238D01*
X137072714Y-96972476D01*
X137120333Y-97162952D01*
X137120333Y-97305809D01*
X137072714Y-97496285D01*
X137025095Y-97591523D01*
X136929857Y-97686761D01*
X136787000Y-97734380D01*
X136548904Y-97734380D01*
X137977476Y-97067714D02*
X137977476Y-97734380D01*
X137739380Y-96686761D02*
X137501285Y-97401047D01*
X138120333Y-97401047D01*
X138263190Y-97829619D02*
X139025095Y-97829619D01*
X139691761Y-96734380D02*
X139501285Y-96734380D01*
X139406047Y-96782000D01*
X139358428Y-96829619D01*
X139263190Y-96972476D01*
X139215571Y-97162952D01*
X139215571Y-97543904D01*
X139263190Y-97639142D01*
X139310809Y-97686761D01*
X139406047Y-97734380D01*
X139596523Y-97734380D01*
X139691761Y-97686761D01*
X139739380Y-97639142D01*
X139787000Y-97543904D01*
X139787000Y-97305809D01*
X139739380Y-97210571D01*
X139691761Y-97162952D01*
X139596523Y-97115333D01*
X139406047Y-97115333D01*
X139310809Y-97162952D01*
X139263190Y-97210571D01*
X139215571Y-97305809D01*
G04 #@! TO.C,LED4_5*
X123398209Y-97734380D02*
X122922019Y-97734380D01*
X122922019Y-96734380D01*
X123731542Y-97210571D02*
X124064876Y-97210571D01*
X124207733Y-97734380D02*
X123731542Y-97734380D01*
X123731542Y-96734380D01*
X124207733Y-96734380D01*
X124636304Y-97734380D02*
X124636304Y-96734380D01*
X124874400Y-96734380D01*
X125017257Y-96782000D01*
X125112495Y-96877238D01*
X125160114Y-96972476D01*
X125207733Y-97162952D01*
X125207733Y-97305809D01*
X125160114Y-97496285D01*
X125112495Y-97591523D01*
X125017257Y-97686761D01*
X124874400Y-97734380D01*
X124636304Y-97734380D01*
X126064876Y-97067714D02*
X126064876Y-97734380D01*
X125826780Y-96686761D02*
X125588685Y-97401047D01*
X126207733Y-97401047D01*
X126350590Y-97829619D02*
X127112495Y-97829619D01*
X127826780Y-96734380D02*
X127350590Y-96734380D01*
X127302971Y-97210571D01*
X127350590Y-97162952D01*
X127445828Y-97115333D01*
X127683923Y-97115333D01*
X127779161Y-97162952D01*
X127826780Y-97210571D01*
X127874400Y-97305809D01*
X127874400Y-97543904D01*
X127826780Y-97639142D01*
X127779161Y-97686761D01*
X127683923Y-97734380D01*
X127445828Y-97734380D01*
X127350590Y-97686761D01*
X127302971Y-97639142D01*
G04 #@! TO.C,LED4_4*
X111942809Y-97734380D02*
X111466619Y-97734380D01*
X111466619Y-96734380D01*
X112276142Y-97210571D02*
X112609476Y-97210571D01*
X112752333Y-97734380D02*
X112276142Y-97734380D01*
X112276142Y-96734380D01*
X112752333Y-96734380D01*
X113180904Y-97734380D02*
X113180904Y-96734380D01*
X113419000Y-96734380D01*
X113561857Y-96782000D01*
X113657095Y-96877238D01*
X113704714Y-96972476D01*
X113752333Y-97162952D01*
X113752333Y-97305809D01*
X113704714Y-97496285D01*
X113657095Y-97591523D01*
X113561857Y-97686761D01*
X113419000Y-97734380D01*
X113180904Y-97734380D01*
X114609476Y-97067714D02*
X114609476Y-97734380D01*
X114371380Y-96686761D02*
X114133285Y-97401047D01*
X114752333Y-97401047D01*
X114895190Y-97829619D02*
X115657095Y-97829619D01*
X116323761Y-97067714D02*
X116323761Y-97734380D01*
X116085666Y-96686761D02*
X115847571Y-97401047D01*
X116466619Y-97401047D01*
G04 #@! TO.C,LED4_3*
X99700009Y-97632780D02*
X99223819Y-97632780D01*
X99223819Y-96632780D01*
X100033342Y-97108971D02*
X100366676Y-97108971D01*
X100509533Y-97632780D02*
X100033342Y-97632780D01*
X100033342Y-96632780D01*
X100509533Y-96632780D01*
X100938104Y-97632780D02*
X100938104Y-96632780D01*
X101176200Y-96632780D01*
X101319057Y-96680400D01*
X101414295Y-96775638D01*
X101461914Y-96870876D01*
X101509533Y-97061352D01*
X101509533Y-97204209D01*
X101461914Y-97394685D01*
X101414295Y-97489923D01*
X101319057Y-97585161D01*
X101176200Y-97632780D01*
X100938104Y-97632780D01*
X102366676Y-96966114D02*
X102366676Y-97632780D01*
X102128580Y-96585161D02*
X101890485Y-97299447D01*
X102509533Y-97299447D01*
X102652390Y-97728019D02*
X103414295Y-97728019D01*
X103557152Y-96632780D02*
X104176200Y-96632780D01*
X103842866Y-97013733D01*
X103985723Y-97013733D01*
X104080961Y-97061352D01*
X104128580Y-97108971D01*
X104176200Y-97204209D01*
X104176200Y-97442304D01*
X104128580Y-97537542D01*
X104080961Y-97585161D01*
X103985723Y-97632780D01*
X103700009Y-97632780D01*
X103604771Y-97585161D01*
X103557152Y-97537542D01*
G04 #@! TO.C,LED4_2*
X87889009Y-97785180D02*
X87412819Y-97785180D01*
X87412819Y-96785180D01*
X88222342Y-97261371D02*
X88555676Y-97261371D01*
X88698533Y-97785180D02*
X88222342Y-97785180D01*
X88222342Y-96785180D01*
X88698533Y-96785180D01*
X89127104Y-97785180D02*
X89127104Y-96785180D01*
X89365200Y-96785180D01*
X89508057Y-96832800D01*
X89603295Y-96928038D01*
X89650914Y-97023276D01*
X89698533Y-97213752D01*
X89698533Y-97356609D01*
X89650914Y-97547085D01*
X89603295Y-97642323D01*
X89508057Y-97737561D01*
X89365200Y-97785180D01*
X89127104Y-97785180D01*
X90555676Y-97118514D02*
X90555676Y-97785180D01*
X90317580Y-96737561D02*
X90079485Y-97451847D01*
X90698533Y-97451847D01*
X90841390Y-97880419D02*
X91603295Y-97880419D01*
X91793771Y-96880419D02*
X91841390Y-96832800D01*
X91936628Y-96785180D01*
X92174723Y-96785180D01*
X92269961Y-96832800D01*
X92317580Y-96880419D01*
X92365200Y-96975657D01*
X92365200Y-97070895D01*
X92317580Y-97213752D01*
X91746152Y-97785180D01*
X92365200Y-97785180D01*
G04 #@! TO.C,LED4_1*
X75417609Y-97632780D02*
X74941419Y-97632780D01*
X74941419Y-96632780D01*
X75750942Y-97108971D02*
X76084276Y-97108971D01*
X76227133Y-97632780D02*
X75750942Y-97632780D01*
X75750942Y-96632780D01*
X76227133Y-96632780D01*
X76655704Y-97632780D02*
X76655704Y-96632780D01*
X76893800Y-96632780D01*
X77036657Y-96680400D01*
X77131895Y-96775638D01*
X77179514Y-96870876D01*
X77227133Y-97061352D01*
X77227133Y-97204209D01*
X77179514Y-97394685D01*
X77131895Y-97489923D01*
X77036657Y-97585161D01*
X76893800Y-97632780D01*
X76655704Y-97632780D01*
X78084276Y-96966114D02*
X78084276Y-97632780D01*
X77846180Y-96585161D02*
X77608085Y-97299447D01*
X78227133Y-97299447D01*
X78369990Y-97728019D02*
X79131895Y-97728019D01*
X79893800Y-97632780D02*
X79322371Y-97632780D01*
X79608085Y-97632780D02*
X79608085Y-96632780D01*
X79512847Y-96775638D01*
X79417609Y-96870876D01*
X79322371Y-96918495D01*
G04 #@! TO.C,LED4_0*
X63428809Y-97759780D02*
X62952619Y-97759780D01*
X62952619Y-96759780D01*
X63762142Y-97235971D02*
X64095476Y-97235971D01*
X64238333Y-97759780D02*
X63762142Y-97759780D01*
X63762142Y-96759780D01*
X64238333Y-96759780D01*
X64666904Y-97759780D02*
X64666904Y-96759780D01*
X64905000Y-96759780D01*
X65047857Y-96807400D01*
X65143095Y-96902638D01*
X65190714Y-96997876D01*
X65238333Y-97188352D01*
X65238333Y-97331209D01*
X65190714Y-97521685D01*
X65143095Y-97616923D01*
X65047857Y-97712161D01*
X64905000Y-97759780D01*
X64666904Y-97759780D01*
X66095476Y-97093114D02*
X66095476Y-97759780D01*
X65857380Y-96712161D02*
X65619285Y-97426447D01*
X66238333Y-97426447D01*
X66381190Y-97855019D02*
X67143095Y-97855019D01*
X67571666Y-96759780D02*
X67666904Y-96759780D01*
X67762142Y-96807400D01*
X67809761Y-96855019D01*
X67857380Y-96950257D01*
X67905000Y-97140733D01*
X67905000Y-97378828D01*
X67857380Y-97569304D01*
X67809761Y-97664542D01*
X67762142Y-97712161D01*
X67666904Y-97759780D01*
X67571666Y-97759780D01*
X67476428Y-97712161D01*
X67428809Y-97664542D01*
X67381190Y-97569304D01*
X67333571Y-97378828D01*
X67333571Y-97140733D01*
X67381190Y-96950257D01*
X67428809Y-96855019D01*
X67476428Y-96807400D01*
X67571666Y-96759780D01*
G04 #@! TO.C,LED3_8*
X158856609Y-86532980D02*
X158380419Y-86532980D01*
X158380419Y-85532980D01*
X159189942Y-86009171D02*
X159523276Y-86009171D01*
X159666133Y-86532980D02*
X159189942Y-86532980D01*
X159189942Y-85532980D01*
X159666133Y-85532980D01*
X160094704Y-86532980D02*
X160094704Y-85532980D01*
X160332800Y-85532980D01*
X160475657Y-85580600D01*
X160570895Y-85675838D01*
X160618514Y-85771076D01*
X160666133Y-85961552D01*
X160666133Y-86104409D01*
X160618514Y-86294885D01*
X160570895Y-86390123D01*
X160475657Y-86485361D01*
X160332800Y-86532980D01*
X160094704Y-86532980D01*
X160999466Y-85532980D02*
X161618514Y-85532980D01*
X161285180Y-85913933D01*
X161428038Y-85913933D01*
X161523276Y-85961552D01*
X161570895Y-86009171D01*
X161618514Y-86104409D01*
X161618514Y-86342504D01*
X161570895Y-86437742D01*
X161523276Y-86485361D01*
X161428038Y-86532980D01*
X161142323Y-86532980D01*
X161047085Y-86485361D01*
X160999466Y-86437742D01*
X161808990Y-86628219D02*
X162570895Y-86628219D01*
X162951847Y-85961552D02*
X162856609Y-85913933D01*
X162808990Y-85866314D01*
X162761371Y-85771076D01*
X162761371Y-85723457D01*
X162808990Y-85628219D01*
X162856609Y-85580600D01*
X162951847Y-85532980D01*
X163142323Y-85532980D01*
X163237561Y-85580600D01*
X163285180Y-85628219D01*
X163332800Y-85723457D01*
X163332800Y-85771076D01*
X163285180Y-85866314D01*
X163237561Y-85913933D01*
X163142323Y-85961552D01*
X162951847Y-85961552D01*
X162856609Y-86009171D01*
X162808990Y-86056790D01*
X162761371Y-86152028D01*
X162761371Y-86342504D01*
X162808990Y-86437742D01*
X162856609Y-86485361D01*
X162951847Y-86532980D01*
X163142323Y-86532980D01*
X163237561Y-86485361D01*
X163285180Y-86437742D01*
X163332800Y-86342504D01*
X163332800Y-86152028D01*
X163285180Y-86056790D01*
X163237561Y-86009171D01*
X163142323Y-85961552D01*
G04 #@! TO.C,LED3_7*
X146944009Y-86634580D02*
X146467819Y-86634580D01*
X146467819Y-85634580D01*
X147277342Y-86110771D02*
X147610676Y-86110771D01*
X147753533Y-86634580D02*
X147277342Y-86634580D01*
X147277342Y-85634580D01*
X147753533Y-85634580D01*
X148182104Y-86634580D02*
X148182104Y-85634580D01*
X148420200Y-85634580D01*
X148563057Y-85682200D01*
X148658295Y-85777438D01*
X148705914Y-85872676D01*
X148753533Y-86063152D01*
X148753533Y-86206009D01*
X148705914Y-86396485D01*
X148658295Y-86491723D01*
X148563057Y-86586961D01*
X148420200Y-86634580D01*
X148182104Y-86634580D01*
X149086866Y-85634580D02*
X149705914Y-85634580D01*
X149372580Y-86015533D01*
X149515438Y-86015533D01*
X149610676Y-86063152D01*
X149658295Y-86110771D01*
X149705914Y-86206009D01*
X149705914Y-86444104D01*
X149658295Y-86539342D01*
X149610676Y-86586961D01*
X149515438Y-86634580D01*
X149229723Y-86634580D01*
X149134485Y-86586961D01*
X149086866Y-86539342D01*
X149896390Y-86729819D02*
X150658295Y-86729819D01*
X150801152Y-85634580D02*
X151467819Y-85634580D01*
X151039247Y-86634580D01*
G04 #@! TO.C,LED3_6*
X135666409Y-86812380D02*
X135190219Y-86812380D01*
X135190219Y-85812380D01*
X135999742Y-86288571D02*
X136333076Y-86288571D01*
X136475933Y-86812380D02*
X135999742Y-86812380D01*
X135999742Y-85812380D01*
X136475933Y-85812380D01*
X136904504Y-86812380D02*
X136904504Y-85812380D01*
X137142600Y-85812380D01*
X137285457Y-85860000D01*
X137380695Y-85955238D01*
X137428314Y-86050476D01*
X137475933Y-86240952D01*
X137475933Y-86383809D01*
X137428314Y-86574285D01*
X137380695Y-86669523D01*
X137285457Y-86764761D01*
X137142600Y-86812380D01*
X136904504Y-86812380D01*
X137809266Y-85812380D02*
X138428314Y-85812380D01*
X138094980Y-86193333D01*
X138237838Y-86193333D01*
X138333076Y-86240952D01*
X138380695Y-86288571D01*
X138428314Y-86383809D01*
X138428314Y-86621904D01*
X138380695Y-86717142D01*
X138333076Y-86764761D01*
X138237838Y-86812380D01*
X137952123Y-86812380D01*
X137856885Y-86764761D01*
X137809266Y-86717142D01*
X138618790Y-86907619D02*
X139380695Y-86907619D01*
X140047361Y-85812380D02*
X139856885Y-85812380D01*
X139761647Y-85860000D01*
X139714028Y-85907619D01*
X139618790Y-86050476D01*
X139571171Y-86240952D01*
X139571171Y-86621904D01*
X139618790Y-86717142D01*
X139666409Y-86764761D01*
X139761647Y-86812380D01*
X139952123Y-86812380D01*
X140047361Y-86764761D01*
X140094980Y-86717142D01*
X140142600Y-86621904D01*
X140142600Y-86383809D01*
X140094980Y-86288571D01*
X140047361Y-86240952D01*
X139952123Y-86193333D01*
X139761647Y-86193333D01*
X139666409Y-86240952D01*
X139618790Y-86288571D01*
X139571171Y-86383809D01*
G04 #@! TO.C,LED3_5*
X123296609Y-86532980D02*
X122820419Y-86532980D01*
X122820419Y-85532980D01*
X123629942Y-86009171D02*
X123963276Y-86009171D01*
X124106133Y-86532980D02*
X123629942Y-86532980D01*
X123629942Y-85532980D01*
X124106133Y-85532980D01*
X124534704Y-86532980D02*
X124534704Y-85532980D01*
X124772800Y-85532980D01*
X124915657Y-85580600D01*
X125010895Y-85675838D01*
X125058514Y-85771076D01*
X125106133Y-85961552D01*
X125106133Y-86104409D01*
X125058514Y-86294885D01*
X125010895Y-86390123D01*
X124915657Y-86485361D01*
X124772800Y-86532980D01*
X124534704Y-86532980D01*
X125439466Y-85532980D02*
X126058514Y-85532980D01*
X125725180Y-85913933D01*
X125868038Y-85913933D01*
X125963276Y-85961552D01*
X126010895Y-86009171D01*
X126058514Y-86104409D01*
X126058514Y-86342504D01*
X126010895Y-86437742D01*
X125963276Y-86485361D01*
X125868038Y-86532980D01*
X125582323Y-86532980D01*
X125487085Y-86485361D01*
X125439466Y-86437742D01*
X126248990Y-86628219D02*
X127010895Y-86628219D01*
X127725180Y-85532980D02*
X127248990Y-85532980D01*
X127201371Y-86009171D01*
X127248990Y-85961552D01*
X127344228Y-85913933D01*
X127582323Y-85913933D01*
X127677561Y-85961552D01*
X127725180Y-86009171D01*
X127772800Y-86104409D01*
X127772800Y-86342504D01*
X127725180Y-86437742D01*
X127677561Y-86485361D01*
X127582323Y-86532980D01*
X127344228Y-86532980D01*
X127248990Y-86485361D01*
X127201371Y-86437742D01*
G04 #@! TO.C,LED3_4*
X111282409Y-86659980D02*
X110806219Y-86659980D01*
X110806219Y-85659980D01*
X111615742Y-86136171D02*
X111949076Y-86136171D01*
X112091933Y-86659980D02*
X111615742Y-86659980D01*
X111615742Y-85659980D01*
X112091933Y-85659980D01*
X112520504Y-86659980D02*
X112520504Y-85659980D01*
X112758600Y-85659980D01*
X112901457Y-85707600D01*
X112996695Y-85802838D01*
X113044314Y-85898076D01*
X113091933Y-86088552D01*
X113091933Y-86231409D01*
X113044314Y-86421885D01*
X112996695Y-86517123D01*
X112901457Y-86612361D01*
X112758600Y-86659980D01*
X112520504Y-86659980D01*
X113425266Y-85659980D02*
X114044314Y-85659980D01*
X113710980Y-86040933D01*
X113853838Y-86040933D01*
X113949076Y-86088552D01*
X113996695Y-86136171D01*
X114044314Y-86231409D01*
X114044314Y-86469504D01*
X113996695Y-86564742D01*
X113949076Y-86612361D01*
X113853838Y-86659980D01*
X113568123Y-86659980D01*
X113472885Y-86612361D01*
X113425266Y-86564742D01*
X114234790Y-86755219D02*
X114996695Y-86755219D01*
X115663361Y-85993314D02*
X115663361Y-86659980D01*
X115425266Y-85612361D02*
X115187171Y-86326647D01*
X115806219Y-86326647D01*
G04 #@! TO.C,LED3_3*
X99369809Y-86659980D02*
X98893619Y-86659980D01*
X98893619Y-85659980D01*
X99703142Y-86136171D02*
X100036476Y-86136171D01*
X100179333Y-86659980D02*
X99703142Y-86659980D01*
X99703142Y-85659980D01*
X100179333Y-85659980D01*
X100607904Y-86659980D02*
X100607904Y-85659980D01*
X100846000Y-85659980D01*
X100988857Y-85707600D01*
X101084095Y-85802838D01*
X101131714Y-85898076D01*
X101179333Y-86088552D01*
X101179333Y-86231409D01*
X101131714Y-86421885D01*
X101084095Y-86517123D01*
X100988857Y-86612361D01*
X100846000Y-86659980D01*
X100607904Y-86659980D01*
X101512666Y-85659980D02*
X102131714Y-85659980D01*
X101798380Y-86040933D01*
X101941238Y-86040933D01*
X102036476Y-86088552D01*
X102084095Y-86136171D01*
X102131714Y-86231409D01*
X102131714Y-86469504D01*
X102084095Y-86564742D01*
X102036476Y-86612361D01*
X101941238Y-86659980D01*
X101655523Y-86659980D01*
X101560285Y-86612361D01*
X101512666Y-86564742D01*
X102322190Y-86755219D02*
X103084095Y-86755219D01*
X103226952Y-85659980D02*
X103846000Y-85659980D01*
X103512666Y-86040933D01*
X103655523Y-86040933D01*
X103750761Y-86088552D01*
X103798380Y-86136171D01*
X103846000Y-86231409D01*
X103846000Y-86469504D01*
X103798380Y-86564742D01*
X103750761Y-86612361D01*
X103655523Y-86659980D01*
X103369809Y-86659980D01*
X103274571Y-86612361D01*
X103226952Y-86564742D01*
G04 #@! TO.C,LED3_2*
X88295409Y-86812380D02*
X87819219Y-86812380D01*
X87819219Y-85812380D01*
X88628742Y-86288571D02*
X88962076Y-86288571D01*
X89104933Y-86812380D02*
X88628742Y-86812380D01*
X88628742Y-85812380D01*
X89104933Y-85812380D01*
X89533504Y-86812380D02*
X89533504Y-85812380D01*
X89771600Y-85812380D01*
X89914457Y-85860000D01*
X90009695Y-85955238D01*
X90057314Y-86050476D01*
X90104933Y-86240952D01*
X90104933Y-86383809D01*
X90057314Y-86574285D01*
X90009695Y-86669523D01*
X89914457Y-86764761D01*
X89771600Y-86812380D01*
X89533504Y-86812380D01*
X90438266Y-85812380D02*
X91057314Y-85812380D01*
X90723980Y-86193333D01*
X90866838Y-86193333D01*
X90962076Y-86240952D01*
X91009695Y-86288571D01*
X91057314Y-86383809D01*
X91057314Y-86621904D01*
X91009695Y-86717142D01*
X90962076Y-86764761D01*
X90866838Y-86812380D01*
X90581123Y-86812380D01*
X90485885Y-86764761D01*
X90438266Y-86717142D01*
X91247790Y-86907619D02*
X92009695Y-86907619D01*
X92200171Y-85907619D02*
X92247790Y-85860000D01*
X92343028Y-85812380D01*
X92581123Y-85812380D01*
X92676361Y-85860000D01*
X92723980Y-85907619D01*
X92771600Y-86002857D01*
X92771600Y-86098095D01*
X92723980Y-86240952D01*
X92152552Y-86812380D01*
X92771600Y-86812380D01*
G04 #@! TO.C,LED3_1*
X75874809Y-86812380D02*
X75398619Y-86812380D01*
X75398619Y-85812380D01*
X76208142Y-86288571D02*
X76541476Y-86288571D01*
X76684333Y-86812380D02*
X76208142Y-86812380D01*
X76208142Y-85812380D01*
X76684333Y-85812380D01*
X77112904Y-86812380D02*
X77112904Y-85812380D01*
X77351000Y-85812380D01*
X77493857Y-85860000D01*
X77589095Y-85955238D01*
X77636714Y-86050476D01*
X77684333Y-86240952D01*
X77684333Y-86383809D01*
X77636714Y-86574285D01*
X77589095Y-86669523D01*
X77493857Y-86764761D01*
X77351000Y-86812380D01*
X77112904Y-86812380D01*
X78017666Y-85812380D02*
X78636714Y-85812380D01*
X78303380Y-86193333D01*
X78446238Y-86193333D01*
X78541476Y-86240952D01*
X78589095Y-86288571D01*
X78636714Y-86383809D01*
X78636714Y-86621904D01*
X78589095Y-86717142D01*
X78541476Y-86764761D01*
X78446238Y-86812380D01*
X78160523Y-86812380D01*
X78065285Y-86764761D01*
X78017666Y-86717142D01*
X78827190Y-86907619D02*
X79589095Y-86907619D01*
X80351000Y-86812380D02*
X79779571Y-86812380D01*
X80065285Y-86812380D02*
X80065285Y-85812380D01*
X79970047Y-85955238D01*
X79874809Y-86050476D01*
X79779571Y-86098095D01*
G04 #@! TO.C,LED3_0*
X63809809Y-86736180D02*
X63333619Y-86736180D01*
X63333619Y-85736180D01*
X64143142Y-86212371D02*
X64476476Y-86212371D01*
X64619333Y-86736180D02*
X64143142Y-86736180D01*
X64143142Y-85736180D01*
X64619333Y-85736180D01*
X65047904Y-86736180D02*
X65047904Y-85736180D01*
X65286000Y-85736180D01*
X65428857Y-85783800D01*
X65524095Y-85879038D01*
X65571714Y-85974276D01*
X65619333Y-86164752D01*
X65619333Y-86307609D01*
X65571714Y-86498085D01*
X65524095Y-86593323D01*
X65428857Y-86688561D01*
X65286000Y-86736180D01*
X65047904Y-86736180D01*
X65952666Y-85736180D02*
X66571714Y-85736180D01*
X66238380Y-86117133D01*
X66381238Y-86117133D01*
X66476476Y-86164752D01*
X66524095Y-86212371D01*
X66571714Y-86307609D01*
X66571714Y-86545704D01*
X66524095Y-86640942D01*
X66476476Y-86688561D01*
X66381238Y-86736180D01*
X66095523Y-86736180D01*
X66000285Y-86688561D01*
X65952666Y-86640942D01*
X66762190Y-86831419D02*
X67524095Y-86831419D01*
X67952666Y-85736180D02*
X68047904Y-85736180D01*
X68143142Y-85783800D01*
X68190761Y-85831419D01*
X68238380Y-85926657D01*
X68286000Y-86117133D01*
X68286000Y-86355228D01*
X68238380Y-86545704D01*
X68190761Y-86640942D01*
X68143142Y-86688561D01*
X68047904Y-86736180D01*
X67952666Y-86736180D01*
X67857428Y-86688561D01*
X67809809Y-86640942D01*
X67762190Y-86545704D01*
X67714571Y-86355228D01*
X67714571Y-86117133D01*
X67762190Y-85926657D01*
X67809809Y-85831419D01*
X67857428Y-85783800D01*
X67952666Y-85736180D01*
G04 #@! TO.C,LED2_8*
X160075809Y-75788780D02*
X159599619Y-75788780D01*
X159599619Y-74788780D01*
X160409142Y-75264971D02*
X160742476Y-75264971D01*
X160885333Y-75788780D02*
X160409142Y-75788780D01*
X160409142Y-74788780D01*
X160885333Y-74788780D01*
X161313904Y-75788780D02*
X161313904Y-74788780D01*
X161552000Y-74788780D01*
X161694857Y-74836400D01*
X161790095Y-74931638D01*
X161837714Y-75026876D01*
X161885333Y-75217352D01*
X161885333Y-75360209D01*
X161837714Y-75550685D01*
X161790095Y-75645923D01*
X161694857Y-75741161D01*
X161552000Y-75788780D01*
X161313904Y-75788780D01*
X162266285Y-74884019D02*
X162313904Y-74836400D01*
X162409142Y-74788780D01*
X162647238Y-74788780D01*
X162742476Y-74836400D01*
X162790095Y-74884019D01*
X162837714Y-74979257D01*
X162837714Y-75074495D01*
X162790095Y-75217352D01*
X162218666Y-75788780D01*
X162837714Y-75788780D01*
X163028190Y-75884019D02*
X163790095Y-75884019D01*
X164171047Y-75217352D02*
X164075809Y-75169733D01*
X164028190Y-75122114D01*
X163980571Y-75026876D01*
X163980571Y-74979257D01*
X164028190Y-74884019D01*
X164075809Y-74836400D01*
X164171047Y-74788780D01*
X164361523Y-74788780D01*
X164456761Y-74836400D01*
X164504380Y-74884019D01*
X164552000Y-74979257D01*
X164552000Y-75026876D01*
X164504380Y-75122114D01*
X164456761Y-75169733D01*
X164361523Y-75217352D01*
X164171047Y-75217352D01*
X164075809Y-75264971D01*
X164028190Y-75312590D01*
X163980571Y-75407828D01*
X163980571Y-75598304D01*
X164028190Y-75693542D01*
X164075809Y-75741161D01*
X164171047Y-75788780D01*
X164361523Y-75788780D01*
X164456761Y-75741161D01*
X164504380Y-75693542D01*
X164552000Y-75598304D01*
X164552000Y-75407828D01*
X164504380Y-75312590D01*
X164456761Y-75264971D01*
X164361523Y-75217352D01*
G04 #@! TO.C,LED2_7*
X147680609Y-75788780D02*
X147204419Y-75788780D01*
X147204419Y-74788780D01*
X148013942Y-75264971D02*
X148347276Y-75264971D01*
X148490133Y-75788780D02*
X148013942Y-75788780D01*
X148013942Y-74788780D01*
X148490133Y-74788780D01*
X148918704Y-75788780D02*
X148918704Y-74788780D01*
X149156800Y-74788780D01*
X149299657Y-74836400D01*
X149394895Y-74931638D01*
X149442514Y-75026876D01*
X149490133Y-75217352D01*
X149490133Y-75360209D01*
X149442514Y-75550685D01*
X149394895Y-75645923D01*
X149299657Y-75741161D01*
X149156800Y-75788780D01*
X148918704Y-75788780D01*
X149871085Y-74884019D02*
X149918704Y-74836400D01*
X150013942Y-74788780D01*
X150252038Y-74788780D01*
X150347276Y-74836400D01*
X150394895Y-74884019D01*
X150442514Y-74979257D01*
X150442514Y-75074495D01*
X150394895Y-75217352D01*
X149823466Y-75788780D01*
X150442514Y-75788780D01*
X150632990Y-75884019D02*
X151394895Y-75884019D01*
X151537752Y-74788780D02*
X152204419Y-74788780D01*
X151775847Y-75788780D01*
G04 #@! TO.C,LED2_6*
X135361609Y-75737980D02*
X134885419Y-75737980D01*
X134885419Y-74737980D01*
X135694942Y-75214171D02*
X136028276Y-75214171D01*
X136171133Y-75737980D02*
X135694942Y-75737980D01*
X135694942Y-74737980D01*
X136171133Y-74737980D01*
X136599704Y-75737980D02*
X136599704Y-74737980D01*
X136837800Y-74737980D01*
X136980657Y-74785600D01*
X137075895Y-74880838D01*
X137123514Y-74976076D01*
X137171133Y-75166552D01*
X137171133Y-75309409D01*
X137123514Y-75499885D01*
X137075895Y-75595123D01*
X136980657Y-75690361D01*
X136837800Y-75737980D01*
X136599704Y-75737980D01*
X137552085Y-74833219D02*
X137599704Y-74785600D01*
X137694942Y-74737980D01*
X137933038Y-74737980D01*
X138028276Y-74785600D01*
X138075895Y-74833219D01*
X138123514Y-74928457D01*
X138123514Y-75023695D01*
X138075895Y-75166552D01*
X137504466Y-75737980D01*
X138123514Y-75737980D01*
X138313990Y-75833219D02*
X139075895Y-75833219D01*
X139742561Y-74737980D02*
X139552085Y-74737980D01*
X139456847Y-74785600D01*
X139409228Y-74833219D01*
X139313990Y-74976076D01*
X139266371Y-75166552D01*
X139266371Y-75547504D01*
X139313990Y-75642742D01*
X139361609Y-75690361D01*
X139456847Y-75737980D01*
X139647323Y-75737980D01*
X139742561Y-75690361D01*
X139790180Y-75642742D01*
X139837800Y-75547504D01*
X139837800Y-75309409D01*
X139790180Y-75214171D01*
X139742561Y-75166552D01*
X139647323Y-75118933D01*
X139456847Y-75118933D01*
X139361609Y-75166552D01*
X139313990Y-75214171D01*
X139266371Y-75309409D01*
G04 #@! TO.C,LED2_5*
X123906209Y-75560180D02*
X123430019Y-75560180D01*
X123430019Y-74560180D01*
X124239542Y-75036371D02*
X124572876Y-75036371D01*
X124715733Y-75560180D02*
X124239542Y-75560180D01*
X124239542Y-74560180D01*
X124715733Y-74560180D01*
X125144304Y-75560180D02*
X125144304Y-74560180D01*
X125382400Y-74560180D01*
X125525257Y-74607800D01*
X125620495Y-74703038D01*
X125668114Y-74798276D01*
X125715733Y-74988752D01*
X125715733Y-75131609D01*
X125668114Y-75322085D01*
X125620495Y-75417323D01*
X125525257Y-75512561D01*
X125382400Y-75560180D01*
X125144304Y-75560180D01*
X126096685Y-74655419D02*
X126144304Y-74607800D01*
X126239542Y-74560180D01*
X126477638Y-74560180D01*
X126572876Y-74607800D01*
X126620495Y-74655419D01*
X126668114Y-74750657D01*
X126668114Y-74845895D01*
X126620495Y-74988752D01*
X126049066Y-75560180D01*
X126668114Y-75560180D01*
X126858590Y-75655419D02*
X127620495Y-75655419D01*
X128334780Y-74560180D02*
X127858590Y-74560180D01*
X127810971Y-75036371D01*
X127858590Y-74988752D01*
X127953828Y-74941133D01*
X128191923Y-74941133D01*
X128287161Y-74988752D01*
X128334780Y-75036371D01*
X128382400Y-75131609D01*
X128382400Y-75369704D01*
X128334780Y-75464942D01*
X128287161Y-75512561D01*
X128191923Y-75560180D01*
X127953828Y-75560180D01*
X127858590Y-75512561D01*
X127810971Y-75464942D01*
G04 #@! TO.C,LED2_4*
X111714209Y-75610980D02*
X111238019Y-75610980D01*
X111238019Y-74610980D01*
X112047542Y-75087171D02*
X112380876Y-75087171D01*
X112523733Y-75610980D02*
X112047542Y-75610980D01*
X112047542Y-74610980D01*
X112523733Y-74610980D01*
X112952304Y-75610980D02*
X112952304Y-74610980D01*
X113190400Y-74610980D01*
X113333257Y-74658600D01*
X113428495Y-74753838D01*
X113476114Y-74849076D01*
X113523733Y-75039552D01*
X113523733Y-75182409D01*
X113476114Y-75372885D01*
X113428495Y-75468123D01*
X113333257Y-75563361D01*
X113190400Y-75610980D01*
X112952304Y-75610980D01*
X113904685Y-74706219D02*
X113952304Y-74658600D01*
X114047542Y-74610980D01*
X114285638Y-74610980D01*
X114380876Y-74658600D01*
X114428495Y-74706219D01*
X114476114Y-74801457D01*
X114476114Y-74896695D01*
X114428495Y-75039552D01*
X113857066Y-75610980D01*
X114476114Y-75610980D01*
X114666590Y-75706219D02*
X115428495Y-75706219D01*
X116095161Y-74944314D02*
X116095161Y-75610980D01*
X115857066Y-74563361D02*
X115618971Y-75277647D01*
X116238019Y-75277647D01*
G04 #@! TO.C,LED2_3*
X99903209Y-75737980D02*
X99427019Y-75737980D01*
X99427019Y-74737980D01*
X100236542Y-75214171D02*
X100569876Y-75214171D01*
X100712733Y-75737980D02*
X100236542Y-75737980D01*
X100236542Y-74737980D01*
X100712733Y-74737980D01*
X101141304Y-75737980D02*
X101141304Y-74737980D01*
X101379400Y-74737980D01*
X101522257Y-74785600D01*
X101617495Y-74880838D01*
X101665114Y-74976076D01*
X101712733Y-75166552D01*
X101712733Y-75309409D01*
X101665114Y-75499885D01*
X101617495Y-75595123D01*
X101522257Y-75690361D01*
X101379400Y-75737980D01*
X101141304Y-75737980D01*
X102093685Y-74833219D02*
X102141304Y-74785600D01*
X102236542Y-74737980D01*
X102474638Y-74737980D01*
X102569876Y-74785600D01*
X102617495Y-74833219D01*
X102665114Y-74928457D01*
X102665114Y-75023695D01*
X102617495Y-75166552D01*
X102046066Y-75737980D01*
X102665114Y-75737980D01*
X102855590Y-75833219D02*
X103617495Y-75833219D01*
X103760352Y-74737980D02*
X104379400Y-74737980D01*
X104046066Y-75118933D01*
X104188923Y-75118933D01*
X104284161Y-75166552D01*
X104331780Y-75214171D01*
X104379400Y-75309409D01*
X104379400Y-75547504D01*
X104331780Y-75642742D01*
X104284161Y-75690361D01*
X104188923Y-75737980D01*
X103903209Y-75737980D01*
X103807971Y-75690361D01*
X103760352Y-75642742D01*
G04 #@! TO.C,LED2_2*
X87965209Y-75941180D02*
X87489019Y-75941180D01*
X87489019Y-74941180D01*
X88298542Y-75417371D02*
X88631876Y-75417371D01*
X88774733Y-75941180D02*
X88298542Y-75941180D01*
X88298542Y-74941180D01*
X88774733Y-74941180D01*
X89203304Y-75941180D02*
X89203304Y-74941180D01*
X89441400Y-74941180D01*
X89584257Y-74988800D01*
X89679495Y-75084038D01*
X89727114Y-75179276D01*
X89774733Y-75369752D01*
X89774733Y-75512609D01*
X89727114Y-75703085D01*
X89679495Y-75798323D01*
X89584257Y-75893561D01*
X89441400Y-75941180D01*
X89203304Y-75941180D01*
X90155685Y-75036419D02*
X90203304Y-74988800D01*
X90298542Y-74941180D01*
X90536638Y-74941180D01*
X90631876Y-74988800D01*
X90679495Y-75036419D01*
X90727114Y-75131657D01*
X90727114Y-75226895D01*
X90679495Y-75369752D01*
X90108066Y-75941180D01*
X90727114Y-75941180D01*
X90917590Y-76036419D02*
X91679495Y-76036419D01*
X91869971Y-75036419D02*
X91917590Y-74988800D01*
X92012828Y-74941180D01*
X92250923Y-74941180D01*
X92346161Y-74988800D01*
X92393780Y-75036419D01*
X92441400Y-75131657D01*
X92441400Y-75226895D01*
X92393780Y-75369752D01*
X91822352Y-75941180D01*
X92441400Y-75941180D01*
G04 #@! TO.C,LED2_1*
X75773209Y-76017380D02*
X75297019Y-76017380D01*
X75297019Y-75017380D01*
X76106542Y-75493571D02*
X76439876Y-75493571D01*
X76582733Y-76017380D02*
X76106542Y-76017380D01*
X76106542Y-75017380D01*
X76582733Y-75017380D01*
X77011304Y-76017380D02*
X77011304Y-75017380D01*
X77249400Y-75017380D01*
X77392257Y-75065000D01*
X77487495Y-75160238D01*
X77535114Y-75255476D01*
X77582733Y-75445952D01*
X77582733Y-75588809D01*
X77535114Y-75779285D01*
X77487495Y-75874523D01*
X77392257Y-75969761D01*
X77249400Y-76017380D01*
X77011304Y-76017380D01*
X77963685Y-75112619D02*
X78011304Y-75065000D01*
X78106542Y-75017380D01*
X78344638Y-75017380D01*
X78439876Y-75065000D01*
X78487495Y-75112619D01*
X78535114Y-75207857D01*
X78535114Y-75303095D01*
X78487495Y-75445952D01*
X77916066Y-76017380D01*
X78535114Y-76017380D01*
X78725590Y-76112619D02*
X79487495Y-76112619D01*
X80249400Y-76017380D02*
X79677971Y-76017380D01*
X79963685Y-76017380D02*
X79963685Y-75017380D01*
X79868447Y-75160238D01*
X79773209Y-75255476D01*
X79677971Y-75303095D01*
G04 #@! TO.C,LED2_0*
X63454209Y-75788780D02*
X62978019Y-75788780D01*
X62978019Y-74788780D01*
X63787542Y-75264971D02*
X64120876Y-75264971D01*
X64263733Y-75788780D02*
X63787542Y-75788780D01*
X63787542Y-74788780D01*
X64263733Y-74788780D01*
X64692304Y-75788780D02*
X64692304Y-74788780D01*
X64930400Y-74788780D01*
X65073257Y-74836400D01*
X65168495Y-74931638D01*
X65216114Y-75026876D01*
X65263733Y-75217352D01*
X65263733Y-75360209D01*
X65216114Y-75550685D01*
X65168495Y-75645923D01*
X65073257Y-75741161D01*
X64930400Y-75788780D01*
X64692304Y-75788780D01*
X65644685Y-74884019D02*
X65692304Y-74836400D01*
X65787542Y-74788780D01*
X66025638Y-74788780D01*
X66120876Y-74836400D01*
X66168495Y-74884019D01*
X66216114Y-74979257D01*
X66216114Y-75074495D01*
X66168495Y-75217352D01*
X65597066Y-75788780D01*
X66216114Y-75788780D01*
X66406590Y-75884019D02*
X67168495Y-75884019D01*
X67597066Y-74788780D02*
X67692304Y-74788780D01*
X67787542Y-74836400D01*
X67835161Y-74884019D01*
X67882780Y-74979257D01*
X67930400Y-75169733D01*
X67930400Y-75407828D01*
X67882780Y-75598304D01*
X67835161Y-75693542D01*
X67787542Y-75741161D01*
X67692304Y-75788780D01*
X67597066Y-75788780D01*
X67501828Y-75741161D01*
X67454209Y-75693542D01*
X67406590Y-75598304D01*
X67358971Y-75407828D01*
X67358971Y-75169733D01*
X67406590Y-74979257D01*
X67454209Y-74884019D01*
X67501828Y-74836400D01*
X67597066Y-74788780D01*
G04 #@! TO.C,LED1_8*
X159745609Y-64714380D02*
X159269419Y-64714380D01*
X159269419Y-63714380D01*
X160078942Y-64190571D02*
X160412276Y-64190571D01*
X160555133Y-64714380D02*
X160078942Y-64714380D01*
X160078942Y-63714380D01*
X160555133Y-63714380D01*
X160983704Y-64714380D02*
X160983704Y-63714380D01*
X161221800Y-63714380D01*
X161364657Y-63762000D01*
X161459895Y-63857238D01*
X161507514Y-63952476D01*
X161555133Y-64142952D01*
X161555133Y-64285809D01*
X161507514Y-64476285D01*
X161459895Y-64571523D01*
X161364657Y-64666761D01*
X161221800Y-64714380D01*
X160983704Y-64714380D01*
X162507514Y-64714380D02*
X161936085Y-64714380D01*
X162221800Y-64714380D02*
X162221800Y-63714380D01*
X162126561Y-63857238D01*
X162031323Y-63952476D01*
X161936085Y-64000095D01*
X162697990Y-64809619D02*
X163459895Y-64809619D01*
X163840847Y-64142952D02*
X163745609Y-64095333D01*
X163697990Y-64047714D01*
X163650371Y-63952476D01*
X163650371Y-63904857D01*
X163697990Y-63809619D01*
X163745609Y-63762000D01*
X163840847Y-63714380D01*
X164031323Y-63714380D01*
X164126561Y-63762000D01*
X164174180Y-63809619D01*
X164221800Y-63904857D01*
X164221800Y-63952476D01*
X164174180Y-64047714D01*
X164126561Y-64095333D01*
X164031323Y-64142952D01*
X163840847Y-64142952D01*
X163745609Y-64190571D01*
X163697990Y-64238190D01*
X163650371Y-64333428D01*
X163650371Y-64523904D01*
X163697990Y-64619142D01*
X163745609Y-64666761D01*
X163840847Y-64714380D01*
X164031323Y-64714380D01*
X164126561Y-64666761D01*
X164174180Y-64619142D01*
X164221800Y-64523904D01*
X164221800Y-64333428D01*
X164174180Y-64238190D01*
X164126561Y-64190571D01*
X164031323Y-64142952D01*
G04 #@! TO.C,LED1_7*
X147553609Y-64714380D02*
X147077419Y-64714380D01*
X147077419Y-63714380D01*
X147886942Y-64190571D02*
X148220276Y-64190571D01*
X148363133Y-64714380D02*
X147886942Y-64714380D01*
X147886942Y-63714380D01*
X148363133Y-63714380D01*
X148791704Y-64714380D02*
X148791704Y-63714380D01*
X149029800Y-63714380D01*
X149172657Y-63762000D01*
X149267895Y-63857238D01*
X149315514Y-63952476D01*
X149363133Y-64142952D01*
X149363133Y-64285809D01*
X149315514Y-64476285D01*
X149267895Y-64571523D01*
X149172657Y-64666761D01*
X149029800Y-64714380D01*
X148791704Y-64714380D01*
X150315514Y-64714380D02*
X149744085Y-64714380D01*
X150029800Y-64714380D02*
X150029800Y-63714380D01*
X149934561Y-63857238D01*
X149839323Y-63952476D01*
X149744085Y-64000095D01*
X150505990Y-64809619D02*
X151267895Y-64809619D01*
X151410752Y-63714380D02*
X152077419Y-63714380D01*
X151648847Y-64714380D01*
G04 #@! TO.C,LED1_6*
X135742609Y-64739780D02*
X135266419Y-64739780D01*
X135266419Y-63739780D01*
X136075942Y-64215971D02*
X136409276Y-64215971D01*
X136552133Y-64739780D02*
X136075942Y-64739780D01*
X136075942Y-63739780D01*
X136552133Y-63739780D01*
X136980704Y-64739780D02*
X136980704Y-63739780D01*
X137218800Y-63739780D01*
X137361657Y-63787400D01*
X137456895Y-63882638D01*
X137504514Y-63977876D01*
X137552133Y-64168352D01*
X137552133Y-64311209D01*
X137504514Y-64501685D01*
X137456895Y-64596923D01*
X137361657Y-64692161D01*
X137218800Y-64739780D01*
X136980704Y-64739780D01*
X138504514Y-64739780D02*
X137933085Y-64739780D01*
X138218800Y-64739780D02*
X138218800Y-63739780D01*
X138123561Y-63882638D01*
X138028323Y-63977876D01*
X137933085Y-64025495D01*
X138694990Y-64835019D02*
X139456895Y-64835019D01*
X140123561Y-63739780D02*
X139933085Y-63739780D01*
X139837847Y-63787400D01*
X139790228Y-63835019D01*
X139694990Y-63977876D01*
X139647371Y-64168352D01*
X139647371Y-64549304D01*
X139694990Y-64644542D01*
X139742609Y-64692161D01*
X139837847Y-64739780D01*
X140028323Y-64739780D01*
X140123561Y-64692161D01*
X140171180Y-64644542D01*
X140218800Y-64549304D01*
X140218800Y-64311209D01*
X140171180Y-64215971D01*
X140123561Y-64168352D01*
X140028323Y-64120733D01*
X139837847Y-64120733D01*
X139742609Y-64168352D01*
X139694990Y-64215971D01*
X139647371Y-64311209D01*
G04 #@! TO.C,LED1_5*
X123423609Y-64841380D02*
X122947419Y-64841380D01*
X122947419Y-63841380D01*
X123756942Y-64317571D02*
X124090276Y-64317571D01*
X124233133Y-64841380D02*
X123756942Y-64841380D01*
X123756942Y-63841380D01*
X124233133Y-63841380D01*
X124661704Y-64841380D02*
X124661704Y-63841380D01*
X124899800Y-63841380D01*
X125042657Y-63889000D01*
X125137895Y-63984238D01*
X125185514Y-64079476D01*
X125233133Y-64269952D01*
X125233133Y-64412809D01*
X125185514Y-64603285D01*
X125137895Y-64698523D01*
X125042657Y-64793761D01*
X124899800Y-64841380D01*
X124661704Y-64841380D01*
X126185514Y-64841380D02*
X125614085Y-64841380D01*
X125899800Y-64841380D02*
X125899800Y-63841380D01*
X125804561Y-63984238D01*
X125709323Y-64079476D01*
X125614085Y-64127095D01*
X126375990Y-64936619D02*
X127137895Y-64936619D01*
X127852180Y-63841380D02*
X127375990Y-63841380D01*
X127328371Y-64317571D01*
X127375990Y-64269952D01*
X127471228Y-64222333D01*
X127709323Y-64222333D01*
X127804561Y-64269952D01*
X127852180Y-64317571D01*
X127899800Y-64412809D01*
X127899800Y-64650904D01*
X127852180Y-64746142D01*
X127804561Y-64793761D01*
X127709323Y-64841380D01*
X127471228Y-64841380D01*
X127375990Y-64793761D01*
X127328371Y-64746142D01*
G04 #@! TO.C,LED1_4*
X111841209Y-64714380D02*
X111365019Y-64714380D01*
X111365019Y-63714380D01*
X112174542Y-64190571D02*
X112507876Y-64190571D01*
X112650733Y-64714380D02*
X112174542Y-64714380D01*
X112174542Y-63714380D01*
X112650733Y-63714380D01*
X113079304Y-64714380D02*
X113079304Y-63714380D01*
X113317400Y-63714380D01*
X113460257Y-63762000D01*
X113555495Y-63857238D01*
X113603114Y-63952476D01*
X113650733Y-64142952D01*
X113650733Y-64285809D01*
X113603114Y-64476285D01*
X113555495Y-64571523D01*
X113460257Y-64666761D01*
X113317400Y-64714380D01*
X113079304Y-64714380D01*
X114603114Y-64714380D02*
X114031685Y-64714380D01*
X114317400Y-64714380D02*
X114317400Y-63714380D01*
X114222161Y-63857238D01*
X114126923Y-63952476D01*
X114031685Y-64000095D01*
X114793590Y-64809619D02*
X115555495Y-64809619D01*
X116222161Y-64047714D02*
X116222161Y-64714380D01*
X115984066Y-63666761D02*
X115745971Y-64381047D01*
X116365019Y-64381047D01*
G04 #@! TO.C,LED1_3*
X99522209Y-64739780D02*
X99046019Y-64739780D01*
X99046019Y-63739780D01*
X99855542Y-64215971D02*
X100188876Y-64215971D01*
X100331733Y-64739780D02*
X99855542Y-64739780D01*
X99855542Y-63739780D01*
X100331733Y-63739780D01*
X100760304Y-64739780D02*
X100760304Y-63739780D01*
X100998400Y-63739780D01*
X101141257Y-63787400D01*
X101236495Y-63882638D01*
X101284114Y-63977876D01*
X101331733Y-64168352D01*
X101331733Y-64311209D01*
X101284114Y-64501685D01*
X101236495Y-64596923D01*
X101141257Y-64692161D01*
X100998400Y-64739780D01*
X100760304Y-64739780D01*
X102284114Y-64739780D02*
X101712685Y-64739780D01*
X101998400Y-64739780D02*
X101998400Y-63739780D01*
X101903161Y-63882638D01*
X101807923Y-63977876D01*
X101712685Y-64025495D01*
X102474590Y-64835019D02*
X103236495Y-64835019D01*
X103379352Y-63739780D02*
X103998400Y-63739780D01*
X103665066Y-64120733D01*
X103807923Y-64120733D01*
X103903161Y-64168352D01*
X103950780Y-64215971D01*
X103998400Y-64311209D01*
X103998400Y-64549304D01*
X103950780Y-64644542D01*
X103903161Y-64692161D01*
X103807923Y-64739780D01*
X103522209Y-64739780D01*
X103426971Y-64692161D01*
X103379352Y-64644542D01*
G04 #@! TO.C,LED1_2*
X88320809Y-64714380D02*
X87844619Y-64714380D01*
X87844619Y-63714380D01*
X88654142Y-64190571D02*
X88987476Y-64190571D01*
X89130333Y-64714380D02*
X88654142Y-64714380D01*
X88654142Y-63714380D01*
X89130333Y-63714380D01*
X89558904Y-64714380D02*
X89558904Y-63714380D01*
X89797000Y-63714380D01*
X89939857Y-63762000D01*
X90035095Y-63857238D01*
X90082714Y-63952476D01*
X90130333Y-64142952D01*
X90130333Y-64285809D01*
X90082714Y-64476285D01*
X90035095Y-64571523D01*
X89939857Y-64666761D01*
X89797000Y-64714380D01*
X89558904Y-64714380D01*
X91082714Y-64714380D02*
X90511285Y-64714380D01*
X90797000Y-64714380D02*
X90797000Y-63714380D01*
X90701761Y-63857238D01*
X90606523Y-63952476D01*
X90511285Y-64000095D01*
X91273190Y-64809619D02*
X92035095Y-64809619D01*
X92225571Y-63809619D02*
X92273190Y-63762000D01*
X92368428Y-63714380D01*
X92606523Y-63714380D01*
X92701761Y-63762000D01*
X92749380Y-63809619D01*
X92797000Y-63904857D01*
X92797000Y-64000095D01*
X92749380Y-64142952D01*
X92177952Y-64714380D01*
X92797000Y-64714380D01*
G04 #@! TO.C,LED1_1*
X75824009Y-64714380D02*
X75347819Y-64714380D01*
X75347819Y-63714380D01*
X76157342Y-64190571D02*
X76490676Y-64190571D01*
X76633533Y-64714380D02*
X76157342Y-64714380D01*
X76157342Y-63714380D01*
X76633533Y-63714380D01*
X77062104Y-64714380D02*
X77062104Y-63714380D01*
X77300200Y-63714380D01*
X77443057Y-63762000D01*
X77538295Y-63857238D01*
X77585914Y-63952476D01*
X77633533Y-64142952D01*
X77633533Y-64285809D01*
X77585914Y-64476285D01*
X77538295Y-64571523D01*
X77443057Y-64666761D01*
X77300200Y-64714380D01*
X77062104Y-64714380D01*
X78585914Y-64714380D02*
X78014485Y-64714380D01*
X78300200Y-64714380D02*
X78300200Y-63714380D01*
X78204961Y-63857238D01*
X78109723Y-63952476D01*
X78014485Y-64000095D01*
X78776390Y-64809619D02*
X79538295Y-64809619D01*
X80300200Y-64714380D02*
X79728771Y-64714380D01*
X80014485Y-64714380D02*
X80014485Y-63714380D01*
X79919247Y-63857238D01*
X79824009Y-63952476D01*
X79728771Y-64000095D01*
G04 #@! TO.C,LED1_0*
X63174809Y-64815980D02*
X62698619Y-64815980D01*
X62698619Y-63815980D01*
X63508142Y-64292171D02*
X63841476Y-64292171D01*
X63984333Y-64815980D02*
X63508142Y-64815980D01*
X63508142Y-63815980D01*
X63984333Y-63815980D01*
X64412904Y-64815980D02*
X64412904Y-63815980D01*
X64651000Y-63815980D01*
X64793857Y-63863600D01*
X64889095Y-63958838D01*
X64936714Y-64054076D01*
X64984333Y-64244552D01*
X64984333Y-64387409D01*
X64936714Y-64577885D01*
X64889095Y-64673123D01*
X64793857Y-64768361D01*
X64651000Y-64815980D01*
X64412904Y-64815980D01*
X65936714Y-64815980D02*
X65365285Y-64815980D01*
X65651000Y-64815980D02*
X65651000Y-63815980D01*
X65555761Y-63958838D01*
X65460523Y-64054076D01*
X65365285Y-64101695D01*
X66127190Y-64911219D02*
X66889095Y-64911219D01*
X67317666Y-63815980D02*
X67412904Y-63815980D01*
X67508142Y-63863600D01*
X67555761Y-63911219D01*
X67603380Y-64006457D01*
X67651000Y-64196933D01*
X67651000Y-64435028D01*
X67603380Y-64625504D01*
X67555761Y-64720742D01*
X67508142Y-64768361D01*
X67412904Y-64815980D01*
X67317666Y-64815980D01*
X67222428Y-64768361D01*
X67174809Y-64720742D01*
X67127190Y-64625504D01*
X67079571Y-64435028D01*
X67079571Y-64196933D01*
X67127190Y-64006457D01*
X67174809Y-63911219D01*
X67222428Y-63863600D01*
X67317666Y-63815980D01*
G04 #@! TO.C,LED0_8*
X159542409Y-53817780D02*
X159066219Y-53817780D01*
X159066219Y-52817780D01*
X159875742Y-53293971D02*
X160209076Y-53293971D01*
X160351933Y-53817780D02*
X159875742Y-53817780D01*
X159875742Y-52817780D01*
X160351933Y-52817780D01*
X160780504Y-53817780D02*
X160780504Y-52817780D01*
X161018600Y-52817780D01*
X161161457Y-52865400D01*
X161256695Y-52960638D01*
X161304314Y-53055876D01*
X161351933Y-53246352D01*
X161351933Y-53389209D01*
X161304314Y-53579685D01*
X161256695Y-53674923D01*
X161161457Y-53770161D01*
X161018600Y-53817780D01*
X160780504Y-53817780D01*
X161970980Y-52817780D02*
X162066219Y-52817780D01*
X162161457Y-52865400D01*
X162209076Y-52913019D01*
X162256695Y-53008257D01*
X162304314Y-53198733D01*
X162304314Y-53436828D01*
X162256695Y-53627304D01*
X162209076Y-53722542D01*
X162161457Y-53770161D01*
X162066219Y-53817780D01*
X161970980Y-53817780D01*
X161875742Y-53770161D01*
X161828123Y-53722542D01*
X161780504Y-53627304D01*
X161732885Y-53436828D01*
X161732885Y-53198733D01*
X161780504Y-53008257D01*
X161828123Y-52913019D01*
X161875742Y-52865400D01*
X161970980Y-52817780D01*
X162494790Y-53913019D02*
X163256695Y-53913019D01*
X163637647Y-53246352D02*
X163542409Y-53198733D01*
X163494790Y-53151114D01*
X163447171Y-53055876D01*
X163447171Y-53008257D01*
X163494790Y-52913019D01*
X163542409Y-52865400D01*
X163637647Y-52817780D01*
X163828123Y-52817780D01*
X163923361Y-52865400D01*
X163970980Y-52913019D01*
X164018600Y-53008257D01*
X164018600Y-53055876D01*
X163970980Y-53151114D01*
X163923361Y-53198733D01*
X163828123Y-53246352D01*
X163637647Y-53246352D01*
X163542409Y-53293971D01*
X163494790Y-53341590D01*
X163447171Y-53436828D01*
X163447171Y-53627304D01*
X163494790Y-53722542D01*
X163542409Y-53770161D01*
X163637647Y-53817780D01*
X163828123Y-53817780D01*
X163923361Y-53770161D01*
X163970980Y-53722542D01*
X164018600Y-53627304D01*
X164018600Y-53436828D01*
X163970980Y-53341590D01*
X163923361Y-53293971D01*
X163828123Y-53246352D01*
G04 #@! TO.C,LED0_7*
X147477409Y-53741580D02*
X147001219Y-53741580D01*
X147001219Y-52741580D01*
X147810742Y-53217771D02*
X148144076Y-53217771D01*
X148286933Y-53741580D02*
X147810742Y-53741580D01*
X147810742Y-52741580D01*
X148286933Y-52741580D01*
X148715504Y-53741580D02*
X148715504Y-52741580D01*
X148953600Y-52741580D01*
X149096457Y-52789200D01*
X149191695Y-52884438D01*
X149239314Y-52979676D01*
X149286933Y-53170152D01*
X149286933Y-53313009D01*
X149239314Y-53503485D01*
X149191695Y-53598723D01*
X149096457Y-53693961D01*
X148953600Y-53741580D01*
X148715504Y-53741580D01*
X149905980Y-52741580D02*
X150001219Y-52741580D01*
X150096457Y-52789200D01*
X150144076Y-52836819D01*
X150191695Y-52932057D01*
X150239314Y-53122533D01*
X150239314Y-53360628D01*
X150191695Y-53551104D01*
X150144076Y-53646342D01*
X150096457Y-53693961D01*
X150001219Y-53741580D01*
X149905980Y-53741580D01*
X149810742Y-53693961D01*
X149763123Y-53646342D01*
X149715504Y-53551104D01*
X149667885Y-53360628D01*
X149667885Y-53122533D01*
X149715504Y-52932057D01*
X149763123Y-52836819D01*
X149810742Y-52789200D01*
X149905980Y-52741580D01*
X150429790Y-53836819D02*
X151191695Y-53836819D01*
X151334552Y-52741580D02*
X152001219Y-52741580D01*
X151572647Y-53741580D01*
G04 #@! TO.C,LED0_6*
X135209209Y-53741580D02*
X134733019Y-53741580D01*
X134733019Y-52741580D01*
X135542542Y-53217771D02*
X135875876Y-53217771D01*
X136018733Y-53741580D02*
X135542542Y-53741580D01*
X135542542Y-52741580D01*
X136018733Y-52741580D01*
X136447304Y-53741580D02*
X136447304Y-52741580D01*
X136685400Y-52741580D01*
X136828257Y-52789200D01*
X136923495Y-52884438D01*
X136971114Y-52979676D01*
X137018733Y-53170152D01*
X137018733Y-53313009D01*
X136971114Y-53503485D01*
X136923495Y-53598723D01*
X136828257Y-53693961D01*
X136685400Y-53741580D01*
X136447304Y-53741580D01*
X137637780Y-52741580D02*
X137733019Y-52741580D01*
X137828257Y-52789200D01*
X137875876Y-52836819D01*
X137923495Y-52932057D01*
X137971114Y-53122533D01*
X137971114Y-53360628D01*
X137923495Y-53551104D01*
X137875876Y-53646342D01*
X137828257Y-53693961D01*
X137733019Y-53741580D01*
X137637780Y-53741580D01*
X137542542Y-53693961D01*
X137494923Y-53646342D01*
X137447304Y-53551104D01*
X137399685Y-53360628D01*
X137399685Y-53122533D01*
X137447304Y-52932057D01*
X137494923Y-52836819D01*
X137542542Y-52789200D01*
X137637780Y-52741580D01*
X138161590Y-53836819D02*
X138923495Y-53836819D01*
X139590161Y-52741580D02*
X139399685Y-52741580D01*
X139304447Y-52789200D01*
X139256828Y-52836819D01*
X139161590Y-52979676D01*
X139113971Y-53170152D01*
X139113971Y-53551104D01*
X139161590Y-53646342D01*
X139209209Y-53693961D01*
X139304447Y-53741580D01*
X139494923Y-53741580D01*
X139590161Y-53693961D01*
X139637780Y-53646342D01*
X139685400Y-53551104D01*
X139685400Y-53313009D01*
X139637780Y-53217771D01*
X139590161Y-53170152D01*
X139494923Y-53122533D01*
X139304447Y-53122533D01*
X139209209Y-53170152D01*
X139161590Y-53217771D01*
X139113971Y-53313009D01*
G04 #@! TO.C,LED0_5*
X123245809Y-53716180D02*
X122769619Y-53716180D01*
X122769619Y-52716180D01*
X123579142Y-53192371D02*
X123912476Y-53192371D01*
X124055333Y-53716180D02*
X123579142Y-53716180D01*
X123579142Y-52716180D01*
X124055333Y-52716180D01*
X124483904Y-53716180D02*
X124483904Y-52716180D01*
X124722000Y-52716180D01*
X124864857Y-52763800D01*
X124960095Y-52859038D01*
X125007714Y-52954276D01*
X125055333Y-53144752D01*
X125055333Y-53287609D01*
X125007714Y-53478085D01*
X124960095Y-53573323D01*
X124864857Y-53668561D01*
X124722000Y-53716180D01*
X124483904Y-53716180D01*
X125674380Y-52716180D02*
X125769619Y-52716180D01*
X125864857Y-52763800D01*
X125912476Y-52811419D01*
X125960095Y-52906657D01*
X126007714Y-53097133D01*
X126007714Y-53335228D01*
X125960095Y-53525704D01*
X125912476Y-53620942D01*
X125864857Y-53668561D01*
X125769619Y-53716180D01*
X125674380Y-53716180D01*
X125579142Y-53668561D01*
X125531523Y-53620942D01*
X125483904Y-53525704D01*
X125436285Y-53335228D01*
X125436285Y-53097133D01*
X125483904Y-52906657D01*
X125531523Y-52811419D01*
X125579142Y-52763800D01*
X125674380Y-52716180D01*
X126198190Y-53811419D02*
X126960095Y-53811419D01*
X127674380Y-52716180D02*
X127198190Y-52716180D01*
X127150571Y-53192371D01*
X127198190Y-53144752D01*
X127293428Y-53097133D01*
X127531523Y-53097133D01*
X127626761Y-53144752D01*
X127674380Y-53192371D01*
X127722000Y-53287609D01*
X127722000Y-53525704D01*
X127674380Y-53620942D01*
X127626761Y-53668561D01*
X127531523Y-53716180D01*
X127293428Y-53716180D01*
X127198190Y-53668561D01*
X127150571Y-53620942D01*
G04 #@! TO.C,LED0_4*
X112273009Y-53868580D02*
X111796819Y-53868580D01*
X111796819Y-52868580D01*
X112606342Y-53344771D02*
X112939676Y-53344771D01*
X113082533Y-53868580D02*
X112606342Y-53868580D01*
X112606342Y-52868580D01*
X113082533Y-52868580D01*
X113511104Y-53868580D02*
X113511104Y-52868580D01*
X113749200Y-52868580D01*
X113892057Y-52916200D01*
X113987295Y-53011438D01*
X114034914Y-53106676D01*
X114082533Y-53297152D01*
X114082533Y-53440009D01*
X114034914Y-53630485D01*
X113987295Y-53725723D01*
X113892057Y-53820961D01*
X113749200Y-53868580D01*
X113511104Y-53868580D01*
X114701580Y-52868580D02*
X114796819Y-52868580D01*
X114892057Y-52916200D01*
X114939676Y-52963819D01*
X114987295Y-53059057D01*
X115034914Y-53249533D01*
X115034914Y-53487628D01*
X114987295Y-53678104D01*
X114939676Y-53773342D01*
X114892057Y-53820961D01*
X114796819Y-53868580D01*
X114701580Y-53868580D01*
X114606342Y-53820961D01*
X114558723Y-53773342D01*
X114511104Y-53678104D01*
X114463485Y-53487628D01*
X114463485Y-53249533D01*
X114511104Y-53059057D01*
X114558723Y-52963819D01*
X114606342Y-52916200D01*
X114701580Y-52868580D01*
X115225390Y-53963819D02*
X115987295Y-53963819D01*
X116653961Y-53201914D02*
X116653961Y-53868580D01*
X116415866Y-52820961D02*
X116177771Y-53535247D01*
X116796819Y-53535247D01*
G04 #@! TO.C,LED0_3*
X99420609Y-53868580D02*
X98944419Y-53868580D01*
X98944419Y-52868580D01*
X99753942Y-53344771D02*
X100087276Y-53344771D01*
X100230133Y-53868580D02*
X99753942Y-53868580D01*
X99753942Y-52868580D01*
X100230133Y-52868580D01*
X100658704Y-53868580D02*
X100658704Y-52868580D01*
X100896800Y-52868580D01*
X101039657Y-52916200D01*
X101134895Y-53011438D01*
X101182514Y-53106676D01*
X101230133Y-53297152D01*
X101230133Y-53440009D01*
X101182514Y-53630485D01*
X101134895Y-53725723D01*
X101039657Y-53820961D01*
X100896800Y-53868580D01*
X100658704Y-53868580D01*
X101849180Y-52868580D02*
X101944419Y-52868580D01*
X102039657Y-52916200D01*
X102087276Y-52963819D01*
X102134895Y-53059057D01*
X102182514Y-53249533D01*
X102182514Y-53487628D01*
X102134895Y-53678104D01*
X102087276Y-53773342D01*
X102039657Y-53820961D01*
X101944419Y-53868580D01*
X101849180Y-53868580D01*
X101753942Y-53820961D01*
X101706323Y-53773342D01*
X101658704Y-53678104D01*
X101611085Y-53487628D01*
X101611085Y-53249533D01*
X101658704Y-53059057D01*
X101706323Y-52963819D01*
X101753942Y-52916200D01*
X101849180Y-52868580D01*
X102372990Y-53963819D02*
X103134895Y-53963819D01*
X103277752Y-52868580D02*
X103896800Y-52868580D01*
X103563466Y-53249533D01*
X103706323Y-53249533D01*
X103801561Y-53297152D01*
X103849180Y-53344771D01*
X103896800Y-53440009D01*
X103896800Y-53678104D01*
X103849180Y-53773342D01*
X103801561Y-53820961D01*
X103706323Y-53868580D01*
X103420609Y-53868580D01*
X103325371Y-53820961D01*
X103277752Y-53773342D01*
G04 #@! TO.C,LED0_2*
X88066809Y-53868580D02*
X87590619Y-53868580D01*
X87590619Y-52868580D01*
X88400142Y-53344771D02*
X88733476Y-53344771D01*
X88876333Y-53868580D02*
X88400142Y-53868580D01*
X88400142Y-52868580D01*
X88876333Y-52868580D01*
X89304904Y-53868580D02*
X89304904Y-52868580D01*
X89543000Y-52868580D01*
X89685857Y-52916200D01*
X89781095Y-53011438D01*
X89828714Y-53106676D01*
X89876333Y-53297152D01*
X89876333Y-53440009D01*
X89828714Y-53630485D01*
X89781095Y-53725723D01*
X89685857Y-53820961D01*
X89543000Y-53868580D01*
X89304904Y-53868580D01*
X90495380Y-52868580D02*
X90590619Y-52868580D01*
X90685857Y-52916200D01*
X90733476Y-52963819D01*
X90781095Y-53059057D01*
X90828714Y-53249533D01*
X90828714Y-53487628D01*
X90781095Y-53678104D01*
X90733476Y-53773342D01*
X90685857Y-53820961D01*
X90590619Y-53868580D01*
X90495380Y-53868580D01*
X90400142Y-53820961D01*
X90352523Y-53773342D01*
X90304904Y-53678104D01*
X90257285Y-53487628D01*
X90257285Y-53249533D01*
X90304904Y-53059057D01*
X90352523Y-52963819D01*
X90400142Y-52916200D01*
X90495380Y-52868580D01*
X91019190Y-53963819D02*
X91781095Y-53963819D01*
X91971571Y-52963819D02*
X92019190Y-52916200D01*
X92114428Y-52868580D01*
X92352523Y-52868580D01*
X92447761Y-52916200D01*
X92495380Y-52963819D01*
X92543000Y-53059057D01*
X92543000Y-53154295D01*
X92495380Y-53297152D01*
X91923952Y-53868580D01*
X92543000Y-53868580D01*
G04 #@! TO.C,LED0_1*
X75773209Y-53868580D02*
X75297019Y-53868580D01*
X75297019Y-52868580D01*
X76106542Y-53344771D02*
X76439876Y-53344771D01*
X76582733Y-53868580D02*
X76106542Y-53868580D01*
X76106542Y-52868580D01*
X76582733Y-52868580D01*
X77011304Y-53868580D02*
X77011304Y-52868580D01*
X77249400Y-52868580D01*
X77392257Y-52916200D01*
X77487495Y-53011438D01*
X77535114Y-53106676D01*
X77582733Y-53297152D01*
X77582733Y-53440009D01*
X77535114Y-53630485D01*
X77487495Y-53725723D01*
X77392257Y-53820961D01*
X77249400Y-53868580D01*
X77011304Y-53868580D01*
X78201780Y-52868580D02*
X78297019Y-52868580D01*
X78392257Y-52916200D01*
X78439876Y-52963819D01*
X78487495Y-53059057D01*
X78535114Y-53249533D01*
X78535114Y-53487628D01*
X78487495Y-53678104D01*
X78439876Y-53773342D01*
X78392257Y-53820961D01*
X78297019Y-53868580D01*
X78201780Y-53868580D01*
X78106542Y-53820961D01*
X78058923Y-53773342D01*
X78011304Y-53678104D01*
X77963685Y-53487628D01*
X77963685Y-53249533D01*
X78011304Y-53059057D01*
X78058923Y-52963819D01*
X78106542Y-52916200D01*
X78201780Y-52868580D01*
X78725590Y-53963819D02*
X79487495Y-53963819D01*
X80249400Y-53868580D02*
X79677971Y-53868580D01*
X79963685Y-53868580D02*
X79963685Y-52868580D01*
X79868447Y-53011438D01*
X79773209Y-53106676D01*
X79677971Y-53154295D01*
G04 #@! TO.C,LED0_0*
X63606609Y-53868580D02*
X63130419Y-53868580D01*
X63130419Y-52868580D01*
X63939942Y-53344771D02*
X64273276Y-53344771D01*
X64416133Y-53868580D02*
X63939942Y-53868580D01*
X63939942Y-52868580D01*
X64416133Y-52868580D01*
X64844704Y-53868580D02*
X64844704Y-52868580D01*
X65082800Y-52868580D01*
X65225657Y-52916200D01*
X65320895Y-53011438D01*
X65368514Y-53106676D01*
X65416133Y-53297152D01*
X65416133Y-53440009D01*
X65368514Y-53630485D01*
X65320895Y-53725723D01*
X65225657Y-53820961D01*
X65082800Y-53868580D01*
X64844704Y-53868580D01*
X66035180Y-52868580D02*
X66130419Y-52868580D01*
X66225657Y-52916200D01*
X66273276Y-52963819D01*
X66320895Y-53059057D01*
X66368514Y-53249533D01*
X66368514Y-53487628D01*
X66320895Y-53678104D01*
X66273276Y-53773342D01*
X66225657Y-53820961D01*
X66130419Y-53868580D01*
X66035180Y-53868580D01*
X65939942Y-53820961D01*
X65892323Y-53773342D01*
X65844704Y-53678104D01*
X65797085Y-53487628D01*
X65797085Y-53249533D01*
X65844704Y-53059057D01*
X65892323Y-52963819D01*
X65939942Y-52916200D01*
X66035180Y-52868580D01*
X66558990Y-53963819D02*
X67320895Y-53963819D01*
X67749466Y-52868580D02*
X67844704Y-52868580D01*
X67939942Y-52916200D01*
X67987561Y-52963819D01*
X68035180Y-53059057D01*
X68082800Y-53249533D01*
X68082800Y-53487628D01*
X68035180Y-53678104D01*
X67987561Y-53773342D01*
X67939942Y-53820961D01*
X67844704Y-53868580D01*
X67749466Y-53868580D01*
X67654228Y-53820961D01*
X67606609Y-53773342D01*
X67558990Y-53678104D01*
X67511371Y-53487628D01*
X67511371Y-53249533D01*
X67558990Y-53059057D01*
X67606609Y-52963819D01*
X67654228Y-52916200D01*
X67749466Y-52868580D01*
G04 #@! TO.C,RJ1*
X216063580Y-132485380D02*
X215730247Y-132009190D01*
X215492152Y-132485380D02*
X215492152Y-131485380D01*
X215873104Y-131485380D01*
X215968342Y-131533000D01*
X216015961Y-131580619D01*
X216063580Y-131675857D01*
X216063580Y-131818714D01*
X216015961Y-131913952D01*
X215968342Y-131961571D01*
X215873104Y-132009190D01*
X215492152Y-132009190D01*
X216777866Y-131485380D02*
X216777866Y-132199666D01*
X216730247Y-132342523D01*
X216635009Y-132437761D01*
X216492152Y-132485380D01*
X216396914Y-132485380D01*
X217777866Y-132485380D02*
X217206438Y-132485380D01*
X217492152Y-132485380D02*
X217492152Y-131485380D01*
X217396914Y-131628238D01*
X217301676Y-131723476D01*
X217206438Y-131771095D01*
G04 #@! TO.C,RJ0*
X194854580Y-132485380D02*
X194521247Y-132009190D01*
X194283152Y-132485380D02*
X194283152Y-131485380D01*
X194664104Y-131485380D01*
X194759342Y-131533000D01*
X194806961Y-131580619D01*
X194854580Y-131675857D01*
X194854580Y-131818714D01*
X194806961Y-131913952D01*
X194759342Y-131961571D01*
X194664104Y-132009190D01*
X194283152Y-132009190D01*
X195568866Y-131485380D02*
X195568866Y-132199666D01*
X195521247Y-132342523D01*
X195426009Y-132437761D01*
X195283152Y-132485380D01*
X195187914Y-132485380D01*
X196235533Y-131485380D02*
X196330771Y-131485380D01*
X196426009Y-131533000D01*
X196473628Y-131580619D01*
X196521247Y-131675857D01*
X196568866Y-131866333D01*
X196568866Y-132104428D01*
X196521247Y-132294904D01*
X196473628Y-132390142D01*
X196426009Y-132437761D01*
X196330771Y-132485380D01*
X196235533Y-132485380D01*
X196140295Y-132437761D01*
X196092676Y-132390142D01*
X196045057Y-132294904D01*
X195997438Y-132104428D01*
X195997438Y-131866333D01*
X196045057Y-131675857D01*
X196092676Y-131580619D01*
X196140295Y-131533000D01*
X196235533Y-131485380D01*
G04 #@! TO.C,CP0*
X213785533Y-87021942D02*
X213737914Y-87069561D01*
X213595057Y-87117180D01*
X213499819Y-87117180D01*
X213356961Y-87069561D01*
X213261723Y-86974323D01*
X213214104Y-86879085D01*
X213166485Y-86688609D01*
X213166485Y-86545752D01*
X213214104Y-86355276D01*
X213261723Y-86260038D01*
X213356961Y-86164800D01*
X213499819Y-86117180D01*
X213595057Y-86117180D01*
X213737914Y-86164800D01*
X213785533Y-86212419D01*
X214214104Y-87117180D02*
X214214104Y-86117180D01*
X214595057Y-86117180D01*
X214690295Y-86164800D01*
X214737914Y-86212419D01*
X214785533Y-86307657D01*
X214785533Y-86450514D01*
X214737914Y-86545752D01*
X214690295Y-86593371D01*
X214595057Y-86640990D01*
X214214104Y-86640990D01*
X215404580Y-86117180D02*
X215499819Y-86117180D01*
X215595057Y-86164800D01*
X215642676Y-86212419D01*
X215690295Y-86307657D01*
X215737914Y-86498133D01*
X215737914Y-86736228D01*
X215690295Y-86926704D01*
X215642676Y-87021942D01*
X215595057Y-87069561D01*
X215499819Y-87117180D01*
X215404580Y-87117180D01*
X215309342Y-87069561D01*
X215261723Y-87021942D01*
X215214104Y-86926704D01*
X215166485Y-86736228D01*
X215166485Y-86498133D01*
X215214104Y-86307657D01*
X215261723Y-86212419D01*
X215309342Y-86164800D01*
X215404580Y-86117180D01*
G04 #@! TO.C,C0.1nF0*
X210994904Y-125833142D02*
X210947285Y-125880761D01*
X210804428Y-125928380D01*
X210709190Y-125928380D01*
X210566333Y-125880761D01*
X210471095Y-125785523D01*
X210423476Y-125690285D01*
X210375857Y-125499809D01*
X210375857Y-125356952D01*
X210423476Y-125166476D01*
X210471095Y-125071238D01*
X210566333Y-124976000D01*
X210709190Y-124928380D01*
X210804428Y-124928380D01*
X210947285Y-124976000D01*
X210994904Y-125023619D01*
X211613952Y-124928380D02*
X211709190Y-124928380D01*
X211804428Y-124976000D01*
X211852047Y-125023619D01*
X211899666Y-125118857D01*
X211947285Y-125309333D01*
X211947285Y-125547428D01*
X211899666Y-125737904D01*
X211852047Y-125833142D01*
X211804428Y-125880761D01*
X211709190Y-125928380D01*
X211613952Y-125928380D01*
X211518714Y-125880761D01*
X211471095Y-125833142D01*
X211423476Y-125737904D01*
X211375857Y-125547428D01*
X211375857Y-125309333D01*
X211423476Y-125118857D01*
X211471095Y-125023619D01*
X211518714Y-124976000D01*
X211613952Y-124928380D01*
X212375857Y-125833142D02*
X212423476Y-125880761D01*
X212375857Y-125928380D01*
X212328238Y-125880761D01*
X212375857Y-125833142D01*
X212375857Y-125928380D01*
X213375857Y-125928380D02*
X212804428Y-125928380D01*
X213090142Y-125928380D02*
X213090142Y-124928380D01*
X212994904Y-125071238D01*
X212899666Y-125166476D01*
X212804428Y-125214095D01*
X213804428Y-125261714D02*
X213804428Y-125928380D01*
X213804428Y-125356952D02*
X213852047Y-125309333D01*
X213947285Y-125261714D01*
X214090142Y-125261714D01*
X214185380Y-125309333D01*
X214233000Y-125404571D01*
X214233000Y-125928380D01*
X215042523Y-125404571D02*
X214709190Y-125404571D01*
X214709190Y-125928380D02*
X214709190Y-124928380D01*
X215185380Y-124928380D01*
X215756809Y-124928380D02*
X215852047Y-124928380D01*
X215947285Y-124976000D01*
X215994904Y-125023619D01*
X216042523Y-125118857D01*
X216090142Y-125309333D01*
X216090142Y-125547428D01*
X216042523Y-125737904D01*
X215994904Y-125833142D01*
X215947285Y-125880761D01*
X215852047Y-125928380D01*
X215756809Y-125928380D01*
X215661571Y-125880761D01*
X215613952Y-125833142D01*
X215566333Y-125737904D01*
X215518714Y-125547428D01*
X215518714Y-125309333D01*
X215566333Y-125118857D01*
X215613952Y-125023619D01*
X215661571Y-124976000D01*
X215756809Y-124928380D01*
G04 #@! TO.C,+5V_IN1*
X213046038Y-52979628D02*
X213807942Y-52979628D01*
X213426990Y-53360580D02*
X213426990Y-52598676D01*
X214760323Y-52360580D02*
X214284133Y-52360580D01*
X214236514Y-52836771D01*
X214284133Y-52789152D01*
X214379371Y-52741533D01*
X214617466Y-52741533D01*
X214712704Y-52789152D01*
X214760323Y-52836771D01*
X214807942Y-52932009D01*
X214807942Y-53170104D01*
X214760323Y-53265342D01*
X214712704Y-53312961D01*
X214617466Y-53360580D01*
X214379371Y-53360580D01*
X214284133Y-53312961D01*
X214236514Y-53265342D01*
X215093657Y-52360580D02*
X215426990Y-53360580D01*
X215760323Y-52360580D01*
X215855561Y-53455819D02*
X216617466Y-53455819D01*
X216855561Y-53360580D02*
X216855561Y-52360580D01*
X217331752Y-53360580D02*
X217331752Y-52360580D01*
X217903180Y-53360580D01*
X217903180Y-52360580D01*
X218903180Y-53360580D02*
X218331752Y-53360580D01*
X218617466Y-53360580D02*
X218617466Y-52360580D01*
X218522228Y-52503438D01*
X218426990Y-52598676D01*
X218331752Y-52646295D01*
G04 #@! TO.C,GND1*
X218598904Y-127947800D02*
X218503666Y-127900180D01*
X218360809Y-127900180D01*
X218217952Y-127947800D01*
X218122714Y-128043038D01*
X218075095Y-128138276D01*
X218027476Y-128328752D01*
X218027476Y-128471609D01*
X218075095Y-128662085D01*
X218122714Y-128757323D01*
X218217952Y-128852561D01*
X218360809Y-128900180D01*
X218456047Y-128900180D01*
X218598904Y-128852561D01*
X218646523Y-128804942D01*
X218646523Y-128471609D01*
X218456047Y-128471609D01*
X219075095Y-128900180D02*
X219075095Y-127900180D01*
X219646523Y-128900180D01*
X219646523Y-127900180D01*
X220122714Y-128900180D02*
X220122714Y-127900180D01*
X220360809Y-127900180D01*
X220503666Y-127947800D01*
X220598904Y-128043038D01*
X220646523Y-128138276D01*
X220694142Y-128328752D01*
X220694142Y-128471609D01*
X220646523Y-128662085D01*
X220598904Y-128757323D01*
X220503666Y-128852561D01*
X220360809Y-128900180D01*
X220122714Y-128900180D01*
X221646523Y-128900180D02*
X221075095Y-128900180D01*
X221360809Y-128900180D02*
X221360809Y-127900180D01*
X221265571Y-128043038D01*
X221170333Y-128138276D01*
X221075095Y-128185895D01*
G04 #@! TO.C,RS-485*
X193060914Y-120035580D02*
X192727580Y-119559390D01*
X192489485Y-120035580D02*
X192489485Y-119035580D01*
X192870438Y-119035580D01*
X192965676Y-119083200D01*
X193013295Y-119130819D01*
X193060914Y-119226057D01*
X193060914Y-119368914D01*
X193013295Y-119464152D01*
X192965676Y-119511771D01*
X192870438Y-119559390D01*
X192489485Y-119559390D01*
X193441866Y-119987961D02*
X193584723Y-120035580D01*
X193822819Y-120035580D01*
X193918057Y-119987961D01*
X193965676Y-119940342D01*
X194013295Y-119845104D01*
X194013295Y-119749866D01*
X193965676Y-119654628D01*
X193918057Y-119607009D01*
X193822819Y-119559390D01*
X193632342Y-119511771D01*
X193537104Y-119464152D01*
X193489485Y-119416533D01*
X193441866Y-119321295D01*
X193441866Y-119226057D01*
X193489485Y-119130819D01*
X193537104Y-119083200D01*
X193632342Y-119035580D01*
X193870438Y-119035580D01*
X194013295Y-119083200D01*
X194441866Y-119654628D02*
X195203771Y-119654628D01*
X196108533Y-119368914D02*
X196108533Y-120035580D01*
X195870438Y-118987961D02*
X195632342Y-119702247D01*
X196251390Y-119702247D01*
X196775200Y-119464152D02*
X196679961Y-119416533D01*
X196632342Y-119368914D01*
X196584723Y-119273676D01*
X196584723Y-119226057D01*
X196632342Y-119130819D01*
X196679961Y-119083200D01*
X196775200Y-119035580D01*
X196965676Y-119035580D01*
X197060914Y-119083200D01*
X197108533Y-119130819D01*
X197156152Y-119226057D01*
X197156152Y-119273676D01*
X197108533Y-119368914D01*
X197060914Y-119416533D01*
X196965676Y-119464152D01*
X196775200Y-119464152D01*
X196679961Y-119511771D01*
X196632342Y-119559390D01*
X196584723Y-119654628D01*
X196584723Y-119845104D01*
X196632342Y-119940342D01*
X196679961Y-119987961D01*
X196775200Y-120035580D01*
X196965676Y-120035580D01*
X197060914Y-119987961D01*
X197108533Y-119940342D01*
X197156152Y-119845104D01*
X197156152Y-119654628D01*
X197108533Y-119559390D01*
X197060914Y-119511771D01*
X196965676Y-119464152D01*
X198060914Y-119035580D02*
X197584723Y-119035580D01*
X197537104Y-119511771D01*
X197584723Y-119464152D01*
X197679961Y-119416533D01*
X197918057Y-119416533D01*
X198013295Y-119464152D01*
X198060914Y-119511771D01*
X198108533Y-119607009D01*
X198108533Y-119845104D01*
X198060914Y-119940342D01*
X198013295Y-119987961D01*
X197918057Y-120035580D01*
X197679961Y-120035580D01*
X197584723Y-119987961D01*
X197537104Y-119940342D01*
G04 #@! TO.C,Prt_IC1*
X193203819Y-125420380D02*
X193203819Y-124420380D01*
X193584771Y-124420380D01*
X193680009Y-124468000D01*
X193727628Y-124515619D01*
X193775247Y-124610857D01*
X193775247Y-124753714D01*
X193727628Y-124848952D01*
X193680009Y-124896571D01*
X193584771Y-124944190D01*
X193203819Y-124944190D01*
X194203819Y-125420380D02*
X194203819Y-124753714D01*
X194203819Y-124944190D02*
X194251438Y-124848952D01*
X194299057Y-124801333D01*
X194394295Y-124753714D01*
X194489533Y-124753714D01*
X194680009Y-124753714D02*
X195060961Y-124753714D01*
X194822866Y-124420380D02*
X194822866Y-125277523D01*
X194870485Y-125372761D01*
X194965723Y-125420380D01*
X195060961Y-125420380D01*
X195156200Y-125515619D02*
X195918104Y-125515619D01*
X196156200Y-125420380D02*
X196156200Y-124420380D01*
X197203819Y-125325142D02*
X197156200Y-125372761D01*
X197013342Y-125420380D01*
X196918104Y-125420380D01*
X196775247Y-125372761D01*
X196680009Y-125277523D01*
X196632390Y-125182285D01*
X196584771Y-124991809D01*
X196584771Y-124848952D01*
X196632390Y-124658476D01*
X196680009Y-124563238D01*
X196775247Y-124468000D01*
X196918104Y-124420380D01*
X197013342Y-124420380D01*
X197156200Y-124468000D01*
X197203819Y-124515619D01*
X198156200Y-125420380D02*
X197584771Y-125420380D01*
X197870485Y-125420380D02*
X197870485Y-124420380D01*
X197775247Y-124563238D01*
X197680009Y-124658476D01*
X197584771Y-124706095D01*
G04 #@! TD*
M02*
